G04 #@! TF.FileFunction,Other,Fab,Top*
%FSLAX46Y46*%
G04 Gerber Fmt 4.6, Leading zero omitted, Abs format (unit mm)*
G04 Created by KiCad (PCBNEW 4.0.7) date 05/25/18 18:50:48*
%MOMM*%
%LPD*%
G01*
G04 APERTURE LIST*
%ADD10C,0.100000*%
%ADD11C,0.200000*%
%ADD12C,0.150000*%
%ADD13C,0.120000*%
%ADD14C,0.105000*%
%ADD15C,0.135000*%
G04 APERTURE END LIST*
D10*
D11*
X42521429Y-22192857D02*
X42521429Y-20992857D01*
X42521429Y-21564286D02*
X43207144Y-21564286D01*
X43207144Y-22192857D02*
X43207144Y-20992857D01*
X43721429Y-22135714D02*
X43892858Y-22192857D01*
X44178572Y-22192857D01*
X44292858Y-22135714D01*
X44350001Y-22078571D01*
X44407144Y-21964286D01*
X44407144Y-21850000D01*
X44350001Y-21735714D01*
X44292858Y-21678571D01*
X44178572Y-21621429D01*
X43950001Y-21564286D01*
X43835715Y-21507143D01*
X43778572Y-21450000D01*
X43721429Y-21335714D01*
X43721429Y-21221429D01*
X43778572Y-21107143D01*
X43835715Y-21050000D01*
X43950001Y-20992857D01*
X44235715Y-20992857D01*
X44407144Y-21050000D01*
X44921429Y-21564286D02*
X45321429Y-21564286D01*
X45492858Y-22192857D02*
X44921429Y-22192857D01*
X44921429Y-20992857D01*
X45492858Y-20992857D01*
X46692858Y-22078571D02*
X46635715Y-22135714D01*
X46464286Y-22192857D01*
X46350000Y-22192857D01*
X46178572Y-22135714D01*
X46064286Y-22021429D01*
X46007143Y-21907143D01*
X45950000Y-21678571D01*
X45950000Y-21507143D01*
X46007143Y-21278571D01*
X46064286Y-21164286D01*
X46178572Y-21050000D01*
X46350000Y-20992857D01*
X46464286Y-20992857D01*
X46635715Y-21050000D01*
X46692858Y-21107143D01*
X47378572Y-21507143D02*
X47264286Y-21450000D01*
X47207143Y-21392857D01*
X47150000Y-21278571D01*
X47150000Y-21221429D01*
X47207143Y-21107143D01*
X47264286Y-21050000D01*
X47378572Y-20992857D01*
X47607143Y-20992857D01*
X47721429Y-21050000D01*
X47778572Y-21107143D01*
X47835715Y-21221429D01*
X47835715Y-21278571D01*
X47778572Y-21392857D01*
X47721429Y-21450000D01*
X47607143Y-21507143D01*
X47378572Y-21507143D01*
X47264286Y-21564286D01*
X47207143Y-21621429D01*
X47150000Y-21735714D01*
X47150000Y-21964286D01*
X47207143Y-22078571D01*
X47264286Y-22135714D01*
X47378572Y-22192857D01*
X47607143Y-22192857D01*
X47721429Y-22135714D01*
X47778572Y-22078571D01*
X47835715Y-21964286D01*
X47835715Y-21735714D01*
X47778572Y-21621429D01*
X47721429Y-21564286D01*
X47607143Y-21507143D01*
D12*
X20202381Y-64411905D02*
X21011905Y-64411905D01*
X21107143Y-64364286D01*
X21154762Y-64316667D01*
X21202381Y-64221429D01*
X21202381Y-64030952D01*
X21154762Y-63935714D01*
X21107143Y-63888095D01*
X21011905Y-63840476D01*
X20202381Y-63840476D01*
X20202381Y-62935714D02*
X20202381Y-63126191D01*
X20250000Y-63221429D01*
X20297619Y-63269048D01*
X20440476Y-63364286D01*
X20630952Y-63411905D01*
X21011905Y-63411905D01*
X21107143Y-63364286D01*
X21154762Y-63316667D01*
X21202381Y-63221429D01*
X21202381Y-63030952D01*
X21154762Y-62935714D01*
X21107143Y-62888095D01*
X21011905Y-62840476D01*
X20773810Y-62840476D01*
X20678571Y-62888095D01*
X20630952Y-62935714D01*
X20583333Y-63030952D01*
X20583333Y-63221429D01*
X20630952Y-63316667D01*
X20678571Y-63364286D01*
X20773810Y-63411905D01*
X43885715Y-48178571D02*
X43885715Y-49250000D01*
X43814287Y-49464286D01*
X43671430Y-49607143D01*
X43457144Y-49678571D01*
X43314287Y-49678571D01*
X45385715Y-49678571D02*
X44528572Y-49678571D01*
X44957144Y-49678571D02*
X44957144Y-48178571D01*
X44814287Y-48392857D01*
X44671429Y-48535714D01*
X44528572Y-48607143D01*
X46814286Y-49678571D02*
X45957143Y-49678571D01*
X46385715Y-49678571D02*
X46385715Y-48178571D01*
X46242858Y-48392857D01*
X46100000Y-48535714D01*
X45957143Y-48607143D01*
X4721429Y-76000000D02*
X5292858Y-76000000D01*
X4607144Y-76342857D02*
X5007144Y-75142857D01*
X5407144Y-76342857D01*
X6492858Y-76228571D02*
X6435715Y-76285714D01*
X6264286Y-76342857D01*
X6150000Y-76342857D01*
X5978572Y-76285714D01*
X5864286Y-76171429D01*
X5807143Y-76057143D01*
X5750000Y-75828571D01*
X5750000Y-75657143D01*
X5807143Y-75428571D01*
X5864286Y-75314286D01*
X5978572Y-75200000D01*
X6150000Y-75142857D01*
X6264286Y-75142857D01*
X6435715Y-75200000D01*
X6492858Y-75257143D01*
X7007143Y-76342857D02*
X7007143Y-75142857D01*
X7464286Y-75142857D01*
X7578572Y-75200000D01*
X7635715Y-75257143D01*
X7692858Y-75371429D01*
X7692858Y-75542857D01*
X7635715Y-75657143D01*
X7578572Y-75714286D01*
X7464286Y-75771429D01*
X7007143Y-75771429D01*
X8778572Y-76342857D02*
X8207143Y-76342857D01*
X8207143Y-75142857D01*
X9178572Y-75885714D02*
X10092858Y-75885714D01*
X11350001Y-76228571D02*
X11292858Y-76285714D01*
X11121429Y-76342857D01*
X11007143Y-76342857D01*
X10835715Y-76285714D01*
X10721429Y-76171429D01*
X10664286Y-76057143D01*
X10607143Y-75828571D01*
X10607143Y-75657143D01*
X10664286Y-75428571D01*
X10721429Y-75314286D01*
X10835715Y-75200000D01*
X11007143Y-75142857D01*
X11121429Y-75142857D01*
X11292858Y-75200000D01*
X11350001Y-75257143D01*
X12035715Y-75657143D02*
X11921429Y-75600000D01*
X11864286Y-75542857D01*
X11807143Y-75428571D01*
X11807143Y-75371429D01*
X11864286Y-75257143D01*
X11921429Y-75200000D01*
X12035715Y-75142857D01*
X12264286Y-75142857D01*
X12378572Y-75200000D01*
X12435715Y-75257143D01*
X12492858Y-75371429D01*
X12492858Y-75428571D01*
X12435715Y-75542857D01*
X12378572Y-75600000D01*
X12264286Y-75657143D01*
X12035715Y-75657143D01*
X11921429Y-75714286D01*
X11864286Y-75771429D01*
X11807143Y-75885714D01*
X11807143Y-76114286D01*
X11864286Y-76228571D01*
X11921429Y-76285714D01*
X12035715Y-76342857D01*
X12264286Y-76342857D01*
X12378572Y-76285714D01*
X12435715Y-76228571D01*
X12492858Y-76114286D01*
X12492858Y-75885714D01*
X12435715Y-75771429D01*
X12378572Y-75714286D01*
X12264286Y-75657143D01*
X12892858Y-75142857D02*
X13692858Y-75142857D01*
X13178572Y-76342857D01*
X14378572Y-75142857D02*
X14492857Y-75142857D01*
X14607143Y-75200000D01*
X14664286Y-75257143D01*
X14721429Y-75371429D01*
X14778572Y-75600000D01*
X14778572Y-75885714D01*
X14721429Y-76114286D01*
X14664286Y-76228571D01*
X14607143Y-76285714D01*
X14492857Y-76342857D01*
X14378572Y-76342857D01*
X14264286Y-76285714D01*
X14207143Y-76228571D01*
X14150000Y-76114286D01*
X14092857Y-75885714D01*
X14092857Y-75600000D01*
X14150000Y-75371429D01*
X14207143Y-75257143D01*
X14264286Y-75200000D01*
X14378572Y-75142857D01*
X15292857Y-75885714D02*
X16207143Y-75885714D01*
X17007143Y-75142857D02*
X17121428Y-75142857D01*
X17235714Y-75200000D01*
X17292857Y-75257143D01*
X17350000Y-75371429D01*
X17407143Y-75600000D01*
X17407143Y-75885714D01*
X17350000Y-76114286D01*
X17292857Y-76228571D01*
X17235714Y-76285714D01*
X17121428Y-76342857D01*
X17007143Y-76342857D01*
X16892857Y-76285714D01*
X16835714Y-76228571D01*
X16778571Y-76114286D01*
X16721428Y-75885714D01*
X16721428Y-75600000D01*
X16778571Y-75371429D01*
X16835714Y-75257143D01*
X16892857Y-75200000D01*
X17007143Y-75142857D01*
X18150000Y-75142857D02*
X18264285Y-75142857D01*
X18378571Y-75200000D01*
X18435714Y-75257143D01*
X18492857Y-75371429D01*
X18550000Y-75600000D01*
X18550000Y-75885714D01*
X18492857Y-76114286D01*
X18435714Y-76228571D01*
X18378571Y-76285714D01*
X18264285Y-76342857D01*
X18150000Y-76342857D01*
X18035714Y-76285714D01*
X17978571Y-76228571D01*
X17921428Y-76114286D01*
X17864285Y-75885714D01*
X17864285Y-75600000D01*
X17921428Y-75371429D01*
X17978571Y-75257143D01*
X18035714Y-75200000D01*
X18150000Y-75142857D01*
X19292857Y-75142857D02*
X19407142Y-75142857D01*
X19521428Y-75200000D01*
X19578571Y-75257143D01*
X19635714Y-75371429D01*
X19692857Y-75600000D01*
X19692857Y-75885714D01*
X19635714Y-76114286D01*
X19578571Y-76228571D01*
X19521428Y-76285714D01*
X19407142Y-76342857D01*
X19292857Y-76342857D01*
X19178571Y-76285714D01*
X19121428Y-76228571D01*
X19064285Y-76114286D01*
X19007142Y-75885714D01*
X19007142Y-75600000D01*
X19064285Y-75371429D01*
X19121428Y-75257143D01*
X19178571Y-75200000D01*
X19292857Y-75142857D01*
X20207142Y-75714286D02*
X20607142Y-75714286D01*
X20778571Y-76342857D02*
X20207142Y-76342857D01*
X20207142Y-75142857D01*
X20778571Y-75142857D01*
X11107143Y-79228571D02*
X11107143Y-80442857D01*
X11178571Y-80585714D01*
X11250000Y-80657143D01*
X11392857Y-80728571D01*
X11678571Y-80728571D01*
X11821429Y-80657143D01*
X11892857Y-80585714D01*
X11964286Y-80442857D01*
X11964286Y-79228571D01*
X13464286Y-80728571D02*
X12607143Y-80728571D01*
X13035715Y-80728571D02*
X13035715Y-79228571D01*
X12892858Y-79442857D01*
X12750000Y-79585714D01*
X12607143Y-79657143D01*
X77100001Y-10092857D02*
X76600001Y-10092857D01*
X76600001Y-10878571D02*
X76600001Y-9378571D01*
X77314287Y-9378571D01*
X78671429Y-10878571D02*
X77814286Y-10878571D01*
X78242858Y-10878571D02*
X78242858Y-9378571D01*
X78100001Y-9592857D01*
X77957143Y-9735714D01*
X77814286Y-9807143D01*
X17050000Y-5528571D02*
X17050000Y-6600000D01*
X16978572Y-6814286D01*
X16835715Y-6957143D01*
X16621429Y-7028571D01*
X16478572Y-7028571D01*
X17621429Y-5528571D02*
X18550000Y-5528571D01*
X18050000Y-6100000D01*
X18264286Y-6100000D01*
X18407143Y-6171429D01*
X18478572Y-6242857D01*
X18550000Y-6385714D01*
X18550000Y-6742857D01*
X18478572Y-6885714D01*
X18407143Y-6957143D01*
X18264286Y-7028571D01*
X17835714Y-7028571D01*
X17692857Y-6957143D01*
X17621429Y-6885714D01*
D10*
X8581480Y-66096560D02*
X6981480Y-66096560D01*
X8581480Y-62896560D02*
X8581480Y-66096560D01*
X6981480Y-62896560D02*
X8581480Y-62896560D01*
X6981480Y-66096560D02*
X6981480Y-62896560D01*
D13*
X54305760Y-2798120D02*
X54305760Y-8998120D01*
X54305760Y-8998120D02*
X59785760Y-8998120D01*
X59785760Y-8998120D02*
X59785760Y-2798120D01*
X59785760Y-2798120D02*
X54305760Y-2798120D01*
D10*
X89824460Y-16740420D02*
X64464460Y-16740420D01*
X64464460Y-32940420D02*
X64464460Y-67540420D01*
X64464460Y-67540420D02*
X89824460Y-67540420D01*
X89824460Y-67540420D02*
X89824460Y-16740420D01*
X64464460Y-30940420D02*
X64464460Y-16740420D01*
X65464460Y-31940420D02*
X64464460Y-30940420D01*
X64464460Y-32940420D02*
X65464460Y-31940420D01*
X23085760Y-71158120D02*
X23085760Y-72758120D01*
X19885760Y-71158120D02*
X23085760Y-71158120D01*
X19885760Y-72758120D02*
X19885760Y-71158120D01*
X23085760Y-72758120D02*
X19885760Y-72758120D01*
X12138460Y-60959720D02*
X10538460Y-60959720D01*
X12138460Y-57759720D02*
X12138460Y-60959720D01*
X10538460Y-57759720D02*
X12138460Y-57759720D01*
X10538460Y-60959720D02*
X10538460Y-57759720D01*
X18200000Y-60900000D02*
X16600000Y-60900000D01*
X18200000Y-57700000D02*
X18200000Y-60900000D01*
X16600000Y-57700000D02*
X18200000Y-57700000D01*
X16600000Y-60900000D02*
X16600000Y-57700000D01*
X19885760Y-67678120D02*
X19885760Y-66078120D01*
X23085760Y-67678120D02*
X19885760Y-67678120D01*
X23085760Y-66078120D02*
X23085760Y-67678120D01*
X19885760Y-66078120D02*
X23085760Y-66078120D01*
X19885760Y-70218120D02*
X19885760Y-68618120D01*
X23085760Y-70218120D02*
X19885760Y-70218120D01*
X23085760Y-68618120D02*
X23085760Y-70218120D01*
X19885760Y-68618120D02*
X23085760Y-68618120D01*
X88695760Y-11888120D02*
X88695760Y-2488120D01*
X88695760Y-2488120D02*
X66395760Y-2488120D01*
X66395760Y-2488120D02*
X66395760Y-11888120D01*
X66395760Y-11888120D02*
X88695760Y-11888120D01*
D13*
X42875760Y-2798120D02*
X42875760Y-8998120D01*
X42875760Y-8998120D02*
X50895760Y-8998120D01*
X50895760Y-8998120D02*
X50895760Y-2798120D01*
X50895760Y-2798120D02*
X42875760Y-2798120D01*
X3580000Y-52620000D02*
X9780000Y-52620000D01*
X9780000Y-52620000D02*
X9780000Y-47140000D01*
X9780000Y-47140000D02*
X3580000Y-47140000D01*
X3580000Y-47140000D02*
X3580000Y-52620000D01*
X22955760Y-125878120D02*
X22955760Y-119678120D01*
X22955760Y-119678120D02*
X14935760Y-119678120D01*
X14935760Y-119678120D02*
X14935760Y-125878120D01*
X14935760Y-125878120D02*
X22955760Y-125878120D01*
X34385760Y-125878120D02*
X34385760Y-119678120D01*
X34385760Y-119678120D02*
X26365760Y-119678120D01*
X26365760Y-119678120D02*
X26365760Y-125878120D01*
X26365760Y-125878120D02*
X34385760Y-125878120D01*
X58515760Y-125878120D02*
X58515760Y-119678120D01*
X58515760Y-119678120D02*
X53035760Y-119678120D01*
X53035760Y-119678120D02*
X53035760Y-125878120D01*
X53035760Y-125878120D02*
X58515760Y-125878120D01*
X89375760Y-71758120D02*
X83175760Y-71758120D01*
X83175760Y-71758120D02*
X83175760Y-82318120D01*
X83175760Y-82318120D02*
X89375760Y-82318120D01*
X89375760Y-82318120D02*
X89375760Y-71758120D01*
X89375760Y-84458120D02*
X83175760Y-84458120D01*
X83175760Y-84458120D02*
X83175760Y-95018120D01*
X83175760Y-95018120D02*
X89375760Y-95018120D01*
X89375760Y-95018120D02*
X89375760Y-84458120D01*
X89375760Y-97158120D02*
X83175760Y-97158120D01*
X83175760Y-97158120D02*
X83175760Y-107718120D01*
X83175760Y-107718120D02*
X89375760Y-107718120D01*
X89375760Y-107718120D02*
X89375760Y-97158120D01*
D10*
X6655000Y-28545000D02*
X6655000Y-30145000D01*
X3455000Y-28545000D02*
X6655000Y-28545000D01*
X3455000Y-30145000D02*
X3455000Y-28545000D01*
X6655000Y-30145000D02*
X3455000Y-30145000D01*
X16955760Y-28548120D02*
X16955760Y-30148120D01*
X13755760Y-28548120D02*
X16955760Y-28548120D01*
X13755760Y-30148120D02*
X13755760Y-28548120D01*
X16955760Y-30148120D02*
X13755760Y-30148120D01*
X13006880Y-63820760D02*
X13006880Y-65420760D01*
X9806880Y-63820760D02*
X13006880Y-63820760D01*
X9806880Y-65420760D02*
X9806880Y-63820760D01*
X13006880Y-65420760D02*
X9806880Y-65420760D01*
X3455000Y-27695000D02*
X3455000Y-26095000D01*
X6655000Y-27695000D02*
X3455000Y-27695000D01*
X6655000Y-26095000D02*
X6655000Y-27695000D01*
X3455000Y-26095000D02*
X6655000Y-26095000D01*
X13755760Y-27698120D02*
X13755760Y-26098120D01*
X16955760Y-27698120D02*
X13755760Y-27698120D01*
X16955760Y-26098120D02*
X16955760Y-27698120D01*
X13755760Y-26098120D02*
X16955760Y-26098120D01*
X12125760Y-98958120D02*
X10525760Y-98958120D01*
X12125760Y-95758120D02*
X12125760Y-98958120D01*
X10525760Y-95758120D02*
X12125760Y-95758120D01*
X10525760Y-98958120D02*
X10525760Y-95758120D01*
X15935760Y-98958120D02*
X14335760Y-98958120D01*
X15935760Y-95758120D02*
X15935760Y-98958120D01*
X14335760Y-95758120D02*
X15935760Y-95758120D01*
X14335760Y-98958120D02*
X14335760Y-95758120D01*
X8570620Y-27701740D02*
X8570620Y-26101740D01*
X11770620Y-27701740D02*
X8570620Y-27701740D01*
X11770620Y-26101740D02*
X11770620Y-27701740D01*
X8570620Y-26101740D02*
X11770620Y-26101740D01*
X37665760Y-112128120D02*
X37665760Y-110528120D01*
X40865760Y-112128120D02*
X37665760Y-112128120D01*
X40865760Y-110528120D02*
X40865760Y-112128120D01*
X37665760Y-110528120D02*
X40865760Y-110528120D01*
X12925760Y-110528120D02*
X12925760Y-112128120D01*
X9725760Y-110528120D02*
X12925760Y-110528120D01*
X9725760Y-112128120D02*
X9725760Y-110528120D01*
X12925760Y-112128120D02*
X9725760Y-112128120D01*
X32585760Y-112128120D02*
X32585760Y-110528120D01*
X35785760Y-112128120D02*
X32585760Y-112128120D01*
X35785760Y-110528120D02*
X35785760Y-112128120D01*
X32585760Y-110528120D02*
X35785760Y-110528120D01*
X7845760Y-110528120D02*
X7845760Y-112128120D01*
X4645760Y-110528120D02*
X7845760Y-110528120D01*
X4645760Y-112128120D02*
X4645760Y-110528120D01*
X7845760Y-112128120D02*
X4645760Y-112128120D01*
X37665760Y-94348120D02*
X37665760Y-92748120D01*
X40865760Y-94348120D02*
X37665760Y-94348120D01*
X40865760Y-92748120D02*
X40865760Y-94348120D01*
X37665760Y-92748120D02*
X40865760Y-92748120D01*
X42745760Y-94348120D02*
X42745760Y-92748120D01*
X45945760Y-94348120D02*
X42745760Y-94348120D01*
X45945760Y-92748120D02*
X45945760Y-94348120D01*
X42745760Y-92748120D02*
X45945760Y-92748120D01*
X40865760Y-106718120D02*
X40865760Y-108318120D01*
X37665760Y-106718120D02*
X40865760Y-106718120D01*
X37665760Y-108318120D02*
X37665760Y-106718120D01*
X40865760Y-108318120D02*
X37665760Y-108318120D01*
X42745760Y-104508120D02*
X42745760Y-102908120D01*
X45945760Y-104508120D02*
X42745760Y-104508120D01*
X45945760Y-102908120D02*
X45945760Y-104508120D01*
X42745760Y-102908120D02*
X45945760Y-102908120D01*
X18005760Y-110528120D02*
X18005760Y-112128120D01*
X14805760Y-110528120D02*
X18005760Y-110528120D01*
X14805760Y-112128120D02*
X14805760Y-110528120D01*
X18005760Y-112128120D02*
X14805760Y-112128120D01*
X32585760Y-94348120D02*
X32585760Y-92748120D01*
X35785760Y-94348120D02*
X32585760Y-94348120D01*
X35785760Y-92748120D02*
X35785760Y-94348120D01*
X32585760Y-92748120D02*
X35785760Y-92748120D01*
X9725760Y-108318120D02*
X9725760Y-106718120D01*
X12925760Y-108318120D02*
X9725760Y-108318120D01*
X12925760Y-106718120D02*
X12925760Y-108318120D01*
X9725760Y-106718120D02*
X12925760Y-106718120D01*
X27505760Y-112128120D02*
X27505760Y-110528120D01*
X30705760Y-112128120D02*
X27505760Y-112128120D01*
X30705760Y-110528120D02*
X30705760Y-112128120D01*
X27505760Y-110528120D02*
X30705760Y-110528120D01*
X14805760Y-108318120D02*
X14805760Y-106718120D01*
X18005760Y-108318120D02*
X14805760Y-108318120D01*
X18005760Y-106718120D02*
X18005760Y-108318120D01*
X14805760Y-106718120D02*
X18005760Y-106718120D01*
X8582460Y-60870820D02*
X6982460Y-60870820D01*
X8582460Y-57670820D02*
X8582460Y-60870820D01*
X6982460Y-57670820D02*
X8582460Y-57670820D01*
X6982460Y-60870820D02*
X6982460Y-57670820D01*
X18145760Y-95758120D02*
X19745760Y-95758120D01*
X18145760Y-98958120D02*
X18145760Y-95758120D01*
X19745760Y-98958120D02*
X18145760Y-98958120D01*
X19745760Y-95758120D02*
X19745760Y-98958120D01*
X11764380Y-28538260D02*
X11764380Y-30138260D01*
X8564380Y-28538260D02*
X11764380Y-28538260D01*
X8564380Y-30138260D02*
X8564380Y-28538260D01*
X11764380Y-30138260D02*
X8564380Y-30138260D01*
X42745760Y-112128120D02*
X42745760Y-110528120D01*
X45945760Y-112128120D02*
X42745760Y-112128120D01*
X45945760Y-110528120D02*
X45945760Y-112128120D01*
X42745760Y-110528120D02*
X45945760Y-110528120D01*
X35785760Y-106718120D02*
X35785760Y-108318120D01*
X32585760Y-106718120D02*
X35785760Y-106718120D01*
X32585760Y-108318120D02*
X32585760Y-106718120D01*
X35785760Y-108318120D02*
X32585760Y-108318120D01*
X7845760Y-102908120D02*
X7845760Y-104508120D01*
X4645760Y-102908120D02*
X7845760Y-102908120D01*
X4645760Y-104508120D02*
X4645760Y-102908120D01*
X7845760Y-104508120D02*
X4645760Y-104508120D01*
X40865760Y-96558120D02*
X40865760Y-98158120D01*
X37665760Y-96558120D02*
X40865760Y-96558120D01*
X37665760Y-98158120D02*
X37665760Y-96558120D01*
X40865760Y-98158120D02*
X37665760Y-98158120D01*
X35785760Y-96558120D02*
X35785760Y-98158120D01*
X32585760Y-96558120D02*
X35785760Y-96558120D01*
X32585760Y-98158120D02*
X32585760Y-96558120D01*
X35785760Y-98158120D02*
X32585760Y-98158120D01*
X42745760Y-101968120D02*
X42745760Y-100368120D01*
X45945760Y-101968120D02*
X42745760Y-101968120D01*
X45945760Y-100368120D02*
X45945760Y-101968120D01*
X42745760Y-100368120D02*
X45945760Y-100368120D01*
X23085760Y-110528120D02*
X23085760Y-112128120D01*
X19885760Y-110528120D02*
X23085760Y-110528120D01*
X19885760Y-112128120D02*
X19885760Y-110528120D01*
X23085760Y-112128120D02*
X19885760Y-112128120D01*
X27505760Y-94348120D02*
X27505760Y-92748120D01*
X30705760Y-94348120D02*
X27505760Y-94348120D01*
X30705760Y-92748120D02*
X30705760Y-94348120D01*
X27505760Y-92748120D02*
X30705760Y-92748120D01*
D12*
X24345760Y-98088120D02*
X27245760Y-98088120D01*
X27245760Y-98088120D02*
X27245760Y-106788120D01*
X27245760Y-106788120D02*
X23345760Y-106788120D01*
X23345760Y-106788120D02*
X23345760Y-99088120D01*
X23345760Y-99088120D02*
X24345760Y-98088120D01*
D10*
X48235760Y-107558120D02*
X48235760Y-111958120D01*
X48235760Y-111958120D02*
X58235760Y-111958120D01*
X58235760Y-111958120D02*
X58235760Y-107558120D01*
X58235760Y-107558120D02*
X48235760Y-107558120D01*
X48235760Y-108828120D02*
X58235760Y-108828120D01*
X51385760Y-107558120D02*
X51385760Y-108828120D01*
X55085760Y-107558120D02*
X55085760Y-108828120D01*
X63475760Y-107558120D02*
X63475760Y-111958120D01*
X63475760Y-111958120D02*
X73475760Y-111958120D01*
X73475760Y-111958120D02*
X73475760Y-107558120D01*
X73475760Y-107558120D02*
X63475760Y-107558120D01*
X63475760Y-108828120D02*
X73475760Y-108828120D01*
X66625760Y-107558120D02*
X66625760Y-108828120D01*
X70325760Y-107558120D02*
X70325760Y-108828120D01*
D12*
X17695760Y-13718120D02*
X32695760Y-13718120D01*
X32695760Y-13718120D02*
X32695760Y-12218120D01*
X2695760Y-10718120D02*
X2695760Y-13718120D01*
X17695760Y-13718120D02*
X2695760Y-13718120D01*
X32695760Y-12218120D02*
X32695760Y-1278120D01*
X32695760Y-1278120D02*
X2695760Y-1278120D01*
X2695760Y-1278120D02*
X2695760Y-12218120D01*
X14865760Y-82998120D02*
X9365760Y-82998120D01*
X9365760Y-82998120D02*
X9365760Y-76748120D01*
X9365760Y-76748120D02*
X14865760Y-76748120D01*
X14865760Y-76748120D02*
X14865760Y-82998120D01*
X19398860Y-62102820D02*
X19398860Y-65002820D01*
X22108860Y-62102820D02*
X19408860Y-62102820D01*
X22108860Y-62112820D02*
X22108860Y-64992820D01*
X22108860Y-64992820D02*
X22108860Y-65002820D01*
X22108860Y-65002820D02*
X19408860Y-65002820D01*
X19408860Y-65002820D02*
X19398860Y-65002820D01*
X48695760Y-22668120D02*
X41605760Y-22668120D01*
X41605760Y-22668120D02*
X41605760Y-78478120D01*
X41605760Y-78478120D02*
X48705760Y-78478120D01*
X48705760Y-78478120D02*
X48705760Y-22668120D01*
X48705760Y-22668120D02*
X48665760Y-22668120D01*
X55652381Y-27545239D02*
X54652381Y-27545239D01*
X55366667Y-27211905D01*
X54652381Y-26878572D01*
X55652381Y-26878572D01*
X55652381Y-26259525D02*
X55604762Y-26354763D01*
X55557143Y-26402382D01*
X55461905Y-26450001D01*
X55176190Y-26450001D01*
X55080952Y-26402382D01*
X55033333Y-26354763D01*
X54985714Y-26259525D01*
X54985714Y-26116667D01*
X55033333Y-26021429D01*
X55080952Y-25973810D01*
X55176190Y-25926191D01*
X55461905Y-25926191D01*
X55557143Y-25973810D01*
X55604762Y-26021429D01*
X55652381Y-26116667D01*
X55652381Y-26259525D01*
X54985714Y-25069048D02*
X55652381Y-25069048D01*
X54985714Y-25497620D02*
X55509524Y-25497620D01*
X55604762Y-25450001D01*
X55652381Y-25354763D01*
X55652381Y-25211905D01*
X55604762Y-25116667D01*
X55557143Y-25069048D01*
X54985714Y-24592858D02*
X55652381Y-24592858D01*
X55080952Y-24592858D02*
X55033333Y-24545239D01*
X54985714Y-24450001D01*
X54985714Y-24307143D01*
X55033333Y-24211905D01*
X55128571Y-24164286D01*
X55652381Y-24164286D01*
X54985714Y-23830953D02*
X54985714Y-23450001D01*
X54652381Y-23688096D02*
X55509524Y-23688096D01*
X55604762Y-23640477D01*
X55652381Y-23545239D01*
X55652381Y-23450001D01*
X55652381Y-23116667D02*
X54985714Y-23116667D01*
X54652381Y-23116667D02*
X54700000Y-23164286D01*
X54747619Y-23116667D01*
X54700000Y-23069048D01*
X54652381Y-23116667D01*
X54747619Y-23116667D01*
X54985714Y-22640477D02*
X55652381Y-22640477D01*
X55080952Y-22640477D02*
X55033333Y-22592858D01*
X54985714Y-22497620D01*
X54985714Y-22354762D01*
X55033333Y-22259524D01*
X55128571Y-22211905D01*
X55652381Y-22211905D01*
X54985714Y-21307143D02*
X55795238Y-21307143D01*
X55890476Y-21354762D01*
X55938095Y-21402381D01*
X55985714Y-21497620D01*
X55985714Y-21640477D01*
X55938095Y-21735715D01*
X55604762Y-21307143D02*
X55652381Y-21402381D01*
X55652381Y-21592858D01*
X55604762Y-21688096D01*
X55557143Y-21735715D01*
X55461905Y-21783334D01*
X55176190Y-21783334D01*
X55080952Y-21735715D01*
X55033333Y-21688096D01*
X54985714Y-21592858D01*
X54985714Y-21402381D01*
X55033333Y-21307143D01*
X55652381Y-20069048D02*
X54652381Y-20069048D01*
X55652381Y-19640476D02*
X55128571Y-19640476D01*
X55033333Y-19688095D01*
X54985714Y-19783333D01*
X54985714Y-19926191D01*
X55033333Y-20021429D01*
X55080952Y-20069048D01*
X55652381Y-19021429D02*
X55604762Y-19116667D01*
X55557143Y-19164286D01*
X55461905Y-19211905D01*
X55176190Y-19211905D01*
X55080952Y-19164286D01*
X55033333Y-19116667D01*
X54985714Y-19021429D01*
X54985714Y-18878571D01*
X55033333Y-18783333D01*
X55080952Y-18735714D01*
X55176190Y-18688095D01*
X55461905Y-18688095D01*
X55557143Y-18735714D01*
X55604762Y-18783333D01*
X55652381Y-18878571D01*
X55652381Y-19021429D01*
X55652381Y-18116667D02*
X55604762Y-18211905D01*
X55509524Y-18259524D01*
X54652381Y-18259524D01*
X55604762Y-17354761D02*
X55652381Y-17449999D01*
X55652381Y-17640476D01*
X55604762Y-17735714D01*
X55509524Y-17783333D01*
X55128571Y-17783333D01*
X55033333Y-17735714D01*
X54985714Y-17640476D01*
X54985714Y-17449999D01*
X55033333Y-17354761D01*
X55128571Y-17307142D01*
X55223810Y-17307142D01*
X55319048Y-17783333D01*
X58966667Y-23052381D02*
X58633333Y-22576190D01*
X58395238Y-23052381D02*
X58395238Y-22052381D01*
X58776191Y-22052381D01*
X58871429Y-22100000D01*
X58919048Y-22147619D01*
X58966667Y-22242857D01*
X58966667Y-22385714D01*
X58919048Y-22480952D01*
X58871429Y-22528571D01*
X58776191Y-22576190D01*
X58395238Y-22576190D01*
X59395238Y-22528571D02*
X59728572Y-22528571D01*
X59871429Y-23052381D02*
X59395238Y-23052381D01*
X59395238Y-22052381D01*
X59871429Y-22052381D01*
X60633334Y-22528571D02*
X60300000Y-22528571D01*
X60300000Y-23052381D02*
X60300000Y-22052381D01*
X60776191Y-22052381D01*
X61300000Y-22052381D02*
X61300000Y-22290476D01*
X61061905Y-22195238D02*
X61300000Y-22290476D01*
X61538096Y-22195238D01*
X61157143Y-22480952D02*
X61300000Y-22290476D01*
X61442858Y-22480952D01*
X62061905Y-22052381D02*
X62061905Y-22290476D01*
X61823810Y-22195238D02*
X62061905Y-22290476D01*
X62300001Y-22195238D01*
X61919048Y-22480952D02*
X62061905Y-22290476D01*
X62204763Y-22480952D01*
X79954761Y-118152381D02*
X79954761Y-117152381D01*
X80288095Y-117866667D01*
X80621428Y-117152381D01*
X80621428Y-118152381D01*
X81240475Y-118152381D02*
X81145237Y-118104762D01*
X81097618Y-118057143D01*
X81049999Y-117961905D01*
X81049999Y-117676190D01*
X81097618Y-117580952D01*
X81145237Y-117533333D01*
X81240475Y-117485714D01*
X81383333Y-117485714D01*
X81478571Y-117533333D01*
X81526190Y-117580952D01*
X81573809Y-117676190D01*
X81573809Y-117961905D01*
X81526190Y-118057143D01*
X81478571Y-118104762D01*
X81383333Y-118152381D01*
X81240475Y-118152381D01*
X82430952Y-117485714D02*
X82430952Y-118152381D01*
X82002380Y-117485714D02*
X82002380Y-118009524D01*
X82049999Y-118104762D01*
X82145237Y-118152381D01*
X82288095Y-118152381D01*
X82383333Y-118104762D01*
X82430952Y-118057143D01*
X82907142Y-117485714D02*
X82907142Y-118152381D01*
X82907142Y-117580952D02*
X82954761Y-117533333D01*
X83049999Y-117485714D01*
X83192857Y-117485714D01*
X83288095Y-117533333D01*
X83335714Y-117628571D01*
X83335714Y-118152381D01*
X83669047Y-117485714D02*
X84049999Y-117485714D01*
X83811904Y-117152381D02*
X83811904Y-118009524D01*
X83859523Y-118104762D01*
X83954761Y-118152381D01*
X84049999Y-118152381D01*
X84383333Y-118152381D02*
X84383333Y-117485714D01*
X84383333Y-117152381D02*
X84335714Y-117200000D01*
X84383333Y-117247619D01*
X84430952Y-117200000D01*
X84383333Y-117152381D01*
X84383333Y-117247619D01*
X84859523Y-117485714D02*
X84859523Y-118152381D01*
X84859523Y-117580952D02*
X84907142Y-117533333D01*
X85002380Y-117485714D01*
X85145238Y-117485714D01*
X85240476Y-117533333D01*
X85288095Y-117628571D01*
X85288095Y-118152381D01*
X86192857Y-117485714D02*
X86192857Y-118295238D01*
X86145238Y-118390476D01*
X86097619Y-118438095D01*
X86002380Y-118485714D01*
X85859523Y-118485714D01*
X85764285Y-118438095D01*
X86192857Y-118104762D02*
X86097619Y-118152381D01*
X85907142Y-118152381D01*
X85811904Y-118104762D01*
X85764285Y-118057143D01*
X85716666Y-117961905D01*
X85716666Y-117676190D01*
X85764285Y-117580952D01*
X85811904Y-117533333D01*
X85907142Y-117485714D01*
X86097619Y-117485714D01*
X86192857Y-117533333D01*
X87430952Y-118152381D02*
X87430952Y-117152381D01*
X87859524Y-118152381D02*
X87859524Y-117628571D01*
X87811905Y-117533333D01*
X87716667Y-117485714D01*
X87573809Y-117485714D01*
X87478571Y-117533333D01*
X87430952Y-117580952D01*
X88478571Y-118152381D02*
X88383333Y-118104762D01*
X88335714Y-118057143D01*
X88288095Y-117961905D01*
X88288095Y-117676190D01*
X88335714Y-117580952D01*
X88383333Y-117533333D01*
X88478571Y-117485714D01*
X88621429Y-117485714D01*
X88716667Y-117533333D01*
X88764286Y-117580952D01*
X88811905Y-117676190D01*
X88811905Y-117961905D01*
X88764286Y-118057143D01*
X88716667Y-118104762D01*
X88621429Y-118152381D01*
X88478571Y-118152381D01*
X89383333Y-118152381D02*
X89288095Y-118104762D01*
X89240476Y-118009524D01*
X89240476Y-117152381D01*
X90145239Y-118104762D02*
X90050001Y-118152381D01*
X89859524Y-118152381D01*
X89764286Y-118104762D01*
X89716667Y-118009524D01*
X89716667Y-117628571D01*
X89764286Y-117533333D01*
X89859524Y-117485714D01*
X90050001Y-117485714D01*
X90145239Y-117533333D01*
X90192858Y-117628571D01*
X90192858Y-117723810D01*
X89716667Y-117819048D01*
X83966667Y-123052381D02*
X83633333Y-122576190D01*
X83395238Y-123052381D02*
X83395238Y-122052381D01*
X83776191Y-122052381D01*
X83871429Y-122100000D01*
X83919048Y-122147619D01*
X83966667Y-122242857D01*
X83966667Y-122385714D01*
X83919048Y-122480952D01*
X83871429Y-122528571D01*
X83776191Y-122576190D01*
X83395238Y-122576190D01*
X84395238Y-122528571D02*
X84728572Y-122528571D01*
X84871429Y-123052381D02*
X84395238Y-123052381D01*
X84395238Y-122052381D01*
X84871429Y-122052381D01*
X85633334Y-122528571D02*
X85300000Y-122528571D01*
X85300000Y-123052381D02*
X85300000Y-122052381D01*
X85776191Y-122052381D01*
X86300000Y-122052381D02*
X86300000Y-122290476D01*
X86061905Y-122195238D02*
X86300000Y-122290476D01*
X86538096Y-122195238D01*
X86157143Y-122480952D02*
X86300000Y-122290476D01*
X86442858Y-122480952D01*
X87061905Y-122052381D02*
X87061905Y-122290476D01*
X86823810Y-122195238D02*
X87061905Y-122290476D01*
X87300001Y-122195238D01*
X86919048Y-122480952D02*
X87061905Y-122290476D01*
X87204763Y-122480952D01*
X5402381Y-65090476D02*
X5402381Y-65280953D01*
X5450000Y-65376191D01*
X5497619Y-65423810D01*
X5640476Y-65519048D01*
X5830952Y-65566667D01*
X6211905Y-65566667D01*
X6307143Y-65519048D01*
X6354762Y-65471429D01*
X6402381Y-65376191D01*
X6402381Y-65185714D01*
X6354762Y-65090476D01*
X6307143Y-65042857D01*
X6211905Y-64995238D01*
X5973810Y-64995238D01*
X5878571Y-65042857D01*
X5830952Y-65090476D01*
X5783333Y-65185714D01*
X5783333Y-65376191D01*
X5830952Y-65471429D01*
X5878571Y-65519048D01*
X5973810Y-65566667D01*
X5830952Y-64423810D02*
X5783333Y-64519048D01*
X5735714Y-64566667D01*
X5640476Y-64614286D01*
X5592857Y-64614286D01*
X5497619Y-64566667D01*
X5450000Y-64519048D01*
X5402381Y-64423810D01*
X5402381Y-64233333D01*
X5450000Y-64138095D01*
X5497619Y-64090476D01*
X5592857Y-64042857D01*
X5640476Y-64042857D01*
X5735714Y-64090476D01*
X5783333Y-64138095D01*
X5830952Y-64233333D01*
X5830952Y-64423810D01*
X5878571Y-64519048D01*
X5926190Y-64566667D01*
X6021429Y-64614286D01*
X6211905Y-64614286D01*
X6307143Y-64566667D01*
X6354762Y-64519048D01*
X6402381Y-64423810D01*
X6402381Y-64233333D01*
X6354762Y-64138095D01*
X6307143Y-64090476D01*
X6211905Y-64042857D01*
X6021429Y-64042857D01*
X5926190Y-64090476D01*
X5878571Y-64138095D01*
X5830952Y-64233333D01*
X6402381Y-63614286D02*
X5402381Y-63614286D01*
X6021429Y-63519048D02*
X6402381Y-63233333D01*
X5735714Y-63233333D02*
X6116667Y-63614286D01*
D14*
X8098147Y-64613226D02*
X7764813Y-64846560D01*
X8098147Y-65013226D02*
X7398147Y-65013226D01*
X7398147Y-64746560D01*
X7431480Y-64679893D01*
X7464813Y-64646560D01*
X7531480Y-64613226D01*
X7631480Y-64613226D01*
X7698147Y-64646560D01*
X7731480Y-64679893D01*
X7764813Y-64746560D01*
X7764813Y-65013226D01*
X7631480Y-64013226D02*
X8098147Y-64013226D01*
X7364813Y-64179893D02*
X7864813Y-64346560D01*
X7864813Y-63913226D01*
D12*
X53252380Y-797619D02*
X53299999Y-750000D01*
X53395237Y-702381D01*
X53633333Y-702381D01*
X53728571Y-750000D01*
X53776190Y-797619D01*
X53823809Y-892857D01*
X53823809Y-988095D01*
X53776190Y-1130952D01*
X53204761Y-1702381D01*
X53823809Y-1702381D01*
X54680952Y-1035714D02*
X54680952Y-1702381D01*
X54442856Y-654762D02*
X54204761Y-1369048D01*
X54823809Y-1369048D01*
X55061904Y-702381D02*
X55395237Y-1702381D01*
X55728571Y-702381D01*
X56776190Y-1654762D02*
X56919047Y-1702381D01*
X57157143Y-1702381D01*
X57252381Y-1654762D01*
X57300000Y-1607143D01*
X57347619Y-1511905D01*
X57347619Y-1416667D01*
X57300000Y-1321429D01*
X57252381Y-1273810D01*
X57157143Y-1226190D01*
X56966666Y-1178571D01*
X56871428Y-1130952D01*
X56823809Y-1083333D01*
X56776190Y-988095D01*
X56776190Y-892857D01*
X56823809Y-797619D01*
X56871428Y-750000D01*
X56966666Y-702381D01*
X57204762Y-702381D01*
X57347619Y-750000D01*
X58204762Y-1035714D02*
X58204762Y-1702381D01*
X57776190Y-1035714D02*
X57776190Y-1559524D01*
X57823809Y-1654762D01*
X57919047Y-1702381D01*
X58061905Y-1702381D01*
X58157143Y-1654762D01*
X58204762Y-1607143D01*
X58680952Y-1035714D02*
X58680952Y-2035714D01*
X58680952Y-1083333D02*
X58776190Y-1035714D01*
X58966667Y-1035714D01*
X59061905Y-1083333D01*
X59109524Y-1130952D01*
X59157143Y-1226190D01*
X59157143Y-1511905D01*
X59109524Y-1607143D01*
X59061905Y-1654762D01*
X58966667Y-1702381D01*
X58776190Y-1702381D01*
X58680952Y-1654762D01*
X59585714Y-1035714D02*
X59585714Y-2035714D01*
X59585714Y-1083333D02*
X59680952Y-1035714D01*
X59871429Y-1035714D01*
X59966667Y-1083333D01*
X60014286Y-1130952D01*
X60061905Y-1226190D01*
X60061905Y-1511905D01*
X60014286Y-1607143D01*
X59966667Y-1654762D01*
X59871429Y-1702381D01*
X59680952Y-1702381D01*
X59585714Y-1654762D01*
X60633333Y-1702381D02*
X60538095Y-1654762D01*
X60490476Y-1559524D01*
X60490476Y-702381D01*
X60919048Y-1035714D02*
X61157143Y-1702381D01*
X61395239Y-1035714D02*
X61157143Y-1702381D01*
X61061905Y-1940476D01*
X61014286Y-1988095D01*
X60919048Y-2035714D01*
X56712427Y-5370501D02*
X56712427Y-6084787D01*
X56664807Y-6227644D01*
X56569569Y-6322882D01*
X56426712Y-6370501D01*
X56331474Y-6370501D01*
X57093379Y-5370501D02*
X57760046Y-5370501D01*
X57331474Y-6370501D01*
X72047619Y-14952381D02*
X72619048Y-14952381D01*
X72333333Y-15952381D02*
X72333333Y-14952381D01*
X73523810Y-15952381D02*
X73190476Y-15476190D01*
X72952381Y-15952381D02*
X72952381Y-14952381D01*
X73333334Y-14952381D01*
X73428572Y-15000000D01*
X73476191Y-15047619D01*
X73523810Y-15142857D01*
X73523810Y-15285714D01*
X73476191Y-15380952D01*
X73428572Y-15428571D01*
X73333334Y-15476190D01*
X72952381Y-15476190D01*
X73904762Y-15666667D02*
X74380953Y-15666667D01*
X73809524Y-15952381D02*
X74142857Y-14952381D01*
X74476191Y-15952381D01*
X75380953Y-15857143D02*
X75333334Y-15904762D01*
X75190477Y-15952381D01*
X75095239Y-15952381D01*
X74952381Y-15904762D01*
X74857143Y-15809524D01*
X74809524Y-15714286D01*
X74761905Y-15523810D01*
X74761905Y-15380952D01*
X74809524Y-15190476D01*
X74857143Y-15095238D01*
X74952381Y-15000000D01*
X75095239Y-14952381D01*
X75190477Y-14952381D01*
X75333334Y-15000000D01*
X75380953Y-15047619D01*
X76000000Y-14952381D02*
X76190477Y-14952381D01*
X76285715Y-15000000D01*
X76380953Y-15095238D01*
X76428572Y-15285714D01*
X76428572Y-15619048D01*
X76380953Y-15809524D01*
X76285715Y-15904762D01*
X76190477Y-15952381D01*
X76000000Y-15952381D01*
X75904762Y-15904762D01*
X75809524Y-15809524D01*
X75761905Y-15619048D01*
X75761905Y-15285714D01*
X75809524Y-15095238D01*
X75904762Y-15000000D01*
X76000000Y-14952381D01*
X76857143Y-15571429D02*
X77619048Y-15571429D01*
X77238096Y-15952381D02*
X77238096Y-15190476D01*
X78809524Y-14904762D02*
X77952381Y-16190476D01*
X79142857Y-15571429D02*
X79904762Y-15571429D01*
X80904762Y-15952381D02*
X80333333Y-15952381D01*
X80619047Y-15952381D02*
X80619047Y-14952381D01*
X80523809Y-15095238D01*
X80428571Y-15190476D01*
X80333333Y-15238095D01*
X81809524Y-14952381D02*
X81333333Y-14952381D01*
X81285714Y-15428571D01*
X81333333Y-15380952D01*
X81428571Y-15333333D01*
X81666667Y-15333333D01*
X81761905Y-15380952D01*
X81809524Y-15428571D01*
X81857143Y-15523810D01*
X81857143Y-15761905D01*
X81809524Y-15857143D01*
X81761905Y-15904762D01*
X81666667Y-15952381D01*
X81428571Y-15952381D01*
X81333333Y-15904762D01*
X81285714Y-15857143D01*
X76362536Y-41044671D02*
X76362536Y-41854195D01*
X76410155Y-41949433D01*
X76457774Y-41997052D01*
X76553012Y-42044671D01*
X76743489Y-42044671D01*
X76838727Y-41997052D01*
X76886346Y-41949433D01*
X76933965Y-41854195D01*
X76933965Y-41044671D01*
X77314917Y-41044671D02*
X77933965Y-41044671D01*
X77600631Y-41425623D01*
X77743489Y-41425623D01*
X77838727Y-41473242D01*
X77886346Y-41520861D01*
X77933965Y-41616100D01*
X77933965Y-41854195D01*
X77886346Y-41949433D01*
X77838727Y-41997052D01*
X77743489Y-42044671D01*
X77457774Y-42044671D01*
X77362536Y-41997052D01*
X77314917Y-41949433D01*
X16685714Y-68752381D02*
X16780953Y-68752381D01*
X16876191Y-68800000D01*
X16923810Y-68847619D01*
X16971429Y-68942857D01*
X17019048Y-69133333D01*
X17019048Y-69371429D01*
X16971429Y-69561905D01*
X16923810Y-69657143D01*
X16876191Y-69704762D01*
X16780953Y-69752381D01*
X16685714Y-69752381D01*
X16590476Y-69704762D01*
X16542857Y-69657143D01*
X16495238Y-69561905D01*
X16447619Y-69371429D01*
X16447619Y-69133333D01*
X16495238Y-68942857D01*
X16542857Y-68847619D01*
X16590476Y-68800000D01*
X16685714Y-68752381D01*
X17447619Y-69657143D02*
X17495238Y-69704762D01*
X17447619Y-69752381D01*
X17400000Y-69704762D01*
X17447619Y-69657143D01*
X17447619Y-69752381D01*
X18447619Y-69752381D02*
X17876190Y-69752381D01*
X18161904Y-69752381D02*
X18161904Y-68752381D01*
X18066666Y-68895238D01*
X17971428Y-68990476D01*
X17876190Y-69038095D01*
X19304762Y-69085714D02*
X19304762Y-69752381D01*
X18876190Y-69085714D02*
X18876190Y-69609524D01*
X18923809Y-69704762D01*
X19019047Y-69752381D01*
X19161905Y-69752381D01*
X19257143Y-69704762D01*
X19304762Y-69657143D01*
X21333334Y-72307143D02*
X21285715Y-72354762D01*
X21142858Y-72402381D01*
X21047620Y-72402381D01*
X20904762Y-72354762D01*
X20809524Y-72259524D01*
X20761905Y-72164286D01*
X20714286Y-71973810D01*
X20714286Y-71830952D01*
X20761905Y-71640476D01*
X20809524Y-71545238D01*
X20904762Y-71450000D01*
X21047620Y-71402381D01*
X21142858Y-71402381D01*
X21285715Y-71450000D01*
X21333334Y-71497619D01*
X22285715Y-72402381D02*
X21714286Y-72402381D01*
X22000000Y-72402381D02*
X22000000Y-71402381D01*
X21904762Y-71545238D01*
X21809524Y-71640476D01*
X21714286Y-71688095D01*
X9952381Y-60269047D02*
X9952381Y-60840476D01*
X9952381Y-60554762D02*
X8952381Y-60554762D01*
X9095238Y-60650000D01*
X9190476Y-60745238D01*
X9238095Y-60840476D01*
X8952381Y-59650000D02*
X8952381Y-59554761D01*
X9000000Y-59459523D01*
X9047619Y-59411904D01*
X9142857Y-59364285D01*
X9333333Y-59316666D01*
X9571429Y-59316666D01*
X9761905Y-59364285D01*
X9857143Y-59411904D01*
X9904762Y-59459523D01*
X9952381Y-59554761D01*
X9952381Y-59650000D01*
X9904762Y-59745238D01*
X9857143Y-59792857D01*
X9761905Y-59840476D01*
X9571429Y-59888095D01*
X9333333Y-59888095D01*
X9142857Y-59840476D01*
X9047619Y-59792857D01*
X9000000Y-59745238D01*
X8952381Y-59650000D01*
X8952381Y-58697619D02*
X8952381Y-58602380D01*
X9000000Y-58507142D01*
X9047619Y-58459523D01*
X9142857Y-58411904D01*
X9333333Y-58364285D01*
X9571429Y-58364285D01*
X9761905Y-58411904D01*
X9857143Y-58459523D01*
X9904762Y-58507142D01*
X9952381Y-58602380D01*
X9952381Y-58697619D01*
X9904762Y-58792857D01*
X9857143Y-58840476D01*
X9761905Y-58888095D01*
X9571429Y-58935714D01*
X9333333Y-58935714D01*
X9142857Y-58888095D01*
X9047619Y-58840476D01*
X9000000Y-58792857D01*
X8952381Y-58697619D01*
X9285714Y-57935714D02*
X10285714Y-57935714D01*
X9333333Y-57935714D02*
X9285714Y-57840476D01*
X9285714Y-57649999D01*
X9333333Y-57554761D01*
X9380952Y-57507142D01*
X9476190Y-57459523D01*
X9761905Y-57459523D01*
X9857143Y-57507142D01*
X9904762Y-57554761D01*
X9952381Y-57649999D01*
X9952381Y-57840476D01*
X9904762Y-57935714D01*
X11707143Y-59516666D02*
X11754762Y-59564285D01*
X11802381Y-59707142D01*
X11802381Y-59802380D01*
X11754762Y-59945238D01*
X11659524Y-60040476D01*
X11564286Y-60088095D01*
X11373810Y-60135714D01*
X11230952Y-60135714D01*
X11040476Y-60088095D01*
X10945238Y-60040476D01*
X10850000Y-59945238D01*
X10802381Y-59802380D01*
X10802381Y-59707142D01*
X10850000Y-59564285D01*
X10897619Y-59516666D01*
X10802381Y-58659523D02*
X10802381Y-58850000D01*
X10850000Y-58945238D01*
X10897619Y-58992857D01*
X11040476Y-59088095D01*
X11230952Y-59135714D01*
X11611905Y-59135714D01*
X11707143Y-59088095D01*
X11754762Y-59040476D01*
X11802381Y-58945238D01*
X11802381Y-58754761D01*
X11754762Y-58659523D01*
X11707143Y-58611904D01*
X11611905Y-58564285D01*
X11373810Y-58564285D01*
X11278571Y-58611904D01*
X11230952Y-58659523D01*
X11183333Y-58754761D01*
X11183333Y-58945238D01*
X11230952Y-59040476D01*
X11278571Y-59088095D01*
X11373810Y-59135714D01*
X16252381Y-59416666D02*
X16252381Y-59988095D01*
X16252381Y-59702381D02*
X15252381Y-59702381D01*
X15395238Y-59797619D01*
X15490476Y-59892857D01*
X15538095Y-59988095D01*
X15585714Y-58559523D02*
X16252381Y-58559523D01*
X15585714Y-58988095D02*
X16109524Y-58988095D01*
X16204762Y-58940476D01*
X16252381Y-58845238D01*
X16252381Y-58702380D01*
X16204762Y-58607142D01*
X16157143Y-58559523D01*
X17757143Y-59892857D02*
X17804762Y-59940476D01*
X17852381Y-60083333D01*
X17852381Y-60178571D01*
X17804762Y-60321429D01*
X17709524Y-60416667D01*
X17614286Y-60464286D01*
X17423810Y-60511905D01*
X17280952Y-60511905D01*
X17090476Y-60464286D01*
X16995238Y-60416667D01*
X16900000Y-60321429D01*
X16852381Y-60178571D01*
X16852381Y-60083333D01*
X16900000Y-59940476D01*
X16947619Y-59892857D01*
X17852381Y-58940476D02*
X17852381Y-59511905D01*
X17852381Y-59226191D02*
X16852381Y-59226191D01*
X16995238Y-59321429D01*
X17090476Y-59416667D01*
X17138095Y-59511905D01*
X16947619Y-58559524D02*
X16900000Y-58511905D01*
X16852381Y-58416667D01*
X16852381Y-58178571D01*
X16900000Y-58083333D01*
X16947619Y-58035714D01*
X17042857Y-57988095D01*
X17138095Y-57988095D01*
X17280952Y-58035714D01*
X17852381Y-58607143D01*
X17852381Y-57988095D01*
X17238095Y-66452381D02*
X17333334Y-66452381D01*
X17428572Y-66500000D01*
X17476191Y-66547619D01*
X17523810Y-66642857D01*
X17571429Y-66833333D01*
X17571429Y-67071429D01*
X17523810Y-67261905D01*
X17476191Y-67357143D01*
X17428572Y-67404762D01*
X17333334Y-67452381D01*
X17238095Y-67452381D01*
X17142857Y-67404762D01*
X17095238Y-67357143D01*
X17047619Y-67261905D01*
X17000000Y-67071429D01*
X17000000Y-66833333D01*
X17047619Y-66642857D01*
X17095238Y-66547619D01*
X17142857Y-66500000D01*
X17238095Y-66452381D01*
X18000000Y-67357143D02*
X18047619Y-67404762D01*
X18000000Y-67452381D01*
X17952381Y-67404762D01*
X18000000Y-67357143D01*
X18000000Y-67452381D01*
X19000000Y-67452381D02*
X18428571Y-67452381D01*
X18714285Y-67452381D02*
X18714285Y-66452381D01*
X18619047Y-66595238D01*
X18523809Y-66690476D01*
X18428571Y-66738095D01*
X20757143Y-67257143D02*
X20709524Y-67304762D01*
X20566667Y-67352381D01*
X20471429Y-67352381D01*
X20328571Y-67304762D01*
X20233333Y-67209524D01*
X20185714Y-67114286D01*
X20138095Y-66923810D01*
X20138095Y-66780952D01*
X20185714Y-66590476D01*
X20233333Y-66495238D01*
X20328571Y-66400000D01*
X20471429Y-66352381D01*
X20566667Y-66352381D01*
X20709524Y-66400000D01*
X20757143Y-66447619D01*
X21709524Y-67352381D02*
X21138095Y-67352381D01*
X21423809Y-67352381D02*
X21423809Y-66352381D01*
X21328571Y-66495238D01*
X21233333Y-66590476D01*
X21138095Y-66638095D01*
X22042857Y-66352381D02*
X22661905Y-66352381D01*
X22328571Y-66733333D01*
X22471429Y-66733333D01*
X22566667Y-66780952D01*
X22614286Y-66828571D01*
X22661905Y-66923810D01*
X22661905Y-67161905D01*
X22614286Y-67257143D01*
X22566667Y-67304762D01*
X22471429Y-67352381D01*
X22185714Y-67352381D01*
X22090476Y-67304762D01*
X22042857Y-67257143D01*
X17457143Y-72252381D02*
X16885714Y-72252381D01*
X17171428Y-72252381D02*
X17171428Y-71252381D01*
X17076190Y-71395238D01*
X16980952Y-71490476D01*
X16885714Y-71538095D01*
X18076190Y-71252381D02*
X18171429Y-71252381D01*
X18266667Y-71300000D01*
X18314286Y-71347619D01*
X18361905Y-71442857D01*
X18409524Y-71633333D01*
X18409524Y-71871429D01*
X18361905Y-72061905D01*
X18314286Y-72157143D01*
X18266667Y-72204762D01*
X18171429Y-72252381D01*
X18076190Y-72252381D01*
X17980952Y-72204762D01*
X17933333Y-72157143D01*
X17885714Y-72061905D01*
X17838095Y-71871429D01*
X17838095Y-71633333D01*
X17885714Y-71442857D01*
X17933333Y-71347619D01*
X17980952Y-71300000D01*
X18076190Y-71252381D01*
X19266667Y-71585714D02*
X19266667Y-72252381D01*
X18838095Y-71585714D02*
X18838095Y-72109524D01*
X18885714Y-72204762D01*
X18980952Y-72252381D01*
X19123810Y-72252381D01*
X19219048Y-72204762D01*
X19266667Y-72157143D01*
X20807143Y-69807143D02*
X20759524Y-69854762D01*
X20616667Y-69902381D01*
X20521429Y-69902381D01*
X20378571Y-69854762D01*
X20283333Y-69759524D01*
X20235714Y-69664286D01*
X20188095Y-69473810D01*
X20188095Y-69330952D01*
X20235714Y-69140476D01*
X20283333Y-69045238D01*
X20378571Y-68950000D01*
X20521429Y-68902381D01*
X20616667Y-68902381D01*
X20759524Y-68950000D01*
X20807143Y-68997619D01*
X21759524Y-69902381D02*
X21188095Y-69902381D01*
X21473809Y-69902381D02*
X21473809Y-68902381D01*
X21378571Y-69045238D01*
X21283333Y-69140476D01*
X21188095Y-69188095D01*
X22616667Y-69235714D02*
X22616667Y-69902381D01*
X22378571Y-68854762D02*
X22140476Y-69569048D01*
X22759524Y-69569048D01*
X76402903Y-1116691D02*
X76069569Y-1116691D01*
X76069569Y-1640501D02*
X76069569Y-640501D01*
X76545760Y-640501D01*
X77355284Y-973834D02*
X77355284Y-1640501D01*
X76926712Y-973834D02*
X76926712Y-1497644D01*
X76974331Y-1592882D01*
X77069569Y-1640501D01*
X77212427Y-1640501D01*
X77307665Y-1592882D01*
X77355284Y-1545263D01*
X77783855Y-1592882D02*
X77879093Y-1640501D01*
X78069569Y-1640501D01*
X78164808Y-1592882D01*
X78212427Y-1497644D01*
X78212427Y-1450025D01*
X78164808Y-1354787D01*
X78069569Y-1307168D01*
X77926712Y-1307168D01*
X77831474Y-1259549D01*
X77783855Y-1164310D01*
X77783855Y-1116691D01*
X77831474Y-1021453D01*
X77926712Y-973834D01*
X78069569Y-973834D01*
X78164808Y-1021453D01*
X79021951Y-1592882D02*
X78926713Y-1640501D01*
X78736236Y-1640501D01*
X78640998Y-1592882D01*
X78593379Y-1497644D01*
X78593379Y-1116691D01*
X78640998Y-1021453D01*
X78736236Y-973834D01*
X78926713Y-973834D01*
X79021951Y-1021453D01*
X79069570Y-1116691D01*
X79069570Y-1211930D01*
X78593379Y-1307168D01*
X42090475Y-702381D02*
X42661904Y-702381D01*
X42376189Y-1702381D02*
X42376189Y-702381D01*
X43138094Y-1702381D02*
X43042856Y-1654762D01*
X42995237Y-1607143D01*
X42947618Y-1511905D01*
X42947618Y-1226190D01*
X42995237Y-1130952D01*
X43042856Y-1083333D01*
X43138094Y-1035714D01*
X43280952Y-1035714D01*
X43376190Y-1083333D01*
X43423809Y-1130952D01*
X43471428Y-1226190D01*
X43471428Y-1511905D01*
X43423809Y-1607143D01*
X43376190Y-1654762D01*
X43280952Y-1702381D01*
X43138094Y-1702381D01*
X43899999Y-1702381D02*
X43899999Y-1035714D01*
X43899999Y-1226190D02*
X43947618Y-1130952D01*
X43995237Y-1083333D01*
X44090475Y-1035714D01*
X44185714Y-1035714D01*
X44947619Y-1035714D02*
X44947619Y-2035714D01*
X44947619Y-1654762D02*
X44852381Y-1702381D01*
X44661904Y-1702381D01*
X44566666Y-1654762D01*
X44519047Y-1607143D01*
X44471428Y-1511905D01*
X44471428Y-1226190D01*
X44519047Y-1130952D01*
X44566666Y-1083333D01*
X44661904Y-1035714D01*
X44852381Y-1035714D01*
X44947619Y-1083333D01*
X45852381Y-1035714D02*
X45852381Y-1702381D01*
X45423809Y-1035714D02*
X45423809Y-1559524D01*
X45471428Y-1654762D01*
X45566666Y-1702381D01*
X45709524Y-1702381D01*
X45804762Y-1654762D01*
X45852381Y-1607143D01*
X46709524Y-1654762D02*
X46614286Y-1702381D01*
X46423809Y-1702381D01*
X46328571Y-1654762D01*
X46280952Y-1559524D01*
X46280952Y-1178571D01*
X46328571Y-1083333D01*
X46423809Y-1035714D01*
X46614286Y-1035714D01*
X46709524Y-1083333D01*
X46757143Y-1178571D01*
X46757143Y-1273810D01*
X46280952Y-1369048D01*
X47947619Y-1035714D02*
X47947619Y-2035714D01*
X47947619Y-1083333D02*
X48042857Y-1035714D01*
X48233334Y-1035714D01*
X48328572Y-1083333D01*
X48376191Y-1130952D01*
X48423810Y-1226190D01*
X48423810Y-1511905D01*
X48376191Y-1607143D01*
X48328572Y-1654762D01*
X48233334Y-1702381D01*
X48042857Y-1702381D01*
X47947619Y-1654762D01*
X49233334Y-1654762D02*
X49138096Y-1702381D01*
X48947619Y-1702381D01*
X48852381Y-1654762D01*
X48804762Y-1559524D01*
X48804762Y-1178571D01*
X48852381Y-1083333D01*
X48947619Y-1035714D01*
X49138096Y-1035714D01*
X49233334Y-1083333D01*
X49280953Y-1178571D01*
X49280953Y-1273810D01*
X48804762Y-1369048D01*
X50138096Y-1702381D02*
X50138096Y-702381D01*
X50138096Y-1654762D02*
X50042858Y-1702381D01*
X49852381Y-1702381D01*
X49757143Y-1654762D01*
X49709524Y-1607143D01*
X49661905Y-1511905D01*
X49661905Y-1226190D01*
X49709524Y-1130952D01*
X49757143Y-1083333D01*
X49852381Y-1035714D01*
X50042858Y-1035714D01*
X50138096Y-1083333D01*
X51042858Y-1702381D02*
X51042858Y-1178571D01*
X50995239Y-1083333D01*
X50900001Y-1035714D01*
X50709524Y-1035714D01*
X50614286Y-1083333D01*
X51042858Y-1654762D02*
X50947620Y-1702381D01*
X50709524Y-1702381D01*
X50614286Y-1654762D01*
X50566667Y-1559524D01*
X50566667Y-1464286D01*
X50614286Y-1369048D01*
X50709524Y-1321429D01*
X50947620Y-1321429D01*
X51042858Y-1273810D01*
X51661905Y-1702381D02*
X51566667Y-1654762D01*
X51519048Y-1559524D01*
X51519048Y-702381D01*
X46552427Y-5370501D02*
X46552427Y-6084787D01*
X46504807Y-6227644D01*
X46409569Y-6322882D01*
X46266712Y-6370501D01*
X46171474Y-6370501D01*
X47552427Y-6370501D02*
X46980998Y-6370501D01*
X47266712Y-6370501D02*
X47266712Y-5370501D01*
X47171474Y-5513358D01*
X47076236Y-5608596D01*
X46980998Y-5656215D01*
X2504761Y-45152381D02*
X3123809Y-45152381D01*
X2790475Y-45533333D01*
X2933333Y-45533333D01*
X3028571Y-45580952D01*
X3076190Y-45628571D01*
X3123809Y-45723810D01*
X3123809Y-45961905D01*
X3076190Y-46057143D01*
X3028571Y-46104762D01*
X2933333Y-46152381D01*
X2647618Y-46152381D01*
X2552380Y-46104762D01*
X2504761Y-46057143D01*
X3980952Y-45152381D02*
X3790475Y-45152381D01*
X3695237Y-45200000D01*
X3647618Y-45247619D01*
X3552380Y-45390476D01*
X3504761Y-45580952D01*
X3504761Y-45961905D01*
X3552380Y-46057143D01*
X3599999Y-46104762D01*
X3695237Y-46152381D01*
X3885714Y-46152381D01*
X3980952Y-46104762D01*
X4028571Y-46057143D01*
X4076190Y-45961905D01*
X4076190Y-45723810D01*
X4028571Y-45628571D01*
X3980952Y-45580952D01*
X3885714Y-45533333D01*
X3695237Y-45533333D01*
X3599999Y-45580952D01*
X3552380Y-45628571D01*
X3504761Y-45723810D01*
X4361904Y-45152381D02*
X4695237Y-46152381D01*
X5028571Y-45152381D01*
X6076190Y-46104762D02*
X6219047Y-46152381D01*
X6457143Y-46152381D01*
X6552381Y-46104762D01*
X6600000Y-46057143D01*
X6647619Y-45961905D01*
X6647619Y-45866667D01*
X6600000Y-45771429D01*
X6552381Y-45723810D01*
X6457143Y-45676190D01*
X6266666Y-45628571D01*
X6171428Y-45580952D01*
X6123809Y-45533333D01*
X6076190Y-45438095D01*
X6076190Y-45342857D01*
X6123809Y-45247619D01*
X6171428Y-45200000D01*
X6266666Y-45152381D01*
X6504762Y-45152381D01*
X6647619Y-45200000D01*
X7504762Y-45485714D02*
X7504762Y-46152381D01*
X7076190Y-45485714D02*
X7076190Y-46009524D01*
X7123809Y-46104762D01*
X7219047Y-46152381D01*
X7361905Y-46152381D01*
X7457143Y-46104762D01*
X7504762Y-46057143D01*
X7980952Y-45485714D02*
X7980952Y-46485714D01*
X7980952Y-45533333D02*
X8076190Y-45485714D01*
X8266667Y-45485714D01*
X8361905Y-45533333D01*
X8409524Y-45580952D01*
X8457143Y-45676190D01*
X8457143Y-45961905D01*
X8409524Y-46057143D01*
X8361905Y-46104762D01*
X8266667Y-46152381D01*
X8076190Y-46152381D01*
X7980952Y-46104762D01*
X8885714Y-45485714D02*
X8885714Y-46485714D01*
X8885714Y-45533333D02*
X8980952Y-45485714D01*
X9171429Y-45485714D01*
X9266667Y-45533333D01*
X9314286Y-45580952D01*
X9361905Y-45676190D01*
X9361905Y-45961905D01*
X9314286Y-46057143D01*
X9266667Y-46104762D01*
X9171429Y-46152381D01*
X8980952Y-46152381D01*
X8885714Y-46104762D01*
X9933333Y-46152381D02*
X9838095Y-46104762D01*
X9790476Y-46009524D01*
X9790476Y-45152381D01*
X10219048Y-45485714D02*
X10457143Y-46152381D01*
X10695239Y-45485714D02*
X10457143Y-46152381D01*
X10361905Y-46390476D01*
X10314286Y-46438095D01*
X10219048Y-46485714D01*
X6152381Y-50213333D02*
X6866667Y-50213333D01*
X7009524Y-50260953D01*
X7104762Y-50356191D01*
X7152381Y-50499048D01*
X7152381Y-50594286D01*
X6247619Y-49784762D02*
X6200000Y-49737143D01*
X6152381Y-49641905D01*
X6152381Y-49403809D01*
X6200000Y-49308571D01*
X6247619Y-49260952D01*
X6342857Y-49213333D01*
X6438095Y-49213333D01*
X6580952Y-49260952D01*
X7152381Y-49832381D01*
X7152381Y-49213333D01*
X14311905Y-118507143D02*
X14264286Y-118554762D01*
X14121429Y-118602381D01*
X14026191Y-118602381D01*
X13883333Y-118554762D01*
X13788095Y-118459524D01*
X13740476Y-118364286D01*
X13692857Y-118173810D01*
X13692857Y-118030952D01*
X13740476Y-117840476D01*
X13788095Y-117745238D01*
X13883333Y-117650000D01*
X14026191Y-117602381D01*
X14121429Y-117602381D01*
X14264286Y-117650000D01*
X14311905Y-117697619D01*
X15169048Y-117935714D02*
X15169048Y-118602381D01*
X14740476Y-117935714D02*
X14740476Y-118459524D01*
X14788095Y-118554762D01*
X14883333Y-118602381D01*
X15026191Y-118602381D01*
X15121429Y-118554762D01*
X15169048Y-118507143D01*
X15645238Y-118602381D02*
X15645238Y-117935714D01*
X15645238Y-118126190D02*
X15692857Y-118030952D01*
X15740476Y-117983333D01*
X15835714Y-117935714D01*
X15930953Y-117935714D01*
X16026191Y-118697619D02*
X16788096Y-118697619D01*
X17026191Y-118602381D02*
X17026191Y-117602381D01*
X17359525Y-118316667D01*
X17692858Y-117602381D01*
X17692858Y-118602381D01*
X18550001Y-118554762D02*
X18454763Y-118602381D01*
X18264286Y-118602381D01*
X18169048Y-118554762D01*
X18121429Y-118459524D01*
X18121429Y-118078571D01*
X18169048Y-117983333D01*
X18264286Y-117935714D01*
X18454763Y-117935714D01*
X18550001Y-117983333D01*
X18597620Y-118078571D01*
X18597620Y-118173810D01*
X18121429Y-118269048D01*
X19454763Y-118602381D02*
X19454763Y-118078571D01*
X19407144Y-117983333D01*
X19311906Y-117935714D01*
X19121429Y-117935714D01*
X19026191Y-117983333D01*
X19454763Y-118554762D02*
X19359525Y-118602381D01*
X19121429Y-118602381D01*
X19026191Y-118554762D01*
X18978572Y-118459524D01*
X18978572Y-118364286D01*
X19026191Y-118269048D01*
X19121429Y-118221429D01*
X19359525Y-118221429D01*
X19454763Y-118173810D01*
X19883334Y-118554762D02*
X19978572Y-118602381D01*
X20169048Y-118602381D01*
X20264287Y-118554762D01*
X20311906Y-118459524D01*
X20311906Y-118411905D01*
X20264287Y-118316667D01*
X20169048Y-118269048D01*
X20026191Y-118269048D01*
X19930953Y-118221429D01*
X19883334Y-118126190D01*
X19883334Y-118078571D01*
X19930953Y-117983333D01*
X20026191Y-117935714D01*
X20169048Y-117935714D01*
X20264287Y-117983333D01*
X20502382Y-118697619D02*
X21264287Y-118697619D01*
X21454763Y-118554762D02*
X21597620Y-118602381D01*
X21835716Y-118602381D01*
X21930954Y-118554762D01*
X21978573Y-118507143D01*
X22026192Y-118411905D01*
X22026192Y-118316667D01*
X21978573Y-118221429D01*
X21930954Y-118173810D01*
X21835716Y-118126190D01*
X21645239Y-118078571D01*
X21550001Y-118030952D01*
X21502382Y-117983333D01*
X21454763Y-117888095D01*
X21454763Y-117792857D01*
X21502382Y-117697619D01*
X21550001Y-117650000D01*
X21645239Y-117602381D01*
X21883335Y-117602381D01*
X22026192Y-117650000D01*
X22454763Y-118602381D02*
X22454763Y-117935714D01*
X22454763Y-117602381D02*
X22407144Y-117650000D01*
X22454763Y-117697619D01*
X22502382Y-117650000D01*
X22454763Y-117602381D01*
X22454763Y-117697619D01*
X23359525Y-117935714D02*
X23359525Y-118745238D01*
X23311906Y-118840476D01*
X23264287Y-118888095D01*
X23169048Y-118935714D01*
X23026191Y-118935714D01*
X22930953Y-118888095D01*
X23359525Y-118554762D02*
X23264287Y-118602381D01*
X23073810Y-118602381D01*
X22978572Y-118554762D01*
X22930953Y-118507143D01*
X22883334Y-118411905D01*
X22883334Y-118126190D01*
X22930953Y-118030952D01*
X22978572Y-117983333D01*
X23073810Y-117935714D01*
X23264287Y-117935714D01*
X23359525Y-117983333D01*
X18612427Y-122210501D02*
X18612427Y-122924787D01*
X18564807Y-123067644D01*
X18469569Y-123162882D01*
X18326712Y-123210501D01*
X18231474Y-123210501D01*
X19517189Y-122543834D02*
X19517189Y-123210501D01*
X19279093Y-122162882D02*
X19040998Y-122877168D01*
X19660046Y-122877168D01*
X25602380Y-118507143D02*
X25554761Y-118554762D01*
X25411904Y-118602381D01*
X25316666Y-118602381D01*
X25173808Y-118554762D01*
X25078570Y-118459524D01*
X25030951Y-118364286D01*
X24983332Y-118173810D01*
X24983332Y-118030952D01*
X25030951Y-117840476D01*
X25078570Y-117745238D01*
X25173808Y-117650000D01*
X25316666Y-117602381D01*
X25411904Y-117602381D01*
X25554761Y-117650000D01*
X25602380Y-117697619D01*
X26459523Y-117935714D02*
X26459523Y-118602381D01*
X26030951Y-117935714D02*
X26030951Y-118459524D01*
X26078570Y-118554762D01*
X26173808Y-118602381D01*
X26316666Y-118602381D01*
X26411904Y-118554762D01*
X26459523Y-118507143D01*
X26935713Y-118602381D02*
X26935713Y-117935714D01*
X26935713Y-118126190D02*
X26983332Y-118030952D01*
X27030951Y-117983333D01*
X27126189Y-117935714D01*
X27221428Y-117935714D01*
X27316666Y-118697619D02*
X28078571Y-118697619D01*
X28316666Y-118602381D02*
X28316666Y-117602381D01*
X28650000Y-118316667D01*
X28983333Y-117602381D01*
X28983333Y-118602381D01*
X29840476Y-118554762D02*
X29745238Y-118602381D01*
X29554761Y-118602381D01*
X29459523Y-118554762D01*
X29411904Y-118459524D01*
X29411904Y-118078571D01*
X29459523Y-117983333D01*
X29554761Y-117935714D01*
X29745238Y-117935714D01*
X29840476Y-117983333D01*
X29888095Y-118078571D01*
X29888095Y-118173810D01*
X29411904Y-118269048D01*
X30745238Y-118602381D02*
X30745238Y-118078571D01*
X30697619Y-117983333D01*
X30602381Y-117935714D01*
X30411904Y-117935714D01*
X30316666Y-117983333D01*
X30745238Y-118554762D02*
X30650000Y-118602381D01*
X30411904Y-118602381D01*
X30316666Y-118554762D01*
X30269047Y-118459524D01*
X30269047Y-118364286D01*
X30316666Y-118269048D01*
X30411904Y-118221429D01*
X30650000Y-118221429D01*
X30745238Y-118173810D01*
X31173809Y-118554762D02*
X31269047Y-118602381D01*
X31459523Y-118602381D01*
X31554762Y-118554762D01*
X31602381Y-118459524D01*
X31602381Y-118411905D01*
X31554762Y-118316667D01*
X31459523Y-118269048D01*
X31316666Y-118269048D01*
X31221428Y-118221429D01*
X31173809Y-118126190D01*
X31173809Y-118078571D01*
X31221428Y-117983333D01*
X31316666Y-117935714D01*
X31459523Y-117935714D01*
X31554762Y-117983333D01*
X31792857Y-118697619D02*
X32554762Y-118697619D01*
X32745238Y-118554762D02*
X32888095Y-118602381D01*
X33126191Y-118602381D01*
X33221429Y-118554762D01*
X33269048Y-118507143D01*
X33316667Y-118411905D01*
X33316667Y-118316667D01*
X33269048Y-118221429D01*
X33221429Y-118173810D01*
X33126191Y-118126190D01*
X32935714Y-118078571D01*
X32840476Y-118030952D01*
X32792857Y-117983333D01*
X32745238Y-117888095D01*
X32745238Y-117792857D01*
X32792857Y-117697619D01*
X32840476Y-117650000D01*
X32935714Y-117602381D01*
X33173810Y-117602381D01*
X33316667Y-117650000D01*
X34173810Y-117935714D02*
X34173810Y-118602381D01*
X33745238Y-117935714D02*
X33745238Y-118459524D01*
X33792857Y-118554762D01*
X33888095Y-118602381D01*
X34030953Y-118602381D01*
X34126191Y-118554762D01*
X34173810Y-118507143D01*
X34650000Y-117935714D02*
X34650000Y-118935714D01*
X34650000Y-117983333D02*
X34745238Y-117935714D01*
X34935715Y-117935714D01*
X35030953Y-117983333D01*
X35078572Y-118030952D01*
X35126191Y-118126190D01*
X35126191Y-118411905D01*
X35078572Y-118507143D01*
X35030953Y-118554762D01*
X34935715Y-118602381D01*
X34745238Y-118602381D01*
X34650000Y-118554762D01*
X35554762Y-117935714D02*
X35554762Y-118935714D01*
X35554762Y-117983333D02*
X35650000Y-117935714D01*
X35840477Y-117935714D01*
X35935715Y-117983333D01*
X35983334Y-118030952D01*
X36030953Y-118126190D01*
X36030953Y-118411905D01*
X35983334Y-118507143D01*
X35935715Y-118554762D01*
X35840477Y-118602381D01*
X35650000Y-118602381D01*
X35554762Y-118554762D01*
X36602381Y-118602381D02*
X36507143Y-118554762D01*
X36459524Y-118459524D01*
X36459524Y-117602381D01*
X36888096Y-117935714D02*
X37126191Y-118602381D01*
X37364287Y-117935714D02*
X37126191Y-118602381D01*
X37030953Y-118840476D01*
X36983334Y-118888095D01*
X36888096Y-118935714D01*
X30042427Y-122210501D02*
X30042427Y-122924787D01*
X29994807Y-123067644D01*
X29899569Y-123162882D01*
X29756712Y-123210501D01*
X29661474Y-123210501D01*
X30994808Y-122210501D02*
X30518617Y-122210501D01*
X30470998Y-122686691D01*
X30518617Y-122639072D01*
X30613855Y-122591453D01*
X30851951Y-122591453D01*
X30947189Y-122639072D01*
X30994808Y-122686691D01*
X31042427Y-122781930D01*
X31042427Y-123020025D01*
X30994808Y-123115263D01*
X30947189Y-123162882D01*
X30851951Y-123210501D01*
X30613855Y-123210501D01*
X30518617Y-123162882D01*
X30470998Y-123115263D01*
X55013856Y-118186691D02*
X54680522Y-118186691D01*
X54680522Y-118710501D02*
X54680522Y-117710501D01*
X55156713Y-117710501D01*
X55966237Y-118710501D02*
X55966237Y-118186691D01*
X55918618Y-118091453D01*
X55823380Y-118043834D01*
X55632903Y-118043834D01*
X55537665Y-118091453D01*
X55966237Y-118662882D02*
X55870999Y-118710501D01*
X55632903Y-118710501D01*
X55537665Y-118662882D01*
X55490046Y-118567644D01*
X55490046Y-118472406D01*
X55537665Y-118377168D01*
X55632903Y-118329549D01*
X55870999Y-118329549D01*
X55966237Y-118281930D01*
X56442427Y-118043834D02*
X56442427Y-118710501D01*
X56442427Y-118139072D02*
X56490046Y-118091453D01*
X56585284Y-118043834D01*
X56728142Y-118043834D01*
X56823380Y-118091453D01*
X56870999Y-118186691D01*
X56870999Y-118710501D01*
X55442427Y-122210501D02*
X55442427Y-122924787D01*
X55394807Y-123067644D01*
X55299569Y-123162882D01*
X55156712Y-123210501D01*
X55061474Y-123210501D01*
X56347189Y-122210501D02*
X56156712Y-122210501D01*
X56061474Y-122258120D01*
X56013855Y-122305739D01*
X55918617Y-122448596D01*
X55870998Y-122639072D01*
X55870998Y-123020025D01*
X55918617Y-123115263D01*
X55966236Y-123162882D01*
X56061474Y-123210501D01*
X56251951Y-123210501D01*
X56347189Y-123162882D01*
X56394808Y-123115263D01*
X56442427Y-123020025D01*
X56442427Y-122781930D01*
X56394808Y-122686691D01*
X56347189Y-122639072D01*
X56251951Y-122591453D01*
X56061474Y-122591453D01*
X55966236Y-122639072D01*
X55918617Y-122686691D01*
X55870998Y-122781930D01*
X91102381Y-79080952D02*
X90102381Y-79080952D01*
X90102381Y-78699999D01*
X90150000Y-78604761D01*
X90197619Y-78557142D01*
X90292857Y-78509523D01*
X90435714Y-78509523D01*
X90530952Y-78557142D01*
X90578571Y-78604761D01*
X90626190Y-78699999D01*
X90626190Y-79080952D01*
X90102381Y-78176190D02*
X91102381Y-77938095D01*
X90388095Y-77747618D01*
X91102381Y-77557142D01*
X90102381Y-77319047D01*
X91102381Y-76938095D02*
X90102381Y-76938095D01*
X90816667Y-76604761D01*
X90102381Y-76271428D01*
X91102381Y-76271428D01*
X90102381Y-75890476D02*
X90102381Y-75271428D01*
X90483333Y-75604762D01*
X90483333Y-75461904D01*
X90530952Y-75366666D01*
X90578571Y-75319047D01*
X90673810Y-75271428D01*
X90911905Y-75271428D01*
X91007143Y-75319047D01*
X91054762Y-75366666D01*
X91102381Y-75461904D01*
X91102381Y-75747619D01*
X91054762Y-75842857D01*
X91007143Y-75890476D01*
X85708141Y-77371453D02*
X86422427Y-77371453D01*
X86565284Y-77419073D01*
X86660522Y-77514311D01*
X86708141Y-77657168D01*
X86708141Y-77752406D01*
X86136712Y-76752406D02*
X86089093Y-76847644D01*
X86041474Y-76895263D01*
X85946236Y-76942882D01*
X85898617Y-76942882D01*
X85803379Y-76895263D01*
X85755760Y-76847644D01*
X85708141Y-76752406D01*
X85708141Y-76561929D01*
X85755760Y-76466691D01*
X85803379Y-76419072D01*
X85898617Y-76371453D01*
X85946236Y-76371453D01*
X86041474Y-76419072D01*
X86089093Y-76466691D01*
X86136712Y-76561929D01*
X86136712Y-76752406D01*
X86184331Y-76847644D01*
X86231950Y-76895263D01*
X86327189Y-76942882D01*
X86517665Y-76942882D01*
X86612903Y-76895263D01*
X86660522Y-76847644D01*
X86708141Y-76752406D01*
X86708141Y-76561929D01*
X86660522Y-76466691D01*
X86612903Y-76419072D01*
X86517665Y-76371453D01*
X86327189Y-76371453D01*
X86231950Y-76419072D01*
X86184331Y-76466691D01*
X86136712Y-76561929D01*
X91152381Y-91430952D02*
X90152381Y-91430952D01*
X90152381Y-91049999D01*
X90200000Y-90954761D01*
X90247619Y-90907142D01*
X90342857Y-90859523D01*
X90485714Y-90859523D01*
X90580952Y-90907142D01*
X90628571Y-90954761D01*
X90676190Y-91049999D01*
X90676190Y-91430952D01*
X90152381Y-90526190D02*
X91152381Y-90288095D01*
X90438095Y-90097618D01*
X91152381Y-89907142D01*
X90152381Y-89669047D01*
X91152381Y-89288095D02*
X90152381Y-89288095D01*
X90866667Y-88954761D01*
X90152381Y-88621428D01*
X91152381Y-88621428D01*
X90247619Y-88192857D02*
X90200000Y-88145238D01*
X90152381Y-88050000D01*
X90152381Y-87811904D01*
X90200000Y-87716666D01*
X90247619Y-87669047D01*
X90342857Y-87621428D01*
X90438095Y-87621428D01*
X90580952Y-87669047D01*
X91152381Y-88240476D01*
X91152381Y-87621428D01*
X85708141Y-90071453D02*
X86422427Y-90071453D01*
X86565284Y-90119073D01*
X86660522Y-90214311D01*
X86708141Y-90357168D01*
X86708141Y-90452406D01*
X86708141Y-89547644D02*
X86708141Y-89357168D01*
X86660522Y-89261929D01*
X86612903Y-89214310D01*
X86470046Y-89119072D01*
X86279570Y-89071453D01*
X85898617Y-89071453D01*
X85803379Y-89119072D01*
X85755760Y-89166691D01*
X85708141Y-89261929D01*
X85708141Y-89452406D01*
X85755760Y-89547644D01*
X85803379Y-89595263D01*
X85898617Y-89642882D01*
X86136712Y-89642882D01*
X86231950Y-89595263D01*
X86279570Y-89547644D01*
X86327189Y-89452406D01*
X86327189Y-89261929D01*
X86279570Y-89166691D01*
X86231950Y-89119072D01*
X86136712Y-89071453D01*
X91102381Y-104230952D02*
X90102381Y-104230952D01*
X90102381Y-103849999D01*
X90150000Y-103754761D01*
X90197619Y-103707142D01*
X90292857Y-103659523D01*
X90435714Y-103659523D01*
X90530952Y-103707142D01*
X90578571Y-103754761D01*
X90626190Y-103849999D01*
X90626190Y-104230952D01*
X90102381Y-103326190D02*
X91102381Y-103088095D01*
X90388095Y-102897618D01*
X91102381Y-102707142D01*
X90102381Y-102469047D01*
X91102381Y-102088095D02*
X90102381Y-102088095D01*
X90816667Y-101754761D01*
X90102381Y-101421428D01*
X91102381Y-101421428D01*
X91102381Y-100421428D02*
X91102381Y-100992857D01*
X91102381Y-100707143D02*
X90102381Y-100707143D01*
X90245238Y-100802381D01*
X90340476Y-100897619D01*
X90388095Y-100992857D01*
X85708141Y-103247643D02*
X86422427Y-103247643D01*
X86565284Y-103295263D01*
X86660522Y-103390501D01*
X86708141Y-103533358D01*
X86708141Y-103628596D01*
X86708141Y-102247643D02*
X86708141Y-102819072D01*
X86708141Y-102533358D02*
X85708141Y-102533358D01*
X85850998Y-102628596D01*
X85946236Y-102723834D01*
X85993855Y-102819072D01*
X85708141Y-101628596D02*
X85708141Y-101533357D01*
X85755760Y-101438119D01*
X85803379Y-101390500D01*
X85898617Y-101342881D01*
X86089093Y-101295262D01*
X86327189Y-101295262D01*
X86517665Y-101342881D01*
X86612903Y-101390500D01*
X86660522Y-101438119D01*
X86708141Y-101533357D01*
X86708141Y-101628596D01*
X86660522Y-101723834D01*
X86612903Y-101771453D01*
X86517665Y-101819072D01*
X86327189Y-101866691D01*
X86089093Y-101866691D01*
X85898617Y-101819072D01*
X85803379Y-101771453D01*
X85755760Y-101723834D01*
X85708141Y-101628596D01*
X4930953Y-25602381D02*
X4359524Y-25602381D01*
X4645238Y-25602381D02*
X4645238Y-24602381D01*
X4550000Y-24745238D01*
X4454762Y-24840476D01*
X4359524Y-24888095D01*
X5359524Y-25602381D02*
X5359524Y-24602381D01*
X5454762Y-25221429D02*
X5740477Y-25602381D01*
X5740477Y-24935714D02*
X5359524Y-25316667D01*
D14*
X4938334Y-29661667D02*
X4705000Y-29328333D01*
X4538334Y-29661667D02*
X4538334Y-28961667D01*
X4805000Y-28961667D01*
X4871667Y-28995000D01*
X4905000Y-29028333D01*
X4938334Y-29095000D01*
X4938334Y-29195000D01*
X4905000Y-29261667D01*
X4871667Y-29295000D01*
X4805000Y-29328333D01*
X4538334Y-29328333D01*
X5605000Y-29661667D02*
X5205000Y-29661667D01*
X5405000Y-29661667D02*
X5405000Y-28961667D01*
X5338334Y-29061667D01*
X5271667Y-29128333D01*
X5205000Y-29161667D01*
D12*
X15230953Y-25652381D02*
X14659524Y-25652381D01*
X14945238Y-25652381D02*
X14945238Y-24652381D01*
X14850000Y-24795238D01*
X14754762Y-24890476D01*
X14659524Y-24938095D01*
X15659524Y-25652381D02*
X15659524Y-24652381D01*
X15754762Y-25271429D02*
X16040477Y-25652381D01*
X16040477Y-24985714D02*
X15659524Y-25366667D01*
D14*
X15239094Y-29664787D02*
X15005760Y-29331453D01*
X14839094Y-29664787D02*
X14839094Y-28964787D01*
X15105760Y-28964787D01*
X15172427Y-28998120D01*
X15205760Y-29031453D01*
X15239094Y-29098120D01*
X15239094Y-29198120D01*
X15205760Y-29264787D01*
X15172427Y-29298120D01*
X15105760Y-29331453D01*
X14839094Y-29331453D01*
X15505760Y-29031453D02*
X15539094Y-28998120D01*
X15605760Y-28964787D01*
X15772427Y-28964787D01*
X15839094Y-28998120D01*
X15872427Y-29031453D01*
X15905760Y-29098120D01*
X15905760Y-29164787D01*
X15872427Y-29264787D01*
X15472427Y-29664787D01*
X15905760Y-29664787D01*
D12*
X10478309Y-62456474D02*
X10478309Y-63123141D01*
X10240213Y-62075522D02*
X10002118Y-62789808D01*
X10621166Y-62789808D01*
X11002118Y-63027903D02*
X11049737Y-63075522D01*
X11002118Y-63123141D01*
X10954499Y-63075522D01*
X11002118Y-63027903D01*
X11002118Y-63123141D01*
X11383070Y-62123141D02*
X12049737Y-62123141D01*
X11621165Y-63123141D01*
X12430689Y-63123141D02*
X12430689Y-62123141D01*
X12525927Y-62742189D02*
X12811642Y-63123141D01*
X12811642Y-62456474D02*
X12430689Y-62837427D01*
D14*
X11290214Y-64937427D02*
X11056880Y-64604093D01*
X10890214Y-64937427D02*
X10890214Y-64237427D01*
X11156880Y-64237427D01*
X11223547Y-64270760D01*
X11256880Y-64304093D01*
X11290214Y-64370760D01*
X11290214Y-64470760D01*
X11256880Y-64537427D01*
X11223547Y-64570760D01*
X11156880Y-64604093D01*
X10890214Y-64604093D01*
X11523547Y-64237427D02*
X11956880Y-64237427D01*
X11723547Y-64504093D01*
X11823547Y-64504093D01*
X11890214Y-64537427D01*
X11923547Y-64570760D01*
X11956880Y-64637427D01*
X11956880Y-64804093D01*
X11923547Y-64870760D01*
X11890214Y-64904093D01*
X11823547Y-64937427D01*
X11623547Y-64937427D01*
X11556880Y-64904093D01*
X11523547Y-64870760D01*
D12*
X4880953Y-31602381D02*
X4309524Y-31602381D01*
X4595238Y-31602381D02*
X4595238Y-30602381D01*
X4500000Y-30745238D01*
X4404762Y-30840476D01*
X4309524Y-30888095D01*
X5309524Y-31602381D02*
X5309524Y-30602381D01*
X5404762Y-31221429D02*
X5690477Y-31602381D01*
X5690477Y-30935714D02*
X5309524Y-31316667D01*
D14*
X4938334Y-27211667D02*
X4705000Y-26878333D01*
X4538334Y-27211667D02*
X4538334Y-26511667D01*
X4805000Y-26511667D01*
X4871667Y-26545000D01*
X4905000Y-26578333D01*
X4938334Y-26645000D01*
X4938334Y-26745000D01*
X4905000Y-26811667D01*
X4871667Y-26845000D01*
X4805000Y-26878333D01*
X4538334Y-26878333D01*
X5538334Y-26511667D02*
X5405000Y-26511667D01*
X5338334Y-26545000D01*
X5305000Y-26578333D01*
X5238334Y-26678333D01*
X5205000Y-26811667D01*
X5205000Y-27078333D01*
X5238334Y-27145000D01*
X5271667Y-27178333D01*
X5338334Y-27211667D01*
X5471667Y-27211667D01*
X5538334Y-27178333D01*
X5571667Y-27145000D01*
X5605000Y-27078333D01*
X5605000Y-26911667D01*
X5571667Y-26845000D01*
X5538334Y-26811667D01*
X5471667Y-26778333D01*
X5338334Y-26778333D01*
X5271667Y-26811667D01*
X5238334Y-26845000D01*
X5205000Y-26911667D01*
D12*
X15180953Y-31602381D02*
X14609524Y-31602381D01*
X14895238Y-31602381D02*
X14895238Y-30602381D01*
X14800000Y-30745238D01*
X14704762Y-30840476D01*
X14609524Y-30888095D01*
X15609524Y-31602381D02*
X15609524Y-30602381D01*
X15704762Y-31221429D02*
X15990477Y-31602381D01*
X15990477Y-30935714D02*
X15609524Y-31316667D01*
D14*
X15239094Y-27214787D02*
X15005760Y-26881453D01*
X14839094Y-27214787D02*
X14839094Y-26514787D01*
X15105760Y-26514787D01*
X15172427Y-26548120D01*
X15205760Y-26581453D01*
X15239094Y-26648120D01*
X15239094Y-26748120D01*
X15205760Y-26814787D01*
X15172427Y-26848120D01*
X15105760Y-26881453D01*
X14839094Y-26881453D01*
X15639094Y-26814787D02*
X15572427Y-26781453D01*
X15539094Y-26748120D01*
X15505760Y-26681453D01*
X15505760Y-26648120D01*
X15539094Y-26581453D01*
X15572427Y-26548120D01*
X15639094Y-26514787D01*
X15772427Y-26514787D01*
X15839094Y-26548120D01*
X15872427Y-26581453D01*
X15905760Y-26648120D01*
X15905760Y-26681453D01*
X15872427Y-26748120D01*
X15839094Y-26781453D01*
X15772427Y-26814787D01*
X15639094Y-26814787D01*
X15572427Y-26848120D01*
X15539094Y-26881453D01*
X15505760Y-26948120D01*
X15505760Y-27081453D01*
X15539094Y-27148120D01*
X15572427Y-27181453D01*
X15639094Y-27214787D01*
X15772427Y-27214787D01*
X15839094Y-27181453D01*
X15872427Y-27148120D01*
X15905760Y-27081453D01*
X15905760Y-26948120D01*
X15872427Y-26881453D01*
X15839094Y-26848120D01*
X15772427Y-26814787D01*
D12*
X13606741Y-97828359D02*
X13606741Y-98399788D01*
X13606741Y-98114074D02*
X12606741Y-98114074D01*
X12749598Y-98209312D01*
X12844836Y-98304550D01*
X12892455Y-98399788D01*
X12606741Y-97209312D02*
X12606741Y-97114073D01*
X12654360Y-97018835D01*
X12701979Y-96971216D01*
X12797217Y-96923597D01*
X12987693Y-96875978D01*
X13225789Y-96875978D01*
X13416265Y-96923597D01*
X13511503Y-96971216D01*
X13559122Y-97018835D01*
X13606741Y-97114073D01*
X13606741Y-97209312D01*
X13559122Y-97304550D01*
X13511503Y-97352169D01*
X13416265Y-97399788D01*
X13225789Y-97447407D01*
X12987693Y-97447407D01*
X12797217Y-97399788D01*
X12701979Y-97352169D01*
X12654360Y-97304550D01*
X12606741Y-97209312D01*
X13606741Y-96447407D02*
X12606741Y-96447407D01*
X13225789Y-96352169D02*
X13606741Y-96066454D01*
X12940074Y-96066454D02*
X13321027Y-96447407D01*
D14*
X11642427Y-97474786D02*
X11309093Y-97708120D01*
X11642427Y-97874786D02*
X10942427Y-97874786D01*
X10942427Y-97608120D01*
X10975760Y-97541453D01*
X11009093Y-97508120D01*
X11075760Y-97474786D01*
X11175760Y-97474786D01*
X11242427Y-97508120D01*
X11275760Y-97541453D01*
X11309093Y-97608120D01*
X11309093Y-97874786D01*
X11642427Y-97141453D02*
X11642427Y-97008120D01*
X11609093Y-96941453D01*
X11575760Y-96908120D01*
X11475760Y-96841453D01*
X11342427Y-96808120D01*
X11075760Y-96808120D01*
X11009093Y-96841453D01*
X10975760Y-96874786D01*
X10942427Y-96941453D01*
X10942427Y-97074786D01*
X10975760Y-97141453D01*
X11009093Y-97174786D01*
X11075760Y-97208120D01*
X11242427Y-97208120D01*
X11309093Y-97174786D01*
X11342427Y-97141453D01*
X11375760Y-97074786D01*
X11375760Y-96941453D01*
X11342427Y-96874786D01*
X11309093Y-96841453D01*
X11242427Y-96808120D01*
D12*
X17538141Y-97953358D02*
X17538141Y-98524787D01*
X17538141Y-98239073D02*
X16538141Y-98239073D01*
X16680998Y-98334311D01*
X16776236Y-98429549D01*
X16823855Y-98524787D01*
X16538141Y-97334311D02*
X16538141Y-97239072D01*
X16585760Y-97143834D01*
X16633379Y-97096215D01*
X16728617Y-97048596D01*
X16919093Y-97000977D01*
X17157189Y-97000977D01*
X17347665Y-97048596D01*
X17442903Y-97096215D01*
X17490522Y-97143834D01*
X17538141Y-97239072D01*
X17538141Y-97334311D01*
X17490522Y-97429549D01*
X17442903Y-97477168D01*
X17347665Y-97524787D01*
X17157189Y-97572406D01*
X16919093Y-97572406D01*
X16728617Y-97524787D01*
X16633379Y-97477168D01*
X16585760Y-97429549D01*
X16538141Y-97334311D01*
X17538141Y-96572406D02*
X16538141Y-96572406D01*
X17157189Y-96477168D02*
X17538141Y-96191453D01*
X16871474Y-96191453D02*
X17252427Y-96572406D01*
D14*
X15452427Y-97808120D02*
X15119093Y-98041454D01*
X15452427Y-98208120D02*
X14752427Y-98208120D01*
X14752427Y-97941454D01*
X14785760Y-97874787D01*
X14819093Y-97841454D01*
X14885760Y-97808120D01*
X14985760Y-97808120D01*
X15052427Y-97841454D01*
X15085760Y-97874787D01*
X15119093Y-97941454D01*
X15119093Y-98208120D01*
X15452427Y-97141454D02*
X15452427Y-97541454D01*
X15452427Y-97341454D02*
X14752427Y-97341454D01*
X14852427Y-97408120D01*
X14919093Y-97474787D01*
X14952427Y-97541454D01*
X14752427Y-96708120D02*
X14752427Y-96641453D01*
X14785760Y-96574787D01*
X14819093Y-96541453D01*
X14885760Y-96508120D01*
X15019093Y-96474787D01*
X15185760Y-96474787D01*
X15319093Y-96508120D01*
X15385760Y-96541453D01*
X15419093Y-96574787D01*
X15452427Y-96641453D01*
X15452427Y-96708120D01*
X15419093Y-96774787D01*
X15385760Y-96808120D01*
X15319093Y-96841453D01*
X15185760Y-96874787D01*
X15019093Y-96874787D01*
X14885760Y-96841453D01*
X14819093Y-96808120D01*
X14785760Y-96774787D01*
X14752427Y-96708120D01*
D12*
X10180953Y-31602381D02*
X9609524Y-31602381D01*
X9895238Y-31602381D02*
X9895238Y-30602381D01*
X9800000Y-30745238D01*
X9704762Y-30840476D01*
X9609524Y-30888095D01*
X10609524Y-31602381D02*
X10609524Y-30602381D01*
X10704762Y-31221429D02*
X10990477Y-31602381D01*
X10990477Y-30935714D02*
X10609524Y-31316667D01*
D14*
X9720620Y-27218407D02*
X9487286Y-26885073D01*
X9320620Y-27218407D02*
X9320620Y-26518407D01*
X9587286Y-26518407D01*
X9653953Y-26551740D01*
X9687286Y-26585073D01*
X9720620Y-26651740D01*
X9720620Y-26751740D01*
X9687286Y-26818407D01*
X9653953Y-26851740D01*
X9587286Y-26885073D01*
X9320620Y-26885073D01*
X10387286Y-27218407D02*
X9987286Y-27218407D01*
X10187286Y-27218407D02*
X10187286Y-26518407D01*
X10120620Y-26618407D01*
X10053953Y-26685073D01*
X9987286Y-26718407D01*
X10653953Y-26585073D02*
X10687287Y-26551740D01*
X10753953Y-26518407D01*
X10920620Y-26518407D01*
X10987287Y-26551740D01*
X11020620Y-26585073D01*
X11053953Y-26651740D01*
X11053953Y-26718407D01*
X11020620Y-26818407D01*
X10620620Y-27218407D01*
X11053953Y-27218407D01*
D12*
X39016667Y-109102381D02*
X39635715Y-109102381D01*
X39302381Y-109483333D01*
X39445239Y-109483333D01*
X39540477Y-109530952D01*
X39588096Y-109578571D01*
X39635715Y-109673810D01*
X39635715Y-109911905D01*
X39588096Y-110007143D01*
X39540477Y-110054762D01*
X39445239Y-110102381D01*
X39159524Y-110102381D01*
X39064286Y-110054762D01*
X39016667Y-110007143D01*
D14*
X38815760Y-111644787D02*
X38582426Y-111311453D01*
X38415760Y-111644787D02*
X38415760Y-110944787D01*
X38682426Y-110944787D01*
X38749093Y-110978120D01*
X38782426Y-111011453D01*
X38815760Y-111078120D01*
X38815760Y-111178120D01*
X38782426Y-111244787D01*
X38749093Y-111278120D01*
X38682426Y-111311453D01*
X38415760Y-111311453D01*
X39482426Y-111644787D02*
X39082426Y-111644787D01*
X39282426Y-111644787D02*
X39282426Y-110944787D01*
X39215760Y-111044787D01*
X39149093Y-111111453D01*
X39082426Y-111144787D01*
X40082427Y-111178120D02*
X40082427Y-111644787D01*
X39915760Y-110911453D02*
X39749093Y-111411453D01*
X40182427Y-111411453D01*
D12*
X11066667Y-109052381D02*
X11685715Y-109052381D01*
X11352381Y-109433333D01*
X11495239Y-109433333D01*
X11590477Y-109480952D01*
X11638096Y-109528571D01*
X11685715Y-109623810D01*
X11685715Y-109861905D01*
X11638096Y-109957143D01*
X11590477Y-110004762D01*
X11495239Y-110052381D01*
X11209524Y-110052381D01*
X11114286Y-110004762D01*
X11066667Y-109957143D01*
D14*
X10875760Y-111644787D02*
X10642426Y-111311453D01*
X10475760Y-111644787D02*
X10475760Y-110944787D01*
X10742426Y-110944787D01*
X10809093Y-110978120D01*
X10842426Y-111011453D01*
X10875760Y-111078120D01*
X10875760Y-111178120D01*
X10842426Y-111244787D01*
X10809093Y-111278120D01*
X10742426Y-111311453D01*
X10475760Y-111311453D01*
X11542426Y-111644787D02*
X11142426Y-111644787D01*
X11342426Y-111644787D02*
X11342426Y-110944787D01*
X11275760Y-111044787D01*
X11209093Y-111111453D01*
X11142426Y-111144787D01*
X12142427Y-110944787D02*
X12009093Y-110944787D01*
X11942427Y-110978120D01*
X11909093Y-111011453D01*
X11842427Y-111111453D01*
X11809093Y-111244787D01*
X11809093Y-111511453D01*
X11842427Y-111578120D01*
X11875760Y-111611453D01*
X11942427Y-111644787D01*
X12075760Y-111644787D01*
X12142427Y-111611453D01*
X12175760Y-111578120D01*
X12209093Y-111511453D01*
X12209093Y-111344787D01*
X12175760Y-111278120D01*
X12142427Y-111244787D01*
X12075760Y-111211453D01*
X11942427Y-111211453D01*
X11875760Y-111244787D01*
X11842427Y-111278120D01*
X11809093Y-111344787D01*
D12*
X33754762Y-110052381D02*
X33183333Y-110052381D01*
X33469047Y-110052381D02*
X33469047Y-109052381D01*
X33373809Y-109195238D01*
X33278571Y-109290476D01*
X33183333Y-109338095D01*
X34373809Y-109052381D02*
X34469048Y-109052381D01*
X34564286Y-109100000D01*
X34611905Y-109147619D01*
X34659524Y-109242857D01*
X34707143Y-109433333D01*
X34707143Y-109671429D01*
X34659524Y-109861905D01*
X34611905Y-109957143D01*
X34564286Y-110004762D01*
X34469048Y-110052381D01*
X34373809Y-110052381D01*
X34278571Y-110004762D01*
X34230952Y-109957143D01*
X34183333Y-109861905D01*
X34135714Y-109671429D01*
X34135714Y-109433333D01*
X34183333Y-109242857D01*
X34230952Y-109147619D01*
X34278571Y-109100000D01*
X34373809Y-109052381D01*
X35135714Y-110052381D02*
X35135714Y-109052381D01*
X35230952Y-109671429D02*
X35516667Y-110052381D01*
X35516667Y-109385714D02*
X35135714Y-109766667D01*
D14*
X33735760Y-111644787D02*
X33502426Y-111311453D01*
X33335760Y-111644787D02*
X33335760Y-110944787D01*
X33602426Y-110944787D01*
X33669093Y-110978120D01*
X33702426Y-111011453D01*
X33735760Y-111078120D01*
X33735760Y-111178120D01*
X33702426Y-111244787D01*
X33669093Y-111278120D01*
X33602426Y-111311453D01*
X33335760Y-111311453D01*
X34402426Y-111644787D02*
X34002426Y-111644787D01*
X34202426Y-111644787D02*
X34202426Y-110944787D01*
X34135760Y-111044787D01*
X34069093Y-111111453D01*
X34002426Y-111144787D01*
X34635760Y-110944787D02*
X35102427Y-110944787D01*
X34802427Y-111644787D01*
D12*
X5914286Y-109197619D02*
X5961905Y-109150000D01*
X6057143Y-109102381D01*
X6295239Y-109102381D01*
X6390477Y-109150000D01*
X6438096Y-109197619D01*
X6485715Y-109292857D01*
X6485715Y-109388095D01*
X6438096Y-109530952D01*
X5866667Y-110102381D01*
X6485715Y-110102381D01*
D14*
X5795760Y-111644787D02*
X5562426Y-111311453D01*
X5395760Y-111644787D02*
X5395760Y-110944787D01*
X5662426Y-110944787D01*
X5729093Y-110978120D01*
X5762426Y-111011453D01*
X5795760Y-111078120D01*
X5795760Y-111178120D01*
X5762426Y-111244787D01*
X5729093Y-111278120D01*
X5662426Y-111311453D01*
X5395760Y-111311453D01*
X6462426Y-111644787D02*
X6062426Y-111644787D01*
X6262426Y-111644787D02*
X6262426Y-110944787D01*
X6195760Y-111044787D01*
X6129093Y-111111453D01*
X6062426Y-111144787D01*
X6862427Y-111244787D02*
X6795760Y-111211453D01*
X6762427Y-111178120D01*
X6729093Y-111111453D01*
X6729093Y-111078120D01*
X6762427Y-111011453D01*
X6795760Y-110978120D01*
X6862427Y-110944787D01*
X6995760Y-110944787D01*
X7062427Y-110978120D01*
X7095760Y-111011453D01*
X7129093Y-111078120D01*
X7129093Y-111111453D01*
X7095760Y-111178120D01*
X7062427Y-111211453D01*
X6995760Y-111244787D01*
X6862427Y-111244787D01*
X6795760Y-111278120D01*
X6762427Y-111311453D01*
X6729093Y-111378120D01*
X6729093Y-111511453D01*
X6762427Y-111578120D01*
X6795760Y-111611453D01*
X6862427Y-111644787D01*
X6995760Y-111644787D01*
X7062427Y-111611453D01*
X7095760Y-111578120D01*
X7129093Y-111511453D01*
X7129093Y-111378120D01*
X7095760Y-111311453D01*
X7062427Y-111278120D01*
X6995760Y-111244787D01*
D12*
X38966667Y-91252381D02*
X39585715Y-91252381D01*
X39252381Y-91633333D01*
X39395239Y-91633333D01*
X39490477Y-91680952D01*
X39538096Y-91728571D01*
X39585715Y-91823810D01*
X39585715Y-92061905D01*
X39538096Y-92157143D01*
X39490477Y-92204762D01*
X39395239Y-92252381D01*
X39109524Y-92252381D01*
X39014286Y-92204762D01*
X38966667Y-92157143D01*
D14*
X38815760Y-93864787D02*
X38582426Y-93531453D01*
X38415760Y-93864787D02*
X38415760Y-93164787D01*
X38682426Y-93164787D01*
X38749093Y-93198120D01*
X38782426Y-93231453D01*
X38815760Y-93298120D01*
X38815760Y-93398120D01*
X38782426Y-93464787D01*
X38749093Y-93498120D01*
X38682426Y-93531453D01*
X38415760Y-93531453D01*
X39482426Y-93864787D02*
X39082426Y-93864787D01*
X39282426Y-93864787D02*
X39282426Y-93164787D01*
X39215760Y-93264787D01*
X39149093Y-93331453D01*
X39082426Y-93364787D01*
X39815760Y-93864787D02*
X39949093Y-93864787D01*
X40015760Y-93831453D01*
X40049093Y-93798120D01*
X40115760Y-93698120D01*
X40149093Y-93564787D01*
X40149093Y-93298120D01*
X40115760Y-93231453D01*
X40082427Y-93198120D01*
X40015760Y-93164787D01*
X39882427Y-93164787D01*
X39815760Y-93198120D01*
X39782427Y-93231453D01*
X39749093Y-93298120D01*
X39749093Y-93464787D01*
X39782427Y-93531453D01*
X39815760Y-93564787D01*
X39882427Y-93598120D01*
X40015760Y-93598120D01*
X40082427Y-93564787D01*
X40115760Y-93531453D01*
X40149093Y-93464787D01*
D12*
X44064286Y-91397619D02*
X44111905Y-91350000D01*
X44207143Y-91302381D01*
X44445239Y-91302381D01*
X44540477Y-91350000D01*
X44588096Y-91397619D01*
X44635715Y-91492857D01*
X44635715Y-91588095D01*
X44588096Y-91730952D01*
X44016667Y-92302381D01*
X44635715Y-92302381D01*
D14*
X43895760Y-93864787D02*
X43662426Y-93531453D01*
X43495760Y-93864787D02*
X43495760Y-93164787D01*
X43762426Y-93164787D01*
X43829093Y-93198120D01*
X43862426Y-93231453D01*
X43895760Y-93298120D01*
X43895760Y-93398120D01*
X43862426Y-93464787D01*
X43829093Y-93498120D01*
X43762426Y-93531453D01*
X43495760Y-93531453D01*
X44162426Y-93231453D02*
X44195760Y-93198120D01*
X44262426Y-93164787D01*
X44429093Y-93164787D01*
X44495760Y-93198120D01*
X44529093Y-93231453D01*
X44562426Y-93298120D01*
X44562426Y-93364787D01*
X44529093Y-93464787D01*
X44129093Y-93864787D01*
X44562426Y-93864787D01*
X44995760Y-93164787D02*
X45062427Y-93164787D01*
X45129093Y-93198120D01*
X45162427Y-93231453D01*
X45195760Y-93298120D01*
X45229093Y-93431453D01*
X45229093Y-93598120D01*
X45195760Y-93731453D01*
X45162427Y-93798120D01*
X45129093Y-93831453D01*
X45062427Y-93864787D01*
X44995760Y-93864787D01*
X44929093Y-93831453D01*
X44895760Y-93798120D01*
X44862427Y-93731453D01*
X44829093Y-93598120D01*
X44829093Y-93431453D01*
X44862427Y-93298120D01*
X44895760Y-93231453D01*
X44929093Y-93198120D01*
X44995760Y-93164787D01*
D12*
X38575284Y-105020501D02*
X38384807Y-105020501D01*
X38289569Y-105068120D01*
X38241950Y-105115739D01*
X38146712Y-105258596D01*
X38099093Y-105449072D01*
X38099093Y-105830025D01*
X38146712Y-105925263D01*
X38194331Y-105972882D01*
X38289569Y-106020501D01*
X38480046Y-106020501D01*
X38575284Y-105972882D01*
X38622903Y-105925263D01*
X38670522Y-105830025D01*
X38670522Y-105591930D01*
X38622903Y-105496691D01*
X38575284Y-105449072D01*
X38480046Y-105401453D01*
X38289569Y-105401453D01*
X38194331Y-105449072D01*
X38146712Y-105496691D01*
X38099093Y-105591930D01*
X39051474Y-105115739D02*
X39099093Y-105068120D01*
X39194331Y-105020501D01*
X39432427Y-105020501D01*
X39527665Y-105068120D01*
X39575284Y-105115739D01*
X39622903Y-105210977D01*
X39622903Y-105306215D01*
X39575284Y-105449072D01*
X39003855Y-106020501D01*
X39622903Y-106020501D01*
X40051474Y-106020501D02*
X40051474Y-105020501D01*
X40146712Y-105639549D02*
X40432427Y-106020501D01*
X40432427Y-105353834D02*
X40051474Y-105734787D01*
D14*
X38815760Y-107834787D02*
X38582426Y-107501453D01*
X38415760Y-107834787D02*
X38415760Y-107134787D01*
X38682426Y-107134787D01*
X38749093Y-107168120D01*
X38782426Y-107201453D01*
X38815760Y-107268120D01*
X38815760Y-107368120D01*
X38782426Y-107434787D01*
X38749093Y-107468120D01*
X38682426Y-107501453D01*
X38415760Y-107501453D01*
X39082426Y-107201453D02*
X39115760Y-107168120D01*
X39182426Y-107134787D01*
X39349093Y-107134787D01*
X39415760Y-107168120D01*
X39449093Y-107201453D01*
X39482426Y-107268120D01*
X39482426Y-107334787D01*
X39449093Y-107434787D01*
X39049093Y-107834787D01*
X39482426Y-107834787D01*
X40149093Y-107834787D02*
X39749093Y-107834787D01*
X39949093Y-107834787D02*
X39949093Y-107134787D01*
X39882427Y-107234787D01*
X39815760Y-107301453D01*
X39749093Y-107334787D01*
D12*
X43750522Y-106110501D02*
X43179093Y-106110501D01*
X43464807Y-106110501D02*
X43464807Y-105110501D01*
X43369569Y-105253358D01*
X43274331Y-105348596D01*
X43179093Y-105396215D01*
X44702903Y-106110501D02*
X44131474Y-106110501D01*
X44417188Y-106110501D02*
X44417188Y-105110501D01*
X44321950Y-105253358D01*
X44226712Y-105348596D01*
X44131474Y-105396215D01*
X45131474Y-106110501D02*
X45131474Y-105110501D01*
X45226712Y-105729549D02*
X45512427Y-106110501D01*
X45512427Y-105443834D02*
X45131474Y-105824787D01*
D14*
X43895760Y-104024787D02*
X43662426Y-103691453D01*
X43495760Y-104024787D02*
X43495760Y-103324787D01*
X43762426Y-103324787D01*
X43829093Y-103358120D01*
X43862426Y-103391453D01*
X43895760Y-103458120D01*
X43895760Y-103558120D01*
X43862426Y-103624787D01*
X43829093Y-103658120D01*
X43762426Y-103691453D01*
X43495760Y-103691453D01*
X44162426Y-103391453D02*
X44195760Y-103358120D01*
X44262426Y-103324787D01*
X44429093Y-103324787D01*
X44495760Y-103358120D01*
X44529093Y-103391453D01*
X44562426Y-103458120D01*
X44562426Y-103524787D01*
X44529093Y-103624787D01*
X44129093Y-104024787D01*
X44562426Y-104024787D01*
X44829093Y-103391453D02*
X44862427Y-103358120D01*
X44929093Y-103324787D01*
X45095760Y-103324787D01*
X45162427Y-103358120D01*
X45195760Y-103391453D01*
X45229093Y-103458120D01*
X45229093Y-103524787D01*
X45195760Y-103624787D01*
X44795760Y-104024787D01*
X45229093Y-104024787D01*
D12*
X15804762Y-110002381D02*
X15233333Y-110002381D01*
X15519047Y-110002381D02*
X15519047Y-109002381D01*
X15423809Y-109145238D01*
X15328571Y-109240476D01*
X15233333Y-109288095D01*
X16423809Y-109002381D02*
X16519048Y-109002381D01*
X16614286Y-109050000D01*
X16661905Y-109097619D01*
X16709524Y-109192857D01*
X16757143Y-109383333D01*
X16757143Y-109621429D01*
X16709524Y-109811905D01*
X16661905Y-109907143D01*
X16614286Y-109954762D01*
X16519048Y-110002381D01*
X16423809Y-110002381D01*
X16328571Y-109954762D01*
X16280952Y-109907143D01*
X16233333Y-109811905D01*
X16185714Y-109621429D01*
X16185714Y-109383333D01*
X16233333Y-109192857D01*
X16280952Y-109097619D01*
X16328571Y-109050000D01*
X16423809Y-109002381D01*
X17185714Y-110002381D02*
X17185714Y-109002381D01*
X17280952Y-109621429D02*
X17566667Y-110002381D01*
X17566667Y-109335714D02*
X17185714Y-109716667D01*
D14*
X15955760Y-111644787D02*
X15722426Y-111311453D01*
X15555760Y-111644787D02*
X15555760Y-110944787D01*
X15822426Y-110944787D01*
X15889093Y-110978120D01*
X15922426Y-111011453D01*
X15955760Y-111078120D01*
X15955760Y-111178120D01*
X15922426Y-111244787D01*
X15889093Y-111278120D01*
X15822426Y-111311453D01*
X15555760Y-111311453D01*
X16222426Y-111011453D02*
X16255760Y-110978120D01*
X16322426Y-110944787D01*
X16489093Y-110944787D01*
X16555760Y-110978120D01*
X16589093Y-111011453D01*
X16622426Y-111078120D01*
X16622426Y-111144787D01*
X16589093Y-111244787D01*
X16189093Y-111644787D01*
X16622426Y-111644787D01*
X16855760Y-110944787D02*
X17289093Y-110944787D01*
X17055760Y-111211453D01*
X17155760Y-111211453D01*
X17222427Y-111244787D01*
X17255760Y-111278120D01*
X17289093Y-111344787D01*
X17289093Y-111511453D01*
X17255760Y-111578120D01*
X17222427Y-111611453D01*
X17155760Y-111644787D01*
X16955760Y-111644787D01*
X16889093Y-111611453D01*
X16855760Y-111578120D01*
D12*
X33504762Y-92152381D02*
X32933333Y-92152381D01*
X33219047Y-92152381D02*
X33219047Y-91152381D01*
X33123809Y-91295238D01*
X33028571Y-91390476D01*
X32933333Y-91438095D01*
X34123809Y-91152381D02*
X34219048Y-91152381D01*
X34314286Y-91200000D01*
X34361905Y-91247619D01*
X34409524Y-91342857D01*
X34457143Y-91533333D01*
X34457143Y-91771429D01*
X34409524Y-91961905D01*
X34361905Y-92057143D01*
X34314286Y-92104762D01*
X34219048Y-92152381D01*
X34123809Y-92152381D01*
X34028571Y-92104762D01*
X33980952Y-92057143D01*
X33933333Y-91961905D01*
X33885714Y-91771429D01*
X33885714Y-91533333D01*
X33933333Y-91342857D01*
X33980952Y-91247619D01*
X34028571Y-91200000D01*
X34123809Y-91152381D01*
X34885714Y-92152381D02*
X34885714Y-91152381D01*
X34980952Y-91771429D02*
X35266667Y-92152381D01*
X35266667Y-91485714D02*
X34885714Y-91866667D01*
D14*
X33735760Y-93864787D02*
X33502426Y-93531453D01*
X33335760Y-93864787D02*
X33335760Y-93164787D01*
X33602426Y-93164787D01*
X33669093Y-93198120D01*
X33702426Y-93231453D01*
X33735760Y-93298120D01*
X33735760Y-93398120D01*
X33702426Y-93464787D01*
X33669093Y-93498120D01*
X33602426Y-93531453D01*
X33335760Y-93531453D01*
X34002426Y-93231453D02*
X34035760Y-93198120D01*
X34102426Y-93164787D01*
X34269093Y-93164787D01*
X34335760Y-93198120D01*
X34369093Y-93231453D01*
X34402426Y-93298120D01*
X34402426Y-93364787D01*
X34369093Y-93464787D01*
X33969093Y-93864787D01*
X34402426Y-93864787D01*
X35002427Y-93398120D02*
X35002427Y-93864787D01*
X34835760Y-93131453D02*
X34669093Y-93631453D01*
X35102427Y-93631453D01*
D12*
X10709524Y-104952381D02*
X10519047Y-104952381D01*
X10423809Y-105000000D01*
X10376190Y-105047619D01*
X10280952Y-105190476D01*
X10233333Y-105380952D01*
X10233333Y-105761905D01*
X10280952Y-105857143D01*
X10328571Y-105904762D01*
X10423809Y-105952381D01*
X10614286Y-105952381D01*
X10709524Y-105904762D01*
X10757143Y-105857143D01*
X10804762Y-105761905D01*
X10804762Y-105523810D01*
X10757143Y-105428571D01*
X10709524Y-105380952D01*
X10614286Y-105333333D01*
X10423809Y-105333333D01*
X10328571Y-105380952D01*
X10280952Y-105428571D01*
X10233333Y-105523810D01*
X11185714Y-105047619D02*
X11233333Y-105000000D01*
X11328571Y-104952381D01*
X11566667Y-104952381D01*
X11661905Y-105000000D01*
X11709524Y-105047619D01*
X11757143Y-105142857D01*
X11757143Y-105238095D01*
X11709524Y-105380952D01*
X11138095Y-105952381D01*
X11757143Y-105952381D01*
X12185714Y-105952381D02*
X12185714Y-104952381D01*
X12280952Y-105571429D02*
X12566667Y-105952381D01*
X12566667Y-105285714D02*
X12185714Y-105666667D01*
D14*
X10875760Y-107834787D02*
X10642426Y-107501453D01*
X10475760Y-107834787D02*
X10475760Y-107134787D01*
X10742426Y-107134787D01*
X10809093Y-107168120D01*
X10842426Y-107201453D01*
X10875760Y-107268120D01*
X10875760Y-107368120D01*
X10842426Y-107434787D01*
X10809093Y-107468120D01*
X10742426Y-107501453D01*
X10475760Y-107501453D01*
X11142426Y-107201453D02*
X11175760Y-107168120D01*
X11242426Y-107134787D01*
X11409093Y-107134787D01*
X11475760Y-107168120D01*
X11509093Y-107201453D01*
X11542426Y-107268120D01*
X11542426Y-107334787D01*
X11509093Y-107434787D01*
X11109093Y-107834787D01*
X11542426Y-107834787D01*
X12175760Y-107134787D02*
X11842427Y-107134787D01*
X11809093Y-107468120D01*
X11842427Y-107434787D01*
X11909093Y-107401453D01*
X12075760Y-107401453D01*
X12142427Y-107434787D01*
X12175760Y-107468120D01*
X12209093Y-107534787D01*
X12209093Y-107701453D01*
X12175760Y-107768120D01*
X12142427Y-107801453D01*
X12075760Y-107834787D01*
X11909093Y-107834787D01*
X11842427Y-107801453D01*
X11809093Y-107768120D01*
D12*
X28554762Y-110002381D02*
X27983333Y-110002381D01*
X28269047Y-110002381D02*
X28269047Y-109002381D01*
X28173809Y-109145238D01*
X28078571Y-109240476D01*
X27983333Y-109288095D01*
X29173809Y-109002381D02*
X29269048Y-109002381D01*
X29364286Y-109050000D01*
X29411905Y-109097619D01*
X29459524Y-109192857D01*
X29507143Y-109383333D01*
X29507143Y-109621429D01*
X29459524Y-109811905D01*
X29411905Y-109907143D01*
X29364286Y-109954762D01*
X29269048Y-110002381D01*
X29173809Y-110002381D01*
X29078571Y-109954762D01*
X29030952Y-109907143D01*
X28983333Y-109811905D01*
X28935714Y-109621429D01*
X28935714Y-109383333D01*
X28983333Y-109192857D01*
X29030952Y-109097619D01*
X29078571Y-109050000D01*
X29173809Y-109002381D01*
X29935714Y-110002381D02*
X29935714Y-109002381D01*
X30030952Y-109621429D02*
X30316667Y-110002381D01*
X30316667Y-109335714D02*
X29935714Y-109716667D01*
D14*
X28655760Y-111644787D02*
X28422426Y-111311453D01*
X28255760Y-111644787D02*
X28255760Y-110944787D01*
X28522426Y-110944787D01*
X28589093Y-110978120D01*
X28622426Y-111011453D01*
X28655760Y-111078120D01*
X28655760Y-111178120D01*
X28622426Y-111244787D01*
X28589093Y-111278120D01*
X28522426Y-111311453D01*
X28255760Y-111311453D01*
X28922426Y-111011453D02*
X28955760Y-110978120D01*
X29022426Y-110944787D01*
X29189093Y-110944787D01*
X29255760Y-110978120D01*
X29289093Y-111011453D01*
X29322426Y-111078120D01*
X29322426Y-111144787D01*
X29289093Y-111244787D01*
X28889093Y-111644787D01*
X29322426Y-111644787D01*
X29922427Y-110944787D02*
X29789093Y-110944787D01*
X29722427Y-110978120D01*
X29689093Y-111011453D01*
X29622427Y-111111453D01*
X29589093Y-111244787D01*
X29589093Y-111511453D01*
X29622427Y-111578120D01*
X29655760Y-111611453D01*
X29722427Y-111644787D01*
X29855760Y-111644787D01*
X29922427Y-111611453D01*
X29955760Y-111578120D01*
X29989093Y-111511453D01*
X29989093Y-111344787D01*
X29955760Y-111278120D01*
X29922427Y-111244787D01*
X29855760Y-111211453D01*
X29722427Y-111211453D01*
X29655760Y-111244787D01*
X29622427Y-111278120D01*
X29589093Y-111344787D01*
D12*
X15214286Y-105052381D02*
X15833334Y-105052381D01*
X15500000Y-105433333D01*
X15642858Y-105433333D01*
X15738096Y-105480952D01*
X15785715Y-105528571D01*
X15833334Y-105623810D01*
X15833334Y-105861905D01*
X15785715Y-105957143D01*
X15738096Y-106004762D01*
X15642858Y-106052381D01*
X15357143Y-106052381D01*
X15261905Y-106004762D01*
X15214286Y-105957143D01*
X16166667Y-105052381D02*
X16785715Y-105052381D01*
X16452381Y-105433333D01*
X16595239Y-105433333D01*
X16690477Y-105480952D01*
X16738096Y-105528571D01*
X16785715Y-105623810D01*
X16785715Y-105861905D01*
X16738096Y-105957143D01*
X16690477Y-106004762D01*
X16595239Y-106052381D01*
X16309524Y-106052381D01*
X16214286Y-106004762D01*
X16166667Y-105957143D01*
X17404762Y-105052381D02*
X17500001Y-105052381D01*
X17595239Y-105100000D01*
X17642858Y-105147619D01*
X17690477Y-105242857D01*
X17738096Y-105433333D01*
X17738096Y-105671429D01*
X17690477Y-105861905D01*
X17642858Y-105957143D01*
X17595239Y-106004762D01*
X17500001Y-106052381D01*
X17404762Y-106052381D01*
X17309524Y-106004762D01*
X17261905Y-105957143D01*
X17214286Y-105861905D01*
X17166667Y-105671429D01*
X17166667Y-105433333D01*
X17214286Y-105242857D01*
X17261905Y-105147619D01*
X17309524Y-105100000D01*
X17404762Y-105052381D01*
D14*
X15955760Y-107834787D02*
X15722426Y-107501453D01*
X15555760Y-107834787D02*
X15555760Y-107134787D01*
X15822426Y-107134787D01*
X15889093Y-107168120D01*
X15922426Y-107201453D01*
X15955760Y-107268120D01*
X15955760Y-107368120D01*
X15922426Y-107434787D01*
X15889093Y-107468120D01*
X15822426Y-107501453D01*
X15555760Y-107501453D01*
X16222426Y-107201453D02*
X16255760Y-107168120D01*
X16322426Y-107134787D01*
X16489093Y-107134787D01*
X16555760Y-107168120D01*
X16589093Y-107201453D01*
X16622426Y-107268120D01*
X16622426Y-107334787D01*
X16589093Y-107434787D01*
X16189093Y-107834787D01*
X16622426Y-107834787D01*
X16855760Y-107134787D02*
X17322427Y-107134787D01*
X17022427Y-107834787D01*
D12*
X6252381Y-59845238D02*
X6252381Y-60416667D01*
X6252381Y-60130953D02*
X5252381Y-60130953D01*
X5395238Y-60226191D01*
X5490476Y-60321429D01*
X5538095Y-60416667D01*
X5252381Y-59226191D02*
X5252381Y-59130952D01*
X5300000Y-59035714D01*
X5347619Y-58988095D01*
X5442857Y-58940476D01*
X5633333Y-58892857D01*
X5871429Y-58892857D01*
X6061905Y-58940476D01*
X6157143Y-58988095D01*
X6204762Y-59035714D01*
X6252381Y-59130952D01*
X6252381Y-59226191D01*
X6204762Y-59321429D01*
X6157143Y-59369048D01*
X6061905Y-59416667D01*
X5871429Y-59464286D01*
X5633333Y-59464286D01*
X5442857Y-59416667D01*
X5347619Y-59369048D01*
X5300000Y-59321429D01*
X5252381Y-59226191D01*
X6252381Y-58464286D02*
X5252381Y-58464286D01*
X5871429Y-58369048D02*
X6252381Y-58083333D01*
X5585714Y-58083333D02*
X5966667Y-58464286D01*
D14*
X8099127Y-59720820D02*
X7765793Y-59954154D01*
X8099127Y-60120820D02*
X7399127Y-60120820D01*
X7399127Y-59854154D01*
X7432460Y-59787487D01*
X7465793Y-59754154D01*
X7532460Y-59720820D01*
X7632460Y-59720820D01*
X7699127Y-59754154D01*
X7732460Y-59787487D01*
X7765793Y-59854154D01*
X7765793Y-60120820D01*
X7465793Y-59454154D02*
X7432460Y-59420820D01*
X7399127Y-59354154D01*
X7399127Y-59187487D01*
X7432460Y-59120820D01*
X7465793Y-59087487D01*
X7532460Y-59054154D01*
X7599127Y-59054154D01*
X7699127Y-59087487D01*
X8099127Y-59487487D01*
X8099127Y-59054154D01*
X7699127Y-58654153D02*
X7665793Y-58720820D01*
X7632460Y-58754153D01*
X7565793Y-58787487D01*
X7532460Y-58787487D01*
X7465793Y-58754153D01*
X7432460Y-58720820D01*
X7399127Y-58654153D01*
X7399127Y-58520820D01*
X7432460Y-58454153D01*
X7465793Y-58420820D01*
X7532460Y-58387487D01*
X7565793Y-58387487D01*
X7632460Y-58420820D01*
X7665793Y-58454153D01*
X7699127Y-58520820D01*
X7699127Y-58654153D01*
X7732460Y-58720820D01*
X7765793Y-58754153D01*
X7832460Y-58787487D01*
X7965793Y-58787487D01*
X8032460Y-58754153D01*
X8065793Y-58720820D01*
X8099127Y-58654153D01*
X8099127Y-58520820D01*
X8065793Y-58454153D01*
X8032460Y-58420820D01*
X7965793Y-58387487D01*
X7832460Y-58387487D01*
X7765793Y-58420820D01*
X7732460Y-58454153D01*
X7699127Y-58520820D01*
D12*
X21202381Y-97895238D02*
X21202381Y-98466667D01*
X21202381Y-98180953D02*
X20202381Y-98180953D01*
X20345238Y-98276191D01*
X20440476Y-98371429D01*
X20488095Y-98466667D01*
X20202381Y-97276191D02*
X20202381Y-97180952D01*
X20250000Y-97085714D01*
X20297619Y-97038095D01*
X20392857Y-96990476D01*
X20583333Y-96942857D01*
X20821429Y-96942857D01*
X21011905Y-96990476D01*
X21107143Y-97038095D01*
X21154762Y-97085714D01*
X21202381Y-97180952D01*
X21202381Y-97276191D01*
X21154762Y-97371429D01*
X21107143Y-97419048D01*
X21011905Y-97466667D01*
X20821429Y-97514286D01*
X20583333Y-97514286D01*
X20392857Y-97466667D01*
X20297619Y-97419048D01*
X20250000Y-97371429D01*
X20202381Y-97276191D01*
X21202381Y-96514286D02*
X20202381Y-96514286D01*
X20821429Y-96419048D02*
X21202381Y-96133333D01*
X20535714Y-96133333D02*
X20916667Y-96514286D01*
D14*
X19262427Y-97808120D02*
X18929093Y-98041454D01*
X19262427Y-98208120D02*
X18562427Y-98208120D01*
X18562427Y-97941454D01*
X18595760Y-97874787D01*
X18629093Y-97841454D01*
X18695760Y-97808120D01*
X18795760Y-97808120D01*
X18862427Y-97841454D01*
X18895760Y-97874787D01*
X18929093Y-97941454D01*
X18929093Y-98208120D01*
X18629093Y-97541454D02*
X18595760Y-97508120D01*
X18562427Y-97441454D01*
X18562427Y-97274787D01*
X18595760Y-97208120D01*
X18629093Y-97174787D01*
X18695760Y-97141454D01*
X18762427Y-97141454D01*
X18862427Y-97174787D01*
X19262427Y-97574787D01*
X19262427Y-97141454D01*
X19262427Y-96808120D02*
X19262427Y-96674787D01*
X19229093Y-96608120D01*
X19195760Y-96574787D01*
X19095760Y-96508120D01*
X18962427Y-96474787D01*
X18695760Y-96474787D01*
X18629093Y-96508120D01*
X18595760Y-96541453D01*
X18562427Y-96608120D01*
X18562427Y-96741453D01*
X18595760Y-96808120D01*
X18629093Y-96841453D01*
X18695760Y-96874787D01*
X18862427Y-96874787D01*
X18929093Y-96841453D01*
X18962427Y-96808120D01*
X18995760Y-96741453D01*
X18995760Y-96608120D01*
X18962427Y-96541453D01*
X18929093Y-96508120D01*
X18862427Y-96474787D01*
D12*
X10080953Y-25602381D02*
X9509524Y-25602381D01*
X9795238Y-25602381D02*
X9795238Y-24602381D01*
X9700000Y-24745238D01*
X9604762Y-24840476D01*
X9509524Y-24888095D01*
X10509524Y-25602381D02*
X10509524Y-24602381D01*
X10604762Y-25221429D02*
X10890477Y-25602381D01*
X10890477Y-24935714D02*
X10509524Y-25316667D01*
D14*
X9714380Y-29654927D02*
X9481046Y-29321593D01*
X9314380Y-29654927D02*
X9314380Y-28954927D01*
X9581046Y-28954927D01*
X9647713Y-28988260D01*
X9681046Y-29021593D01*
X9714380Y-29088260D01*
X9714380Y-29188260D01*
X9681046Y-29254927D01*
X9647713Y-29288260D01*
X9581046Y-29321593D01*
X9314380Y-29321593D01*
X9947713Y-28954927D02*
X10381046Y-28954927D01*
X10147713Y-29221593D01*
X10247713Y-29221593D01*
X10314380Y-29254927D01*
X10347713Y-29288260D01*
X10381046Y-29354927D01*
X10381046Y-29521593D01*
X10347713Y-29588260D01*
X10314380Y-29621593D01*
X10247713Y-29654927D01*
X10047713Y-29654927D01*
X9981046Y-29621593D01*
X9947713Y-29588260D01*
X10814380Y-28954927D02*
X10881047Y-28954927D01*
X10947713Y-28988260D01*
X10981047Y-29021593D01*
X11014380Y-29088260D01*
X11047713Y-29221593D01*
X11047713Y-29388260D01*
X11014380Y-29521593D01*
X10981047Y-29588260D01*
X10947713Y-29621593D01*
X10881047Y-29654927D01*
X10814380Y-29654927D01*
X10747713Y-29621593D01*
X10714380Y-29588260D01*
X10681047Y-29521593D01*
X10647713Y-29388260D01*
X10647713Y-29221593D01*
X10681047Y-29088260D01*
X10714380Y-29021593D01*
X10747713Y-28988260D01*
X10814380Y-28954927D01*
D12*
X44064286Y-109097619D02*
X44111905Y-109050000D01*
X44207143Y-109002381D01*
X44445239Y-109002381D01*
X44540477Y-109050000D01*
X44588096Y-109097619D01*
X44635715Y-109192857D01*
X44635715Y-109288095D01*
X44588096Y-109430952D01*
X44016667Y-110002381D01*
X44635715Y-110002381D01*
D14*
X43895760Y-111644787D02*
X43662426Y-111311453D01*
X43495760Y-111644787D02*
X43495760Y-110944787D01*
X43762426Y-110944787D01*
X43829093Y-110978120D01*
X43862426Y-111011453D01*
X43895760Y-111078120D01*
X43895760Y-111178120D01*
X43862426Y-111244787D01*
X43829093Y-111278120D01*
X43762426Y-111311453D01*
X43495760Y-111311453D01*
X44129093Y-110944787D02*
X44562426Y-110944787D01*
X44329093Y-111211453D01*
X44429093Y-111211453D01*
X44495760Y-111244787D01*
X44529093Y-111278120D01*
X44562426Y-111344787D01*
X44562426Y-111511453D01*
X44529093Y-111578120D01*
X44495760Y-111611453D01*
X44429093Y-111644787D01*
X44229093Y-111644787D01*
X44162426Y-111611453D01*
X44129093Y-111578120D01*
X45229093Y-111644787D02*
X44829093Y-111644787D01*
X45029093Y-111644787D02*
X45029093Y-110944787D01*
X44962427Y-111044787D01*
X44895760Y-111111453D01*
X44829093Y-111144787D01*
D12*
X32900046Y-105020501D02*
X33519094Y-105020501D01*
X33185760Y-105401453D01*
X33328618Y-105401453D01*
X33423856Y-105449072D01*
X33471475Y-105496691D01*
X33519094Y-105591930D01*
X33519094Y-105830025D01*
X33471475Y-105925263D01*
X33423856Y-105972882D01*
X33328618Y-106020501D01*
X33042903Y-106020501D01*
X32947665Y-105972882D01*
X32900046Y-105925263D01*
X33852427Y-105020501D02*
X34471475Y-105020501D01*
X34138141Y-105401453D01*
X34280999Y-105401453D01*
X34376237Y-105449072D01*
X34423856Y-105496691D01*
X34471475Y-105591930D01*
X34471475Y-105830025D01*
X34423856Y-105925263D01*
X34376237Y-105972882D01*
X34280999Y-106020501D01*
X33995284Y-106020501D01*
X33900046Y-105972882D01*
X33852427Y-105925263D01*
X35090522Y-105020501D02*
X35185761Y-105020501D01*
X35280999Y-105068120D01*
X35328618Y-105115739D01*
X35376237Y-105210977D01*
X35423856Y-105401453D01*
X35423856Y-105639549D01*
X35376237Y-105830025D01*
X35328618Y-105925263D01*
X35280999Y-105972882D01*
X35185761Y-106020501D01*
X35090522Y-106020501D01*
X34995284Y-105972882D01*
X34947665Y-105925263D01*
X34900046Y-105830025D01*
X34852427Y-105639549D01*
X34852427Y-105401453D01*
X34900046Y-105210977D01*
X34947665Y-105115739D01*
X34995284Y-105068120D01*
X35090522Y-105020501D01*
D14*
X33735760Y-107834787D02*
X33502426Y-107501453D01*
X33335760Y-107834787D02*
X33335760Y-107134787D01*
X33602426Y-107134787D01*
X33669093Y-107168120D01*
X33702426Y-107201453D01*
X33735760Y-107268120D01*
X33735760Y-107368120D01*
X33702426Y-107434787D01*
X33669093Y-107468120D01*
X33602426Y-107501453D01*
X33335760Y-107501453D01*
X33969093Y-107134787D02*
X34402426Y-107134787D01*
X34169093Y-107401453D01*
X34269093Y-107401453D01*
X34335760Y-107434787D01*
X34369093Y-107468120D01*
X34402426Y-107534787D01*
X34402426Y-107701453D01*
X34369093Y-107768120D01*
X34335760Y-107801453D01*
X34269093Y-107834787D01*
X34069093Y-107834787D01*
X34002426Y-107801453D01*
X33969093Y-107768120D01*
X34669093Y-107201453D02*
X34702427Y-107168120D01*
X34769093Y-107134787D01*
X34935760Y-107134787D01*
X35002427Y-107168120D01*
X35035760Y-107201453D01*
X35069093Y-107268120D01*
X35069093Y-107334787D01*
X35035760Y-107434787D01*
X34635760Y-107834787D01*
X35069093Y-107834787D01*
D12*
X5650522Y-102210501D02*
X5079093Y-102210501D01*
X5364807Y-102210501D02*
X5364807Y-101210501D01*
X5269569Y-101353358D01*
X5174331Y-101448596D01*
X5079093Y-101496215D01*
X6602903Y-102210501D02*
X6031474Y-102210501D01*
X6317188Y-102210501D02*
X6317188Y-101210501D01*
X6221950Y-101353358D01*
X6126712Y-101448596D01*
X6031474Y-101496215D01*
X7031474Y-102210501D02*
X7031474Y-101210501D01*
X7126712Y-101829549D02*
X7412427Y-102210501D01*
X7412427Y-101543834D02*
X7031474Y-101924787D01*
D14*
X5795760Y-104024787D02*
X5562426Y-103691453D01*
X5395760Y-104024787D02*
X5395760Y-103324787D01*
X5662426Y-103324787D01*
X5729093Y-103358120D01*
X5762426Y-103391453D01*
X5795760Y-103458120D01*
X5795760Y-103558120D01*
X5762426Y-103624787D01*
X5729093Y-103658120D01*
X5662426Y-103691453D01*
X5395760Y-103691453D01*
X6029093Y-103324787D02*
X6462426Y-103324787D01*
X6229093Y-103591453D01*
X6329093Y-103591453D01*
X6395760Y-103624787D01*
X6429093Y-103658120D01*
X6462426Y-103724787D01*
X6462426Y-103891453D01*
X6429093Y-103958120D01*
X6395760Y-103991453D01*
X6329093Y-104024787D01*
X6129093Y-104024787D01*
X6062426Y-103991453D01*
X6029093Y-103958120D01*
X6695760Y-103324787D02*
X7129093Y-103324787D01*
X6895760Y-103591453D01*
X6995760Y-103591453D01*
X7062427Y-103624787D01*
X7095760Y-103658120D01*
X7129093Y-103724787D01*
X7129093Y-103891453D01*
X7095760Y-103958120D01*
X7062427Y-103991453D01*
X6995760Y-104024787D01*
X6795760Y-104024787D01*
X6729093Y-103991453D01*
X6695760Y-103958120D01*
D12*
X38659524Y-94902381D02*
X38469047Y-94902381D01*
X38373809Y-94950000D01*
X38326190Y-94997619D01*
X38230952Y-95140476D01*
X38183333Y-95330952D01*
X38183333Y-95711905D01*
X38230952Y-95807143D01*
X38278571Y-95854762D01*
X38373809Y-95902381D01*
X38564286Y-95902381D01*
X38659524Y-95854762D01*
X38707143Y-95807143D01*
X38754762Y-95711905D01*
X38754762Y-95473810D01*
X38707143Y-95378571D01*
X38659524Y-95330952D01*
X38564286Y-95283333D01*
X38373809Y-95283333D01*
X38278571Y-95330952D01*
X38230952Y-95378571D01*
X38183333Y-95473810D01*
X39135714Y-94997619D02*
X39183333Y-94950000D01*
X39278571Y-94902381D01*
X39516667Y-94902381D01*
X39611905Y-94950000D01*
X39659524Y-94997619D01*
X39707143Y-95092857D01*
X39707143Y-95188095D01*
X39659524Y-95330952D01*
X39088095Y-95902381D01*
X39707143Y-95902381D01*
X40135714Y-95902381D02*
X40135714Y-94902381D01*
X40230952Y-95521429D02*
X40516667Y-95902381D01*
X40516667Y-95235714D02*
X40135714Y-95616667D01*
D14*
X38815760Y-97674787D02*
X38582426Y-97341453D01*
X38415760Y-97674787D02*
X38415760Y-96974787D01*
X38682426Y-96974787D01*
X38749093Y-97008120D01*
X38782426Y-97041453D01*
X38815760Y-97108120D01*
X38815760Y-97208120D01*
X38782426Y-97274787D01*
X38749093Y-97308120D01*
X38682426Y-97341453D01*
X38415760Y-97341453D01*
X39049093Y-96974787D02*
X39482426Y-96974787D01*
X39249093Y-97241453D01*
X39349093Y-97241453D01*
X39415760Y-97274787D01*
X39449093Y-97308120D01*
X39482426Y-97374787D01*
X39482426Y-97541453D01*
X39449093Y-97608120D01*
X39415760Y-97641453D01*
X39349093Y-97674787D01*
X39149093Y-97674787D01*
X39082426Y-97641453D01*
X39049093Y-97608120D01*
X40082427Y-97208120D02*
X40082427Y-97674787D01*
X39915760Y-96941453D02*
X39749093Y-97441453D01*
X40182427Y-97441453D01*
D12*
X32864286Y-94952381D02*
X33483334Y-94952381D01*
X33150000Y-95333333D01*
X33292858Y-95333333D01*
X33388096Y-95380952D01*
X33435715Y-95428571D01*
X33483334Y-95523810D01*
X33483334Y-95761905D01*
X33435715Y-95857143D01*
X33388096Y-95904762D01*
X33292858Y-95952381D01*
X33007143Y-95952381D01*
X32911905Y-95904762D01*
X32864286Y-95857143D01*
X33816667Y-94952381D02*
X34435715Y-94952381D01*
X34102381Y-95333333D01*
X34245239Y-95333333D01*
X34340477Y-95380952D01*
X34388096Y-95428571D01*
X34435715Y-95523810D01*
X34435715Y-95761905D01*
X34388096Y-95857143D01*
X34340477Y-95904762D01*
X34245239Y-95952381D01*
X33959524Y-95952381D01*
X33864286Y-95904762D01*
X33816667Y-95857143D01*
X35054762Y-94952381D02*
X35150001Y-94952381D01*
X35245239Y-95000000D01*
X35292858Y-95047619D01*
X35340477Y-95142857D01*
X35388096Y-95333333D01*
X35388096Y-95571429D01*
X35340477Y-95761905D01*
X35292858Y-95857143D01*
X35245239Y-95904762D01*
X35150001Y-95952381D01*
X35054762Y-95952381D01*
X34959524Y-95904762D01*
X34911905Y-95857143D01*
X34864286Y-95761905D01*
X34816667Y-95571429D01*
X34816667Y-95333333D01*
X34864286Y-95142857D01*
X34911905Y-95047619D01*
X34959524Y-95000000D01*
X35054762Y-94952381D01*
D14*
X33735760Y-97674787D02*
X33502426Y-97341453D01*
X33335760Y-97674787D02*
X33335760Y-96974787D01*
X33602426Y-96974787D01*
X33669093Y-97008120D01*
X33702426Y-97041453D01*
X33735760Y-97108120D01*
X33735760Y-97208120D01*
X33702426Y-97274787D01*
X33669093Y-97308120D01*
X33602426Y-97341453D01*
X33335760Y-97341453D01*
X33969093Y-96974787D02*
X34402426Y-96974787D01*
X34169093Y-97241453D01*
X34269093Y-97241453D01*
X34335760Y-97274787D01*
X34369093Y-97308120D01*
X34402426Y-97374787D01*
X34402426Y-97541453D01*
X34369093Y-97608120D01*
X34335760Y-97641453D01*
X34269093Y-97674787D01*
X34069093Y-97674787D01*
X34002426Y-97641453D01*
X33969093Y-97608120D01*
X35035760Y-96974787D02*
X34702427Y-96974787D01*
X34669093Y-97308120D01*
X34702427Y-97274787D01*
X34769093Y-97241453D01*
X34935760Y-97241453D01*
X35002427Y-97274787D01*
X35035760Y-97308120D01*
X35069093Y-97374787D01*
X35069093Y-97541453D01*
X35035760Y-97608120D01*
X35002427Y-97641453D01*
X34935760Y-97674787D01*
X34769093Y-97674787D01*
X34702427Y-97641453D01*
X34669093Y-97608120D01*
D12*
X43704762Y-99702381D02*
X43133333Y-99702381D01*
X43419047Y-99702381D02*
X43419047Y-98702381D01*
X43323809Y-98845238D01*
X43228571Y-98940476D01*
X43133333Y-98988095D01*
X44657143Y-99702381D02*
X44085714Y-99702381D01*
X44371428Y-99702381D02*
X44371428Y-98702381D01*
X44276190Y-98845238D01*
X44180952Y-98940476D01*
X44085714Y-98988095D01*
X45085714Y-99702381D02*
X45085714Y-98702381D01*
X45180952Y-99321429D02*
X45466667Y-99702381D01*
X45466667Y-99035714D02*
X45085714Y-99416667D01*
D14*
X43895760Y-101484787D02*
X43662426Y-101151453D01*
X43495760Y-101484787D02*
X43495760Y-100784787D01*
X43762426Y-100784787D01*
X43829093Y-100818120D01*
X43862426Y-100851453D01*
X43895760Y-100918120D01*
X43895760Y-101018120D01*
X43862426Y-101084787D01*
X43829093Y-101118120D01*
X43762426Y-101151453D01*
X43495760Y-101151453D01*
X44129093Y-100784787D02*
X44562426Y-100784787D01*
X44329093Y-101051453D01*
X44429093Y-101051453D01*
X44495760Y-101084787D01*
X44529093Y-101118120D01*
X44562426Y-101184787D01*
X44562426Y-101351453D01*
X44529093Y-101418120D01*
X44495760Y-101451453D01*
X44429093Y-101484787D01*
X44229093Y-101484787D01*
X44162426Y-101451453D01*
X44129093Y-101418120D01*
X45162427Y-100784787D02*
X45029093Y-100784787D01*
X44962427Y-100818120D01*
X44929093Y-100851453D01*
X44862427Y-100951453D01*
X44829093Y-101084787D01*
X44829093Y-101351453D01*
X44862427Y-101418120D01*
X44895760Y-101451453D01*
X44962427Y-101484787D01*
X45095760Y-101484787D01*
X45162427Y-101451453D01*
X45195760Y-101418120D01*
X45229093Y-101351453D01*
X45229093Y-101184787D01*
X45195760Y-101118120D01*
X45162427Y-101084787D01*
X45095760Y-101051453D01*
X44962427Y-101051453D01*
X44895760Y-101084787D01*
X44862427Y-101118120D01*
X44829093Y-101184787D01*
D12*
X20904762Y-109952381D02*
X20333333Y-109952381D01*
X20619047Y-109952381D02*
X20619047Y-108952381D01*
X20523809Y-109095238D01*
X20428571Y-109190476D01*
X20333333Y-109238095D01*
X21523809Y-108952381D02*
X21619048Y-108952381D01*
X21714286Y-109000000D01*
X21761905Y-109047619D01*
X21809524Y-109142857D01*
X21857143Y-109333333D01*
X21857143Y-109571429D01*
X21809524Y-109761905D01*
X21761905Y-109857143D01*
X21714286Y-109904762D01*
X21619048Y-109952381D01*
X21523809Y-109952381D01*
X21428571Y-109904762D01*
X21380952Y-109857143D01*
X21333333Y-109761905D01*
X21285714Y-109571429D01*
X21285714Y-109333333D01*
X21333333Y-109142857D01*
X21380952Y-109047619D01*
X21428571Y-109000000D01*
X21523809Y-108952381D01*
X22285714Y-109952381D02*
X22285714Y-108952381D01*
X22380952Y-109571429D02*
X22666667Y-109952381D01*
X22666667Y-109285714D02*
X22285714Y-109666667D01*
D14*
X21035760Y-111644787D02*
X20802426Y-111311453D01*
X20635760Y-111644787D02*
X20635760Y-110944787D01*
X20902426Y-110944787D01*
X20969093Y-110978120D01*
X21002426Y-111011453D01*
X21035760Y-111078120D01*
X21035760Y-111178120D01*
X21002426Y-111244787D01*
X20969093Y-111278120D01*
X20902426Y-111311453D01*
X20635760Y-111311453D01*
X21269093Y-110944787D02*
X21702426Y-110944787D01*
X21469093Y-111211453D01*
X21569093Y-111211453D01*
X21635760Y-111244787D01*
X21669093Y-111278120D01*
X21702426Y-111344787D01*
X21702426Y-111511453D01*
X21669093Y-111578120D01*
X21635760Y-111611453D01*
X21569093Y-111644787D01*
X21369093Y-111644787D01*
X21302426Y-111611453D01*
X21269093Y-111578120D01*
X21935760Y-110944787D02*
X22402427Y-110944787D01*
X22102427Y-111644787D01*
D12*
X28654762Y-92152381D02*
X28083333Y-92152381D01*
X28369047Y-92152381D02*
X28369047Y-91152381D01*
X28273809Y-91295238D01*
X28178571Y-91390476D01*
X28083333Y-91438095D01*
X29273809Y-91152381D02*
X29369048Y-91152381D01*
X29464286Y-91200000D01*
X29511905Y-91247619D01*
X29559524Y-91342857D01*
X29607143Y-91533333D01*
X29607143Y-91771429D01*
X29559524Y-91961905D01*
X29511905Y-92057143D01*
X29464286Y-92104762D01*
X29369048Y-92152381D01*
X29273809Y-92152381D01*
X29178571Y-92104762D01*
X29130952Y-92057143D01*
X29083333Y-91961905D01*
X29035714Y-91771429D01*
X29035714Y-91533333D01*
X29083333Y-91342857D01*
X29130952Y-91247619D01*
X29178571Y-91200000D01*
X29273809Y-91152381D01*
X30035714Y-92152381D02*
X30035714Y-91152381D01*
X30130952Y-91771429D02*
X30416667Y-92152381D01*
X30416667Y-91485714D02*
X30035714Y-91866667D01*
D14*
X28655760Y-93864787D02*
X28422426Y-93531453D01*
X28255760Y-93864787D02*
X28255760Y-93164787D01*
X28522426Y-93164787D01*
X28589093Y-93198120D01*
X28622426Y-93231453D01*
X28655760Y-93298120D01*
X28655760Y-93398120D01*
X28622426Y-93464787D01*
X28589093Y-93498120D01*
X28522426Y-93531453D01*
X28255760Y-93531453D01*
X28889093Y-93164787D02*
X29322426Y-93164787D01*
X29089093Y-93431453D01*
X29189093Y-93431453D01*
X29255760Y-93464787D01*
X29289093Y-93498120D01*
X29322426Y-93564787D01*
X29322426Y-93731453D01*
X29289093Y-93798120D01*
X29255760Y-93831453D01*
X29189093Y-93864787D01*
X28989093Y-93864787D01*
X28922426Y-93831453D01*
X28889093Y-93798120D01*
X29722427Y-93464787D02*
X29655760Y-93431453D01*
X29622427Y-93398120D01*
X29589093Y-93331453D01*
X29589093Y-93298120D01*
X29622427Y-93231453D01*
X29655760Y-93198120D01*
X29722427Y-93164787D01*
X29855760Y-93164787D01*
X29922427Y-93198120D01*
X29955760Y-93231453D01*
X29989093Y-93298120D01*
X29989093Y-93331453D01*
X29955760Y-93398120D01*
X29922427Y-93431453D01*
X29855760Y-93464787D01*
X29722427Y-93464787D01*
X29655760Y-93498120D01*
X29622427Y-93531453D01*
X29589093Y-93598120D01*
X29589093Y-93731453D01*
X29622427Y-93798120D01*
X29655760Y-93831453D01*
X29722427Y-93864787D01*
X29855760Y-93864787D01*
X29922427Y-93831453D01*
X29955760Y-93798120D01*
X29989093Y-93731453D01*
X29989093Y-93598120D01*
X29955760Y-93531453D01*
X29922427Y-93498120D01*
X29855760Y-93464787D01*
D12*
X23605284Y-108265501D02*
X23129093Y-108265501D01*
X23129093Y-107265501D01*
X23938617Y-108265501D02*
X23938617Y-107265501D01*
X24271951Y-107979787D01*
X24605284Y-107265501D01*
X24605284Y-108265501D01*
X24986236Y-107265501D02*
X25605284Y-107265501D01*
X25271950Y-107646453D01*
X25414808Y-107646453D01*
X25510046Y-107694072D01*
X25557665Y-107741691D01*
X25605284Y-107836930D01*
X25605284Y-108075025D01*
X25557665Y-108170263D01*
X25510046Y-108217882D01*
X25414808Y-108265501D01*
X25129093Y-108265501D01*
X25033855Y-108217882D01*
X24986236Y-108170263D01*
X25986236Y-107360739D02*
X26033855Y-107313120D01*
X26129093Y-107265501D01*
X26367189Y-107265501D01*
X26462427Y-107313120D01*
X26510046Y-107360739D01*
X26557665Y-107455977D01*
X26557665Y-107551215D01*
X26510046Y-107694072D01*
X25938617Y-108265501D01*
X26557665Y-108265501D01*
X27414808Y-107598834D02*
X27414808Y-108265501D01*
X27176712Y-107217882D02*
X26938617Y-107932168D01*
X27557665Y-107932168D01*
D15*
X24610046Y-101945263D02*
X24610046Y-102673834D01*
X24652903Y-102759549D01*
X24695760Y-102802406D01*
X24781474Y-102845263D01*
X24952903Y-102845263D01*
X25038617Y-102802406D01*
X25081474Y-102759549D01*
X25124331Y-102673834D01*
X25124331Y-101945263D01*
X25510046Y-102030977D02*
X25552903Y-101988120D01*
X25638617Y-101945263D01*
X25852903Y-101945263D01*
X25938617Y-101988120D01*
X25981474Y-102030977D01*
X26024331Y-102116691D01*
X26024331Y-102202406D01*
X25981474Y-102330977D01*
X25467188Y-102845263D01*
X26024331Y-102845263D01*
D12*
X50683333Y-112402381D02*
X51254762Y-112402381D01*
X50969047Y-113402381D02*
X50969047Y-112402381D01*
X51540476Y-113354762D02*
X51683333Y-113402381D01*
X51921429Y-113402381D01*
X52016667Y-113354762D01*
X52064286Y-113307143D01*
X52111905Y-113211905D01*
X52111905Y-113116667D01*
X52064286Y-113021429D01*
X52016667Y-112973810D01*
X51921429Y-112926190D01*
X51730952Y-112878571D01*
X51635714Y-112830952D01*
X51588095Y-112783333D01*
X51540476Y-112688095D01*
X51540476Y-112592857D01*
X51588095Y-112497619D01*
X51635714Y-112450000D01*
X51730952Y-112402381D01*
X51969048Y-112402381D01*
X52111905Y-112450000D01*
X52445238Y-112402381D02*
X53111905Y-112402381D01*
X52683333Y-113402381D01*
X53635714Y-112830952D02*
X53540476Y-112783333D01*
X53492857Y-112735714D01*
X53445238Y-112640476D01*
X53445238Y-112592857D01*
X53492857Y-112497619D01*
X53540476Y-112450000D01*
X53635714Y-112402381D01*
X53826191Y-112402381D01*
X53921429Y-112450000D01*
X53969048Y-112497619D01*
X54016667Y-112592857D01*
X54016667Y-112640476D01*
X53969048Y-112735714D01*
X53921429Y-112783333D01*
X53826191Y-112830952D01*
X53635714Y-112830952D01*
X53540476Y-112878571D01*
X53492857Y-112926190D01*
X53445238Y-113021429D01*
X53445238Y-113211905D01*
X53492857Y-113307143D01*
X53540476Y-113354762D01*
X53635714Y-113402381D01*
X53826191Y-113402381D01*
X53921429Y-113354762D01*
X53969048Y-113307143D01*
X54016667Y-113211905D01*
X54016667Y-113021429D01*
X53969048Y-112926190D01*
X53921429Y-112878571D01*
X53826191Y-112830952D01*
X54969048Y-113402381D02*
X54397619Y-113402381D01*
X54683333Y-113402381D02*
X54683333Y-112402381D01*
X54588095Y-112545238D01*
X54492857Y-112640476D01*
X54397619Y-112688095D01*
X55350000Y-112497619D02*
X55397619Y-112450000D01*
X55492857Y-112402381D01*
X55730953Y-112402381D01*
X55826191Y-112450000D01*
X55873810Y-112497619D01*
X55921429Y-112592857D01*
X55921429Y-112688095D01*
X55873810Y-112830952D01*
X55302381Y-113402381D01*
X55921429Y-113402381D01*
X52473855Y-105890501D02*
X52473855Y-106700025D01*
X52521474Y-106795263D01*
X52569093Y-106842882D01*
X52664331Y-106890501D01*
X52854808Y-106890501D01*
X52950046Y-106842882D01*
X52997665Y-106795263D01*
X53045284Y-106700025D01*
X53045284Y-105890501D01*
X53997665Y-105890501D02*
X53521474Y-105890501D01*
X53473855Y-106366691D01*
X53521474Y-106319072D01*
X53616712Y-106271453D01*
X53854808Y-106271453D01*
X53950046Y-106319072D01*
X53997665Y-106366691D01*
X54045284Y-106461930D01*
X54045284Y-106700025D01*
X53997665Y-106795263D01*
X53950046Y-106842882D01*
X53854808Y-106890501D01*
X53616712Y-106890501D01*
X53521474Y-106842882D01*
X53473855Y-106795263D01*
X66854762Y-113452381D02*
X66378571Y-113452381D01*
X66378571Y-112452381D01*
X67092857Y-112452381D02*
X67759524Y-112452381D01*
X67330952Y-113452381D01*
X68283333Y-112880952D02*
X68188095Y-112833333D01*
X68140476Y-112785714D01*
X68092857Y-112690476D01*
X68092857Y-112642857D01*
X68140476Y-112547619D01*
X68188095Y-112500000D01*
X68283333Y-112452381D01*
X68473810Y-112452381D01*
X68569048Y-112500000D01*
X68616667Y-112547619D01*
X68664286Y-112642857D01*
X68664286Y-112690476D01*
X68616667Y-112785714D01*
X68569048Y-112833333D01*
X68473810Y-112880952D01*
X68283333Y-112880952D01*
X68188095Y-112928571D01*
X68140476Y-112976190D01*
X68092857Y-113071429D01*
X68092857Y-113261905D01*
X68140476Y-113357143D01*
X68188095Y-113404762D01*
X68283333Y-113452381D01*
X68473810Y-113452381D01*
X68569048Y-113404762D01*
X68616667Y-113357143D01*
X68664286Y-113261905D01*
X68664286Y-113071429D01*
X68616667Y-112976190D01*
X68569048Y-112928571D01*
X68473810Y-112880952D01*
X69283333Y-112452381D02*
X69378572Y-112452381D01*
X69473810Y-112500000D01*
X69521429Y-112547619D01*
X69569048Y-112642857D01*
X69616667Y-112833333D01*
X69616667Y-113071429D01*
X69569048Y-113261905D01*
X69521429Y-113357143D01*
X69473810Y-113404762D01*
X69378572Y-113452381D01*
X69283333Y-113452381D01*
X69188095Y-113404762D01*
X69140476Y-113357143D01*
X69092857Y-113261905D01*
X69045238Y-113071429D01*
X69045238Y-112833333D01*
X69092857Y-112642857D01*
X69140476Y-112547619D01*
X69188095Y-112500000D01*
X69283333Y-112452381D01*
X70521429Y-112452381D02*
X70045238Y-112452381D01*
X69997619Y-112928571D01*
X70045238Y-112880952D01*
X70140476Y-112833333D01*
X70378572Y-112833333D01*
X70473810Y-112880952D01*
X70521429Y-112928571D01*
X70569048Y-113023810D01*
X70569048Y-113261905D01*
X70521429Y-113357143D01*
X70473810Y-113404762D01*
X70378572Y-113452381D01*
X70140476Y-113452381D01*
X70045238Y-113404762D01*
X69997619Y-113357143D01*
X67713855Y-105890501D02*
X67713855Y-106700025D01*
X67761474Y-106795263D01*
X67809093Y-106842882D01*
X67904331Y-106890501D01*
X68094808Y-106890501D01*
X68190046Y-106842882D01*
X68237665Y-106795263D01*
X68285284Y-106700025D01*
X68285284Y-105890501D01*
X69190046Y-106223834D02*
X69190046Y-106890501D01*
X68951950Y-105842882D02*
X68713855Y-106557168D01*
X69332903Y-106557168D01*
X804761Y-118402381D02*
X804761Y-117402381D01*
X1138095Y-118116667D01*
X1471428Y-117402381D01*
X1471428Y-118402381D01*
X2090475Y-118402381D02*
X1995237Y-118354762D01*
X1947618Y-118307143D01*
X1899999Y-118211905D01*
X1899999Y-117926190D01*
X1947618Y-117830952D01*
X1995237Y-117783333D01*
X2090475Y-117735714D01*
X2233333Y-117735714D01*
X2328571Y-117783333D01*
X2376190Y-117830952D01*
X2423809Y-117926190D01*
X2423809Y-118211905D01*
X2376190Y-118307143D01*
X2328571Y-118354762D01*
X2233333Y-118402381D01*
X2090475Y-118402381D01*
X3280952Y-117735714D02*
X3280952Y-118402381D01*
X2852380Y-117735714D02*
X2852380Y-118259524D01*
X2899999Y-118354762D01*
X2995237Y-118402381D01*
X3138095Y-118402381D01*
X3233333Y-118354762D01*
X3280952Y-118307143D01*
X3757142Y-117735714D02*
X3757142Y-118402381D01*
X3757142Y-117830952D02*
X3804761Y-117783333D01*
X3899999Y-117735714D01*
X4042857Y-117735714D01*
X4138095Y-117783333D01*
X4185714Y-117878571D01*
X4185714Y-118402381D01*
X4519047Y-117735714D02*
X4899999Y-117735714D01*
X4661904Y-117402381D02*
X4661904Y-118259524D01*
X4709523Y-118354762D01*
X4804761Y-118402381D01*
X4899999Y-118402381D01*
X5233333Y-118402381D02*
X5233333Y-117735714D01*
X5233333Y-117402381D02*
X5185714Y-117450000D01*
X5233333Y-117497619D01*
X5280952Y-117450000D01*
X5233333Y-117402381D01*
X5233333Y-117497619D01*
X5709523Y-117735714D02*
X5709523Y-118402381D01*
X5709523Y-117830952D02*
X5757142Y-117783333D01*
X5852380Y-117735714D01*
X5995238Y-117735714D01*
X6090476Y-117783333D01*
X6138095Y-117878571D01*
X6138095Y-118402381D01*
X7042857Y-117735714D02*
X7042857Y-118545238D01*
X6995238Y-118640476D01*
X6947619Y-118688095D01*
X6852380Y-118735714D01*
X6709523Y-118735714D01*
X6614285Y-118688095D01*
X7042857Y-118354762D02*
X6947619Y-118402381D01*
X6757142Y-118402381D01*
X6661904Y-118354762D01*
X6614285Y-118307143D01*
X6566666Y-118211905D01*
X6566666Y-117926190D01*
X6614285Y-117830952D01*
X6661904Y-117783333D01*
X6757142Y-117735714D01*
X6947619Y-117735714D01*
X7042857Y-117783333D01*
X8280952Y-118402381D02*
X8280952Y-117402381D01*
X8709524Y-118402381D02*
X8709524Y-117878571D01*
X8661905Y-117783333D01*
X8566667Y-117735714D01*
X8423809Y-117735714D01*
X8328571Y-117783333D01*
X8280952Y-117830952D01*
X9328571Y-118402381D02*
X9233333Y-118354762D01*
X9185714Y-118307143D01*
X9138095Y-118211905D01*
X9138095Y-117926190D01*
X9185714Y-117830952D01*
X9233333Y-117783333D01*
X9328571Y-117735714D01*
X9471429Y-117735714D01*
X9566667Y-117783333D01*
X9614286Y-117830952D01*
X9661905Y-117926190D01*
X9661905Y-118211905D01*
X9614286Y-118307143D01*
X9566667Y-118354762D01*
X9471429Y-118402381D01*
X9328571Y-118402381D01*
X10233333Y-118402381D02*
X10138095Y-118354762D01*
X10090476Y-118259524D01*
X10090476Y-117402381D01*
X10995239Y-118354762D02*
X10900001Y-118402381D01*
X10709524Y-118402381D01*
X10614286Y-118354762D01*
X10566667Y-118259524D01*
X10566667Y-117878571D01*
X10614286Y-117783333D01*
X10709524Y-117735714D01*
X10900001Y-117735714D01*
X10995239Y-117783333D01*
X11042858Y-117878571D01*
X11042858Y-117973810D01*
X10566667Y-118069048D01*
X3966667Y-123052381D02*
X3633333Y-122576190D01*
X3395238Y-123052381D02*
X3395238Y-122052381D01*
X3776191Y-122052381D01*
X3871429Y-122100000D01*
X3919048Y-122147619D01*
X3966667Y-122242857D01*
X3966667Y-122385714D01*
X3919048Y-122480952D01*
X3871429Y-122528571D01*
X3776191Y-122576190D01*
X3395238Y-122576190D01*
X4395238Y-122528571D02*
X4728572Y-122528571D01*
X4871429Y-123052381D02*
X4395238Y-123052381D01*
X4395238Y-122052381D01*
X4871429Y-122052381D01*
X5633334Y-122528571D02*
X5300000Y-122528571D01*
X5300000Y-123052381D02*
X5300000Y-122052381D01*
X5776191Y-122052381D01*
X6300000Y-122052381D02*
X6300000Y-122290476D01*
X6061905Y-122195238D02*
X6300000Y-122290476D01*
X6538096Y-122195238D01*
X6157143Y-122480952D02*
X6300000Y-122290476D01*
X6442858Y-122480952D01*
X7061905Y-122052381D02*
X7061905Y-122290476D01*
X6823810Y-122195238D02*
X7061905Y-122290476D01*
X7300001Y-122195238D01*
X6919048Y-122480952D02*
X7061905Y-122290476D01*
X7204763Y-122480952D01*
X8552902Y-4550501D02*
X8552902Y-3550501D01*
X8790997Y-3550501D01*
X8933855Y-3598120D01*
X9029093Y-3693358D01*
X9076712Y-3788596D01*
X9124331Y-3979072D01*
X9124331Y-4121930D01*
X9076712Y-4312406D01*
X9029093Y-4407644D01*
X8933855Y-4502882D01*
X8790997Y-4550501D01*
X8552902Y-4550501D01*
X9886236Y-4026691D02*
X10029093Y-4074310D01*
X10076712Y-4121930D01*
X10124331Y-4217168D01*
X10124331Y-4360025D01*
X10076712Y-4455263D01*
X10029093Y-4502882D01*
X9933855Y-4550501D01*
X9552902Y-4550501D01*
X9552902Y-3550501D01*
X9886236Y-3550501D01*
X9981474Y-3598120D01*
X10029093Y-3645739D01*
X10076712Y-3740977D01*
X10076712Y-3836215D01*
X10029093Y-3931453D01*
X9981474Y-3979072D01*
X9886236Y-4026691D01*
X9552902Y-4026691D01*
X10600521Y-4550501D02*
X10790997Y-4550501D01*
X10886236Y-4502882D01*
X10933855Y-4455263D01*
X11029093Y-4312406D01*
X11076712Y-4121930D01*
X11076712Y-3740977D01*
X11029093Y-3645739D01*
X10981474Y-3598120D01*
X10886236Y-3550501D01*
X10695759Y-3550501D01*
X10600521Y-3598120D01*
X10552902Y-3645739D01*
X10505283Y-3740977D01*
X10505283Y-3979072D01*
X10552902Y-4074310D01*
X10600521Y-4121930D01*
X10695759Y-4169549D01*
X10886236Y-4169549D01*
X10981474Y-4121930D01*
X11029093Y-4074310D01*
X11076712Y-3979072D01*
X11267188Y-4645739D02*
X12029093Y-4645739D01*
X12267188Y-4550501D02*
X12267188Y-3550501D01*
X12600522Y-4264787D01*
X12933855Y-3550501D01*
X12933855Y-4550501D01*
X13838617Y-4550501D02*
X13838617Y-4026691D01*
X13790998Y-3931453D01*
X13695760Y-3883834D01*
X13505283Y-3883834D01*
X13410045Y-3931453D01*
X13838617Y-4502882D02*
X13743379Y-4550501D01*
X13505283Y-4550501D01*
X13410045Y-4502882D01*
X13362426Y-4407644D01*
X13362426Y-4312406D01*
X13410045Y-4217168D01*
X13505283Y-4169549D01*
X13743379Y-4169549D01*
X13838617Y-4121930D01*
X14457664Y-4550501D02*
X14362426Y-4502882D01*
X14314807Y-4407644D01*
X14314807Y-3550501D01*
X15219570Y-4502882D02*
X15124332Y-4550501D01*
X14933855Y-4550501D01*
X14838617Y-4502882D01*
X14790998Y-4407644D01*
X14790998Y-4026691D01*
X14838617Y-3931453D01*
X14933855Y-3883834D01*
X15124332Y-3883834D01*
X15219570Y-3931453D01*
X15267189Y-4026691D01*
X15267189Y-4121930D01*
X14790998Y-4217168D01*
X15457665Y-4645739D02*
X16219570Y-4645739D01*
X16457665Y-4550501D02*
X16457665Y-3550501D01*
X16790999Y-4264787D01*
X17124332Y-3550501D01*
X17124332Y-4550501D01*
X17743379Y-4550501D02*
X17648141Y-4502882D01*
X17600522Y-4455263D01*
X17552903Y-4360025D01*
X17552903Y-4074310D01*
X17600522Y-3979072D01*
X17648141Y-3931453D01*
X17743379Y-3883834D01*
X17886237Y-3883834D01*
X17981475Y-3931453D01*
X18029094Y-3979072D01*
X18076713Y-4074310D01*
X18076713Y-4360025D01*
X18029094Y-4455263D01*
X17981475Y-4502882D01*
X17886237Y-4550501D01*
X17743379Y-4550501D01*
X18933856Y-3883834D02*
X18933856Y-4550501D01*
X18505284Y-3883834D02*
X18505284Y-4407644D01*
X18552903Y-4502882D01*
X18648141Y-4550501D01*
X18790999Y-4550501D01*
X18886237Y-4502882D01*
X18933856Y-4455263D01*
X19410046Y-3883834D02*
X19410046Y-4550501D01*
X19410046Y-3979072D02*
X19457665Y-3931453D01*
X19552903Y-3883834D01*
X19695761Y-3883834D01*
X19790999Y-3931453D01*
X19838618Y-4026691D01*
X19838618Y-4550501D01*
X20171951Y-3883834D02*
X20552903Y-3883834D01*
X20314808Y-3550501D02*
X20314808Y-4407644D01*
X20362427Y-4502882D01*
X20457665Y-4550501D01*
X20552903Y-4550501D01*
X20886237Y-4550501D02*
X20886237Y-3883834D01*
X20886237Y-3550501D02*
X20838618Y-3598120D01*
X20886237Y-3645739D01*
X20933856Y-3598120D01*
X20886237Y-3550501D01*
X20886237Y-3645739D01*
X21362427Y-3883834D02*
X21362427Y-4550501D01*
X21362427Y-3979072D02*
X21410046Y-3931453D01*
X21505284Y-3883834D01*
X21648142Y-3883834D01*
X21743380Y-3931453D01*
X21790999Y-4026691D01*
X21790999Y-4550501D01*
X22695761Y-3883834D02*
X22695761Y-4693358D01*
X22648142Y-4788596D01*
X22600523Y-4836215D01*
X22505284Y-4883834D01*
X22362427Y-4883834D01*
X22267189Y-4836215D01*
X22695761Y-4502882D02*
X22600523Y-4550501D01*
X22410046Y-4550501D01*
X22314808Y-4502882D01*
X22267189Y-4455263D01*
X22219570Y-4360025D01*
X22219570Y-4074310D01*
X22267189Y-3979072D01*
X22314808Y-3931453D01*
X22410046Y-3883834D01*
X22600523Y-3883834D01*
X22695761Y-3931453D01*
X23171951Y-4550501D02*
X23171951Y-3550501D01*
X23171951Y-4026691D02*
X23743380Y-4026691D01*
X23743380Y-4550501D02*
X23743380Y-3550501D01*
X24362427Y-4550501D02*
X24267189Y-4502882D01*
X24219570Y-4455263D01*
X24171951Y-4360025D01*
X24171951Y-4074310D01*
X24219570Y-3979072D01*
X24267189Y-3931453D01*
X24362427Y-3883834D01*
X24505285Y-3883834D01*
X24600523Y-3931453D01*
X24648142Y-3979072D01*
X24695761Y-4074310D01*
X24695761Y-4360025D01*
X24648142Y-4455263D01*
X24600523Y-4502882D01*
X24505285Y-4550501D01*
X24362427Y-4550501D01*
X25267189Y-4550501D02*
X25171951Y-4502882D01*
X25124332Y-4407644D01*
X25124332Y-3550501D01*
X26029095Y-4502882D02*
X25933857Y-4550501D01*
X25743380Y-4550501D01*
X25648142Y-4502882D01*
X25600523Y-4407644D01*
X25600523Y-4026691D01*
X25648142Y-3931453D01*
X25743380Y-3883834D01*
X25933857Y-3883834D01*
X26029095Y-3931453D01*
X26076714Y-4026691D01*
X26076714Y-4121930D01*
X25600523Y-4217168D01*
X26457666Y-4502882D02*
X26552904Y-4550501D01*
X26743380Y-4550501D01*
X26838619Y-4502882D01*
X26886238Y-4407644D01*
X26886238Y-4360025D01*
X26838619Y-4264787D01*
X26743380Y-4217168D01*
X26600523Y-4217168D01*
X26505285Y-4169549D01*
X26457666Y-4074310D01*
X26457666Y-4026691D01*
X26505285Y-3931453D01*
X26600523Y-3883834D01*
X26743380Y-3883834D01*
X26838619Y-3931453D01*
X18978572Y-61502381D02*
X18978572Y-60502381D01*
X19311906Y-61216667D01*
X19645239Y-60502381D01*
X19645239Y-61502381D01*
X20121429Y-61502381D02*
X20121429Y-60502381D01*
X21169048Y-61407143D02*
X21121429Y-61454762D01*
X20978572Y-61502381D01*
X20883334Y-61502381D01*
X20740476Y-61454762D01*
X20645238Y-61359524D01*
X20597619Y-61264286D01*
X20550000Y-61073810D01*
X20550000Y-60930952D01*
X20597619Y-60740476D01*
X20645238Y-60645238D01*
X20740476Y-60550000D01*
X20883334Y-60502381D01*
X20978572Y-60502381D01*
X21121429Y-60550000D01*
X21169048Y-60597619D01*
X22073810Y-60502381D02*
X21597619Y-60502381D01*
X21550000Y-60978571D01*
X21597619Y-60930952D01*
X21692857Y-60883333D01*
X21930953Y-60883333D01*
X22026191Y-60930952D01*
X22073810Y-60978571D01*
X22121429Y-61073810D01*
X22121429Y-61311905D01*
X22073810Y-61407143D01*
X22026191Y-61454762D01*
X21930953Y-61502381D01*
X21692857Y-61502381D01*
X21597619Y-61454762D01*
X21550000Y-61407143D01*
X22502381Y-60597619D02*
X22550000Y-60550000D01*
X22645238Y-60502381D01*
X22883334Y-60502381D01*
X22978572Y-60550000D01*
X23026191Y-60597619D01*
X23073810Y-60692857D01*
X23073810Y-60788095D01*
X23026191Y-60930952D01*
X22454762Y-61502381D01*
X23073810Y-61502381D01*
X23645238Y-60930952D02*
X23550000Y-60883333D01*
X23502381Y-60835714D01*
X23454762Y-60740476D01*
X23454762Y-60692857D01*
X23502381Y-60597619D01*
X23550000Y-60550000D01*
X23645238Y-60502381D01*
X23835715Y-60502381D01*
X23930953Y-60550000D01*
X23978572Y-60597619D01*
X24026191Y-60692857D01*
X24026191Y-60740476D01*
X23978572Y-60835714D01*
X23930953Y-60883333D01*
X23835715Y-60930952D01*
X23645238Y-60930952D01*
X23550000Y-60978571D01*
X23502381Y-61026190D01*
X23454762Y-61121429D01*
X23454762Y-61311905D01*
X23502381Y-61407143D01*
X23550000Y-61454762D01*
X23645238Y-61502381D01*
X23835715Y-61502381D01*
X23930953Y-61454762D01*
X23978572Y-61407143D01*
X24026191Y-61311905D01*
X24026191Y-61121429D01*
X23978572Y-61026190D01*
X23930953Y-60978571D01*
X23835715Y-60930952D01*
X24407143Y-60597619D02*
X24454762Y-60550000D01*
X24550000Y-60502381D01*
X24788096Y-60502381D01*
X24883334Y-60550000D01*
X24930953Y-60597619D01*
X24978572Y-60692857D01*
X24978572Y-60788095D01*
X24930953Y-60930952D01*
X24359524Y-61502381D01*
X24978572Y-61502381D01*
X25407143Y-61121429D02*
X26169048Y-61121429D01*
X27121429Y-60502381D02*
X26645238Y-60502381D01*
X26597619Y-60978571D01*
X26645238Y-60930952D01*
X26740476Y-60883333D01*
X26978572Y-60883333D01*
X27073810Y-60930952D01*
X27121429Y-60978571D01*
X27169048Y-61073810D01*
X27169048Y-61311905D01*
X27121429Y-61407143D01*
X27073810Y-61454762D01*
X26978572Y-61502381D01*
X26740476Y-61502381D01*
X26645238Y-61454762D01*
X26597619Y-61407143D01*
M02*
