G04 #@! TF.FileFunction,Copper,L2,Bot,Signal*
%FSLAX46Y46*%
G04 Gerber Fmt 4.6, Leading zero omitted, Abs format (unit mm)*
G04 Created by KiCad (PCBNEW 4.0.7) date 05/25/18 18:50:48*
%MOMM*%
%LPD*%
G01*
G04 APERTURE LIST*
%ADD10C,0.100000*%
%ADD11C,7.000000*%
%ADD12R,2.000000X2.600000*%
%ADD13O,2.000000X2.600000*%
%ADD14O,2.500000X6.000000*%
%ADD15R,2.500000X6.000000*%
%ADD16R,1.000000X1.600000*%
%ADD17C,3.000000*%
%ADD18R,2.600000X2.000000*%
%ADD19O,2.600000X2.000000*%
%ADD20R,1.700000X0.900000*%
%ADD21R,0.900000X1.700000*%
%ADD22R,1.800000X1.800000*%
%ADD23O,1.800000X1.800000*%
%ADD24C,2.000000*%
%ADD25C,4.500000*%
%ADD26C,1.500000*%
%ADD27C,1.800000*%
%ADD28C,0.600000*%
%ADD29C,0.400000*%
%ADD30C,0.250000*%
%ADD31C,0.254000*%
G04 APERTURE END LIST*
D10*
D11*
X60000000Y-22600000D03*
X85000000Y-122600000D03*
D12*
X55775760Y-5918120D03*
D13*
X58315760Y-5918120D03*
D14*
X77124460Y-52260420D03*
D15*
X74584460Y-31940420D03*
D14*
X79664460Y-31940420D03*
X66964460Y-52260420D03*
X87284460Y-52260420D03*
D16*
X65864240Y-105168120D03*
X62864240Y-105168120D03*
X49195760Y-114781880D03*
X52195760Y-114781880D03*
X75084240Y-110018120D03*
X78084240Y-110018120D03*
X57325760Y-114781880D03*
X54325760Y-114781880D03*
X4745760Y-94818120D03*
X7745760Y-94818120D03*
X37950000Y-10050000D03*
X34950000Y-10050000D03*
X37950000Y-7550000D03*
X34950000Y-7550000D03*
D17*
X88795760Y-7188120D03*
X66295760Y-7188120D03*
D12*
X44345760Y-5918120D03*
D13*
X46885760Y-5918120D03*
X49425760Y-5918120D03*
D18*
X6700000Y-51150000D03*
D19*
X6700000Y-48610000D03*
D12*
X21485760Y-122758120D03*
D13*
X18945760Y-122758120D03*
X16405760Y-122758120D03*
D12*
X32915760Y-122758120D03*
D13*
X30375760Y-122758120D03*
X27835760Y-122758120D03*
D12*
X57045760Y-122758120D03*
D13*
X54505760Y-122758120D03*
D18*
X86255760Y-73228120D03*
D19*
X86255760Y-75768120D03*
X86255760Y-78308120D03*
X86255760Y-80848120D03*
D18*
X86255760Y-85928120D03*
D19*
X86255760Y-88468120D03*
X86255760Y-91008120D03*
X86255760Y-93548120D03*
D18*
X86255760Y-98628120D03*
D19*
X86255760Y-101168120D03*
X86255760Y-103708120D03*
X86255760Y-106248120D03*
D20*
X5074240Y-16668120D03*
X5074240Y-19568120D03*
X15350000Y-16700000D03*
X15350000Y-19600000D03*
X10064240Y-16693120D03*
X10064240Y-19593120D03*
D21*
X41285760Y-13261880D03*
X44185760Y-13261880D03*
X44159240Y-10563120D03*
X41259240Y-10563120D03*
D22*
X50695760Y-110058120D03*
D23*
X53235760Y-110058120D03*
X55775760Y-110058120D03*
D22*
X65935760Y-110058120D03*
D23*
X68475760Y-110058120D03*
X71015760Y-110058120D03*
D11*
X5000000Y-122600000D03*
D24*
X17695760Y-12218120D03*
X20465760Y-12218120D03*
X23235760Y-12218120D03*
X14925760Y-12218120D03*
X12155760Y-12218120D03*
X16310760Y-9378120D03*
X13540760Y-9378120D03*
X19080760Y-9378120D03*
X21850760Y-9378120D03*
D25*
X30195760Y-10798120D03*
X5195760Y-10798120D03*
D26*
X45185760Y-23868120D03*
X46695760Y-77278120D03*
D27*
X6700000Y-45300000D03*
X50695760Y-110058120D03*
X6750000Y-54250000D03*
X36050000Y-61000000D03*
X19000000Y-102800000D03*
X31645760Y-102438120D03*
X80200000Y-75650000D03*
X86250000Y-69900000D03*
X80300000Y-88450000D03*
X80200000Y-101200000D03*
X15135760Y-91008120D03*
X10055760Y-91008120D03*
X30100000Y-64500000D03*
X38400000Y-64000000D03*
X19100000Y-115150000D03*
X16400000Y-115200000D03*
X24395760Y-91008120D03*
X36250000Y-71850000D03*
X25930760Y-109423120D03*
X22750000Y-109150000D03*
X31645760Y-86563120D03*
X38450000Y-67000000D03*
X27835760Y-96088120D03*
X29200000Y-46200000D03*
X4975000Y-23125000D03*
X19300000Y-19550000D03*
X31900000Y-43700000D03*
X15300000Y-23300000D03*
X34800000Y-41800000D03*
X10100000Y-23200000D03*
X14400000Y-88500000D03*
X26400000Y-88500000D03*
X7515760Y-107518120D03*
X49425760Y-88468120D03*
X38900000Y-12700000D03*
X43075760Y-97358120D03*
X43075760Y-107518120D03*
D28*
X6700000Y-48610000D02*
X6700000Y-45300000D01*
X50695760Y-110058120D02*
X50695760Y-110004240D01*
X50695760Y-110004240D02*
X52400000Y-108300000D01*
X81200000Y-111300000D02*
X81200000Y-103708120D01*
X76800000Y-115700000D02*
X81200000Y-111300000D01*
X64000000Y-115700000D02*
X76800000Y-115700000D01*
X56600000Y-108300000D02*
X64000000Y-115700000D01*
X52400000Y-108300000D02*
X56600000Y-108300000D01*
X81200000Y-103708120D02*
X81200000Y-103700000D01*
X81200000Y-103700000D02*
X81200000Y-103708120D01*
X65935760Y-110058120D02*
X65935760Y-105239640D01*
X65935760Y-105239640D02*
X65864240Y-105168120D01*
X49195760Y-114781880D02*
X49195760Y-111558120D01*
X49195760Y-111558120D02*
X50695760Y-110058120D01*
D29*
X50691880Y-110058120D02*
X50695760Y-110058120D01*
D28*
X91335760Y-32588120D02*
X91335760Y-60528120D01*
X90688060Y-31940420D02*
X91335760Y-32588120D01*
X91335760Y-60528120D02*
X77400000Y-70788120D01*
X77400000Y-70788120D02*
X77400000Y-78408120D01*
X79664460Y-31940420D02*
X90688060Y-31940420D01*
X88795760Y-7188120D02*
X88795760Y-22809120D01*
X88795760Y-22809120D02*
X79664460Y-31940420D01*
X86255760Y-78308120D02*
X77400000Y-78408120D01*
X77400000Y-78408120D02*
X77400000Y-91008120D01*
X77400000Y-103708120D02*
X77400000Y-91008120D01*
X77400000Y-91008120D02*
X86255760Y-91008120D01*
X86255760Y-103708120D02*
X81200000Y-103708120D01*
X81200000Y-103708120D02*
X77400000Y-103708120D01*
X77400000Y-103708120D02*
X72285760Y-103708120D01*
X72285760Y-103708120D02*
X65935760Y-110058120D01*
X55775760Y-110058120D02*
X55775760Y-111425760D01*
X57325760Y-112975760D02*
X57325760Y-114781880D01*
X55775760Y-111425760D02*
X57325760Y-112975760D01*
X57245760Y-122858120D02*
X57245760Y-115161880D01*
X57045760Y-115061880D02*
X57325760Y-114781880D01*
D30*
X57095760Y-114551880D02*
X57325760Y-114781880D01*
D28*
X6700000Y-51150000D02*
X6700000Y-54200000D01*
X6700000Y-54200000D02*
X6750000Y-54250000D01*
X66295760Y-7188120D02*
X64665760Y-7188120D01*
X58315760Y-9728120D02*
X55775760Y-7188120D01*
X62125760Y-9728120D02*
X58315760Y-9728120D01*
X64665760Y-7188120D02*
X62125760Y-9728120D01*
D30*
X55775760Y-7188120D02*
X55775760Y-5918120D01*
D29*
X49425760Y-5918120D02*
X49425760Y-17348120D01*
X48790760Y-17983120D02*
X49425760Y-17348120D01*
X38600000Y-18000000D02*
X48790760Y-17983120D01*
X38550000Y-61000000D02*
X38600000Y-18000000D01*
X36050000Y-61000000D02*
X38550000Y-61000000D01*
D28*
X19000000Y-102800000D02*
X27790174Y-102800022D01*
X27835760Y-122758120D02*
X27790174Y-102800022D01*
X66964460Y-52260420D02*
X66964460Y-64579420D01*
X27790174Y-102800022D02*
X27790174Y-102800022D01*
X66964460Y-64579420D02*
X27790174Y-102800022D01*
X87284460Y-52260420D02*
X85239580Y-52260420D01*
X48333880Y-85750000D02*
X31645760Y-102438120D01*
X51750000Y-85750000D02*
X48333880Y-85750000D01*
X85239580Y-52260420D02*
X51750000Y-85750000D01*
X30375760Y-122758120D02*
X30375760Y-103708120D01*
X30375760Y-103708120D02*
X31645760Y-102438120D01*
D29*
X86255760Y-75768120D02*
X80318120Y-75768120D01*
X80318120Y-75768120D02*
X80200000Y-75650000D01*
X86255760Y-69905760D02*
X86255760Y-73228120D01*
X86250000Y-69900000D02*
X86255760Y-69905760D01*
X86255760Y-98628120D02*
X90321880Y-98628120D01*
X90450000Y-86000000D02*
X86327640Y-86000000D01*
X90450000Y-98500000D02*
X90450000Y-86000000D01*
X90321880Y-98628120D02*
X90450000Y-98500000D01*
X86255760Y-73228120D02*
X86277640Y-73250000D01*
X86277640Y-73250000D02*
X90300000Y-73250000D01*
X90300000Y-73250000D02*
X90450000Y-73400000D01*
X90450000Y-73400000D02*
X90450000Y-85950000D01*
X90450000Y-85950000D02*
X90428120Y-85928120D01*
X90428120Y-85928120D02*
X86255760Y-85928120D01*
X86255760Y-85928120D02*
X86327640Y-86000000D01*
X86255760Y-88468120D02*
X80318120Y-88468120D01*
X80318120Y-88468120D02*
X80300000Y-88450000D01*
X86255760Y-101168120D02*
X80231880Y-101168120D01*
X80231880Y-101168120D02*
X80200000Y-101200000D01*
X15135760Y-91008120D02*
X10055760Y-91008120D01*
D28*
X44185760Y-13261880D02*
X44185760Y-10589640D01*
X44185760Y-10589640D02*
X44159240Y-10563120D01*
X44159240Y-13235360D02*
X44185760Y-13261880D01*
D29*
X30100000Y-64500000D02*
X30600000Y-64000000D01*
X30600000Y-64000000D02*
X38400000Y-64000000D01*
X18945760Y-115304240D02*
X18945760Y-122758120D01*
X19100000Y-115150000D02*
X18945760Y-115304240D01*
X16405760Y-115205760D02*
X16405760Y-122758120D01*
X16400000Y-115200000D02*
X16405760Y-115205760D01*
X21485760Y-122758120D02*
X21485760Y-111328120D01*
X13450000Y-102800000D02*
X24395760Y-91008120D01*
X13496413Y-102913969D02*
X13450000Y-102800000D01*
X21485760Y-111328120D02*
X13496413Y-102913969D01*
D30*
X24395760Y-91008120D02*
X24395760Y-91008120D01*
D29*
X25930760Y-109423120D02*
X20850760Y-104343120D01*
X36200000Y-84000000D02*
X36250000Y-71850000D01*
X20850760Y-100533120D02*
X36200000Y-84000000D01*
X18945760Y-100533120D02*
X20850760Y-100533120D01*
X17210760Y-102268120D02*
X18945760Y-100533120D01*
X17210760Y-103608120D02*
X17210760Y-102268120D01*
X17945760Y-104343120D02*
X17210760Y-103608120D01*
X20850760Y-104343120D02*
X17945760Y-104343120D01*
X22750000Y-109150000D02*
X15400000Y-103333676D01*
X15400000Y-103333676D02*
X15400000Y-102368120D01*
X15400000Y-102368120D02*
X31645760Y-86563120D01*
X38550000Y-83700000D02*
X38450000Y-67000000D01*
X38550000Y-83700000D02*
X27835760Y-96088120D01*
D28*
X4975000Y-23125000D02*
X4975000Y-19667360D01*
X4975000Y-19667360D02*
X5074240Y-19568120D01*
D29*
X17950000Y-25000000D02*
X6850000Y-25000000D01*
X19350000Y-25000000D02*
X19400000Y-25050000D01*
X19400000Y-34750000D02*
X19400000Y-25050000D01*
X29200000Y-46200000D02*
X19400000Y-34750000D01*
X17950000Y-25000000D02*
X19350000Y-25000000D01*
X6850000Y-25000000D02*
X4975000Y-23125000D01*
D30*
X5074240Y-19388120D02*
X5074240Y-19568120D01*
D29*
X15350000Y-19600000D02*
X19250000Y-19600000D01*
X19250000Y-19600000D02*
X19300000Y-19550000D01*
X22100000Y-23300000D02*
X15300000Y-23300000D01*
X23100000Y-33700000D02*
X31900000Y-43700000D01*
X23100000Y-23300000D02*
X23100000Y-33700000D01*
X22100000Y-23300000D02*
X23100000Y-23300000D01*
X10100000Y-21600000D02*
X24600000Y-21600000D01*
X26200000Y-31600000D02*
X34800000Y-41800000D01*
X26200000Y-21600000D02*
X26200000Y-31600000D01*
X24600000Y-21600000D02*
X26200000Y-21600000D01*
X10100000Y-21600000D02*
X10300000Y-21600000D01*
X10300000Y-21600000D02*
X10100000Y-21600000D01*
X10100000Y-19628880D02*
X10100000Y-21600000D01*
X10100000Y-21600000D02*
X10100000Y-23200000D01*
X10100000Y-19628880D02*
X10064240Y-19593120D01*
D28*
X14400000Y-88500000D02*
X9800000Y-88500000D01*
X9800000Y-88500000D02*
X7745760Y-90554240D01*
X7745760Y-90554240D02*
X7745760Y-94818120D01*
X14700000Y-88500000D02*
X9800000Y-88500000D01*
X14700000Y-88500000D02*
X26400000Y-88500000D01*
X7745760Y-107288120D02*
X7515760Y-107518120D01*
X7745760Y-90554240D02*
X7745760Y-107288120D01*
X9800000Y-88500000D02*
X7745760Y-90554240D01*
X49425760Y-88468120D02*
X43075760Y-94818120D01*
X43075760Y-94818120D02*
X43075760Y-97358120D01*
X37950000Y-7550000D02*
X37950000Y-6650000D01*
X25828880Y-5400000D02*
X21850760Y-9378120D01*
X36700000Y-5400000D02*
X25828880Y-5400000D01*
X37950000Y-6650000D02*
X36700000Y-5400000D01*
X41285760Y-13261880D02*
X39461880Y-13261880D01*
X39461880Y-13261880D02*
X38900000Y-12700000D01*
X37950000Y-11750000D02*
X37950000Y-10050000D01*
X38900000Y-12700000D02*
X37950000Y-11750000D01*
X75084240Y-110018120D02*
X71055760Y-110018120D01*
X71055760Y-110018120D02*
X71015760Y-110058120D01*
X68475760Y-113868120D02*
X64665760Y-113868120D01*
X71015760Y-111328120D02*
X68475760Y-113868120D01*
X37950000Y-10050000D02*
X37950000Y-7550000D01*
X43075760Y-107518120D02*
X43931880Y-107518120D01*
X64665760Y-113868120D02*
X58315760Y-107518120D01*
X71015760Y-111328120D02*
X71015760Y-110058120D01*
X57567640Y-106770000D02*
X58315760Y-107518120D01*
X44680000Y-106770000D02*
X57567640Y-106770000D01*
X43931880Y-107518120D02*
X44680000Y-106770000D01*
X43075760Y-107518120D02*
X43075760Y-97358120D01*
D30*
X77124460Y-52260420D02*
X77124460Y-50126820D01*
X54555760Y-114551880D02*
X54325760Y-114781880D01*
D28*
X41259240Y-10563120D02*
X41259240Y-9004640D01*
X41259240Y-9004640D02*
X44345760Y-5918120D01*
X10064240Y-16693120D02*
X11606880Y-16693120D01*
X15713880Y-14200000D02*
X17695760Y-12218120D01*
X14100000Y-14200000D02*
X15713880Y-14200000D01*
X11606880Y-16693120D02*
X14100000Y-14200000D01*
X15350000Y-16700000D02*
X15983880Y-16700000D01*
X15983880Y-16700000D02*
X20465760Y-12218120D01*
X5074240Y-16668120D02*
X5074240Y-15575760D01*
X11271880Y-9378120D02*
X13540760Y-9378120D01*
X5074240Y-15575760D02*
X11271880Y-9378120D01*
D31*
G36*
X92365000Y-126965000D02*
X635000Y-126965000D01*
X635000Y-123379286D01*
X1064319Y-123379286D01*
X1662124Y-124826086D01*
X2768091Y-125933985D01*
X4213846Y-126534315D01*
X5779286Y-126535681D01*
X7226086Y-125937876D01*
X8333985Y-124831909D01*
X8934315Y-123386154D01*
X8935681Y-121820714D01*
X8337876Y-120373914D01*
X7231909Y-119266015D01*
X5786154Y-118665685D01*
X4220714Y-118664319D01*
X2773914Y-119262124D01*
X1666015Y-120368091D01*
X1065685Y-121813846D01*
X1064319Y-123379286D01*
X635000Y-123379286D01*
X635000Y-107782503D01*
X6180529Y-107782503D01*
X6383342Y-108273349D01*
X6758556Y-108649218D01*
X7249047Y-108852888D01*
X7780143Y-108853351D01*
X8270989Y-108650538D01*
X8646858Y-108275324D01*
X8850528Y-107784833D01*
X8850991Y-107253737D01*
X8648178Y-106762891D01*
X8480760Y-106595181D01*
X8480760Y-102796212D01*
X12815011Y-102796212D01*
X12817644Y-102809875D01*
X12815439Y-102823613D01*
X12840998Y-102931057D01*
X12861897Y-103039500D01*
X12908310Y-103153469D01*
X12973104Y-103251704D01*
X13035926Y-103351207D01*
X20850760Y-111581565D01*
X20850760Y-121014598D01*
X20485760Y-121014598D01*
X20324559Y-121044930D01*
X20176505Y-121140200D01*
X20077181Y-121285565D01*
X20042238Y-121458120D01*
X20042238Y-121531823D01*
X19960458Y-121409431D01*
X19580760Y-121155725D01*
X19580760Y-116395826D01*
X19855229Y-116282418D01*
X20231098Y-115907204D01*
X20434768Y-115416713D01*
X20435231Y-114885617D01*
X20232418Y-114394771D01*
X19857204Y-114018902D01*
X19366713Y-113815232D01*
X18835617Y-113814769D01*
X18344771Y-114017582D01*
X17968902Y-114392796D01*
X17765232Y-114883287D01*
X17764769Y-115414383D01*
X17967582Y-115905229D01*
X18310760Y-116249006D01*
X18310760Y-121155725D01*
X17931062Y-121409431D01*
X17675760Y-121791517D01*
X17420458Y-121409431D01*
X17040760Y-121155725D01*
X17040760Y-116379716D01*
X17155229Y-116332418D01*
X17531098Y-115957204D01*
X17734768Y-115466713D01*
X17735231Y-114935617D01*
X17532418Y-114444771D01*
X17157204Y-114068902D01*
X16666713Y-113865232D01*
X16135617Y-113864769D01*
X15644771Y-114067582D01*
X15268902Y-114442796D01*
X15065232Y-114933287D01*
X15064769Y-115464383D01*
X15267582Y-115955229D01*
X15642796Y-116331098D01*
X15770760Y-116384233D01*
X15770760Y-121155725D01*
X15391062Y-121409431D01*
X15079993Y-121874978D01*
X14970760Y-122424129D01*
X14970760Y-123092111D01*
X15079993Y-123641262D01*
X15391062Y-124106809D01*
X15856609Y-124417878D01*
X16405760Y-124527111D01*
X16954911Y-124417878D01*
X17420458Y-124106809D01*
X17675760Y-123724723D01*
X17931062Y-124106809D01*
X18396609Y-124417878D01*
X18945760Y-124527111D01*
X19494911Y-124417878D01*
X19960458Y-124106809D01*
X20042238Y-123984417D01*
X20042238Y-124058120D01*
X20072570Y-124219321D01*
X20167840Y-124367375D01*
X20313205Y-124466699D01*
X20485760Y-124501642D01*
X22485760Y-124501642D01*
X22646961Y-124471310D01*
X22795015Y-124376040D01*
X22894339Y-124230675D01*
X22929282Y-124058120D01*
X22929282Y-121458120D01*
X22898950Y-121296919D01*
X22803680Y-121148865D01*
X22658315Y-121049541D01*
X22485760Y-121014598D01*
X22120760Y-121014598D01*
X22120760Y-111328120D01*
X22098170Y-111214553D01*
X22078519Y-111100385D01*
X22074055Y-111093314D01*
X22072424Y-111085116D01*
X22008085Y-110988827D01*
X21946247Y-110890882D01*
X15960983Y-104587374D01*
X21415214Y-108903507D01*
X21414769Y-109414383D01*
X21617582Y-109905229D01*
X21992796Y-110281098D01*
X22483287Y-110484768D01*
X23014383Y-110485231D01*
X23505229Y-110282418D01*
X23881098Y-109907204D01*
X24084768Y-109416713D01*
X24085231Y-108885617D01*
X23882418Y-108394771D01*
X23507204Y-108018902D01*
X23016713Y-107815232D01*
X22485617Y-107814769D01*
X22223071Y-107923251D01*
X18501354Y-104978120D01*
X20587734Y-104978120D01*
X24645879Y-109036265D01*
X24595992Y-109156407D01*
X24595529Y-109687503D01*
X24798342Y-110178349D01*
X25173556Y-110554218D01*
X25664047Y-110757888D01*
X26195143Y-110758351D01*
X26685989Y-110555538D01*
X27061858Y-110180324D01*
X27071974Y-110155963D01*
X27097256Y-121224884D01*
X26821062Y-121409431D01*
X26509993Y-121874978D01*
X26400760Y-122424129D01*
X26400760Y-123092111D01*
X26509993Y-123641262D01*
X26821062Y-124106809D01*
X27286609Y-124417878D01*
X27835760Y-124527111D01*
X28384911Y-124417878D01*
X28850458Y-124106809D01*
X29105760Y-123724723D01*
X29361062Y-124106809D01*
X29826609Y-124417878D01*
X30375760Y-124527111D01*
X30924911Y-124417878D01*
X31390458Y-124106809D01*
X31480760Y-123971663D01*
X31480760Y-124144647D01*
X31546985Y-124304528D01*
X31669352Y-124426895D01*
X31829233Y-124493120D01*
X32680010Y-124493120D01*
X32788760Y-124384370D01*
X32788760Y-122885120D01*
X33042760Y-122885120D01*
X33042760Y-124384370D01*
X33151510Y-124493120D01*
X34002287Y-124493120D01*
X34162168Y-124426895D01*
X34284535Y-124304528D01*
X34350760Y-124144647D01*
X34350760Y-122993870D01*
X34242010Y-122885120D01*
X53070760Y-122885120D01*
X53070760Y-123185120D01*
X53228594Y-123724603D01*
X53580864Y-124162620D01*
X54073941Y-124432487D01*
X54156721Y-124450024D01*
X54378760Y-124378275D01*
X54378760Y-122885120D01*
X53070760Y-122885120D01*
X34242010Y-122885120D01*
X33042760Y-122885120D01*
X32788760Y-122885120D01*
X32768760Y-122885120D01*
X32768760Y-122631120D01*
X32788760Y-122631120D01*
X32788760Y-121131870D01*
X33042760Y-121131870D01*
X33042760Y-122631120D01*
X34242010Y-122631120D01*
X34350760Y-122522370D01*
X34350760Y-122331120D01*
X53070760Y-122331120D01*
X53070760Y-122631120D01*
X54378760Y-122631120D01*
X54378760Y-121137965D01*
X54156721Y-121066216D01*
X54073941Y-121083753D01*
X53580864Y-121353620D01*
X53228594Y-121791637D01*
X53070760Y-122331120D01*
X34350760Y-122331120D01*
X34350760Y-121371593D01*
X34284535Y-121211712D01*
X34162168Y-121089345D01*
X34002287Y-121023120D01*
X33151510Y-121023120D01*
X33042760Y-121131870D01*
X32788760Y-121131870D01*
X32680010Y-121023120D01*
X31829233Y-121023120D01*
X31669352Y-121089345D01*
X31546985Y-121211712D01*
X31480760Y-121371593D01*
X31480760Y-121544577D01*
X31390458Y-121409431D01*
X31110760Y-121222543D01*
X31110760Y-113981880D01*
X48252238Y-113981880D01*
X48252238Y-115581880D01*
X48282570Y-115743081D01*
X48377840Y-115891135D01*
X48523205Y-115990459D01*
X48695760Y-116025402D01*
X49695760Y-116025402D01*
X49856961Y-115995070D01*
X50005015Y-115899800D01*
X50104339Y-115754435D01*
X50139282Y-115581880D01*
X50139282Y-115017630D01*
X51260760Y-115017630D01*
X51260760Y-115668407D01*
X51326985Y-115828288D01*
X51449352Y-115950655D01*
X51609233Y-116016880D01*
X51960010Y-116016880D01*
X52068760Y-115908130D01*
X52068760Y-114908880D01*
X52322760Y-114908880D01*
X52322760Y-115908130D01*
X52431510Y-116016880D01*
X52782287Y-116016880D01*
X52942168Y-115950655D01*
X53064535Y-115828288D01*
X53130760Y-115668407D01*
X53130760Y-115017630D01*
X53390760Y-115017630D01*
X53390760Y-115668407D01*
X53456985Y-115828288D01*
X53579352Y-115950655D01*
X53739233Y-116016880D01*
X54090010Y-116016880D01*
X54198760Y-115908130D01*
X54198760Y-114908880D01*
X54452760Y-114908880D01*
X54452760Y-115908130D01*
X54561510Y-116016880D01*
X54912287Y-116016880D01*
X55072168Y-115950655D01*
X55194535Y-115828288D01*
X55260760Y-115668407D01*
X55260760Y-115017630D01*
X55152010Y-114908880D01*
X54452760Y-114908880D01*
X54198760Y-114908880D01*
X53499510Y-114908880D01*
X53390760Y-115017630D01*
X53130760Y-115017630D01*
X53022010Y-114908880D01*
X52322760Y-114908880D01*
X52068760Y-114908880D01*
X51369510Y-114908880D01*
X51260760Y-115017630D01*
X50139282Y-115017630D01*
X50139282Y-113981880D01*
X50123001Y-113895353D01*
X51260760Y-113895353D01*
X51260760Y-114546130D01*
X51369510Y-114654880D01*
X52068760Y-114654880D01*
X52068760Y-113655630D01*
X52322760Y-113655630D01*
X52322760Y-114654880D01*
X53022010Y-114654880D01*
X53130760Y-114546130D01*
X53130760Y-113895353D01*
X53390760Y-113895353D01*
X53390760Y-114546130D01*
X53499510Y-114654880D01*
X54198760Y-114654880D01*
X54198760Y-113655630D01*
X54452760Y-113655630D01*
X54452760Y-114654880D01*
X55152010Y-114654880D01*
X55260760Y-114546130D01*
X55260760Y-113895353D01*
X55194535Y-113735472D01*
X55072168Y-113613105D01*
X54912287Y-113546880D01*
X54561510Y-113546880D01*
X54452760Y-113655630D01*
X54198760Y-113655630D01*
X54090010Y-113546880D01*
X53739233Y-113546880D01*
X53579352Y-113613105D01*
X53456985Y-113735472D01*
X53390760Y-113895353D01*
X53130760Y-113895353D01*
X53064535Y-113735472D01*
X52942168Y-113613105D01*
X52782287Y-113546880D01*
X52431510Y-113546880D01*
X52322760Y-113655630D01*
X52068760Y-113655630D01*
X51960010Y-113546880D01*
X51609233Y-113546880D01*
X51449352Y-113613105D01*
X51326985Y-113735472D01*
X51260760Y-113895353D01*
X50123001Y-113895353D01*
X50108950Y-113820679D01*
X50013680Y-113672625D01*
X49930760Y-113615968D01*
X49930760Y-111862566D01*
X50391684Y-111401642D01*
X51595760Y-111401642D01*
X51756961Y-111371310D01*
X51905015Y-111276040D01*
X52004339Y-111130675D01*
X52039282Y-110958120D01*
X52039282Y-110623808D01*
X52085963Y-110736516D01*
X52433097Y-111124884D01*
X52902429Y-111350847D01*
X53108760Y-111278326D01*
X53108760Y-110185120D01*
X53088760Y-110185120D01*
X53088760Y-109931120D01*
X53108760Y-109931120D01*
X53108760Y-109911120D01*
X53362760Y-109911120D01*
X53362760Y-109931120D01*
X53382760Y-109931120D01*
X53382760Y-110185120D01*
X53362760Y-110185120D01*
X53362760Y-111278326D01*
X53569091Y-111350847D01*
X54038423Y-111124884D01*
X54385557Y-110736516D01*
X54496342Y-110469034D01*
X54516227Y-110569002D01*
X54805618Y-111002108D01*
X55040760Y-111159224D01*
X55040760Y-111425760D01*
X55096709Y-111707032D01*
X55256037Y-111945483D01*
X56590760Y-113280206D01*
X56590760Y-113616178D01*
X56516505Y-113663960D01*
X56417181Y-113809325D01*
X56382238Y-113981880D01*
X56382238Y-114757367D01*
X56366709Y-114780608D01*
X56310761Y-115061880D01*
X56366709Y-115343152D01*
X56382238Y-115366393D01*
X56382238Y-115581880D01*
X56412570Y-115743081D01*
X56507840Y-115891135D01*
X56510760Y-115893130D01*
X56510760Y-121014598D01*
X56045760Y-121014598D01*
X55884559Y-121044930D01*
X55736505Y-121140200D01*
X55637181Y-121285565D01*
X55602238Y-121458120D01*
X55602238Y-121566967D01*
X55430656Y-121353620D01*
X54937579Y-121083753D01*
X54854799Y-121066216D01*
X54632760Y-121137965D01*
X54632760Y-122631120D01*
X54652760Y-122631120D01*
X54652760Y-122885120D01*
X54632760Y-122885120D01*
X54632760Y-124378275D01*
X54854799Y-124450024D01*
X54937579Y-124432487D01*
X55430656Y-124162620D01*
X55602238Y-123949273D01*
X55602238Y-124058120D01*
X55632570Y-124219321D01*
X55727840Y-124367375D01*
X55873205Y-124466699D01*
X56045760Y-124501642D01*
X58045760Y-124501642D01*
X58206961Y-124471310D01*
X58355015Y-124376040D01*
X58454339Y-124230675D01*
X58489282Y-124058120D01*
X58489282Y-123379286D01*
X81064319Y-123379286D01*
X81662124Y-124826086D01*
X82768091Y-125933985D01*
X84213846Y-126534315D01*
X85779286Y-126535681D01*
X87226086Y-125937876D01*
X88333985Y-124831909D01*
X88934315Y-123386154D01*
X88935681Y-121820714D01*
X88337876Y-120373914D01*
X87231909Y-119266015D01*
X85786154Y-118665685D01*
X84220714Y-118664319D01*
X82773914Y-119262124D01*
X81666015Y-120368091D01*
X81065685Y-121813846D01*
X81064319Y-123379286D01*
X58489282Y-123379286D01*
X58489282Y-121458120D01*
X58458950Y-121296919D01*
X58363680Y-121148865D01*
X58218315Y-121049541D01*
X58045760Y-121014598D01*
X57980760Y-121014598D01*
X57980760Y-115996237D01*
X57986961Y-115995070D01*
X58135015Y-115899800D01*
X58234339Y-115754435D01*
X58269282Y-115581880D01*
X58269282Y-113981880D01*
X58238950Y-113820679D01*
X58143680Y-113672625D01*
X58060760Y-113615968D01*
X58060760Y-112975760D01*
X58004811Y-112694488D01*
X57845483Y-112456037D01*
X56533486Y-111144040D01*
X56745902Y-111002108D01*
X57035293Y-110569002D01*
X57136914Y-110058120D01*
X57091782Y-109831228D01*
X63480276Y-116219723D01*
X63646961Y-116331098D01*
X63718728Y-116379051D01*
X64000000Y-116435000D01*
X76800000Y-116435000D01*
X77081272Y-116379051D01*
X77319723Y-116219723D01*
X81719724Y-111819723D01*
X81879051Y-111581272D01*
X81935000Y-111300000D01*
X81935000Y-106597159D01*
X84563856Y-106597159D01*
X84581393Y-106679939D01*
X84851260Y-107173016D01*
X85289277Y-107525286D01*
X85828760Y-107683120D01*
X86128760Y-107683120D01*
X86128760Y-106375120D01*
X86382760Y-106375120D01*
X86382760Y-107683120D01*
X86682760Y-107683120D01*
X87222243Y-107525286D01*
X87660260Y-107173016D01*
X87930127Y-106679939D01*
X87947664Y-106597159D01*
X87875915Y-106375120D01*
X86382760Y-106375120D01*
X86128760Y-106375120D01*
X84635605Y-106375120D01*
X84563856Y-106597159D01*
X81935000Y-106597159D01*
X81935000Y-104443120D01*
X84720183Y-104443120D01*
X84907071Y-104722818D01*
X85284356Y-104974912D01*
X84851260Y-105323224D01*
X84581393Y-105816301D01*
X84563856Y-105899081D01*
X84635605Y-106121120D01*
X86128760Y-106121120D01*
X86128760Y-106101120D01*
X86382760Y-106101120D01*
X86382760Y-106121120D01*
X87875915Y-106121120D01*
X87947664Y-105899081D01*
X87930127Y-105816301D01*
X87660260Y-105323224D01*
X87227164Y-104974912D01*
X87604449Y-104722818D01*
X87915518Y-104257271D01*
X88024751Y-103708120D01*
X87915518Y-103158969D01*
X87604449Y-102693422D01*
X87222363Y-102438120D01*
X87604449Y-102182818D01*
X87915518Y-101717271D01*
X88024751Y-101168120D01*
X87915518Y-100618969D01*
X87604449Y-100153422D01*
X87482057Y-100071642D01*
X87555760Y-100071642D01*
X87716961Y-100041310D01*
X87865015Y-99946040D01*
X87964339Y-99800675D01*
X87999282Y-99628120D01*
X87999282Y-99263120D01*
X90321880Y-99263120D01*
X90564884Y-99214784D01*
X90770893Y-99077133D01*
X90899013Y-98949013D01*
X91036664Y-98743004D01*
X91085000Y-98500000D01*
X91085000Y-86000000D01*
X91080027Y-85975000D01*
X91085000Y-85950000D01*
X91085000Y-73400000D01*
X91036664Y-73156996D01*
X90899013Y-72950987D01*
X90749013Y-72800987D01*
X90543004Y-72663336D01*
X90300000Y-72615000D01*
X87999282Y-72615000D01*
X87999282Y-72228120D01*
X87968950Y-72066919D01*
X87873680Y-71918865D01*
X87728315Y-71819541D01*
X87555760Y-71784598D01*
X86890760Y-71784598D01*
X86890760Y-71079716D01*
X87005229Y-71032418D01*
X87381098Y-70657204D01*
X87584768Y-70166713D01*
X87585231Y-69635617D01*
X87382418Y-69144771D01*
X87007204Y-68768902D01*
X86516713Y-68565232D01*
X85985617Y-68564769D01*
X85494771Y-68767582D01*
X85118902Y-69142796D01*
X84915232Y-69633287D01*
X84914769Y-70164383D01*
X85117582Y-70655229D01*
X85492796Y-71031098D01*
X85620760Y-71084233D01*
X85620760Y-71784598D01*
X84955760Y-71784598D01*
X84794559Y-71814930D01*
X84646505Y-71910200D01*
X84547181Y-72055565D01*
X84512238Y-72228120D01*
X84512238Y-74228120D01*
X84542570Y-74389321D01*
X84637840Y-74537375D01*
X84783205Y-74636699D01*
X84955760Y-74671642D01*
X85029463Y-74671642D01*
X84907071Y-74753422D01*
X84653365Y-75133120D01*
X81430902Y-75133120D01*
X81332418Y-74894771D01*
X80957204Y-74518902D01*
X80466713Y-74315232D01*
X79935617Y-74314769D01*
X79444771Y-74517582D01*
X79068902Y-74892796D01*
X78865232Y-75383287D01*
X78864769Y-75914383D01*
X79067582Y-76405229D01*
X79442796Y-76781098D01*
X79933287Y-76984768D01*
X80464383Y-76985231D01*
X80955229Y-76782418D01*
X81331098Y-76407204D01*
X81332794Y-76403120D01*
X84653365Y-76403120D01*
X84907071Y-76782818D01*
X85289157Y-77038120D01*
X84907071Y-77293422D01*
X84708540Y-77590545D01*
X78135000Y-77664774D01*
X78135000Y-71159703D01*
X91771528Y-61120008D01*
X91809121Y-61078821D01*
X91855483Y-61047843D01*
X91904900Y-60973886D01*
X91964862Y-60908191D01*
X91983831Y-60855757D01*
X92014811Y-60809392D01*
X92032164Y-60722152D01*
X92062422Y-60638513D01*
X92059881Y-60582812D01*
X92070760Y-60528120D01*
X92070760Y-32588120D01*
X92014811Y-32306848D01*
X91927495Y-32176170D01*
X91855483Y-32068396D01*
X91207783Y-31420697D01*
X90969332Y-31261369D01*
X90688060Y-31205420D01*
X81438906Y-31205420D01*
X89315483Y-23328844D01*
X89474811Y-23090392D01*
X89481454Y-23056996D01*
X89530760Y-22809120D01*
X89530760Y-8978097D01*
X89890418Y-8829490D01*
X90435217Y-8285641D01*
X90730423Y-7574704D01*
X90731095Y-6804913D01*
X90437130Y-6093462D01*
X89893281Y-5548663D01*
X89182344Y-5253457D01*
X88412553Y-5252785D01*
X87701102Y-5546750D01*
X87156303Y-6090599D01*
X86861097Y-6801536D01*
X86860425Y-7571327D01*
X87154390Y-8282778D01*
X87698239Y-8827577D01*
X88060760Y-8978108D01*
X88060760Y-22504673D01*
X81167498Y-29397936D01*
X80855935Y-28931649D01*
X80309282Y-28566387D01*
X79664460Y-28438124D01*
X79019638Y-28566387D01*
X78472985Y-28931649D01*
X78107723Y-29478302D01*
X77979460Y-30123124D01*
X77979460Y-33757716D01*
X78107723Y-34402538D01*
X78472985Y-34949191D01*
X79019638Y-35314453D01*
X79664460Y-35442716D01*
X80309282Y-35314453D01*
X80855935Y-34949191D01*
X81221197Y-34402538D01*
X81349460Y-33757716D01*
X81349460Y-32675420D01*
X90383614Y-32675420D01*
X90600760Y-32892567D01*
X90600760Y-60156537D01*
X76964231Y-70196233D01*
X76926638Y-70237419D01*
X76880277Y-70268397D01*
X76830862Y-70342351D01*
X76770897Y-70408049D01*
X76751928Y-70460485D01*
X76720949Y-70506848D01*
X76703596Y-70594086D01*
X76673338Y-70677727D01*
X76675879Y-70733429D01*
X76665000Y-70788120D01*
X76665000Y-102973120D01*
X72285760Y-102973120D01*
X72045310Y-103020949D01*
X72004488Y-103029069D01*
X71766036Y-103188397D01*
X66670760Y-108283674D01*
X66670760Y-106287800D01*
X66673495Y-106286040D01*
X66772819Y-106140675D01*
X66807762Y-105968120D01*
X66807762Y-104368120D01*
X66777430Y-104206919D01*
X66682160Y-104058865D01*
X66536795Y-103959541D01*
X66364240Y-103924598D01*
X65364240Y-103924598D01*
X65203039Y-103954930D01*
X65054985Y-104050200D01*
X64955661Y-104195565D01*
X64920718Y-104368120D01*
X64920718Y-105968120D01*
X64951050Y-106129321D01*
X65046320Y-106277375D01*
X65191685Y-106376699D01*
X65200760Y-106378537D01*
X65200760Y-108714598D01*
X65035760Y-108714598D01*
X64874559Y-108744930D01*
X64726505Y-108840200D01*
X64627181Y-108985565D01*
X64592238Y-109158120D01*
X64592238Y-110958120D01*
X64622570Y-111119321D01*
X64717840Y-111267375D01*
X64863205Y-111366699D01*
X65035760Y-111401642D01*
X66835760Y-111401642D01*
X66996961Y-111371310D01*
X67145015Y-111276040D01*
X67244339Y-111130675D01*
X67279282Y-110958120D01*
X67279282Y-110623808D01*
X67325963Y-110736516D01*
X67673097Y-111124884D01*
X68142429Y-111350847D01*
X68348760Y-111278326D01*
X68348760Y-110185120D01*
X68328760Y-110185120D01*
X68328760Y-109931120D01*
X68348760Y-109931120D01*
X68348760Y-108837914D01*
X68235293Y-108798033D01*
X72590207Y-104443120D01*
X80465000Y-104443120D01*
X80465000Y-110995553D01*
X76495554Y-114965000D01*
X64304447Y-114965000D01*
X57119723Y-107780277D01*
X56881272Y-107620949D01*
X56600000Y-107565000D01*
X52400000Y-107565000D01*
X52118728Y-107620949D01*
X51880276Y-107780277D01*
X50945956Y-108714598D01*
X49795760Y-108714598D01*
X49634559Y-108744930D01*
X49486505Y-108840200D01*
X49387181Y-108985565D01*
X49352238Y-109158120D01*
X49352238Y-110362196D01*
X48676037Y-111038397D01*
X48516709Y-111276848D01*
X48460760Y-111558120D01*
X48460760Y-113616178D01*
X48386505Y-113663960D01*
X48287181Y-113809325D01*
X48252238Y-113981880D01*
X31110760Y-113981880D01*
X31110760Y-104012566D01*
X31358832Y-103764494D01*
X31379047Y-103772888D01*
X31910143Y-103773351D01*
X32400989Y-103570538D01*
X32776858Y-103195324D01*
X32980528Y-102704833D01*
X32980991Y-102173737D01*
X32971810Y-102151516D01*
X37500823Y-97622503D01*
X41740529Y-97622503D01*
X41943342Y-98113349D01*
X42318556Y-98489218D01*
X42340760Y-98498438D01*
X42340760Y-106377344D01*
X42320531Y-106385702D01*
X41944662Y-106760916D01*
X41740992Y-107251407D01*
X41740529Y-107782503D01*
X41943342Y-108273349D01*
X42318556Y-108649218D01*
X42809047Y-108852888D01*
X43340143Y-108853351D01*
X43830989Y-108650538D01*
X44206858Y-108275324D01*
X44249354Y-108172981D01*
X44451603Y-108037843D01*
X44984447Y-107505000D01*
X57263194Y-107505000D01*
X57796036Y-108037843D01*
X57796039Y-108037845D01*
X64146036Y-114387843D01*
X64336341Y-114515000D01*
X64384488Y-114547171D01*
X64665760Y-114603120D01*
X68475760Y-114603120D01*
X68757032Y-114547171D01*
X68995483Y-114387843D01*
X71535483Y-111847844D01*
X71694811Y-111609393D01*
X71705010Y-111558120D01*
X71750760Y-111328120D01*
X71750760Y-111159224D01*
X71985902Y-111002108D01*
X72152270Y-110753120D01*
X74140718Y-110753120D01*
X74140718Y-110818120D01*
X74171050Y-110979321D01*
X74266320Y-111127375D01*
X74411685Y-111226699D01*
X74584240Y-111261642D01*
X75584240Y-111261642D01*
X75745441Y-111231310D01*
X75893495Y-111136040D01*
X75992819Y-110990675D01*
X76027762Y-110818120D01*
X76027762Y-110253870D01*
X77149240Y-110253870D01*
X77149240Y-110904647D01*
X77215465Y-111064528D01*
X77337832Y-111186895D01*
X77497713Y-111253120D01*
X77848490Y-111253120D01*
X77957240Y-111144370D01*
X77957240Y-110145120D01*
X78211240Y-110145120D01*
X78211240Y-111144370D01*
X78319990Y-111253120D01*
X78670767Y-111253120D01*
X78830648Y-111186895D01*
X78953015Y-111064528D01*
X79019240Y-110904647D01*
X79019240Y-110253870D01*
X78910490Y-110145120D01*
X78211240Y-110145120D01*
X77957240Y-110145120D01*
X77257990Y-110145120D01*
X77149240Y-110253870D01*
X76027762Y-110253870D01*
X76027762Y-109218120D01*
X76011481Y-109131593D01*
X77149240Y-109131593D01*
X77149240Y-109782370D01*
X77257990Y-109891120D01*
X77957240Y-109891120D01*
X77957240Y-108891870D01*
X78211240Y-108891870D01*
X78211240Y-109891120D01*
X78910490Y-109891120D01*
X79019240Y-109782370D01*
X79019240Y-109131593D01*
X78953015Y-108971712D01*
X78830648Y-108849345D01*
X78670767Y-108783120D01*
X78319990Y-108783120D01*
X78211240Y-108891870D01*
X77957240Y-108891870D01*
X77848490Y-108783120D01*
X77497713Y-108783120D01*
X77337832Y-108849345D01*
X77215465Y-108971712D01*
X77149240Y-109131593D01*
X76011481Y-109131593D01*
X75997430Y-109056919D01*
X75902160Y-108908865D01*
X75756795Y-108809541D01*
X75584240Y-108774598D01*
X74584240Y-108774598D01*
X74423039Y-108804930D01*
X74274985Y-108900200D01*
X74175661Y-109045565D01*
X74140718Y-109218120D01*
X74140718Y-109283120D01*
X72098816Y-109283120D01*
X71985902Y-109114132D01*
X71552796Y-108824741D01*
X71041914Y-108723120D01*
X70989606Y-108723120D01*
X70478724Y-108824741D01*
X70045618Y-109114132D01*
X69756227Y-109547238D01*
X69736342Y-109647206D01*
X69625557Y-109379724D01*
X69278423Y-108991356D01*
X68809091Y-108765393D01*
X68602760Y-108837914D01*
X68602760Y-109931120D01*
X68622760Y-109931120D01*
X68622760Y-110185120D01*
X68602760Y-110185120D01*
X68602760Y-111278326D01*
X68809091Y-111350847D01*
X69278423Y-111124884D01*
X69625557Y-110736516D01*
X69736342Y-110469034D01*
X69756227Y-110569002D01*
X70045618Y-111002108D01*
X70199503Y-111104930D01*
X68171314Y-113133120D01*
X64970207Y-113133120D01*
X58835485Y-106998399D01*
X58835483Y-106998396D01*
X58087363Y-106250277D01*
X57848912Y-106090949D01*
X57567640Y-106035000D01*
X44680000Y-106035000D01*
X44445394Y-106081667D01*
X44398727Y-106090949D01*
X44160276Y-106250277D01*
X43928165Y-106482389D01*
X43832964Y-106387022D01*
X43810760Y-106377802D01*
X43810760Y-105403870D01*
X61929240Y-105403870D01*
X61929240Y-106054647D01*
X61995465Y-106214528D01*
X62117832Y-106336895D01*
X62277713Y-106403120D01*
X62628490Y-106403120D01*
X62737240Y-106294370D01*
X62737240Y-105295120D01*
X62991240Y-105295120D01*
X62991240Y-106294370D01*
X63099990Y-106403120D01*
X63450767Y-106403120D01*
X63610648Y-106336895D01*
X63733015Y-106214528D01*
X63799240Y-106054647D01*
X63799240Y-105403870D01*
X63690490Y-105295120D01*
X62991240Y-105295120D01*
X62737240Y-105295120D01*
X62037990Y-105295120D01*
X61929240Y-105403870D01*
X43810760Y-105403870D01*
X43810760Y-104281593D01*
X61929240Y-104281593D01*
X61929240Y-104932370D01*
X62037990Y-105041120D01*
X62737240Y-105041120D01*
X62737240Y-104041870D01*
X62991240Y-104041870D01*
X62991240Y-105041120D01*
X63690490Y-105041120D01*
X63799240Y-104932370D01*
X63799240Y-104281593D01*
X63733015Y-104121712D01*
X63610648Y-103999345D01*
X63450767Y-103933120D01*
X63099990Y-103933120D01*
X62991240Y-104041870D01*
X62737240Y-104041870D01*
X62628490Y-103933120D01*
X62277713Y-103933120D01*
X62117832Y-103999345D01*
X61995465Y-104121712D01*
X61929240Y-104281593D01*
X43810760Y-104281593D01*
X43810760Y-98498896D01*
X43830989Y-98490538D01*
X44206858Y-98115324D01*
X44410528Y-97624833D01*
X44410991Y-97093737D01*
X44208178Y-96602891D01*
X43832964Y-96227022D01*
X43810760Y-96217802D01*
X43810760Y-95122566D01*
X49138833Y-89794494D01*
X49159047Y-89802888D01*
X49690143Y-89803351D01*
X50180989Y-89600538D01*
X50556858Y-89225324D01*
X50760528Y-88734833D01*
X50760991Y-88203737D01*
X50558178Y-87712891D01*
X50182964Y-87337022D01*
X49692473Y-87133352D01*
X49161377Y-87132889D01*
X48670531Y-87335702D01*
X48294662Y-87710916D01*
X48090992Y-88201407D01*
X48090529Y-88732503D01*
X48099710Y-88754723D01*
X42556037Y-94298397D01*
X42396709Y-94536848D01*
X42340760Y-94818120D01*
X42340760Y-96217344D01*
X42320531Y-96225702D01*
X41944662Y-96600916D01*
X41740992Y-97091407D01*
X41740529Y-97622503D01*
X37500823Y-97622503D01*
X48638327Y-86485000D01*
X51750000Y-86485000D01*
X52031272Y-86429051D01*
X52269723Y-86269723D01*
X85544027Y-52995420D01*
X85599460Y-52995420D01*
X85599460Y-54077716D01*
X85727723Y-54722538D01*
X86092985Y-55269191D01*
X86639638Y-55634453D01*
X87284460Y-55762716D01*
X87929282Y-55634453D01*
X88475935Y-55269191D01*
X88841197Y-54722538D01*
X88969460Y-54077716D01*
X88969460Y-50443124D01*
X88841197Y-49798302D01*
X88475935Y-49251649D01*
X87929282Y-48886387D01*
X87284460Y-48758124D01*
X86639638Y-48886387D01*
X86092985Y-49251649D01*
X85727723Y-49798302D01*
X85599460Y-50443124D01*
X85599460Y-51525420D01*
X85239580Y-51525420D01*
X84958308Y-51581369D01*
X84719856Y-51740697D01*
X51445554Y-85015000D01*
X48333880Y-85015000D01*
X48052608Y-85070949D01*
X47814157Y-85230276D01*
X31932688Y-101111746D01*
X31912473Y-101103352D01*
X31381377Y-101102889D01*
X30890531Y-101305702D01*
X30514662Y-101680916D01*
X30310992Y-102171407D01*
X30310529Y-102702503D01*
X30319710Y-102724723D01*
X29856037Y-103188397D01*
X29696709Y-103426848D01*
X29640760Y-103708120D01*
X29640760Y-121222543D01*
X29361062Y-121409431D01*
X29105760Y-121791517D01*
X28850458Y-121409431D01*
X28567249Y-121220197D01*
X28525882Y-103109097D01*
X67477740Y-65105508D01*
X67480350Y-65101704D01*
X67484183Y-65099143D01*
X67561357Y-64983645D01*
X67639994Y-64869038D01*
X67640950Y-64864525D01*
X67643511Y-64860692D01*
X67670618Y-64724415D01*
X67699404Y-64588476D01*
X67698560Y-64583943D01*
X67699460Y-64579420D01*
X67699460Y-55574198D01*
X68155935Y-55269191D01*
X68521197Y-54722538D01*
X68649460Y-54077716D01*
X68649460Y-52387420D01*
X75439460Y-52387420D01*
X75439460Y-54137420D01*
X75616324Y-54772574D01*
X76022788Y-55291697D01*
X76596971Y-55615757D01*
X76736181Y-55650074D01*
X76997460Y-55581545D01*
X76997460Y-52387420D01*
X77251460Y-52387420D01*
X77251460Y-55581545D01*
X77512739Y-55650074D01*
X77651949Y-55615757D01*
X78226132Y-55291697D01*
X78632596Y-54772574D01*
X78809460Y-54137420D01*
X78809460Y-52387420D01*
X77251460Y-52387420D01*
X76997460Y-52387420D01*
X75439460Y-52387420D01*
X68649460Y-52387420D01*
X68649460Y-50443124D01*
X68637585Y-50383420D01*
X75439460Y-50383420D01*
X75439460Y-52133420D01*
X76997460Y-52133420D01*
X76997460Y-48939295D01*
X77251460Y-48939295D01*
X77251460Y-52133420D01*
X78809460Y-52133420D01*
X78809460Y-50383420D01*
X78632596Y-49748266D01*
X78226132Y-49229143D01*
X77651949Y-48905083D01*
X77512739Y-48870766D01*
X77251460Y-48939295D01*
X76997460Y-48939295D01*
X76736181Y-48870766D01*
X76596971Y-48905083D01*
X76022788Y-49229143D01*
X75616324Y-49748266D01*
X75439460Y-50383420D01*
X68637585Y-50383420D01*
X68521197Y-49798302D01*
X68155935Y-49251649D01*
X67609282Y-48886387D01*
X66964460Y-48758124D01*
X66319638Y-48886387D01*
X65772985Y-49251649D01*
X65407723Y-49798302D01*
X65279460Y-50443124D01*
X65279460Y-54077716D01*
X65407723Y-54722538D01*
X65772985Y-55269191D01*
X66229460Y-55574198D01*
X66229460Y-64269654D01*
X27491020Y-102065021D01*
X20140778Y-102065003D01*
X20132418Y-102044771D01*
X19757204Y-101668902D01*
X19266713Y-101465232D01*
X18911983Y-101464923D01*
X19208785Y-101168120D01*
X20850760Y-101168120D01*
X20862501Y-101165785D01*
X20874323Y-101167683D01*
X20983605Y-101141696D01*
X21093764Y-101119784D01*
X21103718Y-101113133D01*
X21115366Y-101110363D01*
X21206378Y-101044537D01*
X21299773Y-100982133D01*
X21306425Y-100972178D01*
X21316125Y-100965162D01*
X25598487Y-96352503D01*
X26500529Y-96352503D01*
X26703342Y-96843349D01*
X27078556Y-97219218D01*
X27569047Y-97422888D01*
X28100143Y-97423351D01*
X28590989Y-97220538D01*
X28966858Y-96845324D01*
X29170528Y-96354833D01*
X29170991Y-95823737D01*
X29084665Y-95614812D01*
X39030287Y-84115390D01*
X39081276Y-84025655D01*
X39138109Y-83939486D01*
X39142147Y-83918529D01*
X39152691Y-83899973D01*
X39165459Y-83797551D01*
X39184989Y-83696197D01*
X39147963Y-77512797D01*
X45510554Y-77512797D01*
X45690580Y-77948492D01*
X46023635Y-78282129D01*
X46459015Y-78462914D01*
X46930437Y-78463326D01*
X47366132Y-78283300D01*
X47699769Y-77950245D01*
X47880554Y-77514865D01*
X47880966Y-77043443D01*
X47700940Y-76607748D01*
X47367885Y-76274111D01*
X46932505Y-76093326D01*
X46461083Y-76092914D01*
X46025388Y-76272940D01*
X45691751Y-76605995D01*
X45510966Y-77041375D01*
X45510554Y-77512797D01*
X39147963Y-77512797D01*
X39092073Y-68179173D01*
X39205229Y-68132418D01*
X39581098Y-67757204D01*
X39784768Y-67266713D01*
X39785231Y-66735617D01*
X39582418Y-66244771D01*
X39207204Y-65868902D01*
X38716713Y-65665232D01*
X38185617Y-65664769D01*
X37694771Y-65867582D01*
X37318902Y-66242796D01*
X37115232Y-66733287D01*
X37114769Y-67264383D01*
X37317582Y-67755229D01*
X37692796Y-68131098D01*
X37822083Y-68184783D01*
X37913582Y-83465132D01*
X28137901Y-94768063D01*
X28102473Y-94753352D01*
X27571377Y-94752889D01*
X27080531Y-94955702D01*
X26704662Y-95330916D01*
X26500992Y-95821407D01*
X26500529Y-96352503D01*
X25598487Y-96352503D01*
X36665365Y-84432042D01*
X36723590Y-84337487D01*
X36785659Y-84245416D01*
X36788306Y-84232389D01*
X36795277Y-84221068D01*
X36812884Y-84111430D01*
X36834995Y-84002613D01*
X36880133Y-73034107D01*
X37005229Y-72982418D01*
X37381098Y-72607204D01*
X37584768Y-72116713D01*
X37585231Y-71585617D01*
X37382418Y-71094771D01*
X37007204Y-70718902D01*
X36516713Y-70515232D01*
X35985617Y-70514769D01*
X35494771Y-70717582D01*
X35118902Y-71092796D01*
X34915232Y-71583287D01*
X34914769Y-72114383D01*
X35117582Y-72605229D01*
X35492796Y-72981098D01*
X35610139Y-73029823D01*
X35566025Y-83749573D01*
X32980786Y-86534210D01*
X32980991Y-86298737D01*
X32778178Y-85807891D01*
X32402964Y-85432022D01*
X31912473Y-85228352D01*
X31381377Y-85227889D01*
X30890531Y-85430702D01*
X30514662Y-85805916D01*
X30310992Y-86296407D01*
X30310529Y-86827503D01*
X30354352Y-86933563D01*
X25621076Y-91538422D01*
X25730528Y-91274833D01*
X25730991Y-90743737D01*
X25528178Y-90252891D01*
X25152964Y-89877022D01*
X24662473Y-89673352D01*
X24131377Y-89672889D01*
X23640531Y-89875702D01*
X23264662Y-90250916D01*
X23060992Y-90741407D01*
X23060529Y-91272503D01*
X23129345Y-91439051D01*
X12984601Y-102367995D01*
X12926706Y-102462031D01*
X12864796Y-102553501D01*
X12862000Y-102567131D01*
X12854705Y-102578980D01*
X12837202Y-102688029D01*
X12815011Y-102796212D01*
X8480760Y-102796212D01*
X8480760Y-95983822D01*
X8555015Y-95936040D01*
X8654339Y-95790675D01*
X8689282Y-95618120D01*
X8689282Y-94018120D01*
X8658950Y-93856919D01*
X8563680Y-93708865D01*
X8480760Y-93652208D01*
X8480760Y-90858686D01*
X8808300Y-90531146D01*
X8720992Y-90741407D01*
X8720529Y-91272503D01*
X8923342Y-91763349D01*
X9298556Y-92139218D01*
X9789047Y-92342888D01*
X10320143Y-92343351D01*
X10810989Y-92140538D01*
X11186858Y-91765324D01*
X11237602Y-91643120D01*
X13953664Y-91643120D01*
X14003342Y-91763349D01*
X14378556Y-92139218D01*
X14869047Y-92342888D01*
X15400143Y-92343351D01*
X15890989Y-92140538D01*
X16266858Y-91765324D01*
X16470528Y-91274833D01*
X16470991Y-90743737D01*
X16268178Y-90252891D01*
X15892964Y-89877022D01*
X15402473Y-89673352D01*
X15056890Y-89673051D01*
X15155229Y-89632418D01*
X15531098Y-89257204D01*
X15540318Y-89235000D01*
X25259224Y-89235000D01*
X25267582Y-89255229D01*
X25642796Y-89631098D01*
X26133287Y-89834768D01*
X26664383Y-89835231D01*
X27155229Y-89632418D01*
X27531098Y-89257204D01*
X27734768Y-88766713D01*
X27735231Y-88235617D01*
X27532418Y-87744771D01*
X27157204Y-87368902D01*
X26666713Y-87165232D01*
X26135617Y-87164769D01*
X25644771Y-87367582D01*
X25268902Y-87742796D01*
X25259682Y-87765000D01*
X15540776Y-87765000D01*
X15532418Y-87744771D01*
X15157204Y-87368902D01*
X14666713Y-87165232D01*
X14135617Y-87164769D01*
X13644771Y-87367582D01*
X13268902Y-87742796D01*
X13259682Y-87765000D01*
X9800000Y-87765000D01*
X9518728Y-87820949D01*
X9280276Y-87980277D01*
X7226037Y-90034517D01*
X7066709Y-90272968D01*
X7010760Y-90554240D01*
X7010760Y-93652418D01*
X6936505Y-93700200D01*
X6837181Y-93845565D01*
X6802238Y-94018120D01*
X6802238Y-95618120D01*
X6832570Y-95779321D01*
X6927840Y-95927375D01*
X7010760Y-95984032D01*
X7010760Y-106282310D01*
X6760531Y-106385702D01*
X6384662Y-106760916D01*
X6180992Y-107251407D01*
X6180529Y-107782503D01*
X635000Y-107782503D01*
X635000Y-95053870D01*
X3810760Y-95053870D01*
X3810760Y-95704647D01*
X3876985Y-95864528D01*
X3999352Y-95986895D01*
X4159233Y-96053120D01*
X4510010Y-96053120D01*
X4618760Y-95944370D01*
X4618760Y-94945120D01*
X4872760Y-94945120D01*
X4872760Y-95944370D01*
X4981510Y-96053120D01*
X5332287Y-96053120D01*
X5492168Y-95986895D01*
X5614535Y-95864528D01*
X5680760Y-95704647D01*
X5680760Y-95053870D01*
X5572010Y-94945120D01*
X4872760Y-94945120D01*
X4618760Y-94945120D01*
X3919510Y-94945120D01*
X3810760Y-95053870D01*
X635000Y-95053870D01*
X635000Y-93931593D01*
X3810760Y-93931593D01*
X3810760Y-94582370D01*
X3919510Y-94691120D01*
X4618760Y-94691120D01*
X4618760Y-93691870D01*
X4872760Y-93691870D01*
X4872760Y-94691120D01*
X5572010Y-94691120D01*
X5680760Y-94582370D01*
X5680760Y-93931593D01*
X5614535Y-93771712D01*
X5492168Y-93649345D01*
X5332287Y-93583120D01*
X4981510Y-93583120D01*
X4872760Y-93691870D01*
X4618760Y-93691870D01*
X4510010Y-93583120D01*
X4159233Y-93583120D01*
X3999352Y-93649345D01*
X3876985Y-93771712D01*
X3810760Y-93931593D01*
X635000Y-93931593D01*
X635000Y-64764383D01*
X28764769Y-64764383D01*
X28967582Y-65255229D01*
X29342796Y-65631098D01*
X29833287Y-65834768D01*
X30364383Y-65835231D01*
X30855229Y-65632418D01*
X31231098Y-65257204D01*
X31434768Y-64766713D01*
X31434883Y-64635000D01*
X37217904Y-64635000D01*
X37267582Y-64755229D01*
X37642796Y-65131098D01*
X38133287Y-65334768D01*
X38664383Y-65335231D01*
X39155229Y-65132418D01*
X39531098Y-64757204D01*
X39734768Y-64266713D01*
X39735231Y-63735617D01*
X39532418Y-63244771D01*
X39157204Y-62868902D01*
X38666713Y-62665232D01*
X38135617Y-62664769D01*
X37644771Y-62867582D01*
X37268902Y-63242796D01*
X37218158Y-63365000D01*
X30847807Y-63365000D01*
X30366713Y-63165232D01*
X29835617Y-63164769D01*
X29344771Y-63367582D01*
X28968902Y-63742796D01*
X28765232Y-64233287D01*
X28764769Y-64764383D01*
X635000Y-64764383D01*
X635000Y-61264383D01*
X34714769Y-61264383D01*
X34917582Y-61755229D01*
X35292796Y-62131098D01*
X35783287Y-62334768D01*
X36314383Y-62335231D01*
X36805229Y-62132418D01*
X37181098Y-61757204D01*
X37231842Y-61635000D01*
X38550000Y-61635000D01*
X38670980Y-61610936D01*
X38792322Y-61586946D01*
X38792635Y-61586737D01*
X38793004Y-61586664D01*
X38895552Y-61518144D01*
X38998491Y-61449535D01*
X38998701Y-61449221D01*
X38999013Y-61449013D01*
X39067538Y-61346458D01*
X39136381Y-61243686D01*
X39136455Y-61243317D01*
X39136664Y-61243004D01*
X39160736Y-61121986D01*
X39185000Y-61000738D01*
X39218516Y-32176170D01*
X72899460Y-32176170D01*
X72899460Y-35026947D01*
X72965685Y-35186828D01*
X73088052Y-35309195D01*
X73247933Y-35375420D01*
X74348710Y-35375420D01*
X74457460Y-35266670D01*
X74457460Y-32067420D01*
X74711460Y-32067420D01*
X74711460Y-35266670D01*
X74820210Y-35375420D01*
X75920987Y-35375420D01*
X76080868Y-35309195D01*
X76203235Y-35186828D01*
X76269460Y-35026947D01*
X76269460Y-32176170D01*
X76160710Y-32067420D01*
X74711460Y-32067420D01*
X74457460Y-32067420D01*
X73008210Y-32067420D01*
X72899460Y-32176170D01*
X39218516Y-32176170D01*
X39222379Y-28853893D01*
X72899460Y-28853893D01*
X72899460Y-31704670D01*
X73008210Y-31813420D01*
X74457460Y-31813420D01*
X74457460Y-28614170D01*
X74711460Y-28614170D01*
X74711460Y-31813420D01*
X76160710Y-31813420D01*
X76269460Y-31704670D01*
X76269460Y-28853893D01*
X76203235Y-28694012D01*
X76080868Y-28571645D01*
X75920987Y-28505420D01*
X74820210Y-28505420D01*
X74711460Y-28614170D01*
X74457460Y-28614170D01*
X74348710Y-28505420D01*
X73247933Y-28505420D01*
X73088052Y-28571645D01*
X72965685Y-28694012D01*
X72899460Y-28853893D01*
X39222379Y-28853893D01*
X39227904Y-24102797D01*
X44000554Y-24102797D01*
X44180580Y-24538492D01*
X44513635Y-24872129D01*
X44949015Y-25052914D01*
X45420437Y-25053326D01*
X45856132Y-24873300D01*
X46189769Y-24540245D01*
X46370554Y-24104865D01*
X46370966Y-23633443D01*
X46265951Y-23379286D01*
X56064319Y-23379286D01*
X56662124Y-24826086D01*
X57768091Y-25933985D01*
X59213846Y-26534315D01*
X60779286Y-26535681D01*
X62226086Y-25937876D01*
X63333985Y-24831909D01*
X63934315Y-23386154D01*
X63935681Y-21820714D01*
X63337876Y-20373914D01*
X62231909Y-19266015D01*
X60786154Y-18665685D01*
X59220714Y-18664319D01*
X57773914Y-19262124D01*
X56666015Y-20368091D01*
X56065685Y-21813846D01*
X56064319Y-23379286D01*
X46265951Y-23379286D01*
X46190940Y-23197748D01*
X45857885Y-22864111D01*
X45422505Y-22683326D01*
X44951083Y-22682914D01*
X44515388Y-22862940D01*
X44181751Y-23195995D01*
X44000966Y-23631375D01*
X44000554Y-24102797D01*
X39227904Y-24102797D01*
X39234264Y-18633950D01*
X48791812Y-18618119D01*
X48912807Y-18593844D01*
X49033764Y-18569784D01*
X49034209Y-18569486D01*
X49034735Y-18569381D01*
X49137263Y-18500628D01*
X49239773Y-18432133D01*
X49874773Y-17797133D01*
X50012424Y-17591124D01*
X50060761Y-17348120D01*
X50060760Y-17348115D01*
X50060760Y-7520515D01*
X50440458Y-7266809D01*
X50751527Y-6801262D01*
X50860760Y-6252111D01*
X50860760Y-5584129D01*
X50751527Y-5034978D01*
X50472991Y-4618120D01*
X54332238Y-4618120D01*
X54332238Y-7218120D01*
X54362570Y-7379321D01*
X54457840Y-7527375D01*
X54603205Y-7626699D01*
X54775760Y-7661642D01*
X55225166Y-7661642D01*
X55256037Y-7707843D01*
X57796036Y-10247843D01*
X58034487Y-10407171D01*
X58081154Y-10416453D01*
X58315760Y-10463120D01*
X62125760Y-10463120D01*
X62407032Y-10407171D01*
X62645483Y-10247843D01*
X64641572Y-8251755D01*
X64654390Y-8282778D01*
X65198239Y-8827577D01*
X65909176Y-9122783D01*
X66678967Y-9123455D01*
X67390418Y-8829490D01*
X67935217Y-8285641D01*
X68230423Y-7574704D01*
X68230451Y-7541621D01*
X75760451Y-7541621D01*
X76031628Y-8197920D01*
X76533319Y-8700487D01*
X77189144Y-8972809D01*
X77899261Y-8973429D01*
X78555560Y-8702252D01*
X79058127Y-8200561D01*
X79330449Y-7544736D01*
X79331069Y-6834619D01*
X79059892Y-6178320D01*
X78558201Y-5675753D01*
X77902376Y-5403431D01*
X77192259Y-5402811D01*
X76535960Y-5673988D01*
X76033393Y-6175679D01*
X75761071Y-6831504D01*
X75760451Y-7541621D01*
X68230451Y-7541621D01*
X68231095Y-6804913D01*
X67937130Y-6093462D01*
X67393281Y-5548663D01*
X66682344Y-5253457D01*
X65912553Y-5252785D01*
X65201102Y-5546750D01*
X64656303Y-6090599D01*
X64491367Y-6487809D01*
X64431154Y-6499787D01*
X64384487Y-6509069D01*
X64146036Y-6668397D01*
X61821314Y-8993120D01*
X58620207Y-8993120D01*
X57116722Y-7489636D01*
X57184339Y-7390675D01*
X57219282Y-7218120D01*
X57219282Y-7109273D01*
X57390864Y-7322620D01*
X57883941Y-7592487D01*
X57966721Y-7610024D01*
X58188760Y-7538275D01*
X58188760Y-6045120D01*
X58442760Y-6045120D01*
X58442760Y-7538275D01*
X58664799Y-7610024D01*
X58747579Y-7592487D01*
X59240656Y-7322620D01*
X59592926Y-6884603D01*
X59750760Y-6345120D01*
X59750760Y-6045120D01*
X58442760Y-6045120D01*
X58188760Y-6045120D01*
X58168760Y-6045120D01*
X58168760Y-5791120D01*
X58188760Y-5791120D01*
X58188760Y-4297965D01*
X58442760Y-4297965D01*
X58442760Y-5791120D01*
X59750760Y-5791120D01*
X59750760Y-5491120D01*
X59592926Y-4951637D01*
X59240656Y-4513620D01*
X58747579Y-4243753D01*
X58664799Y-4226216D01*
X58442760Y-4297965D01*
X58188760Y-4297965D01*
X57966721Y-4226216D01*
X57883941Y-4243753D01*
X57390864Y-4513620D01*
X57219282Y-4726967D01*
X57219282Y-4618120D01*
X57188950Y-4456919D01*
X57093680Y-4308865D01*
X56948315Y-4209541D01*
X56775760Y-4174598D01*
X54775760Y-4174598D01*
X54614559Y-4204930D01*
X54466505Y-4300200D01*
X54367181Y-4445565D01*
X54332238Y-4618120D01*
X50472991Y-4618120D01*
X50440458Y-4569431D01*
X49974911Y-4258362D01*
X49425760Y-4149129D01*
X48876609Y-4258362D01*
X48411062Y-4569431D01*
X48158968Y-4946716D01*
X47810656Y-4513620D01*
X47317579Y-4243753D01*
X47234799Y-4226216D01*
X47012760Y-4297965D01*
X47012760Y-5791120D01*
X47032760Y-5791120D01*
X47032760Y-6045120D01*
X47012760Y-6045120D01*
X47012760Y-7538275D01*
X47234799Y-7610024D01*
X47317579Y-7592487D01*
X47810656Y-7322620D01*
X48158968Y-6889524D01*
X48411062Y-7266809D01*
X48790760Y-7520515D01*
X48790760Y-17085094D01*
X48527298Y-17348556D01*
X38598948Y-17365001D01*
X38478393Y-17389188D01*
X38357678Y-17413054D01*
X38356920Y-17413560D01*
X38356025Y-17413739D01*
X38253890Y-17482229D01*
X38151509Y-17550465D01*
X38151001Y-17551223D01*
X38150244Y-17551731D01*
X38082079Y-17654114D01*
X38013619Y-17756314D01*
X38013440Y-17757208D01*
X38012934Y-17757968D01*
X37989143Y-17878621D01*
X37965000Y-17999262D01*
X37915738Y-60365000D01*
X37232096Y-60365000D01*
X37182418Y-60244771D01*
X36807204Y-59868902D01*
X36316713Y-59665232D01*
X35785617Y-59664769D01*
X35294771Y-59867582D01*
X34918902Y-60242796D01*
X34715232Y-60733287D01*
X34714769Y-61264383D01*
X635000Y-61264383D01*
X635000Y-48610000D01*
X4931009Y-48610000D01*
X5040242Y-49159151D01*
X5351311Y-49624698D01*
X5473703Y-49706478D01*
X5400000Y-49706478D01*
X5238799Y-49736810D01*
X5090745Y-49832080D01*
X4991421Y-49977445D01*
X4956478Y-50150000D01*
X4956478Y-52150000D01*
X4986810Y-52311201D01*
X5082080Y-52459255D01*
X5227445Y-52558579D01*
X5400000Y-52593522D01*
X5965000Y-52593522D01*
X5965000Y-53147301D01*
X5618902Y-53492796D01*
X5415232Y-53983287D01*
X5414769Y-54514383D01*
X5617582Y-55005229D01*
X5992796Y-55381098D01*
X6483287Y-55584768D01*
X7014383Y-55585231D01*
X7505229Y-55382418D01*
X7881098Y-55007204D01*
X8084768Y-54516713D01*
X8085231Y-53985617D01*
X7882418Y-53494771D01*
X7507204Y-53118902D01*
X7435000Y-53088920D01*
X7435000Y-52593522D01*
X8000000Y-52593522D01*
X8161201Y-52563190D01*
X8309255Y-52467920D01*
X8408579Y-52322555D01*
X8443522Y-52150000D01*
X8443522Y-50150000D01*
X8413190Y-49988799D01*
X8317920Y-49840745D01*
X8172555Y-49741421D01*
X8000000Y-49706478D01*
X7926297Y-49706478D01*
X8048689Y-49624698D01*
X8359758Y-49159151D01*
X8468991Y-48610000D01*
X8359758Y-48060849D01*
X8048689Y-47595302D01*
X7583142Y-47284233D01*
X7435000Y-47254766D01*
X7435000Y-46440776D01*
X7455229Y-46432418D01*
X7831098Y-46057204D01*
X8034768Y-45566713D01*
X8035231Y-45035617D01*
X7832418Y-44544771D01*
X7457204Y-44168902D01*
X6966713Y-43965232D01*
X6435617Y-43964769D01*
X5944771Y-44167582D01*
X5568902Y-44542796D01*
X5365232Y-45033287D01*
X5364769Y-45564383D01*
X5567582Y-46055229D01*
X5942796Y-46431098D01*
X5965000Y-46440318D01*
X5965000Y-47254766D01*
X5816858Y-47284233D01*
X5351311Y-47595302D01*
X5040242Y-48060849D01*
X4931009Y-48610000D01*
X635000Y-48610000D01*
X635000Y-23389383D01*
X3639769Y-23389383D01*
X3842582Y-23880229D01*
X4217796Y-24256098D01*
X4708287Y-24459768D01*
X5239383Y-24460231D01*
X5361675Y-24409701D01*
X6400987Y-25449013D01*
X6606995Y-25586664D01*
X6850000Y-25635000D01*
X18765000Y-25635000D01*
X18765000Y-34750000D01*
X18784458Y-34847821D01*
X18796285Y-34946859D01*
X18808477Y-34968576D01*
X18813336Y-34993004D01*
X18868752Y-35075940D01*
X18917575Y-35162905D01*
X27953648Y-45720358D01*
X27865232Y-45933287D01*
X27864769Y-46464383D01*
X28067582Y-46955229D01*
X28442796Y-47331098D01*
X28933287Y-47534768D01*
X29464383Y-47535231D01*
X29955229Y-47332418D01*
X30331098Y-46957204D01*
X30534768Y-46466713D01*
X30535231Y-45935617D01*
X30332418Y-45444771D01*
X29957204Y-45068902D01*
X29466713Y-44865232D01*
X28935617Y-44864769D01*
X28904142Y-44877774D01*
X20035000Y-34515359D01*
X20035000Y-25050005D01*
X20035001Y-25050000D01*
X19986664Y-24806996D01*
X19849013Y-24600987D01*
X19799013Y-24550987D01*
X19593004Y-24413336D01*
X19350000Y-24365000D01*
X16122765Y-24365000D01*
X16431098Y-24057204D01*
X16481842Y-23935000D01*
X22465000Y-23935000D01*
X22465000Y-33700000D01*
X22485293Y-33802022D01*
X22499048Y-33905140D01*
X22509334Y-33922887D01*
X22513336Y-33943004D01*
X22571131Y-34029500D01*
X22623297Y-34119499D01*
X30646725Y-43237031D01*
X30565232Y-43433287D01*
X30564769Y-43964383D01*
X30767582Y-44455229D01*
X31142796Y-44831098D01*
X31633287Y-45034768D01*
X32164383Y-45035231D01*
X32655229Y-44832418D01*
X33031098Y-44457204D01*
X33234768Y-43966713D01*
X33235231Y-43435617D01*
X33032418Y-42944771D01*
X32657204Y-42568902D01*
X32166713Y-42365232D01*
X31635617Y-42364769D01*
X31588126Y-42384392D01*
X23735000Y-33460384D01*
X23735000Y-23300000D01*
X23686664Y-23056996D01*
X23549013Y-22850987D01*
X23343004Y-22713336D01*
X23100000Y-22665000D01*
X16482096Y-22665000D01*
X16432418Y-22544771D01*
X16123187Y-22235000D01*
X25565000Y-22235000D01*
X25565000Y-31600000D01*
X25584007Y-31695557D01*
X25594843Y-31792380D01*
X25608016Y-31816257D01*
X25613336Y-31843004D01*
X25667466Y-31924015D01*
X25714528Y-32009319D01*
X33557398Y-41311327D01*
X33465232Y-41533287D01*
X33464769Y-42064383D01*
X33667582Y-42555229D01*
X34042796Y-42931098D01*
X34533287Y-43134768D01*
X35064383Y-43135231D01*
X35555229Y-42932418D01*
X35931098Y-42557204D01*
X36134768Y-42066713D01*
X36135231Y-41535617D01*
X35932418Y-41044771D01*
X35557204Y-40668902D01*
X35066713Y-40465232D01*
X34535617Y-40464769D01*
X34512763Y-40474212D01*
X26835000Y-31368028D01*
X26835000Y-21600000D01*
X26786664Y-21356996D01*
X26649013Y-21150987D01*
X26443004Y-21013336D01*
X26200000Y-20965000D01*
X10735000Y-20965000D01*
X10735000Y-20486642D01*
X10914240Y-20486642D01*
X11075441Y-20456310D01*
X11223495Y-20361040D01*
X11322819Y-20215675D01*
X11357762Y-20043120D01*
X11357762Y-19150000D01*
X14056478Y-19150000D01*
X14056478Y-20050000D01*
X14086810Y-20211201D01*
X14182080Y-20359255D01*
X14327445Y-20458579D01*
X14500000Y-20493522D01*
X16200000Y-20493522D01*
X16361201Y-20463190D01*
X16509255Y-20367920D01*
X16600076Y-20235000D01*
X18138564Y-20235000D01*
X18167582Y-20305229D01*
X18542796Y-20681098D01*
X19033287Y-20884768D01*
X19564383Y-20885231D01*
X20055229Y-20682418D01*
X20431098Y-20307204D01*
X20634768Y-19816713D01*
X20635231Y-19285617D01*
X20432418Y-18794771D01*
X20057204Y-18418902D01*
X19566713Y-18215232D01*
X19035617Y-18214769D01*
X18544771Y-18417582D01*
X18168902Y-18792796D01*
X18097397Y-18965000D01*
X16597876Y-18965000D01*
X16517920Y-18840745D01*
X16372555Y-18741421D01*
X16200000Y-18706478D01*
X14500000Y-18706478D01*
X14338799Y-18736810D01*
X14190745Y-18832080D01*
X14091421Y-18977445D01*
X14056478Y-19150000D01*
X11357762Y-19150000D01*
X11357762Y-19143120D01*
X11327430Y-18981919D01*
X11232160Y-18833865D01*
X11086795Y-18734541D01*
X10914240Y-18699598D01*
X9214240Y-18699598D01*
X9053039Y-18729930D01*
X8904985Y-18825200D01*
X8805661Y-18970565D01*
X8770718Y-19143120D01*
X8770718Y-20043120D01*
X8801050Y-20204321D01*
X8896320Y-20352375D01*
X9041685Y-20451699D01*
X9214240Y-20486642D01*
X9465000Y-20486642D01*
X9465000Y-22017904D01*
X9344771Y-22067582D01*
X8968902Y-22442796D01*
X8765232Y-22933287D01*
X8764769Y-23464383D01*
X8967582Y-23955229D01*
X9342796Y-24331098D01*
X9424441Y-24365000D01*
X7113026Y-24365000D01*
X6259881Y-23511855D01*
X6309768Y-23391713D01*
X6310231Y-22860617D01*
X6107418Y-22369771D01*
X5732204Y-21993902D01*
X5710000Y-21984682D01*
X5710000Y-20461642D01*
X5924240Y-20461642D01*
X6085441Y-20431310D01*
X6233495Y-20336040D01*
X6332819Y-20190675D01*
X6367762Y-20018120D01*
X6367762Y-19118120D01*
X6337430Y-18956919D01*
X6242160Y-18808865D01*
X6096795Y-18709541D01*
X5924240Y-18674598D01*
X4224240Y-18674598D01*
X4063039Y-18704930D01*
X3914985Y-18800200D01*
X3815661Y-18945565D01*
X3780718Y-19118120D01*
X3780718Y-20018120D01*
X3811050Y-20179321D01*
X3906320Y-20327375D01*
X4051685Y-20426699D01*
X4224240Y-20461642D01*
X4240000Y-20461642D01*
X4240000Y-21984224D01*
X4219771Y-21992582D01*
X3843902Y-22367796D01*
X3640232Y-22858287D01*
X3639769Y-23389383D01*
X635000Y-23389383D01*
X635000Y-12744632D01*
X3428854Y-12744632D01*
X3691115Y-13085152D01*
X4680858Y-13486865D01*
X5748991Y-13479241D01*
X6401655Y-13208898D01*
X4554517Y-15056037D01*
X4395189Y-15294488D01*
X4339240Y-15575760D01*
X4339240Y-15774598D01*
X4224240Y-15774598D01*
X4063039Y-15804930D01*
X3914985Y-15900200D01*
X3815661Y-16045565D01*
X3780718Y-16218120D01*
X3780718Y-17118120D01*
X3811050Y-17279321D01*
X3906320Y-17427375D01*
X4051685Y-17526699D01*
X4224240Y-17561642D01*
X5924240Y-17561642D01*
X6085441Y-17531310D01*
X6233495Y-17436040D01*
X6332819Y-17290675D01*
X6367762Y-17118120D01*
X6367762Y-16243120D01*
X8770718Y-16243120D01*
X8770718Y-17143120D01*
X8801050Y-17304321D01*
X8896320Y-17452375D01*
X9041685Y-17551699D01*
X9214240Y-17586642D01*
X10914240Y-17586642D01*
X11075441Y-17556310D01*
X11223495Y-17461040D01*
X11245988Y-17428120D01*
X11606880Y-17428120D01*
X11888152Y-17372171D01*
X12126603Y-17212843D01*
X14404447Y-14935000D01*
X15713880Y-14935000D01*
X15995152Y-14879051D01*
X16233603Y-14719723D01*
X17332324Y-13621003D01*
X17409069Y-13652870D01*
X17979947Y-13653368D01*
X17998894Y-13645539D01*
X15837956Y-15806478D01*
X14500000Y-15806478D01*
X14338799Y-15836810D01*
X14190745Y-15932080D01*
X14091421Y-16077445D01*
X14056478Y-16250000D01*
X14056478Y-17150000D01*
X14086810Y-17311201D01*
X14182080Y-17459255D01*
X14327445Y-17558579D01*
X14500000Y-17593522D01*
X16200000Y-17593522D01*
X16361201Y-17563190D01*
X16509255Y-17467920D01*
X16608579Y-17322555D01*
X16643522Y-17150000D01*
X16643522Y-17079804D01*
X20102324Y-13621003D01*
X20179069Y-13652870D01*
X20749947Y-13653368D01*
X21277560Y-13435363D01*
X21451844Y-13261382D01*
X22372103Y-13261382D01*
X22481755Y-13471984D01*
X23018983Y-13665085D01*
X23589214Y-13637898D01*
X23989765Y-13471984D01*
X24099417Y-13261382D01*
X23235760Y-12397725D01*
X22372103Y-13261382D01*
X21451844Y-13261382D01*
X21681584Y-13032043D01*
X21844350Y-12640060D01*
X21981896Y-12972125D01*
X22192498Y-13081777D01*
X23056155Y-12218120D01*
X23415365Y-12218120D01*
X24279022Y-13081777D01*
X24489624Y-12972125D01*
X24571393Y-12744632D01*
X28428854Y-12744632D01*
X28691115Y-13085152D01*
X29680858Y-13486865D01*
X30748991Y-13479241D01*
X31700405Y-13085152D01*
X31962666Y-12744632D01*
X30195760Y-10977725D01*
X28428854Y-12744632D01*
X24571393Y-12744632D01*
X24682725Y-12434897D01*
X24655538Y-11864666D01*
X24489624Y-11464115D01*
X24279022Y-11354463D01*
X23415365Y-12218120D01*
X23056155Y-12218120D01*
X22192498Y-11354463D01*
X21981896Y-11464115D01*
X21853956Y-11820058D01*
X21683003Y-11406320D01*
X21451945Y-11174858D01*
X22372103Y-11174858D01*
X23235760Y-12038515D01*
X24099417Y-11174858D01*
X23989765Y-10964256D01*
X23452537Y-10771155D01*
X22882306Y-10798342D01*
X22481755Y-10964256D01*
X22372103Y-11174858D01*
X21451945Y-11174858D01*
X21279683Y-11002296D01*
X20752451Y-10783370D01*
X20181573Y-10782872D01*
X19653960Y-11000877D01*
X19249936Y-11404197D01*
X19080614Y-11811970D01*
X18913003Y-11406320D01*
X18509683Y-11002296D01*
X17982451Y-10783370D01*
X17411573Y-10782872D01*
X16883960Y-11000877D01*
X16479936Y-11404197D01*
X16310614Y-11811970D01*
X16143003Y-11406320D01*
X15739683Y-11002296D01*
X15212451Y-10783370D01*
X14641573Y-10782872D01*
X14113960Y-11000877D01*
X13709936Y-11404197D01*
X13540614Y-11811970D01*
X13373003Y-11406320D01*
X12969683Y-11002296D01*
X12442451Y-10783370D01*
X11871573Y-10782872D01*
X11343960Y-11000877D01*
X10939936Y-11404197D01*
X10721010Y-11931429D01*
X10720512Y-12502307D01*
X10938517Y-13029920D01*
X11341837Y-13433944D01*
X11869069Y-13652870D01*
X12439947Y-13653368D01*
X12967560Y-13435363D01*
X13371584Y-13032043D01*
X13540906Y-12624270D01*
X13708517Y-13029920D01*
X14111837Y-13433944D01*
X14186628Y-13465000D01*
X14100000Y-13465000D01*
X13840431Y-13516632D01*
X13818728Y-13520949D01*
X13580276Y-13680277D01*
X11302434Y-15958120D01*
X11247768Y-15958120D01*
X11232160Y-15933865D01*
X11086795Y-15834541D01*
X10914240Y-15799598D01*
X9214240Y-15799598D01*
X9053039Y-15829930D01*
X8904985Y-15925200D01*
X8805661Y-16070565D01*
X8770718Y-16243120D01*
X6367762Y-16243120D01*
X6367762Y-16218120D01*
X6337430Y-16056919D01*
X6242160Y-15908865D01*
X6096795Y-15809541D01*
X5924240Y-15774598D01*
X5914848Y-15774598D01*
X11576327Y-10113120D01*
X12291784Y-10113120D01*
X12323517Y-10189920D01*
X12726837Y-10593944D01*
X13254069Y-10812870D01*
X13824947Y-10813368D01*
X14352560Y-10595363D01*
X14756584Y-10192043D01*
X14925906Y-9784270D01*
X15093517Y-10189920D01*
X15496837Y-10593944D01*
X16024069Y-10812870D01*
X16594947Y-10813368D01*
X17122560Y-10595363D01*
X17526584Y-10192043D01*
X17695906Y-9784270D01*
X17863517Y-10189920D01*
X18266837Y-10593944D01*
X18794069Y-10812870D01*
X19364947Y-10813368D01*
X19892560Y-10595363D01*
X20296584Y-10192043D01*
X20465906Y-9784270D01*
X20633517Y-10189920D01*
X21036837Y-10593944D01*
X21564069Y-10812870D01*
X22134947Y-10813368D01*
X22662560Y-10595363D01*
X22975249Y-10283218D01*
X27507015Y-10283218D01*
X27514639Y-11351351D01*
X27908728Y-12302765D01*
X28249248Y-12565026D01*
X30016155Y-10798120D01*
X30375365Y-10798120D01*
X32142272Y-12565026D01*
X32482792Y-12302765D01*
X32884505Y-11313022D01*
X32877173Y-10285750D01*
X34015000Y-10285750D01*
X34015000Y-10936527D01*
X34081225Y-11096408D01*
X34203592Y-11218775D01*
X34363473Y-11285000D01*
X34714250Y-11285000D01*
X34823000Y-11176250D01*
X34823000Y-10177000D01*
X35077000Y-10177000D01*
X35077000Y-11176250D01*
X35185750Y-11285000D01*
X35536527Y-11285000D01*
X35696408Y-11218775D01*
X35818775Y-11096408D01*
X35885000Y-10936527D01*
X35885000Y-10285750D01*
X35776250Y-10177000D01*
X35077000Y-10177000D01*
X34823000Y-10177000D01*
X34123750Y-10177000D01*
X34015000Y-10285750D01*
X32877173Y-10285750D01*
X32876881Y-10244889D01*
X32482792Y-9293475D01*
X32313998Y-9163473D01*
X34015000Y-9163473D01*
X34015000Y-9814250D01*
X34123750Y-9923000D01*
X34823000Y-9923000D01*
X34823000Y-8923750D01*
X35077000Y-8923750D01*
X35077000Y-9923000D01*
X35776250Y-9923000D01*
X35885000Y-9814250D01*
X35885000Y-9163473D01*
X35818775Y-9003592D01*
X35696408Y-8881225D01*
X35536527Y-8815000D01*
X35185750Y-8815000D01*
X35077000Y-8923750D01*
X34823000Y-8923750D01*
X34714250Y-8815000D01*
X34363473Y-8815000D01*
X34203592Y-8881225D01*
X34081225Y-9003592D01*
X34015000Y-9163473D01*
X32313998Y-9163473D01*
X32142272Y-9031214D01*
X30375365Y-10798120D01*
X30016155Y-10798120D01*
X28249248Y-9031214D01*
X27908728Y-9293475D01*
X27507015Y-10283218D01*
X22975249Y-10283218D01*
X23066584Y-10192043D01*
X23285510Y-9664811D01*
X23286008Y-9093933D01*
X23253374Y-9014952D01*
X23416718Y-8851608D01*
X28428854Y-8851608D01*
X30195760Y-10618515D01*
X31962666Y-8851608D01*
X31700405Y-8511088D01*
X30710662Y-8109375D01*
X29642529Y-8116999D01*
X28691115Y-8511088D01*
X28428854Y-8851608D01*
X23416718Y-8851608D01*
X24482576Y-7785750D01*
X34015000Y-7785750D01*
X34015000Y-8436527D01*
X34081225Y-8596408D01*
X34203592Y-8718775D01*
X34363473Y-8785000D01*
X34714250Y-8785000D01*
X34823000Y-8676250D01*
X34823000Y-7677000D01*
X35077000Y-7677000D01*
X35077000Y-8676250D01*
X35185750Y-8785000D01*
X35536527Y-8785000D01*
X35696408Y-8718775D01*
X35818775Y-8596408D01*
X35885000Y-8436527D01*
X35885000Y-7785750D01*
X35776250Y-7677000D01*
X35077000Y-7677000D01*
X34823000Y-7677000D01*
X34123750Y-7677000D01*
X34015000Y-7785750D01*
X24482576Y-7785750D01*
X25604853Y-6663473D01*
X34015000Y-6663473D01*
X34015000Y-7314250D01*
X34123750Y-7423000D01*
X34823000Y-7423000D01*
X34823000Y-6423750D01*
X35077000Y-6423750D01*
X35077000Y-7423000D01*
X35776250Y-7423000D01*
X35885000Y-7314250D01*
X35885000Y-6663473D01*
X35818775Y-6503592D01*
X35696408Y-6381225D01*
X35536527Y-6315000D01*
X35185750Y-6315000D01*
X35077000Y-6423750D01*
X34823000Y-6423750D01*
X34714250Y-6315000D01*
X34363473Y-6315000D01*
X34203592Y-6381225D01*
X34081225Y-6503592D01*
X34015000Y-6663473D01*
X25604853Y-6663473D01*
X26133327Y-6135000D01*
X36395554Y-6135000D01*
X37007164Y-6746611D01*
X37006478Y-6750000D01*
X37006478Y-8350000D01*
X37036810Y-8511201D01*
X37132080Y-8659255D01*
X37215000Y-8715912D01*
X37215000Y-8884298D01*
X37140745Y-8932080D01*
X37041421Y-9077445D01*
X37006478Y-9250000D01*
X37006478Y-10850000D01*
X37036810Y-11011201D01*
X37132080Y-11159255D01*
X37215000Y-11215912D01*
X37215000Y-11750000D01*
X37236213Y-11856642D01*
X37270949Y-12031272D01*
X37430277Y-12269723D01*
X37573626Y-12413072D01*
X37565232Y-12433287D01*
X37564769Y-12964383D01*
X37767582Y-13455229D01*
X38142796Y-13831098D01*
X38633287Y-14034768D01*
X39164383Y-14035231D01*
X39323714Y-13969397D01*
X39461880Y-13996880D01*
X40392238Y-13996880D01*
X40392238Y-14111880D01*
X40422570Y-14273081D01*
X40517840Y-14421135D01*
X40663205Y-14520459D01*
X40835760Y-14555402D01*
X41735760Y-14555402D01*
X41896961Y-14525070D01*
X42045015Y-14429800D01*
X42144339Y-14284435D01*
X42179282Y-14111880D01*
X42179282Y-12411880D01*
X42148950Y-12250679D01*
X42053680Y-12102625D01*
X41908315Y-12003301D01*
X41735760Y-11968358D01*
X40835760Y-11968358D01*
X40674559Y-11998690D01*
X40526505Y-12093960D01*
X40427181Y-12239325D01*
X40392238Y-12411880D01*
X40392238Y-12526880D01*
X40235151Y-12526880D01*
X40235231Y-12435617D01*
X40032418Y-11944771D01*
X39657204Y-11568902D01*
X39166713Y-11365232D01*
X38685000Y-11364812D01*
X38685000Y-11215702D01*
X38759255Y-11167920D01*
X38858579Y-11022555D01*
X38893522Y-10850000D01*
X38893522Y-9713120D01*
X40365718Y-9713120D01*
X40365718Y-11413120D01*
X40396050Y-11574321D01*
X40491320Y-11722375D01*
X40636685Y-11821699D01*
X40809240Y-11856642D01*
X41709240Y-11856642D01*
X41870441Y-11826310D01*
X42018495Y-11731040D01*
X42117819Y-11585675D01*
X42152762Y-11413120D01*
X42152762Y-9713120D01*
X43265718Y-9713120D01*
X43265718Y-11413120D01*
X43296050Y-11574321D01*
X43391320Y-11722375D01*
X43450760Y-11762989D01*
X43450760Y-12078352D01*
X43426505Y-12093960D01*
X43327181Y-12239325D01*
X43292238Y-12411880D01*
X43292238Y-14111880D01*
X43322570Y-14273081D01*
X43417840Y-14421135D01*
X43563205Y-14520459D01*
X43735760Y-14555402D01*
X44635760Y-14555402D01*
X44796961Y-14525070D01*
X44945015Y-14429800D01*
X45044339Y-14284435D01*
X45079282Y-14111880D01*
X45079282Y-12411880D01*
X45048950Y-12250679D01*
X44953680Y-12102625D01*
X44920760Y-12080132D01*
X44920760Y-11727725D01*
X45017819Y-11585675D01*
X45052762Y-11413120D01*
X45052762Y-9713120D01*
X45022430Y-9551919D01*
X44927160Y-9403865D01*
X44781795Y-9304541D01*
X44609240Y-9269598D01*
X43709240Y-9269598D01*
X43548039Y-9299930D01*
X43399985Y-9395200D01*
X43300661Y-9540565D01*
X43265718Y-9713120D01*
X42152762Y-9713120D01*
X42122430Y-9551919D01*
X42027160Y-9403865D01*
X41994240Y-9381372D01*
X41994240Y-9309086D01*
X43641685Y-7661642D01*
X45345760Y-7661642D01*
X45506961Y-7631310D01*
X45655015Y-7536040D01*
X45754339Y-7390675D01*
X45789282Y-7218120D01*
X45789282Y-7109273D01*
X45960864Y-7322620D01*
X46453941Y-7592487D01*
X46536721Y-7610024D01*
X46758760Y-7538275D01*
X46758760Y-6045120D01*
X46738760Y-6045120D01*
X46738760Y-5791120D01*
X46758760Y-5791120D01*
X46758760Y-4297965D01*
X46536721Y-4226216D01*
X46453941Y-4243753D01*
X45960864Y-4513620D01*
X45789282Y-4726967D01*
X45789282Y-4618120D01*
X45758950Y-4456919D01*
X45663680Y-4308865D01*
X45518315Y-4209541D01*
X45345760Y-4174598D01*
X43345760Y-4174598D01*
X43184559Y-4204930D01*
X43036505Y-4300200D01*
X42937181Y-4445565D01*
X42902238Y-4618120D01*
X42902238Y-6322195D01*
X40739517Y-8484917D01*
X40580189Y-8723368D01*
X40524240Y-9004640D01*
X40524240Y-9379592D01*
X40499985Y-9395200D01*
X40400661Y-9540565D01*
X40365718Y-9713120D01*
X38893522Y-9713120D01*
X38893522Y-9250000D01*
X38863190Y-9088799D01*
X38767920Y-8940745D01*
X38685000Y-8884088D01*
X38685000Y-8715702D01*
X38759255Y-8667920D01*
X38858579Y-8522555D01*
X38893522Y-8350000D01*
X38893522Y-6750000D01*
X38863190Y-6588799D01*
X38767920Y-6440745D01*
X38622555Y-6341421D01*
X38608966Y-6338669D01*
X38551130Y-6252111D01*
X38469724Y-6130277D01*
X37219723Y-4880277D01*
X36981272Y-4720949D01*
X36700000Y-4665000D01*
X25828880Y-4665000D01*
X25547608Y-4720949D01*
X25309156Y-4880277D01*
X22214196Y-7975237D01*
X22137451Y-7943370D01*
X21566573Y-7942872D01*
X21038960Y-8160877D01*
X20634936Y-8564197D01*
X20465614Y-8971970D01*
X20298003Y-8566320D01*
X19894683Y-8162296D01*
X19367451Y-7943370D01*
X18796573Y-7942872D01*
X18268960Y-8160877D01*
X17864936Y-8564197D01*
X17695614Y-8971970D01*
X17528003Y-8566320D01*
X17124683Y-8162296D01*
X16597451Y-7943370D01*
X16026573Y-7942872D01*
X15498960Y-8160877D01*
X15094936Y-8564197D01*
X14925614Y-8971970D01*
X14758003Y-8566320D01*
X14354683Y-8162296D01*
X13827451Y-7943370D01*
X13256573Y-7942872D01*
X12728960Y-8160877D01*
X12324936Y-8564197D01*
X12292164Y-8643120D01*
X11271880Y-8643120D01*
X10990608Y-8699069D01*
X10752157Y-8858396D01*
X7602346Y-12008208D01*
X7884505Y-11313022D01*
X7876881Y-10244889D01*
X7482792Y-9293475D01*
X7142272Y-9031214D01*
X5375365Y-10798120D01*
X5389508Y-10812262D01*
X5209902Y-10991868D01*
X5195760Y-10977725D01*
X3428854Y-12744632D01*
X635000Y-12744632D01*
X635000Y-10283218D01*
X2507015Y-10283218D01*
X2514639Y-11351351D01*
X2908728Y-12302765D01*
X3249248Y-12565026D01*
X5016155Y-10798120D01*
X3249248Y-9031214D01*
X2908728Y-9293475D01*
X2507015Y-10283218D01*
X635000Y-10283218D01*
X635000Y-8851608D01*
X3428854Y-8851608D01*
X5195760Y-10618515D01*
X6962666Y-8851608D01*
X6700405Y-8511088D01*
X5710662Y-8109375D01*
X4642529Y-8116999D01*
X3691115Y-8511088D01*
X3428854Y-8851608D01*
X635000Y-8851608D01*
X635000Y-635000D01*
X92365000Y-635000D01*
X92365000Y-126965000D01*
X92365000Y-126965000D01*
G37*
X92365000Y-126965000D02*
X635000Y-126965000D01*
X635000Y-123379286D01*
X1064319Y-123379286D01*
X1662124Y-124826086D01*
X2768091Y-125933985D01*
X4213846Y-126534315D01*
X5779286Y-126535681D01*
X7226086Y-125937876D01*
X8333985Y-124831909D01*
X8934315Y-123386154D01*
X8935681Y-121820714D01*
X8337876Y-120373914D01*
X7231909Y-119266015D01*
X5786154Y-118665685D01*
X4220714Y-118664319D01*
X2773914Y-119262124D01*
X1666015Y-120368091D01*
X1065685Y-121813846D01*
X1064319Y-123379286D01*
X635000Y-123379286D01*
X635000Y-107782503D01*
X6180529Y-107782503D01*
X6383342Y-108273349D01*
X6758556Y-108649218D01*
X7249047Y-108852888D01*
X7780143Y-108853351D01*
X8270989Y-108650538D01*
X8646858Y-108275324D01*
X8850528Y-107784833D01*
X8850991Y-107253737D01*
X8648178Y-106762891D01*
X8480760Y-106595181D01*
X8480760Y-102796212D01*
X12815011Y-102796212D01*
X12817644Y-102809875D01*
X12815439Y-102823613D01*
X12840998Y-102931057D01*
X12861897Y-103039500D01*
X12908310Y-103153469D01*
X12973104Y-103251704D01*
X13035926Y-103351207D01*
X20850760Y-111581565D01*
X20850760Y-121014598D01*
X20485760Y-121014598D01*
X20324559Y-121044930D01*
X20176505Y-121140200D01*
X20077181Y-121285565D01*
X20042238Y-121458120D01*
X20042238Y-121531823D01*
X19960458Y-121409431D01*
X19580760Y-121155725D01*
X19580760Y-116395826D01*
X19855229Y-116282418D01*
X20231098Y-115907204D01*
X20434768Y-115416713D01*
X20435231Y-114885617D01*
X20232418Y-114394771D01*
X19857204Y-114018902D01*
X19366713Y-113815232D01*
X18835617Y-113814769D01*
X18344771Y-114017582D01*
X17968902Y-114392796D01*
X17765232Y-114883287D01*
X17764769Y-115414383D01*
X17967582Y-115905229D01*
X18310760Y-116249006D01*
X18310760Y-121155725D01*
X17931062Y-121409431D01*
X17675760Y-121791517D01*
X17420458Y-121409431D01*
X17040760Y-121155725D01*
X17040760Y-116379716D01*
X17155229Y-116332418D01*
X17531098Y-115957204D01*
X17734768Y-115466713D01*
X17735231Y-114935617D01*
X17532418Y-114444771D01*
X17157204Y-114068902D01*
X16666713Y-113865232D01*
X16135617Y-113864769D01*
X15644771Y-114067582D01*
X15268902Y-114442796D01*
X15065232Y-114933287D01*
X15064769Y-115464383D01*
X15267582Y-115955229D01*
X15642796Y-116331098D01*
X15770760Y-116384233D01*
X15770760Y-121155725D01*
X15391062Y-121409431D01*
X15079993Y-121874978D01*
X14970760Y-122424129D01*
X14970760Y-123092111D01*
X15079993Y-123641262D01*
X15391062Y-124106809D01*
X15856609Y-124417878D01*
X16405760Y-124527111D01*
X16954911Y-124417878D01*
X17420458Y-124106809D01*
X17675760Y-123724723D01*
X17931062Y-124106809D01*
X18396609Y-124417878D01*
X18945760Y-124527111D01*
X19494911Y-124417878D01*
X19960458Y-124106809D01*
X20042238Y-123984417D01*
X20042238Y-124058120D01*
X20072570Y-124219321D01*
X20167840Y-124367375D01*
X20313205Y-124466699D01*
X20485760Y-124501642D01*
X22485760Y-124501642D01*
X22646961Y-124471310D01*
X22795015Y-124376040D01*
X22894339Y-124230675D01*
X22929282Y-124058120D01*
X22929282Y-121458120D01*
X22898950Y-121296919D01*
X22803680Y-121148865D01*
X22658315Y-121049541D01*
X22485760Y-121014598D01*
X22120760Y-121014598D01*
X22120760Y-111328120D01*
X22098170Y-111214553D01*
X22078519Y-111100385D01*
X22074055Y-111093314D01*
X22072424Y-111085116D01*
X22008085Y-110988827D01*
X21946247Y-110890882D01*
X15960983Y-104587374D01*
X21415214Y-108903507D01*
X21414769Y-109414383D01*
X21617582Y-109905229D01*
X21992796Y-110281098D01*
X22483287Y-110484768D01*
X23014383Y-110485231D01*
X23505229Y-110282418D01*
X23881098Y-109907204D01*
X24084768Y-109416713D01*
X24085231Y-108885617D01*
X23882418Y-108394771D01*
X23507204Y-108018902D01*
X23016713Y-107815232D01*
X22485617Y-107814769D01*
X22223071Y-107923251D01*
X18501354Y-104978120D01*
X20587734Y-104978120D01*
X24645879Y-109036265D01*
X24595992Y-109156407D01*
X24595529Y-109687503D01*
X24798342Y-110178349D01*
X25173556Y-110554218D01*
X25664047Y-110757888D01*
X26195143Y-110758351D01*
X26685989Y-110555538D01*
X27061858Y-110180324D01*
X27071974Y-110155963D01*
X27097256Y-121224884D01*
X26821062Y-121409431D01*
X26509993Y-121874978D01*
X26400760Y-122424129D01*
X26400760Y-123092111D01*
X26509993Y-123641262D01*
X26821062Y-124106809D01*
X27286609Y-124417878D01*
X27835760Y-124527111D01*
X28384911Y-124417878D01*
X28850458Y-124106809D01*
X29105760Y-123724723D01*
X29361062Y-124106809D01*
X29826609Y-124417878D01*
X30375760Y-124527111D01*
X30924911Y-124417878D01*
X31390458Y-124106809D01*
X31480760Y-123971663D01*
X31480760Y-124144647D01*
X31546985Y-124304528D01*
X31669352Y-124426895D01*
X31829233Y-124493120D01*
X32680010Y-124493120D01*
X32788760Y-124384370D01*
X32788760Y-122885120D01*
X33042760Y-122885120D01*
X33042760Y-124384370D01*
X33151510Y-124493120D01*
X34002287Y-124493120D01*
X34162168Y-124426895D01*
X34284535Y-124304528D01*
X34350760Y-124144647D01*
X34350760Y-122993870D01*
X34242010Y-122885120D01*
X53070760Y-122885120D01*
X53070760Y-123185120D01*
X53228594Y-123724603D01*
X53580864Y-124162620D01*
X54073941Y-124432487D01*
X54156721Y-124450024D01*
X54378760Y-124378275D01*
X54378760Y-122885120D01*
X53070760Y-122885120D01*
X34242010Y-122885120D01*
X33042760Y-122885120D01*
X32788760Y-122885120D01*
X32768760Y-122885120D01*
X32768760Y-122631120D01*
X32788760Y-122631120D01*
X32788760Y-121131870D01*
X33042760Y-121131870D01*
X33042760Y-122631120D01*
X34242010Y-122631120D01*
X34350760Y-122522370D01*
X34350760Y-122331120D01*
X53070760Y-122331120D01*
X53070760Y-122631120D01*
X54378760Y-122631120D01*
X54378760Y-121137965D01*
X54156721Y-121066216D01*
X54073941Y-121083753D01*
X53580864Y-121353620D01*
X53228594Y-121791637D01*
X53070760Y-122331120D01*
X34350760Y-122331120D01*
X34350760Y-121371593D01*
X34284535Y-121211712D01*
X34162168Y-121089345D01*
X34002287Y-121023120D01*
X33151510Y-121023120D01*
X33042760Y-121131870D01*
X32788760Y-121131870D01*
X32680010Y-121023120D01*
X31829233Y-121023120D01*
X31669352Y-121089345D01*
X31546985Y-121211712D01*
X31480760Y-121371593D01*
X31480760Y-121544577D01*
X31390458Y-121409431D01*
X31110760Y-121222543D01*
X31110760Y-113981880D01*
X48252238Y-113981880D01*
X48252238Y-115581880D01*
X48282570Y-115743081D01*
X48377840Y-115891135D01*
X48523205Y-115990459D01*
X48695760Y-116025402D01*
X49695760Y-116025402D01*
X49856961Y-115995070D01*
X50005015Y-115899800D01*
X50104339Y-115754435D01*
X50139282Y-115581880D01*
X50139282Y-115017630D01*
X51260760Y-115017630D01*
X51260760Y-115668407D01*
X51326985Y-115828288D01*
X51449352Y-115950655D01*
X51609233Y-116016880D01*
X51960010Y-116016880D01*
X52068760Y-115908130D01*
X52068760Y-114908880D01*
X52322760Y-114908880D01*
X52322760Y-115908130D01*
X52431510Y-116016880D01*
X52782287Y-116016880D01*
X52942168Y-115950655D01*
X53064535Y-115828288D01*
X53130760Y-115668407D01*
X53130760Y-115017630D01*
X53390760Y-115017630D01*
X53390760Y-115668407D01*
X53456985Y-115828288D01*
X53579352Y-115950655D01*
X53739233Y-116016880D01*
X54090010Y-116016880D01*
X54198760Y-115908130D01*
X54198760Y-114908880D01*
X54452760Y-114908880D01*
X54452760Y-115908130D01*
X54561510Y-116016880D01*
X54912287Y-116016880D01*
X55072168Y-115950655D01*
X55194535Y-115828288D01*
X55260760Y-115668407D01*
X55260760Y-115017630D01*
X55152010Y-114908880D01*
X54452760Y-114908880D01*
X54198760Y-114908880D01*
X53499510Y-114908880D01*
X53390760Y-115017630D01*
X53130760Y-115017630D01*
X53022010Y-114908880D01*
X52322760Y-114908880D01*
X52068760Y-114908880D01*
X51369510Y-114908880D01*
X51260760Y-115017630D01*
X50139282Y-115017630D01*
X50139282Y-113981880D01*
X50123001Y-113895353D01*
X51260760Y-113895353D01*
X51260760Y-114546130D01*
X51369510Y-114654880D01*
X52068760Y-114654880D01*
X52068760Y-113655630D01*
X52322760Y-113655630D01*
X52322760Y-114654880D01*
X53022010Y-114654880D01*
X53130760Y-114546130D01*
X53130760Y-113895353D01*
X53390760Y-113895353D01*
X53390760Y-114546130D01*
X53499510Y-114654880D01*
X54198760Y-114654880D01*
X54198760Y-113655630D01*
X54452760Y-113655630D01*
X54452760Y-114654880D01*
X55152010Y-114654880D01*
X55260760Y-114546130D01*
X55260760Y-113895353D01*
X55194535Y-113735472D01*
X55072168Y-113613105D01*
X54912287Y-113546880D01*
X54561510Y-113546880D01*
X54452760Y-113655630D01*
X54198760Y-113655630D01*
X54090010Y-113546880D01*
X53739233Y-113546880D01*
X53579352Y-113613105D01*
X53456985Y-113735472D01*
X53390760Y-113895353D01*
X53130760Y-113895353D01*
X53064535Y-113735472D01*
X52942168Y-113613105D01*
X52782287Y-113546880D01*
X52431510Y-113546880D01*
X52322760Y-113655630D01*
X52068760Y-113655630D01*
X51960010Y-113546880D01*
X51609233Y-113546880D01*
X51449352Y-113613105D01*
X51326985Y-113735472D01*
X51260760Y-113895353D01*
X50123001Y-113895353D01*
X50108950Y-113820679D01*
X50013680Y-113672625D01*
X49930760Y-113615968D01*
X49930760Y-111862566D01*
X50391684Y-111401642D01*
X51595760Y-111401642D01*
X51756961Y-111371310D01*
X51905015Y-111276040D01*
X52004339Y-111130675D01*
X52039282Y-110958120D01*
X52039282Y-110623808D01*
X52085963Y-110736516D01*
X52433097Y-111124884D01*
X52902429Y-111350847D01*
X53108760Y-111278326D01*
X53108760Y-110185120D01*
X53088760Y-110185120D01*
X53088760Y-109931120D01*
X53108760Y-109931120D01*
X53108760Y-109911120D01*
X53362760Y-109911120D01*
X53362760Y-109931120D01*
X53382760Y-109931120D01*
X53382760Y-110185120D01*
X53362760Y-110185120D01*
X53362760Y-111278326D01*
X53569091Y-111350847D01*
X54038423Y-111124884D01*
X54385557Y-110736516D01*
X54496342Y-110469034D01*
X54516227Y-110569002D01*
X54805618Y-111002108D01*
X55040760Y-111159224D01*
X55040760Y-111425760D01*
X55096709Y-111707032D01*
X55256037Y-111945483D01*
X56590760Y-113280206D01*
X56590760Y-113616178D01*
X56516505Y-113663960D01*
X56417181Y-113809325D01*
X56382238Y-113981880D01*
X56382238Y-114757367D01*
X56366709Y-114780608D01*
X56310761Y-115061880D01*
X56366709Y-115343152D01*
X56382238Y-115366393D01*
X56382238Y-115581880D01*
X56412570Y-115743081D01*
X56507840Y-115891135D01*
X56510760Y-115893130D01*
X56510760Y-121014598D01*
X56045760Y-121014598D01*
X55884559Y-121044930D01*
X55736505Y-121140200D01*
X55637181Y-121285565D01*
X55602238Y-121458120D01*
X55602238Y-121566967D01*
X55430656Y-121353620D01*
X54937579Y-121083753D01*
X54854799Y-121066216D01*
X54632760Y-121137965D01*
X54632760Y-122631120D01*
X54652760Y-122631120D01*
X54652760Y-122885120D01*
X54632760Y-122885120D01*
X54632760Y-124378275D01*
X54854799Y-124450024D01*
X54937579Y-124432487D01*
X55430656Y-124162620D01*
X55602238Y-123949273D01*
X55602238Y-124058120D01*
X55632570Y-124219321D01*
X55727840Y-124367375D01*
X55873205Y-124466699D01*
X56045760Y-124501642D01*
X58045760Y-124501642D01*
X58206961Y-124471310D01*
X58355015Y-124376040D01*
X58454339Y-124230675D01*
X58489282Y-124058120D01*
X58489282Y-123379286D01*
X81064319Y-123379286D01*
X81662124Y-124826086D01*
X82768091Y-125933985D01*
X84213846Y-126534315D01*
X85779286Y-126535681D01*
X87226086Y-125937876D01*
X88333985Y-124831909D01*
X88934315Y-123386154D01*
X88935681Y-121820714D01*
X88337876Y-120373914D01*
X87231909Y-119266015D01*
X85786154Y-118665685D01*
X84220714Y-118664319D01*
X82773914Y-119262124D01*
X81666015Y-120368091D01*
X81065685Y-121813846D01*
X81064319Y-123379286D01*
X58489282Y-123379286D01*
X58489282Y-121458120D01*
X58458950Y-121296919D01*
X58363680Y-121148865D01*
X58218315Y-121049541D01*
X58045760Y-121014598D01*
X57980760Y-121014598D01*
X57980760Y-115996237D01*
X57986961Y-115995070D01*
X58135015Y-115899800D01*
X58234339Y-115754435D01*
X58269282Y-115581880D01*
X58269282Y-113981880D01*
X58238950Y-113820679D01*
X58143680Y-113672625D01*
X58060760Y-113615968D01*
X58060760Y-112975760D01*
X58004811Y-112694488D01*
X57845483Y-112456037D01*
X56533486Y-111144040D01*
X56745902Y-111002108D01*
X57035293Y-110569002D01*
X57136914Y-110058120D01*
X57091782Y-109831228D01*
X63480276Y-116219723D01*
X63646961Y-116331098D01*
X63718728Y-116379051D01*
X64000000Y-116435000D01*
X76800000Y-116435000D01*
X77081272Y-116379051D01*
X77319723Y-116219723D01*
X81719724Y-111819723D01*
X81879051Y-111581272D01*
X81935000Y-111300000D01*
X81935000Y-106597159D01*
X84563856Y-106597159D01*
X84581393Y-106679939D01*
X84851260Y-107173016D01*
X85289277Y-107525286D01*
X85828760Y-107683120D01*
X86128760Y-107683120D01*
X86128760Y-106375120D01*
X86382760Y-106375120D01*
X86382760Y-107683120D01*
X86682760Y-107683120D01*
X87222243Y-107525286D01*
X87660260Y-107173016D01*
X87930127Y-106679939D01*
X87947664Y-106597159D01*
X87875915Y-106375120D01*
X86382760Y-106375120D01*
X86128760Y-106375120D01*
X84635605Y-106375120D01*
X84563856Y-106597159D01*
X81935000Y-106597159D01*
X81935000Y-104443120D01*
X84720183Y-104443120D01*
X84907071Y-104722818D01*
X85284356Y-104974912D01*
X84851260Y-105323224D01*
X84581393Y-105816301D01*
X84563856Y-105899081D01*
X84635605Y-106121120D01*
X86128760Y-106121120D01*
X86128760Y-106101120D01*
X86382760Y-106101120D01*
X86382760Y-106121120D01*
X87875915Y-106121120D01*
X87947664Y-105899081D01*
X87930127Y-105816301D01*
X87660260Y-105323224D01*
X87227164Y-104974912D01*
X87604449Y-104722818D01*
X87915518Y-104257271D01*
X88024751Y-103708120D01*
X87915518Y-103158969D01*
X87604449Y-102693422D01*
X87222363Y-102438120D01*
X87604449Y-102182818D01*
X87915518Y-101717271D01*
X88024751Y-101168120D01*
X87915518Y-100618969D01*
X87604449Y-100153422D01*
X87482057Y-100071642D01*
X87555760Y-100071642D01*
X87716961Y-100041310D01*
X87865015Y-99946040D01*
X87964339Y-99800675D01*
X87999282Y-99628120D01*
X87999282Y-99263120D01*
X90321880Y-99263120D01*
X90564884Y-99214784D01*
X90770893Y-99077133D01*
X90899013Y-98949013D01*
X91036664Y-98743004D01*
X91085000Y-98500000D01*
X91085000Y-86000000D01*
X91080027Y-85975000D01*
X91085000Y-85950000D01*
X91085000Y-73400000D01*
X91036664Y-73156996D01*
X90899013Y-72950987D01*
X90749013Y-72800987D01*
X90543004Y-72663336D01*
X90300000Y-72615000D01*
X87999282Y-72615000D01*
X87999282Y-72228120D01*
X87968950Y-72066919D01*
X87873680Y-71918865D01*
X87728315Y-71819541D01*
X87555760Y-71784598D01*
X86890760Y-71784598D01*
X86890760Y-71079716D01*
X87005229Y-71032418D01*
X87381098Y-70657204D01*
X87584768Y-70166713D01*
X87585231Y-69635617D01*
X87382418Y-69144771D01*
X87007204Y-68768902D01*
X86516713Y-68565232D01*
X85985617Y-68564769D01*
X85494771Y-68767582D01*
X85118902Y-69142796D01*
X84915232Y-69633287D01*
X84914769Y-70164383D01*
X85117582Y-70655229D01*
X85492796Y-71031098D01*
X85620760Y-71084233D01*
X85620760Y-71784598D01*
X84955760Y-71784598D01*
X84794559Y-71814930D01*
X84646505Y-71910200D01*
X84547181Y-72055565D01*
X84512238Y-72228120D01*
X84512238Y-74228120D01*
X84542570Y-74389321D01*
X84637840Y-74537375D01*
X84783205Y-74636699D01*
X84955760Y-74671642D01*
X85029463Y-74671642D01*
X84907071Y-74753422D01*
X84653365Y-75133120D01*
X81430902Y-75133120D01*
X81332418Y-74894771D01*
X80957204Y-74518902D01*
X80466713Y-74315232D01*
X79935617Y-74314769D01*
X79444771Y-74517582D01*
X79068902Y-74892796D01*
X78865232Y-75383287D01*
X78864769Y-75914383D01*
X79067582Y-76405229D01*
X79442796Y-76781098D01*
X79933287Y-76984768D01*
X80464383Y-76985231D01*
X80955229Y-76782418D01*
X81331098Y-76407204D01*
X81332794Y-76403120D01*
X84653365Y-76403120D01*
X84907071Y-76782818D01*
X85289157Y-77038120D01*
X84907071Y-77293422D01*
X84708540Y-77590545D01*
X78135000Y-77664774D01*
X78135000Y-71159703D01*
X91771528Y-61120008D01*
X91809121Y-61078821D01*
X91855483Y-61047843D01*
X91904900Y-60973886D01*
X91964862Y-60908191D01*
X91983831Y-60855757D01*
X92014811Y-60809392D01*
X92032164Y-60722152D01*
X92062422Y-60638513D01*
X92059881Y-60582812D01*
X92070760Y-60528120D01*
X92070760Y-32588120D01*
X92014811Y-32306848D01*
X91927495Y-32176170D01*
X91855483Y-32068396D01*
X91207783Y-31420697D01*
X90969332Y-31261369D01*
X90688060Y-31205420D01*
X81438906Y-31205420D01*
X89315483Y-23328844D01*
X89474811Y-23090392D01*
X89481454Y-23056996D01*
X89530760Y-22809120D01*
X89530760Y-8978097D01*
X89890418Y-8829490D01*
X90435217Y-8285641D01*
X90730423Y-7574704D01*
X90731095Y-6804913D01*
X90437130Y-6093462D01*
X89893281Y-5548663D01*
X89182344Y-5253457D01*
X88412553Y-5252785D01*
X87701102Y-5546750D01*
X87156303Y-6090599D01*
X86861097Y-6801536D01*
X86860425Y-7571327D01*
X87154390Y-8282778D01*
X87698239Y-8827577D01*
X88060760Y-8978108D01*
X88060760Y-22504673D01*
X81167498Y-29397936D01*
X80855935Y-28931649D01*
X80309282Y-28566387D01*
X79664460Y-28438124D01*
X79019638Y-28566387D01*
X78472985Y-28931649D01*
X78107723Y-29478302D01*
X77979460Y-30123124D01*
X77979460Y-33757716D01*
X78107723Y-34402538D01*
X78472985Y-34949191D01*
X79019638Y-35314453D01*
X79664460Y-35442716D01*
X80309282Y-35314453D01*
X80855935Y-34949191D01*
X81221197Y-34402538D01*
X81349460Y-33757716D01*
X81349460Y-32675420D01*
X90383614Y-32675420D01*
X90600760Y-32892567D01*
X90600760Y-60156537D01*
X76964231Y-70196233D01*
X76926638Y-70237419D01*
X76880277Y-70268397D01*
X76830862Y-70342351D01*
X76770897Y-70408049D01*
X76751928Y-70460485D01*
X76720949Y-70506848D01*
X76703596Y-70594086D01*
X76673338Y-70677727D01*
X76675879Y-70733429D01*
X76665000Y-70788120D01*
X76665000Y-102973120D01*
X72285760Y-102973120D01*
X72045310Y-103020949D01*
X72004488Y-103029069D01*
X71766036Y-103188397D01*
X66670760Y-108283674D01*
X66670760Y-106287800D01*
X66673495Y-106286040D01*
X66772819Y-106140675D01*
X66807762Y-105968120D01*
X66807762Y-104368120D01*
X66777430Y-104206919D01*
X66682160Y-104058865D01*
X66536795Y-103959541D01*
X66364240Y-103924598D01*
X65364240Y-103924598D01*
X65203039Y-103954930D01*
X65054985Y-104050200D01*
X64955661Y-104195565D01*
X64920718Y-104368120D01*
X64920718Y-105968120D01*
X64951050Y-106129321D01*
X65046320Y-106277375D01*
X65191685Y-106376699D01*
X65200760Y-106378537D01*
X65200760Y-108714598D01*
X65035760Y-108714598D01*
X64874559Y-108744930D01*
X64726505Y-108840200D01*
X64627181Y-108985565D01*
X64592238Y-109158120D01*
X64592238Y-110958120D01*
X64622570Y-111119321D01*
X64717840Y-111267375D01*
X64863205Y-111366699D01*
X65035760Y-111401642D01*
X66835760Y-111401642D01*
X66996961Y-111371310D01*
X67145015Y-111276040D01*
X67244339Y-111130675D01*
X67279282Y-110958120D01*
X67279282Y-110623808D01*
X67325963Y-110736516D01*
X67673097Y-111124884D01*
X68142429Y-111350847D01*
X68348760Y-111278326D01*
X68348760Y-110185120D01*
X68328760Y-110185120D01*
X68328760Y-109931120D01*
X68348760Y-109931120D01*
X68348760Y-108837914D01*
X68235293Y-108798033D01*
X72590207Y-104443120D01*
X80465000Y-104443120D01*
X80465000Y-110995553D01*
X76495554Y-114965000D01*
X64304447Y-114965000D01*
X57119723Y-107780277D01*
X56881272Y-107620949D01*
X56600000Y-107565000D01*
X52400000Y-107565000D01*
X52118728Y-107620949D01*
X51880276Y-107780277D01*
X50945956Y-108714598D01*
X49795760Y-108714598D01*
X49634559Y-108744930D01*
X49486505Y-108840200D01*
X49387181Y-108985565D01*
X49352238Y-109158120D01*
X49352238Y-110362196D01*
X48676037Y-111038397D01*
X48516709Y-111276848D01*
X48460760Y-111558120D01*
X48460760Y-113616178D01*
X48386505Y-113663960D01*
X48287181Y-113809325D01*
X48252238Y-113981880D01*
X31110760Y-113981880D01*
X31110760Y-104012566D01*
X31358832Y-103764494D01*
X31379047Y-103772888D01*
X31910143Y-103773351D01*
X32400989Y-103570538D01*
X32776858Y-103195324D01*
X32980528Y-102704833D01*
X32980991Y-102173737D01*
X32971810Y-102151516D01*
X37500823Y-97622503D01*
X41740529Y-97622503D01*
X41943342Y-98113349D01*
X42318556Y-98489218D01*
X42340760Y-98498438D01*
X42340760Y-106377344D01*
X42320531Y-106385702D01*
X41944662Y-106760916D01*
X41740992Y-107251407D01*
X41740529Y-107782503D01*
X41943342Y-108273349D01*
X42318556Y-108649218D01*
X42809047Y-108852888D01*
X43340143Y-108853351D01*
X43830989Y-108650538D01*
X44206858Y-108275324D01*
X44249354Y-108172981D01*
X44451603Y-108037843D01*
X44984447Y-107505000D01*
X57263194Y-107505000D01*
X57796036Y-108037843D01*
X57796039Y-108037845D01*
X64146036Y-114387843D01*
X64336341Y-114515000D01*
X64384488Y-114547171D01*
X64665760Y-114603120D01*
X68475760Y-114603120D01*
X68757032Y-114547171D01*
X68995483Y-114387843D01*
X71535483Y-111847844D01*
X71694811Y-111609393D01*
X71705010Y-111558120D01*
X71750760Y-111328120D01*
X71750760Y-111159224D01*
X71985902Y-111002108D01*
X72152270Y-110753120D01*
X74140718Y-110753120D01*
X74140718Y-110818120D01*
X74171050Y-110979321D01*
X74266320Y-111127375D01*
X74411685Y-111226699D01*
X74584240Y-111261642D01*
X75584240Y-111261642D01*
X75745441Y-111231310D01*
X75893495Y-111136040D01*
X75992819Y-110990675D01*
X76027762Y-110818120D01*
X76027762Y-110253870D01*
X77149240Y-110253870D01*
X77149240Y-110904647D01*
X77215465Y-111064528D01*
X77337832Y-111186895D01*
X77497713Y-111253120D01*
X77848490Y-111253120D01*
X77957240Y-111144370D01*
X77957240Y-110145120D01*
X78211240Y-110145120D01*
X78211240Y-111144370D01*
X78319990Y-111253120D01*
X78670767Y-111253120D01*
X78830648Y-111186895D01*
X78953015Y-111064528D01*
X79019240Y-110904647D01*
X79019240Y-110253870D01*
X78910490Y-110145120D01*
X78211240Y-110145120D01*
X77957240Y-110145120D01*
X77257990Y-110145120D01*
X77149240Y-110253870D01*
X76027762Y-110253870D01*
X76027762Y-109218120D01*
X76011481Y-109131593D01*
X77149240Y-109131593D01*
X77149240Y-109782370D01*
X77257990Y-109891120D01*
X77957240Y-109891120D01*
X77957240Y-108891870D01*
X78211240Y-108891870D01*
X78211240Y-109891120D01*
X78910490Y-109891120D01*
X79019240Y-109782370D01*
X79019240Y-109131593D01*
X78953015Y-108971712D01*
X78830648Y-108849345D01*
X78670767Y-108783120D01*
X78319990Y-108783120D01*
X78211240Y-108891870D01*
X77957240Y-108891870D01*
X77848490Y-108783120D01*
X77497713Y-108783120D01*
X77337832Y-108849345D01*
X77215465Y-108971712D01*
X77149240Y-109131593D01*
X76011481Y-109131593D01*
X75997430Y-109056919D01*
X75902160Y-108908865D01*
X75756795Y-108809541D01*
X75584240Y-108774598D01*
X74584240Y-108774598D01*
X74423039Y-108804930D01*
X74274985Y-108900200D01*
X74175661Y-109045565D01*
X74140718Y-109218120D01*
X74140718Y-109283120D01*
X72098816Y-109283120D01*
X71985902Y-109114132D01*
X71552796Y-108824741D01*
X71041914Y-108723120D01*
X70989606Y-108723120D01*
X70478724Y-108824741D01*
X70045618Y-109114132D01*
X69756227Y-109547238D01*
X69736342Y-109647206D01*
X69625557Y-109379724D01*
X69278423Y-108991356D01*
X68809091Y-108765393D01*
X68602760Y-108837914D01*
X68602760Y-109931120D01*
X68622760Y-109931120D01*
X68622760Y-110185120D01*
X68602760Y-110185120D01*
X68602760Y-111278326D01*
X68809091Y-111350847D01*
X69278423Y-111124884D01*
X69625557Y-110736516D01*
X69736342Y-110469034D01*
X69756227Y-110569002D01*
X70045618Y-111002108D01*
X70199503Y-111104930D01*
X68171314Y-113133120D01*
X64970207Y-113133120D01*
X58835485Y-106998399D01*
X58835483Y-106998396D01*
X58087363Y-106250277D01*
X57848912Y-106090949D01*
X57567640Y-106035000D01*
X44680000Y-106035000D01*
X44445394Y-106081667D01*
X44398727Y-106090949D01*
X44160276Y-106250277D01*
X43928165Y-106482389D01*
X43832964Y-106387022D01*
X43810760Y-106377802D01*
X43810760Y-105403870D01*
X61929240Y-105403870D01*
X61929240Y-106054647D01*
X61995465Y-106214528D01*
X62117832Y-106336895D01*
X62277713Y-106403120D01*
X62628490Y-106403120D01*
X62737240Y-106294370D01*
X62737240Y-105295120D01*
X62991240Y-105295120D01*
X62991240Y-106294370D01*
X63099990Y-106403120D01*
X63450767Y-106403120D01*
X63610648Y-106336895D01*
X63733015Y-106214528D01*
X63799240Y-106054647D01*
X63799240Y-105403870D01*
X63690490Y-105295120D01*
X62991240Y-105295120D01*
X62737240Y-105295120D01*
X62037990Y-105295120D01*
X61929240Y-105403870D01*
X43810760Y-105403870D01*
X43810760Y-104281593D01*
X61929240Y-104281593D01*
X61929240Y-104932370D01*
X62037990Y-105041120D01*
X62737240Y-105041120D01*
X62737240Y-104041870D01*
X62991240Y-104041870D01*
X62991240Y-105041120D01*
X63690490Y-105041120D01*
X63799240Y-104932370D01*
X63799240Y-104281593D01*
X63733015Y-104121712D01*
X63610648Y-103999345D01*
X63450767Y-103933120D01*
X63099990Y-103933120D01*
X62991240Y-104041870D01*
X62737240Y-104041870D01*
X62628490Y-103933120D01*
X62277713Y-103933120D01*
X62117832Y-103999345D01*
X61995465Y-104121712D01*
X61929240Y-104281593D01*
X43810760Y-104281593D01*
X43810760Y-98498896D01*
X43830989Y-98490538D01*
X44206858Y-98115324D01*
X44410528Y-97624833D01*
X44410991Y-97093737D01*
X44208178Y-96602891D01*
X43832964Y-96227022D01*
X43810760Y-96217802D01*
X43810760Y-95122566D01*
X49138833Y-89794494D01*
X49159047Y-89802888D01*
X49690143Y-89803351D01*
X50180989Y-89600538D01*
X50556858Y-89225324D01*
X50760528Y-88734833D01*
X50760991Y-88203737D01*
X50558178Y-87712891D01*
X50182964Y-87337022D01*
X49692473Y-87133352D01*
X49161377Y-87132889D01*
X48670531Y-87335702D01*
X48294662Y-87710916D01*
X48090992Y-88201407D01*
X48090529Y-88732503D01*
X48099710Y-88754723D01*
X42556037Y-94298397D01*
X42396709Y-94536848D01*
X42340760Y-94818120D01*
X42340760Y-96217344D01*
X42320531Y-96225702D01*
X41944662Y-96600916D01*
X41740992Y-97091407D01*
X41740529Y-97622503D01*
X37500823Y-97622503D01*
X48638327Y-86485000D01*
X51750000Y-86485000D01*
X52031272Y-86429051D01*
X52269723Y-86269723D01*
X85544027Y-52995420D01*
X85599460Y-52995420D01*
X85599460Y-54077716D01*
X85727723Y-54722538D01*
X86092985Y-55269191D01*
X86639638Y-55634453D01*
X87284460Y-55762716D01*
X87929282Y-55634453D01*
X88475935Y-55269191D01*
X88841197Y-54722538D01*
X88969460Y-54077716D01*
X88969460Y-50443124D01*
X88841197Y-49798302D01*
X88475935Y-49251649D01*
X87929282Y-48886387D01*
X87284460Y-48758124D01*
X86639638Y-48886387D01*
X86092985Y-49251649D01*
X85727723Y-49798302D01*
X85599460Y-50443124D01*
X85599460Y-51525420D01*
X85239580Y-51525420D01*
X84958308Y-51581369D01*
X84719856Y-51740697D01*
X51445554Y-85015000D01*
X48333880Y-85015000D01*
X48052608Y-85070949D01*
X47814157Y-85230276D01*
X31932688Y-101111746D01*
X31912473Y-101103352D01*
X31381377Y-101102889D01*
X30890531Y-101305702D01*
X30514662Y-101680916D01*
X30310992Y-102171407D01*
X30310529Y-102702503D01*
X30319710Y-102724723D01*
X29856037Y-103188397D01*
X29696709Y-103426848D01*
X29640760Y-103708120D01*
X29640760Y-121222543D01*
X29361062Y-121409431D01*
X29105760Y-121791517D01*
X28850458Y-121409431D01*
X28567249Y-121220197D01*
X28525882Y-103109097D01*
X67477740Y-65105508D01*
X67480350Y-65101704D01*
X67484183Y-65099143D01*
X67561357Y-64983645D01*
X67639994Y-64869038D01*
X67640950Y-64864525D01*
X67643511Y-64860692D01*
X67670618Y-64724415D01*
X67699404Y-64588476D01*
X67698560Y-64583943D01*
X67699460Y-64579420D01*
X67699460Y-55574198D01*
X68155935Y-55269191D01*
X68521197Y-54722538D01*
X68649460Y-54077716D01*
X68649460Y-52387420D01*
X75439460Y-52387420D01*
X75439460Y-54137420D01*
X75616324Y-54772574D01*
X76022788Y-55291697D01*
X76596971Y-55615757D01*
X76736181Y-55650074D01*
X76997460Y-55581545D01*
X76997460Y-52387420D01*
X77251460Y-52387420D01*
X77251460Y-55581545D01*
X77512739Y-55650074D01*
X77651949Y-55615757D01*
X78226132Y-55291697D01*
X78632596Y-54772574D01*
X78809460Y-54137420D01*
X78809460Y-52387420D01*
X77251460Y-52387420D01*
X76997460Y-52387420D01*
X75439460Y-52387420D01*
X68649460Y-52387420D01*
X68649460Y-50443124D01*
X68637585Y-50383420D01*
X75439460Y-50383420D01*
X75439460Y-52133420D01*
X76997460Y-52133420D01*
X76997460Y-48939295D01*
X77251460Y-48939295D01*
X77251460Y-52133420D01*
X78809460Y-52133420D01*
X78809460Y-50383420D01*
X78632596Y-49748266D01*
X78226132Y-49229143D01*
X77651949Y-48905083D01*
X77512739Y-48870766D01*
X77251460Y-48939295D01*
X76997460Y-48939295D01*
X76736181Y-48870766D01*
X76596971Y-48905083D01*
X76022788Y-49229143D01*
X75616324Y-49748266D01*
X75439460Y-50383420D01*
X68637585Y-50383420D01*
X68521197Y-49798302D01*
X68155935Y-49251649D01*
X67609282Y-48886387D01*
X66964460Y-48758124D01*
X66319638Y-48886387D01*
X65772985Y-49251649D01*
X65407723Y-49798302D01*
X65279460Y-50443124D01*
X65279460Y-54077716D01*
X65407723Y-54722538D01*
X65772985Y-55269191D01*
X66229460Y-55574198D01*
X66229460Y-64269654D01*
X27491020Y-102065021D01*
X20140778Y-102065003D01*
X20132418Y-102044771D01*
X19757204Y-101668902D01*
X19266713Y-101465232D01*
X18911983Y-101464923D01*
X19208785Y-101168120D01*
X20850760Y-101168120D01*
X20862501Y-101165785D01*
X20874323Y-101167683D01*
X20983605Y-101141696D01*
X21093764Y-101119784D01*
X21103718Y-101113133D01*
X21115366Y-101110363D01*
X21206378Y-101044537D01*
X21299773Y-100982133D01*
X21306425Y-100972178D01*
X21316125Y-100965162D01*
X25598487Y-96352503D01*
X26500529Y-96352503D01*
X26703342Y-96843349D01*
X27078556Y-97219218D01*
X27569047Y-97422888D01*
X28100143Y-97423351D01*
X28590989Y-97220538D01*
X28966858Y-96845324D01*
X29170528Y-96354833D01*
X29170991Y-95823737D01*
X29084665Y-95614812D01*
X39030287Y-84115390D01*
X39081276Y-84025655D01*
X39138109Y-83939486D01*
X39142147Y-83918529D01*
X39152691Y-83899973D01*
X39165459Y-83797551D01*
X39184989Y-83696197D01*
X39147963Y-77512797D01*
X45510554Y-77512797D01*
X45690580Y-77948492D01*
X46023635Y-78282129D01*
X46459015Y-78462914D01*
X46930437Y-78463326D01*
X47366132Y-78283300D01*
X47699769Y-77950245D01*
X47880554Y-77514865D01*
X47880966Y-77043443D01*
X47700940Y-76607748D01*
X47367885Y-76274111D01*
X46932505Y-76093326D01*
X46461083Y-76092914D01*
X46025388Y-76272940D01*
X45691751Y-76605995D01*
X45510966Y-77041375D01*
X45510554Y-77512797D01*
X39147963Y-77512797D01*
X39092073Y-68179173D01*
X39205229Y-68132418D01*
X39581098Y-67757204D01*
X39784768Y-67266713D01*
X39785231Y-66735617D01*
X39582418Y-66244771D01*
X39207204Y-65868902D01*
X38716713Y-65665232D01*
X38185617Y-65664769D01*
X37694771Y-65867582D01*
X37318902Y-66242796D01*
X37115232Y-66733287D01*
X37114769Y-67264383D01*
X37317582Y-67755229D01*
X37692796Y-68131098D01*
X37822083Y-68184783D01*
X37913582Y-83465132D01*
X28137901Y-94768063D01*
X28102473Y-94753352D01*
X27571377Y-94752889D01*
X27080531Y-94955702D01*
X26704662Y-95330916D01*
X26500992Y-95821407D01*
X26500529Y-96352503D01*
X25598487Y-96352503D01*
X36665365Y-84432042D01*
X36723590Y-84337487D01*
X36785659Y-84245416D01*
X36788306Y-84232389D01*
X36795277Y-84221068D01*
X36812884Y-84111430D01*
X36834995Y-84002613D01*
X36880133Y-73034107D01*
X37005229Y-72982418D01*
X37381098Y-72607204D01*
X37584768Y-72116713D01*
X37585231Y-71585617D01*
X37382418Y-71094771D01*
X37007204Y-70718902D01*
X36516713Y-70515232D01*
X35985617Y-70514769D01*
X35494771Y-70717582D01*
X35118902Y-71092796D01*
X34915232Y-71583287D01*
X34914769Y-72114383D01*
X35117582Y-72605229D01*
X35492796Y-72981098D01*
X35610139Y-73029823D01*
X35566025Y-83749573D01*
X32980786Y-86534210D01*
X32980991Y-86298737D01*
X32778178Y-85807891D01*
X32402964Y-85432022D01*
X31912473Y-85228352D01*
X31381377Y-85227889D01*
X30890531Y-85430702D01*
X30514662Y-85805916D01*
X30310992Y-86296407D01*
X30310529Y-86827503D01*
X30354352Y-86933563D01*
X25621076Y-91538422D01*
X25730528Y-91274833D01*
X25730991Y-90743737D01*
X25528178Y-90252891D01*
X25152964Y-89877022D01*
X24662473Y-89673352D01*
X24131377Y-89672889D01*
X23640531Y-89875702D01*
X23264662Y-90250916D01*
X23060992Y-90741407D01*
X23060529Y-91272503D01*
X23129345Y-91439051D01*
X12984601Y-102367995D01*
X12926706Y-102462031D01*
X12864796Y-102553501D01*
X12862000Y-102567131D01*
X12854705Y-102578980D01*
X12837202Y-102688029D01*
X12815011Y-102796212D01*
X8480760Y-102796212D01*
X8480760Y-95983822D01*
X8555015Y-95936040D01*
X8654339Y-95790675D01*
X8689282Y-95618120D01*
X8689282Y-94018120D01*
X8658950Y-93856919D01*
X8563680Y-93708865D01*
X8480760Y-93652208D01*
X8480760Y-90858686D01*
X8808300Y-90531146D01*
X8720992Y-90741407D01*
X8720529Y-91272503D01*
X8923342Y-91763349D01*
X9298556Y-92139218D01*
X9789047Y-92342888D01*
X10320143Y-92343351D01*
X10810989Y-92140538D01*
X11186858Y-91765324D01*
X11237602Y-91643120D01*
X13953664Y-91643120D01*
X14003342Y-91763349D01*
X14378556Y-92139218D01*
X14869047Y-92342888D01*
X15400143Y-92343351D01*
X15890989Y-92140538D01*
X16266858Y-91765324D01*
X16470528Y-91274833D01*
X16470991Y-90743737D01*
X16268178Y-90252891D01*
X15892964Y-89877022D01*
X15402473Y-89673352D01*
X15056890Y-89673051D01*
X15155229Y-89632418D01*
X15531098Y-89257204D01*
X15540318Y-89235000D01*
X25259224Y-89235000D01*
X25267582Y-89255229D01*
X25642796Y-89631098D01*
X26133287Y-89834768D01*
X26664383Y-89835231D01*
X27155229Y-89632418D01*
X27531098Y-89257204D01*
X27734768Y-88766713D01*
X27735231Y-88235617D01*
X27532418Y-87744771D01*
X27157204Y-87368902D01*
X26666713Y-87165232D01*
X26135617Y-87164769D01*
X25644771Y-87367582D01*
X25268902Y-87742796D01*
X25259682Y-87765000D01*
X15540776Y-87765000D01*
X15532418Y-87744771D01*
X15157204Y-87368902D01*
X14666713Y-87165232D01*
X14135617Y-87164769D01*
X13644771Y-87367582D01*
X13268902Y-87742796D01*
X13259682Y-87765000D01*
X9800000Y-87765000D01*
X9518728Y-87820949D01*
X9280276Y-87980277D01*
X7226037Y-90034517D01*
X7066709Y-90272968D01*
X7010760Y-90554240D01*
X7010760Y-93652418D01*
X6936505Y-93700200D01*
X6837181Y-93845565D01*
X6802238Y-94018120D01*
X6802238Y-95618120D01*
X6832570Y-95779321D01*
X6927840Y-95927375D01*
X7010760Y-95984032D01*
X7010760Y-106282310D01*
X6760531Y-106385702D01*
X6384662Y-106760916D01*
X6180992Y-107251407D01*
X6180529Y-107782503D01*
X635000Y-107782503D01*
X635000Y-95053870D01*
X3810760Y-95053870D01*
X3810760Y-95704647D01*
X3876985Y-95864528D01*
X3999352Y-95986895D01*
X4159233Y-96053120D01*
X4510010Y-96053120D01*
X4618760Y-95944370D01*
X4618760Y-94945120D01*
X4872760Y-94945120D01*
X4872760Y-95944370D01*
X4981510Y-96053120D01*
X5332287Y-96053120D01*
X5492168Y-95986895D01*
X5614535Y-95864528D01*
X5680760Y-95704647D01*
X5680760Y-95053870D01*
X5572010Y-94945120D01*
X4872760Y-94945120D01*
X4618760Y-94945120D01*
X3919510Y-94945120D01*
X3810760Y-95053870D01*
X635000Y-95053870D01*
X635000Y-93931593D01*
X3810760Y-93931593D01*
X3810760Y-94582370D01*
X3919510Y-94691120D01*
X4618760Y-94691120D01*
X4618760Y-93691870D01*
X4872760Y-93691870D01*
X4872760Y-94691120D01*
X5572010Y-94691120D01*
X5680760Y-94582370D01*
X5680760Y-93931593D01*
X5614535Y-93771712D01*
X5492168Y-93649345D01*
X5332287Y-93583120D01*
X4981510Y-93583120D01*
X4872760Y-93691870D01*
X4618760Y-93691870D01*
X4510010Y-93583120D01*
X4159233Y-93583120D01*
X3999352Y-93649345D01*
X3876985Y-93771712D01*
X3810760Y-93931593D01*
X635000Y-93931593D01*
X635000Y-64764383D01*
X28764769Y-64764383D01*
X28967582Y-65255229D01*
X29342796Y-65631098D01*
X29833287Y-65834768D01*
X30364383Y-65835231D01*
X30855229Y-65632418D01*
X31231098Y-65257204D01*
X31434768Y-64766713D01*
X31434883Y-64635000D01*
X37217904Y-64635000D01*
X37267582Y-64755229D01*
X37642796Y-65131098D01*
X38133287Y-65334768D01*
X38664383Y-65335231D01*
X39155229Y-65132418D01*
X39531098Y-64757204D01*
X39734768Y-64266713D01*
X39735231Y-63735617D01*
X39532418Y-63244771D01*
X39157204Y-62868902D01*
X38666713Y-62665232D01*
X38135617Y-62664769D01*
X37644771Y-62867582D01*
X37268902Y-63242796D01*
X37218158Y-63365000D01*
X30847807Y-63365000D01*
X30366713Y-63165232D01*
X29835617Y-63164769D01*
X29344771Y-63367582D01*
X28968902Y-63742796D01*
X28765232Y-64233287D01*
X28764769Y-64764383D01*
X635000Y-64764383D01*
X635000Y-61264383D01*
X34714769Y-61264383D01*
X34917582Y-61755229D01*
X35292796Y-62131098D01*
X35783287Y-62334768D01*
X36314383Y-62335231D01*
X36805229Y-62132418D01*
X37181098Y-61757204D01*
X37231842Y-61635000D01*
X38550000Y-61635000D01*
X38670980Y-61610936D01*
X38792322Y-61586946D01*
X38792635Y-61586737D01*
X38793004Y-61586664D01*
X38895552Y-61518144D01*
X38998491Y-61449535D01*
X38998701Y-61449221D01*
X38999013Y-61449013D01*
X39067538Y-61346458D01*
X39136381Y-61243686D01*
X39136455Y-61243317D01*
X39136664Y-61243004D01*
X39160736Y-61121986D01*
X39185000Y-61000738D01*
X39218516Y-32176170D01*
X72899460Y-32176170D01*
X72899460Y-35026947D01*
X72965685Y-35186828D01*
X73088052Y-35309195D01*
X73247933Y-35375420D01*
X74348710Y-35375420D01*
X74457460Y-35266670D01*
X74457460Y-32067420D01*
X74711460Y-32067420D01*
X74711460Y-35266670D01*
X74820210Y-35375420D01*
X75920987Y-35375420D01*
X76080868Y-35309195D01*
X76203235Y-35186828D01*
X76269460Y-35026947D01*
X76269460Y-32176170D01*
X76160710Y-32067420D01*
X74711460Y-32067420D01*
X74457460Y-32067420D01*
X73008210Y-32067420D01*
X72899460Y-32176170D01*
X39218516Y-32176170D01*
X39222379Y-28853893D01*
X72899460Y-28853893D01*
X72899460Y-31704670D01*
X73008210Y-31813420D01*
X74457460Y-31813420D01*
X74457460Y-28614170D01*
X74711460Y-28614170D01*
X74711460Y-31813420D01*
X76160710Y-31813420D01*
X76269460Y-31704670D01*
X76269460Y-28853893D01*
X76203235Y-28694012D01*
X76080868Y-28571645D01*
X75920987Y-28505420D01*
X74820210Y-28505420D01*
X74711460Y-28614170D01*
X74457460Y-28614170D01*
X74348710Y-28505420D01*
X73247933Y-28505420D01*
X73088052Y-28571645D01*
X72965685Y-28694012D01*
X72899460Y-28853893D01*
X39222379Y-28853893D01*
X39227904Y-24102797D01*
X44000554Y-24102797D01*
X44180580Y-24538492D01*
X44513635Y-24872129D01*
X44949015Y-25052914D01*
X45420437Y-25053326D01*
X45856132Y-24873300D01*
X46189769Y-24540245D01*
X46370554Y-24104865D01*
X46370966Y-23633443D01*
X46265951Y-23379286D01*
X56064319Y-23379286D01*
X56662124Y-24826086D01*
X57768091Y-25933985D01*
X59213846Y-26534315D01*
X60779286Y-26535681D01*
X62226086Y-25937876D01*
X63333985Y-24831909D01*
X63934315Y-23386154D01*
X63935681Y-21820714D01*
X63337876Y-20373914D01*
X62231909Y-19266015D01*
X60786154Y-18665685D01*
X59220714Y-18664319D01*
X57773914Y-19262124D01*
X56666015Y-20368091D01*
X56065685Y-21813846D01*
X56064319Y-23379286D01*
X46265951Y-23379286D01*
X46190940Y-23197748D01*
X45857885Y-22864111D01*
X45422505Y-22683326D01*
X44951083Y-22682914D01*
X44515388Y-22862940D01*
X44181751Y-23195995D01*
X44000966Y-23631375D01*
X44000554Y-24102797D01*
X39227904Y-24102797D01*
X39234264Y-18633950D01*
X48791812Y-18618119D01*
X48912807Y-18593844D01*
X49033764Y-18569784D01*
X49034209Y-18569486D01*
X49034735Y-18569381D01*
X49137263Y-18500628D01*
X49239773Y-18432133D01*
X49874773Y-17797133D01*
X50012424Y-17591124D01*
X50060761Y-17348120D01*
X50060760Y-17348115D01*
X50060760Y-7520515D01*
X50440458Y-7266809D01*
X50751527Y-6801262D01*
X50860760Y-6252111D01*
X50860760Y-5584129D01*
X50751527Y-5034978D01*
X50472991Y-4618120D01*
X54332238Y-4618120D01*
X54332238Y-7218120D01*
X54362570Y-7379321D01*
X54457840Y-7527375D01*
X54603205Y-7626699D01*
X54775760Y-7661642D01*
X55225166Y-7661642D01*
X55256037Y-7707843D01*
X57796036Y-10247843D01*
X58034487Y-10407171D01*
X58081154Y-10416453D01*
X58315760Y-10463120D01*
X62125760Y-10463120D01*
X62407032Y-10407171D01*
X62645483Y-10247843D01*
X64641572Y-8251755D01*
X64654390Y-8282778D01*
X65198239Y-8827577D01*
X65909176Y-9122783D01*
X66678967Y-9123455D01*
X67390418Y-8829490D01*
X67935217Y-8285641D01*
X68230423Y-7574704D01*
X68230451Y-7541621D01*
X75760451Y-7541621D01*
X76031628Y-8197920D01*
X76533319Y-8700487D01*
X77189144Y-8972809D01*
X77899261Y-8973429D01*
X78555560Y-8702252D01*
X79058127Y-8200561D01*
X79330449Y-7544736D01*
X79331069Y-6834619D01*
X79059892Y-6178320D01*
X78558201Y-5675753D01*
X77902376Y-5403431D01*
X77192259Y-5402811D01*
X76535960Y-5673988D01*
X76033393Y-6175679D01*
X75761071Y-6831504D01*
X75760451Y-7541621D01*
X68230451Y-7541621D01*
X68231095Y-6804913D01*
X67937130Y-6093462D01*
X67393281Y-5548663D01*
X66682344Y-5253457D01*
X65912553Y-5252785D01*
X65201102Y-5546750D01*
X64656303Y-6090599D01*
X64491367Y-6487809D01*
X64431154Y-6499787D01*
X64384487Y-6509069D01*
X64146036Y-6668397D01*
X61821314Y-8993120D01*
X58620207Y-8993120D01*
X57116722Y-7489636D01*
X57184339Y-7390675D01*
X57219282Y-7218120D01*
X57219282Y-7109273D01*
X57390864Y-7322620D01*
X57883941Y-7592487D01*
X57966721Y-7610024D01*
X58188760Y-7538275D01*
X58188760Y-6045120D01*
X58442760Y-6045120D01*
X58442760Y-7538275D01*
X58664799Y-7610024D01*
X58747579Y-7592487D01*
X59240656Y-7322620D01*
X59592926Y-6884603D01*
X59750760Y-6345120D01*
X59750760Y-6045120D01*
X58442760Y-6045120D01*
X58188760Y-6045120D01*
X58168760Y-6045120D01*
X58168760Y-5791120D01*
X58188760Y-5791120D01*
X58188760Y-4297965D01*
X58442760Y-4297965D01*
X58442760Y-5791120D01*
X59750760Y-5791120D01*
X59750760Y-5491120D01*
X59592926Y-4951637D01*
X59240656Y-4513620D01*
X58747579Y-4243753D01*
X58664799Y-4226216D01*
X58442760Y-4297965D01*
X58188760Y-4297965D01*
X57966721Y-4226216D01*
X57883941Y-4243753D01*
X57390864Y-4513620D01*
X57219282Y-4726967D01*
X57219282Y-4618120D01*
X57188950Y-4456919D01*
X57093680Y-4308865D01*
X56948315Y-4209541D01*
X56775760Y-4174598D01*
X54775760Y-4174598D01*
X54614559Y-4204930D01*
X54466505Y-4300200D01*
X54367181Y-4445565D01*
X54332238Y-4618120D01*
X50472991Y-4618120D01*
X50440458Y-4569431D01*
X49974911Y-4258362D01*
X49425760Y-4149129D01*
X48876609Y-4258362D01*
X48411062Y-4569431D01*
X48158968Y-4946716D01*
X47810656Y-4513620D01*
X47317579Y-4243753D01*
X47234799Y-4226216D01*
X47012760Y-4297965D01*
X47012760Y-5791120D01*
X47032760Y-5791120D01*
X47032760Y-6045120D01*
X47012760Y-6045120D01*
X47012760Y-7538275D01*
X47234799Y-7610024D01*
X47317579Y-7592487D01*
X47810656Y-7322620D01*
X48158968Y-6889524D01*
X48411062Y-7266809D01*
X48790760Y-7520515D01*
X48790760Y-17085094D01*
X48527298Y-17348556D01*
X38598948Y-17365001D01*
X38478393Y-17389188D01*
X38357678Y-17413054D01*
X38356920Y-17413560D01*
X38356025Y-17413739D01*
X38253890Y-17482229D01*
X38151509Y-17550465D01*
X38151001Y-17551223D01*
X38150244Y-17551731D01*
X38082079Y-17654114D01*
X38013619Y-17756314D01*
X38013440Y-17757208D01*
X38012934Y-17757968D01*
X37989143Y-17878621D01*
X37965000Y-17999262D01*
X37915738Y-60365000D01*
X37232096Y-60365000D01*
X37182418Y-60244771D01*
X36807204Y-59868902D01*
X36316713Y-59665232D01*
X35785617Y-59664769D01*
X35294771Y-59867582D01*
X34918902Y-60242796D01*
X34715232Y-60733287D01*
X34714769Y-61264383D01*
X635000Y-61264383D01*
X635000Y-48610000D01*
X4931009Y-48610000D01*
X5040242Y-49159151D01*
X5351311Y-49624698D01*
X5473703Y-49706478D01*
X5400000Y-49706478D01*
X5238799Y-49736810D01*
X5090745Y-49832080D01*
X4991421Y-49977445D01*
X4956478Y-50150000D01*
X4956478Y-52150000D01*
X4986810Y-52311201D01*
X5082080Y-52459255D01*
X5227445Y-52558579D01*
X5400000Y-52593522D01*
X5965000Y-52593522D01*
X5965000Y-53147301D01*
X5618902Y-53492796D01*
X5415232Y-53983287D01*
X5414769Y-54514383D01*
X5617582Y-55005229D01*
X5992796Y-55381098D01*
X6483287Y-55584768D01*
X7014383Y-55585231D01*
X7505229Y-55382418D01*
X7881098Y-55007204D01*
X8084768Y-54516713D01*
X8085231Y-53985617D01*
X7882418Y-53494771D01*
X7507204Y-53118902D01*
X7435000Y-53088920D01*
X7435000Y-52593522D01*
X8000000Y-52593522D01*
X8161201Y-52563190D01*
X8309255Y-52467920D01*
X8408579Y-52322555D01*
X8443522Y-52150000D01*
X8443522Y-50150000D01*
X8413190Y-49988799D01*
X8317920Y-49840745D01*
X8172555Y-49741421D01*
X8000000Y-49706478D01*
X7926297Y-49706478D01*
X8048689Y-49624698D01*
X8359758Y-49159151D01*
X8468991Y-48610000D01*
X8359758Y-48060849D01*
X8048689Y-47595302D01*
X7583142Y-47284233D01*
X7435000Y-47254766D01*
X7435000Y-46440776D01*
X7455229Y-46432418D01*
X7831098Y-46057204D01*
X8034768Y-45566713D01*
X8035231Y-45035617D01*
X7832418Y-44544771D01*
X7457204Y-44168902D01*
X6966713Y-43965232D01*
X6435617Y-43964769D01*
X5944771Y-44167582D01*
X5568902Y-44542796D01*
X5365232Y-45033287D01*
X5364769Y-45564383D01*
X5567582Y-46055229D01*
X5942796Y-46431098D01*
X5965000Y-46440318D01*
X5965000Y-47254766D01*
X5816858Y-47284233D01*
X5351311Y-47595302D01*
X5040242Y-48060849D01*
X4931009Y-48610000D01*
X635000Y-48610000D01*
X635000Y-23389383D01*
X3639769Y-23389383D01*
X3842582Y-23880229D01*
X4217796Y-24256098D01*
X4708287Y-24459768D01*
X5239383Y-24460231D01*
X5361675Y-24409701D01*
X6400987Y-25449013D01*
X6606995Y-25586664D01*
X6850000Y-25635000D01*
X18765000Y-25635000D01*
X18765000Y-34750000D01*
X18784458Y-34847821D01*
X18796285Y-34946859D01*
X18808477Y-34968576D01*
X18813336Y-34993004D01*
X18868752Y-35075940D01*
X18917575Y-35162905D01*
X27953648Y-45720358D01*
X27865232Y-45933287D01*
X27864769Y-46464383D01*
X28067582Y-46955229D01*
X28442796Y-47331098D01*
X28933287Y-47534768D01*
X29464383Y-47535231D01*
X29955229Y-47332418D01*
X30331098Y-46957204D01*
X30534768Y-46466713D01*
X30535231Y-45935617D01*
X30332418Y-45444771D01*
X29957204Y-45068902D01*
X29466713Y-44865232D01*
X28935617Y-44864769D01*
X28904142Y-44877774D01*
X20035000Y-34515359D01*
X20035000Y-25050005D01*
X20035001Y-25050000D01*
X19986664Y-24806996D01*
X19849013Y-24600987D01*
X19799013Y-24550987D01*
X19593004Y-24413336D01*
X19350000Y-24365000D01*
X16122765Y-24365000D01*
X16431098Y-24057204D01*
X16481842Y-23935000D01*
X22465000Y-23935000D01*
X22465000Y-33700000D01*
X22485293Y-33802022D01*
X22499048Y-33905140D01*
X22509334Y-33922887D01*
X22513336Y-33943004D01*
X22571131Y-34029500D01*
X22623297Y-34119499D01*
X30646725Y-43237031D01*
X30565232Y-43433287D01*
X30564769Y-43964383D01*
X30767582Y-44455229D01*
X31142796Y-44831098D01*
X31633287Y-45034768D01*
X32164383Y-45035231D01*
X32655229Y-44832418D01*
X33031098Y-44457204D01*
X33234768Y-43966713D01*
X33235231Y-43435617D01*
X33032418Y-42944771D01*
X32657204Y-42568902D01*
X32166713Y-42365232D01*
X31635617Y-42364769D01*
X31588126Y-42384392D01*
X23735000Y-33460384D01*
X23735000Y-23300000D01*
X23686664Y-23056996D01*
X23549013Y-22850987D01*
X23343004Y-22713336D01*
X23100000Y-22665000D01*
X16482096Y-22665000D01*
X16432418Y-22544771D01*
X16123187Y-22235000D01*
X25565000Y-22235000D01*
X25565000Y-31600000D01*
X25584007Y-31695557D01*
X25594843Y-31792380D01*
X25608016Y-31816257D01*
X25613336Y-31843004D01*
X25667466Y-31924015D01*
X25714528Y-32009319D01*
X33557398Y-41311327D01*
X33465232Y-41533287D01*
X33464769Y-42064383D01*
X33667582Y-42555229D01*
X34042796Y-42931098D01*
X34533287Y-43134768D01*
X35064383Y-43135231D01*
X35555229Y-42932418D01*
X35931098Y-42557204D01*
X36134768Y-42066713D01*
X36135231Y-41535617D01*
X35932418Y-41044771D01*
X35557204Y-40668902D01*
X35066713Y-40465232D01*
X34535617Y-40464769D01*
X34512763Y-40474212D01*
X26835000Y-31368028D01*
X26835000Y-21600000D01*
X26786664Y-21356996D01*
X26649013Y-21150987D01*
X26443004Y-21013336D01*
X26200000Y-20965000D01*
X10735000Y-20965000D01*
X10735000Y-20486642D01*
X10914240Y-20486642D01*
X11075441Y-20456310D01*
X11223495Y-20361040D01*
X11322819Y-20215675D01*
X11357762Y-20043120D01*
X11357762Y-19150000D01*
X14056478Y-19150000D01*
X14056478Y-20050000D01*
X14086810Y-20211201D01*
X14182080Y-20359255D01*
X14327445Y-20458579D01*
X14500000Y-20493522D01*
X16200000Y-20493522D01*
X16361201Y-20463190D01*
X16509255Y-20367920D01*
X16600076Y-20235000D01*
X18138564Y-20235000D01*
X18167582Y-20305229D01*
X18542796Y-20681098D01*
X19033287Y-20884768D01*
X19564383Y-20885231D01*
X20055229Y-20682418D01*
X20431098Y-20307204D01*
X20634768Y-19816713D01*
X20635231Y-19285617D01*
X20432418Y-18794771D01*
X20057204Y-18418902D01*
X19566713Y-18215232D01*
X19035617Y-18214769D01*
X18544771Y-18417582D01*
X18168902Y-18792796D01*
X18097397Y-18965000D01*
X16597876Y-18965000D01*
X16517920Y-18840745D01*
X16372555Y-18741421D01*
X16200000Y-18706478D01*
X14500000Y-18706478D01*
X14338799Y-18736810D01*
X14190745Y-18832080D01*
X14091421Y-18977445D01*
X14056478Y-19150000D01*
X11357762Y-19150000D01*
X11357762Y-19143120D01*
X11327430Y-18981919D01*
X11232160Y-18833865D01*
X11086795Y-18734541D01*
X10914240Y-18699598D01*
X9214240Y-18699598D01*
X9053039Y-18729930D01*
X8904985Y-18825200D01*
X8805661Y-18970565D01*
X8770718Y-19143120D01*
X8770718Y-20043120D01*
X8801050Y-20204321D01*
X8896320Y-20352375D01*
X9041685Y-20451699D01*
X9214240Y-20486642D01*
X9465000Y-20486642D01*
X9465000Y-22017904D01*
X9344771Y-22067582D01*
X8968902Y-22442796D01*
X8765232Y-22933287D01*
X8764769Y-23464383D01*
X8967582Y-23955229D01*
X9342796Y-24331098D01*
X9424441Y-24365000D01*
X7113026Y-24365000D01*
X6259881Y-23511855D01*
X6309768Y-23391713D01*
X6310231Y-22860617D01*
X6107418Y-22369771D01*
X5732204Y-21993902D01*
X5710000Y-21984682D01*
X5710000Y-20461642D01*
X5924240Y-20461642D01*
X6085441Y-20431310D01*
X6233495Y-20336040D01*
X6332819Y-20190675D01*
X6367762Y-20018120D01*
X6367762Y-19118120D01*
X6337430Y-18956919D01*
X6242160Y-18808865D01*
X6096795Y-18709541D01*
X5924240Y-18674598D01*
X4224240Y-18674598D01*
X4063039Y-18704930D01*
X3914985Y-18800200D01*
X3815661Y-18945565D01*
X3780718Y-19118120D01*
X3780718Y-20018120D01*
X3811050Y-20179321D01*
X3906320Y-20327375D01*
X4051685Y-20426699D01*
X4224240Y-20461642D01*
X4240000Y-20461642D01*
X4240000Y-21984224D01*
X4219771Y-21992582D01*
X3843902Y-22367796D01*
X3640232Y-22858287D01*
X3639769Y-23389383D01*
X635000Y-23389383D01*
X635000Y-12744632D01*
X3428854Y-12744632D01*
X3691115Y-13085152D01*
X4680858Y-13486865D01*
X5748991Y-13479241D01*
X6401655Y-13208898D01*
X4554517Y-15056037D01*
X4395189Y-15294488D01*
X4339240Y-15575760D01*
X4339240Y-15774598D01*
X4224240Y-15774598D01*
X4063039Y-15804930D01*
X3914985Y-15900200D01*
X3815661Y-16045565D01*
X3780718Y-16218120D01*
X3780718Y-17118120D01*
X3811050Y-17279321D01*
X3906320Y-17427375D01*
X4051685Y-17526699D01*
X4224240Y-17561642D01*
X5924240Y-17561642D01*
X6085441Y-17531310D01*
X6233495Y-17436040D01*
X6332819Y-17290675D01*
X6367762Y-17118120D01*
X6367762Y-16243120D01*
X8770718Y-16243120D01*
X8770718Y-17143120D01*
X8801050Y-17304321D01*
X8896320Y-17452375D01*
X9041685Y-17551699D01*
X9214240Y-17586642D01*
X10914240Y-17586642D01*
X11075441Y-17556310D01*
X11223495Y-17461040D01*
X11245988Y-17428120D01*
X11606880Y-17428120D01*
X11888152Y-17372171D01*
X12126603Y-17212843D01*
X14404447Y-14935000D01*
X15713880Y-14935000D01*
X15995152Y-14879051D01*
X16233603Y-14719723D01*
X17332324Y-13621003D01*
X17409069Y-13652870D01*
X17979947Y-13653368D01*
X17998894Y-13645539D01*
X15837956Y-15806478D01*
X14500000Y-15806478D01*
X14338799Y-15836810D01*
X14190745Y-15932080D01*
X14091421Y-16077445D01*
X14056478Y-16250000D01*
X14056478Y-17150000D01*
X14086810Y-17311201D01*
X14182080Y-17459255D01*
X14327445Y-17558579D01*
X14500000Y-17593522D01*
X16200000Y-17593522D01*
X16361201Y-17563190D01*
X16509255Y-17467920D01*
X16608579Y-17322555D01*
X16643522Y-17150000D01*
X16643522Y-17079804D01*
X20102324Y-13621003D01*
X20179069Y-13652870D01*
X20749947Y-13653368D01*
X21277560Y-13435363D01*
X21451844Y-13261382D01*
X22372103Y-13261382D01*
X22481755Y-13471984D01*
X23018983Y-13665085D01*
X23589214Y-13637898D01*
X23989765Y-13471984D01*
X24099417Y-13261382D01*
X23235760Y-12397725D01*
X22372103Y-13261382D01*
X21451844Y-13261382D01*
X21681584Y-13032043D01*
X21844350Y-12640060D01*
X21981896Y-12972125D01*
X22192498Y-13081777D01*
X23056155Y-12218120D01*
X23415365Y-12218120D01*
X24279022Y-13081777D01*
X24489624Y-12972125D01*
X24571393Y-12744632D01*
X28428854Y-12744632D01*
X28691115Y-13085152D01*
X29680858Y-13486865D01*
X30748991Y-13479241D01*
X31700405Y-13085152D01*
X31962666Y-12744632D01*
X30195760Y-10977725D01*
X28428854Y-12744632D01*
X24571393Y-12744632D01*
X24682725Y-12434897D01*
X24655538Y-11864666D01*
X24489624Y-11464115D01*
X24279022Y-11354463D01*
X23415365Y-12218120D01*
X23056155Y-12218120D01*
X22192498Y-11354463D01*
X21981896Y-11464115D01*
X21853956Y-11820058D01*
X21683003Y-11406320D01*
X21451945Y-11174858D01*
X22372103Y-11174858D01*
X23235760Y-12038515D01*
X24099417Y-11174858D01*
X23989765Y-10964256D01*
X23452537Y-10771155D01*
X22882306Y-10798342D01*
X22481755Y-10964256D01*
X22372103Y-11174858D01*
X21451945Y-11174858D01*
X21279683Y-11002296D01*
X20752451Y-10783370D01*
X20181573Y-10782872D01*
X19653960Y-11000877D01*
X19249936Y-11404197D01*
X19080614Y-11811970D01*
X18913003Y-11406320D01*
X18509683Y-11002296D01*
X17982451Y-10783370D01*
X17411573Y-10782872D01*
X16883960Y-11000877D01*
X16479936Y-11404197D01*
X16310614Y-11811970D01*
X16143003Y-11406320D01*
X15739683Y-11002296D01*
X15212451Y-10783370D01*
X14641573Y-10782872D01*
X14113960Y-11000877D01*
X13709936Y-11404197D01*
X13540614Y-11811970D01*
X13373003Y-11406320D01*
X12969683Y-11002296D01*
X12442451Y-10783370D01*
X11871573Y-10782872D01*
X11343960Y-11000877D01*
X10939936Y-11404197D01*
X10721010Y-11931429D01*
X10720512Y-12502307D01*
X10938517Y-13029920D01*
X11341837Y-13433944D01*
X11869069Y-13652870D01*
X12439947Y-13653368D01*
X12967560Y-13435363D01*
X13371584Y-13032043D01*
X13540906Y-12624270D01*
X13708517Y-13029920D01*
X14111837Y-13433944D01*
X14186628Y-13465000D01*
X14100000Y-13465000D01*
X13840431Y-13516632D01*
X13818728Y-13520949D01*
X13580276Y-13680277D01*
X11302434Y-15958120D01*
X11247768Y-15958120D01*
X11232160Y-15933865D01*
X11086795Y-15834541D01*
X10914240Y-15799598D01*
X9214240Y-15799598D01*
X9053039Y-15829930D01*
X8904985Y-15925200D01*
X8805661Y-16070565D01*
X8770718Y-16243120D01*
X6367762Y-16243120D01*
X6367762Y-16218120D01*
X6337430Y-16056919D01*
X6242160Y-15908865D01*
X6096795Y-15809541D01*
X5924240Y-15774598D01*
X5914848Y-15774598D01*
X11576327Y-10113120D01*
X12291784Y-10113120D01*
X12323517Y-10189920D01*
X12726837Y-10593944D01*
X13254069Y-10812870D01*
X13824947Y-10813368D01*
X14352560Y-10595363D01*
X14756584Y-10192043D01*
X14925906Y-9784270D01*
X15093517Y-10189920D01*
X15496837Y-10593944D01*
X16024069Y-10812870D01*
X16594947Y-10813368D01*
X17122560Y-10595363D01*
X17526584Y-10192043D01*
X17695906Y-9784270D01*
X17863517Y-10189920D01*
X18266837Y-10593944D01*
X18794069Y-10812870D01*
X19364947Y-10813368D01*
X19892560Y-10595363D01*
X20296584Y-10192043D01*
X20465906Y-9784270D01*
X20633517Y-10189920D01*
X21036837Y-10593944D01*
X21564069Y-10812870D01*
X22134947Y-10813368D01*
X22662560Y-10595363D01*
X22975249Y-10283218D01*
X27507015Y-10283218D01*
X27514639Y-11351351D01*
X27908728Y-12302765D01*
X28249248Y-12565026D01*
X30016155Y-10798120D01*
X30375365Y-10798120D01*
X32142272Y-12565026D01*
X32482792Y-12302765D01*
X32884505Y-11313022D01*
X32877173Y-10285750D01*
X34015000Y-10285750D01*
X34015000Y-10936527D01*
X34081225Y-11096408D01*
X34203592Y-11218775D01*
X34363473Y-11285000D01*
X34714250Y-11285000D01*
X34823000Y-11176250D01*
X34823000Y-10177000D01*
X35077000Y-10177000D01*
X35077000Y-11176250D01*
X35185750Y-11285000D01*
X35536527Y-11285000D01*
X35696408Y-11218775D01*
X35818775Y-11096408D01*
X35885000Y-10936527D01*
X35885000Y-10285750D01*
X35776250Y-10177000D01*
X35077000Y-10177000D01*
X34823000Y-10177000D01*
X34123750Y-10177000D01*
X34015000Y-10285750D01*
X32877173Y-10285750D01*
X32876881Y-10244889D01*
X32482792Y-9293475D01*
X32313998Y-9163473D01*
X34015000Y-9163473D01*
X34015000Y-9814250D01*
X34123750Y-9923000D01*
X34823000Y-9923000D01*
X34823000Y-8923750D01*
X35077000Y-8923750D01*
X35077000Y-9923000D01*
X35776250Y-9923000D01*
X35885000Y-9814250D01*
X35885000Y-9163473D01*
X35818775Y-9003592D01*
X35696408Y-8881225D01*
X35536527Y-8815000D01*
X35185750Y-8815000D01*
X35077000Y-8923750D01*
X34823000Y-8923750D01*
X34714250Y-8815000D01*
X34363473Y-8815000D01*
X34203592Y-8881225D01*
X34081225Y-9003592D01*
X34015000Y-9163473D01*
X32313998Y-9163473D01*
X32142272Y-9031214D01*
X30375365Y-10798120D01*
X30016155Y-10798120D01*
X28249248Y-9031214D01*
X27908728Y-9293475D01*
X27507015Y-10283218D01*
X22975249Y-10283218D01*
X23066584Y-10192043D01*
X23285510Y-9664811D01*
X23286008Y-9093933D01*
X23253374Y-9014952D01*
X23416718Y-8851608D01*
X28428854Y-8851608D01*
X30195760Y-10618515D01*
X31962666Y-8851608D01*
X31700405Y-8511088D01*
X30710662Y-8109375D01*
X29642529Y-8116999D01*
X28691115Y-8511088D01*
X28428854Y-8851608D01*
X23416718Y-8851608D01*
X24482576Y-7785750D01*
X34015000Y-7785750D01*
X34015000Y-8436527D01*
X34081225Y-8596408D01*
X34203592Y-8718775D01*
X34363473Y-8785000D01*
X34714250Y-8785000D01*
X34823000Y-8676250D01*
X34823000Y-7677000D01*
X35077000Y-7677000D01*
X35077000Y-8676250D01*
X35185750Y-8785000D01*
X35536527Y-8785000D01*
X35696408Y-8718775D01*
X35818775Y-8596408D01*
X35885000Y-8436527D01*
X35885000Y-7785750D01*
X35776250Y-7677000D01*
X35077000Y-7677000D01*
X34823000Y-7677000D01*
X34123750Y-7677000D01*
X34015000Y-7785750D01*
X24482576Y-7785750D01*
X25604853Y-6663473D01*
X34015000Y-6663473D01*
X34015000Y-7314250D01*
X34123750Y-7423000D01*
X34823000Y-7423000D01*
X34823000Y-6423750D01*
X35077000Y-6423750D01*
X35077000Y-7423000D01*
X35776250Y-7423000D01*
X35885000Y-7314250D01*
X35885000Y-6663473D01*
X35818775Y-6503592D01*
X35696408Y-6381225D01*
X35536527Y-6315000D01*
X35185750Y-6315000D01*
X35077000Y-6423750D01*
X34823000Y-6423750D01*
X34714250Y-6315000D01*
X34363473Y-6315000D01*
X34203592Y-6381225D01*
X34081225Y-6503592D01*
X34015000Y-6663473D01*
X25604853Y-6663473D01*
X26133327Y-6135000D01*
X36395554Y-6135000D01*
X37007164Y-6746611D01*
X37006478Y-6750000D01*
X37006478Y-8350000D01*
X37036810Y-8511201D01*
X37132080Y-8659255D01*
X37215000Y-8715912D01*
X37215000Y-8884298D01*
X37140745Y-8932080D01*
X37041421Y-9077445D01*
X37006478Y-9250000D01*
X37006478Y-10850000D01*
X37036810Y-11011201D01*
X37132080Y-11159255D01*
X37215000Y-11215912D01*
X37215000Y-11750000D01*
X37236213Y-11856642D01*
X37270949Y-12031272D01*
X37430277Y-12269723D01*
X37573626Y-12413072D01*
X37565232Y-12433287D01*
X37564769Y-12964383D01*
X37767582Y-13455229D01*
X38142796Y-13831098D01*
X38633287Y-14034768D01*
X39164383Y-14035231D01*
X39323714Y-13969397D01*
X39461880Y-13996880D01*
X40392238Y-13996880D01*
X40392238Y-14111880D01*
X40422570Y-14273081D01*
X40517840Y-14421135D01*
X40663205Y-14520459D01*
X40835760Y-14555402D01*
X41735760Y-14555402D01*
X41896961Y-14525070D01*
X42045015Y-14429800D01*
X42144339Y-14284435D01*
X42179282Y-14111880D01*
X42179282Y-12411880D01*
X42148950Y-12250679D01*
X42053680Y-12102625D01*
X41908315Y-12003301D01*
X41735760Y-11968358D01*
X40835760Y-11968358D01*
X40674559Y-11998690D01*
X40526505Y-12093960D01*
X40427181Y-12239325D01*
X40392238Y-12411880D01*
X40392238Y-12526880D01*
X40235151Y-12526880D01*
X40235231Y-12435617D01*
X40032418Y-11944771D01*
X39657204Y-11568902D01*
X39166713Y-11365232D01*
X38685000Y-11364812D01*
X38685000Y-11215702D01*
X38759255Y-11167920D01*
X38858579Y-11022555D01*
X38893522Y-10850000D01*
X38893522Y-9713120D01*
X40365718Y-9713120D01*
X40365718Y-11413120D01*
X40396050Y-11574321D01*
X40491320Y-11722375D01*
X40636685Y-11821699D01*
X40809240Y-11856642D01*
X41709240Y-11856642D01*
X41870441Y-11826310D01*
X42018495Y-11731040D01*
X42117819Y-11585675D01*
X42152762Y-11413120D01*
X42152762Y-9713120D01*
X43265718Y-9713120D01*
X43265718Y-11413120D01*
X43296050Y-11574321D01*
X43391320Y-11722375D01*
X43450760Y-11762989D01*
X43450760Y-12078352D01*
X43426505Y-12093960D01*
X43327181Y-12239325D01*
X43292238Y-12411880D01*
X43292238Y-14111880D01*
X43322570Y-14273081D01*
X43417840Y-14421135D01*
X43563205Y-14520459D01*
X43735760Y-14555402D01*
X44635760Y-14555402D01*
X44796961Y-14525070D01*
X44945015Y-14429800D01*
X45044339Y-14284435D01*
X45079282Y-14111880D01*
X45079282Y-12411880D01*
X45048950Y-12250679D01*
X44953680Y-12102625D01*
X44920760Y-12080132D01*
X44920760Y-11727725D01*
X45017819Y-11585675D01*
X45052762Y-11413120D01*
X45052762Y-9713120D01*
X45022430Y-9551919D01*
X44927160Y-9403865D01*
X44781795Y-9304541D01*
X44609240Y-9269598D01*
X43709240Y-9269598D01*
X43548039Y-9299930D01*
X43399985Y-9395200D01*
X43300661Y-9540565D01*
X43265718Y-9713120D01*
X42152762Y-9713120D01*
X42122430Y-9551919D01*
X42027160Y-9403865D01*
X41994240Y-9381372D01*
X41994240Y-9309086D01*
X43641685Y-7661642D01*
X45345760Y-7661642D01*
X45506961Y-7631310D01*
X45655015Y-7536040D01*
X45754339Y-7390675D01*
X45789282Y-7218120D01*
X45789282Y-7109273D01*
X45960864Y-7322620D01*
X46453941Y-7592487D01*
X46536721Y-7610024D01*
X46758760Y-7538275D01*
X46758760Y-6045120D01*
X46738760Y-6045120D01*
X46738760Y-5791120D01*
X46758760Y-5791120D01*
X46758760Y-4297965D01*
X46536721Y-4226216D01*
X46453941Y-4243753D01*
X45960864Y-4513620D01*
X45789282Y-4726967D01*
X45789282Y-4618120D01*
X45758950Y-4456919D01*
X45663680Y-4308865D01*
X45518315Y-4209541D01*
X45345760Y-4174598D01*
X43345760Y-4174598D01*
X43184559Y-4204930D01*
X43036505Y-4300200D01*
X42937181Y-4445565D01*
X42902238Y-4618120D01*
X42902238Y-6322195D01*
X40739517Y-8484917D01*
X40580189Y-8723368D01*
X40524240Y-9004640D01*
X40524240Y-9379592D01*
X40499985Y-9395200D01*
X40400661Y-9540565D01*
X40365718Y-9713120D01*
X38893522Y-9713120D01*
X38893522Y-9250000D01*
X38863190Y-9088799D01*
X38767920Y-8940745D01*
X38685000Y-8884088D01*
X38685000Y-8715702D01*
X38759255Y-8667920D01*
X38858579Y-8522555D01*
X38893522Y-8350000D01*
X38893522Y-6750000D01*
X38863190Y-6588799D01*
X38767920Y-6440745D01*
X38622555Y-6341421D01*
X38608966Y-6338669D01*
X38551130Y-6252111D01*
X38469724Y-6130277D01*
X37219723Y-4880277D01*
X36981272Y-4720949D01*
X36700000Y-4665000D01*
X25828880Y-4665000D01*
X25547608Y-4720949D01*
X25309156Y-4880277D01*
X22214196Y-7975237D01*
X22137451Y-7943370D01*
X21566573Y-7942872D01*
X21038960Y-8160877D01*
X20634936Y-8564197D01*
X20465614Y-8971970D01*
X20298003Y-8566320D01*
X19894683Y-8162296D01*
X19367451Y-7943370D01*
X18796573Y-7942872D01*
X18268960Y-8160877D01*
X17864936Y-8564197D01*
X17695614Y-8971970D01*
X17528003Y-8566320D01*
X17124683Y-8162296D01*
X16597451Y-7943370D01*
X16026573Y-7942872D01*
X15498960Y-8160877D01*
X15094936Y-8564197D01*
X14925614Y-8971970D01*
X14758003Y-8566320D01*
X14354683Y-8162296D01*
X13827451Y-7943370D01*
X13256573Y-7942872D01*
X12728960Y-8160877D01*
X12324936Y-8564197D01*
X12292164Y-8643120D01*
X11271880Y-8643120D01*
X10990608Y-8699069D01*
X10752157Y-8858396D01*
X7602346Y-12008208D01*
X7884505Y-11313022D01*
X7876881Y-10244889D01*
X7482792Y-9293475D01*
X7142272Y-9031214D01*
X5375365Y-10798120D01*
X5389508Y-10812262D01*
X5209902Y-10991868D01*
X5195760Y-10977725D01*
X3428854Y-12744632D01*
X635000Y-12744632D01*
X635000Y-10283218D01*
X2507015Y-10283218D01*
X2514639Y-11351351D01*
X2908728Y-12302765D01*
X3249248Y-12565026D01*
X5016155Y-10798120D01*
X3249248Y-9031214D01*
X2908728Y-9293475D01*
X2507015Y-10283218D01*
X635000Y-10283218D01*
X635000Y-8851608D01*
X3428854Y-8851608D01*
X5195760Y-10618515D01*
X6962666Y-8851608D01*
X6700405Y-8511088D01*
X5710662Y-8109375D01*
X4642529Y-8116999D01*
X3691115Y-8511088D01*
X3428854Y-8851608D01*
X635000Y-8851608D01*
X635000Y-635000D01*
X92365000Y-635000D01*
X92365000Y-126965000D01*
G36*
X89815000Y-97993120D02*
X87999282Y-97993120D01*
X87999282Y-97628120D01*
X87968950Y-97466919D01*
X87873680Y-97318865D01*
X87728315Y-97219541D01*
X87555760Y-97184598D01*
X84955760Y-97184598D01*
X84794559Y-97214930D01*
X84646505Y-97310200D01*
X84547181Y-97455565D01*
X84512238Y-97628120D01*
X84512238Y-99628120D01*
X84542570Y-99789321D01*
X84637840Y-99937375D01*
X84783205Y-100036699D01*
X84955760Y-100071642D01*
X85029463Y-100071642D01*
X84907071Y-100153422D01*
X84653365Y-100533120D01*
X81368923Y-100533120D01*
X81332418Y-100444771D01*
X80957204Y-100068902D01*
X80466713Y-99865232D01*
X79935617Y-99864769D01*
X79444771Y-100067582D01*
X79068902Y-100442796D01*
X78865232Y-100933287D01*
X78864769Y-101464383D01*
X79067582Y-101955229D01*
X79442796Y-102331098D01*
X79933287Y-102534768D01*
X80464383Y-102535231D01*
X80955229Y-102332418D01*
X81331098Y-101957204D01*
X81395079Y-101803120D01*
X84653365Y-101803120D01*
X84907071Y-102182818D01*
X85289157Y-102438120D01*
X84907071Y-102693422D01*
X84720183Y-102973120D01*
X81240822Y-102973120D01*
X81200000Y-102965000D01*
X81159178Y-102973120D01*
X78135000Y-102973120D01*
X78135000Y-93897159D01*
X84563856Y-93897159D01*
X84581393Y-93979939D01*
X84851260Y-94473016D01*
X85289277Y-94825286D01*
X85828760Y-94983120D01*
X86128760Y-94983120D01*
X86128760Y-93675120D01*
X86382760Y-93675120D01*
X86382760Y-94983120D01*
X86682760Y-94983120D01*
X87222243Y-94825286D01*
X87660260Y-94473016D01*
X87930127Y-93979939D01*
X87947664Y-93897159D01*
X87875915Y-93675120D01*
X86382760Y-93675120D01*
X86128760Y-93675120D01*
X84635605Y-93675120D01*
X84563856Y-93897159D01*
X78135000Y-93897159D01*
X78135000Y-91743120D01*
X84720183Y-91743120D01*
X84907071Y-92022818D01*
X85284356Y-92274912D01*
X84851260Y-92623224D01*
X84581393Y-93116301D01*
X84563856Y-93199081D01*
X84635605Y-93421120D01*
X86128760Y-93421120D01*
X86128760Y-93401120D01*
X86382760Y-93401120D01*
X86382760Y-93421120D01*
X87875915Y-93421120D01*
X87947664Y-93199081D01*
X87930127Y-93116301D01*
X87660260Y-92623224D01*
X87227164Y-92274912D01*
X87604449Y-92022818D01*
X87915518Y-91557271D01*
X88024751Y-91008120D01*
X87915518Y-90458969D01*
X87604449Y-89993422D01*
X87222363Y-89738120D01*
X87604449Y-89482818D01*
X87915518Y-89017271D01*
X88024751Y-88468120D01*
X87915518Y-87918969D01*
X87604449Y-87453422D01*
X87482057Y-87371642D01*
X87555760Y-87371642D01*
X87716961Y-87341310D01*
X87865015Y-87246040D01*
X87964339Y-87100675D01*
X87999282Y-86928120D01*
X87999282Y-86635000D01*
X89815000Y-86635000D01*
X89815000Y-97993120D01*
X89815000Y-97993120D01*
G37*
X89815000Y-97993120D02*
X87999282Y-97993120D01*
X87999282Y-97628120D01*
X87968950Y-97466919D01*
X87873680Y-97318865D01*
X87728315Y-97219541D01*
X87555760Y-97184598D01*
X84955760Y-97184598D01*
X84794559Y-97214930D01*
X84646505Y-97310200D01*
X84547181Y-97455565D01*
X84512238Y-97628120D01*
X84512238Y-99628120D01*
X84542570Y-99789321D01*
X84637840Y-99937375D01*
X84783205Y-100036699D01*
X84955760Y-100071642D01*
X85029463Y-100071642D01*
X84907071Y-100153422D01*
X84653365Y-100533120D01*
X81368923Y-100533120D01*
X81332418Y-100444771D01*
X80957204Y-100068902D01*
X80466713Y-99865232D01*
X79935617Y-99864769D01*
X79444771Y-100067582D01*
X79068902Y-100442796D01*
X78865232Y-100933287D01*
X78864769Y-101464383D01*
X79067582Y-101955229D01*
X79442796Y-102331098D01*
X79933287Y-102534768D01*
X80464383Y-102535231D01*
X80955229Y-102332418D01*
X81331098Y-101957204D01*
X81395079Y-101803120D01*
X84653365Y-101803120D01*
X84907071Y-102182818D01*
X85289157Y-102438120D01*
X84907071Y-102693422D01*
X84720183Y-102973120D01*
X81240822Y-102973120D01*
X81200000Y-102965000D01*
X81159178Y-102973120D01*
X78135000Y-102973120D01*
X78135000Y-93897159D01*
X84563856Y-93897159D01*
X84581393Y-93979939D01*
X84851260Y-94473016D01*
X85289277Y-94825286D01*
X85828760Y-94983120D01*
X86128760Y-94983120D01*
X86128760Y-93675120D01*
X86382760Y-93675120D01*
X86382760Y-94983120D01*
X86682760Y-94983120D01*
X87222243Y-94825286D01*
X87660260Y-94473016D01*
X87930127Y-93979939D01*
X87947664Y-93897159D01*
X87875915Y-93675120D01*
X86382760Y-93675120D01*
X86128760Y-93675120D01*
X84635605Y-93675120D01*
X84563856Y-93897159D01*
X78135000Y-93897159D01*
X78135000Y-91743120D01*
X84720183Y-91743120D01*
X84907071Y-92022818D01*
X85284356Y-92274912D01*
X84851260Y-92623224D01*
X84581393Y-93116301D01*
X84563856Y-93199081D01*
X84635605Y-93421120D01*
X86128760Y-93421120D01*
X86128760Y-93401120D01*
X86382760Y-93401120D01*
X86382760Y-93421120D01*
X87875915Y-93421120D01*
X87947664Y-93199081D01*
X87930127Y-93116301D01*
X87660260Y-92623224D01*
X87227164Y-92274912D01*
X87604449Y-92022818D01*
X87915518Y-91557271D01*
X88024751Y-91008120D01*
X87915518Y-90458969D01*
X87604449Y-89993422D01*
X87222363Y-89738120D01*
X87604449Y-89482818D01*
X87915518Y-89017271D01*
X88024751Y-88468120D01*
X87915518Y-87918969D01*
X87604449Y-87453422D01*
X87482057Y-87371642D01*
X87555760Y-87371642D01*
X87716961Y-87341310D01*
X87865015Y-87246040D01*
X87964339Y-87100675D01*
X87999282Y-86928120D01*
X87999282Y-86635000D01*
X89815000Y-86635000D01*
X89815000Y-97993120D01*
G36*
X89815000Y-85293120D02*
X87999282Y-85293120D01*
X87999282Y-84928120D01*
X87968950Y-84766919D01*
X87873680Y-84618865D01*
X87728315Y-84519541D01*
X87555760Y-84484598D01*
X84955760Y-84484598D01*
X84794559Y-84514930D01*
X84646505Y-84610200D01*
X84547181Y-84755565D01*
X84512238Y-84928120D01*
X84512238Y-86928120D01*
X84542570Y-87089321D01*
X84637840Y-87237375D01*
X84783205Y-87336699D01*
X84955760Y-87371642D01*
X85029463Y-87371642D01*
X84907071Y-87453422D01*
X84653365Y-87833120D01*
X81489583Y-87833120D01*
X81432418Y-87694771D01*
X81057204Y-87318902D01*
X80566713Y-87115232D01*
X80035617Y-87114769D01*
X79544771Y-87317582D01*
X79168902Y-87692796D01*
X78965232Y-88183287D01*
X78964769Y-88714383D01*
X79167582Y-89205229D01*
X79542796Y-89581098D01*
X80033287Y-89784768D01*
X80564383Y-89785231D01*
X81055229Y-89582418D01*
X81431098Y-89207204D01*
X81474318Y-89103120D01*
X84653365Y-89103120D01*
X84907071Y-89482818D01*
X85289157Y-89738120D01*
X84907071Y-89993422D01*
X84720183Y-90273120D01*
X78135000Y-90273120D01*
X78135000Y-81197159D01*
X84563856Y-81197159D01*
X84581393Y-81279939D01*
X84851260Y-81773016D01*
X85289277Y-82125286D01*
X85828760Y-82283120D01*
X86128760Y-82283120D01*
X86128760Y-80975120D01*
X86382760Y-80975120D01*
X86382760Y-82283120D01*
X86682760Y-82283120D01*
X87222243Y-82125286D01*
X87660260Y-81773016D01*
X87930127Y-81279939D01*
X87947664Y-81197159D01*
X87875915Y-80975120D01*
X86382760Y-80975120D01*
X86128760Y-80975120D01*
X84635605Y-80975120D01*
X84563856Y-81197159D01*
X78135000Y-81197159D01*
X78135000Y-79134867D01*
X84731713Y-79060376D01*
X84907071Y-79322818D01*
X85284356Y-79574912D01*
X84851260Y-79923224D01*
X84581393Y-80416301D01*
X84563856Y-80499081D01*
X84635605Y-80721120D01*
X86128760Y-80721120D01*
X86128760Y-80701120D01*
X86382760Y-80701120D01*
X86382760Y-80721120D01*
X87875915Y-80721120D01*
X87947664Y-80499081D01*
X87930127Y-80416301D01*
X87660260Y-79923224D01*
X87227164Y-79574912D01*
X87604449Y-79322818D01*
X87915518Y-78857271D01*
X88024751Y-78308120D01*
X87915518Y-77758969D01*
X87604449Y-77293422D01*
X87222363Y-77038120D01*
X87604449Y-76782818D01*
X87915518Y-76317271D01*
X88024751Y-75768120D01*
X87915518Y-75218969D01*
X87604449Y-74753422D01*
X87482057Y-74671642D01*
X87555760Y-74671642D01*
X87716961Y-74641310D01*
X87865015Y-74546040D01*
X87964339Y-74400675D01*
X87999282Y-74228120D01*
X87999282Y-73885000D01*
X89815000Y-73885000D01*
X89815000Y-85293120D01*
X89815000Y-85293120D01*
G37*
X89815000Y-85293120D02*
X87999282Y-85293120D01*
X87999282Y-84928120D01*
X87968950Y-84766919D01*
X87873680Y-84618865D01*
X87728315Y-84519541D01*
X87555760Y-84484598D01*
X84955760Y-84484598D01*
X84794559Y-84514930D01*
X84646505Y-84610200D01*
X84547181Y-84755565D01*
X84512238Y-84928120D01*
X84512238Y-86928120D01*
X84542570Y-87089321D01*
X84637840Y-87237375D01*
X84783205Y-87336699D01*
X84955760Y-87371642D01*
X85029463Y-87371642D01*
X84907071Y-87453422D01*
X84653365Y-87833120D01*
X81489583Y-87833120D01*
X81432418Y-87694771D01*
X81057204Y-87318902D01*
X80566713Y-87115232D01*
X80035617Y-87114769D01*
X79544771Y-87317582D01*
X79168902Y-87692796D01*
X78965232Y-88183287D01*
X78964769Y-88714383D01*
X79167582Y-89205229D01*
X79542796Y-89581098D01*
X80033287Y-89784768D01*
X80564383Y-89785231D01*
X81055229Y-89582418D01*
X81431098Y-89207204D01*
X81474318Y-89103120D01*
X84653365Y-89103120D01*
X84907071Y-89482818D01*
X85289157Y-89738120D01*
X84907071Y-89993422D01*
X84720183Y-90273120D01*
X78135000Y-90273120D01*
X78135000Y-81197159D01*
X84563856Y-81197159D01*
X84581393Y-81279939D01*
X84851260Y-81773016D01*
X85289277Y-82125286D01*
X85828760Y-82283120D01*
X86128760Y-82283120D01*
X86128760Y-80975120D01*
X86382760Y-80975120D01*
X86382760Y-82283120D01*
X86682760Y-82283120D01*
X87222243Y-82125286D01*
X87660260Y-81773016D01*
X87930127Y-81279939D01*
X87947664Y-81197159D01*
X87875915Y-80975120D01*
X86382760Y-80975120D01*
X86128760Y-80975120D01*
X84635605Y-80975120D01*
X84563856Y-81197159D01*
X78135000Y-81197159D01*
X78135000Y-79134867D01*
X84731713Y-79060376D01*
X84907071Y-79322818D01*
X85284356Y-79574912D01*
X84851260Y-79923224D01*
X84581393Y-80416301D01*
X84563856Y-80499081D01*
X84635605Y-80721120D01*
X86128760Y-80721120D01*
X86128760Y-80701120D01*
X86382760Y-80701120D01*
X86382760Y-80721120D01*
X87875915Y-80721120D01*
X87947664Y-80499081D01*
X87930127Y-80416301D01*
X87660260Y-79923224D01*
X87227164Y-79574912D01*
X87604449Y-79322818D01*
X87915518Y-78857271D01*
X88024751Y-78308120D01*
X87915518Y-77758969D01*
X87604449Y-77293422D01*
X87222363Y-77038120D01*
X87604449Y-76782818D01*
X87915518Y-76317271D01*
X88024751Y-75768120D01*
X87915518Y-75218969D01*
X87604449Y-74753422D01*
X87482057Y-74671642D01*
X87555760Y-74671642D01*
X87716961Y-74641310D01*
X87865015Y-74546040D01*
X87964339Y-74400675D01*
X87999282Y-74228120D01*
X87999282Y-73885000D01*
X89815000Y-73885000D01*
X89815000Y-85293120D01*
M02*
