G04 #@! TF.FileFunction,Other,Fab,Bot*
%FSLAX46Y46*%
G04 Gerber Fmt 4.6, Leading zero omitted, Abs format (unit mm)*
G04 Created by KiCad (PCBNEW 4.0.7) date 05/25/18 18:50:48*
%MOMM*%
%LPD*%
G01*
G04 APERTURE LIST*
%ADD10C,0.100000*%
%ADD11C,0.150000*%
%ADD12C,0.105000*%
G04 APERTURE END LIST*
D10*
X65964240Y-105968120D02*
X65964240Y-104368120D01*
X62764240Y-105968120D02*
X65964240Y-105968120D01*
X62764240Y-104368120D02*
X62764240Y-105968120D01*
X65964240Y-104368120D02*
X62764240Y-104368120D01*
X49095760Y-113981880D02*
X49095760Y-115581880D01*
X52295760Y-113981880D02*
X49095760Y-113981880D01*
X52295760Y-115581880D02*
X52295760Y-113981880D01*
X49095760Y-115581880D02*
X52295760Y-115581880D01*
X74984240Y-109218120D02*
X74984240Y-110818120D01*
X78184240Y-109218120D02*
X74984240Y-109218120D01*
X78184240Y-110818120D02*
X78184240Y-109218120D01*
X74984240Y-110818120D02*
X78184240Y-110818120D01*
X57425760Y-115581880D02*
X57425760Y-113981880D01*
X54225760Y-115581880D02*
X57425760Y-115581880D01*
X54225760Y-113981880D02*
X54225760Y-115581880D01*
X57425760Y-113981880D02*
X54225760Y-113981880D01*
X4645760Y-94018120D02*
X4645760Y-95618120D01*
X7845760Y-94018120D02*
X4645760Y-94018120D01*
X7845760Y-95618120D02*
X7845760Y-94018120D01*
X4645760Y-95618120D02*
X7845760Y-95618120D01*
X38050000Y-10850000D02*
X38050000Y-9250000D01*
X34850000Y-10850000D02*
X38050000Y-10850000D01*
X34850000Y-9250000D02*
X34850000Y-10850000D01*
X38050000Y-9250000D02*
X34850000Y-9250000D01*
X38050000Y-8350000D02*
X38050000Y-6750000D01*
X34850000Y-8350000D02*
X38050000Y-8350000D01*
X34850000Y-6750000D02*
X34850000Y-8350000D01*
X38050000Y-6750000D02*
X34850000Y-6750000D01*
X5874240Y-16518120D02*
X4274240Y-16518120D01*
X5874240Y-19718120D02*
X5874240Y-16518120D01*
X4274240Y-19718120D02*
X5874240Y-19718120D01*
X4274240Y-16518120D02*
X4274240Y-19718120D01*
X16150000Y-16550000D02*
X14550000Y-16550000D01*
X16150000Y-19750000D02*
X16150000Y-16550000D01*
X14550000Y-19750000D02*
X16150000Y-19750000D01*
X14550000Y-16550000D02*
X14550000Y-19750000D01*
X10864240Y-16543120D02*
X9264240Y-16543120D01*
X10864240Y-19743120D02*
X10864240Y-16543120D01*
X9264240Y-19743120D02*
X10864240Y-19743120D01*
X9264240Y-16543120D02*
X9264240Y-19743120D01*
X41135760Y-12461880D02*
X41135760Y-14061880D01*
X44335760Y-12461880D02*
X41135760Y-12461880D01*
X44335760Y-14061880D02*
X44335760Y-12461880D01*
X41135760Y-14061880D02*
X44335760Y-14061880D01*
X44309240Y-11363120D02*
X44309240Y-9763120D01*
X41109240Y-11363120D02*
X44309240Y-11363120D01*
X41109240Y-9763120D02*
X41109240Y-11363120D01*
X44309240Y-9763120D02*
X41109240Y-9763120D01*
D11*
X66483288Y-106620501D02*
X66388049Y-106620501D01*
X66292811Y-106668120D01*
X66245192Y-106715739D01*
X66197573Y-106810977D01*
X66149954Y-107001453D01*
X66149954Y-107239549D01*
X66197573Y-107430025D01*
X66245192Y-107525263D01*
X66292811Y-107572882D01*
X66388049Y-107620501D01*
X66483288Y-107620501D01*
X66578526Y-107572882D01*
X66626145Y-107525263D01*
X66673764Y-107430025D01*
X66721383Y-107239549D01*
X66721383Y-107001453D01*
X66673764Y-106810977D01*
X66626145Y-106715739D01*
X66578526Y-106668120D01*
X66483288Y-106620501D01*
X65721383Y-107525263D02*
X65673764Y-107572882D01*
X65721383Y-107620501D01*
X65769002Y-107572882D01*
X65721383Y-107525263D01*
X65721383Y-107620501D01*
X65340431Y-106620501D02*
X64721383Y-106620501D01*
X65054717Y-107001453D01*
X64911859Y-107001453D01*
X64816621Y-107049072D01*
X64769002Y-107096691D01*
X64721383Y-107191930D01*
X64721383Y-107430025D01*
X64769002Y-107525263D01*
X64816621Y-107572882D01*
X64911859Y-107620501D01*
X65197574Y-107620501D01*
X65292812Y-107572882D01*
X65340431Y-107525263D01*
X64388050Y-106620501D02*
X63769002Y-106620501D01*
X64102336Y-107001453D01*
X63959478Y-107001453D01*
X63864240Y-107049072D01*
X63816621Y-107096691D01*
X63769002Y-107191930D01*
X63769002Y-107430025D01*
X63816621Y-107525263D01*
X63864240Y-107572882D01*
X63959478Y-107620501D01*
X64245193Y-107620501D01*
X64340431Y-107572882D01*
X64388050Y-107525263D01*
X62911859Y-106953834D02*
X62911859Y-107620501D01*
X63340431Y-106953834D02*
X63340431Y-107477644D01*
X63292812Y-107572882D01*
X63197574Y-107620501D01*
X63054716Y-107620501D01*
X62959478Y-107572882D01*
X62911859Y-107525263D01*
X62102335Y-107096691D02*
X62435669Y-107096691D01*
X62435669Y-107620501D02*
X62435669Y-106620501D01*
X61959478Y-106620501D01*
X64516666Y-105557143D02*
X64564285Y-105604762D01*
X64707142Y-105652381D01*
X64802380Y-105652381D01*
X64945238Y-105604762D01*
X65040476Y-105509524D01*
X65088095Y-105414286D01*
X65135714Y-105223810D01*
X65135714Y-105080952D01*
X65088095Y-104890476D01*
X65040476Y-104795238D01*
X64945238Y-104700000D01*
X64802380Y-104652381D01*
X64707142Y-104652381D01*
X64564285Y-104700000D01*
X64516666Y-104747619D01*
X64135714Y-104747619D02*
X64088095Y-104700000D01*
X63992857Y-104652381D01*
X63754761Y-104652381D01*
X63659523Y-104700000D01*
X63611904Y-104747619D01*
X63564285Y-104842857D01*
X63564285Y-104938095D01*
X63611904Y-105080952D01*
X64183333Y-105652381D01*
X63564285Y-105652381D01*
X52814808Y-112234261D02*
X52719569Y-112234261D01*
X52624331Y-112281880D01*
X52576712Y-112329499D01*
X52529093Y-112424737D01*
X52481474Y-112615213D01*
X52481474Y-112853309D01*
X52529093Y-113043785D01*
X52576712Y-113139023D01*
X52624331Y-113186642D01*
X52719569Y-113234261D01*
X52814808Y-113234261D01*
X52910046Y-113186642D01*
X52957665Y-113139023D01*
X53005284Y-113043785D01*
X53052903Y-112853309D01*
X53052903Y-112615213D01*
X53005284Y-112424737D01*
X52957665Y-112329499D01*
X52910046Y-112281880D01*
X52814808Y-112234261D01*
X52052903Y-113139023D02*
X52005284Y-113186642D01*
X52052903Y-113234261D01*
X52100522Y-113186642D01*
X52052903Y-113139023D01*
X52052903Y-113234261D01*
X51671951Y-112234261D02*
X51052903Y-112234261D01*
X51386237Y-112615213D01*
X51243379Y-112615213D01*
X51148141Y-112662832D01*
X51100522Y-112710451D01*
X51052903Y-112805690D01*
X51052903Y-113043785D01*
X51100522Y-113139023D01*
X51148141Y-113186642D01*
X51243379Y-113234261D01*
X51529094Y-113234261D01*
X51624332Y-113186642D01*
X51671951Y-113139023D01*
X50719570Y-112234261D02*
X50100522Y-112234261D01*
X50433856Y-112615213D01*
X50290998Y-112615213D01*
X50195760Y-112662832D01*
X50148141Y-112710451D01*
X50100522Y-112805690D01*
X50100522Y-113043785D01*
X50148141Y-113139023D01*
X50195760Y-113186642D01*
X50290998Y-113234261D01*
X50576713Y-113234261D01*
X50671951Y-113186642D01*
X50719570Y-113139023D01*
X49243379Y-112567594D02*
X49243379Y-113234261D01*
X49671951Y-112567594D02*
X49671951Y-113091404D01*
X49624332Y-113186642D01*
X49529094Y-113234261D01*
X49386236Y-113234261D01*
X49290998Y-113186642D01*
X49243379Y-113139023D01*
X48433855Y-112710451D02*
X48767189Y-112710451D01*
X48767189Y-113234261D02*
X48767189Y-112234261D01*
X48290998Y-112234261D01*
X50866666Y-115207143D02*
X50914285Y-115254762D01*
X51057142Y-115302381D01*
X51152380Y-115302381D01*
X51295238Y-115254762D01*
X51390476Y-115159524D01*
X51438095Y-115064286D01*
X51485714Y-114873810D01*
X51485714Y-114730952D01*
X51438095Y-114540476D01*
X51390476Y-114445238D01*
X51295238Y-114350000D01*
X51152380Y-114302381D01*
X51057142Y-114302381D01*
X50914285Y-114350000D01*
X50866666Y-114397619D01*
X50533333Y-114302381D02*
X49914285Y-114302381D01*
X50247619Y-114683333D01*
X50104761Y-114683333D01*
X50009523Y-114730952D01*
X49961904Y-114778571D01*
X49914285Y-114873810D01*
X49914285Y-115111905D01*
X49961904Y-115207143D01*
X50009523Y-115254762D01*
X50104761Y-115302381D01*
X50390476Y-115302381D01*
X50485714Y-115254762D01*
X50533333Y-115207143D01*
X78227097Y-107470501D02*
X78131858Y-107470501D01*
X78036620Y-107518120D01*
X77989001Y-107565739D01*
X77941382Y-107660977D01*
X77893763Y-107851453D01*
X77893763Y-108089549D01*
X77941382Y-108280025D01*
X77989001Y-108375263D01*
X78036620Y-108422882D01*
X78131858Y-108470501D01*
X78227097Y-108470501D01*
X78322335Y-108422882D01*
X78369954Y-108375263D01*
X78417573Y-108280025D01*
X78465192Y-108089549D01*
X78465192Y-107851453D01*
X78417573Y-107660977D01*
X78369954Y-107565739D01*
X78322335Y-107518120D01*
X78227097Y-107470501D01*
X77465192Y-108375263D02*
X77417573Y-108422882D01*
X77465192Y-108470501D01*
X77512811Y-108422882D01*
X77465192Y-108375263D01*
X77465192Y-108470501D01*
X76465192Y-108470501D02*
X77036621Y-108470501D01*
X76750907Y-108470501D02*
X76750907Y-107470501D01*
X76846145Y-107613358D01*
X76941383Y-107708596D01*
X77036621Y-107756215D01*
X75608049Y-107803834D02*
X75608049Y-108470501D01*
X76036621Y-107803834D02*
X76036621Y-108327644D01*
X75989002Y-108422882D01*
X75893764Y-108470501D01*
X75750906Y-108470501D01*
X75655668Y-108422882D01*
X75608049Y-108375263D01*
X74798525Y-107946691D02*
X75131859Y-107946691D01*
X75131859Y-108470501D02*
X75131859Y-107470501D01*
X74655668Y-107470501D01*
X76766666Y-110457143D02*
X76814285Y-110504762D01*
X76957142Y-110552381D01*
X77052380Y-110552381D01*
X77195238Y-110504762D01*
X77290476Y-110409524D01*
X77338095Y-110314286D01*
X77385714Y-110123810D01*
X77385714Y-109980952D01*
X77338095Y-109790476D01*
X77290476Y-109695238D01*
X77195238Y-109600000D01*
X77052380Y-109552381D01*
X76957142Y-109552381D01*
X76814285Y-109600000D01*
X76766666Y-109647619D01*
X75909523Y-109885714D02*
X75909523Y-110552381D01*
X76147619Y-109504762D02*
X76385714Y-110219048D01*
X75766666Y-110219048D01*
X57468617Y-116234261D02*
X57373378Y-116234261D01*
X57278140Y-116281880D01*
X57230521Y-116329499D01*
X57182902Y-116424737D01*
X57135283Y-116615213D01*
X57135283Y-116853309D01*
X57182902Y-117043785D01*
X57230521Y-117139023D01*
X57278140Y-117186642D01*
X57373378Y-117234261D01*
X57468617Y-117234261D01*
X57563855Y-117186642D01*
X57611474Y-117139023D01*
X57659093Y-117043785D01*
X57706712Y-116853309D01*
X57706712Y-116615213D01*
X57659093Y-116424737D01*
X57611474Y-116329499D01*
X57563855Y-116281880D01*
X57468617Y-116234261D01*
X56706712Y-117139023D02*
X56659093Y-117186642D01*
X56706712Y-117234261D01*
X56754331Y-117186642D01*
X56706712Y-117139023D01*
X56706712Y-117234261D01*
X55706712Y-117234261D02*
X56278141Y-117234261D01*
X55992427Y-117234261D02*
X55992427Y-116234261D01*
X56087665Y-116377118D01*
X56182903Y-116472356D01*
X56278141Y-116519975D01*
X54849569Y-116567594D02*
X54849569Y-117234261D01*
X55278141Y-116567594D02*
X55278141Y-117091404D01*
X55230522Y-117186642D01*
X55135284Y-117234261D01*
X54992426Y-117234261D01*
X54897188Y-117186642D01*
X54849569Y-117139023D01*
X54040045Y-116710451D02*
X54373379Y-116710451D01*
X54373379Y-117234261D02*
X54373379Y-116234261D01*
X53897188Y-116234261D01*
X56016666Y-115157143D02*
X56064285Y-115204762D01*
X56207142Y-115252381D01*
X56302380Y-115252381D01*
X56445238Y-115204762D01*
X56540476Y-115109524D01*
X56588095Y-115014286D01*
X56635714Y-114823810D01*
X56635714Y-114680952D01*
X56588095Y-114490476D01*
X56540476Y-114395238D01*
X56445238Y-114300000D01*
X56302380Y-114252381D01*
X56207142Y-114252381D01*
X56064285Y-114300000D01*
X56016666Y-114347619D01*
X55111904Y-114252381D02*
X55588095Y-114252381D01*
X55635714Y-114728571D01*
X55588095Y-114680952D01*
X55492857Y-114633333D01*
X55254761Y-114633333D01*
X55159523Y-114680952D01*
X55111904Y-114728571D01*
X55064285Y-114823810D01*
X55064285Y-115061905D01*
X55111904Y-115157143D01*
X55159523Y-115204762D01*
X55254761Y-115252381D01*
X55492857Y-115252381D01*
X55588095Y-115204762D01*
X55635714Y-115157143D01*
X7460046Y-92270501D02*
X7364807Y-92270501D01*
X7269569Y-92318120D01*
X7221950Y-92365739D01*
X7174331Y-92460977D01*
X7126712Y-92651453D01*
X7126712Y-92889549D01*
X7174331Y-93080025D01*
X7221950Y-93175263D01*
X7269569Y-93222882D01*
X7364807Y-93270501D01*
X7460046Y-93270501D01*
X7555284Y-93222882D01*
X7602903Y-93175263D01*
X7650522Y-93080025D01*
X7698141Y-92889549D01*
X7698141Y-92651453D01*
X7650522Y-92460977D01*
X7602903Y-92365739D01*
X7555284Y-92318120D01*
X7460046Y-92270501D01*
X6698141Y-93175263D02*
X6650522Y-93222882D01*
X6698141Y-93270501D01*
X6745760Y-93222882D01*
X6698141Y-93175263D01*
X6698141Y-93270501D01*
X5698141Y-93270501D02*
X6269570Y-93270501D01*
X5983856Y-93270501D02*
X5983856Y-92270501D01*
X6079094Y-92413358D01*
X6174332Y-92508596D01*
X6269570Y-92556215D01*
X4840998Y-92603834D02*
X4840998Y-93270501D01*
X5269570Y-92603834D02*
X5269570Y-93127644D01*
X5221951Y-93222882D01*
X5126713Y-93270501D01*
X4983855Y-93270501D01*
X4888617Y-93222882D01*
X4840998Y-93175263D01*
X6416666Y-95157143D02*
X6464285Y-95204762D01*
X6607142Y-95252381D01*
X6702380Y-95252381D01*
X6845238Y-95204762D01*
X6940476Y-95109524D01*
X6988095Y-95014286D01*
X7035714Y-94823810D01*
X7035714Y-94680952D01*
X6988095Y-94490476D01*
X6940476Y-94395238D01*
X6845238Y-94300000D01*
X6702380Y-94252381D01*
X6607142Y-94252381D01*
X6464285Y-94300000D01*
X6416666Y-94347619D01*
X5845238Y-94680952D02*
X5940476Y-94633333D01*
X5988095Y-94585714D01*
X6035714Y-94490476D01*
X6035714Y-94442857D01*
X5988095Y-94347619D01*
X5940476Y-94300000D01*
X5845238Y-94252381D01*
X5654761Y-94252381D01*
X5559523Y-94300000D01*
X5511904Y-94347619D01*
X5464285Y-94442857D01*
X5464285Y-94490476D01*
X5511904Y-94585714D01*
X5559523Y-94633333D01*
X5654761Y-94680952D01*
X5845238Y-94680952D01*
X5940476Y-94728571D01*
X5988095Y-94776190D01*
X6035714Y-94871429D01*
X6035714Y-95061905D01*
X5988095Y-95157143D01*
X5940476Y-95204762D01*
X5845238Y-95252381D01*
X5654761Y-95252381D01*
X5559523Y-95204762D01*
X5511904Y-95157143D01*
X5464285Y-95061905D01*
X5464285Y-94871429D01*
X5511904Y-94776190D01*
X5559523Y-94728571D01*
X5654761Y-94680952D01*
X36516666Y-12002381D02*
X37088095Y-12002381D01*
X36802381Y-12002381D02*
X36802381Y-11002381D01*
X36897619Y-11145238D01*
X36992857Y-11240476D01*
X37088095Y-11288095D01*
X35659523Y-11335714D02*
X35659523Y-12002381D01*
X36088095Y-11335714D02*
X36088095Y-11859524D01*
X36040476Y-11954762D01*
X35945238Y-12002381D01*
X35802380Y-12002381D01*
X35707142Y-11954762D01*
X35659523Y-11907143D01*
X37092857Y-10457143D02*
X37140476Y-10504762D01*
X37283333Y-10552381D01*
X37378571Y-10552381D01*
X37521429Y-10504762D01*
X37616667Y-10409524D01*
X37664286Y-10314286D01*
X37711905Y-10123810D01*
X37711905Y-9980952D01*
X37664286Y-9790476D01*
X37616667Y-9695238D01*
X37521429Y-9600000D01*
X37378571Y-9552381D01*
X37283333Y-9552381D01*
X37140476Y-9600000D01*
X37092857Y-9647619D01*
X36140476Y-10552381D02*
X36711905Y-10552381D01*
X36426191Y-10552381D02*
X36426191Y-9552381D01*
X36521429Y-9695238D01*
X36616667Y-9790476D01*
X36711905Y-9838095D01*
X35521429Y-9552381D02*
X35426190Y-9552381D01*
X35330952Y-9600000D01*
X35283333Y-9647619D01*
X35235714Y-9742857D01*
X35188095Y-9933333D01*
X35188095Y-10171429D01*
X35235714Y-10361905D01*
X35283333Y-10457143D01*
X35330952Y-10504762D01*
X35426190Y-10552381D01*
X35521429Y-10552381D01*
X35616667Y-10504762D01*
X35664286Y-10457143D01*
X35711905Y-10361905D01*
X35759524Y-10171429D01*
X35759524Y-9933333D01*
X35711905Y-9742857D01*
X35664286Y-9647619D01*
X35616667Y-9600000D01*
X35521429Y-9552381D01*
X37664286Y-5502381D02*
X37569047Y-5502381D01*
X37473809Y-5550000D01*
X37426190Y-5597619D01*
X37378571Y-5692857D01*
X37330952Y-5883333D01*
X37330952Y-6121429D01*
X37378571Y-6311905D01*
X37426190Y-6407143D01*
X37473809Y-6454762D01*
X37569047Y-6502381D01*
X37664286Y-6502381D01*
X37759524Y-6454762D01*
X37807143Y-6407143D01*
X37854762Y-6311905D01*
X37902381Y-6121429D01*
X37902381Y-5883333D01*
X37854762Y-5692857D01*
X37807143Y-5597619D01*
X37759524Y-5550000D01*
X37664286Y-5502381D01*
X36902381Y-6407143D02*
X36854762Y-6454762D01*
X36902381Y-6502381D01*
X36950000Y-6454762D01*
X36902381Y-6407143D01*
X36902381Y-6502381D01*
X35902381Y-6502381D02*
X36473810Y-6502381D01*
X36188096Y-6502381D02*
X36188096Y-5502381D01*
X36283334Y-5645238D01*
X36378572Y-5740476D01*
X36473810Y-5788095D01*
X35045238Y-5835714D02*
X35045238Y-6502381D01*
X35473810Y-5835714D02*
X35473810Y-6359524D01*
X35426191Y-6454762D01*
X35330953Y-6502381D01*
X35188095Y-6502381D01*
X35092857Y-6454762D01*
X35045238Y-6407143D01*
X37042857Y-7907143D02*
X37090476Y-7954762D01*
X37233333Y-8002381D01*
X37328571Y-8002381D01*
X37471429Y-7954762D01*
X37566667Y-7859524D01*
X37614286Y-7764286D01*
X37661905Y-7573810D01*
X37661905Y-7430952D01*
X37614286Y-7240476D01*
X37566667Y-7145238D01*
X37471429Y-7050000D01*
X37328571Y-7002381D01*
X37233333Y-7002381D01*
X37090476Y-7050000D01*
X37042857Y-7097619D01*
X36090476Y-8002381D02*
X36661905Y-8002381D01*
X36376191Y-8002381D02*
X36376191Y-7002381D01*
X36471429Y-7145238D01*
X36566667Y-7240476D01*
X36661905Y-7288095D01*
X35138095Y-8002381D02*
X35709524Y-8002381D01*
X35423810Y-8002381D02*
X35423810Y-7002381D01*
X35519048Y-7145238D01*
X35614286Y-7240476D01*
X35709524Y-7288095D01*
X7476621Y-17999073D02*
X7476621Y-17427644D01*
X7476621Y-17713358D02*
X6476621Y-17713358D01*
X6619478Y-17618120D01*
X6714716Y-17522882D01*
X6762335Y-17427644D01*
X7476621Y-18427644D02*
X6476621Y-18427644D01*
X7095669Y-18522882D02*
X7476621Y-18808597D01*
X6809954Y-18808597D02*
X7190907Y-18427644D01*
D12*
X5390907Y-18001454D02*
X5057573Y-17768120D01*
X5390907Y-17601454D02*
X4690907Y-17601454D01*
X4690907Y-17868120D01*
X4724240Y-17934787D01*
X4757573Y-17968120D01*
X4824240Y-18001454D01*
X4924240Y-18001454D01*
X4990907Y-17968120D01*
X5024240Y-17934787D01*
X5057573Y-17868120D01*
X5057573Y-17601454D01*
X4690907Y-18634787D02*
X4690907Y-18301454D01*
X5024240Y-18268120D01*
X4990907Y-18301454D01*
X4957573Y-18368120D01*
X4957573Y-18534787D01*
X4990907Y-18601454D01*
X5024240Y-18634787D01*
X5090907Y-18668120D01*
X5257573Y-18668120D01*
X5324240Y-18634787D01*
X5357573Y-18601454D01*
X5390907Y-18534787D01*
X5390907Y-18368120D01*
X5357573Y-18301454D01*
X5324240Y-18268120D01*
D11*
X17752381Y-18030953D02*
X17752381Y-17459524D01*
X17752381Y-17745238D02*
X16752381Y-17745238D01*
X16895238Y-17650000D01*
X16990476Y-17554762D01*
X17038095Y-17459524D01*
X17752381Y-18459524D02*
X16752381Y-18459524D01*
X17371429Y-18554762D02*
X17752381Y-18840477D01*
X17085714Y-18840477D02*
X17466667Y-18459524D01*
D12*
X15666667Y-18033334D02*
X15333333Y-17800000D01*
X15666667Y-17633334D02*
X14966667Y-17633334D01*
X14966667Y-17900000D01*
X15000000Y-17966667D01*
X15033333Y-18000000D01*
X15100000Y-18033334D01*
X15200000Y-18033334D01*
X15266667Y-18000000D01*
X15300000Y-17966667D01*
X15333333Y-17900000D01*
X15333333Y-17633334D01*
X14966667Y-18266667D02*
X14966667Y-18733334D01*
X15666667Y-18433334D01*
D11*
X12466621Y-18024073D02*
X12466621Y-17452644D01*
X12466621Y-17738358D02*
X11466621Y-17738358D01*
X11609478Y-17643120D01*
X11704716Y-17547882D01*
X11752335Y-17452644D01*
X12466621Y-18452644D02*
X11466621Y-18452644D01*
X12085669Y-18547882D02*
X12466621Y-18833597D01*
X11799954Y-18833597D02*
X12180907Y-18452644D01*
D12*
X10380907Y-17693120D02*
X10047573Y-17459786D01*
X10380907Y-17293120D02*
X9680907Y-17293120D01*
X9680907Y-17559786D01*
X9714240Y-17626453D01*
X9747573Y-17659786D01*
X9814240Y-17693120D01*
X9914240Y-17693120D01*
X9980907Y-17659786D01*
X10014240Y-17626453D01*
X10047573Y-17559786D01*
X10047573Y-17293120D01*
X10380907Y-18359786D02*
X10380907Y-17959786D01*
X10380907Y-18159786D02*
X9680907Y-18159786D01*
X9780907Y-18093120D01*
X9847573Y-18026453D01*
X9880907Y-17959786D01*
X10380907Y-19026453D02*
X10380907Y-18626453D01*
X10380907Y-18826453D02*
X9680907Y-18826453D01*
X9780907Y-18759787D01*
X9847573Y-18693120D01*
X9880907Y-18626453D01*
D11*
X43364285Y-8102381D02*
X43840476Y-8102381D01*
X43888095Y-8578571D01*
X43840476Y-8530952D01*
X43745238Y-8483333D01*
X43507142Y-8483333D01*
X43411904Y-8530952D01*
X43364285Y-8578571D01*
X43316666Y-8673810D01*
X43316666Y-8911905D01*
X43364285Y-9007143D01*
X43411904Y-9054762D01*
X43507142Y-9102381D01*
X43745238Y-9102381D01*
X43840476Y-9054762D01*
X43888095Y-9007143D01*
X42459523Y-8102381D02*
X42650000Y-8102381D01*
X42745238Y-8150000D01*
X42792857Y-8197619D01*
X42888095Y-8340476D01*
X42935714Y-8530952D01*
X42935714Y-8911905D01*
X42888095Y-9007143D01*
X42840476Y-9054762D01*
X42745238Y-9102381D01*
X42554761Y-9102381D01*
X42459523Y-9054762D01*
X42411904Y-9007143D01*
X42364285Y-8911905D01*
X42364285Y-8673810D01*
X42411904Y-8578571D01*
X42459523Y-8530952D01*
X42554761Y-8483333D01*
X42745238Y-8483333D01*
X42840476Y-8530952D01*
X42888095Y-8578571D01*
X42935714Y-8673810D01*
X41745238Y-8102381D02*
X41649999Y-8102381D01*
X41554761Y-8150000D01*
X41507142Y-8197619D01*
X41459523Y-8292857D01*
X41411904Y-8483333D01*
X41411904Y-8721429D01*
X41459523Y-8911905D01*
X41507142Y-9007143D01*
X41554761Y-9054762D01*
X41649999Y-9102381D01*
X41745238Y-9102381D01*
X41840476Y-9054762D01*
X41888095Y-9007143D01*
X41935714Y-8911905D01*
X41983333Y-8721429D01*
X41983333Y-8483333D01*
X41935714Y-8292857D01*
X41888095Y-8197619D01*
X41840476Y-8150000D01*
X41745238Y-8102381D01*
D12*
X43185760Y-13578547D02*
X43419094Y-13245213D01*
X43585760Y-13578547D02*
X43585760Y-12878547D01*
X43319094Y-12878547D01*
X43252427Y-12911880D01*
X43219094Y-12945213D01*
X43185760Y-13011880D01*
X43185760Y-13111880D01*
X43219094Y-13178547D01*
X43252427Y-13211880D01*
X43319094Y-13245213D01*
X43585760Y-13245213D01*
X42519094Y-13578547D02*
X42919094Y-13578547D01*
X42719094Y-13578547D02*
X42719094Y-12878547D01*
X42785760Y-12978547D01*
X42852427Y-13045213D01*
X42919094Y-13078547D01*
X42285760Y-12878547D02*
X41852427Y-12878547D01*
X42085760Y-13145213D01*
X41985760Y-13145213D01*
X41919093Y-13178547D01*
X41885760Y-13211880D01*
X41852427Y-13278547D01*
X41852427Y-13445213D01*
X41885760Y-13511880D01*
X41919093Y-13545213D01*
X41985760Y-13578547D01*
X42185760Y-13578547D01*
X42252427Y-13545213D01*
X42285760Y-13511880D01*
D11*
X42988095Y-14552381D02*
X43464286Y-14552381D01*
X43511905Y-15028571D01*
X43464286Y-14980952D01*
X43369048Y-14933333D01*
X43130952Y-14933333D01*
X43035714Y-14980952D01*
X42988095Y-15028571D01*
X42940476Y-15123810D01*
X42940476Y-15361905D01*
X42988095Y-15457143D01*
X43035714Y-15504762D01*
X43130952Y-15552381D01*
X43369048Y-15552381D01*
X43464286Y-15504762D01*
X43511905Y-15457143D01*
X42083333Y-14552381D02*
X42273810Y-14552381D01*
X42369048Y-14600000D01*
X42416667Y-14647619D01*
X42511905Y-14790476D01*
X42559524Y-14980952D01*
X42559524Y-15361905D01*
X42511905Y-15457143D01*
X42464286Y-15504762D01*
X42369048Y-15552381D01*
X42178571Y-15552381D01*
X42083333Y-15504762D01*
X42035714Y-15457143D01*
X41988095Y-15361905D01*
X41988095Y-15123810D01*
X42035714Y-15028571D01*
X42083333Y-14980952D01*
X42178571Y-14933333D01*
X42369048Y-14933333D01*
X42464286Y-14980952D01*
X42511905Y-15028571D01*
X42559524Y-15123810D01*
D12*
X43159240Y-10879787D02*
X43392574Y-10546453D01*
X43559240Y-10879787D02*
X43559240Y-10179787D01*
X43292574Y-10179787D01*
X43225907Y-10213120D01*
X43192574Y-10246453D01*
X43159240Y-10313120D01*
X43159240Y-10413120D01*
X43192574Y-10479787D01*
X43225907Y-10513120D01*
X43292574Y-10546453D01*
X43559240Y-10546453D01*
X42492574Y-10879787D02*
X42892574Y-10879787D01*
X42692574Y-10879787D02*
X42692574Y-10179787D01*
X42759240Y-10279787D01*
X42825907Y-10346453D01*
X42892574Y-10379787D01*
X41859240Y-10179787D02*
X42192573Y-10179787D01*
X42225907Y-10513120D01*
X42192573Y-10479787D01*
X42125907Y-10446453D01*
X41959240Y-10446453D01*
X41892573Y-10479787D01*
X41859240Y-10513120D01*
X41825907Y-10579787D01*
X41825907Y-10746453D01*
X41859240Y-10813120D01*
X41892573Y-10846453D01*
X41959240Y-10879787D01*
X42125907Y-10879787D01*
X42192573Y-10846453D01*
X42225907Y-10813120D01*
M02*
