M48
METRIC,TZ
T1C0.800
T2C1.000
T3C1.200
T4C1.300
T5C1.500
T6C3.200
T7C3.500
T8C1.280
T9C2.700
%
G90
G05
T1
X4.975Y-23.125
X6.7Y-45.3
X6.75Y-54.25
X7.516Y-107.518
X10.056Y-91.008
X10.1Y-23.2
X14.4Y-88.5
X15.136Y-91.008
X15.3Y-23.3
X16.4Y-115.2
X19.Y-102.8
X19.1Y-115.15
X19.3Y-19.55
X22.75Y-109.15
X24.396Y-91.008
X25.931Y-109.423
X26.4Y-88.5
X27.836Y-96.088
X29.2Y-46.2
X30.1Y-64.5
X31.646Y-86.563
X31.646Y-102.438
X31.9Y-43.7
X34.8Y-41.8
X36.05Y-61.
X36.25Y-71.85
X38.4Y-64.
X38.45Y-67.
X38.9Y-12.7
X43.076Y-97.358
X43.076Y-107.518
X49.426Y-88.468
X50.696Y-110.058
X80.2Y-75.65
X80.2Y-101.2
X80.3Y-88.45
X86.25Y-69.9
T2
X12.156Y-12.218
X13.541Y-9.378
X14.926Y-12.218
X16.311Y-9.378
X17.696Y-12.218
X19.081Y-9.378
X20.466Y-12.218
X21.851Y-9.378
X23.236Y-12.218
X50.696Y-110.058
X53.236Y-110.058
X55.776Y-110.058
X65.936Y-110.058
X68.476Y-110.058
X71.016Y-110.058
T3
X6.7Y-48.61
X6.7Y-51.15
X16.406Y-122.758
X18.946Y-122.758
X21.486Y-122.758
X27.836Y-122.758
X30.376Y-122.758
X32.916Y-122.758
X44.346Y-5.918
X46.886Y-5.918
X49.426Y-5.918
X54.506Y-122.758
X55.776Y-5.918
X57.046Y-122.758
X58.316Y-5.918
X86.256Y-73.228
X86.256Y-75.768
X86.256Y-78.308
X86.256Y-80.848
X86.256Y-85.928
X86.256Y-88.468
X86.256Y-91.008
X86.256Y-93.548
X86.256Y-98.628
X86.256Y-101.168
X86.256Y-103.708
X86.256Y-106.248
T4
X66.296Y-7.188
X88.796Y-7.188
T5
X66.964Y-52.26
X74.584Y-31.94
X77.124Y-52.26
X79.664Y-31.94
X87.284Y-52.26
T6
X5.196Y-10.798
X30.196Y-10.798
T7
X5.Y-122.6
X60.Y-22.6
X85.Y-122.6
T8
X45.186Y-23.868
X46.696Y-77.278
T9
X77.546Y-7.188
T0
M30
