G04 #@! TF.FileFunction,Copper,L2,Bot,Signal*
%FSLAX46Y46*%
G04 Gerber Fmt 4.6, Leading zero omitted, Abs format (unit mm)*
G04 Created by KiCad (PCBNEW 4.0.7) date 05/09/18 09:37:36*
%MOMM*%
%LPD*%
G01*
G04 APERTURE LIST*
%ADD10C,0.100000*%
%ADD11C,5.001260*%
%ADD12R,1.800000X1.800000*%
%ADD13O,1.800000X1.800000*%
%ADD14C,1.800000*%
%ADD15C,0.300000*%
G04 APERTURE END LIST*
D10*
D11*
X191600000Y-109700000D03*
X175100000Y-109700000D03*
X186600000Y-104400000D03*
X183548800Y-130133600D03*
D12*
X185877200Y-109372400D03*
D13*
X183337200Y-109372400D03*
X180797200Y-109372400D03*
D12*
X199898000Y-133096000D03*
D13*
X199898000Y-135636000D03*
X199898000Y-138176000D03*
D14*
X176022000Y-145288000D03*
X197104000Y-141986000D03*
X172250000Y-135750000D03*
X176276000Y-142240000D03*
X187452000Y-132334000D03*
X179324000Y-140716000D03*
X192024000Y-137160000D03*
D15*
X197104000Y-145288000D02*
X197104000Y-141986000D01*
X197104000Y-145288000D02*
X197104000Y-145288000D01*
X176022000Y-145288000D02*
X197104000Y-145288000D01*
X172250000Y-139250000D02*
X176276000Y-139250000D01*
X172250000Y-135750000D02*
X172250000Y-139250000D01*
X182880000Y-137668000D02*
X176276000Y-137668000D01*
X176276000Y-137668000D02*
X176276000Y-139250000D01*
X176276000Y-139250000D02*
X176276000Y-142240000D01*
X190500000Y-132334000D02*
X187452000Y-132334000D01*
X190754000Y-132080000D02*
X190500000Y-132334000D01*
X190754000Y-137668000D02*
X190754000Y-132080000D01*
X182880000Y-137668000D02*
X183388000Y-137668000D01*
X183388000Y-137668000D02*
X190754000Y-137668000D01*
X179324000Y-141732000D02*
X179324000Y-140716000D01*
X192024000Y-141732000D02*
X179324000Y-141732000D01*
X192024000Y-137160000D02*
X192024000Y-141732000D01*
M02*
