M48
;DRILL file {KiCad (5.0.0)} date 05/03/19 15:42:03
;FORMAT={-:-/ absolute / inch / decimal}
FMAT,2
INCH,TZ
T1C0.0315
T2C0.0394
T3C0.0472
T4C0.0472
T5C0.1378
%
G90
G05
M72
T1
X0.1378Y-1.4075
X0.4921Y-0.4921
X0.4921Y-0.5807
X0.4921Y-0.7677
X0.4921Y-0.8858
X0.4921Y-1.3976
X0.4921Y-1.6732
X0.4921Y-1.7913
X0.9843Y-0.9547
X1.0039Y-1.0236
X1.0039Y-1.122
X1.122Y-1.122
T2
X0.1378Y-1.5551
X0.1378Y-1.6551
X0.1378Y-1.9551
X0.1378Y-2.0551
X0.1378Y-2.1551
X0.1378Y-0.1378
X0.1378Y-0.2378
X0.1378Y-0.5378
X0.1378Y-0.6378
X0.1378Y-0.7378
T3
X1.1024Y-1.7323
X1.1024Y-1.4211
X1.1024Y-1.5711
X1.1024Y-0.8465
X1.1024Y-0.5352
X1.1024Y-0.6852
T4
X0.1378Y-0.9843
X0.1378Y-1.0843
X0.1378Y-1.1843
X0.1378Y-1.2843
T5
X0.5906Y-2.0472
X0.5906Y-0.2362
T0
M30
