G04 #@! TF.GenerationSoftware,KiCad,Pcbnew,(5.0.0)*
G04 #@! TF.CreationDate,2019-05-03T15:42:08+02:00*
G04 #@! TF.ProjectId,Gate_drive,476174655F64726976652E6B69636164,rev?*
G04 #@! TF.SameCoordinates,PXa21fe80PY3938700*
G04 #@! TF.FileFunction,Other,Fab,Bot*
%FSLAX46Y46*%
G04 Gerber Fmt 4.6, Leading zero omitted, Abs format (unit mm)*
G04 Created by KiCad (PCBNEW (5.0.0)) date 05/03/19 15:42:08*
%MOMM*%
%LPD*%
G01*
G04 APERTURE LIST*
%ADD10C,0.120000*%
%ADD11C,0.100000*%
%ADD12C,0.150000*%
%ADD13C,0.105000*%
G04 APERTURE END LIST*
D10*
G04 #@! TO.C,J1*
X380000Y-23530000D02*
X6580000Y-23530000D01*
X6580000Y-23530000D02*
X6580000Y-34090000D01*
X6580000Y-34090000D02*
X380000Y-34090000D01*
X380000Y-34090000D02*
X380000Y-23530000D01*
D11*
G04 #@! TO.C,C11*
X24050000Y-25650000D02*
X22450000Y-25650000D01*
X24050000Y-28850000D02*
X24050000Y-25650000D01*
X22450000Y-28850000D02*
X24050000Y-28850000D01*
X22450000Y-25650000D02*
X22450000Y-28850000D01*
G04 #@! TO.C,C6*
X13700000Y-22600000D02*
X15300000Y-22600000D01*
X13700000Y-19400000D02*
X13700000Y-22600000D01*
X15300000Y-19400000D02*
X13700000Y-19400000D01*
X15300000Y-22600000D02*
X15300000Y-19400000D01*
G04 #@! TO.C,C7*
X15950000Y-22600000D02*
X17550000Y-22600000D01*
X15950000Y-19400000D02*
X15950000Y-22600000D01*
X17550000Y-19400000D02*
X15950000Y-19400000D01*
X17550000Y-22600000D02*
X17550000Y-19400000D01*
G04 #@! TO.C,C8*
X29197056Y-26184315D02*
X28065685Y-25052944D01*
X26934315Y-28447056D02*
X29197056Y-26184315D01*
X25802944Y-27315685D02*
X26934315Y-28447056D01*
X28065685Y-25052944D02*
X25802944Y-27315685D01*
G04 #@! TO.C,C9*
X13700000Y-15600000D02*
X15300000Y-15600000D01*
X13700000Y-12400000D02*
X13700000Y-15600000D01*
X15300000Y-12400000D02*
X13700000Y-12400000D01*
X15300000Y-15600000D02*
X15300000Y-12400000D01*
G04 #@! TO.C,C10*
X15950000Y-15600000D02*
X17550000Y-15600000D01*
X15950000Y-12400000D02*
X15950000Y-15600000D01*
X17550000Y-12400000D02*
X15950000Y-12400000D01*
X17550000Y-15600000D02*
X17550000Y-12400000D01*
G04 #@! TO.C,C12*
X22450000Y-33350000D02*
X24050000Y-33350000D01*
X22450000Y-30150000D02*
X22450000Y-33350000D01*
X24050000Y-30150000D02*
X22450000Y-30150000D01*
X24050000Y-33350000D02*
X24050000Y-30150000D01*
G04 #@! TO.C,C14*
X13700000Y-45600000D02*
X15300000Y-45600000D01*
X13700000Y-42400000D02*
X13700000Y-45600000D01*
X15300000Y-42400000D02*
X13700000Y-42400000D01*
X15300000Y-45600000D02*
X15300000Y-42400000D01*
G04 #@! TO.C,C15*
X15950000Y-45600000D02*
X17550000Y-45600000D01*
X15950000Y-42400000D02*
X15950000Y-45600000D01*
X17550000Y-42400000D02*
X15950000Y-42400000D01*
X17550000Y-45600000D02*
X17550000Y-42400000D01*
G04 #@! TO.C,C16*
X13700000Y-38600000D02*
X15300000Y-38600000D01*
X13700000Y-35400000D02*
X13700000Y-38600000D01*
X15300000Y-35400000D02*
X13700000Y-35400000D01*
X15300000Y-38600000D02*
X15300000Y-35400000D01*
G04 #@! TO.C,C17*
X15950000Y-38600000D02*
X17550000Y-38600000D01*
X15950000Y-35400000D02*
X15950000Y-38600000D01*
X17550000Y-35400000D02*
X15950000Y-35400000D01*
X17550000Y-38600000D02*
X17550000Y-35400000D01*
G04 #@! TO.C,Q1*
X23715000Y-22200000D02*
X24715000Y-22200000D01*
X24715000Y-22200000D02*
X24715000Y-22650000D01*
X24715000Y-22650000D02*
X23715000Y-22650000D01*
X23715000Y-20900000D02*
X24715000Y-20900000D01*
X24715000Y-20900000D02*
X24715000Y-21350000D01*
X24715000Y-21350000D02*
X23715000Y-21350000D01*
X23715000Y-19650000D02*
X24715000Y-19650000D01*
X24715000Y-19650000D02*
X24715000Y-20100000D01*
X24715000Y-20100000D02*
X23715000Y-20100000D01*
X24715000Y-18350000D02*
X24715000Y-18850000D01*
X24715000Y-18350000D02*
X23715000Y-18350000D01*
X24715000Y-18850000D02*
X23715000Y-18850000D01*
X18315000Y-18300000D02*
X18315000Y-22700000D01*
X18315000Y-22700000D02*
X19615000Y-22700000D01*
X18315000Y-18300000D02*
X19615000Y-18300000D01*
X19615000Y-18000000D02*
X23715000Y-18000000D01*
X23715000Y-18000000D02*
X23715000Y-23000000D01*
X23715000Y-23000000D02*
X19615000Y-23000000D01*
X19615000Y-23000000D02*
X19615000Y-18000000D01*
G04 #@! TO.C,Q2*
X23715000Y-16200000D02*
X24715000Y-16200000D01*
X24715000Y-16200000D02*
X24715000Y-16650000D01*
X24715000Y-16650000D02*
X23715000Y-16650000D01*
X23715000Y-14900000D02*
X24715000Y-14900000D01*
X24715000Y-14900000D02*
X24715000Y-15350000D01*
X24715000Y-15350000D02*
X23715000Y-15350000D01*
X23715000Y-13650000D02*
X24715000Y-13650000D01*
X24715000Y-13650000D02*
X24715000Y-14100000D01*
X24715000Y-14100000D02*
X23715000Y-14100000D01*
X24715000Y-12350000D02*
X24715000Y-12850000D01*
X24715000Y-12350000D02*
X23715000Y-12350000D01*
X24715000Y-12850000D02*
X23715000Y-12850000D01*
X18315000Y-12300000D02*
X18315000Y-16700000D01*
X18315000Y-16700000D02*
X19615000Y-16700000D01*
X18315000Y-12300000D02*
X19615000Y-12300000D01*
X19615000Y-12000000D02*
X23715000Y-12000000D01*
X23715000Y-12000000D02*
X23715000Y-17000000D01*
X23715000Y-17000000D02*
X19615000Y-17000000D01*
X19615000Y-17000000D02*
X19615000Y-12000000D01*
G04 #@! TO.C,Q4*
X23715000Y-45200000D02*
X24715000Y-45200000D01*
X24715000Y-45200000D02*
X24715000Y-45650000D01*
X24715000Y-45650000D02*
X23715000Y-45650000D01*
X23715000Y-43900000D02*
X24715000Y-43900000D01*
X24715000Y-43900000D02*
X24715000Y-44350000D01*
X24715000Y-44350000D02*
X23715000Y-44350000D01*
X23715000Y-42650000D02*
X24715000Y-42650000D01*
X24715000Y-42650000D02*
X24715000Y-43100000D01*
X24715000Y-43100000D02*
X23715000Y-43100000D01*
X24715000Y-41350000D02*
X24715000Y-41850000D01*
X24715000Y-41350000D02*
X23715000Y-41350000D01*
X24715000Y-41850000D02*
X23715000Y-41850000D01*
X18315000Y-41300000D02*
X18315000Y-45700000D01*
X18315000Y-45700000D02*
X19615000Y-45700000D01*
X18315000Y-41300000D02*
X19615000Y-41300000D01*
X19615000Y-41000000D02*
X23715000Y-41000000D01*
X23715000Y-41000000D02*
X23715000Y-46000000D01*
X23715000Y-46000000D02*
X19615000Y-46000000D01*
X19615000Y-46000000D02*
X19615000Y-41000000D01*
G04 #@! TO.C,Q5*
X23715000Y-39200000D02*
X24715000Y-39200000D01*
X24715000Y-39200000D02*
X24715000Y-39650000D01*
X24715000Y-39650000D02*
X23715000Y-39650000D01*
X23715000Y-37900000D02*
X24715000Y-37900000D01*
X24715000Y-37900000D02*
X24715000Y-38350000D01*
X24715000Y-38350000D02*
X23715000Y-38350000D01*
X23715000Y-36650000D02*
X24715000Y-36650000D01*
X24715000Y-36650000D02*
X24715000Y-37100000D01*
X24715000Y-37100000D02*
X23715000Y-37100000D01*
X24715000Y-35350000D02*
X24715000Y-35850000D01*
X24715000Y-35350000D02*
X23715000Y-35350000D01*
X24715000Y-35850000D02*
X23715000Y-35850000D01*
X18315000Y-35300000D02*
X18315000Y-39700000D01*
X18315000Y-39700000D02*
X19615000Y-39700000D01*
X18315000Y-35300000D02*
X19615000Y-35300000D01*
X19615000Y-35000000D02*
X23715000Y-35000000D01*
X23715000Y-35000000D02*
X23715000Y-40000000D01*
X23715000Y-40000000D02*
X19615000Y-40000000D01*
X19615000Y-40000000D02*
X19615000Y-35000000D01*
G04 #@! TO.C,R2*
X17100000Y-18300000D02*
X17100000Y-16700000D01*
X13900000Y-18300000D02*
X17100000Y-18300000D01*
X13900000Y-16700000D02*
X13900000Y-18300000D01*
X17100000Y-16700000D02*
X13900000Y-16700000D01*
G04 #@! TO.C,R3*
X26950000Y-33350000D02*
X28550000Y-33350000D01*
X26950000Y-30150000D02*
X26950000Y-33350000D01*
X28550000Y-30150000D02*
X26950000Y-30150000D01*
X28550000Y-33350000D02*
X28550000Y-30150000D01*
G04 #@! TO.C,R5*
X24700000Y-33350000D02*
X26300000Y-33350000D01*
X24700000Y-30150000D02*
X24700000Y-33350000D01*
X26300000Y-30150000D02*
X24700000Y-30150000D01*
X26300000Y-33350000D02*
X26300000Y-30150000D01*
G04 #@! TO.C,R6*
X17100000Y-41300000D02*
X17100000Y-39700000D01*
X13900000Y-41300000D02*
X17100000Y-41300000D01*
X13900000Y-39700000D02*
X13900000Y-41300000D01*
X17100000Y-39700000D02*
X13900000Y-39700000D01*
D12*
G04 #@! TO.C,U3*
X18750000Y-23850000D02*
X12250000Y-23850000D01*
X12250000Y-23850000D02*
X12250000Y-34150000D01*
X12250000Y-34150000D02*
X19750000Y-34150000D01*
X19750000Y-34150000D02*
X19750000Y-24850000D01*
X19750000Y-24850000D02*
X18750000Y-23850000D01*
G04 #@! TO.C,U4*
X833000Y-37087000D02*
X10993000Y-37087000D01*
X10993000Y-37087000D02*
X10993000Y-56899000D01*
X10993000Y-56899000D02*
X833000Y-56899000D01*
X833000Y-56899000D02*
X833000Y-37087000D01*
G04 #@! TO.C,U2*
X833000Y-1087000D02*
X10993000Y-1087000D01*
X10993000Y-1087000D02*
X10993000Y-20899000D01*
X10993000Y-20899000D02*
X833000Y-20899000D01*
X833000Y-20899000D02*
X833000Y-1087000D01*
G04 #@! TD*
G04 #@! TO.C,J1*
X5952380Y-26702380D02*
X4952380Y-26702380D01*
X5285714Y-27178571D02*
X5952380Y-27178571D01*
X5380952Y-27178571D02*
X5333333Y-27226190D01*
X5285714Y-27321428D01*
X5285714Y-27464285D01*
X5333333Y-27559523D01*
X5428571Y-27607142D01*
X5952380Y-27607142D01*
X5285714Y-28083333D02*
X6285714Y-28083333D01*
X5333333Y-28083333D02*
X5285714Y-28178571D01*
X5285714Y-28369047D01*
X5333333Y-28464285D01*
X5380952Y-28511904D01*
X5476190Y-28559523D01*
X5761904Y-28559523D01*
X5857142Y-28511904D01*
X5904761Y-28464285D01*
X5952380Y-28369047D01*
X5952380Y-28178571D01*
X5904761Y-28083333D01*
X5285714Y-29416666D02*
X5952380Y-29416666D01*
X5285714Y-28988095D02*
X5809523Y-28988095D01*
X5904761Y-29035714D01*
X5952380Y-29130952D01*
X5952380Y-29273809D01*
X5904761Y-29369047D01*
X5857142Y-29416666D01*
X5285714Y-29750000D02*
X5285714Y-30130952D01*
X4952380Y-29892857D02*
X5809523Y-29892857D01*
X5904761Y-29940476D01*
X5952380Y-30035714D01*
X5952380Y-30130952D01*
X5904761Y-30416666D02*
X5952380Y-30511904D01*
X5952380Y-30702380D01*
X5904761Y-30797619D01*
X5809523Y-30845238D01*
X5761904Y-30845238D01*
X5666666Y-30797619D01*
X5619047Y-30702380D01*
X5619047Y-30559523D01*
X5571428Y-30464285D01*
X5476190Y-30416666D01*
X5428571Y-30416666D01*
X5333333Y-30464285D01*
X5285714Y-30559523D01*
X5285714Y-30702380D01*
X5333333Y-30797619D01*
X2952380Y-28416666D02*
X3666666Y-28416666D01*
X3809523Y-28369047D01*
X3904761Y-28273809D01*
X3952380Y-28130952D01*
X3952380Y-28035714D01*
X3952380Y-29416666D02*
X3952380Y-28845238D01*
X3952380Y-29130952D02*
X2952380Y-29130952D01*
X3095238Y-29035714D01*
X3190476Y-28940476D01*
X3238095Y-28845238D01*
G04 #@! TO.C,C11*
X21952380Y-25880952D02*
X21952380Y-25309523D01*
X21952380Y-25595238D02*
X20952380Y-25595238D01*
X21095238Y-25500000D01*
X21190476Y-25404761D01*
X21238095Y-25309523D01*
X20952380Y-26500000D02*
X20952380Y-26595238D01*
X21000000Y-26690476D01*
X21047619Y-26738095D01*
X21142857Y-26785714D01*
X21333333Y-26833333D01*
X21571428Y-26833333D01*
X21761904Y-26785714D01*
X21857142Y-26738095D01*
X21904761Y-26690476D01*
X21952380Y-26595238D01*
X21952380Y-26500000D01*
X21904761Y-26404761D01*
X21857142Y-26357142D01*
X21761904Y-26309523D01*
X21571428Y-26261904D01*
X21333333Y-26261904D01*
X21142857Y-26309523D01*
X21047619Y-26357142D01*
X21000000Y-26404761D01*
X20952380Y-26500000D01*
X20952380Y-27452380D02*
X20952380Y-27547619D01*
X21000000Y-27642857D01*
X21047619Y-27690476D01*
X21142857Y-27738095D01*
X21333333Y-27785714D01*
X21571428Y-27785714D01*
X21761904Y-27738095D01*
X21857142Y-27690476D01*
X21904761Y-27642857D01*
X21952380Y-27547619D01*
X21952380Y-27452380D01*
X21904761Y-27357142D01*
X21857142Y-27309523D01*
X21761904Y-27261904D01*
X21571428Y-27214285D01*
X21333333Y-27214285D01*
X21142857Y-27261904D01*
X21047619Y-27309523D01*
X21000000Y-27357142D01*
X20952380Y-27452380D01*
X21285714Y-28214285D02*
X21952380Y-28214285D01*
X21380952Y-28214285D02*
X21333333Y-28261904D01*
X21285714Y-28357142D01*
X21285714Y-28500000D01*
X21333333Y-28595238D01*
X21428571Y-28642857D01*
X21952380Y-28642857D01*
X23607142Y-26607142D02*
X23654761Y-26559523D01*
X23702380Y-26416666D01*
X23702380Y-26321428D01*
X23654761Y-26178571D01*
X23559523Y-26083333D01*
X23464285Y-26035714D01*
X23273809Y-25988095D01*
X23130952Y-25988095D01*
X22940476Y-26035714D01*
X22845238Y-26083333D01*
X22750000Y-26178571D01*
X22702380Y-26321428D01*
X22702380Y-26416666D01*
X22750000Y-26559523D01*
X22797619Y-26607142D01*
X23702380Y-27559523D02*
X23702380Y-26988095D01*
X23702380Y-27273809D02*
X22702380Y-27273809D01*
X22845238Y-27178571D01*
X22940476Y-27083333D01*
X22988095Y-26988095D01*
X23702380Y-28511904D02*
X23702380Y-27940476D01*
X23702380Y-28226190D02*
X22702380Y-28226190D01*
X22845238Y-28130952D01*
X22940476Y-28035714D01*
X22988095Y-27940476D01*
G04 #@! TO.C,C6*
X12535714Y-20023809D02*
X13202380Y-20023809D01*
X12154761Y-19785714D02*
X12869047Y-19547619D01*
X12869047Y-20166666D01*
X13107142Y-20547619D02*
X13154761Y-20595238D01*
X13202380Y-20547619D01*
X13154761Y-20500000D01*
X13107142Y-20547619D01*
X13202380Y-20547619D01*
X12202380Y-20928571D02*
X12202380Y-21595238D01*
X13202380Y-21166666D01*
X12535714Y-22404761D02*
X13202380Y-22404761D01*
X12535714Y-21976190D02*
X13059523Y-21976190D01*
X13154761Y-22023809D01*
X13202380Y-22119047D01*
X13202380Y-22261904D01*
X13154761Y-22357142D01*
X13107142Y-22404761D01*
X14857142Y-20833333D02*
X14904761Y-20785714D01*
X14952380Y-20642857D01*
X14952380Y-20547619D01*
X14904761Y-20404761D01*
X14809523Y-20309523D01*
X14714285Y-20261904D01*
X14523809Y-20214285D01*
X14380952Y-20214285D01*
X14190476Y-20261904D01*
X14095238Y-20309523D01*
X14000000Y-20404761D01*
X13952380Y-20547619D01*
X13952380Y-20642857D01*
X14000000Y-20785714D01*
X14047619Y-20833333D01*
X13952380Y-21690476D02*
X13952380Y-21500000D01*
X14000000Y-21404761D01*
X14047619Y-21357142D01*
X14190476Y-21261904D01*
X14380952Y-21214285D01*
X14761904Y-21214285D01*
X14857142Y-21261904D01*
X14904761Y-21309523D01*
X14952380Y-21404761D01*
X14952380Y-21595238D01*
X14904761Y-21690476D01*
X14857142Y-21738095D01*
X14761904Y-21785714D01*
X14523809Y-21785714D01*
X14428571Y-21738095D01*
X14380952Y-21690476D01*
X14333333Y-21595238D01*
X14333333Y-21404761D01*
X14380952Y-21309523D01*
X14428571Y-21261904D01*
X14523809Y-21214285D01*
G04 #@! TO.C,C7*
X19202380Y-19880952D02*
X19202380Y-19309523D01*
X19202380Y-19595238D02*
X18202380Y-19595238D01*
X18345238Y-19500000D01*
X18440476Y-19404761D01*
X18488095Y-19309523D01*
X18202380Y-20500000D02*
X18202380Y-20595238D01*
X18250000Y-20690476D01*
X18297619Y-20738095D01*
X18392857Y-20785714D01*
X18583333Y-20833333D01*
X18821428Y-20833333D01*
X19011904Y-20785714D01*
X19107142Y-20738095D01*
X19154761Y-20690476D01*
X19202380Y-20595238D01*
X19202380Y-20500000D01*
X19154761Y-20404761D01*
X19107142Y-20357142D01*
X19011904Y-20309523D01*
X18821428Y-20261904D01*
X18583333Y-20261904D01*
X18392857Y-20309523D01*
X18297619Y-20357142D01*
X18250000Y-20404761D01*
X18202380Y-20500000D01*
X18202380Y-21452380D02*
X18202380Y-21547619D01*
X18250000Y-21642857D01*
X18297619Y-21690476D01*
X18392857Y-21738095D01*
X18583333Y-21785714D01*
X18821428Y-21785714D01*
X19011904Y-21738095D01*
X19107142Y-21690476D01*
X19154761Y-21642857D01*
X19202380Y-21547619D01*
X19202380Y-21452380D01*
X19154761Y-21357142D01*
X19107142Y-21309523D01*
X19011904Y-21261904D01*
X18821428Y-21214285D01*
X18583333Y-21214285D01*
X18392857Y-21261904D01*
X18297619Y-21309523D01*
X18250000Y-21357142D01*
X18202380Y-21452380D01*
X18535714Y-22214285D02*
X19202380Y-22214285D01*
X18630952Y-22214285D02*
X18583333Y-22261904D01*
X18535714Y-22357142D01*
X18535714Y-22500000D01*
X18583333Y-22595238D01*
X18678571Y-22642857D01*
X19202380Y-22642857D01*
X17107142Y-20833333D02*
X17154761Y-20785714D01*
X17202380Y-20642857D01*
X17202380Y-20547619D01*
X17154761Y-20404761D01*
X17059523Y-20309523D01*
X16964285Y-20261904D01*
X16773809Y-20214285D01*
X16630952Y-20214285D01*
X16440476Y-20261904D01*
X16345238Y-20309523D01*
X16250000Y-20404761D01*
X16202380Y-20547619D01*
X16202380Y-20642857D01*
X16250000Y-20785714D01*
X16297619Y-20833333D01*
X16202380Y-21166666D02*
X16202380Y-21833333D01*
X17202380Y-21404761D01*
G04 #@! TO.C,C8*
X26755076Y-24220473D02*
X26317343Y-24658206D01*
X26822419Y-24691877D01*
X26721404Y-24792893D01*
X26687732Y-24893908D01*
X26687732Y-24961251D01*
X26721404Y-25062267D01*
X26889763Y-25230625D01*
X26990778Y-25264297D01*
X27058122Y-25264297D01*
X27159137Y-25230625D01*
X27361167Y-25028595D01*
X27394839Y-24927580D01*
X27394839Y-24860236D01*
X26081641Y-24893908D02*
X25643908Y-25331641D01*
X26148984Y-25365312D01*
X26047969Y-25466328D01*
X26014297Y-25567343D01*
X26014297Y-25634687D01*
X26047969Y-25735702D01*
X26216328Y-25904061D01*
X26317343Y-25937732D01*
X26384687Y-25937732D01*
X26485702Y-25904061D01*
X26687732Y-25702030D01*
X26721404Y-25601015D01*
X26721404Y-25533671D01*
X25576564Y-25870389D02*
X26283671Y-26577496D01*
X25610236Y-25904061D02*
X25509221Y-25937732D01*
X25374534Y-26072419D01*
X25340862Y-26173435D01*
X25340862Y-26240778D01*
X25374534Y-26341793D01*
X25576564Y-26543824D01*
X25677580Y-26577496D01*
X25744923Y-26577496D01*
X25845938Y-26543824D01*
X25980625Y-26409137D01*
X26014297Y-26308122D01*
X27870389Y-26884687D02*
X27937732Y-26884687D01*
X28072419Y-26817343D01*
X28139763Y-26750000D01*
X28207106Y-26615312D01*
X28207106Y-26480625D01*
X28173435Y-26379610D01*
X28072419Y-26211251D01*
X27971404Y-26110236D01*
X27803045Y-26009221D01*
X27702030Y-25975549D01*
X27567343Y-25975549D01*
X27432656Y-26042893D01*
X27365312Y-26110236D01*
X27297969Y-26244923D01*
X27297969Y-26312267D01*
X27129610Y-26952030D02*
X27163282Y-26851015D01*
X27163282Y-26783671D01*
X27129610Y-26682656D01*
X27095938Y-26648984D01*
X26994923Y-26615312D01*
X26927580Y-26615312D01*
X26826564Y-26648984D01*
X26691877Y-26783671D01*
X26658206Y-26884687D01*
X26658206Y-26952030D01*
X26691877Y-27053045D01*
X26725549Y-27086717D01*
X26826564Y-27120389D01*
X26893908Y-27120389D01*
X26994923Y-27086717D01*
X27129610Y-26952030D01*
X27230625Y-26918358D01*
X27297969Y-26918358D01*
X27398984Y-26952030D01*
X27533671Y-27086717D01*
X27567343Y-27187732D01*
X27567343Y-27255076D01*
X27533671Y-27356091D01*
X27398984Y-27490778D01*
X27297969Y-27524450D01*
X27230625Y-27524450D01*
X27129610Y-27490778D01*
X26994923Y-27356091D01*
X26961251Y-27255076D01*
X26961251Y-27187732D01*
X26994923Y-27086717D01*
G04 #@! TO.C,C9*
X14285714Y-9023809D02*
X14952380Y-9023809D01*
X13904761Y-8785714D02*
X14619047Y-8547619D01*
X14619047Y-9166666D01*
X14857142Y-9547619D02*
X14904761Y-9595238D01*
X14952380Y-9547619D01*
X14904761Y-9500000D01*
X14857142Y-9547619D01*
X14952380Y-9547619D01*
X13952380Y-9928571D02*
X13952380Y-10595238D01*
X14952380Y-10166666D01*
X14285714Y-11404761D02*
X14952380Y-11404761D01*
X14285714Y-10976190D02*
X14809523Y-10976190D01*
X14904761Y-11023809D01*
X14952380Y-11119047D01*
X14952380Y-11261904D01*
X14904761Y-11357142D01*
X14857142Y-11404761D01*
X14857142Y-13833333D02*
X14904761Y-13785714D01*
X14952380Y-13642857D01*
X14952380Y-13547619D01*
X14904761Y-13404761D01*
X14809523Y-13309523D01*
X14714285Y-13261904D01*
X14523809Y-13214285D01*
X14380952Y-13214285D01*
X14190476Y-13261904D01*
X14095238Y-13309523D01*
X14000000Y-13404761D01*
X13952380Y-13547619D01*
X13952380Y-13642857D01*
X14000000Y-13785714D01*
X14047619Y-13833333D01*
X14952380Y-14309523D02*
X14952380Y-14500000D01*
X14904761Y-14595238D01*
X14857142Y-14642857D01*
X14714285Y-14738095D01*
X14523809Y-14785714D01*
X14142857Y-14785714D01*
X14047619Y-14738095D01*
X14000000Y-14690476D01*
X13952380Y-14595238D01*
X13952380Y-14404761D01*
X14000000Y-14309523D01*
X14047619Y-14261904D01*
X14142857Y-14214285D01*
X14380952Y-14214285D01*
X14476190Y-14261904D01*
X14523809Y-14309523D01*
X14571428Y-14404761D01*
X14571428Y-14595238D01*
X14523809Y-14690476D01*
X14476190Y-14738095D01*
X14380952Y-14785714D01*
G04 #@! TO.C,C10*
X17202380Y-8630952D02*
X17202380Y-8059523D01*
X17202380Y-8345238D02*
X16202380Y-8345238D01*
X16345238Y-8250000D01*
X16440476Y-8154761D01*
X16488095Y-8059523D01*
X16202380Y-9250000D02*
X16202380Y-9345238D01*
X16250000Y-9440476D01*
X16297619Y-9488095D01*
X16392857Y-9535714D01*
X16583333Y-9583333D01*
X16821428Y-9583333D01*
X17011904Y-9535714D01*
X17107142Y-9488095D01*
X17154761Y-9440476D01*
X17202380Y-9345238D01*
X17202380Y-9250000D01*
X17154761Y-9154761D01*
X17107142Y-9107142D01*
X17011904Y-9059523D01*
X16821428Y-9011904D01*
X16583333Y-9011904D01*
X16392857Y-9059523D01*
X16297619Y-9107142D01*
X16250000Y-9154761D01*
X16202380Y-9250000D01*
X16202380Y-10202380D02*
X16202380Y-10297619D01*
X16250000Y-10392857D01*
X16297619Y-10440476D01*
X16392857Y-10488095D01*
X16583333Y-10535714D01*
X16821428Y-10535714D01*
X17011904Y-10488095D01*
X17107142Y-10440476D01*
X17154761Y-10392857D01*
X17202380Y-10297619D01*
X17202380Y-10202380D01*
X17154761Y-10107142D01*
X17107142Y-10059523D01*
X17011904Y-10011904D01*
X16821428Y-9964285D01*
X16583333Y-9964285D01*
X16392857Y-10011904D01*
X16297619Y-10059523D01*
X16250000Y-10107142D01*
X16202380Y-10202380D01*
X16535714Y-10964285D02*
X17202380Y-10964285D01*
X16630952Y-10964285D02*
X16583333Y-11011904D01*
X16535714Y-11107142D01*
X16535714Y-11250000D01*
X16583333Y-11345238D01*
X16678571Y-11392857D01*
X17202380Y-11392857D01*
X17107142Y-13357142D02*
X17154761Y-13309523D01*
X17202380Y-13166666D01*
X17202380Y-13071428D01*
X17154761Y-12928571D01*
X17059523Y-12833333D01*
X16964285Y-12785714D01*
X16773809Y-12738095D01*
X16630952Y-12738095D01*
X16440476Y-12785714D01*
X16345238Y-12833333D01*
X16250000Y-12928571D01*
X16202380Y-13071428D01*
X16202380Y-13166666D01*
X16250000Y-13309523D01*
X16297619Y-13357142D01*
X17202380Y-14309523D02*
X17202380Y-13738095D01*
X17202380Y-14023809D02*
X16202380Y-14023809D01*
X16345238Y-13928571D01*
X16440476Y-13833333D01*
X16488095Y-13738095D01*
X16202380Y-14928571D02*
X16202380Y-15023809D01*
X16250000Y-15119047D01*
X16297619Y-15166666D01*
X16392857Y-15214285D01*
X16583333Y-15261904D01*
X16821428Y-15261904D01*
X17011904Y-15214285D01*
X17107142Y-15166666D01*
X17154761Y-15119047D01*
X17202380Y-15023809D01*
X17202380Y-14928571D01*
X17154761Y-14833333D01*
X17107142Y-14785714D01*
X17011904Y-14738095D01*
X16821428Y-14690476D01*
X16583333Y-14690476D01*
X16392857Y-14738095D01*
X16297619Y-14785714D01*
X16250000Y-14833333D01*
X16202380Y-14928571D01*
G04 #@! TO.C,C12*
X21047619Y-30297619D02*
X21000000Y-30345238D01*
X20952380Y-30440476D01*
X20952380Y-30678571D01*
X21000000Y-30773809D01*
X21047619Y-30821428D01*
X21142857Y-30869047D01*
X21238095Y-30869047D01*
X21380952Y-30821428D01*
X21952380Y-30250000D01*
X21952380Y-30869047D01*
X21857142Y-31297619D02*
X21904761Y-31345238D01*
X21952380Y-31297619D01*
X21904761Y-31250000D01*
X21857142Y-31297619D01*
X21952380Y-31297619D01*
X21047619Y-31726190D02*
X21000000Y-31773809D01*
X20952380Y-31869047D01*
X20952380Y-32107142D01*
X21000000Y-32202380D01*
X21047619Y-32250000D01*
X21142857Y-32297619D01*
X21238095Y-32297619D01*
X21380952Y-32250000D01*
X21952380Y-31678571D01*
X21952380Y-32297619D01*
X21285714Y-32726190D02*
X21952380Y-32726190D01*
X21380952Y-32726190D02*
X21333333Y-32773809D01*
X21285714Y-32869047D01*
X21285714Y-33011904D01*
X21333333Y-33107142D01*
X21428571Y-33154761D01*
X21952380Y-33154761D01*
X23607142Y-31107142D02*
X23654761Y-31059523D01*
X23702380Y-30916666D01*
X23702380Y-30821428D01*
X23654761Y-30678571D01*
X23559523Y-30583333D01*
X23464285Y-30535714D01*
X23273809Y-30488095D01*
X23130952Y-30488095D01*
X22940476Y-30535714D01*
X22845238Y-30583333D01*
X22750000Y-30678571D01*
X22702380Y-30821428D01*
X22702380Y-30916666D01*
X22750000Y-31059523D01*
X22797619Y-31107142D01*
X23702380Y-32059523D02*
X23702380Y-31488095D01*
X23702380Y-31773809D02*
X22702380Y-31773809D01*
X22845238Y-31678571D01*
X22940476Y-31583333D01*
X22988095Y-31488095D01*
X22797619Y-32440476D02*
X22750000Y-32488095D01*
X22702380Y-32583333D01*
X22702380Y-32821428D01*
X22750000Y-32916666D01*
X22797619Y-32964285D01*
X22892857Y-33011904D01*
X22988095Y-33011904D01*
X23130952Y-32964285D01*
X23702380Y-32392857D01*
X23702380Y-33011904D01*
G04 #@! TO.C,C14*
X14285714Y-47023809D02*
X14952380Y-47023809D01*
X13904761Y-46785714D02*
X14619047Y-46547619D01*
X14619047Y-47166666D01*
X14857142Y-47547619D02*
X14904761Y-47595238D01*
X14952380Y-47547619D01*
X14904761Y-47500000D01*
X14857142Y-47547619D01*
X14952380Y-47547619D01*
X13952380Y-47928571D02*
X13952380Y-48595238D01*
X14952380Y-48166666D01*
X14285714Y-49404761D02*
X14952380Y-49404761D01*
X14285714Y-48976190D02*
X14809523Y-48976190D01*
X14904761Y-49023809D01*
X14952380Y-49119047D01*
X14952380Y-49261904D01*
X14904761Y-49357142D01*
X14857142Y-49404761D01*
X14857142Y-43357142D02*
X14904761Y-43309523D01*
X14952380Y-43166666D01*
X14952380Y-43071428D01*
X14904761Y-42928571D01*
X14809523Y-42833333D01*
X14714285Y-42785714D01*
X14523809Y-42738095D01*
X14380952Y-42738095D01*
X14190476Y-42785714D01*
X14095238Y-42833333D01*
X14000000Y-42928571D01*
X13952380Y-43071428D01*
X13952380Y-43166666D01*
X14000000Y-43309523D01*
X14047619Y-43357142D01*
X14952380Y-44309523D02*
X14952380Y-43738095D01*
X14952380Y-44023809D02*
X13952380Y-44023809D01*
X14095238Y-43928571D01*
X14190476Y-43833333D01*
X14238095Y-43738095D01*
X14285714Y-45166666D02*
X14952380Y-45166666D01*
X13904761Y-44928571D02*
X14619047Y-44690476D01*
X14619047Y-45309523D01*
G04 #@! TO.C,C15*
X17202380Y-47130952D02*
X17202380Y-46559523D01*
X17202380Y-46845238D02*
X16202380Y-46845238D01*
X16345238Y-46750000D01*
X16440476Y-46654761D01*
X16488095Y-46559523D01*
X16202380Y-47750000D02*
X16202380Y-47845238D01*
X16250000Y-47940476D01*
X16297619Y-47988095D01*
X16392857Y-48035714D01*
X16583333Y-48083333D01*
X16821428Y-48083333D01*
X17011904Y-48035714D01*
X17107142Y-47988095D01*
X17154761Y-47940476D01*
X17202380Y-47845238D01*
X17202380Y-47750000D01*
X17154761Y-47654761D01*
X17107142Y-47607142D01*
X17011904Y-47559523D01*
X16821428Y-47511904D01*
X16583333Y-47511904D01*
X16392857Y-47559523D01*
X16297619Y-47607142D01*
X16250000Y-47654761D01*
X16202380Y-47750000D01*
X16202380Y-48702380D02*
X16202380Y-48797619D01*
X16250000Y-48892857D01*
X16297619Y-48940476D01*
X16392857Y-48988095D01*
X16583333Y-49035714D01*
X16821428Y-49035714D01*
X17011904Y-48988095D01*
X17107142Y-48940476D01*
X17154761Y-48892857D01*
X17202380Y-48797619D01*
X17202380Y-48702380D01*
X17154761Y-48607142D01*
X17107142Y-48559523D01*
X17011904Y-48511904D01*
X16821428Y-48464285D01*
X16583333Y-48464285D01*
X16392857Y-48511904D01*
X16297619Y-48559523D01*
X16250000Y-48607142D01*
X16202380Y-48702380D01*
X16535714Y-49464285D02*
X17202380Y-49464285D01*
X16630952Y-49464285D02*
X16583333Y-49511904D01*
X16535714Y-49607142D01*
X16535714Y-49750000D01*
X16583333Y-49845238D01*
X16678571Y-49892857D01*
X17202380Y-49892857D01*
X17107142Y-43357142D02*
X17154761Y-43309523D01*
X17202380Y-43166666D01*
X17202380Y-43071428D01*
X17154761Y-42928571D01*
X17059523Y-42833333D01*
X16964285Y-42785714D01*
X16773809Y-42738095D01*
X16630952Y-42738095D01*
X16440476Y-42785714D01*
X16345238Y-42833333D01*
X16250000Y-42928571D01*
X16202380Y-43071428D01*
X16202380Y-43166666D01*
X16250000Y-43309523D01*
X16297619Y-43357142D01*
X17202380Y-44309523D02*
X17202380Y-43738095D01*
X17202380Y-44023809D02*
X16202380Y-44023809D01*
X16345238Y-43928571D01*
X16440476Y-43833333D01*
X16488095Y-43738095D01*
X16202380Y-45214285D02*
X16202380Y-44738095D01*
X16678571Y-44690476D01*
X16630952Y-44738095D01*
X16583333Y-44833333D01*
X16583333Y-45071428D01*
X16630952Y-45166666D01*
X16678571Y-45214285D01*
X16773809Y-45261904D01*
X17011904Y-45261904D01*
X17107142Y-45214285D01*
X17154761Y-45166666D01*
X17202380Y-45071428D01*
X17202380Y-44833333D01*
X17154761Y-44738095D01*
X17107142Y-44690476D01*
G04 #@! TO.C,C16*
X12535714Y-36023809D02*
X13202380Y-36023809D01*
X12154761Y-35785714D02*
X12869047Y-35547619D01*
X12869047Y-36166666D01*
X13107142Y-36547619D02*
X13154761Y-36595238D01*
X13202380Y-36547619D01*
X13154761Y-36500000D01*
X13107142Y-36547619D01*
X13202380Y-36547619D01*
X12202380Y-36928571D02*
X12202380Y-37595238D01*
X13202380Y-37166666D01*
X12535714Y-38404761D02*
X13202380Y-38404761D01*
X12535714Y-37976190D02*
X13059523Y-37976190D01*
X13154761Y-38023809D01*
X13202380Y-38119047D01*
X13202380Y-38261904D01*
X13154761Y-38357142D01*
X13107142Y-38404761D01*
X14857142Y-36357142D02*
X14904761Y-36309523D01*
X14952380Y-36166666D01*
X14952380Y-36071428D01*
X14904761Y-35928571D01*
X14809523Y-35833333D01*
X14714285Y-35785714D01*
X14523809Y-35738095D01*
X14380952Y-35738095D01*
X14190476Y-35785714D01*
X14095238Y-35833333D01*
X14000000Y-35928571D01*
X13952380Y-36071428D01*
X13952380Y-36166666D01*
X14000000Y-36309523D01*
X14047619Y-36357142D01*
X14952380Y-37309523D02*
X14952380Y-36738095D01*
X14952380Y-37023809D02*
X13952380Y-37023809D01*
X14095238Y-36928571D01*
X14190476Y-36833333D01*
X14238095Y-36738095D01*
X13952380Y-38166666D02*
X13952380Y-37976190D01*
X14000000Y-37880952D01*
X14047619Y-37833333D01*
X14190476Y-37738095D01*
X14380952Y-37690476D01*
X14761904Y-37690476D01*
X14857142Y-37738095D01*
X14904761Y-37785714D01*
X14952380Y-37880952D01*
X14952380Y-38071428D01*
X14904761Y-38166666D01*
X14857142Y-38214285D01*
X14761904Y-38261904D01*
X14523809Y-38261904D01*
X14428571Y-38214285D01*
X14380952Y-38166666D01*
X14333333Y-38071428D01*
X14333333Y-37880952D01*
X14380952Y-37785714D01*
X14428571Y-37738095D01*
X14523809Y-37690476D01*
G04 #@! TO.C,C17*
X19452380Y-35880952D02*
X19452380Y-35309523D01*
X19452380Y-35595238D02*
X18452380Y-35595238D01*
X18595238Y-35500000D01*
X18690476Y-35404761D01*
X18738095Y-35309523D01*
X18452380Y-36500000D02*
X18452380Y-36595238D01*
X18500000Y-36690476D01*
X18547619Y-36738095D01*
X18642857Y-36785714D01*
X18833333Y-36833333D01*
X19071428Y-36833333D01*
X19261904Y-36785714D01*
X19357142Y-36738095D01*
X19404761Y-36690476D01*
X19452380Y-36595238D01*
X19452380Y-36500000D01*
X19404761Y-36404761D01*
X19357142Y-36357142D01*
X19261904Y-36309523D01*
X19071428Y-36261904D01*
X18833333Y-36261904D01*
X18642857Y-36309523D01*
X18547619Y-36357142D01*
X18500000Y-36404761D01*
X18452380Y-36500000D01*
X18452380Y-37452380D02*
X18452380Y-37547619D01*
X18500000Y-37642857D01*
X18547619Y-37690476D01*
X18642857Y-37738095D01*
X18833333Y-37785714D01*
X19071428Y-37785714D01*
X19261904Y-37738095D01*
X19357142Y-37690476D01*
X19404761Y-37642857D01*
X19452380Y-37547619D01*
X19452380Y-37452380D01*
X19404761Y-37357142D01*
X19357142Y-37309523D01*
X19261904Y-37261904D01*
X19071428Y-37214285D01*
X18833333Y-37214285D01*
X18642857Y-37261904D01*
X18547619Y-37309523D01*
X18500000Y-37357142D01*
X18452380Y-37452380D01*
X18785714Y-38214285D02*
X19452380Y-38214285D01*
X18880952Y-38214285D02*
X18833333Y-38261904D01*
X18785714Y-38357142D01*
X18785714Y-38500000D01*
X18833333Y-38595238D01*
X18928571Y-38642857D01*
X19452380Y-38642857D01*
X17107142Y-36357142D02*
X17154761Y-36309523D01*
X17202380Y-36166666D01*
X17202380Y-36071428D01*
X17154761Y-35928571D01*
X17059523Y-35833333D01*
X16964285Y-35785714D01*
X16773809Y-35738095D01*
X16630952Y-35738095D01*
X16440476Y-35785714D01*
X16345238Y-35833333D01*
X16250000Y-35928571D01*
X16202380Y-36071428D01*
X16202380Y-36166666D01*
X16250000Y-36309523D01*
X16297619Y-36357142D01*
X17202380Y-37309523D02*
X17202380Y-36738095D01*
X17202380Y-37023809D02*
X16202380Y-37023809D01*
X16345238Y-36928571D01*
X16440476Y-36833333D01*
X16488095Y-36738095D01*
X16202380Y-37642857D02*
X16202380Y-38309523D01*
X17202380Y-37880952D01*
G04 #@! TO.C,Q1*
X29702380Y-12750000D02*
X28702380Y-12750000D01*
X28702380Y-13130952D01*
X28750000Y-13226190D01*
X28797619Y-13273809D01*
X28892857Y-13321428D01*
X29035714Y-13321428D01*
X29130952Y-13273809D01*
X29178571Y-13226190D01*
X29226190Y-13130952D01*
X29226190Y-12750000D01*
X29702380Y-13750000D02*
X28702380Y-13750000D01*
X29178571Y-13750000D02*
X29178571Y-14321428D01*
X29702380Y-14321428D02*
X28702380Y-14321428D01*
X29702380Y-14797619D02*
X28702380Y-14797619D01*
X28702380Y-15178571D01*
X28750000Y-15273809D01*
X28797619Y-15321428D01*
X28892857Y-15369047D01*
X29035714Y-15369047D01*
X29130952Y-15321428D01*
X29178571Y-15273809D01*
X29226190Y-15178571D01*
X29226190Y-14797619D01*
X28702380Y-15654761D02*
X28702380Y-16226190D01*
X29702380Y-15940476D02*
X28702380Y-15940476D01*
X28702380Y-16988095D02*
X28702380Y-16797619D01*
X28750000Y-16702380D01*
X28797619Y-16654761D01*
X28940476Y-16559523D01*
X29130952Y-16511904D01*
X29511904Y-16511904D01*
X29607142Y-16559523D01*
X29654761Y-16607142D01*
X29702380Y-16702380D01*
X29702380Y-16892857D01*
X29654761Y-16988095D01*
X29607142Y-17035714D01*
X29511904Y-17083333D01*
X29273809Y-17083333D01*
X29178571Y-17035714D01*
X29130952Y-16988095D01*
X29083333Y-16892857D01*
X29083333Y-16702380D01*
X29130952Y-16607142D01*
X29178571Y-16559523D01*
X29273809Y-16511904D01*
X28702380Y-17702380D02*
X28702380Y-17797619D01*
X28750000Y-17892857D01*
X28797619Y-17940476D01*
X28892857Y-17988095D01*
X29083333Y-18035714D01*
X29321428Y-18035714D01*
X29511904Y-17988095D01*
X29607142Y-17940476D01*
X29654761Y-17892857D01*
X29702380Y-17797619D01*
X29702380Y-17702380D01*
X29654761Y-17607142D01*
X29607142Y-17559523D01*
X29511904Y-17511904D01*
X29321428Y-17464285D01*
X29083333Y-17464285D01*
X28892857Y-17511904D01*
X28797619Y-17559523D01*
X28750000Y-17607142D01*
X28702380Y-17702380D01*
X29035714Y-18892857D02*
X29702380Y-18892857D01*
X28654761Y-18654761D02*
X29369047Y-18416666D01*
X29369047Y-19035714D01*
X29702380Y-19940476D02*
X29702380Y-19369047D01*
X29702380Y-19654761D02*
X28702380Y-19654761D01*
X28845238Y-19559523D01*
X28940476Y-19464285D01*
X28988095Y-19369047D01*
X28702380Y-20845238D02*
X28702380Y-20369047D01*
X29178571Y-20321428D01*
X29130952Y-20369047D01*
X29083333Y-20464285D01*
X29083333Y-20702380D01*
X29130952Y-20797619D01*
X29178571Y-20845238D01*
X29273809Y-20892857D01*
X29511904Y-20892857D01*
X29607142Y-20845238D01*
X29654761Y-20797619D01*
X29702380Y-20702380D01*
X29702380Y-20464285D01*
X29654761Y-20369047D01*
X29607142Y-20321428D01*
X29702380Y-21321428D02*
X28702380Y-21321428D01*
X29702380Y-21892857D01*
X28702380Y-21892857D01*
X29226190Y-22559523D02*
X29702380Y-22559523D01*
X28702380Y-22226190D02*
X29226190Y-22559523D01*
X28702380Y-22892857D01*
X22047619Y-20404761D02*
X22000000Y-20309523D01*
X21904761Y-20214285D01*
X21761904Y-20071428D01*
X21714285Y-19976190D01*
X21714285Y-19880952D01*
X21952380Y-19928571D02*
X21904761Y-19833333D01*
X21809523Y-19738095D01*
X21619047Y-19690476D01*
X21285714Y-19690476D01*
X21095238Y-19738095D01*
X21000000Y-19833333D01*
X20952380Y-19928571D01*
X20952380Y-20119047D01*
X21000000Y-20214285D01*
X21095238Y-20309523D01*
X21285714Y-20357142D01*
X21619047Y-20357142D01*
X21809523Y-20309523D01*
X21904761Y-20214285D01*
X21952380Y-20119047D01*
X21952380Y-19928571D01*
X21952380Y-21309523D02*
X21952380Y-20738095D01*
X21952380Y-21023809D02*
X20952380Y-21023809D01*
X21095238Y-20928571D01*
X21190476Y-20833333D01*
X21238095Y-20738095D01*
G04 #@! TO.C,Q2*
X26452380Y-6773809D02*
X25452380Y-6773809D01*
X25452380Y-7154761D01*
X25500000Y-7250000D01*
X25547619Y-7297619D01*
X25642857Y-7345238D01*
X25785714Y-7345238D01*
X25880952Y-7297619D01*
X25928571Y-7250000D01*
X25976190Y-7154761D01*
X25976190Y-6773809D01*
X26452380Y-7773809D02*
X25452380Y-7773809D01*
X25928571Y-7773809D02*
X25928571Y-8345238D01*
X26452380Y-8345238D02*
X25452380Y-8345238D01*
X26452380Y-8821428D02*
X25452380Y-8821428D01*
X25452380Y-9202380D01*
X25500000Y-9297619D01*
X25547619Y-9345238D01*
X25642857Y-9392857D01*
X25785714Y-9392857D01*
X25880952Y-9345238D01*
X25928571Y-9297619D01*
X25976190Y-9202380D01*
X25976190Y-8821428D01*
X25452380Y-9678571D02*
X25452380Y-10250000D01*
X26452380Y-9964285D02*
X25452380Y-9964285D01*
X25452380Y-11011904D02*
X25452380Y-10821428D01*
X25500000Y-10726190D01*
X25547619Y-10678571D01*
X25690476Y-10583333D01*
X25880952Y-10535714D01*
X26261904Y-10535714D01*
X26357142Y-10583333D01*
X26404761Y-10630952D01*
X26452380Y-10726190D01*
X26452380Y-10916666D01*
X26404761Y-11011904D01*
X26357142Y-11059523D01*
X26261904Y-11107142D01*
X26023809Y-11107142D01*
X25928571Y-11059523D01*
X25880952Y-11011904D01*
X25833333Y-10916666D01*
X25833333Y-10726190D01*
X25880952Y-10630952D01*
X25928571Y-10583333D01*
X26023809Y-10535714D01*
X25452380Y-11726190D02*
X25452380Y-11821428D01*
X25500000Y-11916666D01*
X25547619Y-11964285D01*
X25642857Y-12011904D01*
X25833333Y-12059523D01*
X26071428Y-12059523D01*
X26261904Y-12011904D01*
X26357142Y-11964285D01*
X26404761Y-11916666D01*
X26452380Y-11821428D01*
X26452380Y-11726190D01*
X26404761Y-11630952D01*
X26357142Y-11583333D01*
X26261904Y-11535714D01*
X26071428Y-11488095D01*
X25833333Y-11488095D01*
X25642857Y-11535714D01*
X25547619Y-11583333D01*
X25500000Y-11630952D01*
X25452380Y-11726190D01*
X25785714Y-12916666D02*
X26452380Y-12916666D01*
X25404761Y-12678571D02*
X26119047Y-12440476D01*
X26119047Y-13059523D01*
X26452380Y-13964285D02*
X26452380Y-13392857D01*
X26452380Y-13678571D02*
X25452380Y-13678571D01*
X25595238Y-13583333D01*
X25690476Y-13488095D01*
X25738095Y-13392857D01*
X25452380Y-14869047D02*
X25452380Y-14392857D01*
X25928571Y-14345238D01*
X25880952Y-14392857D01*
X25833333Y-14488095D01*
X25833333Y-14726190D01*
X25880952Y-14821428D01*
X25928571Y-14869047D01*
X26023809Y-14916666D01*
X26261904Y-14916666D01*
X26357142Y-14869047D01*
X26404761Y-14821428D01*
X26452380Y-14726190D01*
X26452380Y-14488095D01*
X26404761Y-14392857D01*
X26357142Y-14345238D01*
X26452380Y-15345238D02*
X25452380Y-15345238D01*
X25452380Y-15726190D01*
X25500000Y-15821428D01*
X25547619Y-15869047D01*
X25642857Y-15916666D01*
X25785714Y-15916666D01*
X25880952Y-15869047D01*
X25928571Y-15821428D01*
X25976190Y-15726190D01*
X25976190Y-15345238D01*
X25976190Y-16535714D02*
X26452380Y-16535714D01*
X25452380Y-16202380D02*
X25976190Y-16535714D01*
X25452380Y-16869047D01*
X22047619Y-14404761D02*
X22000000Y-14309523D01*
X21904761Y-14214285D01*
X21761904Y-14071428D01*
X21714285Y-13976190D01*
X21714285Y-13880952D01*
X21952380Y-13928571D02*
X21904761Y-13833333D01*
X21809523Y-13738095D01*
X21619047Y-13690476D01*
X21285714Y-13690476D01*
X21095238Y-13738095D01*
X21000000Y-13833333D01*
X20952380Y-13928571D01*
X20952380Y-14119047D01*
X21000000Y-14214285D01*
X21095238Y-14309523D01*
X21285714Y-14357142D01*
X21619047Y-14357142D01*
X21809523Y-14309523D01*
X21904761Y-14214285D01*
X21952380Y-14119047D01*
X21952380Y-13928571D01*
X21047619Y-14738095D02*
X21000000Y-14785714D01*
X20952380Y-14880952D01*
X20952380Y-15119047D01*
X21000000Y-15214285D01*
X21047619Y-15261904D01*
X21142857Y-15309523D01*
X21238095Y-15309523D01*
X21380952Y-15261904D01*
X21952380Y-14690476D01*
X21952380Y-15309523D01*
G04 #@! TO.C,Q4*
X26452380Y-41000000D02*
X25452380Y-41000000D01*
X25452380Y-41380952D01*
X25500000Y-41476190D01*
X25547619Y-41523809D01*
X25642857Y-41571428D01*
X25785714Y-41571428D01*
X25880952Y-41523809D01*
X25928571Y-41476190D01*
X25976190Y-41380952D01*
X25976190Y-41000000D01*
X26452380Y-42000000D02*
X25452380Y-42000000D01*
X25928571Y-42000000D02*
X25928571Y-42571428D01*
X26452380Y-42571428D02*
X25452380Y-42571428D01*
X26452380Y-43047619D02*
X25452380Y-43047619D01*
X25452380Y-43428571D01*
X25500000Y-43523809D01*
X25547619Y-43571428D01*
X25642857Y-43619047D01*
X25785714Y-43619047D01*
X25880952Y-43571428D01*
X25928571Y-43523809D01*
X25976190Y-43428571D01*
X25976190Y-43047619D01*
X25452380Y-43904761D02*
X25452380Y-44476190D01*
X26452380Y-44190476D02*
X25452380Y-44190476D01*
X25452380Y-45238095D02*
X25452380Y-45047619D01*
X25500000Y-44952380D01*
X25547619Y-44904761D01*
X25690476Y-44809523D01*
X25880952Y-44761904D01*
X26261904Y-44761904D01*
X26357142Y-44809523D01*
X26404761Y-44857142D01*
X26452380Y-44952380D01*
X26452380Y-45142857D01*
X26404761Y-45238095D01*
X26357142Y-45285714D01*
X26261904Y-45333333D01*
X26023809Y-45333333D01*
X25928571Y-45285714D01*
X25880952Y-45238095D01*
X25833333Y-45142857D01*
X25833333Y-44952380D01*
X25880952Y-44857142D01*
X25928571Y-44809523D01*
X26023809Y-44761904D01*
X25452380Y-45952380D02*
X25452380Y-46047619D01*
X25500000Y-46142857D01*
X25547619Y-46190476D01*
X25642857Y-46238095D01*
X25833333Y-46285714D01*
X26071428Y-46285714D01*
X26261904Y-46238095D01*
X26357142Y-46190476D01*
X26404761Y-46142857D01*
X26452380Y-46047619D01*
X26452380Y-45952380D01*
X26404761Y-45857142D01*
X26357142Y-45809523D01*
X26261904Y-45761904D01*
X26071428Y-45714285D01*
X25833333Y-45714285D01*
X25642857Y-45761904D01*
X25547619Y-45809523D01*
X25500000Y-45857142D01*
X25452380Y-45952380D01*
X25785714Y-47142857D02*
X26452380Y-47142857D01*
X25404761Y-46904761D02*
X26119047Y-46666666D01*
X26119047Y-47285714D01*
X26452380Y-48190476D02*
X26452380Y-47619047D01*
X26452380Y-47904761D02*
X25452380Y-47904761D01*
X25595238Y-47809523D01*
X25690476Y-47714285D01*
X25738095Y-47619047D01*
X25452380Y-49095238D02*
X25452380Y-48619047D01*
X25928571Y-48571428D01*
X25880952Y-48619047D01*
X25833333Y-48714285D01*
X25833333Y-48952380D01*
X25880952Y-49047619D01*
X25928571Y-49095238D01*
X26023809Y-49142857D01*
X26261904Y-49142857D01*
X26357142Y-49095238D01*
X26404761Y-49047619D01*
X26452380Y-48952380D01*
X26452380Y-48714285D01*
X26404761Y-48619047D01*
X26357142Y-48571428D01*
X26452380Y-49571428D02*
X25452380Y-49571428D01*
X26452380Y-50142857D01*
X25452380Y-50142857D01*
X25976190Y-50809523D02*
X26452380Y-50809523D01*
X25452380Y-50476190D02*
X25976190Y-50809523D01*
X25452380Y-51142857D01*
X22047619Y-43404761D02*
X22000000Y-43309523D01*
X21904761Y-43214285D01*
X21761904Y-43071428D01*
X21714285Y-42976190D01*
X21714285Y-42880952D01*
X21952380Y-42928571D02*
X21904761Y-42833333D01*
X21809523Y-42738095D01*
X21619047Y-42690476D01*
X21285714Y-42690476D01*
X21095238Y-42738095D01*
X21000000Y-42833333D01*
X20952380Y-42928571D01*
X20952380Y-43119047D01*
X21000000Y-43214285D01*
X21095238Y-43309523D01*
X21285714Y-43357142D01*
X21619047Y-43357142D01*
X21809523Y-43309523D01*
X21904761Y-43214285D01*
X21952380Y-43119047D01*
X21952380Y-42928571D01*
X21285714Y-44214285D02*
X21952380Y-44214285D01*
X20904761Y-43976190D02*
X21619047Y-43738095D01*
X21619047Y-44357142D01*
G04 #@! TO.C,Q5*
X29702380Y-35023809D02*
X28702380Y-35023809D01*
X28702380Y-35404761D01*
X28750000Y-35500000D01*
X28797619Y-35547619D01*
X28892857Y-35595238D01*
X29035714Y-35595238D01*
X29130952Y-35547619D01*
X29178571Y-35500000D01*
X29226190Y-35404761D01*
X29226190Y-35023809D01*
X29702380Y-36023809D02*
X28702380Y-36023809D01*
X29178571Y-36023809D02*
X29178571Y-36595238D01*
X29702380Y-36595238D02*
X28702380Y-36595238D01*
X29702380Y-37071428D02*
X28702380Y-37071428D01*
X28702380Y-37452380D01*
X28750000Y-37547619D01*
X28797619Y-37595238D01*
X28892857Y-37642857D01*
X29035714Y-37642857D01*
X29130952Y-37595238D01*
X29178571Y-37547619D01*
X29226190Y-37452380D01*
X29226190Y-37071428D01*
X28702380Y-37928571D02*
X28702380Y-38500000D01*
X29702380Y-38214285D02*
X28702380Y-38214285D01*
X28702380Y-39261904D02*
X28702380Y-39071428D01*
X28750000Y-38976190D01*
X28797619Y-38928571D01*
X28940476Y-38833333D01*
X29130952Y-38785714D01*
X29511904Y-38785714D01*
X29607142Y-38833333D01*
X29654761Y-38880952D01*
X29702380Y-38976190D01*
X29702380Y-39166666D01*
X29654761Y-39261904D01*
X29607142Y-39309523D01*
X29511904Y-39357142D01*
X29273809Y-39357142D01*
X29178571Y-39309523D01*
X29130952Y-39261904D01*
X29083333Y-39166666D01*
X29083333Y-38976190D01*
X29130952Y-38880952D01*
X29178571Y-38833333D01*
X29273809Y-38785714D01*
X28702380Y-39976190D02*
X28702380Y-40071428D01*
X28750000Y-40166666D01*
X28797619Y-40214285D01*
X28892857Y-40261904D01*
X29083333Y-40309523D01*
X29321428Y-40309523D01*
X29511904Y-40261904D01*
X29607142Y-40214285D01*
X29654761Y-40166666D01*
X29702380Y-40071428D01*
X29702380Y-39976190D01*
X29654761Y-39880952D01*
X29607142Y-39833333D01*
X29511904Y-39785714D01*
X29321428Y-39738095D01*
X29083333Y-39738095D01*
X28892857Y-39785714D01*
X28797619Y-39833333D01*
X28750000Y-39880952D01*
X28702380Y-39976190D01*
X29035714Y-41166666D02*
X29702380Y-41166666D01*
X28654761Y-40928571D02*
X29369047Y-40690476D01*
X29369047Y-41309523D01*
X29702380Y-42214285D02*
X29702380Y-41642857D01*
X29702380Y-41928571D02*
X28702380Y-41928571D01*
X28845238Y-41833333D01*
X28940476Y-41738095D01*
X28988095Y-41642857D01*
X28702380Y-43119047D02*
X28702380Y-42642857D01*
X29178571Y-42595238D01*
X29130952Y-42642857D01*
X29083333Y-42738095D01*
X29083333Y-42976190D01*
X29130952Y-43071428D01*
X29178571Y-43119047D01*
X29273809Y-43166666D01*
X29511904Y-43166666D01*
X29607142Y-43119047D01*
X29654761Y-43071428D01*
X29702380Y-42976190D01*
X29702380Y-42738095D01*
X29654761Y-42642857D01*
X29607142Y-42595238D01*
X29702380Y-43595238D02*
X28702380Y-43595238D01*
X28702380Y-43976190D01*
X28750000Y-44071428D01*
X28797619Y-44119047D01*
X28892857Y-44166666D01*
X29035714Y-44166666D01*
X29130952Y-44119047D01*
X29178571Y-44071428D01*
X29226190Y-43976190D01*
X29226190Y-43595238D01*
X29226190Y-44785714D02*
X29702380Y-44785714D01*
X28702380Y-44452380D02*
X29226190Y-44785714D01*
X28702380Y-45119047D01*
X22047619Y-37404761D02*
X22000000Y-37309523D01*
X21904761Y-37214285D01*
X21761904Y-37071428D01*
X21714285Y-36976190D01*
X21714285Y-36880952D01*
X21952380Y-36928571D02*
X21904761Y-36833333D01*
X21809523Y-36738095D01*
X21619047Y-36690476D01*
X21285714Y-36690476D01*
X21095238Y-36738095D01*
X21000000Y-36833333D01*
X20952380Y-36928571D01*
X20952380Y-37119047D01*
X21000000Y-37214285D01*
X21095238Y-37309523D01*
X21285714Y-37357142D01*
X21619047Y-37357142D01*
X21809523Y-37309523D01*
X21904761Y-37214285D01*
X21952380Y-37119047D01*
X21952380Y-36928571D01*
X20952380Y-38261904D02*
X20952380Y-37785714D01*
X21428571Y-37738095D01*
X21380952Y-37785714D01*
X21333333Y-37880952D01*
X21333333Y-38119047D01*
X21380952Y-38214285D01*
X21428571Y-38261904D01*
X21523809Y-38309523D01*
X21761904Y-38309523D01*
X21857142Y-38261904D01*
X21904761Y-38214285D01*
X21952380Y-38119047D01*
X21952380Y-37880952D01*
X21904761Y-37785714D01*
X21857142Y-37738095D01*
G04 #@! TO.C,R2*
X12464285Y-17952380D02*
X13035714Y-17952380D01*
X12750000Y-17952380D02*
X12750000Y-16952380D01*
X12845238Y-17095238D01*
X12940476Y-17190476D01*
X13035714Y-17238095D01*
D13*
X15616666Y-17816666D02*
X15850000Y-17483333D01*
X16016666Y-17816666D02*
X16016666Y-17116666D01*
X15750000Y-17116666D01*
X15683333Y-17150000D01*
X15650000Y-17183333D01*
X15616666Y-17250000D01*
X15616666Y-17350000D01*
X15650000Y-17416666D01*
X15683333Y-17450000D01*
X15750000Y-17483333D01*
X16016666Y-17483333D01*
X15350000Y-17183333D02*
X15316666Y-17150000D01*
X15250000Y-17116666D01*
X15083333Y-17116666D01*
X15016666Y-17150000D01*
X14983333Y-17183333D01*
X14950000Y-17250000D01*
X14950000Y-17316666D01*
X14983333Y-17416666D01*
X15383333Y-17816666D01*
X14950000Y-17816666D01*
G04 #@! TO.C,R3*
D12*
X28202380Y-34428571D02*
X28202380Y-33857142D01*
X28202380Y-34142857D02*
X27202380Y-34142857D01*
X27345238Y-34047619D01*
X27440476Y-33952380D01*
X27488095Y-33857142D01*
X27202380Y-35047619D02*
X27202380Y-35142857D01*
X27250000Y-35238095D01*
X27297619Y-35285714D01*
X27392857Y-35333333D01*
X27583333Y-35380952D01*
X27821428Y-35380952D01*
X28011904Y-35333333D01*
X28107142Y-35285714D01*
X28154761Y-35238095D01*
X28202380Y-35142857D01*
X28202380Y-35047619D01*
X28154761Y-34952380D01*
X28107142Y-34904761D01*
X28011904Y-34857142D01*
X27821428Y-34809523D01*
X27583333Y-34809523D01*
X27392857Y-34857142D01*
X27297619Y-34904761D01*
X27250000Y-34952380D01*
X27202380Y-35047619D01*
X27202380Y-36000000D02*
X27202380Y-36095238D01*
X27250000Y-36190476D01*
X27297619Y-36238095D01*
X27392857Y-36285714D01*
X27583333Y-36333333D01*
X27821428Y-36333333D01*
X28011904Y-36285714D01*
X28107142Y-36238095D01*
X28154761Y-36190476D01*
X28202380Y-36095238D01*
X28202380Y-36000000D01*
X28154761Y-35904761D01*
X28107142Y-35857142D01*
X28011904Y-35809523D01*
X27821428Y-35761904D01*
X27583333Y-35761904D01*
X27392857Y-35809523D01*
X27297619Y-35857142D01*
X27250000Y-35904761D01*
X27202380Y-36000000D01*
X28202380Y-36761904D02*
X27202380Y-36761904D01*
X27821428Y-36857142D02*
X28202380Y-37142857D01*
X27535714Y-37142857D02*
X27916666Y-36761904D01*
D13*
X28066666Y-31633333D02*
X27733333Y-31400000D01*
X28066666Y-31233333D02*
X27366666Y-31233333D01*
X27366666Y-31500000D01*
X27400000Y-31566666D01*
X27433333Y-31600000D01*
X27500000Y-31633333D01*
X27600000Y-31633333D01*
X27666666Y-31600000D01*
X27700000Y-31566666D01*
X27733333Y-31500000D01*
X27733333Y-31233333D01*
X27366666Y-31866666D02*
X27366666Y-32300000D01*
X27633333Y-32066666D01*
X27633333Y-32166666D01*
X27666666Y-32233333D01*
X27700000Y-32266666D01*
X27766666Y-32300000D01*
X27933333Y-32300000D01*
X28000000Y-32266666D01*
X28033333Y-32233333D01*
X28066666Y-32166666D01*
X28066666Y-31966666D01*
X28033333Y-31900000D01*
X28000000Y-31866666D01*
G04 #@! TO.C,R5*
D12*
X25952380Y-34428571D02*
X25952380Y-33857142D01*
X25952380Y-34142857D02*
X24952380Y-34142857D01*
X25095238Y-34047619D01*
X25190476Y-33952380D01*
X25238095Y-33857142D01*
X24952380Y-35047619D02*
X24952380Y-35142857D01*
X25000000Y-35238095D01*
X25047619Y-35285714D01*
X25142857Y-35333333D01*
X25333333Y-35380952D01*
X25571428Y-35380952D01*
X25761904Y-35333333D01*
X25857142Y-35285714D01*
X25904761Y-35238095D01*
X25952380Y-35142857D01*
X25952380Y-35047619D01*
X25904761Y-34952380D01*
X25857142Y-34904761D01*
X25761904Y-34857142D01*
X25571428Y-34809523D01*
X25333333Y-34809523D01*
X25142857Y-34857142D01*
X25047619Y-34904761D01*
X25000000Y-34952380D01*
X24952380Y-35047619D01*
X24952380Y-36000000D02*
X24952380Y-36095238D01*
X25000000Y-36190476D01*
X25047619Y-36238095D01*
X25142857Y-36285714D01*
X25333333Y-36333333D01*
X25571428Y-36333333D01*
X25761904Y-36285714D01*
X25857142Y-36238095D01*
X25904761Y-36190476D01*
X25952380Y-36095238D01*
X25952380Y-36000000D01*
X25904761Y-35904761D01*
X25857142Y-35857142D01*
X25761904Y-35809523D01*
X25571428Y-35761904D01*
X25333333Y-35761904D01*
X25142857Y-35809523D01*
X25047619Y-35857142D01*
X25000000Y-35904761D01*
X24952380Y-36000000D01*
X25952380Y-36761904D02*
X24952380Y-36761904D01*
X25571428Y-36857142D02*
X25952380Y-37142857D01*
X25285714Y-37142857D02*
X25666666Y-36761904D01*
D13*
X25816666Y-31633333D02*
X25483333Y-31400000D01*
X25816666Y-31233333D02*
X25116666Y-31233333D01*
X25116666Y-31500000D01*
X25150000Y-31566666D01*
X25183333Y-31600000D01*
X25250000Y-31633333D01*
X25350000Y-31633333D01*
X25416666Y-31600000D01*
X25450000Y-31566666D01*
X25483333Y-31500000D01*
X25483333Y-31233333D01*
X25116666Y-32266666D02*
X25116666Y-31933333D01*
X25450000Y-31900000D01*
X25416666Y-31933333D01*
X25383333Y-32000000D01*
X25383333Y-32166666D01*
X25416666Y-32233333D01*
X25450000Y-32266666D01*
X25516666Y-32300000D01*
X25683333Y-32300000D01*
X25750000Y-32266666D01*
X25783333Y-32233333D01*
X25816666Y-32166666D01*
X25816666Y-32000000D01*
X25783333Y-31933333D01*
X25750000Y-31900000D01*
G04 #@! TO.C,R6*
D12*
X12464285Y-40952380D02*
X13035714Y-40952380D01*
X12750000Y-40952380D02*
X12750000Y-39952380D01*
X12845238Y-40095238D01*
X12940476Y-40190476D01*
X13035714Y-40238095D01*
D13*
X15616666Y-40816666D02*
X15850000Y-40483333D01*
X16016666Y-40816666D02*
X16016666Y-40116666D01*
X15750000Y-40116666D01*
X15683333Y-40150000D01*
X15650000Y-40183333D01*
X15616666Y-40250000D01*
X15616666Y-40350000D01*
X15650000Y-40416666D01*
X15683333Y-40450000D01*
X15750000Y-40483333D01*
X16016666Y-40483333D01*
X15016666Y-40116666D02*
X15150000Y-40116666D01*
X15216666Y-40150000D01*
X15250000Y-40183333D01*
X15316666Y-40283333D01*
X15350000Y-40416666D01*
X15350000Y-40683333D01*
X15316666Y-40750000D01*
X15283333Y-40783333D01*
X15216666Y-40816666D01*
X15083333Y-40816666D01*
X15016666Y-40783333D01*
X14983333Y-40750000D01*
X14950000Y-40683333D01*
X14950000Y-40516666D01*
X14983333Y-40450000D01*
X15016666Y-40416666D01*
X15083333Y-40383333D01*
X15216666Y-40383333D01*
X15283333Y-40416666D01*
X15316666Y-40450000D01*
X15350000Y-40516666D01*
G04 #@! TO.C,U3*
D12*
X18452380Y-25083333D02*
X19261904Y-25083333D01*
X19357142Y-25130952D01*
X19404761Y-25178571D01*
X19452380Y-25273809D01*
X19452380Y-25464285D01*
X19404761Y-25559523D01*
X19357142Y-25607142D01*
X19261904Y-25654761D01*
X18452380Y-25654761D01*
X19357142Y-26702380D02*
X19404761Y-26654761D01*
X19452380Y-26511904D01*
X19452380Y-26416666D01*
X19404761Y-26273809D01*
X19309523Y-26178571D01*
X19214285Y-26130952D01*
X19023809Y-26083333D01*
X18880952Y-26083333D01*
X18690476Y-26130952D01*
X18595238Y-26178571D01*
X18500000Y-26273809D01*
X18452380Y-26416666D01*
X18452380Y-26511904D01*
X18500000Y-26654761D01*
X18547619Y-26702380D01*
X19357142Y-27702380D02*
X19404761Y-27654761D01*
X19452380Y-27511904D01*
X19452380Y-27416666D01*
X19404761Y-27273809D01*
X19309523Y-27178571D01*
X19214285Y-27130952D01*
X19023809Y-27083333D01*
X18880952Y-27083333D01*
X18690476Y-27130952D01*
X18595238Y-27178571D01*
X18500000Y-27273809D01*
X18452380Y-27416666D01*
X18452380Y-27511904D01*
X18500000Y-27654761D01*
X18547619Y-27702380D01*
X18547619Y-28083333D02*
X18500000Y-28130952D01*
X18452380Y-28226190D01*
X18452380Y-28464285D01*
X18500000Y-28559523D01*
X18547619Y-28607142D01*
X18642857Y-28654761D01*
X18738095Y-28654761D01*
X18880952Y-28607142D01*
X19452380Y-28035714D01*
X19452380Y-28654761D01*
X18452380Y-29273809D02*
X18452380Y-29369047D01*
X18500000Y-29464285D01*
X18547619Y-29511904D01*
X18642857Y-29559523D01*
X18833333Y-29607142D01*
X19071428Y-29607142D01*
X19261904Y-29559523D01*
X19357142Y-29511904D01*
X19404761Y-29464285D01*
X19452380Y-29369047D01*
X19452380Y-29273809D01*
X19404761Y-29178571D01*
X19357142Y-29130952D01*
X19261904Y-29083333D01*
X19071428Y-29035714D01*
X18833333Y-29035714D01*
X18642857Y-29083333D01*
X18547619Y-29130952D01*
X18500000Y-29178571D01*
X18452380Y-29273809D01*
X18452380Y-30511904D02*
X18452380Y-30035714D01*
X18928571Y-29988095D01*
X18880952Y-30035714D01*
X18833333Y-30130952D01*
X18833333Y-30369047D01*
X18880952Y-30464285D01*
X18928571Y-30511904D01*
X19023809Y-30559523D01*
X19261904Y-30559523D01*
X19357142Y-30511904D01*
X19404761Y-30464285D01*
X19452380Y-30369047D01*
X19452380Y-30130952D01*
X19404761Y-30035714D01*
X19357142Y-29988095D01*
X18547619Y-30940476D02*
X18500000Y-30988095D01*
X18452380Y-31083333D01*
X18452380Y-31321428D01*
X18500000Y-31416666D01*
X18547619Y-31464285D01*
X18642857Y-31511904D01*
X18738095Y-31511904D01*
X18880952Y-31464285D01*
X19452380Y-30892857D01*
X19452380Y-31511904D01*
X18452380Y-32130952D02*
X18452380Y-32226190D01*
X18500000Y-32321428D01*
X18547619Y-32369047D01*
X18642857Y-32416666D01*
X18833333Y-32464285D01*
X19071428Y-32464285D01*
X19261904Y-32416666D01*
X19357142Y-32369047D01*
X19404761Y-32321428D01*
X19452380Y-32226190D01*
X19452380Y-32130952D01*
X19404761Y-32035714D01*
X19357142Y-31988095D01*
X19261904Y-31940476D01*
X19071428Y-31892857D01*
X18833333Y-31892857D01*
X18642857Y-31940476D01*
X18547619Y-31988095D01*
X18500000Y-32035714D01*
X18452380Y-32130952D01*
X16761904Y-28452380D02*
X16761904Y-29261904D01*
X16714285Y-29357142D01*
X16666666Y-29404761D01*
X16571428Y-29452380D01*
X16380952Y-29452380D01*
X16285714Y-29404761D01*
X16238095Y-29357142D01*
X16190476Y-29261904D01*
X16190476Y-28452380D01*
X15809523Y-28452380D02*
X15190476Y-28452380D01*
X15523809Y-28833333D01*
X15380952Y-28833333D01*
X15285714Y-28880952D01*
X15238095Y-28928571D01*
X15190476Y-29023809D01*
X15190476Y-29261904D01*
X15238095Y-29357142D01*
X15285714Y-29404761D01*
X15380952Y-29452380D01*
X15666666Y-29452380D01*
X15761904Y-29404761D01*
X15809523Y-29357142D01*
G04 #@! TO.C,U4*
X10556380Y-37540190D02*
X9556380Y-37540190D01*
X10270666Y-37873523D01*
X9556380Y-38206857D01*
X10556380Y-38206857D01*
X9604000Y-39206857D02*
X9556380Y-39111619D01*
X9556380Y-38968761D01*
X9604000Y-38825904D01*
X9699238Y-38730666D01*
X9794476Y-38683047D01*
X9984952Y-38635428D01*
X10127809Y-38635428D01*
X10318285Y-38683047D01*
X10413523Y-38730666D01*
X10508761Y-38825904D01*
X10556380Y-38968761D01*
X10556380Y-39064000D01*
X10508761Y-39206857D01*
X10461142Y-39254476D01*
X10127809Y-39254476D01*
X10127809Y-39064000D01*
X9556380Y-39968761D02*
X10270666Y-39968761D01*
X10413523Y-39921142D01*
X10508761Y-39825904D01*
X10556380Y-39683047D01*
X10556380Y-39587809D01*
X9651619Y-40397333D02*
X9604000Y-40444952D01*
X9556380Y-40540190D01*
X9556380Y-40778285D01*
X9604000Y-40873523D01*
X9651619Y-40921142D01*
X9746857Y-40968761D01*
X9842095Y-40968761D01*
X9984952Y-40921142D01*
X10556380Y-40349714D01*
X10556380Y-40968761D01*
X10556380Y-41397333D02*
X9556380Y-41397333D01*
X9556380Y-41635428D01*
X9604000Y-41778285D01*
X9699238Y-41873523D01*
X9794476Y-41921142D01*
X9984952Y-41968761D01*
X10127809Y-41968761D01*
X10318285Y-41921142D01*
X10413523Y-41873523D01*
X10508761Y-41778285D01*
X10556380Y-41635428D01*
X10556380Y-41397333D01*
X9651619Y-42349714D02*
X9604000Y-42397333D01*
X9556380Y-42492571D01*
X9556380Y-42730666D01*
X9604000Y-42825904D01*
X9651619Y-42873523D01*
X9746857Y-42921142D01*
X9842095Y-42921142D01*
X9984952Y-42873523D01*
X10556380Y-42302095D01*
X10556380Y-42921142D01*
X9889714Y-43778285D02*
X10556380Y-43778285D01*
X9508761Y-43540190D02*
X10223047Y-43302095D01*
X10223047Y-43921142D01*
X10556380Y-44825904D02*
X10556380Y-44254476D01*
X10556380Y-44540190D02*
X9556380Y-44540190D01*
X9699238Y-44444952D01*
X9794476Y-44349714D01*
X9842095Y-44254476D01*
X9556380Y-45730666D02*
X9556380Y-45254476D01*
X10032571Y-45206857D01*
X9984952Y-45254476D01*
X9937333Y-45349714D01*
X9937333Y-45587809D01*
X9984952Y-45683047D01*
X10032571Y-45730666D01*
X10127809Y-45778285D01*
X10365904Y-45778285D01*
X10461142Y-45730666D01*
X10508761Y-45683047D01*
X10556380Y-45587809D01*
X10556380Y-45349714D01*
X10508761Y-45254476D01*
X10461142Y-45206857D01*
X9556380Y-46397333D02*
X9556380Y-46492571D01*
X9604000Y-46587809D01*
X9651619Y-46635428D01*
X9746857Y-46683047D01*
X9937333Y-46730666D01*
X10175428Y-46730666D01*
X10365904Y-46683047D01*
X10461142Y-46635428D01*
X10508761Y-46587809D01*
X10556380Y-46492571D01*
X10556380Y-46397333D01*
X10508761Y-46302095D01*
X10461142Y-46254476D01*
X10365904Y-46206857D01*
X10175428Y-46159238D01*
X9937333Y-46159238D01*
X9746857Y-46206857D01*
X9651619Y-46254476D01*
X9604000Y-46302095D01*
X9556380Y-46397333D01*
X10556380Y-47206857D02*
X10556380Y-47397333D01*
X10508761Y-47492571D01*
X10461142Y-47540190D01*
X10318285Y-47635428D01*
X10127809Y-47683047D01*
X9746857Y-47683047D01*
X9651619Y-47635428D01*
X9604000Y-47587809D01*
X9556380Y-47492571D01*
X9556380Y-47302095D01*
X9604000Y-47206857D01*
X9651619Y-47159238D01*
X9746857Y-47111619D01*
X9984952Y-47111619D01*
X10080190Y-47159238D01*
X10127809Y-47206857D01*
X10175428Y-47302095D01*
X10175428Y-47492571D01*
X10127809Y-47587809D01*
X10080190Y-47635428D01*
X9984952Y-47683047D01*
X10508761Y-48064000D02*
X10556380Y-48206857D01*
X10556380Y-48444952D01*
X10508761Y-48540190D01*
X10461142Y-48587809D01*
X10365904Y-48635428D01*
X10270666Y-48635428D01*
X10175428Y-48587809D01*
X10127809Y-48540190D01*
X10080190Y-48444952D01*
X10032571Y-48254476D01*
X9984952Y-48159238D01*
X9937333Y-48111619D01*
X9842095Y-48064000D01*
X9746857Y-48064000D01*
X9651619Y-48111619D01*
X9604000Y-48159238D01*
X9556380Y-48254476D01*
X9556380Y-48492571D01*
X9604000Y-48635428D01*
X10461142Y-49635428D02*
X10508761Y-49587809D01*
X10556380Y-49444952D01*
X10556380Y-49349714D01*
X10508761Y-49206857D01*
X10413523Y-49111619D01*
X10318285Y-49064000D01*
X10127809Y-49016380D01*
X9984952Y-49016380D01*
X9794476Y-49064000D01*
X9699238Y-49111619D01*
X9604000Y-49206857D01*
X9556380Y-49349714D01*
X9556380Y-49444952D01*
X9604000Y-49587809D01*
X9651619Y-49635428D01*
X5452380Y-45488095D02*
X6261904Y-45488095D01*
X6357142Y-45535714D01*
X6404761Y-45583333D01*
X6452380Y-45678571D01*
X6452380Y-45869047D01*
X6404761Y-45964285D01*
X6357142Y-46011904D01*
X6261904Y-46059523D01*
X5452380Y-46059523D01*
X5785714Y-46964285D02*
X6452380Y-46964285D01*
X5404761Y-46726190D02*
X6119047Y-46488095D01*
X6119047Y-47107142D01*
G04 #@! TO.C,U2*
X10556380Y-1540190D02*
X9556380Y-1540190D01*
X10270666Y-1873523D01*
X9556380Y-2206857D01*
X10556380Y-2206857D01*
X9604000Y-3206857D02*
X9556380Y-3111619D01*
X9556380Y-2968761D01*
X9604000Y-2825904D01*
X9699238Y-2730666D01*
X9794476Y-2683047D01*
X9984952Y-2635428D01*
X10127809Y-2635428D01*
X10318285Y-2683047D01*
X10413523Y-2730666D01*
X10508761Y-2825904D01*
X10556380Y-2968761D01*
X10556380Y-3064000D01*
X10508761Y-3206857D01*
X10461142Y-3254476D01*
X10127809Y-3254476D01*
X10127809Y-3064000D01*
X9556380Y-3968761D02*
X10270666Y-3968761D01*
X10413523Y-3921142D01*
X10508761Y-3825904D01*
X10556380Y-3683047D01*
X10556380Y-3587809D01*
X9651619Y-4397333D02*
X9604000Y-4444952D01*
X9556380Y-4540190D01*
X9556380Y-4778285D01*
X9604000Y-4873523D01*
X9651619Y-4921142D01*
X9746857Y-4968761D01*
X9842095Y-4968761D01*
X9984952Y-4921142D01*
X10556380Y-4349714D01*
X10556380Y-4968761D01*
X10556380Y-5397333D02*
X9556380Y-5397333D01*
X9556380Y-5635428D01*
X9604000Y-5778285D01*
X9699238Y-5873523D01*
X9794476Y-5921142D01*
X9984952Y-5968761D01*
X10127809Y-5968761D01*
X10318285Y-5921142D01*
X10413523Y-5873523D01*
X10508761Y-5778285D01*
X10556380Y-5635428D01*
X10556380Y-5397333D01*
X9651619Y-6349714D02*
X9604000Y-6397333D01*
X9556380Y-6492571D01*
X9556380Y-6730666D01*
X9604000Y-6825904D01*
X9651619Y-6873523D01*
X9746857Y-6921142D01*
X9842095Y-6921142D01*
X9984952Y-6873523D01*
X10556380Y-6302095D01*
X10556380Y-6921142D01*
X9889714Y-7778285D02*
X10556380Y-7778285D01*
X9508761Y-7540190D02*
X10223047Y-7302095D01*
X10223047Y-7921142D01*
X10556380Y-8825904D02*
X10556380Y-8254476D01*
X10556380Y-8540190D02*
X9556380Y-8540190D01*
X9699238Y-8444952D01*
X9794476Y-8349714D01*
X9842095Y-8254476D01*
X9556380Y-9730666D02*
X9556380Y-9254476D01*
X10032571Y-9206857D01*
X9984952Y-9254476D01*
X9937333Y-9349714D01*
X9937333Y-9587809D01*
X9984952Y-9683047D01*
X10032571Y-9730666D01*
X10127809Y-9778285D01*
X10365904Y-9778285D01*
X10461142Y-9730666D01*
X10508761Y-9683047D01*
X10556380Y-9587809D01*
X10556380Y-9349714D01*
X10508761Y-9254476D01*
X10461142Y-9206857D01*
X9556380Y-10397333D02*
X9556380Y-10492571D01*
X9604000Y-10587809D01*
X9651619Y-10635428D01*
X9746857Y-10683047D01*
X9937333Y-10730666D01*
X10175428Y-10730666D01*
X10365904Y-10683047D01*
X10461142Y-10635428D01*
X10508761Y-10587809D01*
X10556380Y-10492571D01*
X10556380Y-10397333D01*
X10508761Y-10302095D01*
X10461142Y-10254476D01*
X10365904Y-10206857D01*
X10175428Y-10159238D01*
X9937333Y-10159238D01*
X9746857Y-10206857D01*
X9651619Y-10254476D01*
X9604000Y-10302095D01*
X9556380Y-10397333D01*
X10556380Y-11206857D02*
X10556380Y-11397333D01*
X10508761Y-11492571D01*
X10461142Y-11540190D01*
X10318285Y-11635428D01*
X10127809Y-11683047D01*
X9746857Y-11683047D01*
X9651619Y-11635428D01*
X9604000Y-11587809D01*
X9556380Y-11492571D01*
X9556380Y-11302095D01*
X9604000Y-11206857D01*
X9651619Y-11159238D01*
X9746857Y-11111619D01*
X9984952Y-11111619D01*
X10080190Y-11159238D01*
X10127809Y-11206857D01*
X10175428Y-11302095D01*
X10175428Y-11492571D01*
X10127809Y-11587809D01*
X10080190Y-11635428D01*
X9984952Y-11683047D01*
X10508761Y-12064000D02*
X10556380Y-12206857D01*
X10556380Y-12444952D01*
X10508761Y-12540190D01*
X10461142Y-12587809D01*
X10365904Y-12635428D01*
X10270666Y-12635428D01*
X10175428Y-12587809D01*
X10127809Y-12540190D01*
X10080190Y-12444952D01*
X10032571Y-12254476D01*
X9984952Y-12159238D01*
X9937333Y-12111619D01*
X9842095Y-12064000D01*
X9746857Y-12064000D01*
X9651619Y-12111619D01*
X9604000Y-12159238D01*
X9556380Y-12254476D01*
X9556380Y-12492571D01*
X9604000Y-12635428D01*
X10461142Y-13635428D02*
X10508761Y-13587809D01*
X10556380Y-13444952D01*
X10556380Y-13349714D01*
X10508761Y-13206857D01*
X10413523Y-13111619D01*
X10318285Y-13064000D01*
X10127809Y-13016380D01*
X9984952Y-13016380D01*
X9794476Y-13064000D01*
X9699238Y-13111619D01*
X9604000Y-13206857D01*
X9556380Y-13349714D01*
X9556380Y-13444952D01*
X9604000Y-13587809D01*
X9651619Y-13635428D01*
X5452380Y-9488095D02*
X6261904Y-9488095D01*
X6357142Y-9535714D01*
X6404761Y-9583333D01*
X6452380Y-9678571D01*
X6452380Y-9869047D01*
X6404761Y-9964285D01*
X6357142Y-10011904D01*
X6261904Y-10059523D01*
X5452380Y-10059523D01*
X5547619Y-10488095D02*
X5500000Y-10535714D01*
X5452380Y-10630952D01*
X5452380Y-10869047D01*
X5500000Y-10964285D01*
X5547619Y-11011904D01*
X5642857Y-11059523D01*
X5738095Y-11059523D01*
X5880952Y-11011904D01*
X6452380Y-10440476D01*
X6452380Y-11059523D01*
G04 #@! TD*
M02*
