G04 #@! TF.GenerationSoftware,KiCad,Pcbnew,(5.0.0)*
G04 #@! TF.CreationDate,2019-05-03T15:42:08+02:00*
G04 #@! TF.ProjectId,Gate_drive,476174655F64726976652E6B69636164,rev?*
G04 #@! TF.SameCoordinates,PXa21fe80PY3938700*
G04 #@! TF.FileFunction,Copper,L1,Top,Signal*
G04 #@! TF.FilePolarity,Positive*
%FSLAX46Y46*%
G04 Gerber Fmt 4.6, Leading zero omitted, Abs format (unit mm)*
G04 Created by KiCad (PCBNEW (5.0.0)) date 05/03/19 15:42:08*
%MOMM*%
%LPD*%
G01*
G04 APERTURE LIST*
G04 #@! TA.AperFunction,NonConductor*
%ADD10C,0.150000*%
G04 #@! TD*
G04 #@! TA.AperFunction,SMDPad,CuDef*
%ADD11R,0.900000X1.700000*%
G04 #@! TD*
G04 #@! TA.AperFunction,ComponentPad*
%ADD12R,2.600000X2.000000*%
G04 #@! TD*
G04 #@! TA.AperFunction,ComponentPad*
%ADD13O,2.600000X2.000000*%
G04 #@! TD*
G04 #@! TA.AperFunction,SMDPad,CuDef*
%ADD14R,0.800000X0.900000*%
G04 #@! TD*
G04 #@! TA.AperFunction,SMDPad,CuDef*
%ADD15R,1.600000X1.000000*%
G04 #@! TD*
G04 #@! TA.AperFunction,ComponentPad*
%ADD16C,2.999740*%
G04 #@! TD*
G04 #@! TA.AperFunction,ComponentPad*
%ADD17C,3.500120*%
G04 #@! TD*
G04 #@! TA.AperFunction,SMDPad,CuDef*
%ADD18C,0.850000*%
G04 #@! TD*
G04 #@! TA.AperFunction,Conductor*
%ADD19C,0.100000*%
G04 #@! TD*
G04 #@! TA.AperFunction,SMDPad,CuDef*
%ADD20R,1.000000X1.500000*%
G04 #@! TD*
G04 #@! TA.AperFunction,SMDPad,CuDef*
%ADD21R,1.000000X1.800000*%
G04 #@! TD*
G04 #@! TA.AperFunction,SMDPad,CuDef*
%ADD22R,2.200000X1.840000*%
G04 #@! TD*
G04 #@! TA.AperFunction,SMDPad,CuDef*
%ADD23C,1.000000*%
G04 #@! TD*
G04 #@! TA.AperFunction,ComponentPad*
%ADD24C,6.000000*%
G04 #@! TD*
G04 #@! TA.AperFunction,ComponentPad*
%ADD25O,3.000000X1.600000*%
G04 #@! TD*
G04 #@! TA.AperFunction,ViaPad*
%ADD26C,1.400000*%
G04 #@! TD*
G04 #@! TA.AperFunction,Conductor*
%ADD27C,1.000000*%
G04 #@! TD*
G04 #@! TA.AperFunction,Conductor*
%ADD28C,0.600000*%
G04 #@! TD*
G04 #@! TA.AperFunction,Conductor*
%ADD29C,0.300000*%
G04 #@! TD*
G04 #@! TA.AperFunction,Conductor*
%ADD30C,0.256000*%
G04 #@! TD*
G04 #@! TA.AperFunction,NonConductor*
%ADD31C,0.256000*%
G04 #@! TD*
G04 APERTURE END LIST*
D10*
X17933333Y-19397619D02*
X18300000Y-20497619D01*
X18666666Y-19397619D01*
X18980952Y-20445238D02*
X19138095Y-20497619D01*
X19400000Y-20497619D01*
X19504761Y-20445238D01*
X19557142Y-20392857D01*
X19609523Y-20288095D01*
X19609523Y-20183333D01*
X19557142Y-20078571D01*
X19504761Y-20026190D01*
X19400000Y-19973809D01*
X19190476Y-19921428D01*
X19085714Y-19869047D01*
X19033333Y-19816666D01*
X18980952Y-19711904D01*
X18980952Y-19607142D01*
X19033333Y-19502380D01*
X19085714Y-19450000D01*
X19190476Y-19397619D01*
X19452380Y-19397619D01*
X19609523Y-19450000D01*
X20028571Y-20445238D02*
X20185714Y-20497619D01*
X20447619Y-20497619D01*
X20552380Y-20445238D01*
X20604761Y-20392857D01*
X20657142Y-20288095D01*
X20657142Y-20183333D01*
X20604761Y-20078571D01*
X20552380Y-20026190D01*
X20447619Y-19973809D01*
X20238095Y-19921428D01*
X20133333Y-19869047D01*
X20080952Y-19816666D01*
X20028571Y-19711904D01*
X20028571Y-19607142D01*
X20080952Y-19502380D01*
X20133333Y-19450000D01*
X20238095Y-19397619D01*
X20500000Y-19397619D01*
X20657142Y-19450000D01*
X21128571Y-20392857D02*
X21180952Y-20445238D01*
X21128571Y-20497619D01*
X21076190Y-20445238D01*
X21128571Y-20392857D01*
X21128571Y-20497619D01*
X21128571Y-19816666D02*
X21180952Y-19869047D01*
X21128571Y-19921428D01*
X21076190Y-19869047D01*
X21128571Y-19816666D01*
X21128571Y-19921428D01*
X22438095Y-20183333D02*
X22961904Y-20183333D01*
X22333333Y-20497619D02*
X22700000Y-19397619D01*
X23066666Y-20497619D01*
X17854761Y-40397619D02*
X18221428Y-41497619D01*
X18588095Y-40397619D01*
X18902380Y-41445238D02*
X19059523Y-41497619D01*
X19321428Y-41497619D01*
X19426190Y-41445238D01*
X19478571Y-41392857D01*
X19530952Y-41288095D01*
X19530952Y-41183333D01*
X19478571Y-41078571D01*
X19426190Y-41026190D01*
X19321428Y-40973809D01*
X19111904Y-40921428D01*
X19007142Y-40869047D01*
X18954761Y-40816666D01*
X18902380Y-40711904D01*
X18902380Y-40607142D01*
X18954761Y-40502380D01*
X19007142Y-40450000D01*
X19111904Y-40397619D01*
X19373809Y-40397619D01*
X19530952Y-40450000D01*
X19950000Y-41445238D02*
X20107142Y-41497619D01*
X20369047Y-41497619D01*
X20473809Y-41445238D01*
X20526190Y-41392857D01*
X20578571Y-41288095D01*
X20578571Y-41183333D01*
X20526190Y-41078571D01*
X20473809Y-41026190D01*
X20369047Y-40973809D01*
X20159523Y-40921428D01*
X20054761Y-40869047D01*
X20002380Y-40816666D01*
X19950000Y-40711904D01*
X19950000Y-40607142D01*
X20002380Y-40502380D01*
X20054761Y-40450000D01*
X20159523Y-40397619D01*
X20421428Y-40397619D01*
X20578571Y-40450000D01*
X21050000Y-41392857D02*
X21102380Y-41445238D01*
X21050000Y-41497619D01*
X20997619Y-41445238D01*
X21050000Y-41392857D01*
X21050000Y-41497619D01*
X21050000Y-40816666D02*
X21102380Y-40869047D01*
X21050000Y-40921428D01*
X20997619Y-40869047D01*
X21050000Y-40816666D01*
X21050000Y-40921428D01*
X22778571Y-40921428D02*
X22935714Y-40973809D01*
X22988095Y-41026190D01*
X23040476Y-41130952D01*
X23040476Y-41288095D01*
X22988095Y-41392857D01*
X22935714Y-41445238D01*
X22830952Y-41497619D01*
X22411904Y-41497619D01*
X22411904Y-40397619D01*
X22778571Y-40397619D01*
X22883333Y-40450000D01*
X22935714Y-40502380D01*
X22988095Y-40607142D01*
X22988095Y-40711904D01*
X22935714Y-40816666D01*
X22883333Y-40869047D01*
X22778571Y-40921428D01*
X22411904Y-40921428D01*
X3578571Y-20919047D02*
X3578571Y-20080952D01*
X3997619Y-20500000D02*
X3159523Y-20500000D01*
X3578571Y-12419047D02*
X3578571Y-11580952D01*
X3578571Y-48419047D02*
X3578571Y-47580952D01*
X3080952Y-56578571D02*
X3919047Y-56578571D01*
X3500000Y-56997619D02*
X3500000Y-56159523D01*
X7809523Y-31047619D02*
X7857142Y-31000000D01*
X7952380Y-30952380D01*
X8190476Y-30952380D01*
X8285714Y-31000000D01*
X8333333Y-31047619D01*
X8380952Y-31142857D01*
X8380952Y-31238095D01*
X8333333Y-31380952D01*
X7761904Y-31952380D01*
X8380952Y-31952380D01*
X9238095Y-31285714D02*
X9238095Y-31952380D01*
X9000000Y-30904761D02*
X8761904Y-31619047D01*
X9380952Y-31619047D01*
X9619047Y-30952380D02*
X9952380Y-31952380D01*
X10285714Y-30952380D01*
X8238095Y-34000000D02*
X8142857Y-33952380D01*
X8000000Y-33952380D01*
X7857142Y-34000000D01*
X7761904Y-34095238D01*
X7714285Y-34190476D01*
X7666666Y-34380952D01*
X7666666Y-34523809D01*
X7714285Y-34714285D01*
X7761904Y-34809523D01*
X7857142Y-34904761D01*
X8000000Y-34952380D01*
X8095238Y-34952380D01*
X8238095Y-34904761D01*
X8285714Y-34857142D01*
X8285714Y-34523809D01*
X8095238Y-34523809D01*
X8714285Y-34952380D02*
X8714285Y-33952380D01*
X9285714Y-34952380D01*
X9285714Y-33952380D01*
X9761904Y-34952380D02*
X9761904Y-33952380D01*
X10000000Y-33952380D01*
X10142857Y-34000000D01*
X10238095Y-34095238D01*
X10285714Y-34190476D01*
X10333333Y-34380952D01*
X10333333Y-34523809D01*
X10285714Y-34714285D01*
X10238095Y-34809523D01*
X10142857Y-34904761D01*
X10000000Y-34952380D01*
X9761904Y-34952380D01*
X6335595Y-21603571D02*
X6668928Y-21603571D01*
X6811785Y-22127380D02*
X6335595Y-22127380D01*
X6335595Y-21127380D01*
X6811785Y-21127380D01*
X7240357Y-22127380D02*
X7240357Y-21127380D01*
X7811785Y-22127380D01*
X7811785Y-21127380D01*
X6335595Y-23777380D02*
X6335595Y-22777380D01*
X6716547Y-22777380D01*
X6811785Y-22825000D01*
X6859404Y-22872619D01*
X6907023Y-22967857D01*
X6907023Y-23110714D01*
X6859404Y-23205952D01*
X6811785Y-23253571D01*
X6716547Y-23301190D01*
X6335595Y-23301190D01*
X7240357Y-22777380D02*
X7478452Y-23777380D01*
X7668928Y-23063095D01*
X7859404Y-23777380D01*
X8097500Y-22777380D01*
X8478452Y-23777380D02*
X8478452Y-22777380D01*
X8811785Y-23491666D01*
X9145119Y-22777380D01*
X9145119Y-23777380D01*
X24450000Y-40226190D02*
X24397619Y-40330952D01*
X24397619Y-40488095D01*
X24450000Y-40645238D01*
X24554761Y-40750000D01*
X24659523Y-40802380D01*
X24869047Y-40854761D01*
X25026190Y-40854761D01*
X25235714Y-40802380D01*
X25340476Y-40750000D01*
X25445238Y-40645238D01*
X25497619Y-40488095D01*
X25497619Y-40383333D01*
X25445238Y-40226190D01*
X25392857Y-40173809D01*
X25026190Y-40173809D01*
X25026190Y-40383333D01*
X25497619Y-39230952D02*
X24921428Y-39230952D01*
X24816666Y-39283333D01*
X24764285Y-39388095D01*
X24764285Y-39597619D01*
X24816666Y-39702380D01*
X25445238Y-39230952D02*
X25497619Y-39335714D01*
X25497619Y-39597619D01*
X25445238Y-39702380D01*
X25340476Y-39754761D01*
X25235714Y-39754761D01*
X25130952Y-39702380D01*
X25078571Y-39597619D01*
X25078571Y-39335714D01*
X25026190Y-39230952D01*
X24764285Y-38864285D02*
X24764285Y-38445238D01*
X24397619Y-38707142D02*
X25340476Y-38707142D01*
X25445238Y-38654761D01*
X25497619Y-38550000D01*
X25497619Y-38445238D01*
X25445238Y-37659523D02*
X25497619Y-37764285D01*
X25497619Y-37973809D01*
X25445238Y-38078571D01*
X25340476Y-38130952D01*
X24921428Y-38130952D01*
X24816666Y-38078571D01*
X24764285Y-37973809D01*
X24764285Y-37764285D01*
X24816666Y-37659523D01*
X24921428Y-37607142D01*
X25026190Y-37607142D01*
X25130952Y-38130952D01*
X25392857Y-37135714D02*
X25445238Y-37083333D01*
X25497619Y-37135714D01*
X25445238Y-37188095D01*
X25392857Y-37135714D01*
X25497619Y-37135714D01*
X24816666Y-37135714D02*
X24869047Y-37083333D01*
X24921428Y-37135714D01*
X24869047Y-37188095D01*
X24816666Y-37135714D01*
X24921428Y-37135714D01*
X24921428Y-35407142D02*
X24973809Y-35250000D01*
X25026190Y-35197619D01*
X25130952Y-35145238D01*
X25288095Y-35145238D01*
X25392857Y-35197619D01*
X25445238Y-35250000D01*
X25497619Y-35354761D01*
X25497619Y-35773809D01*
X24397619Y-35773809D01*
X24397619Y-35407142D01*
X24450000Y-35302380D01*
X24502380Y-35250000D01*
X24607142Y-35197619D01*
X24711904Y-35197619D01*
X24816666Y-35250000D01*
X24869047Y-35302380D01*
X24921428Y-35407142D01*
X24921428Y-35773809D01*
X24450000Y-17647619D02*
X24397619Y-17752380D01*
X24397619Y-17909523D01*
X24450000Y-18066666D01*
X24554761Y-18171428D01*
X24659523Y-18223809D01*
X24869047Y-18276190D01*
X25026190Y-18276190D01*
X25235714Y-18223809D01*
X25340476Y-18171428D01*
X25445238Y-18066666D01*
X25497619Y-17909523D01*
X25497619Y-17804761D01*
X25445238Y-17647619D01*
X25392857Y-17595238D01*
X25026190Y-17595238D01*
X25026190Y-17804761D01*
X25497619Y-16652380D02*
X24921428Y-16652380D01*
X24816666Y-16704761D01*
X24764285Y-16809523D01*
X24764285Y-17019047D01*
X24816666Y-17123809D01*
X25445238Y-16652380D02*
X25497619Y-16757142D01*
X25497619Y-17019047D01*
X25445238Y-17123809D01*
X25340476Y-17176190D01*
X25235714Y-17176190D01*
X25130952Y-17123809D01*
X25078571Y-17019047D01*
X25078571Y-16757142D01*
X25026190Y-16652380D01*
X24764285Y-16285714D02*
X24764285Y-15866666D01*
X24397619Y-16128571D02*
X25340476Y-16128571D01*
X25445238Y-16076190D01*
X25497619Y-15971428D01*
X25497619Y-15866666D01*
X25445238Y-15080952D02*
X25497619Y-15185714D01*
X25497619Y-15395238D01*
X25445238Y-15500000D01*
X25340476Y-15552380D01*
X24921428Y-15552380D01*
X24816666Y-15500000D01*
X24764285Y-15395238D01*
X24764285Y-15185714D01*
X24816666Y-15080952D01*
X24921428Y-15028571D01*
X25026190Y-15028571D01*
X25130952Y-15552380D01*
X25392857Y-14557142D02*
X25445238Y-14504761D01*
X25497619Y-14557142D01*
X25445238Y-14609523D01*
X25392857Y-14557142D01*
X25497619Y-14557142D01*
X24816666Y-14557142D02*
X24869047Y-14504761D01*
X24921428Y-14557142D01*
X24869047Y-14609523D01*
X24816666Y-14557142D01*
X24921428Y-14557142D01*
X25183333Y-13247619D02*
X25183333Y-12723809D01*
X25497619Y-13352380D02*
X24397619Y-12985714D01*
X25497619Y-12619047D01*
D11*
G04 #@! TO.P,R1,1*
G04 #@! TO.N,Net-(C8-Pad1)*
X21450000Y-27500000D03*
G04 #@! TO.P,R1,2*
G04 #@! TO.N,/PWM*
X18550000Y-27500000D03*
G04 #@! TD*
D12*
G04 #@! TO.P,J1,1*
G04 #@! TO.N,/ENABLE*
X3500000Y-25000000D03*
D13*
G04 #@! TO.P,J1,2*
G04 #@! TO.N,/PWM*
X3500000Y-27540000D03*
G04 #@! TO.P,J1,3*
G04 #@! TO.N,+24V*
X3500000Y-30080000D03*
G04 #@! TO.P,J1,4*
G04 #@! TO.N,GND*
X3500000Y-32620000D03*
G04 #@! TD*
D11*
G04 #@! TO.P,R4,1*
G04 #@! TO.N,Net-(Q3-Pad1)*
X21450000Y-25000000D03*
G04 #@! TO.P,R4,2*
G04 #@! TO.N,/ENABLE*
X18550000Y-25000000D03*
G04 #@! TD*
D14*
G04 #@! TO.P,Q3,1*
G04 #@! TO.N,Net-(Q3-Pad1)*
X24700000Y-31500000D03*
G04 #@! TO.P,Q3,2*
G04 #@! TO.N,GND*
X22800000Y-31500000D03*
G04 #@! TO.P,Q3,3*
G04 #@! TO.N,Net-(Q3-Pad3)*
X23750000Y-33500000D03*
G04 #@! TD*
D15*
G04 #@! TO.P,C1,1*
G04 #@! TO.N,+24V*
X6500000Y-3500000D03*
G04 #@! TO.P,C1,2*
G04 #@! TO.N,GND*
X6500000Y-6500000D03*
G04 #@! TD*
G04 #@! TO.P,C2,1*
G04 #@! TO.N,+24V*
X12000000Y-30000000D03*
G04 #@! TO.P,C2,2*
G04 #@! TO.N,GND*
X12000000Y-33000000D03*
G04 #@! TD*
G04 #@! TO.P,C3,1*
G04 #@! TO.N,+15V*
X19500000Y-30000000D03*
G04 #@! TO.P,C3,2*
G04 #@! TO.N,GND*
X19500000Y-33000000D03*
G04 #@! TD*
G04 #@! TO.P,C4,1*
G04 #@! TO.N,+24V*
X6500000Y-30000000D03*
G04 #@! TO.P,C4,2*
G04 #@! TO.N,GND*
X6500000Y-33000000D03*
G04 #@! TD*
G04 #@! TO.P,C5,1*
G04 #@! TO.N,/+15V:A*
X6500000Y-17700000D03*
G04 #@! TO.P,C5,2*
G04 #@! TO.N,/-8.7V:A*
X6500000Y-14700000D03*
G04 #@! TD*
G04 #@! TO.P,C13,1*
G04 #@! TO.N,/+15V:B*
X6500000Y-53700000D03*
G04 #@! TO.P,C13,2*
G04 #@! TO.N,/-8.7V:B*
X6500000Y-50700000D03*
G04 #@! TD*
G04 #@! TO.P,C18,1*
G04 #@! TO.N,+24V*
X6500000Y-39000000D03*
G04 #@! TO.P,C18,2*
G04 #@! TO.N,GND*
X6500000Y-42000000D03*
G04 #@! TD*
D16*
G04 #@! TO.P,J2,1*
G04 #@! TO.N,/Gate:A*
X28000000Y-17405000D03*
X28000000Y-13595000D03*
G04 #@! TD*
D17*
G04 #@! TO.P,J3,1*
G04 #@! TO.N,/VSS:A*
X28000000Y-21500000D03*
G04 #@! TD*
D16*
G04 #@! TO.P,J4,1*
G04 #@! TO.N,/Gate:B*
X28000000Y-39905000D03*
X28000000Y-36095000D03*
G04 #@! TD*
D17*
G04 #@! TO.P,J5,1*
G04 #@! TO.N,/VSS:B*
X28000000Y-44000000D03*
G04 #@! TD*
D18*
G04 #@! TO.P,U1,2*
G04 #@! TO.N,GND*
X15750000Y-34167000D03*
D19*
G04 #@! TD*
G04 #@! TO.N,GND*
G04 #@! TO.C,U1*
G36*
X16850000Y-33742000D02*
X16250000Y-34592000D01*
X15250000Y-34592000D01*
X14650000Y-33742000D01*
X16850000Y-33742000D01*
X16850000Y-33742000D01*
G37*
D20*
G04 #@! TO.P,U1,1*
G04 #@! TO.N,+15V*
X17250000Y-30020000D03*
D21*
G04 #@! TO.P,U1,2*
G04 #@! TO.N,GND*
X15750000Y-30166500D03*
D20*
G04 #@! TO.P,U1,3*
G04 #@! TO.N,+24V*
X14250000Y-30020000D03*
D22*
G04 #@! TO.P,U1,2*
G04 #@! TO.N,GND*
X15750000Y-32833500D03*
D23*
X15750000Y-31423800D03*
D19*
G04 #@! TD*
G04 #@! TO.N,GND*
G04 #@! TO.C,U1*
G36*
X14650000Y-31923800D02*
X15350000Y-30923800D01*
X16150000Y-30923800D01*
X16850000Y-31923800D01*
X14650000Y-31923800D01*
X14650000Y-31923800D01*
G37*
D24*
G04 #@! TO.P,REF\002A\002A,1*
G04 #@! TO.N,N/C*
X15000000Y-6000000D03*
G04 #@! TD*
G04 #@! TO.P,REF\002A\002A,1*
G04 #@! TO.N,N/C*
X15000000Y-52000000D03*
G04 #@! TD*
D25*
G04 #@! TO.P,U4,1*
G04 #@! TO.N,+24V*
X3500000Y-39500000D03*
G04 #@! TO.P,U4,2*
G04 #@! TO.N,GND*
X3500000Y-42040000D03*
G04 #@! TO.P,U4,5*
G04 #@! TO.N,/-8.7V:B*
X3500000Y-49660000D03*
G04 #@! TO.P,U4,6*
G04 #@! TO.N,/VSS:B*
X3500000Y-52200000D03*
G04 #@! TO.P,U4,7*
G04 #@! TO.N,/+15V:B*
X3500000Y-54740000D03*
G04 #@! TD*
G04 #@! TO.P,U2,1*
G04 #@! TO.N,+24V*
X3500000Y-3500000D03*
G04 #@! TO.P,U2,2*
G04 #@! TO.N,GND*
X3500000Y-6040000D03*
G04 #@! TO.P,U2,5*
G04 #@! TO.N,/-8.7V:A*
X3500000Y-13660000D03*
G04 #@! TO.P,U2,6*
G04 #@! TO.N,/VSS:A*
X3500000Y-16200000D03*
G04 #@! TO.P,U2,7*
G04 #@! TO.N,/+15V:A*
X3500000Y-18740000D03*
G04 #@! TD*
D26*
G04 #@! TO.N,GND*
X25500000Y-28500000D03*
X12500000Y-12500000D03*
X3500000Y-35750000D03*
G04 #@! TO.N,+15V*
X25500000Y-26000000D03*
G04 #@! TO.N,/+15V:A*
X12500000Y-22500000D03*
G04 #@! TO.N,/-8.7V:A*
X12500000Y-14750000D03*
G04 #@! TO.N,/VSS:A*
X12500000Y-19500000D03*
G04 #@! TO.N,Net-(C8-Pad1)*
X25000000Y-24250000D03*
G04 #@! TO.N,/+15V:B*
X12500000Y-45500000D03*
G04 #@! TO.N,/-8.7V:B*
X12500000Y-35500000D03*
G04 #@! TO.N,/VSS:B*
X12500000Y-42500000D03*
G04 #@! TO.N,Net-(Q3-Pad3)*
X28500000Y-28500000D03*
G04 #@! TD*
D27*
G04 #@! TO.N,+24V*
X3500000Y-3500000D02*
X2500000Y-3500000D01*
X3000000Y-3500000D02*
X1000000Y-5500000D01*
X1000000Y-29160000D02*
X1000000Y-5500000D01*
X1920000Y-30080000D02*
X1000000Y-29160000D01*
X3500000Y-30080000D02*
X1920000Y-30080000D01*
X1000000Y-38000000D02*
X2500000Y-39500000D01*
X1000000Y-31000000D02*
X1000000Y-38000000D01*
X1920000Y-30080000D02*
X1000000Y-31000000D01*
X2500000Y-39500000D02*
X3000000Y-39500000D01*
X3000000Y-39500000D02*
X5500000Y-39500000D01*
X5500000Y-39500000D02*
X6000000Y-39000000D01*
X3500000Y-30080000D02*
X6420000Y-30080000D01*
X12000000Y-30000000D02*
X14230000Y-30000000D01*
D28*
X14230000Y-30000000D02*
X14250000Y-30020000D01*
D27*
X6500000Y-30000000D02*
X12000000Y-30000000D01*
D28*
X6420000Y-30080000D02*
X6500000Y-30000000D01*
D27*
X3500000Y-3500000D02*
X6000000Y-3500000D01*
D28*
G04 #@! TO.N,GND*
X22800000Y-31500000D02*
X22800000Y-31200000D01*
X22800000Y-31200000D02*
X23000000Y-31000000D01*
X19500000Y-33000000D02*
X21000000Y-33000000D01*
X21000000Y-33000000D02*
X23000000Y-31000000D01*
X23000000Y-31000000D02*
X25500000Y-28500000D01*
D29*
X15750000Y-31423800D02*
X15750000Y-32833500D01*
X15750000Y-32833500D02*
X15750000Y-30166500D01*
X15750000Y-34167000D02*
X15750000Y-32833500D01*
D27*
X6500000Y-42000000D02*
X3540000Y-42000000D01*
X3540000Y-42000000D02*
X3500000Y-42040000D01*
X6500000Y-33000000D02*
X6500000Y-35750000D01*
X8500000Y-40000000D02*
X6500000Y-42000000D01*
X8500000Y-37750000D02*
X8500000Y-40000000D01*
X6500000Y-35750000D02*
X8500000Y-37750000D01*
X12500000Y-12500000D02*
X6500000Y-6500000D01*
X3500000Y-32620000D02*
X3500000Y-35750000D01*
D28*
X19550000Y-32950000D02*
X19500000Y-33000000D01*
X19500000Y-33000000D02*
X19500000Y-32950000D01*
D27*
X15750000Y-32833500D02*
X19333500Y-32833500D01*
D28*
X19333500Y-32833500D02*
X19500000Y-33000000D01*
D27*
X12000000Y-33000000D02*
X15583500Y-33000000D01*
D28*
X15583500Y-33000000D02*
X15750000Y-32833500D01*
D27*
X6500000Y-33000000D02*
X12000000Y-33000000D01*
X3500000Y-32620000D02*
X6120000Y-32620000D01*
X6120000Y-32620000D02*
X6500000Y-33000000D01*
X3500000Y-6040000D02*
X5540000Y-6040000D01*
X5540000Y-6040000D02*
X6000000Y-6500000D01*
D28*
G04 #@! TO.N,+15V*
X21500000Y-30000000D02*
X25500000Y-26000000D01*
X21500000Y-30000000D02*
X19500000Y-30000000D01*
X19500000Y-30000000D02*
X19750000Y-30000000D01*
X19500000Y-30000000D02*
X20000000Y-30000000D01*
X17250000Y-30020000D02*
X19480000Y-30020000D01*
X19480000Y-30020000D02*
X19500000Y-30000000D01*
D27*
G04 #@! TO.N,/+15V:A*
X6500000Y-17700000D02*
X7700000Y-17700000D01*
X7700000Y-17700000D02*
X12500000Y-22500000D01*
X3500000Y-18740000D02*
X5460000Y-18740000D01*
X5460000Y-18740000D02*
X6500000Y-17700000D01*
G04 #@! TO.N,/-8.7V:A*
X6500000Y-14700000D02*
X10300000Y-14700000D01*
X12450000Y-14700000D02*
X10300000Y-14700000D01*
X12500000Y-14750000D02*
X12450000Y-14700000D01*
X3500000Y-13660000D02*
X5460000Y-13660000D01*
X5460000Y-13660000D02*
X6500000Y-14700000D01*
G04 #@! TO.N,/VSS:A*
X28000000Y-21500000D02*
X14500000Y-21500000D01*
X14500000Y-21500000D02*
X12500000Y-19500000D01*
X3500000Y-16200000D02*
X9200000Y-16200000D01*
X9200000Y-16200000D02*
X12500000Y-19500000D01*
D28*
G04 #@! TO.N,Net-(C8-Pad1)*
X21450000Y-27500000D02*
X21500000Y-27500000D01*
X21500000Y-27500000D02*
X24750000Y-24250000D01*
X24750000Y-24250000D02*
X25000000Y-24250000D01*
D27*
G04 #@! TO.N,/+15V:B*
X6000000Y-53700000D02*
X8800000Y-53700000D01*
X10500000Y-47500000D02*
X12500000Y-45500000D01*
X10500000Y-52000000D02*
X10500000Y-47500000D01*
X8800000Y-53700000D02*
X10500000Y-52000000D01*
X3000000Y-54740000D02*
X4960000Y-54740000D01*
X4960000Y-54740000D02*
X6000000Y-53700000D01*
G04 #@! TO.N,/-8.7V:B*
X6000000Y-50700000D02*
X6800000Y-50700000D01*
X6800000Y-50700000D02*
X7500000Y-50000000D01*
X12500000Y-40000000D02*
X12500000Y-35500000D01*
X7500000Y-45000000D02*
X12500000Y-40000000D01*
X7500000Y-50000000D02*
X7500000Y-45000000D01*
X3000000Y-49660000D02*
X4960000Y-49660000D01*
X4960000Y-49660000D02*
X6000000Y-50700000D01*
G04 #@! TO.N,/VSS:B*
X12500000Y-42500000D02*
X26500000Y-42500000D01*
X26500000Y-42500000D02*
X28000000Y-44000000D01*
X3000000Y-52200000D02*
X7800000Y-52200000D01*
X9000000Y-46000000D02*
X12500000Y-42500000D01*
X9000000Y-51000000D02*
X9000000Y-46000000D01*
X7800000Y-52200000D02*
X9000000Y-51000000D01*
G04 #@! TO.N,/PWM*
X18550000Y-27500000D02*
X3540000Y-27500000D01*
D28*
X3540000Y-27500000D02*
X3500000Y-27540000D01*
D27*
G04 #@! TO.N,/ENABLE*
X3500000Y-25000000D02*
X18550000Y-25000000D01*
D28*
G04 #@! TO.N,Net-(Q3-Pad1)*
X24700000Y-31500000D02*
X25250000Y-31500000D01*
X23100000Y-22900000D02*
X21450000Y-24550000D01*
X25650000Y-22900000D02*
X23100000Y-22900000D01*
X27000000Y-24250000D02*
X25650000Y-22900000D01*
X27000000Y-29750000D02*
X27000000Y-24250000D01*
X25250000Y-31500000D02*
X27000000Y-29750000D01*
X21450000Y-24550000D02*
X21450000Y-25000000D01*
G04 #@! TO.N,Net-(Q3-Pad3)*
X23750000Y-33500000D02*
X27000000Y-33500000D01*
X28500000Y-32000000D02*
X28500000Y-28500000D01*
X27000000Y-33500000D02*
X28500000Y-32000000D01*
G04 #@! TD*
D30*
G04 #@! TO.N,/Gate:A*
G36*
X29372000Y-13553020D02*
X29372000Y-17446980D01*
X28446980Y-18372000D01*
X27553020Y-18372000D01*
X26628000Y-17446980D01*
X26628000Y-13553020D01*
X27553020Y-12628000D01*
X28446980Y-12628000D01*
X29372000Y-13553020D01*
X29372000Y-13553020D01*
G37*
X29372000Y-13553020D02*
X29372000Y-17446980D01*
X28446980Y-18372000D01*
X27553020Y-18372000D01*
X26628000Y-17446980D01*
X26628000Y-13553020D01*
X27553020Y-12628000D01*
X28446980Y-12628000D01*
X29372000Y-13553020D01*
G04 #@! TO.N,/Gate:B*
G36*
X29372000Y-36053020D02*
X29372000Y-39946980D01*
X28446980Y-40872000D01*
X27553020Y-40872000D01*
X26628000Y-39946980D01*
X26628000Y-36053020D01*
X27553020Y-35128000D01*
X28446980Y-35128000D01*
X29372000Y-36053020D01*
X29372000Y-36053020D01*
G37*
X29372000Y-36053020D02*
X29372000Y-39946980D01*
X28446980Y-40872000D01*
X27553020Y-40872000D01*
X26628000Y-39946980D01*
X26628000Y-36053020D01*
X27553020Y-35128000D01*
X28446980Y-35128000D01*
X29372000Y-36053020D01*
D31*
G36*
X25821940Y-43566757D02*
X25821940Y-44433243D01*
X26153530Y-45233772D01*
X26766228Y-45846470D01*
X27566757Y-46178060D01*
X28433243Y-46178060D01*
X29233772Y-45846470D01*
X29497001Y-45583241D01*
X29497001Y-57497000D01*
X4683953Y-57497000D01*
X4683953Y-55893535D01*
X5008815Y-55676469D01*
X5051391Y-55668000D01*
X5051397Y-55668000D01*
X5322087Y-55614156D01*
X5629050Y-55409050D01*
X5680823Y-55331566D01*
X6376005Y-54636385D01*
X7300000Y-54636385D01*
X7342154Y-54628000D01*
X8708609Y-54628000D01*
X8800000Y-54646179D01*
X8891391Y-54628000D01*
X8891397Y-54628000D01*
X9162087Y-54574156D01*
X9469050Y-54369050D01*
X9520823Y-54291566D01*
X11091569Y-52720821D01*
X11169050Y-52669050D01*
X11374156Y-52362087D01*
X11428000Y-52091397D01*
X11428000Y-52091392D01*
X11446179Y-52000001D01*
X11428000Y-51908609D01*
X11428000Y-51318129D01*
X11572000Y-51318129D01*
X11572000Y-52681871D01*
X12093882Y-53941806D01*
X13058194Y-54906118D01*
X14318129Y-55428000D01*
X15681871Y-55428000D01*
X16941806Y-54906118D01*
X17906118Y-53941806D01*
X18428000Y-52681871D01*
X18428000Y-51318129D01*
X17906118Y-50058194D01*
X16941806Y-49093882D01*
X15681871Y-48572000D01*
X14318129Y-48572000D01*
X13058194Y-49093882D01*
X12093882Y-50058194D01*
X11572000Y-51318129D01*
X11428000Y-51318129D01*
X11428000Y-47884389D01*
X12684390Y-46628000D01*
X12724373Y-46628000D01*
X13138961Y-46456272D01*
X13456272Y-46138961D01*
X13628000Y-45724373D01*
X13628000Y-45275627D01*
X13456272Y-44861039D01*
X13138961Y-44543728D01*
X12724373Y-44372000D01*
X12275627Y-44372000D01*
X11861039Y-44543728D01*
X11543728Y-44861039D01*
X11372000Y-45275627D01*
X11372000Y-45315610D01*
X9928000Y-46759611D01*
X9928000Y-46384389D01*
X12684390Y-43628000D01*
X12724373Y-43628000D01*
X13138961Y-43456272D01*
X13167233Y-43428000D01*
X25879415Y-43428000D01*
X25821940Y-43566757D01*
X25821940Y-43566757D01*
G37*
X25821940Y-43566757D02*
X25821940Y-44433243D01*
X26153530Y-45233772D01*
X26766228Y-45846470D01*
X27566757Y-46178060D01*
X28433243Y-46178060D01*
X29233772Y-45846470D01*
X29497001Y-45583241D01*
X29497001Y-57497000D01*
X4683953Y-57497000D01*
X4683953Y-55893535D01*
X5008815Y-55676469D01*
X5051391Y-55668000D01*
X5051397Y-55668000D01*
X5322087Y-55614156D01*
X5629050Y-55409050D01*
X5680823Y-55331566D01*
X6376005Y-54636385D01*
X7300000Y-54636385D01*
X7342154Y-54628000D01*
X8708609Y-54628000D01*
X8800000Y-54646179D01*
X8891391Y-54628000D01*
X8891397Y-54628000D01*
X9162087Y-54574156D01*
X9469050Y-54369050D01*
X9520823Y-54291566D01*
X11091569Y-52720821D01*
X11169050Y-52669050D01*
X11374156Y-52362087D01*
X11428000Y-52091397D01*
X11428000Y-52091392D01*
X11446179Y-52000001D01*
X11428000Y-51908609D01*
X11428000Y-51318129D01*
X11572000Y-51318129D01*
X11572000Y-52681871D01*
X12093882Y-53941806D01*
X13058194Y-54906118D01*
X14318129Y-55428000D01*
X15681871Y-55428000D01*
X16941806Y-54906118D01*
X17906118Y-53941806D01*
X18428000Y-52681871D01*
X18428000Y-51318129D01*
X17906118Y-50058194D01*
X16941806Y-49093882D01*
X15681871Y-48572000D01*
X14318129Y-48572000D01*
X13058194Y-49093882D01*
X12093882Y-50058194D01*
X11572000Y-51318129D01*
X11428000Y-51318129D01*
X11428000Y-47884389D01*
X12684390Y-46628000D01*
X12724373Y-46628000D01*
X13138961Y-46456272D01*
X13456272Y-46138961D01*
X13628000Y-45724373D01*
X13628000Y-45275627D01*
X13456272Y-44861039D01*
X13138961Y-44543728D01*
X12724373Y-44372000D01*
X12275627Y-44372000D01*
X11861039Y-44543728D01*
X11543728Y-44861039D01*
X11372000Y-45275627D01*
X11372000Y-45315610D01*
X9928000Y-46759611D01*
X9928000Y-46384389D01*
X12684390Y-43628000D01*
X12724373Y-43628000D01*
X13138961Y-43456272D01*
X13167233Y-43428000D01*
X25879415Y-43428000D01*
X25821940Y-43566757D01*
G36*
X29497001Y-34865581D02*
X29092051Y-34460631D01*
X28383477Y-34167130D01*
X27616523Y-34167130D01*
X26907949Y-34460631D01*
X26398500Y-34970080D01*
X26398500Y-34432714D01*
X23742500Y-34432714D01*
X23742500Y-39742500D01*
X17247000Y-39742500D01*
X17247000Y-41572000D01*
X13167233Y-41572000D01*
X13138961Y-41543728D01*
X12724373Y-41372000D01*
X12440390Y-41372000D01*
X13091569Y-40720821D01*
X13169050Y-40669050D01*
X13374156Y-40362087D01*
X13428000Y-40091397D01*
X13428000Y-40091392D01*
X13446179Y-40000000D01*
X13428000Y-39908609D01*
X13428000Y-36167233D01*
X13456272Y-36138961D01*
X13628000Y-35724373D01*
X13628000Y-35275627D01*
X13456272Y-34861039D01*
X13138961Y-34543728D01*
X12724373Y-34372000D01*
X12275627Y-34372000D01*
X11861039Y-34543728D01*
X11543728Y-34861039D01*
X11372000Y-35275627D01*
X11372000Y-35724373D01*
X11543728Y-36138961D01*
X11572001Y-36167234D01*
X11572000Y-39615610D01*
X6908432Y-44279179D01*
X6830951Y-44330950D01*
X6779180Y-44408431D01*
X6779178Y-44408433D01*
X6625845Y-44637913D01*
X6553821Y-45000000D01*
X6572001Y-45091396D01*
X6572000Y-49615610D01*
X6423995Y-49763615D01*
X6376005Y-49763615D01*
X5680823Y-49068434D01*
X5629050Y-48990950D01*
X5322087Y-48785844D01*
X5051397Y-48732000D01*
X5051391Y-48732000D01*
X5008815Y-48723531D01*
X4898500Y-48649821D01*
X4898500Y-46816047D01*
X2242500Y-46816047D01*
X2242500Y-48555608D01*
X1914662Y-48774662D01*
X1643250Y-49180859D01*
X1547943Y-49660000D01*
X1643250Y-50139141D01*
X1914662Y-50545338D01*
X2320859Y-50816750D01*
X2679057Y-50888000D01*
X4320943Y-50888000D01*
X4679141Y-50816750D01*
X4754205Y-50766594D01*
X5259610Y-51272000D01*
X5021490Y-51272000D01*
X4679141Y-51043250D01*
X4320943Y-50972000D01*
X2679057Y-50972000D01*
X2320859Y-51043250D01*
X1914662Y-51314662D01*
X1643250Y-51720859D01*
X1547943Y-52200000D01*
X1643250Y-52679141D01*
X1914662Y-53085338D01*
X2320859Y-53356750D01*
X2679057Y-53428000D01*
X4320943Y-53428000D01*
X4679141Y-53356750D01*
X5021490Y-53128000D01*
X5259610Y-53128000D01*
X4754205Y-53633406D01*
X4679141Y-53583250D01*
X4320943Y-53512000D01*
X2679057Y-53512000D01*
X2320859Y-53583250D01*
X1914662Y-53854662D01*
X1643250Y-54260859D01*
X1547943Y-54740000D01*
X1643250Y-55219141D01*
X1914662Y-55625338D01*
X2316048Y-55893535D01*
X2316048Y-57497000D01*
X503000Y-57497000D01*
X503000Y-38815389D01*
X1637415Y-39949804D01*
X1643250Y-39979141D01*
X1914662Y-40385338D01*
X2320859Y-40656750D01*
X2679057Y-40728000D01*
X4320943Y-40728000D01*
X4679141Y-40656750D01*
X5021490Y-40428000D01*
X5408609Y-40428000D01*
X5500000Y-40446179D01*
X5591391Y-40428000D01*
X5591397Y-40428000D01*
X5862087Y-40374156D01*
X6169050Y-40169050D01*
X6220823Y-40091566D01*
X6376004Y-39936385D01*
X7251225Y-39936385D01*
X6123996Y-41063615D01*
X5700000Y-41063615D01*
X5657846Y-41072000D01*
X4961626Y-41072000D01*
X4679141Y-40883250D01*
X4320943Y-40812000D01*
X2679057Y-40812000D01*
X2320859Y-40883250D01*
X1914662Y-41154662D01*
X1643250Y-41560859D01*
X1547943Y-42040000D01*
X1643250Y-42519141D01*
X1914662Y-42925338D01*
X2320859Y-43196750D01*
X2679057Y-43268000D01*
X4320943Y-43268000D01*
X4679141Y-43196750D01*
X5081354Y-42928000D01*
X5657846Y-42928000D01*
X5700000Y-42936385D01*
X6450763Y-42936385D01*
X6500000Y-42946179D01*
X6549237Y-42936385D01*
X7300000Y-42936385D01*
X7466997Y-42903167D01*
X7608571Y-42808571D01*
X7703167Y-42666997D01*
X7736385Y-42500000D01*
X7736385Y-42076004D01*
X9091568Y-40720821D01*
X9169050Y-40669050D01*
X9374156Y-40362087D01*
X9428000Y-40091397D01*
X9428000Y-40091392D01*
X9446179Y-40000001D01*
X9428000Y-39908609D01*
X9428000Y-37841391D01*
X9446179Y-37749999D01*
X9428000Y-37658608D01*
X9428000Y-37658603D01*
X9374156Y-37387913D01*
X9280746Y-37248115D01*
X9220822Y-37158432D01*
X9220821Y-37158431D01*
X9169050Y-37080950D01*
X9091569Y-37029179D01*
X7882889Y-35820500D01*
X11026810Y-35820500D01*
X11026810Y-33928000D01*
X11157846Y-33928000D01*
X11200000Y-33936385D01*
X12800000Y-33936385D01*
X12842154Y-33928000D01*
X14251846Y-33928000D01*
X14289056Y-33983689D01*
X14293487Y-33993656D01*
X14335211Y-34052764D01*
X14341429Y-34062071D01*
X14342093Y-34062515D01*
X14893487Y-34843656D01*
X15083003Y-34995167D01*
X15250000Y-35028385D01*
X16250000Y-35028385D01*
X16483070Y-34960931D01*
X16606513Y-34843656D01*
X17157907Y-34062515D01*
X17158571Y-34062071D01*
X17164789Y-34052764D01*
X17206513Y-33993656D01*
X17217003Y-33974620D01*
X17253167Y-33920497D01*
X17284794Y-33761500D01*
X18359977Y-33761500D01*
X18391429Y-33808571D01*
X18533003Y-33903167D01*
X18700000Y-33936385D01*
X20300000Y-33936385D01*
X20466997Y-33903167D01*
X20608571Y-33808571D01*
X20662406Y-33728000D01*
X20928305Y-33728000D01*
X21000000Y-33742261D01*
X21071695Y-33728000D01*
X21071700Y-33728000D01*
X21284051Y-33685761D01*
X21524858Y-33524858D01*
X21565472Y-33464075D01*
X22643163Y-32386385D01*
X23200000Y-32386385D01*
X23366997Y-32353167D01*
X23508571Y-32258571D01*
X23603167Y-32116997D01*
X23636385Y-31950000D01*
X23636385Y-31393162D01*
X23863615Y-31165932D01*
X23863615Y-31950000D01*
X23896833Y-32116997D01*
X23991429Y-32258571D01*
X24133003Y-32353167D01*
X24300000Y-32386385D01*
X25100000Y-32386385D01*
X25266997Y-32353167D01*
X25408571Y-32258571D01*
X25445444Y-32203386D01*
X25534051Y-32185761D01*
X25683971Y-32085587D01*
X25714074Y-32065473D01*
X25714075Y-32065472D01*
X25774858Y-32024858D01*
X25815472Y-31964075D01*
X27464075Y-30315472D01*
X27524858Y-30274858D01*
X27685761Y-30034051D01*
X27728000Y-29821700D01*
X27728000Y-29821695D01*
X27742261Y-29750000D01*
X27728000Y-29678305D01*
X27728000Y-29323233D01*
X27772001Y-29367234D01*
X27772000Y-31698452D01*
X26698453Y-32772000D01*
X24478998Y-32772000D01*
X24458571Y-32741429D01*
X24316997Y-32646833D01*
X24150000Y-32613615D01*
X23350000Y-32613615D01*
X23183003Y-32646833D01*
X23041429Y-32741429D01*
X22946833Y-32883003D01*
X22913615Y-33050000D01*
X22913615Y-33950000D01*
X22946833Y-34116997D01*
X23041429Y-34258571D01*
X23183003Y-34353167D01*
X23350000Y-34386385D01*
X24150000Y-34386385D01*
X24316997Y-34353167D01*
X24458571Y-34258571D01*
X24478998Y-34228000D01*
X26928305Y-34228000D01*
X27000000Y-34242261D01*
X27071695Y-34228000D01*
X27071700Y-34228000D01*
X27284051Y-34185761D01*
X27524858Y-34024858D01*
X27565472Y-33964075D01*
X28964078Y-32565470D01*
X29024858Y-32524858D01*
X29065470Y-32464078D01*
X29065473Y-32464075D01*
X29185760Y-32284053D01*
X29185760Y-32284052D01*
X29185761Y-32284051D01*
X29228000Y-32071700D01*
X29228000Y-32071696D01*
X29242261Y-32000001D01*
X29228000Y-31928306D01*
X29228000Y-29367233D01*
X29456272Y-29138961D01*
X29497001Y-29040634D01*
X29497001Y-34865581D01*
X29497001Y-34865581D01*
G37*
X29497001Y-34865581D02*
X29092051Y-34460631D01*
X28383477Y-34167130D01*
X27616523Y-34167130D01*
X26907949Y-34460631D01*
X26398500Y-34970080D01*
X26398500Y-34432714D01*
X23742500Y-34432714D01*
X23742500Y-39742500D01*
X17247000Y-39742500D01*
X17247000Y-41572000D01*
X13167233Y-41572000D01*
X13138961Y-41543728D01*
X12724373Y-41372000D01*
X12440390Y-41372000D01*
X13091569Y-40720821D01*
X13169050Y-40669050D01*
X13374156Y-40362087D01*
X13428000Y-40091397D01*
X13428000Y-40091392D01*
X13446179Y-40000000D01*
X13428000Y-39908609D01*
X13428000Y-36167233D01*
X13456272Y-36138961D01*
X13628000Y-35724373D01*
X13628000Y-35275627D01*
X13456272Y-34861039D01*
X13138961Y-34543728D01*
X12724373Y-34372000D01*
X12275627Y-34372000D01*
X11861039Y-34543728D01*
X11543728Y-34861039D01*
X11372000Y-35275627D01*
X11372000Y-35724373D01*
X11543728Y-36138961D01*
X11572001Y-36167234D01*
X11572000Y-39615610D01*
X6908432Y-44279179D01*
X6830951Y-44330950D01*
X6779180Y-44408431D01*
X6779178Y-44408433D01*
X6625845Y-44637913D01*
X6553821Y-45000000D01*
X6572001Y-45091396D01*
X6572000Y-49615610D01*
X6423995Y-49763615D01*
X6376005Y-49763615D01*
X5680823Y-49068434D01*
X5629050Y-48990950D01*
X5322087Y-48785844D01*
X5051397Y-48732000D01*
X5051391Y-48732000D01*
X5008815Y-48723531D01*
X4898500Y-48649821D01*
X4898500Y-46816047D01*
X2242500Y-46816047D01*
X2242500Y-48555608D01*
X1914662Y-48774662D01*
X1643250Y-49180859D01*
X1547943Y-49660000D01*
X1643250Y-50139141D01*
X1914662Y-50545338D01*
X2320859Y-50816750D01*
X2679057Y-50888000D01*
X4320943Y-50888000D01*
X4679141Y-50816750D01*
X4754205Y-50766594D01*
X5259610Y-51272000D01*
X5021490Y-51272000D01*
X4679141Y-51043250D01*
X4320943Y-50972000D01*
X2679057Y-50972000D01*
X2320859Y-51043250D01*
X1914662Y-51314662D01*
X1643250Y-51720859D01*
X1547943Y-52200000D01*
X1643250Y-52679141D01*
X1914662Y-53085338D01*
X2320859Y-53356750D01*
X2679057Y-53428000D01*
X4320943Y-53428000D01*
X4679141Y-53356750D01*
X5021490Y-53128000D01*
X5259610Y-53128000D01*
X4754205Y-53633406D01*
X4679141Y-53583250D01*
X4320943Y-53512000D01*
X2679057Y-53512000D01*
X2320859Y-53583250D01*
X1914662Y-53854662D01*
X1643250Y-54260859D01*
X1547943Y-54740000D01*
X1643250Y-55219141D01*
X1914662Y-55625338D01*
X2316048Y-55893535D01*
X2316048Y-57497000D01*
X503000Y-57497000D01*
X503000Y-38815389D01*
X1637415Y-39949804D01*
X1643250Y-39979141D01*
X1914662Y-40385338D01*
X2320859Y-40656750D01*
X2679057Y-40728000D01*
X4320943Y-40728000D01*
X4679141Y-40656750D01*
X5021490Y-40428000D01*
X5408609Y-40428000D01*
X5500000Y-40446179D01*
X5591391Y-40428000D01*
X5591397Y-40428000D01*
X5862087Y-40374156D01*
X6169050Y-40169050D01*
X6220823Y-40091566D01*
X6376004Y-39936385D01*
X7251225Y-39936385D01*
X6123996Y-41063615D01*
X5700000Y-41063615D01*
X5657846Y-41072000D01*
X4961626Y-41072000D01*
X4679141Y-40883250D01*
X4320943Y-40812000D01*
X2679057Y-40812000D01*
X2320859Y-40883250D01*
X1914662Y-41154662D01*
X1643250Y-41560859D01*
X1547943Y-42040000D01*
X1643250Y-42519141D01*
X1914662Y-42925338D01*
X2320859Y-43196750D01*
X2679057Y-43268000D01*
X4320943Y-43268000D01*
X4679141Y-43196750D01*
X5081354Y-42928000D01*
X5657846Y-42928000D01*
X5700000Y-42936385D01*
X6450763Y-42936385D01*
X6500000Y-42946179D01*
X6549237Y-42936385D01*
X7300000Y-42936385D01*
X7466997Y-42903167D01*
X7608571Y-42808571D01*
X7703167Y-42666997D01*
X7736385Y-42500000D01*
X7736385Y-42076004D01*
X9091568Y-40720821D01*
X9169050Y-40669050D01*
X9374156Y-40362087D01*
X9428000Y-40091397D01*
X9428000Y-40091392D01*
X9446179Y-40000001D01*
X9428000Y-39908609D01*
X9428000Y-37841391D01*
X9446179Y-37749999D01*
X9428000Y-37658608D01*
X9428000Y-37658603D01*
X9374156Y-37387913D01*
X9280746Y-37248115D01*
X9220822Y-37158432D01*
X9220821Y-37158431D01*
X9169050Y-37080950D01*
X9091569Y-37029179D01*
X7882889Y-35820500D01*
X11026810Y-35820500D01*
X11026810Y-33928000D01*
X11157846Y-33928000D01*
X11200000Y-33936385D01*
X12800000Y-33936385D01*
X12842154Y-33928000D01*
X14251846Y-33928000D01*
X14289056Y-33983689D01*
X14293487Y-33993656D01*
X14335211Y-34052764D01*
X14341429Y-34062071D01*
X14342093Y-34062515D01*
X14893487Y-34843656D01*
X15083003Y-34995167D01*
X15250000Y-35028385D01*
X16250000Y-35028385D01*
X16483070Y-34960931D01*
X16606513Y-34843656D01*
X17157907Y-34062515D01*
X17158571Y-34062071D01*
X17164789Y-34052764D01*
X17206513Y-33993656D01*
X17217003Y-33974620D01*
X17253167Y-33920497D01*
X17284794Y-33761500D01*
X18359977Y-33761500D01*
X18391429Y-33808571D01*
X18533003Y-33903167D01*
X18700000Y-33936385D01*
X20300000Y-33936385D01*
X20466997Y-33903167D01*
X20608571Y-33808571D01*
X20662406Y-33728000D01*
X20928305Y-33728000D01*
X21000000Y-33742261D01*
X21071695Y-33728000D01*
X21071700Y-33728000D01*
X21284051Y-33685761D01*
X21524858Y-33524858D01*
X21565472Y-33464075D01*
X22643163Y-32386385D01*
X23200000Y-32386385D01*
X23366997Y-32353167D01*
X23508571Y-32258571D01*
X23603167Y-32116997D01*
X23636385Y-31950000D01*
X23636385Y-31393162D01*
X23863615Y-31165932D01*
X23863615Y-31950000D01*
X23896833Y-32116997D01*
X23991429Y-32258571D01*
X24133003Y-32353167D01*
X24300000Y-32386385D01*
X25100000Y-32386385D01*
X25266997Y-32353167D01*
X25408571Y-32258571D01*
X25445444Y-32203386D01*
X25534051Y-32185761D01*
X25683971Y-32085587D01*
X25714074Y-32065473D01*
X25714075Y-32065472D01*
X25774858Y-32024858D01*
X25815472Y-31964075D01*
X27464075Y-30315472D01*
X27524858Y-30274858D01*
X27685761Y-30034051D01*
X27728000Y-29821700D01*
X27728000Y-29821695D01*
X27742261Y-29750000D01*
X27728000Y-29678305D01*
X27728000Y-29323233D01*
X27772001Y-29367234D01*
X27772000Y-31698452D01*
X26698453Y-32772000D01*
X24478998Y-32772000D01*
X24458571Y-32741429D01*
X24316997Y-32646833D01*
X24150000Y-32613615D01*
X23350000Y-32613615D01*
X23183003Y-32646833D01*
X23041429Y-32741429D01*
X22946833Y-32883003D01*
X22913615Y-33050000D01*
X22913615Y-33950000D01*
X22946833Y-34116997D01*
X23041429Y-34258571D01*
X23183003Y-34353167D01*
X23350000Y-34386385D01*
X24150000Y-34386385D01*
X24316997Y-34353167D01*
X24458571Y-34258571D01*
X24478998Y-34228000D01*
X26928305Y-34228000D01*
X27000000Y-34242261D01*
X27071695Y-34228000D01*
X27071700Y-34228000D01*
X27284051Y-34185761D01*
X27524858Y-34024858D01*
X27565472Y-33964075D01*
X28964078Y-32565470D01*
X29024858Y-32524858D01*
X29065470Y-32464078D01*
X29065473Y-32464075D01*
X29185760Y-32284053D01*
X29185760Y-32284052D01*
X29185761Y-32284051D01*
X29228000Y-32071700D01*
X29228000Y-32071696D01*
X29242261Y-32000001D01*
X29228000Y-31928306D01*
X29228000Y-29367233D01*
X29456272Y-29138961D01*
X29497001Y-29040634D01*
X29497001Y-34865581D01*
G36*
X29497001Y-42416759D02*
X29233772Y-42153530D01*
X28433243Y-41821940D01*
X28409864Y-41821940D01*
X29092051Y-41539369D01*
X29497001Y-41134419D01*
X29497001Y-42416759D01*
X29497001Y-42416759D01*
G37*
X29497001Y-42416759D02*
X29233772Y-42153530D01*
X28433243Y-41821940D01*
X28409864Y-41821940D01*
X29092051Y-41539369D01*
X29497001Y-41134419D01*
X29497001Y-42416759D01*
G36*
X26907949Y-41539369D02*
X27590136Y-41821940D01*
X27566757Y-41821940D01*
X27260984Y-41948595D01*
X27220823Y-41908434D01*
X27169050Y-41830950D01*
X26862087Y-41625844D01*
X26591397Y-41572000D01*
X26591391Y-41572000D01*
X26500000Y-41553821D01*
X26408609Y-41572000D01*
X23753000Y-41572000D01*
X23753000Y-41567285D01*
X26398500Y-41567285D01*
X26398500Y-41029920D01*
X26907949Y-41539369D01*
X26907949Y-41539369D01*
G37*
X26907949Y-41539369D02*
X27590136Y-41821940D01*
X27566757Y-41821940D01*
X27260984Y-41948595D01*
X27220823Y-41908434D01*
X27169050Y-41830950D01*
X26862087Y-41625844D01*
X26591397Y-41572000D01*
X26591391Y-41572000D01*
X26500000Y-41553821D01*
X26408609Y-41572000D01*
X23753000Y-41572000D01*
X23753000Y-41567285D01*
X26398500Y-41567285D01*
X26398500Y-41029920D01*
X26907949Y-41539369D01*
G36*
X2170469Y-33649531D02*
X2572000Y-33917825D01*
X2572001Y-35082766D01*
X2543728Y-35111039D01*
X2372000Y-35525627D01*
X2372000Y-35974373D01*
X2543728Y-36388961D01*
X2861039Y-36706272D01*
X3275627Y-36878000D01*
X3724373Y-36878000D01*
X4138961Y-36706272D01*
X4456272Y-36388961D01*
X4628000Y-35974373D01*
X4628000Y-35525627D01*
X4456272Y-35111039D01*
X4428000Y-35082767D01*
X4428000Y-33917824D01*
X4829531Y-33649531D01*
X4897372Y-33548000D01*
X5273163Y-33548000D01*
X5296833Y-33666997D01*
X5391429Y-33808571D01*
X5533003Y-33903167D01*
X5572000Y-33910924D01*
X5572001Y-35658604D01*
X5553821Y-35750000D01*
X5625845Y-36112087D01*
X5779178Y-36341567D01*
X5779180Y-36341569D01*
X5830951Y-36419050D01*
X5908432Y-36470821D01*
X7572000Y-38134390D01*
X7572000Y-38166993D01*
X7466997Y-38096833D01*
X7300000Y-38063615D01*
X6049237Y-38063615D01*
X6000000Y-38053821D01*
X5950762Y-38063615D01*
X5700000Y-38063615D01*
X5533003Y-38096833D01*
X5391429Y-38191429D01*
X5296833Y-38333003D01*
X5282487Y-38405124D01*
X5115611Y-38572000D01*
X5021490Y-38572000D01*
X4679141Y-38343250D01*
X4320943Y-38272000D01*
X2679057Y-38272000D01*
X2600096Y-38287706D01*
X1928000Y-37615611D01*
X1928000Y-33286649D01*
X2170469Y-33649531D01*
X2170469Y-33649531D01*
G37*
X2170469Y-33649531D02*
X2572000Y-33917825D01*
X2572001Y-35082766D01*
X2543728Y-35111039D01*
X2372000Y-35525627D01*
X2372000Y-35974373D01*
X2543728Y-36388961D01*
X2861039Y-36706272D01*
X3275627Y-36878000D01*
X3724373Y-36878000D01*
X4138961Y-36706272D01*
X4456272Y-36388961D01*
X4628000Y-35974373D01*
X4628000Y-35525627D01*
X4456272Y-35111039D01*
X4428000Y-35082767D01*
X4428000Y-33917824D01*
X4829531Y-33649531D01*
X4897372Y-33548000D01*
X5273163Y-33548000D01*
X5296833Y-33666997D01*
X5391429Y-33808571D01*
X5533003Y-33903167D01*
X5572000Y-33910924D01*
X5572001Y-35658604D01*
X5553821Y-35750000D01*
X5625845Y-36112087D01*
X5779178Y-36341567D01*
X5779180Y-36341569D01*
X5830951Y-36419050D01*
X5908432Y-36470821D01*
X7572000Y-38134390D01*
X7572000Y-38166993D01*
X7466997Y-38096833D01*
X7300000Y-38063615D01*
X6049237Y-38063615D01*
X6000000Y-38053821D01*
X5950762Y-38063615D01*
X5700000Y-38063615D01*
X5533003Y-38096833D01*
X5391429Y-38191429D01*
X5296833Y-38333003D01*
X5282487Y-38405124D01*
X5115611Y-38572000D01*
X5021490Y-38572000D01*
X4679141Y-38343250D01*
X4320943Y-38272000D01*
X2679057Y-38272000D01*
X2600096Y-38287706D01*
X1928000Y-37615611D01*
X1928000Y-33286649D01*
X2170469Y-33649531D01*
G36*
X24372000Y-28275627D02*
X24372000Y-28598452D01*
X22535928Y-30434525D01*
X22535925Y-30434527D01*
X22346120Y-30624333D01*
X22233003Y-30646833D01*
X22091429Y-30741429D01*
X21996833Y-30883003D01*
X21974333Y-30996120D01*
X20698453Y-32272000D01*
X20662406Y-32272000D01*
X20608571Y-32191429D01*
X20466997Y-32096833D01*
X20300000Y-32063615D01*
X19851640Y-32063615D01*
X19695587Y-31959344D01*
X19424897Y-31905500D01*
X17284794Y-31905500D01*
X17276836Y-31865497D01*
X17276054Y-31829408D01*
X17264377Y-31802861D01*
X17253167Y-31746503D01*
X17213433Y-31687036D01*
X17207501Y-31673550D01*
X16880485Y-31206385D01*
X17750000Y-31206385D01*
X17916997Y-31173167D01*
X18058571Y-31078571D01*
X18153167Y-30936997D01*
X18186385Y-30770000D01*
X18186385Y-30748000D01*
X18350957Y-30748000D01*
X18391429Y-30808571D01*
X18533003Y-30903167D01*
X18700000Y-30936385D01*
X20300000Y-30936385D01*
X20466997Y-30903167D01*
X20608571Y-30808571D01*
X20662406Y-30728000D01*
X21428305Y-30728000D01*
X21500000Y-30742261D01*
X21571695Y-30728000D01*
X21571700Y-30728000D01*
X21784051Y-30685761D01*
X22024858Y-30524858D01*
X22065473Y-30464074D01*
X24455495Y-28074053D01*
X24372000Y-28275627D01*
X24372000Y-28275627D01*
G37*
X24372000Y-28275627D02*
X24372000Y-28598452D01*
X22535928Y-30434525D01*
X22535925Y-30434527D01*
X22346120Y-30624333D01*
X22233003Y-30646833D01*
X22091429Y-30741429D01*
X21996833Y-30883003D01*
X21974333Y-30996120D01*
X20698453Y-32272000D01*
X20662406Y-32272000D01*
X20608571Y-32191429D01*
X20466997Y-32096833D01*
X20300000Y-32063615D01*
X19851640Y-32063615D01*
X19695587Y-31959344D01*
X19424897Y-31905500D01*
X17284794Y-31905500D01*
X17276836Y-31865497D01*
X17276054Y-31829408D01*
X17264377Y-31802861D01*
X17253167Y-31746503D01*
X17213433Y-31687036D01*
X17207501Y-31673550D01*
X16880485Y-31206385D01*
X17750000Y-31206385D01*
X17916997Y-31173167D01*
X18058571Y-31078571D01*
X18153167Y-30936997D01*
X18186385Y-30770000D01*
X18186385Y-30748000D01*
X18350957Y-30748000D01*
X18391429Y-30808571D01*
X18533003Y-30903167D01*
X18700000Y-30936385D01*
X20300000Y-30936385D01*
X20466997Y-30903167D01*
X20608571Y-30808571D01*
X20662406Y-30728000D01*
X21428305Y-30728000D01*
X21500000Y-30742261D01*
X21571695Y-30728000D01*
X21571700Y-30728000D01*
X21784051Y-30685761D01*
X22024858Y-30524858D01*
X22065473Y-30464074D01*
X24455495Y-28074053D01*
X24372000Y-28275627D01*
G36*
X11200000Y-30936385D02*
X12800000Y-30936385D01*
X12842154Y-30928000D01*
X13345043Y-30928000D01*
X13346833Y-30936997D01*
X13441429Y-31078571D01*
X13583003Y-31173167D01*
X13750000Y-31206385D01*
X14619515Y-31206385D01*
X14292499Y-31673550D01*
X14278383Y-31699285D01*
X14246833Y-31746503D01*
X14213615Y-31913500D01*
X14213615Y-32072000D01*
X12842154Y-32072000D01*
X12800000Y-32063615D01*
X11200000Y-32063615D01*
X11157846Y-32072000D01*
X10883953Y-32072000D01*
X10883953Y-30928000D01*
X11157846Y-30928000D01*
X11200000Y-30936385D01*
X11200000Y-30936385D01*
G37*
X11200000Y-30936385D02*
X12800000Y-30936385D01*
X12842154Y-30928000D01*
X13345043Y-30928000D01*
X13346833Y-30936997D01*
X13441429Y-31078571D01*
X13583003Y-31173167D01*
X13750000Y-31206385D01*
X14619515Y-31206385D01*
X14292499Y-31673550D01*
X14278383Y-31699285D01*
X14246833Y-31746503D01*
X14213615Y-31913500D01*
X14213615Y-32072000D01*
X12842154Y-32072000D01*
X12800000Y-32063615D01*
X11200000Y-32063615D01*
X11157846Y-32072000D01*
X10883953Y-32072000D01*
X10883953Y-30928000D01*
X11157846Y-30928000D01*
X11200000Y-30936385D01*
G36*
X7116048Y-32063615D02*
X6876004Y-32063615D01*
X6840823Y-32028434D01*
X6789050Y-31950950D01*
X6482087Y-31745844D01*
X6211397Y-31692000D01*
X6211391Y-31692000D01*
X6120000Y-31673821D01*
X6028609Y-31692000D01*
X4897372Y-31692000D01*
X4829531Y-31590469D01*
X4469642Y-31350000D01*
X4829531Y-31109531D01*
X4897372Y-31008000D01*
X6511397Y-31008000D01*
X6782087Y-30954156D01*
X6808683Y-30936385D01*
X7116048Y-30936385D01*
X7116048Y-32063615D01*
X7116048Y-32063615D01*
G37*
X7116048Y-32063615D02*
X6876004Y-32063615D01*
X6840823Y-32028434D01*
X6789050Y-31950950D01*
X6482087Y-31745844D01*
X6211397Y-31692000D01*
X6211391Y-31692000D01*
X6120000Y-31673821D01*
X6028609Y-31692000D01*
X4897372Y-31692000D01*
X4829531Y-31590469D01*
X4469642Y-31350000D01*
X4829531Y-31109531D01*
X4897372Y-31008000D01*
X6511397Y-31008000D01*
X6782087Y-30954156D01*
X6808683Y-30936385D01*
X7116048Y-30936385D01*
X7116048Y-32063615D01*
G36*
X2530358Y-31350000D02*
X2170469Y-31590469D01*
X1928000Y-31953351D01*
X1928000Y-31384389D01*
X2189885Y-31122504D01*
X2530358Y-31350000D01*
X2530358Y-31350000D01*
G37*
X2530358Y-31350000D02*
X2170469Y-31590469D01*
X1928000Y-31953351D01*
X1928000Y-31384389D01*
X2189885Y-31122504D01*
X2530358Y-31350000D01*
G36*
X26272000Y-29448453D02*
X25105703Y-30614750D01*
X25100000Y-30613615D01*
X24415932Y-30613615D01*
X25401548Y-29628000D01*
X25724373Y-29628000D01*
X26138961Y-29456272D01*
X26272000Y-29323233D01*
X26272000Y-29448453D01*
X26272000Y-29448453D01*
G37*
X26272000Y-29448453D02*
X25105703Y-30614750D01*
X25100000Y-30613615D01*
X24415932Y-30613615D01*
X25401548Y-29628000D01*
X25724373Y-29628000D01*
X26138961Y-29456272D01*
X26272000Y-29323233D01*
X26272000Y-29448453D01*
G36*
X607611Y-30080000D02*
X503000Y-30184611D01*
X503000Y-29975389D01*
X607611Y-30080000D01*
X607611Y-30080000D01*
G37*
X607611Y-30080000D02*
X503000Y-30184611D01*
X503000Y-29975389D01*
X607611Y-30080000D01*
G36*
X11372000Y-19684390D02*
X11372000Y-19724373D01*
X11543728Y-20138961D01*
X11861039Y-20456272D01*
X12275627Y-20628000D01*
X12315611Y-20628000D01*
X13779179Y-22091568D01*
X13830950Y-22169050D01*
X14137913Y-22374156D01*
X14408603Y-22428000D01*
X14408608Y-22428000D01*
X14499999Y-22446179D01*
X14591391Y-22428000D01*
X22539823Y-22428000D01*
X22534530Y-22435923D01*
X21256838Y-23713615D01*
X21000000Y-23713615D01*
X20833003Y-23746833D01*
X20691429Y-23841429D01*
X20596833Y-23983003D01*
X20563615Y-24150000D01*
X20563615Y-25850000D01*
X20596833Y-26016997D01*
X20691429Y-26158571D01*
X20828263Y-26250000D01*
X20691429Y-26341429D01*
X20596833Y-26483003D01*
X20563615Y-26650000D01*
X20563615Y-28350000D01*
X20596833Y-28516997D01*
X20691429Y-28658571D01*
X20833003Y-28753167D01*
X21000000Y-28786385D01*
X21684068Y-28786385D01*
X21198453Y-29272000D01*
X20662406Y-29272000D01*
X20608571Y-29191429D01*
X20466997Y-29096833D01*
X20300000Y-29063615D01*
X18700000Y-29063615D01*
X18533003Y-29096833D01*
X18391429Y-29191429D01*
X18324230Y-29292000D01*
X18186385Y-29292000D01*
X18186385Y-29270000D01*
X18153167Y-29103003D01*
X18058571Y-28961429D01*
X17916997Y-28866833D01*
X17750000Y-28833615D01*
X16750000Y-28833615D01*
X16583003Y-28866833D01*
X16502619Y-28920543D01*
X16416997Y-28863333D01*
X16250000Y-28830115D01*
X15250000Y-28830115D01*
X15083003Y-28863333D01*
X14997381Y-28920543D01*
X14916997Y-28866833D01*
X14750000Y-28833615D01*
X13750000Y-28833615D01*
X13583003Y-28866833D01*
X13441429Y-28961429D01*
X13367548Y-29072000D01*
X12842154Y-29072000D01*
X12800000Y-29063615D01*
X11200000Y-29063615D01*
X11157846Y-29072000D01*
X7342154Y-29072000D01*
X7300000Y-29063615D01*
X5700000Y-29063615D01*
X5533003Y-29096833D01*
X5450439Y-29152000D01*
X4897372Y-29152000D01*
X4829531Y-29050469D01*
X4469642Y-28810000D01*
X4829531Y-28569531D01*
X4924099Y-28428000D01*
X17679130Y-28428000D01*
X17696833Y-28516997D01*
X17791429Y-28658571D01*
X17933003Y-28753167D01*
X18100000Y-28786385D01*
X19000000Y-28786385D01*
X19166997Y-28753167D01*
X19308571Y-28658571D01*
X19403167Y-28516997D01*
X19436385Y-28350000D01*
X19436385Y-27800608D01*
X19496180Y-27500000D01*
X19436385Y-27199392D01*
X19436385Y-26650000D01*
X19403167Y-26483003D01*
X19308571Y-26341429D01*
X19171737Y-26250000D01*
X19308571Y-26158571D01*
X19403167Y-26016997D01*
X19436385Y-25850000D01*
X19436385Y-25300608D01*
X19496180Y-25000000D01*
X19436385Y-24699392D01*
X19436385Y-24150000D01*
X19403167Y-23983003D01*
X19308571Y-23841429D01*
X19166997Y-23746833D01*
X19000000Y-23713615D01*
X18100000Y-23713615D01*
X17933003Y-23746833D01*
X17791429Y-23841429D01*
X17696833Y-23983003D01*
X17679130Y-24072000D01*
X9863714Y-24072000D01*
X9863714Y-21176104D01*
X11372000Y-22684390D01*
X11372000Y-22724373D01*
X11543728Y-23138961D01*
X11861039Y-23456272D01*
X12275627Y-23628000D01*
X12724373Y-23628000D01*
X13138961Y-23456272D01*
X13456272Y-23138961D01*
X13628000Y-22724373D01*
X13628000Y-22275627D01*
X13456272Y-21861039D01*
X13138961Y-21543728D01*
X12724373Y-21372000D01*
X12684390Y-21372000D01*
X8440389Y-17128000D01*
X8815611Y-17128000D01*
X11372000Y-19684390D01*
X11372000Y-19684390D01*
G37*
X11372000Y-19684390D02*
X11372000Y-19724373D01*
X11543728Y-20138961D01*
X11861039Y-20456272D01*
X12275627Y-20628000D01*
X12315611Y-20628000D01*
X13779179Y-22091568D01*
X13830950Y-22169050D01*
X14137913Y-22374156D01*
X14408603Y-22428000D01*
X14408608Y-22428000D01*
X14499999Y-22446179D01*
X14591391Y-22428000D01*
X22539823Y-22428000D01*
X22534530Y-22435923D01*
X21256838Y-23713615D01*
X21000000Y-23713615D01*
X20833003Y-23746833D01*
X20691429Y-23841429D01*
X20596833Y-23983003D01*
X20563615Y-24150000D01*
X20563615Y-25850000D01*
X20596833Y-26016997D01*
X20691429Y-26158571D01*
X20828263Y-26250000D01*
X20691429Y-26341429D01*
X20596833Y-26483003D01*
X20563615Y-26650000D01*
X20563615Y-28350000D01*
X20596833Y-28516997D01*
X20691429Y-28658571D01*
X20833003Y-28753167D01*
X21000000Y-28786385D01*
X21684068Y-28786385D01*
X21198453Y-29272000D01*
X20662406Y-29272000D01*
X20608571Y-29191429D01*
X20466997Y-29096833D01*
X20300000Y-29063615D01*
X18700000Y-29063615D01*
X18533003Y-29096833D01*
X18391429Y-29191429D01*
X18324230Y-29292000D01*
X18186385Y-29292000D01*
X18186385Y-29270000D01*
X18153167Y-29103003D01*
X18058571Y-28961429D01*
X17916997Y-28866833D01*
X17750000Y-28833615D01*
X16750000Y-28833615D01*
X16583003Y-28866833D01*
X16502619Y-28920543D01*
X16416997Y-28863333D01*
X16250000Y-28830115D01*
X15250000Y-28830115D01*
X15083003Y-28863333D01*
X14997381Y-28920543D01*
X14916997Y-28866833D01*
X14750000Y-28833615D01*
X13750000Y-28833615D01*
X13583003Y-28866833D01*
X13441429Y-28961429D01*
X13367548Y-29072000D01*
X12842154Y-29072000D01*
X12800000Y-29063615D01*
X11200000Y-29063615D01*
X11157846Y-29072000D01*
X7342154Y-29072000D01*
X7300000Y-29063615D01*
X5700000Y-29063615D01*
X5533003Y-29096833D01*
X5450439Y-29152000D01*
X4897372Y-29152000D01*
X4829531Y-29050469D01*
X4469642Y-28810000D01*
X4829531Y-28569531D01*
X4924099Y-28428000D01*
X17679130Y-28428000D01*
X17696833Y-28516997D01*
X17791429Y-28658571D01*
X17933003Y-28753167D01*
X18100000Y-28786385D01*
X19000000Y-28786385D01*
X19166997Y-28753167D01*
X19308571Y-28658571D01*
X19403167Y-28516997D01*
X19436385Y-28350000D01*
X19436385Y-27800608D01*
X19496180Y-27500000D01*
X19436385Y-27199392D01*
X19436385Y-26650000D01*
X19403167Y-26483003D01*
X19308571Y-26341429D01*
X19171737Y-26250000D01*
X19308571Y-26158571D01*
X19403167Y-26016997D01*
X19436385Y-25850000D01*
X19436385Y-25300608D01*
X19496180Y-25000000D01*
X19436385Y-24699392D01*
X19436385Y-24150000D01*
X19403167Y-23983003D01*
X19308571Y-23841429D01*
X19166997Y-23746833D01*
X19000000Y-23713615D01*
X18100000Y-23713615D01*
X17933003Y-23746833D01*
X17791429Y-23841429D01*
X17696833Y-23983003D01*
X17679130Y-24072000D01*
X9863714Y-24072000D01*
X9863714Y-21176104D01*
X11372000Y-22684390D01*
X11372000Y-22724373D01*
X11543728Y-23138961D01*
X11861039Y-23456272D01*
X12275627Y-23628000D01*
X12724373Y-23628000D01*
X13138961Y-23456272D01*
X13456272Y-23138961D01*
X13628000Y-22724373D01*
X13628000Y-22275627D01*
X13456272Y-21861039D01*
X13138961Y-21543728D01*
X12724373Y-21372000D01*
X12684390Y-21372000D01*
X8440389Y-17128000D01*
X8815611Y-17128000D01*
X11372000Y-19684390D01*
G36*
X2170469Y-28569531D02*
X2530358Y-28810000D01*
X2189885Y-29037496D01*
X1928000Y-28775611D01*
X1928000Y-28206649D01*
X2170469Y-28569531D01*
X2170469Y-28569531D01*
G37*
X2170469Y-28569531D02*
X2530358Y-28810000D01*
X2189885Y-29037496D01*
X1928000Y-28775611D01*
X1928000Y-28206649D01*
X2170469Y-28569531D01*
G36*
X24372000Y-25775627D02*
X24372000Y-26098452D01*
X22336385Y-28134068D01*
X22336385Y-27693162D01*
X24455495Y-25574053D01*
X24372000Y-25775627D01*
X24372000Y-25775627D01*
G37*
X24372000Y-25775627D02*
X24372000Y-26098452D01*
X22336385Y-28134068D01*
X22336385Y-27693162D01*
X24455495Y-25574053D01*
X24372000Y-25775627D01*
G36*
X29497000Y-27959366D02*
X29456272Y-27861039D01*
X29138961Y-27543728D01*
X28724373Y-27372000D01*
X28275627Y-27372000D01*
X27861039Y-27543728D01*
X27728000Y-27676767D01*
X27728000Y-24321694D01*
X27742261Y-24249999D01*
X27728000Y-24178304D01*
X27728000Y-24178300D01*
X27685761Y-23965949D01*
X27685760Y-23965947D01*
X27565473Y-23785925D01*
X27565470Y-23785922D01*
X27524858Y-23725142D01*
X27464077Y-23684529D01*
X27380428Y-23600880D01*
X27566757Y-23678060D01*
X28433243Y-23678060D01*
X29233772Y-23346470D01*
X29497000Y-23083242D01*
X29497000Y-27959366D01*
X29497000Y-27959366D01*
G37*
X29497000Y-27959366D02*
X29456272Y-27861039D01*
X29138961Y-27543728D01*
X28724373Y-27372000D01*
X28275627Y-27372000D01*
X27861039Y-27543728D01*
X27728000Y-27676767D01*
X27728000Y-24321694D01*
X27742261Y-24249999D01*
X27728000Y-24178304D01*
X27728000Y-24178300D01*
X27685761Y-23965949D01*
X27685760Y-23965947D01*
X27565473Y-23785925D01*
X27565470Y-23785922D01*
X27524858Y-23725142D01*
X27464077Y-23684529D01*
X27380428Y-23600880D01*
X27566757Y-23678060D01*
X28433243Y-23678060D01*
X29233772Y-23346470D01*
X29497000Y-23083242D01*
X29497000Y-27959366D01*
G36*
X26272000Y-27676767D02*
X26138961Y-27543728D01*
X25724373Y-27372000D01*
X25275627Y-27372000D01*
X25074053Y-27455495D01*
X25401548Y-27128000D01*
X25724373Y-27128000D01*
X26138961Y-26956272D01*
X26272001Y-26823232D01*
X26272000Y-27676767D01*
X26272000Y-27676767D01*
G37*
X26272000Y-27676767D02*
X26138961Y-27543728D01*
X25724373Y-27372000D01*
X25275627Y-27372000D01*
X25074053Y-27455495D01*
X25401548Y-27128000D01*
X25724373Y-27128000D01*
X26138961Y-26956272D01*
X26272001Y-26823232D01*
X26272000Y-27676767D01*
G36*
X2033003Y-26403167D02*
X2200000Y-26436385D01*
X2281344Y-26436385D01*
X2170469Y-26510469D01*
X1928000Y-26873351D01*
X1928000Y-26333007D01*
X2033003Y-26403167D01*
X2033003Y-26403167D01*
G37*
X2033003Y-26403167D02*
X2200000Y-26436385D01*
X2281344Y-26436385D01*
X2170469Y-26510469D01*
X1928000Y-26873351D01*
X1928000Y-26333007D01*
X2033003Y-26403167D01*
G36*
X17696833Y-26016997D02*
X17791429Y-26158571D01*
X17928263Y-26250000D01*
X17791429Y-26341429D01*
X17696833Y-26483003D01*
X17679130Y-26572000D01*
X4870645Y-26572000D01*
X4829531Y-26510469D01*
X4718656Y-26436385D01*
X4800000Y-26436385D01*
X4966997Y-26403167D01*
X5108571Y-26308571D01*
X5203167Y-26166997D01*
X5236385Y-26000000D01*
X5236385Y-25928000D01*
X17679130Y-25928000D01*
X17696833Y-26016997D01*
X17696833Y-26016997D01*
G37*
X17696833Y-26016997D02*
X17791429Y-26158571D01*
X17928263Y-26250000D01*
X17791429Y-26341429D01*
X17696833Y-26483003D01*
X17679130Y-26572000D01*
X4870645Y-26572000D01*
X4829531Y-26510469D01*
X4718656Y-26436385D01*
X4800000Y-26436385D01*
X4966997Y-26403167D01*
X5108571Y-26308571D01*
X5203167Y-26166997D01*
X5236385Y-26000000D01*
X5236385Y-25928000D01*
X17679130Y-25928000D01*
X17696833Y-26016997D01*
G36*
X23872000Y-24025627D02*
X23872000Y-24098452D01*
X22336385Y-25634068D01*
X22336385Y-24693162D01*
X23401548Y-23628000D01*
X24036703Y-23628000D01*
X23872000Y-24025627D01*
X23872000Y-24025627D01*
G37*
X23872000Y-24025627D02*
X23872000Y-24098452D01*
X22336385Y-25634068D01*
X22336385Y-24693162D01*
X23401548Y-23628000D01*
X24036703Y-23628000D01*
X23872000Y-24025627D01*
G36*
X26272001Y-24551549D02*
X26272001Y-25176768D01*
X26138961Y-25043728D01*
X25900344Y-24944889D01*
X25956272Y-24888961D01*
X26128000Y-24474373D01*
X26128000Y-24407548D01*
X26272001Y-24551549D01*
X26272001Y-24551549D01*
G37*
X26272001Y-24551549D02*
X26272001Y-25176768D01*
X26138961Y-25043728D01*
X25900344Y-24944889D01*
X25956272Y-24888961D01*
X26128000Y-24474373D01*
X26128000Y-24407548D01*
X26272001Y-24551549D01*
G36*
X9177111Y-20489500D02*
X5572000Y-20489500D01*
X5572000Y-24072000D01*
X5236385Y-24072000D01*
X5236385Y-24000000D01*
X5203167Y-23833003D01*
X5108571Y-23691429D01*
X4966997Y-23596833D01*
X4800000Y-23563615D01*
X2200000Y-23563615D01*
X2033003Y-23596833D01*
X1928000Y-23666993D01*
X1928000Y-19634250D01*
X2242500Y-19844392D01*
X2242500Y-21683952D01*
X4898500Y-21683952D01*
X4898500Y-19750179D01*
X5021490Y-19668000D01*
X5368609Y-19668000D01*
X5460000Y-19686179D01*
X5551391Y-19668000D01*
X5551397Y-19668000D01*
X5822087Y-19614156D01*
X6129050Y-19409050D01*
X6180823Y-19331566D01*
X6876005Y-18636385D01*
X7300000Y-18636385D01*
X7320015Y-18632404D01*
X9177111Y-20489500D01*
X9177111Y-20489500D01*
G37*
X9177111Y-20489500D02*
X5572000Y-20489500D01*
X5572000Y-24072000D01*
X5236385Y-24072000D01*
X5236385Y-24000000D01*
X5203167Y-23833003D01*
X5108571Y-23691429D01*
X4966997Y-23596833D01*
X4800000Y-23563615D01*
X2200000Y-23563615D01*
X2033003Y-23596833D01*
X1928000Y-23666993D01*
X1928000Y-19634250D01*
X2242500Y-19844392D01*
X2242500Y-21683952D01*
X4898500Y-21683952D01*
X4898500Y-19750179D01*
X5021490Y-19668000D01*
X5368609Y-19668000D01*
X5460000Y-19686179D01*
X5551391Y-19668000D01*
X5551397Y-19668000D01*
X5822087Y-19614156D01*
X6129050Y-19409050D01*
X6180823Y-19331566D01*
X6876005Y-18636385D01*
X7300000Y-18636385D01*
X7320015Y-18632404D01*
X9177111Y-20489500D01*
G36*
X29497000Y-12365580D02*
X29092051Y-11960631D01*
X28383477Y-11667130D01*
X27616523Y-11667130D01*
X26907949Y-11960631D01*
X26398500Y-12470080D01*
X26398500Y-12011285D01*
X23742500Y-12011285D01*
X23742500Y-18988714D01*
X26398500Y-18988714D01*
X26398500Y-18529920D01*
X26907949Y-19039369D01*
X27590136Y-19321940D01*
X27566757Y-19321940D01*
X26766228Y-19653530D01*
X26153530Y-20266228D01*
X26026875Y-20572000D01*
X23674429Y-20572000D01*
X23674429Y-18742500D01*
X17325572Y-18742500D01*
X17325572Y-20572000D01*
X14884390Y-20572000D01*
X13628000Y-19315611D01*
X13628000Y-19275627D01*
X13456272Y-18861039D01*
X13138961Y-18543728D01*
X12724373Y-18372000D01*
X12684390Y-18372000D01*
X9940389Y-15628000D01*
X11782767Y-15628000D01*
X11861039Y-15706272D01*
X12275627Y-15878000D01*
X12724373Y-15878000D01*
X13138961Y-15706272D01*
X13456272Y-15388961D01*
X13628000Y-14974373D01*
X13628000Y-14525627D01*
X13456272Y-14111039D01*
X13138961Y-13793728D01*
X12731616Y-13625000D01*
X13138961Y-13456272D01*
X13456272Y-13138961D01*
X13628000Y-12724373D01*
X13628000Y-12275627D01*
X13456272Y-11861039D01*
X13138961Y-11543728D01*
X12724373Y-11372000D01*
X12684390Y-11372000D01*
X7736385Y-6423996D01*
X7736385Y-6000000D01*
X7703167Y-5833003D01*
X7608571Y-5691429D01*
X7466997Y-5596833D01*
X7300000Y-5563615D01*
X6549237Y-5563615D01*
X6500000Y-5553821D01*
X6450763Y-5563615D01*
X6376004Y-5563615D01*
X6260823Y-5448434D01*
X6209050Y-5370950D01*
X6129998Y-5318129D01*
X11572000Y-5318129D01*
X11572000Y-6681871D01*
X12093882Y-7941806D01*
X13058194Y-8906118D01*
X14318129Y-9428000D01*
X15681871Y-9428000D01*
X16941806Y-8906118D01*
X17906118Y-7941806D01*
X18428000Y-6681871D01*
X18428000Y-5318129D01*
X17906118Y-4058194D01*
X16941806Y-3093882D01*
X15681871Y-2572000D01*
X14318129Y-2572000D01*
X13058194Y-3093882D01*
X12093882Y-4058194D01*
X11572000Y-5318129D01*
X6129998Y-5318129D01*
X5902087Y-5165844D01*
X5631397Y-5112000D01*
X5631391Y-5112000D01*
X5540000Y-5093821D01*
X5448609Y-5112000D01*
X5021490Y-5112000D01*
X4679141Y-4883250D01*
X4320943Y-4812000D01*
X3000390Y-4812000D01*
X3084390Y-4728000D01*
X4320943Y-4728000D01*
X4679141Y-4656750D01*
X5021490Y-4428000D01*
X5657846Y-4428000D01*
X5700000Y-4436385D01*
X7300000Y-4436385D01*
X7466997Y-4403167D01*
X7608571Y-4308571D01*
X7703167Y-4166997D01*
X7736385Y-4000000D01*
X7736385Y-3000000D01*
X7703167Y-2833003D01*
X7608571Y-2691429D01*
X7466997Y-2596833D01*
X7300000Y-2563615D01*
X5700000Y-2563615D01*
X5657846Y-2572000D01*
X5021490Y-2572000D01*
X4679141Y-2343250D01*
X4320943Y-2272000D01*
X2679057Y-2272000D01*
X2320859Y-2343250D01*
X1914662Y-2614662D01*
X1643250Y-3020859D01*
X1547943Y-3500000D01*
X1571115Y-3616495D01*
X503000Y-4684611D01*
X503000Y-503000D01*
X29497000Y-503000D01*
X29497000Y-12365580D01*
X29497000Y-12365580D01*
G37*
X29497000Y-12365580D02*
X29092051Y-11960631D01*
X28383477Y-11667130D01*
X27616523Y-11667130D01*
X26907949Y-11960631D01*
X26398500Y-12470080D01*
X26398500Y-12011285D01*
X23742500Y-12011285D01*
X23742500Y-18988714D01*
X26398500Y-18988714D01*
X26398500Y-18529920D01*
X26907949Y-19039369D01*
X27590136Y-19321940D01*
X27566757Y-19321940D01*
X26766228Y-19653530D01*
X26153530Y-20266228D01*
X26026875Y-20572000D01*
X23674429Y-20572000D01*
X23674429Y-18742500D01*
X17325572Y-18742500D01*
X17325572Y-20572000D01*
X14884390Y-20572000D01*
X13628000Y-19315611D01*
X13628000Y-19275627D01*
X13456272Y-18861039D01*
X13138961Y-18543728D01*
X12724373Y-18372000D01*
X12684390Y-18372000D01*
X9940389Y-15628000D01*
X11782767Y-15628000D01*
X11861039Y-15706272D01*
X12275627Y-15878000D01*
X12724373Y-15878000D01*
X13138961Y-15706272D01*
X13456272Y-15388961D01*
X13628000Y-14974373D01*
X13628000Y-14525627D01*
X13456272Y-14111039D01*
X13138961Y-13793728D01*
X12731616Y-13625000D01*
X13138961Y-13456272D01*
X13456272Y-13138961D01*
X13628000Y-12724373D01*
X13628000Y-12275627D01*
X13456272Y-11861039D01*
X13138961Y-11543728D01*
X12724373Y-11372000D01*
X12684390Y-11372000D01*
X7736385Y-6423996D01*
X7736385Y-6000000D01*
X7703167Y-5833003D01*
X7608571Y-5691429D01*
X7466997Y-5596833D01*
X7300000Y-5563615D01*
X6549237Y-5563615D01*
X6500000Y-5553821D01*
X6450763Y-5563615D01*
X6376004Y-5563615D01*
X6260823Y-5448434D01*
X6209050Y-5370950D01*
X6129998Y-5318129D01*
X11572000Y-5318129D01*
X11572000Y-6681871D01*
X12093882Y-7941806D01*
X13058194Y-8906118D01*
X14318129Y-9428000D01*
X15681871Y-9428000D01*
X16941806Y-8906118D01*
X17906118Y-7941806D01*
X18428000Y-6681871D01*
X18428000Y-5318129D01*
X17906118Y-4058194D01*
X16941806Y-3093882D01*
X15681871Y-2572000D01*
X14318129Y-2572000D01*
X13058194Y-3093882D01*
X12093882Y-4058194D01*
X11572000Y-5318129D01*
X6129998Y-5318129D01*
X5902087Y-5165844D01*
X5631397Y-5112000D01*
X5631391Y-5112000D01*
X5540000Y-5093821D01*
X5448609Y-5112000D01*
X5021490Y-5112000D01*
X4679141Y-4883250D01*
X4320943Y-4812000D01*
X3000390Y-4812000D01*
X3084390Y-4728000D01*
X4320943Y-4728000D01*
X4679141Y-4656750D01*
X5021490Y-4428000D01*
X5657846Y-4428000D01*
X5700000Y-4436385D01*
X7300000Y-4436385D01*
X7466997Y-4403167D01*
X7608571Y-4308571D01*
X7703167Y-4166997D01*
X7736385Y-4000000D01*
X7736385Y-3000000D01*
X7703167Y-2833003D01*
X7608571Y-2691429D01*
X7466997Y-2596833D01*
X7300000Y-2563615D01*
X5700000Y-2563615D01*
X5657846Y-2572000D01*
X5021490Y-2572000D01*
X4679141Y-2343250D01*
X4320943Y-2272000D01*
X2679057Y-2272000D01*
X2320859Y-2343250D01*
X1914662Y-2614662D01*
X1643250Y-3020859D01*
X1547943Y-3500000D01*
X1571115Y-3616495D01*
X503000Y-4684611D01*
X503000Y-503000D01*
X29497000Y-503000D01*
X29497000Y-12365580D01*
G36*
X29497000Y-19916758D02*
X29233772Y-19653530D01*
X28433243Y-19321940D01*
X28409864Y-19321940D01*
X29092051Y-19039369D01*
X29497000Y-18634420D01*
X29497000Y-19916758D01*
X29497000Y-19916758D01*
G37*
X29497000Y-19916758D02*
X29233772Y-19653530D01*
X28433243Y-19321940D01*
X28409864Y-19321940D01*
X29092051Y-19039369D01*
X29497000Y-18634420D01*
X29497000Y-19916758D01*
G36*
X2320859Y-17356750D02*
X2679057Y-17428000D01*
X4320943Y-17428000D01*
X4679141Y-17356750D01*
X5021490Y-17128000D01*
X5277937Y-17128000D01*
X5263615Y-17200000D01*
X5263615Y-17623996D01*
X5075611Y-17812000D01*
X5021490Y-17812000D01*
X4679141Y-17583250D01*
X4320943Y-17512000D01*
X2679057Y-17512000D01*
X2320859Y-17583250D01*
X1928000Y-17845750D01*
X1928000Y-17094250D01*
X2320859Y-17356750D01*
X2320859Y-17356750D01*
G37*
X2320859Y-17356750D02*
X2679057Y-17428000D01*
X4320943Y-17428000D01*
X4679141Y-17356750D01*
X5021490Y-17128000D01*
X5277937Y-17128000D01*
X5263615Y-17200000D01*
X5263615Y-17623996D01*
X5075611Y-17812000D01*
X5021490Y-17812000D01*
X4679141Y-17583250D01*
X4320943Y-17512000D01*
X2679057Y-17512000D01*
X2320859Y-17583250D01*
X1928000Y-17845750D01*
X1928000Y-17094250D01*
X2320859Y-17356750D01*
G36*
X2320859Y-14816750D02*
X2679057Y-14888000D01*
X4320943Y-14888000D01*
X4679141Y-14816750D01*
X5021490Y-14588000D01*
X5075611Y-14588000D01*
X5263615Y-14776004D01*
X5263615Y-15200000D01*
X5277937Y-15272000D01*
X5021490Y-15272000D01*
X4679141Y-15043250D01*
X4320943Y-14972000D01*
X2679057Y-14972000D01*
X2320859Y-15043250D01*
X1928000Y-15305750D01*
X1928000Y-14554250D01*
X2320859Y-14816750D01*
X2320859Y-14816750D01*
G37*
X2320859Y-14816750D02*
X2679057Y-14888000D01*
X4320943Y-14888000D01*
X4679141Y-14816750D01*
X5021490Y-14588000D01*
X5075611Y-14588000D01*
X5263615Y-14776004D01*
X5263615Y-15200000D01*
X5277937Y-15272000D01*
X5021490Y-15272000D01*
X4679141Y-15043250D01*
X4320943Y-14972000D01*
X2679057Y-14972000D01*
X2320859Y-15043250D01*
X1928000Y-15305750D01*
X1928000Y-14554250D01*
X2320859Y-14816750D01*
G36*
X2320859Y-7196750D02*
X2679057Y-7268000D01*
X4320943Y-7268000D01*
X4679141Y-7196750D01*
X5021490Y-6968000D01*
X5155611Y-6968000D01*
X5282487Y-7094876D01*
X5296833Y-7166997D01*
X5391429Y-7308571D01*
X5533003Y-7403167D01*
X5700000Y-7436385D01*
X5950762Y-7436385D01*
X5999999Y-7446179D01*
X6049237Y-7436385D01*
X6123996Y-7436385D01*
X11372000Y-12684390D01*
X11372000Y-12724373D01*
X11543728Y-13138961D01*
X11861039Y-13456272D01*
X12268384Y-13625000D01*
X11913495Y-13772000D01*
X7342154Y-13772000D01*
X7300000Y-13763615D01*
X6876005Y-13763615D01*
X6180823Y-13068434D01*
X6129050Y-12990950D01*
X5822087Y-12785844D01*
X5551397Y-12732000D01*
X5551391Y-12732000D01*
X5460000Y-12713821D01*
X5368609Y-12732000D01*
X5021490Y-12732000D01*
X4898500Y-12649821D01*
X4898500Y-10816047D01*
X2242500Y-10816047D01*
X2242500Y-12555608D01*
X1928000Y-12765750D01*
X1928000Y-6934250D01*
X2320859Y-7196750D01*
X2320859Y-7196750D01*
G37*
X2320859Y-7196750D02*
X2679057Y-7268000D01*
X4320943Y-7268000D01*
X4679141Y-7196750D01*
X5021490Y-6968000D01*
X5155611Y-6968000D01*
X5282487Y-7094876D01*
X5296833Y-7166997D01*
X5391429Y-7308571D01*
X5533003Y-7403167D01*
X5700000Y-7436385D01*
X5950762Y-7436385D01*
X5999999Y-7446179D01*
X6049237Y-7436385D01*
X6123996Y-7436385D01*
X11372000Y-12684390D01*
X11372000Y-12724373D01*
X11543728Y-13138961D01*
X11861039Y-13456272D01*
X12268384Y-13625000D01*
X11913495Y-13772000D01*
X7342154Y-13772000D01*
X7300000Y-13763615D01*
X6876005Y-13763615D01*
X6180823Y-13068434D01*
X6129050Y-12990950D01*
X5822087Y-12785844D01*
X5551397Y-12732000D01*
X5551391Y-12732000D01*
X5460000Y-12713821D01*
X5368609Y-12732000D01*
X5021490Y-12732000D01*
X4898500Y-12649821D01*
X4898500Y-10816047D01*
X2242500Y-10816047D01*
X2242500Y-12555608D01*
X1928000Y-12765750D01*
X1928000Y-6934250D01*
X2320859Y-7196750D01*
G04 #@! TD*
M02*
