G04 #@! TF.FileFunction,Paste,Bot*
%FSLAX46Y46*%
G04 Gerber Fmt 4.6, Leading zero omitted, Abs format (unit mm)*
G04 Created by KiCad (PCBNEW 4.0.7) date 04/23/18 08:39:13*
%MOMM*%
%LPD*%
G01*
G04 APERTURE LIST*
%ADD10C,0.100000*%
%ADD11R,1.600000X1.000000*%
%ADD12R,0.500000X0.800000*%
%ADD13R,0.800000X0.500000*%
%ADD14R,1.050000X0.600000*%
%ADD15R,1.450000X4.600000*%
%ADD16R,3.200000X4.100000*%
%ADD17R,0.900000X1.700000*%
%ADD18R,1.700000X0.900000*%
%ADD19R,1.500000X0.600000*%
G04 APERTURE END LIST*
D10*
D11*
X23250000Y-25750000D03*
X23250000Y-28750000D03*
X14500000Y-22500000D03*
X14500000Y-19500000D03*
X16750000Y-22500000D03*
X16750000Y-19500000D03*
D10*
G36*
X28348528Y-24770101D02*
X29479899Y-25901472D01*
X28772792Y-26608579D01*
X27641421Y-25477208D01*
X28348528Y-24770101D01*
X28348528Y-24770101D01*
G37*
G36*
X26227208Y-26891421D02*
X27358579Y-28022792D01*
X26651472Y-28729899D01*
X25520101Y-27598528D01*
X26227208Y-26891421D01*
X26227208Y-26891421D01*
G37*
D11*
X14500000Y-15500000D03*
X14500000Y-12500000D03*
X16750000Y-15500000D03*
X16750000Y-12500000D03*
X23250000Y-33250000D03*
X23250000Y-30250000D03*
X14500000Y-45500000D03*
X14500000Y-42500000D03*
X16750000Y-45500000D03*
X16750000Y-42500000D03*
X14500000Y-38500000D03*
X14500000Y-35500000D03*
X16750000Y-38500000D03*
X16750000Y-35500000D03*
D12*
X21315000Y-19350000D03*
X22165000Y-19350000D03*
X20465000Y-19350000D03*
X21315000Y-21650000D03*
X22165000Y-21650000D03*
X20465000Y-21650000D03*
X20465000Y-20500000D03*
X22165000Y-20500000D03*
D13*
X18615000Y-18620000D03*
X18615000Y-22380000D03*
X18615000Y-19900000D03*
D14*
X24335000Y-19860000D03*
X24335000Y-18590000D03*
X24335000Y-21140000D03*
D15*
X18865000Y-20500000D03*
D16*
X21065000Y-20500000D03*
D14*
X24335000Y-22410000D03*
D13*
X18615000Y-21100000D03*
D12*
X21315000Y-20500000D03*
X21315000Y-13350000D03*
X22165000Y-13350000D03*
X20465000Y-13350000D03*
X21315000Y-15650000D03*
X22165000Y-15650000D03*
X20465000Y-15650000D03*
X20465000Y-14500000D03*
X22165000Y-14500000D03*
D13*
X18615000Y-12620000D03*
X18615000Y-16380000D03*
X18615000Y-13900000D03*
D14*
X24335000Y-13860000D03*
X24335000Y-12590000D03*
X24335000Y-15140000D03*
D15*
X18865000Y-14500000D03*
D16*
X21065000Y-14500000D03*
D14*
X24335000Y-16410000D03*
D13*
X18615000Y-15100000D03*
D12*
X21315000Y-14500000D03*
X21315000Y-42350000D03*
X22165000Y-42350000D03*
X20465000Y-42350000D03*
X21315000Y-44650000D03*
X22165000Y-44650000D03*
X20465000Y-44650000D03*
X20465000Y-43500000D03*
X22165000Y-43500000D03*
D13*
X18615000Y-41620000D03*
X18615000Y-45380000D03*
X18615000Y-42900000D03*
D14*
X24335000Y-42860000D03*
X24335000Y-41590000D03*
X24335000Y-44140000D03*
D15*
X18865000Y-43500000D03*
D16*
X21065000Y-43500000D03*
D14*
X24335000Y-45410000D03*
D13*
X18615000Y-44100000D03*
D12*
X21315000Y-43500000D03*
X21315000Y-36350000D03*
X22165000Y-36350000D03*
X20465000Y-36350000D03*
X21315000Y-38650000D03*
X22165000Y-38650000D03*
X20465000Y-38650000D03*
X20465000Y-37500000D03*
X22165000Y-37500000D03*
D13*
X18615000Y-35620000D03*
X18615000Y-39380000D03*
X18615000Y-36900000D03*
D14*
X24335000Y-36860000D03*
X24335000Y-35590000D03*
X24335000Y-38140000D03*
D15*
X18865000Y-37500000D03*
D16*
X21065000Y-37500000D03*
D14*
X24335000Y-39410000D03*
D13*
X18615000Y-38100000D03*
D12*
X21315000Y-37500000D03*
D17*
X16950000Y-17500000D03*
X14050000Y-17500000D03*
D18*
X27750000Y-33200000D03*
X27750000Y-30300000D03*
X25500000Y-33200000D03*
X25500000Y-30300000D03*
D17*
X16950000Y-40500000D03*
X14050000Y-40500000D03*
D19*
X20650000Y-24555000D03*
X20650000Y-25825000D03*
X20650000Y-27095000D03*
X20650000Y-28365000D03*
X20650000Y-29635000D03*
X20650000Y-30905000D03*
X20650000Y-32175000D03*
X20650000Y-33445000D03*
X11350000Y-33445000D03*
X11350000Y-32175000D03*
X11350000Y-30905000D03*
X11350000Y-29635000D03*
X11350000Y-28365000D03*
X11350000Y-27095000D03*
X11350000Y-25825000D03*
X11350000Y-24555000D03*
M02*
