G04 #@! TF.FileFunction,Legend,Bot*
%FSLAX46Y46*%
G04 Gerber Fmt 4.6, Leading zero omitted, Abs format (unit mm)*
G04 Created by KiCad (PCBNEW 4.0.7) date 04/20/18 12:20:10*
%MOMM*%
%LPD*%
G01*
G04 APERTURE LIST*
%ADD10C,0.100000*%
%ADD11C,0.120000*%
%ADD12C,0.150000*%
G04 APERTURE END LIST*
D10*
D11*
X480000Y-23630000D02*
X6480000Y-23630000D01*
X6480000Y-23630000D02*
X6480000Y-33990000D01*
X6480000Y-33990000D02*
X480000Y-33990000D01*
X480000Y-33990000D02*
X480000Y-23630000D01*
X6480000Y-25000000D02*
X5480000Y-25000000D01*
X5480000Y-25000000D02*
X5480000Y-32620000D01*
X5480000Y-32620000D02*
X6480000Y-32620000D01*
X5480000Y-25000000D02*
X5050000Y-25250000D01*
X5050000Y-25250000D02*
X5050000Y-32370000D01*
X5050000Y-32370000D02*
X5480000Y-32620000D01*
X6480000Y-25250000D02*
X5480000Y-25250000D01*
X6480000Y-32370000D02*
X5480000Y-32370000D01*
X480000Y-24200000D02*
X1100000Y-24200000D01*
X1100000Y-24200000D02*
X1100000Y-25800000D01*
X1100000Y-25800000D02*
X480000Y-25800000D01*
X480000Y-26740000D02*
X1100000Y-26740000D01*
X1100000Y-26740000D02*
X1100000Y-28340000D01*
X1100000Y-28340000D02*
X480000Y-28340000D01*
X480000Y-29280000D02*
X1100000Y-29280000D01*
X1100000Y-29280000D02*
X1100000Y-30880000D01*
X1100000Y-30880000D02*
X480000Y-30880000D01*
X480000Y-31820000D02*
X1100000Y-31820000D01*
X1100000Y-31820000D02*
X1100000Y-33420000D01*
X1100000Y-33420000D02*
X480000Y-33420000D01*
X22230000Y-28250000D02*
X22230000Y-26250000D01*
X24270000Y-26250000D02*
X24270000Y-28250000D01*
X15520000Y-20000000D02*
X15520000Y-22000000D01*
X13480000Y-22000000D02*
X13480000Y-20000000D01*
X17770000Y-20000000D02*
X17770000Y-22000000D01*
X15730000Y-22000000D02*
X15730000Y-20000000D01*
X26071644Y-26735858D02*
X27485858Y-25321644D01*
X28928356Y-26764142D02*
X27514142Y-28178356D01*
X15520000Y-13000000D02*
X15520000Y-15000000D01*
X13480000Y-15000000D02*
X13480000Y-13000000D01*
X17770000Y-13000000D02*
X17770000Y-15000000D01*
X15730000Y-15000000D02*
X15730000Y-13000000D01*
X24270000Y-30750000D02*
X24270000Y-32750000D01*
X22230000Y-32750000D02*
X22230000Y-30750000D01*
X15520000Y-43000000D02*
X15520000Y-45000000D01*
X13480000Y-45000000D02*
X13480000Y-43000000D01*
X17770000Y-43000000D02*
X17770000Y-45000000D01*
X15730000Y-45000000D02*
X15730000Y-43000000D01*
X15520000Y-36000000D02*
X15520000Y-38000000D01*
X13480000Y-38000000D02*
X13480000Y-36000000D01*
X17770000Y-36000000D02*
X17770000Y-38000000D01*
X15730000Y-38000000D02*
X15730000Y-36000000D01*
X23815000Y-22900000D02*
X23815000Y-23100000D01*
X23815000Y-23100000D02*
X19515000Y-23100000D01*
X19515000Y-23100000D02*
X19515000Y-22950000D01*
X19515000Y-18050000D02*
X19515000Y-17900000D01*
X19515000Y-17900000D02*
X23815000Y-17900000D01*
X23815000Y-17900000D02*
X23815000Y-18100000D01*
X23815000Y-16900000D02*
X23815000Y-17100000D01*
X23815000Y-17100000D02*
X19515000Y-17100000D01*
X19515000Y-17100000D02*
X19515000Y-16950000D01*
X19515000Y-12050000D02*
X19515000Y-11900000D01*
X19515000Y-11900000D02*
X23815000Y-11900000D01*
X23815000Y-11900000D02*
X23815000Y-12100000D01*
X23815000Y-45900000D02*
X23815000Y-46100000D01*
X23815000Y-46100000D02*
X19515000Y-46100000D01*
X19515000Y-46100000D02*
X19515000Y-45950000D01*
X19515000Y-41050000D02*
X19515000Y-40900000D01*
X19515000Y-40900000D02*
X23815000Y-40900000D01*
X23815000Y-40900000D02*
X23815000Y-41100000D01*
X23815000Y-39900000D02*
X23815000Y-40100000D01*
X23815000Y-40100000D02*
X19515000Y-40100000D01*
X19515000Y-40100000D02*
X19515000Y-39950000D01*
X19515000Y-35050000D02*
X19515000Y-34900000D01*
X19515000Y-34900000D02*
X23815000Y-34900000D01*
X23815000Y-34900000D02*
X23815000Y-35100000D01*
X14500000Y-18570000D02*
X16500000Y-18570000D01*
X16500000Y-16430000D02*
X14500000Y-16430000D01*
X26680000Y-30750000D02*
X26680000Y-32750000D01*
X28820000Y-32750000D02*
X28820000Y-30750000D01*
X24430000Y-30750000D02*
X24430000Y-32750000D01*
X26570000Y-32750000D02*
X26570000Y-30750000D01*
X14500000Y-41570000D02*
X16500000Y-41570000D01*
X16500000Y-39430000D02*
X14500000Y-39430000D01*
D12*
X19875000Y-23675000D02*
X19875000Y-23950000D01*
X12125000Y-23675000D02*
X12125000Y-24030000D01*
X12125000Y-34325000D02*
X12125000Y-33970000D01*
X19875000Y-34325000D02*
X19875000Y-33970000D01*
X19875000Y-23675000D02*
X12125000Y-23675000D01*
X19875000Y-34325000D02*
X12125000Y-34325000D01*
X19875000Y-23950000D02*
X21400000Y-23950000D01*
X10993000Y-20899000D02*
X10993000Y-1087000D01*
X10993000Y-20899000D02*
X833000Y-20899000D01*
X833000Y-20899000D02*
X833000Y-1087000D01*
X10993000Y-1087000D02*
X833000Y-1087000D01*
X10993000Y-56899000D02*
X10993000Y-37087000D01*
X10993000Y-56899000D02*
X833000Y-56899000D01*
X833000Y-56899000D02*
X833000Y-37087000D01*
X10993000Y-37087000D02*
X833000Y-37087000D01*
X6083333Y-34702381D02*
X6083333Y-35416667D01*
X6130953Y-35559524D01*
X6226191Y-35654762D01*
X6369048Y-35702381D01*
X6464286Y-35702381D01*
X5083333Y-35702381D02*
X5654762Y-35702381D01*
X5369048Y-35702381D02*
X5369048Y-34702381D01*
X5464286Y-34845238D01*
X5559524Y-34940476D01*
X5654762Y-34988095D01*
X23607143Y-26607143D02*
X23654762Y-26559524D01*
X23702381Y-26416667D01*
X23702381Y-26321429D01*
X23654762Y-26178571D01*
X23559524Y-26083333D01*
X23464286Y-26035714D01*
X23273810Y-25988095D01*
X23130952Y-25988095D01*
X22940476Y-26035714D01*
X22845238Y-26083333D01*
X22750000Y-26178571D01*
X22702381Y-26321429D01*
X22702381Y-26416667D01*
X22750000Y-26559524D01*
X22797619Y-26607143D01*
X23702381Y-27559524D02*
X23702381Y-26988095D01*
X23702381Y-27273809D02*
X22702381Y-27273809D01*
X22845238Y-27178571D01*
X22940476Y-27083333D01*
X22988095Y-26988095D01*
X23702381Y-28511905D02*
X23702381Y-27940476D01*
X23702381Y-28226190D02*
X22702381Y-28226190D01*
X22845238Y-28130952D01*
X22940476Y-28035714D01*
X22988095Y-27940476D01*
X14857143Y-20833334D02*
X14904762Y-20785715D01*
X14952381Y-20642858D01*
X14952381Y-20547620D01*
X14904762Y-20404762D01*
X14809524Y-20309524D01*
X14714286Y-20261905D01*
X14523810Y-20214286D01*
X14380952Y-20214286D01*
X14190476Y-20261905D01*
X14095238Y-20309524D01*
X14000000Y-20404762D01*
X13952381Y-20547620D01*
X13952381Y-20642858D01*
X14000000Y-20785715D01*
X14047619Y-20833334D01*
X13952381Y-21690477D02*
X13952381Y-21500000D01*
X14000000Y-21404762D01*
X14047619Y-21357143D01*
X14190476Y-21261905D01*
X14380952Y-21214286D01*
X14761905Y-21214286D01*
X14857143Y-21261905D01*
X14904762Y-21309524D01*
X14952381Y-21404762D01*
X14952381Y-21595239D01*
X14904762Y-21690477D01*
X14857143Y-21738096D01*
X14761905Y-21785715D01*
X14523810Y-21785715D01*
X14428571Y-21738096D01*
X14380952Y-21690477D01*
X14333333Y-21595239D01*
X14333333Y-21404762D01*
X14380952Y-21309524D01*
X14428571Y-21261905D01*
X14523810Y-21214286D01*
X17107143Y-20833334D02*
X17154762Y-20785715D01*
X17202381Y-20642858D01*
X17202381Y-20547620D01*
X17154762Y-20404762D01*
X17059524Y-20309524D01*
X16964286Y-20261905D01*
X16773810Y-20214286D01*
X16630952Y-20214286D01*
X16440476Y-20261905D01*
X16345238Y-20309524D01*
X16250000Y-20404762D01*
X16202381Y-20547620D01*
X16202381Y-20642858D01*
X16250000Y-20785715D01*
X16297619Y-20833334D01*
X16202381Y-21166667D02*
X16202381Y-21833334D01*
X17202381Y-21404762D01*
X27870389Y-26884688D02*
X27937732Y-26884688D01*
X28072419Y-26817344D01*
X28139763Y-26750001D01*
X28207107Y-26615313D01*
X28207107Y-26480626D01*
X28173435Y-26379611D01*
X28072420Y-26211253D01*
X27971404Y-26110237D01*
X27803045Y-26009222D01*
X27702030Y-25975550D01*
X27567343Y-25975550D01*
X27432656Y-26042894D01*
X27365312Y-26110237D01*
X27297969Y-26244924D01*
X27297969Y-26312268D01*
X27129610Y-26952030D02*
X27163282Y-26851015D01*
X27163282Y-26783672D01*
X27129610Y-26682657D01*
X27095939Y-26648985D01*
X26994924Y-26615313D01*
X26927580Y-26615313D01*
X26826565Y-26648985D01*
X26691877Y-26783672D01*
X26658206Y-26884688D01*
X26658206Y-26952031D01*
X26691877Y-27053046D01*
X26725549Y-27086718D01*
X26826564Y-27120390D01*
X26893908Y-27120390D01*
X26994923Y-27086718D01*
X27129610Y-26952030D01*
X27230626Y-26918359D01*
X27297969Y-26918359D01*
X27398985Y-26952031D01*
X27533672Y-27086718D01*
X27567343Y-27187733D01*
X27567343Y-27255076D01*
X27533672Y-27356092D01*
X27398984Y-27490779D01*
X27297969Y-27524451D01*
X27230626Y-27524451D01*
X27129610Y-27490779D01*
X26994924Y-27356092D01*
X26961251Y-27255076D01*
X26961251Y-27187733D01*
X26994923Y-27086718D01*
X14857143Y-13833334D02*
X14904762Y-13785715D01*
X14952381Y-13642858D01*
X14952381Y-13547620D01*
X14904762Y-13404762D01*
X14809524Y-13309524D01*
X14714286Y-13261905D01*
X14523810Y-13214286D01*
X14380952Y-13214286D01*
X14190476Y-13261905D01*
X14095238Y-13309524D01*
X14000000Y-13404762D01*
X13952381Y-13547620D01*
X13952381Y-13642858D01*
X14000000Y-13785715D01*
X14047619Y-13833334D01*
X14952381Y-14309524D02*
X14952381Y-14500000D01*
X14904762Y-14595239D01*
X14857143Y-14642858D01*
X14714286Y-14738096D01*
X14523810Y-14785715D01*
X14142857Y-14785715D01*
X14047619Y-14738096D01*
X14000000Y-14690477D01*
X13952381Y-14595239D01*
X13952381Y-14404762D01*
X14000000Y-14309524D01*
X14047619Y-14261905D01*
X14142857Y-14214286D01*
X14380952Y-14214286D01*
X14476190Y-14261905D01*
X14523810Y-14309524D01*
X14571429Y-14404762D01*
X14571429Y-14595239D01*
X14523810Y-14690477D01*
X14476190Y-14738096D01*
X14380952Y-14785715D01*
X17107143Y-13357143D02*
X17154762Y-13309524D01*
X17202381Y-13166667D01*
X17202381Y-13071429D01*
X17154762Y-12928571D01*
X17059524Y-12833333D01*
X16964286Y-12785714D01*
X16773810Y-12738095D01*
X16630952Y-12738095D01*
X16440476Y-12785714D01*
X16345238Y-12833333D01*
X16250000Y-12928571D01*
X16202381Y-13071429D01*
X16202381Y-13166667D01*
X16250000Y-13309524D01*
X16297619Y-13357143D01*
X17202381Y-14309524D02*
X17202381Y-13738095D01*
X17202381Y-14023809D02*
X16202381Y-14023809D01*
X16345238Y-13928571D01*
X16440476Y-13833333D01*
X16488095Y-13738095D01*
X16202381Y-14928571D02*
X16202381Y-15023810D01*
X16250000Y-15119048D01*
X16297619Y-15166667D01*
X16392857Y-15214286D01*
X16583333Y-15261905D01*
X16821429Y-15261905D01*
X17011905Y-15214286D01*
X17107143Y-15166667D01*
X17154762Y-15119048D01*
X17202381Y-15023810D01*
X17202381Y-14928571D01*
X17154762Y-14833333D01*
X17107143Y-14785714D01*
X17011905Y-14738095D01*
X16821429Y-14690476D01*
X16583333Y-14690476D01*
X16392857Y-14738095D01*
X16297619Y-14785714D01*
X16250000Y-14833333D01*
X16202381Y-14928571D01*
X23607143Y-31107143D02*
X23654762Y-31059524D01*
X23702381Y-30916667D01*
X23702381Y-30821429D01*
X23654762Y-30678571D01*
X23559524Y-30583333D01*
X23464286Y-30535714D01*
X23273810Y-30488095D01*
X23130952Y-30488095D01*
X22940476Y-30535714D01*
X22845238Y-30583333D01*
X22750000Y-30678571D01*
X22702381Y-30821429D01*
X22702381Y-30916667D01*
X22750000Y-31059524D01*
X22797619Y-31107143D01*
X23702381Y-32059524D02*
X23702381Y-31488095D01*
X23702381Y-31773809D02*
X22702381Y-31773809D01*
X22845238Y-31678571D01*
X22940476Y-31583333D01*
X22988095Y-31488095D01*
X22797619Y-32440476D02*
X22750000Y-32488095D01*
X22702381Y-32583333D01*
X22702381Y-32821429D01*
X22750000Y-32916667D01*
X22797619Y-32964286D01*
X22892857Y-33011905D01*
X22988095Y-33011905D01*
X23130952Y-32964286D01*
X23702381Y-32392857D01*
X23702381Y-33011905D01*
X14857143Y-43357143D02*
X14904762Y-43309524D01*
X14952381Y-43166667D01*
X14952381Y-43071429D01*
X14904762Y-42928571D01*
X14809524Y-42833333D01*
X14714286Y-42785714D01*
X14523810Y-42738095D01*
X14380952Y-42738095D01*
X14190476Y-42785714D01*
X14095238Y-42833333D01*
X14000000Y-42928571D01*
X13952381Y-43071429D01*
X13952381Y-43166667D01*
X14000000Y-43309524D01*
X14047619Y-43357143D01*
X14952381Y-44309524D02*
X14952381Y-43738095D01*
X14952381Y-44023809D02*
X13952381Y-44023809D01*
X14095238Y-43928571D01*
X14190476Y-43833333D01*
X14238095Y-43738095D01*
X14285714Y-45166667D02*
X14952381Y-45166667D01*
X13904762Y-44928571D02*
X14619048Y-44690476D01*
X14619048Y-45309524D01*
X17107143Y-43357143D02*
X17154762Y-43309524D01*
X17202381Y-43166667D01*
X17202381Y-43071429D01*
X17154762Y-42928571D01*
X17059524Y-42833333D01*
X16964286Y-42785714D01*
X16773810Y-42738095D01*
X16630952Y-42738095D01*
X16440476Y-42785714D01*
X16345238Y-42833333D01*
X16250000Y-42928571D01*
X16202381Y-43071429D01*
X16202381Y-43166667D01*
X16250000Y-43309524D01*
X16297619Y-43357143D01*
X17202381Y-44309524D02*
X17202381Y-43738095D01*
X17202381Y-44023809D02*
X16202381Y-44023809D01*
X16345238Y-43928571D01*
X16440476Y-43833333D01*
X16488095Y-43738095D01*
X16202381Y-45214286D02*
X16202381Y-44738095D01*
X16678571Y-44690476D01*
X16630952Y-44738095D01*
X16583333Y-44833333D01*
X16583333Y-45071429D01*
X16630952Y-45166667D01*
X16678571Y-45214286D01*
X16773810Y-45261905D01*
X17011905Y-45261905D01*
X17107143Y-45214286D01*
X17154762Y-45166667D01*
X17202381Y-45071429D01*
X17202381Y-44833333D01*
X17154762Y-44738095D01*
X17107143Y-44690476D01*
X14857143Y-36357143D02*
X14904762Y-36309524D01*
X14952381Y-36166667D01*
X14952381Y-36071429D01*
X14904762Y-35928571D01*
X14809524Y-35833333D01*
X14714286Y-35785714D01*
X14523810Y-35738095D01*
X14380952Y-35738095D01*
X14190476Y-35785714D01*
X14095238Y-35833333D01*
X14000000Y-35928571D01*
X13952381Y-36071429D01*
X13952381Y-36166667D01*
X14000000Y-36309524D01*
X14047619Y-36357143D01*
X14952381Y-37309524D02*
X14952381Y-36738095D01*
X14952381Y-37023809D02*
X13952381Y-37023809D01*
X14095238Y-36928571D01*
X14190476Y-36833333D01*
X14238095Y-36738095D01*
X13952381Y-38166667D02*
X13952381Y-37976190D01*
X14000000Y-37880952D01*
X14047619Y-37833333D01*
X14190476Y-37738095D01*
X14380952Y-37690476D01*
X14761905Y-37690476D01*
X14857143Y-37738095D01*
X14904762Y-37785714D01*
X14952381Y-37880952D01*
X14952381Y-38071429D01*
X14904762Y-38166667D01*
X14857143Y-38214286D01*
X14761905Y-38261905D01*
X14523810Y-38261905D01*
X14428571Y-38214286D01*
X14380952Y-38166667D01*
X14333333Y-38071429D01*
X14333333Y-37880952D01*
X14380952Y-37785714D01*
X14428571Y-37738095D01*
X14523810Y-37690476D01*
X17107143Y-36357143D02*
X17154762Y-36309524D01*
X17202381Y-36166667D01*
X17202381Y-36071429D01*
X17154762Y-35928571D01*
X17059524Y-35833333D01*
X16964286Y-35785714D01*
X16773810Y-35738095D01*
X16630952Y-35738095D01*
X16440476Y-35785714D01*
X16345238Y-35833333D01*
X16250000Y-35928571D01*
X16202381Y-36071429D01*
X16202381Y-36166667D01*
X16250000Y-36309524D01*
X16297619Y-36357143D01*
X17202381Y-37309524D02*
X17202381Y-36738095D01*
X17202381Y-37023809D02*
X16202381Y-37023809D01*
X16345238Y-36928571D01*
X16440476Y-36833333D01*
X16488095Y-36738095D01*
X16202381Y-37642857D02*
X16202381Y-38309524D01*
X17202381Y-37880952D01*
X22047619Y-20404762D02*
X22000000Y-20309524D01*
X21904762Y-20214286D01*
X21761905Y-20071429D01*
X21714286Y-19976190D01*
X21714286Y-19880952D01*
X21952381Y-19928571D02*
X21904762Y-19833333D01*
X21809524Y-19738095D01*
X21619048Y-19690476D01*
X21285714Y-19690476D01*
X21095238Y-19738095D01*
X21000000Y-19833333D01*
X20952381Y-19928571D01*
X20952381Y-20119048D01*
X21000000Y-20214286D01*
X21095238Y-20309524D01*
X21285714Y-20357143D01*
X21619048Y-20357143D01*
X21809524Y-20309524D01*
X21904762Y-20214286D01*
X21952381Y-20119048D01*
X21952381Y-19928571D01*
X21952381Y-21309524D02*
X21952381Y-20738095D01*
X21952381Y-21023809D02*
X20952381Y-21023809D01*
X21095238Y-20928571D01*
X21190476Y-20833333D01*
X21238095Y-20738095D01*
X22047619Y-14404762D02*
X22000000Y-14309524D01*
X21904762Y-14214286D01*
X21761905Y-14071429D01*
X21714286Y-13976190D01*
X21714286Y-13880952D01*
X21952381Y-13928571D02*
X21904762Y-13833333D01*
X21809524Y-13738095D01*
X21619048Y-13690476D01*
X21285714Y-13690476D01*
X21095238Y-13738095D01*
X21000000Y-13833333D01*
X20952381Y-13928571D01*
X20952381Y-14119048D01*
X21000000Y-14214286D01*
X21095238Y-14309524D01*
X21285714Y-14357143D01*
X21619048Y-14357143D01*
X21809524Y-14309524D01*
X21904762Y-14214286D01*
X21952381Y-14119048D01*
X21952381Y-13928571D01*
X21047619Y-14738095D02*
X21000000Y-14785714D01*
X20952381Y-14880952D01*
X20952381Y-15119048D01*
X21000000Y-15214286D01*
X21047619Y-15261905D01*
X21142857Y-15309524D01*
X21238095Y-15309524D01*
X21380952Y-15261905D01*
X21952381Y-14690476D01*
X21952381Y-15309524D01*
X22047619Y-43404762D02*
X22000000Y-43309524D01*
X21904762Y-43214286D01*
X21761905Y-43071429D01*
X21714286Y-42976190D01*
X21714286Y-42880952D01*
X21952381Y-42928571D02*
X21904762Y-42833333D01*
X21809524Y-42738095D01*
X21619048Y-42690476D01*
X21285714Y-42690476D01*
X21095238Y-42738095D01*
X21000000Y-42833333D01*
X20952381Y-42928571D01*
X20952381Y-43119048D01*
X21000000Y-43214286D01*
X21095238Y-43309524D01*
X21285714Y-43357143D01*
X21619048Y-43357143D01*
X21809524Y-43309524D01*
X21904762Y-43214286D01*
X21952381Y-43119048D01*
X21952381Y-42928571D01*
X21285714Y-44214286D02*
X21952381Y-44214286D01*
X20904762Y-43976190D02*
X21619048Y-43738095D01*
X21619048Y-44357143D01*
X22047619Y-37404762D02*
X22000000Y-37309524D01*
X21904762Y-37214286D01*
X21761905Y-37071429D01*
X21714286Y-36976190D01*
X21714286Y-36880952D01*
X21952381Y-36928571D02*
X21904762Y-36833333D01*
X21809524Y-36738095D01*
X21619048Y-36690476D01*
X21285714Y-36690476D01*
X21095238Y-36738095D01*
X21000000Y-36833333D01*
X20952381Y-36928571D01*
X20952381Y-37119048D01*
X21000000Y-37214286D01*
X21095238Y-37309524D01*
X21285714Y-37357143D01*
X21619048Y-37357143D01*
X21809524Y-37309524D01*
X21904762Y-37214286D01*
X21952381Y-37119048D01*
X21952381Y-36928571D01*
X20952381Y-38261905D02*
X20952381Y-37785714D01*
X21428571Y-37738095D01*
X21380952Y-37785714D01*
X21333333Y-37880952D01*
X21333333Y-38119048D01*
X21380952Y-38214286D01*
X21428571Y-38261905D01*
X21523810Y-38309524D01*
X21761905Y-38309524D01*
X21857143Y-38261905D01*
X21904762Y-38214286D01*
X21952381Y-38119048D01*
X21952381Y-37880952D01*
X21904762Y-37785714D01*
X21857143Y-37738095D01*
X15666666Y-17952381D02*
X16000000Y-17476190D01*
X16238095Y-17952381D02*
X16238095Y-16952381D01*
X15857142Y-16952381D01*
X15761904Y-17000000D01*
X15714285Y-17047619D01*
X15666666Y-17142857D01*
X15666666Y-17285714D01*
X15714285Y-17380952D01*
X15761904Y-17428571D01*
X15857142Y-17476190D01*
X16238095Y-17476190D01*
X15285714Y-17047619D02*
X15238095Y-17000000D01*
X15142857Y-16952381D01*
X14904761Y-16952381D01*
X14809523Y-17000000D01*
X14761904Y-17047619D01*
X14714285Y-17142857D01*
X14714285Y-17238095D01*
X14761904Y-17380952D01*
X15333333Y-17952381D01*
X14714285Y-17952381D01*
X28202381Y-31583334D02*
X27726190Y-31250000D01*
X28202381Y-31011905D02*
X27202381Y-31011905D01*
X27202381Y-31392858D01*
X27250000Y-31488096D01*
X27297619Y-31535715D01*
X27392857Y-31583334D01*
X27535714Y-31583334D01*
X27630952Y-31535715D01*
X27678571Y-31488096D01*
X27726190Y-31392858D01*
X27726190Y-31011905D01*
X27202381Y-31916667D02*
X27202381Y-32535715D01*
X27583333Y-32202381D01*
X27583333Y-32345239D01*
X27630952Y-32440477D01*
X27678571Y-32488096D01*
X27773810Y-32535715D01*
X28011905Y-32535715D01*
X28107143Y-32488096D01*
X28154762Y-32440477D01*
X28202381Y-32345239D01*
X28202381Y-32059524D01*
X28154762Y-31964286D01*
X28107143Y-31916667D01*
X25952381Y-31583334D02*
X25476190Y-31250000D01*
X25952381Y-31011905D02*
X24952381Y-31011905D01*
X24952381Y-31392858D01*
X25000000Y-31488096D01*
X25047619Y-31535715D01*
X25142857Y-31583334D01*
X25285714Y-31583334D01*
X25380952Y-31535715D01*
X25428571Y-31488096D01*
X25476190Y-31392858D01*
X25476190Y-31011905D01*
X24952381Y-32488096D02*
X24952381Y-32011905D01*
X25428571Y-31964286D01*
X25380952Y-32011905D01*
X25333333Y-32107143D01*
X25333333Y-32345239D01*
X25380952Y-32440477D01*
X25428571Y-32488096D01*
X25523810Y-32535715D01*
X25761905Y-32535715D01*
X25857143Y-32488096D01*
X25904762Y-32440477D01*
X25952381Y-32345239D01*
X25952381Y-32107143D01*
X25904762Y-32011905D01*
X25857143Y-31964286D01*
X15666666Y-40952381D02*
X16000000Y-40476190D01*
X16238095Y-40952381D02*
X16238095Y-39952381D01*
X15857142Y-39952381D01*
X15761904Y-40000000D01*
X15714285Y-40047619D01*
X15666666Y-40142857D01*
X15666666Y-40285714D01*
X15714285Y-40380952D01*
X15761904Y-40428571D01*
X15857142Y-40476190D01*
X16238095Y-40476190D01*
X14809523Y-39952381D02*
X15000000Y-39952381D01*
X15095238Y-40000000D01*
X15142857Y-40047619D01*
X15238095Y-40190476D01*
X15285714Y-40380952D01*
X15285714Y-40761905D01*
X15238095Y-40857143D01*
X15190476Y-40904762D01*
X15095238Y-40952381D01*
X14904761Y-40952381D01*
X14809523Y-40904762D01*
X14761904Y-40857143D01*
X14714285Y-40761905D01*
X14714285Y-40523810D01*
X14761904Y-40428571D01*
X14809523Y-40380952D01*
X14904761Y-40333333D01*
X15095238Y-40333333D01*
X15190476Y-40380952D01*
X15238095Y-40428571D01*
X15285714Y-40523810D01*
X16761905Y-28452381D02*
X16761905Y-29261905D01*
X16714286Y-29357143D01*
X16666667Y-29404762D01*
X16571429Y-29452381D01*
X16380952Y-29452381D01*
X16285714Y-29404762D01*
X16238095Y-29357143D01*
X16190476Y-29261905D01*
X16190476Y-28452381D01*
X15809524Y-28452381D02*
X15190476Y-28452381D01*
X15523810Y-28833333D01*
X15380952Y-28833333D01*
X15285714Y-28880952D01*
X15238095Y-28928571D01*
X15190476Y-29023810D01*
X15190476Y-29261905D01*
X15238095Y-29357143D01*
X15285714Y-29404762D01*
X15380952Y-29452381D01*
X15666667Y-29452381D01*
X15761905Y-29404762D01*
X15809524Y-29357143D01*
X11011905Y-21202381D02*
X11011905Y-22011905D01*
X10964286Y-22107143D01*
X10916667Y-22154762D01*
X10821429Y-22202381D01*
X10630952Y-22202381D01*
X10535714Y-22154762D01*
X10488095Y-22107143D01*
X10440476Y-22011905D01*
X10440476Y-21202381D01*
X10011905Y-21297619D02*
X9964286Y-21250000D01*
X9869048Y-21202381D01*
X9630952Y-21202381D01*
X9535714Y-21250000D01*
X9488095Y-21297619D01*
X9440476Y-21392857D01*
X9440476Y-21488095D01*
X9488095Y-21630952D01*
X10059524Y-22202381D01*
X9440476Y-22202381D01*
X8175000Y-6111429D02*
X7413095Y-6111429D01*
X7079762Y-5492381D02*
X6746429Y-6492381D01*
X6413095Y-5492381D01*
X6079762Y-6492381D02*
X6079762Y-5825714D01*
X6079762Y-5492381D02*
X6127381Y-5540000D01*
X6079762Y-5587619D01*
X6032143Y-5540000D01*
X6079762Y-5492381D01*
X6079762Y-5587619D01*
X5603572Y-5825714D02*
X5603572Y-6492381D01*
X5603572Y-5920952D02*
X5555953Y-5873333D01*
X5460715Y-5825714D01*
X5317857Y-5825714D01*
X5222619Y-5873333D01*
X5175000Y-5968571D01*
X5175000Y-6492381D01*
X6420952Y-13731429D02*
X5659047Y-13731429D01*
X6516191Y-15652381D02*
X6420952Y-15652381D01*
X6325714Y-15700000D01*
X6278095Y-15747619D01*
X6230476Y-15842857D01*
X6182857Y-16033333D01*
X6182857Y-16271429D01*
X6230476Y-16461905D01*
X6278095Y-16557143D01*
X6325714Y-16604762D01*
X6420952Y-16652381D01*
X6516191Y-16652381D01*
X6611429Y-16604762D01*
X6659048Y-16557143D01*
X6706667Y-16461905D01*
X6754286Y-16271429D01*
X6754286Y-16033333D01*
X6706667Y-15842857D01*
X6659048Y-15747619D01*
X6611429Y-15700000D01*
X6516191Y-15652381D01*
X5897143Y-15652381D02*
X5563810Y-16652381D01*
X5230476Y-15652381D01*
X6111429Y-18359048D02*
X6111429Y-19120953D01*
X6492381Y-18740001D02*
X5730476Y-18740001D01*
X8175000Y-3571429D02*
X7413095Y-3571429D01*
X7794047Y-3952381D02*
X7794047Y-3190476D01*
X7079762Y-2952381D02*
X6746429Y-3952381D01*
X6413095Y-2952381D01*
X6079762Y-3952381D02*
X6079762Y-3285714D01*
X6079762Y-2952381D02*
X6127381Y-3000000D01*
X6079762Y-3047619D01*
X6032143Y-3000000D01*
X6079762Y-2952381D01*
X6079762Y-3047619D01*
X5603572Y-3285714D02*
X5603572Y-3952381D01*
X5603572Y-3380952D02*
X5555953Y-3333333D01*
X5460715Y-3285714D01*
X5317857Y-3285714D01*
X5222619Y-3333333D01*
X5175000Y-3428571D01*
X5175000Y-3952381D01*
X10761905Y-35702381D02*
X10761905Y-36511905D01*
X10714286Y-36607143D01*
X10666667Y-36654762D01*
X10571429Y-36702381D01*
X10380952Y-36702381D01*
X10285714Y-36654762D01*
X10238095Y-36607143D01*
X10190476Y-36511905D01*
X10190476Y-35702381D01*
X9285714Y-36035714D02*
X9285714Y-36702381D01*
X9523810Y-35654762D02*
X9761905Y-36369048D01*
X9142857Y-36369048D01*
X8175000Y-42111429D02*
X7413095Y-42111429D01*
X7079762Y-41492381D02*
X6746429Y-42492381D01*
X6413095Y-41492381D01*
X6079762Y-42492381D02*
X6079762Y-41825714D01*
X6079762Y-41492381D02*
X6127381Y-41540000D01*
X6079762Y-41587619D01*
X6032143Y-41540000D01*
X6079762Y-41492381D01*
X6079762Y-41587619D01*
X5603572Y-41825714D02*
X5603572Y-42492381D01*
X5603572Y-41920952D02*
X5555953Y-41873333D01*
X5460715Y-41825714D01*
X5317857Y-41825714D01*
X5222619Y-41873333D01*
X5175000Y-41968571D01*
X5175000Y-42492381D01*
X6420952Y-49731429D02*
X5659047Y-49731429D01*
X6516191Y-51652381D02*
X6420952Y-51652381D01*
X6325714Y-51700000D01*
X6278095Y-51747619D01*
X6230476Y-51842857D01*
X6182857Y-52033333D01*
X6182857Y-52271429D01*
X6230476Y-52461905D01*
X6278095Y-52557143D01*
X6325714Y-52604762D01*
X6420952Y-52652381D01*
X6516191Y-52652381D01*
X6611429Y-52604762D01*
X6659048Y-52557143D01*
X6706667Y-52461905D01*
X6754286Y-52271429D01*
X6754286Y-52033333D01*
X6706667Y-51842857D01*
X6659048Y-51747619D01*
X6611429Y-51700000D01*
X6516191Y-51652381D01*
X5897143Y-51652381D02*
X5563810Y-52652381D01*
X5230476Y-51652381D01*
X6111429Y-54359048D02*
X6111429Y-55120953D01*
X6492381Y-54740001D02*
X5730476Y-54740001D01*
X8175000Y-39571429D02*
X7413095Y-39571429D01*
X7794047Y-39952381D02*
X7794047Y-39190476D01*
X7079762Y-38952381D02*
X6746429Y-39952381D01*
X6413095Y-38952381D01*
X6079762Y-39952381D02*
X6079762Y-39285714D01*
X6079762Y-38952381D02*
X6127381Y-39000000D01*
X6079762Y-39047619D01*
X6032143Y-39000000D01*
X6079762Y-38952381D01*
X6079762Y-39047619D01*
X5603572Y-39285714D02*
X5603572Y-39952381D01*
X5603572Y-39380952D02*
X5555953Y-39333333D01*
X5460715Y-39285714D01*
X5317857Y-39285714D01*
X5222619Y-39333333D01*
X5175000Y-39428571D01*
X5175000Y-39952381D01*
M02*
