M48
INCH,TZ
T10C0.031
T11C0.039
T12C0.047
T13C0.047
T14C0.138
%
T10
X001378Y-14075
X004921Y-04921
X004921Y-05807
X004921Y-07677
X004921Y-08858
X004921Y-13976
X004921Y-16732
X004921Y-17913
X009843Y-09547
X010039Y-10236
X010039Y-11220
X011220Y-11220
T11
X001378Y-01378
X001378Y-02378
X001378Y-05378
X001378Y-06378
X001378Y-07378
X001378Y-15551
X001378Y-16551
X001378Y-19551
X001378Y-20551
X001378Y-21551
T12
X011024Y-05352
X011024Y-06852
X011024Y-08465
X011024Y-14211
X011024Y-15711
X011024Y-17323
T13
X001378Y-09843
X001378Y-10843
X001378Y-11843
X001378Y-12843
T14
X005906Y-02362
X005906Y-20472
M30

