G04 #@! TF.FileFunction,Legend,Top*
%FSLAX46Y46*%
G04 Gerber Fmt 4.6, Leading zero omitted, Abs format (unit mm)*
G04 Created by KiCad (PCBNEW 4.0.7) date 04/20/18 12:20:10*
%MOMM*%
%LPD*%
G01*
G04 APERTURE LIST*
%ADD10C,0.100000*%
%ADD11C,0.120000*%
%ADD12C,0.150000*%
G04 APERTURE END LIST*
D10*
D11*
X19000000Y-26430000D02*
X21000000Y-26430000D01*
X21000000Y-28570000D02*
X19000000Y-28570000D01*
X19000000Y-23930000D02*
X21000000Y-23930000D01*
X21000000Y-26070000D02*
X19000000Y-26070000D01*
X22170000Y-33260000D02*
X23100000Y-33260000D01*
X25330000Y-33260000D02*
X24400000Y-33260000D01*
X25330000Y-33260000D02*
X25330000Y-31100000D01*
X22170000Y-33260000D02*
X22170000Y-31800000D01*
X7520000Y-6000000D02*
X7520000Y-4000000D01*
X5480000Y-4000000D02*
X5480000Y-6000000D01*
X13020000Y-32500000D02*
X13020000Y-30500000D01*
X10980000Y-30500000D02*
X10980000Y-32500000D01*
X20520000Y-32500000D02*
X20520000Y-30500000D01*
X18480000Y-30500000D02*
X18480000Y-32500000D01*
X7520000Y-32500000D02*
X7520000Y-30500000D01*
X5480000Y-30500000D02*
X5480000Y-32500000D01*
X5480000Y-15200000D02*
X5480000Y-17200000D01*
X7520000Y-17200000D02*
X7520000Y-15200000D01*
X5480000Y-51200000D02*
X5480000Y-53200000D01*
X7520000Y-53200000D02*
X7520000Y-51200000D01*
X7520000Y-41500000D02*
X7520000Y-39500000D01*
X5480000Y-39500000D02*
X5480000Y-41500000D01*
X14550000Y-33280000D02*
X13350000Y-33280000D01*
X13350000Y-33280000D02*
X13350000Y-30580000D01*
X18150000Y-29280000D02*
X18150000Y-33280000D01*
X18150000Y-33280000D02*
X16950000Y-33280000D01*
D12*
X9000000Y-57000000D02*
X31000000Y-57000000D01*
X31000000Y-47000000D02*
X9000000Y-47000000D01*
X9000000Y-47000000D02*
X9000000Y-57000000D01*
X31000000Y-57000000D02*
X31000000Y-47000000D01*
X9000000Y-11000000D02*
X31000000Y-11000000D01*
X31000000Y-1000000D02*
X9000000Y-1000000D01*
X9000000Y-1000000D02*
X9000000Y-11000000D01*
X31000000Y-11000000D02*
X31000000Y-1000000D01*
X19833334Y-27952381D02*
X19500000Y-27476190D01*
X19261905Y-27952381D02*
X19261905Y-26952381D01*
X19642858Y-26952381D01*
X19738096Y-27000000D01*
X19785715Y-27047619D01*
X19833334Y-27142857D01*
X19833334Y-27285714D01*
X19785715Y-27380952D01*
X19738096Y-27428571D01*
X19642858Y-27476190D01*
X19261905Y-27476190D01*
X20785715Y-27952381D02*
X20214286Y-27952381D01*
X20500000Y-27952381D02*
X20500000Y-26952381D01*
X20404762Y-27095238D01*
X20309524Y-27190476D01*
X20214286Y-27238095D01*
X19833334Y-25452381D02*
X19500000Y-24976190D01*
X19261905Y-25452381D02*
X19261905Y-24452381D01*
X19642858Y-24452381D01*
X19738096Y-24500000D01*
X19785715Y-24547619D01*
X19833334Y-24642857D01*
X19833334Y-24785714D01*
X19785715Y-24880952D01*
X19738096Y-24928571D01*
X19642858Y-24976190D01*
X19261905Y-24976190D01*
X20690477Y-24785714D02*
X20690477Y-25452381D01*
X20452381Y-24404762D02*
X20214286Y-25119048D01*
X20833334Y-25119048D01*
X23654762Y-33047619D02*
X23559524Y-33000000D01*
X23464286Y-32904762D01*
X23321429Y-32761905D01*
X23226190Y-32714286D01*
X23130952Y-32714286D01*
X23178571Y-32952381D02*
X23083333Y-32904762D01*
X22988095Y-32809524D01*
X22940476Y-32619048D01*
X22940476Y-32285714D01*
X22988095Y-32095238D01*
X23083333Y-32000000D01*
X23178571Y-31952381D01*
X23369048Y-31952381D01*
X23464286Y-32000000D01*
X23559524Y-32095238D01*
X23607143Y-32285714D01*
X23607143Y-32619048D01*
X23559524Y-32809524D01*
X23464286Y-32904762D01*
X23369048Y-32952381D01*
X23178571Y-32952381D01*
X23940476Y-31952381D02*
X24559524Y-31952381D01*
X24226190Y-32333333D01*
X24369048Y-32333333D01*
X24464286Y-32380952D01*
X24511905Y-32428571D01*
X24559524Y-32523810D01*
X24559524Y-32761905D01*
X24511905Y-32857143D01*
X24464286Y-32904762D01*
X24369048Y-32952381D01*
X24083333Y-32952381D01*
X23988095Y-32904762D01*
X23940476Y-32857143D01*
X6857143Y-5166666D02*
X6904762Y-5214285D01*
X6952381Y-5357142D01*
X6952381Y-5452380D01*
X6904762Y-5595238D01*
X6809524Y-5690476D01*
X6714286Y-5738095D01*
X6523810Y-5785714D01*
X6380952Y-5785714D01*
X6190476Y-5738095D01*
X6095238Y-5690476D01*
X6000000Y-5595238D01*
X5952381Y-5452380D01*
X5952381Y-5357142D01*
X6000000Y-5214285D01*
X6047619Y-5166666D01*
X6952381Y-4214285D02*
X6952381Y-4785714D01*
X6952381Y-4500000D02*
X5952381Y-4500000D01*
X6095238Y-4595238D01*
X6190476Y-4690476D01*
X6238095Y-4785714D01*
X12357143Y-31666666D02*
X12404762Y-31714285D01*
X12452381Y-31857142D01*
X12452381Y-31952380D01*
X12404762Y-32095238D01*
X12309524Y-32190476D01*
X12214286Y-32238095D01*
X12023810Y-32285714D01*
X11880952Y-32285714D01*
X11690476Y-32238095D01*
X11595238Y-32190476D01*
X11500000Y-32095238D01*
X11452381Y-31952380D01*
X11452381Y-31857142D01*
X11500000Y-31714285D01*
X11547619Y-31666666D01*
X11547619Y-31285714D02*
X11500000Y-31238095D01*
X11452381Y-31142857D01*
X11452381Y-30904761D01*
X11500000Y-30809523D01*
X11547619Y-30761904D01*
X11642857Y-30714285D01*
X11738095Y-30714285D01*
X11880952Y-30761904D01*
X12452381Y-31333333D01*
X12452381Y-30714285D01*
X19857143Y-31666666D02*
X19904762Y-31714285D01*
X19952381Y-31857142D01*
X19952381Y-31952380D01*
X19904762Y-32095238D01*
X19809524Y-32190476D01*
X19714286Y-32238095D01*
X19523810Y-32285714D01*
X19380952Y-32285714D01*
X19190476Y-32238095D01*
X19095238Y-32190476D01*
X19000000Y-32095238D01*
X18952381Y-31952380D01*
X18952381Y-31857142D01*
X19000000Y-31714285D01*
X19047619Y-31666666D01*
X18952381Y-31333333D02*
X18952381Y-30714285D01*
X19333333Y-31047619D01*
X19333333Y-30904761D01*
X19380952Y-30809523D01*
X19428571Y-30761904D01*
X19523810Y-30714285D01*
X19761905Y-30714285D01*
X19857143Y-30761904D01*
X19904762Y-30809523D01*
X19952381Y-30904761D01*
X19952381Y-31190476D01*
X19904762Y-31285714D01*
X19857143Y-31333333D01*
X6857143Y-31666666D02*
X6904762Y-31714285D01*
X6952381Y-31857142D01*
X6952381Y-31952380D01*
X6904762Y-32095238D01*
X6809524Y-32190476D01*
X6714286Y-32238095D01*
X6523810Y-32285714D01*
X6380952Y-32285714D01*
X6190476Y-32238095D01*
X6095238Y-32190476D01*
X6000000Y-32095238D01*
X5952381Y-31952380D01*
X5952381Y-31857142D01*
X6000000Y-31714285D01*
X6047619Y-31666666D01*
X6285714Y-30809523D02*
X6952381Y-30809523D01*
X5904762Y-31047619D02*
X6619048Y-31285714D01*
X6619048Y-30666666D01*
X6857143Y-16416666D02*
X6904762Y-16464285D01*
X6952381Y-16607142D01*
X6952381Y-16702380D01*
X6904762Y-16845238D01*
X6809524Y-16940476D01*
X6714286Y-16988095D01*
X6523810Y-17035714D01*
X6380952Y-17035714D01*
X6190476Y-16988095D01*
X6095238Y-16940476D01*
X6000000Y-16845238D01*
X5952381Y-16702380D01*
X5952381Y-16607142D01*
X6000000Y-16464285D01*
X6047619Y-16416666D01*
X5952381Y-15511904D02*
X5952381Y-15988095D01*
X6428571Y-16035714D01*
X6380952Y-15988095D01*
X6333333Y-15892857D01*
X6333333Y-15654761D01*
X6380952Y-15559523D01*
X6428571Y-15511904D01*
X6523810Y-15464285D01*
X6761905Y-15464285D01*
X6857143Y-15511904D01*
X6904762Y-15559523D01*
X6952381Y-15654761D01*
X6952381Y-15892857D01*
X6904762Y-15988095D01*
X6857143Y-16035714D01*
X6857143Y-52892857D02*
X6904762Y-52940476D01*
X6952381Y-53083333D01*
X6952381Y-53178571D01*
X6904762Y-53321429D01*
X6809524Y-53416667D01*
X6714286Y-53464286D01*
X6523810Y-53511905D01*
X6380952Y-53511905D01*
X6190476Y-53464286D01*
X6095238Y-53416667D01*
X6000000Y-53321429D01*
X5952381Y-53178571D01*
X5952381Y-53083333D01*
X6000000Y-52940476D01*
X6047619Y-52892857D01*
X6952381Y-51940476D02*
X6952381Y-52511905D01*
X6952381Y-52226191D02*
X5952381Y-52226191D01*
X6095238Y-52321429D01*
X6190476Y-52416667D01*
X6238095Y-52511905D01*
X5952381Y-51607143D02*
X5952381Y-50988095D01*
X6333333Y-51321429D01*
X6333333Y-51178571D01*
X6380952Y-51083333D01*
X6428571Y-51035714D01*
X6523810Y-50988095D01*
X6761905Y-50988095D01*
X6857143Y-51035714D01*
X6904762Y-51083333D01*
X6952381Y-51178571D01*
X6952381Y-51464286D01*
X6904762Y-51559524D01*
X6857143Y-51607143D01*
X6857143Y-41142857D02*
X6904762Y-41190476D01*
X6952381Y-41333333D01*
X6952381Y-41428571D01*
X6904762Y-41571429D01*
X6809524Y-41666667D01*
X6714286Y-41714286D01*
X6523810Y-41761905D01*
X6380952Y-41761905D01*
X6190476Y-41714286D01*
X6095238Y-41666667D01*
X6000000Y-41571429D01*
X5952381Y-41428571D01*
X5952381Y-41333333D01*
X6000000Y-41190476D01*
X6047619Y-41142857D01*
X6952381Y-40190476D02*
X6952381Y-40761905D01*
X6952381Y-40476191D02*
X5952381Y-40476191D01*
X6095238Y-40571429D01*
X6190476Y-40666667D01*
X6238095Y-40761905D01*
X6380952Y-39619048D02*
X6333333Y-39714286D01*
X6285714Y-39761905D01*
X6190476Y-39809524D01*
X6142857Y-39809524D01*
X6047619Y-39761905D01*
X6000000Y-39714286D01*
X5952381Y-39619048D01*
X5952381Y-39428571D01*
X6000000Y-39333333D01*
X6047619Y-39285714D01*
X6142857Y-39238095D01*
X6190476Y-39238095D01*
X6285714Y-39285714D01*
X6333333Y-39333333D01*
X6380952Y-39428571D01*
X6380952Y-39619048D01*
X6428571Y-39714286D01*
X6476190Y-39761905D01*
X6571429Y-39809524D01*
X6761905Y-39809524D01*
X6857143Y-39761905D01*
X6904762Y-39714286D01*
X6952381Y-39619048D01*
X6952381Y-39428571D01*
X6904762Y-39333333D01*
X6857143Y-39285714D01*
X6761905Y-39238095D01*
X6571429Y-39238095D01*
X6476190Y-39285714D01*
X6428571Y-39333333D01*
X6380952Y-39428571D01*
X14988095Y-31202381D02*
X14988095Y-32011905D01*
X15035714Y-32107143D01*
X15083333Y-32154762D01*
X15178571Y-32202381D01*
X15369048Y-32202381D01*
X15464286Y-32154762D01*
X15511905Y-32107143D01*
X15559524Y-32011905D01*
X15559524Y-31202381D01*
X16559524Y-32202381D02*
X15988095Y-32202381D01*
X16273809Y-32202381D02*
X16273809Y-31202381D01*
X16178571Y-31345238D01*
X16083333Y-31440476D01*
X15988095Y-31488095D01*
M02*
