G04 #@! TF.FileFunction,Copper,L1,Top,Signal*
%FSLAX46Y46*%
G04 Gerber Fmt 4.6, Leading zero omitted, Abs format (unit mm)*
G04 Created by KiCad (PCBNEW 4.0.7) date 04/23/18 08:39:13*
%MOMM*%
%LPD*%
G01*
G04 APERTURE LIST*
%ADD10C,0.100000*%
%ADD11C,0.150000*%
%ADD12R,0.900000X1.700000*%
%ADD13R,2.600000X2.000000*%
%ADD14O,2.600000X2.000000*%
%ADD15R,0.800000X0.900000*%
%ADD16R,1.600000X1.000000*%
%ADD17C,2.999740*%
%ADD18C,3.500120*%
%ADD19R,1.000000X1.500000*%
%ADD20R,1.000000X1.800000*%
%ADD21R,2.200000X1.840000*%
%ADD22C,6.000000*%
%ADD23O,3.000000X1.600000*%
%ADD24C,1.400000*%
%ADD25C,1.000000*%
%ADD26C,0.600000*%
%ADD27C,0.300000*%
%ADD28C,0.256000*%
G04 APERTURE END LIST*
D10*
D11*
X17933334Y-19397619D02*
X18300001Y-20497619D01*
X18666667Y-19397619D01*
X18980953Y-20445238D02*
X19138096Y-20497619D01*
X19400000Y-20497619D01*
X19504762Y-20445238D01*
X19557143Y-20392857D01*
X19609524Y-20288095D01*
X19609524Y-20183333D01*
X19557143Y-20078571D01*
X19504762Y-20026190D01*
X19400000Y-19973810D01*
X19190477Y-19921429D01*
X19085715Y-19869048D01*
X19033334Y-19816667D01*
X18980953Y-19711905D01*
X18980953Y-19607143D01*
X19033334Y-19502381D01*
X19085715Y-19450000D01*
X19190477Y-19397619D01*
X19452381Y-19397619D01*
X19609524Y-19450000D01*
X20028572Y-20445238D02*
X20185715Y-20497619D01*
X20447619Y-20497619D01*
X20552381Y-20445238D01*
X20604762Y-20392857D01*
X20657143Y-20288095D01*
X20657143Y-20183333D01*
X20604762Y-20078571D01*
X20552381Y-20026190D01*
X20447619Y-19973810D01*
X20238096Y-19921429D01*
X20133334Y-19869048D01*
X20080953Y-19816667D01*
X20028572Y-19711905D01*
X20028572Y-19607143D01*
X20080953Y-19502381D01*
X20133334Y-19450000D01*
X20238096Y-19397619D01*
X20500000Y-19397619D01*
X20657143Y-19450000D01*
X21128572Y-20392857D02*
X21180953Y-20445238D01*
X21128572Y-20497619D01*
X21076191Y-20445238D01*
X21128572Y-20392857D01*
X21128572Y-20497619D01*
X21128572Y-19816667D02*
X21180953Y-19869048D01*
X21128572Y-19921429D01*
X21076191Y-19869048D01*
X21128572Y-19816667D01*
X21128572Y-19921429D01*
X22438096Y-20183333D02*
X22961905Y-20183333D01*
X22333334Y-20497619D02*
X22700001Y-19397619D01*
X23066667Y-20497619D01*
X17854762Y-40397619D02*
X18221429Y-41497619D01*
X18588095Y-40397619D01*
X18902381Y-41445238D02*
X19059524Y-41497619D01*
X19321428Y-41497619D01*
X19426190Y-41445238D01*
X19478571Y-41392857D01*
X19530952Y-41288095D01*
X19530952Y-41183333D01*
X19478571Y-41078571D01*
X19426190Y-41026190D01*
X19321428Y-40973810D01*
X19111905Y-40921429D01*
X19007143Y-40869048D01*
X18954762Y-40816667D01*
X18902381Y-40711905D01*
X18902381Y-40607143D01*
X18954762Y-40502381D01*
X19007143Y-40450000D01*
X19111905Y-40397619D01*
X19373809Y-40397619D01*
X19530952Y-40450000D01*
X19950000Y-41445238D02*
X20107143Y-41497619D01*
X20369047Y-41497619D01*
X20473809Y-41445238D01*
X20526190Y-41392857D01*
X20578571Y-41288095D01*
X20578571Y-41183333D01*
X20526190Y-41078571D01*
X20473809Y-41026190D01*
X20369047Y-40973810D01*
X20159524Y-40921429D01*
X20054762Y-40869048D01*
X20002381Y-40816667D01*
X19950000Y-40711905D01*
X19950000Y-40607143D01*
X20002381Y-40502381D01*
X20054762Y-40450000D01*
X20159524Y-40397619D01*
X20421428Y-40397619D01*
X20578571Y-40450000D01*
X21050000Y-41392857D02*
X21102381Y-41445238D01*
X21050000Y-41497619D01*
X20997619Y-41445238D01*
X21050000Y-41392857D01*
X21050000Y-41497619D01*
X21050000Y-40816667D02*
X21102381Y-40869048D01*
X21050000Y-40921429D01*
X20997619Y-40869048D01*
X21050000Y-40816667D01*
X21050000Y-40921429D01*
X22778571Y-40921429D02*
X22935714Y-40973810D01*
X22988095Y-41026190D01*
X23040476Y-41130952D01*
X23040476Y-41288095D01*
X22988095Y-41392857D01*
X22935714Y-41445238D01*
X22830952Y-41497619D01*
X22411905Y-41497619D01*
X22411905Y-40397619D01*
X22778571Y-40397619D01*
X22883333Y-40450000D01*
X22935714Y-40502381D01*
X22988095Y-40607143D01*
X22988095Y-40711905D01*
X22935714Y-40816667D01*
X22883333Y-40869048D01*
X22778571Y-40921429D01*
X22411905Y-40921429D01*
X3578571Y-20919047D02*
X3578571Y-20080952D01*
X3997619Y-20500000D02*
X3159524Y-20500000D01*
X3578571Y-12419047D02*
X3578571Y-11580952D01*
X3578571Y-48419047D02*
X3578571Y-47580952D01*
X3080953Y-56578571D02*
X3919048Y-56578571D01*
X3500000Y-56997619D02*
X3500000Y-56159524D01*
X7809524Y-31047619D02*
X7857143Y-31000000D01*
X7952381Y-30952381D01*
X8190477Y-30952381D01*
X8285715Y-31000000D01*
X8333334Y-31047619D01*
X8380953Y-31142857D01*
X8380953Y-31238095D01*
X8333334Y-31380952D01*
X7761905Y-31952381D01*
X8380953Y-31952381D01*
X9238096Y-31285714D02*
X9238096Y-31952381D01*
X9000000Y-30904762D02*
X8761905Y-31619048D01*
X9380953Y-31619048D01*
X9619048Y-30952381D02*
X9952381Y-31952381D01*
X10285715Y-30952381D01*
X8238096Y-34000000D02*
X8142858Y-33952381D01*
X8000001Y-33952381D01*
X7857143Y-34000000D01*
X7761905Y-34095238D01*
X7714286Y-34190476D01*
X7666667Y-34380952D01*
X7666667Y-34523810D01*
X7714286Y-34714286D01*
X7761905Y-34809524D01*
X7857143Y-34904762D01*
X8000001Y-34952381D01*
X8095239Y-34952381D01*
X8238096Y-34904762D01*
X8285715Y-34857143D01*
X8285715Y-34523810D01*
X8095239Y-34523810D01*
X8714286Y-34952381D02*
X8714286Y-33952381D01*
X9285715Y-34952381D01*
X9285715Y-33952381D01*
X9761905Y-34952381D02*
X9761905Y-33952381D01*
X10000000Y-33952381D01*
X10142858Y-34000000D01*
X10238096Y-34095238D01*
X10285715Y-34190476D01*
X10333334Y-34380952D01*
X10333334Y-34523810D01*
X10285715Y-34714286D01*
X10238096Y-34809524D01*
X10142858Y-34904762D01*
X10000000Y-34952381D01*
X9761905Y-34952381D01*
X6238095Y-21603571D02*
X6571429Y-21603571D01*
X6714286Y-22127381D02*
X6238095Y-22127381D01*
X6238095Y-21127381D01*
X6714286Y-21127381D01*
X7142857Y-22127381D02*
X7142857Y-21127381D01*
X7714286Y-22127381D01*
X7714286Y-21127381D01*
X6238095Y-23777381D02*
X6238095Y-22777381D01*
X6619048Y-22777381D01*
X6714286Y-22825000D01*
X6761905Y-22872619D01*
X6809524Y-22967857D01*
X6809524Y-23110714D01*
X6761905Y-23205952D01*
X6714286Y-23253571D01*
X6619048Y-23301190D01*
X6238095Y-23301190D01*
X7142857Y-22777381D02*
X7380952Y-23777381D01*
X7571429Y-23063095D01*
X7761905Y-23777381D01*
X8000000Y-22777381D01*
X8380952Y-23777381D02*
X8380952Y-22777381D01*
X8714286Y-23491667D01*
X9047619Y-22777381D01*
X9047619Y-23777381D01*
X24450000Y-40226190D02*
X24397619Y-40330952D01*
X24397619Y-40488095D01*
X24450000Y-40645237D01*
X24554762Y-40749999D01*
X24659524Y-40802380D01*
X24869048Y-40854761D01*
X25026190Y-40854761D01*
X25235714Y-40802380D01*
X25340476Y-40749999D01*
X25445238Y-40645237D01*
X25497619Y-40488095D01*
X25497619Y-40383333D01*
X25445238Y-40226190D01*
X25392857Y-40173809D01*
X25026190Y-40173809D01*
X25026190Y-40383333D01*
X25497619Y-39230952D02*
X24921429Y-39230952D01*
X24816667Y-39283333D01*
X24764286Y-39388095D01*
X24764286Y-39597618D01*
X24816667Y-39702380D01*
X25445238Y-39230952D02*
X25497619Y-39335714D01*
X25497619Y-39597618D01*
X25445238Y-39702380D01*
X25340476Y-39754761D01*
X25235714Y-39754761D01*
X25130952Y-39702380D01*
X25078571Y-39597618D01*
X25078571Y-39335714D01*
X25026190Y-39230952D01*
X24764286Y-38864285D02*
X24764286Y-38445237D01*
X24397619Y-38707142D02*
X25340476Y-38707142D01*
X25445238Y-38654761D01*
X25497619Y-38549999D01*
X25497619Y-38445237D01*
X25445238Y-37659524D02*
X25497619Y-37764286D01*
X25497619Y-37973809D01*
X25445238Y-38078571D01*
X25340476Y-38130952D01*
X24921429Y-38130952D01*
X24816667Y-38078571D01*
X24764286Y-37973809D01*
X24764286Y-37764286D01*
X24816667Y-37659524D01*
X24921429Y-37607143D01*
X25026190Y-37607143D01*
X25130952Y-38130952D01*
X25392857Y-37135714D02*
X25445238Y-37083333D01*
X25497619Y-37135714D01*
X25445238Y-37188095D01*
X25392857Y-37135714D01*
X25497619Y-37135714D01*
X24816667Y-37135714D02*
X24869048Y-37083333D01*
X24921429Y-37135714D01*
X24869048Y-37188095D01*
X24816667Y-37135714D01*
X24921429Y-37135714D01*
X24921429Y-35407143D02*
X24973810Y-35250000D01*
X25026190Y-35197619D01*
X25130952Y-35145238D01*
X25288095Y-35145238D01*
X25392857Y-35197619D01*
X25445238Y-35250000D01*
X25497619Y-35354762D01*
X25497619Y-35773809D01*
X24397619Y-35773809D01*
X24397619Y-35407143D01*
X24450000Y-35302381D01*
X24502381Y-35250000D01*
X24607143Y-35197619D01*
X24711905Y-35197619D01*
X24816667Y-35250000D01*
X24869048Y-35302381D01*
X24921429Y-35407143D01*
X24921429Y-35773809D01*
X24450000Y-17647619D02*
X24397619Y-17752381D01*
X24397619Y-17909524D01*
X24450000Y-18066666D01*
X24554762Y-18171428D01*
X24659524Y-18223809D01*
X24869048Y-18276190D01*
X25026190Y-18276190D01*
X25235714Y-18223809D01*
X25340476Y-18171428D01*
X25445238Y-18066666D01*
X25497619Y-17909524D01*
X25497619Y-17804762D01*
X25445238Y-17647619D01*
X25392857Y-17595238D01*
X25026190Y-17595238D01*
X25026190Y-17804762D01*
X25497619Y-16652381D02*
X24921429Y-16652381D01*
X24816667Y-16704762D01*
X24764286Y-16809524D01*
X24764286Y-17019047D01*
X24816667Y-17123809D01*
X25445238Y-16652381D02*
X25497619Y-16757143D01*
X25497619Y-17019047D01*
X25445238Y-17123809D01*
X25340476Y-17176190D01*
X25235714Y-17176190D01*
X25130952Y-17123809D01*
X25078571Y-17019047D01*
X25078571Y-16757143D01*
X25026190Y-16652381D01*
X24764286Y-16285714D02*
X24764286Y-15866666D01*
X24397619Y-16128571D02*
X25340476Y-16128571D01*
X25445238Y-16076190D01*
X25497619Y-15971428D01*
X25497619Y-15866666D01*
X25445238Y-15080953D02*
X25497619Y-15185715D01*
X25497619Y-15395238D01*
X25445238Y-15500000D01*
X25340476Y-15552381D01*
X24921429Y-15552381D01*
X24816667Y-15500000D01*
X24764286Y-15395238D01*
X24764286Y-15185715D01*
X24816667Y-15080953D01*
X24921429Y-15028572D01*
X25026190Y-15028572D01*
X25130952Y-15552381D01*
X25392857Y-14557143D02*
X25445238Y-14504762D01*
X25497619Y-14557143D01*
X25445238Y-14609524D01*
X25392857Y-14557143D01*
X25497619Y-14557143D01*
X24816667Y-14557143D02*
X24869048Y-14504762D01*
X24921429Y-14557143D01*
X24869048Y-14609524D01*
X24816667Y-14557143D01*
X24921429Y-14557143D01*
X25183333Y-13247619D02*
X25183333Y-12723810D01*
X25497619Y-13352381D02*
X24397619Y-12985714D01*
X25497619Y-12619048D01*
D12*
X21450000Y-27500000D03*
X18550000Y-27500000D03*
D13*
X3500000Y-25000000D03*
D14*
X3500000Y-27540000D03*
X3500000Y-30080000D03*
X3500000Y-32620000D03*
D12*
X21450000Y-25000000D03*
X18550000Y-25000000D03*
D15*
X24700000Y-31500000D03*
X22800000Y-31500000D03*
X23750000Y-33500000D03*
D16*
X6500000Y-3500000D03*
X6500000Y-6500000D03*
X12000000Y-30000000D03*
X12000000Y-33000000D03*
X19500000Y-30000000D03*
X19500000Y-33000000D03*
X6500000Y-30000000D03*
X6500000Y-33000000D03*
X6500000Y-17700000D03*
X6500000Y-14700000D03*
X6500000Y-53700000D03*
X6500000Y-50700000D03*
X6500000Y-39000000D03*
X6500000Y-42000000D03*
D17*
X28000000Y-17405000D03*
X28000000Y-13595000D03*
D18*
X28000000Y-21500000D03*
D17*
X28000000Y-39905000D03*
X28000000Y-36095000D03*
D18*
X28000000Y-44000000D03*
D10*
G36*
X16850000Y-33742000D02*
X16250000Y-34592000D01*
X15250000Y-34592000D01*
X14650000Y-33742000D01*
X16850000Y-33742000D01*
X16850000Y-33742000D01*
G37*
D19*
X17250000Y-30020000D03*
D20*
X15750000Y-30166500D03*
D19*
X14250000Y-30020000D03*
D21*
X15750000Y-32833500D03*
D10*
G36*
X14650000Y-31923800D02*
X15350000Y-30923800D01*
X16150000Y-30923800D01*
X16850000Y-31923800D01*
X14650000Y-31923800D01*
X14650000Y-31923800D01*
G37*
D22*
X15000000Y-52000000D03*
X15000000Y-6000000D03*
D23*
X3500000Y-3500000D03*
X3500000Y-6040000D03*
X3500000Y-13660000D03*
X3500000Y-16200000D03*
X3500000Y-18740000D03*
X3500000Y-39500000D03*
X3500000Y-42040000D03*
X3500000Y-49660000D03*
X3500000Y-52200000D03*
X3500000Y-54740000D03*
D24*
X25500000Y-28500000D03*
X12500000Y-12500000D03*
X3500000Y-35750000D03*
X25500000Y-26000000D03*
X12500000Y-22500000D03*
X12500000Y-14750000D03*
X12500000Y-19500000D03*
X25000000Y-24250000D03*
X12500000Y-45500000D03*
X12500000Y-35500000D03*
X12500000Y-42500000D03*
X28500000Y-28500000D03*
D25*
X3500000Y-3500000D02*
X2500000Y-3500000D01*
X3000000Y-3500000D02*
X1000000Y-5500000D01*
X1000000Y-29160000D02*
X1000000Y-5500000D01*
X1920000Y-30080000D02*
X1000000Y-29160000D01*
X3500000Y-30080000D02*
X1920000Y-30080000D01*
X1000000Y-38000000D02*
X2500000Y-39500000D01*
X1000000Y-31000000D02*
X1000000Y-38000000D01*
X1920000Y-30080000D02*
X1000000Y-31000000D01*
X2500000Y-39500000D02*
X3000000Y-39500000D01*
X3000000Y-39500000D02*
X5500000Y-39500000D01*
X5500000Y-39500000D02*
X6000000Y-39000000D01*
X3500000Y-30080000D02*
X6420000Y-30080000D01*
X12000000Y-30000000D02*
X14230000Y-30000000D01*
D26*
X14230000Y-30000000D02*
X14250000Y-30020000D01*
D25*
X6500000Y-30000000D02*
X12000000Y-30000000D01*
D26*
X6420000Y-30080000D02*
X6500000Y-30000000D01*
D25*
X3500000Y-3500000D02*
X6000000Y-3500000D01*
D26*
X22800000Y-31500000D02*
X22800000Y-31200000D01*
X22800000Y-31200000D02*
X23000000Y-31000000D01*
X19500000Y-33000000D02*
X21000000Y-33000000D01*
X21000000Y-33000000D02*
X23000000Y-31000000D01*
X23000000Y-31000000D02*
X25500000Y-28500000D01*
D27*
X15750000Y-31423800D02*
X15750000Y-32833500D01*
X15750000Y-32833500D02*
X15750000Y-30166500D01*
X15750000Y-34167000D02*
X15750000Y-32833500D01*
D25*
X6500000Y-42000000D02*
X3540000Y-42000000D01*
X3540000Y-42000000D02*
X3500000Y-42040000D01*
X6500000Y-33000000D02*
X6500000Y-35750000D01*
X8500000Y-40000000D02*
X6500000Y-42000000D01*
X8500000Y-37750000D02*
X8500000Y-40000000D01*
X6500000Y-35750000D02*
X8500000Y-37750000D01*
X12500000Y-12500000D02*
X6500000Y-6500000D01*
X3500000Y-32620000D02*
X3500000Y-35750000D01*
D26*
X19550000Y-32950000D02*
X19500000Y-33000000D01*
X19500000Y-33000000D02*
X19500000Y-32950000D01*
D25*
X15750000Y-32833500D02*
X19333500Y-32833500D01*
D26*
X19333500Y-32833500D02*
X19500000Y-33000000D01*
D25*
X12000000Y-33000000D02*
X15583500Y-33000000D01*
D26*
X15583500Y-33000000D02*
X15750000Y-32833500D01*
D25*
X6500000Y-33000000D02*
X12000000Y-33000000D01*
X3500000Y-32620000D02*
X6120000Y-32620000D01*
X6120000Y-32620000D02*
X6500000Y-33000000D01*
X3500000Y-6040000D02*
X5540000Y-6040000D01*
X5540000Y-6040000D02*
X6000000Y-6500000D01*
D26*
X21500000Y-30000000D02*
X25500000Y-26000000D01*
X21500000Y-30000000D02*
X19500000Y-30000000D01*
X19500000Y-30000000D02*
X19750000Y-30000000D01*
X19500000Y-30000000D02*
X20000000Y-30000000D01*
X17250000Y-30020000D02*
X19480000Y-30020000D01*
X19480000Y-30020000D02*
X19500000Y-30000000D01*
D25*
X6500000Y-17700000D02*
X7700000Y-17700000D01*
X7700000Y-17700000D02*
X12500000Y-22500000D01*
X3500000Y-18740000D02*
X5460000Y-18740000D01*
X5460000Y-18740000D02*
X6500000Y-17700000D01*
X6500000Y-14700000D02*
X10300000Y-14700000D01*
X12450000Y-14700000D02*
X10300000Y-14700000D01*
X12500000Y-14750000D02*
X12450000Y-14700000D01*
X3500000Y-13660000D02*
X5460000Y-13660000D01*
X5460000Y-13660000D02*
X6500000Y-14700000D01*
X28000000Y-21500000D02*
X14500000Y-21500000D01*
X14500000Y-21500000D02*
X12500000Y-19500000D01*
X3500000Y-16200000D02*
X9200000Y-16200000D01*
X9200000Y-16200000D02*
X12500000Y-19500000D01*
D26*
X21450000Y-27500000D02*
X21500000Y-27500000D01*
X21500000Y-27500000D02*
X24750000Y-24250000D01*
X24750000Y-24250000D02*
X25000000Y-24250000D01*
D25*
X6000000Y-53700000D02*
X8800000Y-53700000D01*
X10500000Y-47500000D02*
X12500000Y-45500000D01*
X10500000Y-52000000D02*
X10500000Y-47500000D01*
X8800000Y-53700000D02*
X10500000Y-52000000D01*
X3000000Y-54740000D02*
X4960000Y-54740000D01*
X4960000Y-54740000D02*
X6000000Y-53700000D01*
X6000000Y-50700000D02*
X6800000Y-50700000D01*
X6800000Y-50700000D02*
X7500000Y-50000000D01*
X12500000Y-40000000D02*
X12500000Y-35500000D01*
X7500000Y-45000000D02*
X12500000Y-40000000D01*
X7500000Y-50000000D02*
X7500000Y-45000000D01*
X3000000Y-49660000D02*
X4960000Y-49660000D01*
X4960000Y-49660000D02*
X6000000Y-50700000D01*
X12500000Y-42500000D02*
X26500000Y-42500000D01*
X26500000Y-42500000D02*
X28000000Y-44000000D01*
X3000000Y-52200000D02*
X7800000Y-52200000D01*
X9000000Y-46000000D02*
X12500000Y-42500000D01*
X9000000Y-51000000D02*
X9000000Y-46000000D01*
X7800000Y-52200000D02*
X9000000Y-51000000D01*
X18550000Y-27500000D02*
X3540000Y-27500000D01*
D26*
X3540000Y-27500000D02*
X3500000Y-27540000D01*
D25*
X3500000Y-25000000D02*
X18550000Y-25000000D01*
D26*
X24700000Y-31500000D02*
X25250000Y-31500000D01*
X23100000Y-22900000D02*
X21450000Y-24550000D01*
X25650000Y-22900000D02*
X23100000Y-22900000D01*
X27000000Y-24250000D02*
X25650000Y-22900000D01*
X27000000Y-29750000D02*
X27000000Y-24250000D01*
X25250000Y-31500000D02*
X27000000Y-29750000D01*
X21450000Y-24550000D02*
X21450000Y-25000000D01*
X23750000Y-33500000D02*
X27000000Y-33500000D01*
X28500000Y-32000000D02*
X28500000Y-28500000D01*
X27000000Y-33500000D02*
X28500000Y-32000000D01*
D28*
G36*
X29372000Y-13553020D02*
X29372000Y-17446980D01*
X28446980Y-18372000D01*
X27553020Y-18372000D01*
X26628000Y-17446980D01*
X26628000Y-13553020D01*
X27553020Y-12628000D01*
X28446980Y-12628000D01*
X29372000Y-13553020D01*
X29372000Y-13553020D01*
G37*
X29372000Y-13553020D02*
X29372000Y-17446980D01*
X28446980Y-18372000D01*
X27553020Y-18372000D01*
X26628000Y-17446980D01*
X26628000Y-13553020D01*
X27553020Y-12628000D01*
X28446980Y-12628000D01*
X29372000Y-13553020D01*
G36*
X29372000Y-36053020D02*
X29372000Y-39946980D01*
X28446980Y-40872000D01*
X27553020Y-40872000D01*
X26628000Y-39946980D01*
X26628000Y-36053020D01*
X27553020Y-35128000D01*
X28446980Y-35128000D01*
X29372000Y-36053020D01*
X29372000Y-36053020D01*
G37*
X29372000Y-36053020D02*
X29372000Y-39946980D01*
X28446980Y-40872000D01*
X27553020Y-40872000D01*
X26628000Y-39946980D01*
X26628000Y-36053020D01*
X27553020Y-35128000D01*
X28446980Y-35128000D01*
X29372000Y-36053020D01*
M02*
