G04 #@! TF.FileFunction,Other,Fab,Top*
%FSLAX46Y46*%
G04 Gerber Fmt 4.6, Leading zero omitted, Abs format (unit mm)*
G04 Created by KiCad (PCBNEW 4.0.7) date 04/23/18 08:39:13*
%MOMM*%
%LPD*%
G01*
G04 APERTURE LIST*
%ADD10C,0.100000*%
%ADD11C,0.150000*%
%ADD12C,0.105000*%
%ADD13C,0.075000*%
%ADD14C,0.090000*%
G04 APERTURE END LIST*
D10*
X21600000Y-26700000D02*
X21600000Y-28300000D01*
X18400000Y-26700000D02*
X21600000Y-26700000D01*
X18400000Y-28300000D02*
X18400000Y-26700000D01*
X21600000Y-28300000D02*
X18400000Y-28300000D01*
X21600000Y-24200000D02*
X21600000Y-25800000D01*
X18400000Y-24200000D02*
X21600000Y-24200000D01*
X18400000Y-25800000D02*
X18400000Y-24200000D01*
X21600000Y-25800000D02*
X18400000Y-25800000D01*
X24700000Y-31800000D02*
X22250000Y-31800000D01*
X25270000Y-32350000D02*
X25270000Y-33200000D01*
X24700000Y-31800000D02*
X25270000Y-32350000D01*
X25270000Y-33200000D02*
X22230000Y-33200000D01*
X22230000Y-31800000D02*
X22230000Y-33200000D01*
X5700000Y-3400000D02*
X7300000Y-3400000D01*
X5700000Y-6600000D02*
X5700000Y-3400000D01*
X7300000Y-6600000D02*
X5700000Y-6600000D01*
X7300000Y-3400000D02*
X7300000Y-6600000D01*
X11200000Y-29900000D02*
X12800000Y-29900000D01*
X11200000Y-33100000D02*
X11200000Y-29900000D01*
X12800000Y-33100000D02*
X11200000Y-33100000D01*
X12800000Y-29900000D02*
X12800000Y-33100000D01*
X18700000Y-29900000D02*
X20300000Y-29900000D01*
X18700000Y-33100000D02*
X18700000Y-29900000D01*
X20300000Y-33100000D02*
X18700000Y-33100000D01*
X20300000Y-29900000D02*
X20300000Y-33100000D01*
X5700000Y-29900000D02*
X7300000Y-29900000D01*
X5700000Y-33100000D02*
X5700000Y-29900000D01*
X7300000Y-33100000D02*
X5700000Y-33100000D01*
X7300000Y-29900000D02*
X7300000Y-33100000D01*
X7300000Y-17800000D02*
X5700000Y-17800000D01*
X7300000Y-14600000D02*
X7300000Y-17800000D01*
X5700000Y-14600000D02*
X7300000Y-14600000D01*
X5700000Y-17800000D02*
X5700000Y-14600000D01*
X7300000Y-53800000D02*
X5700000Y-53800000D01*
X7300000Y-50600000D02*
X7300000Y-53800000D01*
X5700000Y-50600000D02*
X7300000Y-50600000D01*
X5700000Y-53800000D02*
X5700000Y-50600000D01*
X5700000Y-38900000D02*
X7300000Y-38900000D01*
X5700000Y-42100000D02*
X5700000Y-38900000D01*
X7300000Y-42100000D02*
X5700000Y-42100000D01*
X7300000Y-38900000D02*
X7300000Y-42100000D01*
X17260000Y-30580000D02*
X18050000Y-31370000D01*
X18050000Y-33180000D02*
X13450000Y-33180000D01*
X13450000Y-33180000D02*
X13450000Y-30580000D01*
X13450000Y-30580000D02*
X17260000Y-30580000D01*
X18050000Y-31370000D02*
X18050000Y-33180000D01*
D11*
X30000000Y-47000000D02*
X9000000Y-47000000D01*
X9000000Y-47000000D02*
X9000000Y-57000000D01*
X9000000Y-57000000D02*
X30000000Y-57000000D01*
X30000000Y-1000000D02*
X9000000Y-1000000D01*
X9000000Y-1000000D02*
X9000000Y-11000000D01*
X9000000Y-11000000D02*
X30000000Y-11000000D01*
X16714286Y-27285714D02*
X16714286Y-27952381D01*
X16476190Y-26904762D02*
X16238095Y-27619048D01*
X16857143Y-27619048D01*
X17142857Y-26952381D02*
X17809524Y-26952381D01*
X17380952Y-27952381D01*
D12*
X19883334Y-27816667D02*
X19650000Y-27483333D01*
X19483334Y-27816667D02*
X19483334Y-27116667D01*
X19750000Y-27116667D01*
X19816667Y-27150000D01*
X19850000Y-27183333D01*
X19883334Y-27250000D01*
X19883334Y-27350000D01*
X19850000Y-27416667D01*
X19816667Y-27450000D01*
X19750000Y-27483333D01*
X19483334Y-27483333D01*
X20550000Y-27816667D02*
X20150000Y-27816667D01*
X20350000Y-27816667D02*
X20350000Y-27116667D01*
X20283334Y-27216667D01*
X20216667Y-27283333D01*
X20150000Y-27316667D01*
D11*
X16107143Y-24452381D02*
X15630952Y-24452381D01*
X15583333Y-24928571D01*
X15630952Y-24880952D01*
X15726190Y-24833333D01*
X15964286Y-24833333D01*
X16059524Y-24880952D01*
X16107143Y-24928571D01*
X16154762Y-25023810D01*
X16154762Y-25261905D01*
X16107143Y-25357143D01*
X16059524Y-25404762D01*
X15964286Y-25452381D01*
X15726190Y-25452381D01*
X15630952Y-25404762D01*
X15583333Y-25357143D01*
X16583333Y-25452381D02*
X16583333Y-24452381D01*
X16678571Y-25071429D02*
X16964286Y-25452381D01*
X16964286Y-24785714D02*
X16583333Y-25166667D01*
X17821429Y-24452381D02*
X17630952Y-24452381D01*
X17535714Y-24500000D01*
X17488095Y-24547619D01*
X17392857Y-24690476D01*
X17345238Y-24880952D01*
X17345238Y-25261905D01*
X17392857Y-25357143D01*
X17440476Y-25404762D01*
X17535714Y-25452381D01*
X17726191Y-25452381D01*
X17821429Y-25404762D01*
X17869048Y-25357143D01*
X17916667Y-25261905D01*
X17916667Y-25023810D01*
X17869048Y-24928571D01*
X17821429Y-24880952D01*
X17726191Y-24833333D01*
X17535714Y-24833333D01*
X17440476Y-24880952D01*
X17392857Y-24928571D01*
X17345238Y-25023810D01*
D12*
X19883334Y-25316667D02*
X19650000Y-24983333D01*
X19483334Y-25316667D02*
X19483334Y-24616667D01*
X19750000Y-24616667D01*
X19816667Y-24650000D01*
X19850000Y-24683333D01*
X19883334Y-24750000D01*
X19883334Y-24850000D01*
X19850000Y-24916667D01*
X19816667Y-24950000D01*
X19750000Y-24983333D01*
X19483334Y-24983333D01*
X20483334Y-24850000D02*
X20483334Y-25316667D01*
X20316667Y-24583333D02*
X20150000Y-25083333D01*
X20583334Y-25083333D01*
D11*
X21464286Y-30928571D02*
X21607143Y-30976190D01*
X21654762Y-31023810D01*
X21702381Y-31119048D01*
X21702381Y-31261905D01*
X21654762Y-31357143D01*
X21607143Y-31404762D01*
X21511905Y-31452381D01*
X21130952Y-31452381D01*
X21130952Y-30452381D01*
X21464286Y-30452381D01*
X21559524Y-30500000D01*
X21607143Y-30547619D01*
X21654762Y-30642857D01*
X21654762Y-30738095D01*
X21607143Y-30833333D01*
X21559524Y-30880952D01*
X21464286Y-30928571D01*
X21130952Y-30928571D01*
X22702381Y-31357143D02*
X22654762Y-31404762D01*
X22511905Y-31452381D01*
X22416667Y-31452381D01*
X22273809Y-31404762D01*
X22178571Y-31309524D01*
X22130952Y-31214286D01*
X22083333Y-31023810D01*
X22083333Y-30880952D01*
X22130952Y-30690476D01*
X22178571Y-30595238D01*
X22273809Y-30500000D01*
X22416667Y-30452381D01*
X22511905Y-30452381D01*
X22654762Y-30500000D01*
X22702381Y-30547619D01*
X23273809Y-30880952D02*
X23178571Y-30833333D01*
X23130952Y-30785714D01*
X23083333Y-30690476D01*
X23083333Y-30642857D01*
X23130952Y-30547619D01*
X23178571Y-30500000D01*
X23273809Y-30452381D01*
X23464286Y-30452381D01*
X23559524Y-30500000D01*
X23607143Y-30547619D01*
X23654762Y-30642857D01*
X23654762Y-30690476D01*
X23607143Y-30785714D01*
X23559524Y-30833333D01*
X23464286Y-30880952D01*
X23273809Y-30880952D01*
X23178571Y-30928571D01*
X23130952Y-30976190D01*
X23083333Y-31071429D01*
X23083333Y-31261905D01*
X23130952Y-31357143D01*
X23178571Y-31404762D01*
X23273809Y-31452381D01*
X23464286Y-31452381D01*
X23559524Y-31404762D01*
X23607143Y-31357143D01*
X23654762Y-31261905D01*
X23654762Y-31071429D01*
X23607143Y-30976190D01*
X23559524Y-30928571D01*
X23464286Y-30880952D01*
X24511905Y-30785714D02*
X24511905Y-31452381D01*
X24273809Y-30404762D02*
X24035714Y-31119048D01*
X24654762Y-31119048D01*
X25464286Y-30452381D02*
X25273809Y-30452381D01*
X25178571Y-30500000D01*
X25130952Y-30547619D01*
X25035714Y-30690476D01*
X24988095Y-30880952D01*
X24988095Y-31261905D01*
X25035714Y-31357143D01*
X25083333Y-31404762D01*
X25178571Y-31452381D01*
X25369048Y-31452381D01*
X25464286Y-31404762D01*
X25511905Y-31357143D01*
X25559524Y-31261905D01*
X25559524Y-31023810D01*
X25511905Y-30928571D01*
X25464286Y-30880952D01*
X25369048Y-30833333D01*
X25178571Y-30833333D01*
X25083333Y-30880952D01*
X25035714Y-30928571D01*
X24988095Y-31023810D01*
X25940476Y-31166667D02*
X26416667Y-31166667D01*
X25845238Y-31452381D02*
X26178571Y-30452381D01*
X26511905Y-31452381D01*
D13*
X23702381Y-32773810D02*
X23654762Y-32750000D01*
X23607143Y-32702381D01*
X23535714Y-32630952D01*
X23488095Y-32607143D01*
X23440476Y-32607143D01*
X23464286Y-32726190D02*
X23416667Y-32702381D01*
X23369048Y-32654762D01*
X23345238Y-32559524D01*
X23345238Y-32392857D01*
X23369048Y-32297619D01*
X23416667Y-32250000D01*
X23464286Y-32226190D01*
X23559524Y-32226190D01*
X23607143Y-32250000D01*
X23654762Y-32297619D01*
X23678571Y-32392857D01*
X23678571Y-32559524D01*
X23654762Y-32654762D01*
X23607143Y-32702381D01*
X23559524Y-32726190D01*
X23464286Y-32726190D01*
X23845239Y-32226190D02*
X24154762Y-32226190D01*
X23988096Y-32416667D01*
X24059524Y-32416667D01*
X24107143Y-32440476D01*
X24130953Y-32464286D01*
X24154762Y-32511905D01*
X24154762Y-32630952D01*
X24130953Y-32678571D01*
X24107143Y-32702381D01*
X24059524Y-32726190D01*
X23916667Y-32726190D01*
X23869048Y-32702381D01*
X23845239Y-32678571D01*
D11*
X6952381Y-9869047D02*
X6952381Y-10440476D01*
X6952381Y-10154762D02*
X5952381Y-10154762D01*
X6095238Y-10250000D01*
X6190476Y-10345238D01*
X6238095Y-10440476D01*
X5952381Y-9250000D02*
X5952381Y-9154761D01*
X6000000Y-9059523D01*
X6047619Y-9011904D01*
X6142857Y-8964285D01*
X6333333Y-8916666D01*
X6571429Y-8916666D01*
X6761905Y-8964285D01*
X6857143Y-9011904D01*
X6904762Y-9059523D01*
X6952381Y-9154761D01*
X6952381Y-9250000D01*
X6904762Y-9345238D01*
X6857143Y-9392857D01*
X6761905Y-9440476D01*
X6571429Y-9488095D01*
X6333333Y-9488095D01*
X6142857Y-9440476D01*
X6047619Y-9392857D01*
X6000000Y-9345238D01*
X5952381Y-9250000D01*
X5952381Y-8297619D02*
X5952381Y-8202380D01*
X6000000Y-8107142D01*
X6047619Y-8059523D01*
X6142857Y-8011904D01*
X6333333Y-7964285D01*
X6571429Y-7964285D01*
X6761905Y-8011904D01*
X6857143Y-8059523D01*
X6904762Y-8107142D01*
X6952381Y-8202380D01*
X6952381Y-8297619D01*
X6904762Y-8392857D01*
X6857143Y-8440476D01*
X6761905Y-8488095D01*
X6571429Y-8535714D01*
X6333333Y-8535714D01*
X6142857Y-8488095D01*
X6047619Y-8440476D01*
X6000000Y-8392857D01*
X5952381Y-8297619D01*
X6285714Y-7535714D02*
X6952381Y-7535714D01*
X6380952Y-7535714D02*
X6333333Y-7488095D01*
X6285714Y-7392857D01*
X6285714Y-7249999D01*
X6333333Y-7154761D01*
X6428571Y-7107142D01*
X6952381Y-7107142D01*
X6857143Y-5166666D02*
X6904762Y-5214285D01*
X6952381Y-5357142D01*
X6952381Y-5452380D01*
X6904762Y-5595238D01*
X6809524Y-5690476D01*
X6714286Y-5738095D01*
X6523810Y-5785714D01*
X6380952Y-5785714D01*
X6190476Y-5738095D01*
X6095238Y-5690476D01*
X6000000Y-5595238D01*
X5952381Y-5452380D01*
X5952381Y-5357142D01*
X6000000Y-5214285D01*
X6047619Y-5166666D01*
X6952381Y-4214285D02*
X6952381Y-4785714D01*
X6952381Y-4500000D02*
X5952381Y-4500000D01*
X6095238Y-4595238D01*
X6190476Y-4690476D01*
X6238095Y-4785714D01*
X11452381Y-28988095D02*
X11452381Y-28369047D01*
X11833333Y-28702381D01*
X11833333Y-28559523D01*
X11880952Y-28464285D01*
X11928571Y-28416666D01*
X12023810Y-28369047D01*
X12261905Y-28369047D01*
X12357143Y-28416666D01*
X12404762Y-28464285D01*
X12452381Y-28559523D01*
X12452381Y-28845238D01*
X12404762Y-28940476D01*
X12357143Y-28988095D01*
X11452381Y-28035714D02*
X11452381Y-27416666D01*
X11833333Y-27750000D01*
X11833333Y-27607142D01*
X11880952Y-27511904D01*
X11928571Y-27464285D01*
X12023810Y-27416666D01*
X12261905Y-27416666D01*
X12357143Y-27464285D01*
X12404762Y-27511904D01*
X12452381Y-27607142D01*
X12452381Y-27892857D01*
X12404762Y-27988095D01*
X12357143Y-28035714D01*
X11452381Y-26797619D02*
X11452381Y-26702380D01*
X11500000Y-26607142D01*
X11547619Y-26559523D01*
X11642857Y-26511904D01*
X11833333Y-26464285D01*
X12071429Y-26464285D01*
X12261905Y-26511904D01*
X12357143Y-26559523D01*
X12404762Y-26607142D01*
X12452381Y-26702380D01*
X12452381Y-26797619D01*
X12404762Y-26892857D01*
X12357143Y-26940476D01*
X12261905Y-26988095D01*
X12071429Y-27035714D01*
X11833333Y-27035714D01*
X11642857Y-26988095D01*
X11547619Y-26940476D01*
X11500000Y-26892857D01*
X11452381Y-26797619D01*
X11785714Y-26035714D02*
X12452381Y-26035714D01*
X11880952Y-26035714D02*
X11833333Y-25988095D01*
X11785714Y-25892857D01*
X11785714Y-25749999D01*
X11833333Y-25654761D01*
X11928571Y-25607142D01*
X12452381Y-25607142D01*
X12357143Y-31666666D02*
X12404762Y-31714285D01*
X12452381Y-31857142D01*
X12452381Y-31952380D01*
X12404762Y-32095238D01*
X12309524Y-32190476D01*
X12214286Y-32238095D01*
X12023810Y-32285714D01*
X11880952Y-32285714D01*
X11690476Y-32238095D01*
X11595238Y-32190476D01*
X11500000Y-32095238D01*
X11452381Y-31952380D01*
X11452381Y-31857142D01*
X11500000Y-31714285D01*
X11547619Y-31666666D01*
X11547619Y-31285714D02*
X11500000Y-31238095D01*
X11452381Y-31142857D01*
X11452381Y-30904761D01*
X11500000Y-30809523D01*
X11547619Y-30761904D01*
X11642857Y-30714285D01*
X11738095Y-30714285D01*
X11880952Y-30761904D01*
X12452381Y-31333333D01*
X12452381Y-30714285D01*
X19952381Y-36619047D02*
X19952381Y-37190476D01*
X19952381Y-36904762D02*
X18952381Y-36904762D01*
X19095238Y-37000000D01*
X19190476Y-37095238D01*
X19238095Y-37190476D01*
X18952381Y-36000000D02*
X18952381Y-35904761D01*
X19000000Y-35809523D01*
X19047619Y-35761904D01*
X19142857Y-35714285D01*
X19333333Y-35666666D01*
X19571429Y-35666666D01*
X19761905Y-35714285D01*
X19857143Y-35761904D01*
X19904762Y-35809523D01*
X19952381Y-35904761D01*
X19952381Y-36000000D01*
X19904762Y-36095238D01*
X19857143Y-36142857D01*
X19761905Y-36190476D01*
X19571429Y-36238095D01*
X19333333Y-36238095D01*
X19142857Y-36190476D01*
X19047619Y-36142857D01*
X19000000Y-36095238D01*
X18952381Y-36000000D01*
X18952381Y-35047619D02*
X18952381Y-34952380D01*
X19000000Y-34857142D01*
X19047619Y-34809523D01*
X19142857Y-34761904D01*
X19333333Y-34714285D01*
X19571429Y-34714285D01*
X19761905Y-34761904D01*
X19857143Y-34809523D01*
X19904762Y-34857142D01*
X19952381Y-34952380D01*
X19952381Y-35047619D01*
X19904762Y-35142857D01*
X19857143Y-35190476D01*
X19761905Y-35238095D01*
X19571429Y-35285714D01*
X19333333Y-35285714D01*
X19142857Y-35238095D01*
X19047619Y-35190476D01*
X19000000Y-35142857D01*
X18952381Y-35047619D01*
X19285714Y-34285714D02*
X19952381Y-34285714D01*
X19380952Y-34285714D02*
X19333333Y-34238095D01*
X19285714Y-34142857D01*
X19285714Y-33999999D01*
X19333333Y-33904761D01*
X19428571Y-33857142D01*
X19952381Y-33857142D01*
X19857143Y-31666666D02*
X19904762Y-31714285D01*
X19952381Y-31857142D01*
X19952381Y-31952380D01*
X19904762Y-32095238D01*
X19809524Y-32190476D01*
X19714286Y-32238095D01*
X19523810Y-32285714D01*
X19380952Y-32285714D01*
X19190476Y-32238095D01*
X19095238Y-32190476D01*
X19000000Y-32095238D01*
X18952381Y-31952380D01*
X18952381Y-31857142D01*
X19000000Y-31714285D01*
X19047619Y-31666666D01*
X18952381Y-31333333D02*
X18952381Y-30714285D01*
X19333333Y-31047619D01*
X19333333Y-30904761D01*
X19380952Y-30809523D01*
X19428571Y-30761904D01*
X19523810Y-30714285D01*
X19761905Y-30714285D01*
X19857143Y-30761904D01*
X19904762Y-30809523D01*
X19952381Y-30904761D01*
X19952381Y-31190476D01*
X19904762Y-31285714D01*
X19857143Y-31333333D01*
X6952381Y-28642857D02*
X6952381Y-29214286D01*
X6952381Y-28928572D02*
X5952381Y-28928572D01*
X6095238Y-29023810D01*
X6190476Y-29119048D01*
X6238095Y-29214286D01*
X5952381Y-28023810D02*
X5952381Y-27928571D01*
X6000000Y-27833333D01*
X6047619Y-27785714D01*
X6142857Y-27738095D01*
X6333333Y-27690476D01*
X6571429Y-27690476D01*
X6761905Y-27738095D01*
X6857143Y-27785714D01*
X6904762Y-27833333D01*
X6952381Y-27928571D01*
X6952381Y-28023810D01*
X6904762Y-28119048D01*
X6857143Y-28166667D01*
X6761905Y-28214286D01*
X6571429Y-28261905D01*
X6333333Y-28261905D01*
X6142857Y-28214286D01*
X6047619Y-28166667D01*
X6000000Y-28119048D01*
X5952381Y-28023810D01*
X6285714Y-26833333D02*
X6952381Y-26833333D01*
X6285714Y-27261905D02*
X6809524Y-27261905D01*
X6904762Y-27214286D01*
X6952381Y-27119048D01*
X6952381Y-26976190D01*
X6904762Y-26880952D01*
X6857143Y-26833333D01*
X6857143Y-31666666D02*
X6904762Y-31714285D01*
X6952381Y-31857142D01*
X6952381Y-31952380D01*
X6904762Y-32095238D01*
X6809524Y-32190476D01*
X6714286Y-32238095D01*
X6523810Y-32285714D01*
X6380952Y-32285714D01*
X6190476Y-32238095D01*
X6095238Y-32190476D01*
X6000000Y-32095238D01*
X5952381Y-31952380D01*
X5952381Y-31857142D01*
X6000000Y-31714285D01*
X6047619Y-31666666D01*
X6285714Y-30809523D02*
X6952381Y-30809523D01*
X5904762Y-31047619D02*
X6619048Y-31285714D01*
X6619048Y-30666666D01*
X6952381Y-20142857D02*
X6952381Y-20714286D01*
X6952381Y-20428572D02*
X5952381Y-20428572D01*
X6095238Y-20523810D01*
X6190476Y-20619048D01*
X6238095Y-20714286D01*
X5952381Y-19523810D02*
X5952381Y-19428571D01*
X6000000Y-19333333D01*
X6047619Y-19285714D01*
X6142857Y-19238095D01*
X6333333Y-19190476D01*
X6571429Y-19190476D01*
X6761905Y-19238095D01*
X6857143Y-19285714D01*
X6904762Y-19333333D01*
X6952381Y-19428571D01*
X6952381Y-19523810D01*
X6904762Y-19619048D01*
X6857143Y-19666667D01*
X6761905Y-19714286D01*
X6571429Y-19761905D01*
X6333333Y-19761905D01*
X6142857Y-19714286D01*
X6047619Y-19666667D01*
X6000000Y-19619048D01*
X5952381Y-19523810D01*
X6285714Y-18333333D02*
X6952381Y-18333333D01*
X6285714Y-18761905D02*
X6809524Y-18761905D01*
X6904762Y-18714286D01*
X6952381Y-18619048D01*
X6952381Y-18476190D01*
X6904762Y-18380952D01*
X6857143Y-18333333D01*
X6857143Y-16416666D02*
X6904762Y-16464285D01*
X6952381Y-16607142D01*
X6952381Y-16702380D01*
X6904762Y-16845238D01*
X6809524Y-16940476D01*
X6714286Y-16988095D01*
X6523810Y-17035714D01*
X6380952Y-17035714D01*
X6190476Y-16988095D01*
X6095238Y-16940476D01*
X6000000Y-16845238D01*
X5952381Y-16702380D01*
X5952381Y-16607142D01*
X6000000Y-16464285D01*
X6047619Y-16416666D01*
X5952381Y-15511904D02*
X5952381Y-15988095D01*
X6428571Y-16035714D01*
X6380952Y-15988095D01*
X6333333Y-15892857D01*
X6333333Y-15654761D01*
X6380952Y-15559523D01*
X6428571Y-15511904D01*
X6523810Y-15464285D01*
X6761905Y-15464285D01*
X6857143Y-15511904D01*
X6904762Y-15559523D01*
X6952381Y-15654761D01*
X6952381Y-15892857D01*
X6904762Y-15988095D01*
X6857143Y-16035714D01*
X6952381Y-49392857D02*
X6952381Y-49964286D01*
X6952381Y-49678572D02*
X5952381Y-49678572D01*
X6095238Y-49773810D01*
X6190476Y-49869048D01*
X6238095Y-49964286D01*
X5952381Y-48773810D02*
X5952381Y-48678571D01*
X6000000Y-48583333D01*
X6047619Y-48535714D01*
X6142857Y-48488095D01*
X6333333Y-48440476D01*
X6571429Y-48440476D01*
X6761905Y-48488095D01*
X6857143Y-48535714D01*
X6904762Y-48583333D01*
X6952381Y-48678571D01*
X6952381Y-48773810D01*
X6904762Y-48869048D01*
X6857143Y-48916667D01*
X6761905Y-48964286D01*
X6571429Y-49011905D01*
X6333333Y-49011905D01*
X6142857Y-48964286D01*
X6047619Y-48916667D01*
X6000000Y-48869048D01*
X5952381Y-48773810D01*
X6285714Y-47583333D02*
X6952381Y-47583333D01*
X6285714Y-48011905D02*
X6809524Y-48011905D01*
X6904762Y-47964286D01*
X6952381Y-47869048D01*
X6952381Y-47726190D01*
X6904762Y-47630952D01*
X6857143Y-47583333D01*
X6857143Y-52892857D02*
X6904762Y-52940476D01*
X6952381Y-53083333D01*
X6952381Y-53178571D01*
X6904762Y-53321429D01*
X6809524Y-53416667D01*
X6714286Y-53464286D01*
X6523810Y-53511905D01*
X6380952Y-53511905D01*
X6190476Y-53464286D01*
X6095238Y-53416667D01*
X6000000Y-53321429D01*
X5952381Y-53178571D01*
X5952381Y-53083333D01*
X6000000Y-52940476D01*
X6047619Y-52892857D01*
X6952381Y-51940476D02*
X6952381Y-52511905D01*
X6952381Y-52226191D02*
X5952381Y-52226191D01*
X6095238Y-52321429D01*
X6190476Y-52416667D01*
X6238095Y-52511905D01*
X5952381Y-51607143D02*
X5952381Y-50988095D01*
X6333333Y-51321429D01*
X6333333Y-51178571D01*
X6380952Y-51083333D01*
X6428571Y-51035714D01*
X6523810Y-50988095D01*
X6761905Y-50988095D01*
X6857143Y-51035714D01*
X6904762Y-51083333D01*
X6952381Y-51178571D01*
X6952381Y-51464286D01*
X6904762Y-51559524D01*
X6857143Y-51607143D01*
X6952381Y-37619047D02*
X6952381Y-38190476D01*
X6952381Y-37904762D02*
X5952381Y-37904762D01*
X6095238Y-38000000D01*
X6190476Y-38095238D01*
X6238095Y-38190476D01*
X5952381Y-37000000D02*
X5952381Y-36904761D01*
X6000000Y-36809523D01*
X6047619Y-36761904D01*
X6142857Y-36714285D01*
X6333333Y-36666666D01*
X6571429Y-36666666D01*
X6761905Y-36714285D01*
X6857143Y-36761904D01*
X6904762Y-36809523D01*
X6952381Y-36904761D01*
X6952381Y-37000000D01*
X6904762Y-37095238D01*
X6857143Y-37142857D01*
X6761905Y-37190476D01*
X6571429Y-37238095D01*
X6333333Y-37238095D01*
X6142857Y-37190476D01*
X6047619Y-37142857D01*
X6000000Y-37095238D01*
X5952381Y-37000000D01*
X5952381Y-36047619D02*
X5952381Y-35952380D01*
X6000000Y-35857142D01*
X6047619Y-35809523D01*
X6142857Y-35761904D01*
X6333333Y-35714285D01*
X6571429Y-35714285D01*
X6761905Y-35761904D01*
X6857143Y-35809523D01*
X6904762Y-35857142D01*
X6952381Y-35952380D01*
X6952381Y-36047619D01*
X6904762Y-36142857D01*
X6857143Y-36190476D01*
X6761905Y-36238095D01*
X6571429Y-36285714D01*
X6333333Y-36285714D01*
X6142857Y-36238095D01*
X6047619Y-36190476D01*
X6000000Y-36142857D01*
X5952381Y-36047619D01*
X6285714Y-35285714D02*
X6952381Y-35285714D01*
X6380952Y-35285714D02*
X6333333Y-35238095D01*
X6285714Y-35142857D01*
X6285714Y-34999999D01*
X6333333Y-34904761D01*
X6428571Y-34857142D01*
X6952381Y-34857142D01*
X6857143Y-41142857D02*
X6904762Y-41190476D01*
X6952381Y-41333333D01*
X6952381Y-41428571D01*
X6904762Y-41571429D01*
X6809524Y-41666667D01*
X6714286Y-41714286D01*
X6523810Y-41761905D01*
X6380952Y-41761905D01*
X6190476Y-41714286D01*
X6095238Y-41666667D01*
X6000000Y-41571429D01*
X5952381Y-41428571D01*
X5952381Y-41333333D01*
X6000000Y-41190476D01*
X6047619Y-41142857D01*
X6952381Y-40190476D02*
X6952381Y-40761905D01*
X6952381Y-40476191D02*
X5952381Y-40476191D01*
X6095238Y-40571429D01*
X6190476Y-40666667D01*
X6238095Y-40761905D01*
X6380952Y-39619048D02*
X6333333Y-39714286D01*
X6285714Y-39761905D01*
X6190476Y-39809524D01*
X6142857Y-39809524D01*
X6047619Y-39761905D01*
X6000000Y-39714286D01*
X5952381Y-39619048D01*
X5952381Y-39428571D01*
X6000000Y-39333333D01*
X6047619Y-39285714D01*
X6142857Y-39238095D01*
X6190476Y-39238095D01*
X6285714Y-39285714D01*
X6333333Y-39333333D01*
X6380952Y-39428571D01*
X6380952Y-39619048D01*
X6428571Y-39714286D01*
X6476190Y-39761905D01*
X6571429Y-39809524D01*
X6761905Y-39809524D01*
X6857143Y-39761905D01*
X6904762Y-39714286D01*
X6952381Y-39619048D01*
X6952381Y-39428571D01*
X6904762Y-39333333D01*
X6857143Y-39285714D01*
X6761905Y-39238095D01*
X6571429Y-39238095D01*
X6476190Y-39285714D01*
X6428571Y-39333333D01*
X6380952Y-39428571D01*
X28702381Y-15833333D02*
X29416667Y-15833333D01*
X29559524Y-15880953D01*
X29654762Y-15976191D01*
X29702381Y-16119048D01*
X29702381Y-16214286D01*
X28797619Y-15404762D02*
X28750000Y-15357143D01*
X28702381Y-15261905D01*
X28702381Y-15023809D01*
X28750000Y-14928571D01*
X28797619Y-14880952D01*
X28892857Y-14833333D01*
X28988095Y-14833333D01*
X29130952Y-14880952D01*
X29702381Y-15452381D01*
X29702381Y-14833333D01*
X26250000Y-17071428D02*
X26202381Y-17166666D01*
X26202381Y-17309523D01*
X26250000Y-17452381D01*
X26345238Y-17547619D01*
X26440476Y-17595238D01*
X26630952Y-17642857D01*
X26773810Y-17642857D01*
X26964286Y-17595238D01*
X27059524Y-17547619D01*
X27154762Y-17452381D01*
X27202381Y-17309523D01*
X27202381Y-17214285D01*
X27154762Y-17071428D01*
X27107143Y-17023809D01*
X26773810Y-17023809D01*
X26773810Y-17214285D01*
X27202381Y-16166666D02*
X26678571Y-16166666D01*
X26583333Y-16214285D01*
X26535714Y-16309523D01*
X26535714Y-16500000D01*
X26583333Y-16595238D01*
X27154762Y-16166666D02*
X27202381Y-16261904D01*
X27202381Y-16500000D01*
X27154762Y-16595238D01*
X27059524Y-16642857D01*
X26964286Y-16642857D01*
X26869048Y-16595238D01*
X26821429Y-16500000D01*
X26821429Y-16261904D01*
X26773810Y-16166666D01*
X26535714Y-15833333D02*
X26535714Y-15452381D01*
X26202381Y-15690476D02*
X27059524Y-15690476D01*
X27154762Y-15642857D01*
X27202381Y-15547619D01*
X27202381Y-15452381D01*
X27154762Y-14738094D02*
X27202381Y-14833332D01*
X27202381Y-15023809D01*
X27154762Y-15119047D01*
X27059524Y-15166666D01*
X26678571Y-15166666D01*
X26583333Y-15119047D01*
X26535714Y-15023809D01*
X26535714Y-14833332D01*
X26583333Y-14738094D01*
X26678571Y-14690475D01*
X26773810Y-14690475D01*
X26869048Y-15166666D01*
X27107143Y-14261904D02*
X27154762Y-14214285D01*
X27202381Y-14261904D01*
X27154762Y-14309523D01*
X27107143Y-14261904D01*
X27202381Y-14261904D01*
X26583333Y-14261904D02*
X26630952Y-14214285D01*
X26678571Y-14261904D01*
X26630952Y-14309523D01*
X26583333Y-14261904D01*
X26678571Y-14261904D01*
X26916667Y-13833333D02*
X26916667Y-13357142D01*
X27202381Y-13928571D02*
X26202381Y-13595238D01*
X27202381Y-13261904D01*
X28702381Y-21833333D02*
X29416667Y-21833333D01*
X29559524Y-21880953D01*
X29654762Y-21976191D01*
X29702381Y-22119048D01*
X29702381Y-22214286D01*
X28702381Y-21452381D02*
X28702381Y-20833333D01*
X29083333Y-21166667D01*
X29083333Y-21023809D01*
X29130952Y-20928571D01*
X29178571Y-20880952D01*
X29273810Y-20833333D01*
X29511905Y-20833333D01*
X29607143Y-20880952D01*
X29654762Y-20928571D01*
X29702381Y-21023809D01*
X29702381Y-21309524D01*
X29654762Y-21404762D01*
X29607143Y-21452381D01*
X26202381Y-23452381D02*
X27202381Y-23119048D01*
X26202381Y-22785714D01*
X27154762Y-22500000D02*
X27202381Y-22357143D01*
X27202381Y-22119047D01*
X27154762Y-22023809D01*
X27107143Y-21976190D01*
X27011905Y-21928571D01*
X26916667Y-21928571D01*
X26821429Y-21976190D01*
X26773810Y-22023809D01*
X26726190Y-22119047D01*
X26678571Y-22309524D01*
X26630952Y-22404762D01*
X26583333Y-22452381D01*
X26488095Y-22500000D01*
X26392857Y-22500000D01*
X26297619Y-22452381D01*
X26250000Y-22404762D01*
X26202381Y-22309524D01*
X26202381Y-22071428D01*
X26250000Y-21928571D01*
X27154762Y-21547619D02*
X27202381Y-21404762D01*
X27202381Y-21166666D01*
X27154762Y-21071428D01*
X27107143Y-21023809D01*
X27011905Y-20976190D01*
X26916667Y-20976190D01*
X26821429Y-21023809D01*
X26773810Y-21071428D01*
X26726190Y-21166666D01*
X26678571Y-21357143D01*
X26630952Y-21452381D01*
X26583333Y-21500000D01*
X26488095Y-21547619D01*
X26392857Y-21547619D01*
X26297619Y-21500000D01*
X26250000Y-21452381D01*
X26202381Y-21357143D01*
X26202381Y-21119047D01*
X26250000Y-20976190D01*
X27107143Y-20547619D02*
X27154762Y-20500000D01*
X27202381Y-20547619D01*
X27154762Y-20595238D01*
X27107143Y-20547619D01*
X27202381Y-20547619D01*
X26583333Y-20547619D02*
X26630952Y-20500000D01*
X26678571Y-20547619D01*
X26630952Y-20595238D01*
X26583333Y-20547619D01*
X26678571Y-20547619D01*
X26916667Y-20119048D02*
X26916667Y-19642857D01*
X27202381Y-20214286D02*
X26202381Y-19880953D01*
X27202381Y-19547619D01*
X28702381Y-38333333D02*
X29416667Y-38333333D01*
X29559524Y-38380953D01*
X29654762Y-38476191D01*
X29702381Y-38619048D01*
X29702381Y-38714286D01*
X29035714Y-37428571D02*
X29702381Y-37428571D01*
X28654762Y-37666667D02*
X29369048Y-37904762D01*
X29369048Y-37285714D01*
X25750000Y-39642857D02*
X25702381Y-39738095D01*
X25702381Y-39880952D01*
X25750000Y-40023810D01*
X25845238Y-40119048D01*
X25940476Y-40166667D01*
X26130952Y-40214286D01*
X26273810Y-40214286D01*
X26464286Y-40166667D01*
X26559524Y-40119048D01*
X26654762Y-40023810D01*
X26702381Y-39880952D01*
X26702381Y-39785714D01*
X26654762Y-39642857D01*
X26607143Y-39595238D01*
X26273810Y-39595238D01*
X26273810Y-39785714D01*
X26702381Y-38738095D02*
X26178571Y-38738095D01*
X26083333Y-38785714D01*
X26035714Y-38880952D01*
X26035714Y-39071429D01*
X26083333Y-39166667D01*
X26654762Y-38738095D02*
X26702381Y-38833333D01*
X26702381Y-39071429D01*
X26654762Y-39166667D01*
X26559524Y-39214286D01*
X26464286Y-39214286D01*
X26369048Y-39166667D01*
X26321429Y-39071429D01*
X26321429Y-38833333D01*
X26273810Y-38738095D01*
X26035714Y-38404762D02*
X26035714Y-38023810D01*
X25702381Y-38261905D02*
X26559524Y-38261905D01*
X26654762Y-38214286D01*
X26702381Y-38119048D01*
X26702381Y-38023810D01*
X26654762Y-37309523D02*
X26702381Y-37404761D01*
X26702381Y-37595238D01*
X26654762Y-37690476D01*
X26559524Y-37738095D01*
X26178571Y-37738095D01*
X26083333Y-37690476D01*
X26035714Y-37595238D01*
X26035714Y-37404761D01*
X26083333Y-37309523D01*
X26178571Y-37261904D01*
X26273810Y-37261904D01*
X26369048Y-37738095D01*
X26607143Y-36833333D02*
X26654762Y-36785714D01*
X26702381Y-36833333D01*
X26654762Y-36880952D01*
X26607143Y-36833333D01*
X26702381Y-36833333D01*
X26083333Y-36833333D02*
X26130952Y-36785714D01*
X26178571Y-36833333D01*
X26130952Y-36880952D01*
X26083333Y-36833333D01*
X26178571Y-36833333D01*
X26178571Y-36023809D02*
X26226190Y-35880952D01*
X26273810Y-35833333D01*
X26369048Y-35785714D01*
X26511905Y-35785714D01*
X26607143Y-35833333D01*
X26654762Y-35880952D01*
X26702381Y-35976190D01*
X26702381Y-36357143D01*
X25702381Y-36357143D01*
X25702381Y-36023809D01*
X25750000Y-35928571D01*
X25797619Y-35880952D01*
X25892857Y-35833333D01*
X25988095Y-35833333D01*
X26083333Y-35880952D01*
X26130952Y-35928571D01*
X26178571Y-36023809D01*
X26178571Y-36357143D01*
X28702381Y-44333333D02*
X29416667Y-44333333D01*
X29559524Y-44380953D01*
X29654762Y-44476191D01*
X29702381Y-44619048D01*
X29702381Y-44714286D01*
X28702381Y-43380952D02*
X28702381Y-43857143D01*
X29178571Y-43904762D01*
X29130952Y-43857143D01*
X29083333Y-43761905D01*
X29083333Y-43523809D01*
X29130952Y-43428571D01*
X29178571Y-43380952D01*
X29273810Y-43333333D01*
X29511905Y-43333333D01*
X29607143Y-43380952D01*
X29654762Y-43428571D01*
X29702381Y-43523809D01*
X29702381Y-43761905D01*
X29654762Y-43857143D01*
X29607143Y-43904762D01*
X25702381Y-45773809D02*
X26702381Y-45440476D01*
X25702381Y-45107142D01*
X26654762Y-44821428D02*
X26702381Y-44678571D01*
X26702381Y-44440475D01*
X26654762Y-44345237D01*
X26607143Y-44297618D01*
X26511905Y-44249999D01*
X26416667Y-44249999D01*
X26321429Y-44297618D01*
X26273810Y-44345237D01*
X26226190Y-44440475D01*
X26178571Y-44630952D01*
X26130952Y-44726190D01*
X26083333Y-44773809D01*
X25988095Y-44821428D01*
X25892857Y-44821428D01*
X25797619Y-44773809D01*
X25750000Y-44726190D01*
X25702381Y-44630952D01*
X25702381Y-44392856D01*
X25750000Y-44249999D01*
X26654762Y-43869047D02*
X26702381Y-43726190D01*
X26702381Y-43488094D01*
X26654762Y-43392856D01*
X26607143Y-43345237D01*
X26511905Y-43297618D01*
X26416667Y-43297618D01*
X26321429Y-43345237D01*
X26273810Y-43392856D01*
X26226190Y-43488094D01*
X26178571Y-43678571D01*
X26130952Y-43773809D01*
X26083333Y-43821428D01*
X25988095Y-43869047D01*
X25892857Y-43869047D01*
X25797619Y-43821428D01*
X25750000Y-43773809D01*
X25702381Y-43678571D01*
X25702381Y-43440475D01*
X25750000Y-43297618D01*
X26607143Y-42869047D02*
X26654762Y-42821428D01*
X26702381Y-42869047D01*
X26654762Y-42916666D01*
X26607143Y-42869047D01*
X26702381Y-42869047D01*
X26083333Y-42869047D02*
X26130952Y-42821428D01*
X26178571Y-42869047D01*
X26130952Y-42916666D01*
X26083333Y-42869047D01*
X26178571Y-42869047D01*
X26178571Y-42059523D02*
X26226190Y-41916666D01*
X26273810Y-41869047D01*
X26369048Y-41821428D01*
X26511905Y-41821428D01*
X26607143Y-41869047D01*
X26654762Y-41916666D01*
X26702381Y-42011904D01*
X26702381Y-42392857D01*
X25702381Y-42392857D01*
X25702381Y-42059523D01*
X25750000Y-41964285D01*
X25797619Y-41916666D01*
X25892857Y-41869047D01*
X25988095Y-41869047D01*
X26083333Y-41916666D01*
X26130952Y-41964285D01*
X26178571Y-42059523D01*
X26178571Y-42392857D01*
X9166667Y-35952381D02*
X8690476Y-35952381D01*
X8690476Y-34952381D01*
X9404762Y-34952381D02*
X10071429Y-34952381D01*
X9642857Y-35952381D01*
X10595238Y-35380952D02*
X10500000Y-35333333D01*
X10452381Y-35285714D01*
X10404762Y-35190476D01*
X10404762Y-35142857D01*
X10452381Y-35047619D01*
X10500000Y-35000000D01*
X10595238Y-34952381D01*
X10785715Y-34952381D01*
X10880953Y-35000000D01*
X10928572Y-35047619D01*
X10976191Y-35142857D01*
X10976191Y-35190476D01*
X10928572Y-35285714D01*
X10880953Y-35333333D01*
X10785715Y-35380952D01*
X10595238Y-35380952D01*
X10500000Y-35428571D01*
X10452381Y-35476190D01*
X10404762Y-35571429D01*
X10404762Y-35761905D01*
X10452381Y-35857143D01*
X10500000Y-35904762D01*
X10595238Y-35952381D01*
X10785715Y-35952381D01*
X10880953Y-35904762D01*
X10928572Y-35857143D01*
X10976191Y-35761905D01*
X10976191Y-35571429D01*
X10928572Y-35476190D01*
X10880953Y-35428571D01*
X10785715Y-35380952D01*
X11880953Y-35952381D02*
X11404762Y-35952381D01*
X11404762Y-34952381D01*
X12738096Y-35952381D02*
X12166667Y-35952381D01*
X12452381Y-35952381D02*
X12452381Y-34952381D01*
X12357143Y-35095238D01*
X12261905Y-35190476D01*
X12166667Y-35238095D01*
X13642858Y-34952381D02*
X13166667Y-34952381D01*
X13119048Y-35428571D01*
X13166667Y-35380952D01*
X13261905Y-35333333D01*
X13500001Y-35333333D01*
X13595239Y-35380952D01*
X13642858Y-35428571D01*
X13690477Y-35523810D01*
X13690477Y-35761905D01*
X13642858Y-35857143D01*
X13595239Y-35904762D01*
X13500001Y-35952381D01*
X13261905Y-35952381D01*
X13166667Y-35904762D01*
X13119048Y-35857143D01*
X14071429Y-35666667D02*
X14547620Y-35666667D01*
X13976191Y-35952381D02*
X14309524Y-34952381D01*
X14642858Y-35952381D01*
X15309525Y-35428571D02*
X15452382Y-35476190D01*
X15500001Y-35523810D01*
X15547620Y-35619048D01*
X15547620Y-35761905D01*
X15500001Y-35857143D01*
X15452382Y-35904762D01*
X15357144Y-35952381D01*
X14976191Y-35952381D01*
X14976191Y-34952381D01*
X15309525Y-34952381D01*
X15404763Y-35000000D01*
X15452382Y-35047619D01*
X15500001Y-35142857D01*
X15500001Y-35238095D01*
X15452382Y-35333333D01*
X15404763Y-35380952D01*
X15309525Y-35428571D01*
X14976191Y-35428571D01*
X15976191Y-34952381D02*
X15976191Y-35761905D01*
X16023810Y-35857143D01*
X16071429Y-35904762D01*
X16166667Y-35952381D01*
X16357144Y-35952381D01*
X16452382Y-35904762D01*
X16500001Y-35857143D01*
X16547620Y-35761905D01*
X16547620Y-34952381D01*
X16880953Y-34952381D02*
X17452382Y-34952381D01*
X17166667Y-35952381D02*
X17166667Y-34952381D01*
X18357144Y-35952381D02*
X18023810Y-35476190D01*
X17785715Y-35952381D02*
X17785715Y-34952381D01*
X18166668Y-34952381D01*
X18261906Y-35000000D01*
X18309525Y-35047619D01*
X18357144Y-35142857D01*
X18357144Y-35285714D01*
X18309525Y-35380952D01*
X18261906Y-35428571D01*
X18166668Y-35476190D01*
X17785715Y-35476190D01*
D14*
X15292857Y-31551429D02*
X15292857Y-32037143D01*
X15321429Y-32094286D01*
X15350000Y-32122857D01*
X15407143Y-32151429D01*
X15521429Y-32151429D01*
X15578571Y-32122857D01*
X15607143Y-32094286D01*
X15635714Y-32037143D01*
X15635714Y-31551429D01*
X16235714Y-32151429D02*
X15892857Y-32151429D01*
X16064285Y-32151429D02*
X16064285Y-31551429D01*
X16007142Y-31637143D01*
X15950000Y-31694286D01*
X15892857Y-31722857D01*
D11*
X19261905Y-51928571D02*
X19404762Y-51976190D01*
X19452381Y-52023810D01*
X19500000Y-52119048D01*
X19500000Y-52261905D01*
X19452381Y-52357143D01*
X19404762Y-52404762D01*
X19309524Y-52452381D01*
X18928571Y-52452381D01*
X18928571Y-51452381D01*
X19261905Y-51452381D01*
X19357143Y-51500000D01*
X19404762Y-51547619D01*
X19452381Y-51642857D01*
X19452381Y-51738095D01*
X19404762Y-51833333D01*
X19357143Y-51880952D01*
X19261905Y-51928571D01*
X18928571Y-51928571D01*
X19928571Y-52452381D02*
X19928571Y-51785714D01*
X19928571Y-51976190D02*
X19976190Y-51880952D01*
X20023809Y-51833333D01*
X20119047Y-51785714D01*
X20214286Y-51785714D01*
X20976191Y-52452381D02*
X20976191Y-51928571D01*
X20928572Y-51833333D01*
X20833334Y-51785714D01*
X20642857Y-51785714D01*
X20547619Y-51833333D01*
X20976191Y-52404762D02*
X20880953Y-52452381D01*
X20642857Y-52452381D01*
X20547619Y-52404762D01*
X20500000Y-52309524D01*
X20500000Y-52214286D01*
X20547619Y-52119048D01*
X20642857Y-52071429D01*
X20880953Y-52071429D01*
X20976191Y-52023810D01*
X21880953Y-52404762D02*
X21785715Y-52452381D01*
X21595238Y-52452381D01*
X21500000Y-52404762D01*
X21452381Y-52357143D01*
X21404762Y-52261905D01*
X21404762Y-51976190D01*
X21452381Y-51880952D01*
X21500000Y-51833333D01*
X21595238Y-51785714D01*
X21785715Y-51785714D01*
X21880953Y-51833333D01*
X22309524Y-52452381D02*
X22309524Y-51452381D01*
X22404762Y-52071429D02*
X22690477Y-52452381D01*
X22690477Y-51785714D02*
X22309524Y-52166667D01*
X23500001Y-52404762D02*
X23404763Y-52452381D01*
X23214286Y-52452381D01*
X23119048Y-52404762D01*
X23071429Y-52309524D01*
X23071429Y-51928571D01*
X23119048Y-51833333D01*
X23214286Y-51785714D01*
X23404763Y-51785714D01*
X23500001Y-51833333D01*
X23547620Y-51928571D01*
X23547620Y-52023810D01*
X23071429Y-52119048D01*
X23833334Y-51785714D02*
X24214286Y-51785714D01*
X23976191Y-51452381D02*
X23976191Y-52309524D01*
X24023810Y-52404762D01*
X24119048Y-52452381D01*
X24214286Y-52452381D01*
X19261905Y-5928571D02*
X19404762Y-5976190D01*
X19452381Y-6023810D01*
X19500000Y-6119048D01*
X19500000Y-6261905D01*
X19452381Y-6357143D01*
X19404762Y-6404762D01*
X19309524Y-6452381D01*
X18928571Y-6452381D01*
X18928571Y-5452381D01*
X19261905Y-5452381D01*
X19357143Y-5500000D01*
X19404762Y-5547619D01*
X19452381Y-5642857D01*
X19452381Y-5738095D01*
X19404762Y-5833333D01*
X19357143Y-5880952D01*
X19261905Y-5928571D01*
X18928571Y-5928571D01*
X19928571Y-6452381D02*
X19928571Y-5785714D01*
X19928571Y-5976190D02*
X19976190Y-5880952D01*
X20023809Y-5833333D01*
X20119047Y-5785714D01*
X20214286Y-5785714D01*
X20976191Y-6452381D02*
X20976191Y-5928571D01*
X20928572Y-5833333D01*
X20833334Y-5785714D01*
X20642857Y-5785714D01*
X20547619Y-5833333D01*
X20976191Y-6404762D02*
X20880953Y-6452381D01*
X20642857Y-6452381D01*
X20547619Y-6404762D01*
X20500000Y-6309524D01*
X20500000Y-6214286D01*
X20547619Y-6119048D01*
X20642857Y-6071429D01*
X20880953Y-6071429D01*
X20976191Y-6023810D01*
X21880953Y-6404762D02*
X21785715Y-6452381D01*
X21595238Y-6452381D01*
X21500000Y-6404762D01*
X21452381Y-6357143D01*
X21404762Y-6261905D01*
X21404762Y-5976190D01*
X21452381Y-5880952D01*
X21500000Y-5833333D01*
X21595238Y-5785714D01*
X21785715Y-5785714D01*
X21880953Y-5833333D01*
X22309524Y-6452381D02*
X22309524Y-5452381D01*
X22404762Y-6071429D02*
X22690477Y-6452381D01*
X22690477Y-5785714D02*
X22309524Y-6166667D01*
X23500001Y-6404762D02*
X23404763Y-6452381D01*
X23214286Y-6452381D01*
X23119048Y-6404762D01*
X23071429Y-6309524D01*
X23071429Y-5928571D01*
X23119048Y-5833333D01*
X23214286Y-5785714D01*
X23404763Y-5785714D01*
X23500001Y-5833333D01*
X23547620Y-5928571D01*
X23547620Y-6023810D01*
X23071429Y-6119048D01*
X23833334Y-5785714D02*
X24214286Y-5785714D01*
X23976191Y-5452381D02*
X23976191Y-6309524D01*
X24023810Y-6404762D01*
X24119048Y-6452381D01*
X24214286Y-6452381D01*
M02*
