G04 Layer_Physical_Order=2*
G04 Layer_Color=13278208*
%FSLAX43Y43*%
%MOMM*%
G71*
G01*
G75*
%ADD11R,1.524X1.524*%
%ADD16R,1.524X1.524*%
%ADD17C,0.508*%
%ADD18C,1.270*%
%ADD19O,2.600X1.800*%
%ADD20C,2.000*%
%ADD21C,4.500*%
%ADD22C,2.500*%
%ADD23R,1.778X1.778*%
%ADD24C,1.778*%
%ADD25C,4.760*%
%ADD26R,1.690X1.690*%
%ADD27C,1.690*%
%ADD28C,6.000*%
%ADD29O,6.000X3.500*%
%ADD30O,1.800X2.600*%
%ADD31O,3.500X6.000*%
%ADD32O,3.500X1.800*%
%ADD33O,1.524X2.540*%
%ADD34O,2.540X1.524*%
%ADD35C,1.524*%
%ADD36O,1.524X3.048*%
%ADD37O,3.000X2.000*%
%ADD38O,3.302X2.540*%
%ADD39O,3.000X2.200*%
%ADD40C,1.270*%
G36*
X250000Y191000D02*
Y53000D01*
X247000Y50000D01*
X53000D01*
X50000Y53000D01*
Y191000D01*
X53000Y194000D01*
X149606D01*
Y192024D01*
X150368D01*
Y194000D01*
X171196D01*
Y192024D01*
X171958D01*
Y194000D01*
X247000D01*
X250000Y191000D01*
D02*
G37*
%LPC*%
G36*
X211344Y60695D02*
X210999Y60661D01*
X210666Y60560D01*
X210360Y60396D01*
X210092Y60176D01*
X209872Y59908D01*
X209708Y59602D01*
X209607Y59269D01*
X209573Y58924D01*
X209607Y58579D01*
X209708Y58246D01*
X209872Y57940D01*
X210092Y57672D01*
X210360Y57452D01*
X210666Y57288D01*
X210999Y57187D01*
X211344Y57153D01*
X211689Y57187D01*
X212022Y57288D01*
X212328Y57452D01*
X212596Y57672D01*
X212816Y57940D01*
X212980Y58246D01*
X213081Y58579D01*
X213115Y58924D01*
X213081Y59269D01*
X212980Y59602D01*
X212816Y59908D01*
X212596Y60176D01*
X212328Y60396D01*
X212022Y60560D01*
X211689Y60661D01*
X211344Y60695D01*
D02*
G37*
G36*
X93936Y175936D02*
X90888D01*
Y172888D01*
X91093D01*
X91333Y172380D01*
X91283Y172319D01*
X91096Y171970D01*
X90981Y171590D01*
X90942Y171196D01*
X90981Y170802D01*
X91096Y170422D01*
X91283Y170073D01*
X91534Y169766D01*
X91841Y169515D01*
X92190Y169328D01*
X92570Y169213D01*
X92964Y169174D01*
X93358Y169213D01*
X93465Y169246D01*
X95795Y166915D01*
X96008Y166753D01*
X96255Y166650D01*
X96520Y166615D01*
X96520Y166615D01*
X103689D01*
X103943Y166420D01*
X104283Y166279D01*
X104648Y166231D01*
X105013Y166279D01*
X105353Y166420D01*
X105644Y166644D01*
X105868Y166935D01*
X106009Y167275D01*
X106057Y167640D01*
X106009Y168005D01*
X105868Y168345D01*
X105644Y168636D01*
X105353Y168860D01*
X105013Y169001D01*
X104648Y169049D01*
X104283Y169001D01*
X103943Y168860D01*
X103689Y168665D01*
X96944D01*
X94914Y170695D01*
X94947Y170802D01*
X94986Y171196D01*
X94947Y171590D01*
X94832Y171970D01*
X94645Y172319D01*
X94394Y172626D01*
X94087Y172877D01*
X93989Y172930D01*
Y173860D01*
X93954Y174125D01*
X93936Y174168D01*
Y175936D01*
D02*
G37*
G36*
X210594Y55395D02*
X210249Y55361D01*
X209916Y55260D01*
X209610Y55096D01*
X209342Y54876D01*
X209122Y54608D01*
X208958Y54302D01*
X208857Y53969D01*
X208823Y53624D01*
X208857Y53279D01*
X208958Y52946D01*
X209122Y52640D01*
X209342Y52372D01*
X209610Y52152D01*
X209916Y51988D01*
X210249Y51887D01*
X210594Y51853D01*
X210939Y51887D01*
X211272Y51988D01*
X211578Y52152D01*
X211846Y52372D01*
X212066Y52640D01*
X212230Y52946D01*
X212331Y53279D01*
X212365Y53624D01*
X212331Y53969D01*
X212230Y54302D01*
X212066Y54608D01*
X211846Y54876D01*
X211578Y55096D01*
X211272Y55260D01*
X210939Y55361D01*
X210594Y55395D01*
D02*
G37*
G36*
X194072Y60695D02*
X193727Y60661D01*
X193394Y60560D01*
X193088Y60396D01*
X192820Y60176D01*
X192600Y59908D01*
X192436Y59602D01*
X192335Y59269D01*
X192301Y58924D01*
X192335Y58579D01*
X192436Y58246D01*
X192600Y57940D01*
X192820Y57672D01*
X193088Y57452D01*
X193394Y57288D01*
X193727Y57187D01*
X194072Y57153D01*
X194417Y57187D01*
X194750Y57288D01*
X195056Y57452D01*
X195324Y57672D01*
X195544Y57940D01*
X195708Y58246D01*
X195809Y58579D01*
X195843Y58924D01*
X195809Y59269D01*
X195708Y59602D01*
X195544Y59908D01*
X195324Y60176D01*
X195056Y60396D01*
X194750Y60560D01*
X194417Y60661D01*
X194072Y60695D01*
D02*
G37*
G36*
X234382Y106419D02*
X234037Y106385D01*
X233704Y106284D01*
X233398Y106120D01*
X233132Y105902D01*
X232866Y106120D01*
X232560Y106284D01*
X232227Y106385D01*
X231882Y106419D01*
X231537Y106385D01*
X231204Y106284D01*
X230898Y106120D01*
X230632Y105902D01*
X230366Y106120D01*
X230060Y106284D01*
X229727Y106385D01*
X229382Y106419D01*
X229037Y106385D01*
X228704Y106284D01*
X228398Y106120D01*
X228130Y105900D01*
X227910Y105632D01*
X227746Y105326D01*
X227645Y104993D01*
X227611Y104648D01*
X227645Y104303D01*
X227746Y103970D01*
X227910Y103664D01*
X228130Y103396D01*
X228398Y103176D01*
X228704Y103012D01*
X229037Y102911D01*
X229382Y102877D01*
X229727Y102911D01*
X230060Y103012D01*
X230366Y103176D01*
X230857Y102922D01*
Y83514D01*
X230366Y83260D01*
X230060Y83424D01*
X229727Y83525D01*
X229382Y83559D01*
X229037Y83525D01*
X228704Y83424D01*
X228398Y83260D01*
X228130Y83040D01*
X227910Y82772D01*
X227746Y82466D01*
X227645Y82133D01*
X227611Y81788D01*
X227645Y81443D01*
X227746Y81110D01*
X227910Y80804D01*
X228130Y80536D01*
X228398Y80316D01*
X228704Y80152D01*
X229037Y80051D01*
X229382Y80017D01*
X229727Y80051D01*
X230060Y80152D01*
X230366Y80316D01*
X230857Y80062D01*
Y60654D01*
X230366Y60400D01*
X230060Y60564D01*
X229727Y60665D01*
X229382Y60699D01*
X229037Y60665D01*
X228704Y60564D01*
X228398Y60400D01*
X228130Y60180D01*
X227910Y59912D01*
X227746Y59606D01*
X227645Y59273D01*
X227611Y58928D01*
X227645Y58583D01*
X227746Y58250D01*
X227910Y57944D01*
X228130Y57676D01*
X228398Y57456D01*
X228704Y57292D01*
X229037Y57191D01*
X229382Y57157D01*
X229727Y57191D01*
X230060Y57292D01*
X230366Y57456D01*
X230857Y57202D01*
Y53986D01*
X230652Y53828D01*
X230428Y53537D01*
X230287Y53197D01*
X230239Y52832D01*
X230287Y52467D01*
X230428Y52127D01*
X230652Y51836D01*
X230943Y51612D01*
X231283Y51471D01*
X231648Y51423D01*
X232013Y51471D01*
X232353Y51612D01*
X232644Y51836D01*
X232868Y52127D01*
X233009Y52467D01*
X233057Y52832D01*
X233009Y53197D01*
X232907Y53444D01*
Y57202D01*
X233398Y57456D01*
X233704Y57292D01*
X234037Y57191D01*
X234382Y57157D01*
X234727Y57191D01*
X235060Y57292D01*
X235366Y57456D01*
X235634Y57676D01*
X235854Y57944D01*
X236018Y58250D01*
X236119Y58583D01*
X236153Y58928D01*
X236119Y59273D01*
X236018Y59606D01*
X235854Y59912D01*
X235634Y60180D01*
X235366Y60400D01*
X235060Y60564D01*
X234727Y60665D01*
X234382Y60699D01*
X234037Y60665D01*
X233704Y60564D01*
X233398Y60400D01*
X232907Y60654D01*
Y80062D01*
X233398Y80316D01*
X233704Y80152D01*
X234037Y80051D01*
X234382Y80017D01*
X234727Y80051D01*
X235060Y80152D01*
X235366Y80316D01*
X235634Y80536D01*
X235854Y80804D01*
X236018Y81110D01*
X236119Y81443D01*
X236153Y81788D01*
X236119Y82133D01*
X236018Y82466D01*
X235854Y82772D01*
X235634Y83040D01*
X235366Y83260D01*
X235060Y83424D01*
X234727Y83525D01*
X234382Y83559D01*
X234037Y83525D01*
X233704Y83424D01*
X233398Y83260D01*
X232907Y83514D01*
Y102922D01*
X233398Y103176D01*
X233704Y103012D01*
X234037Y102911D01*
X234382Y102877D01*
X234727Y102911D01*
X235060Y103012D01*
X235366Y103176D01*
X235634Y103396D01*
X235854Y103664D01*
X236018Y103970D01*
X236119Y104303D01*
X236153Y104648D01*
X236119Y104993D01*
X236018Y105326D01*
X235854Y105632D01*
X235634Y105900D01*
X235366Y106120D01*
X235060Y106284D01*
X234727Y106385D01*
X234382Y106419D01*
D02*
G37*
G36*
X246272Y134578D02*
X245472D01*
X245146Y134546D01*
X245011Y134505D01*
X240284D01*
X239919Y134457D01*
X239579Y134316D01*
X239288Y134092D01*
X239064Y133801D01*
X238923Y133461D01*
X238875Y133096D01*
X238923Y132731D01*
X239064Y132391D01*
X239288Y132100D01*
X239579Y131876D01*
X239919Y131735D01*
X240284Y131687D01*
X243747D01*
X243882Y131530D01*
X244021Y131179D01*
X243929Y131007D01*
X243834Y130694D01*
X243802Y130368D01*
X243834Y130042D01*
X243929Y129729D01*
X244083Y129440D01*
X244291Y129187D01*
X244463Y129046D01*
Y127626D01*
X244291Y127485D01*
X244083Y127232D01*
X243929Y126943D01*
X243834Y126630D01*
X243802Y126304D01*
X243834Y125978D01*
X243929Y125665D01*
X244083Y125376D01*
X244291Y125123D01*
X244544Y124915D01*
X244833Y124761D01*
X245146Y124666D01*
X245472Y124634D01*
X246272D01*
X246598Y124666D01*
X246911Y124761D01*
X247200Y124915D01*
X247453Y125123D01*
X247661Y125376D01*
X247815Y125665D01*
X247910Y125978D01*
X247942Y126304D01*
X247910Y126630D01*
X247815Y126943D01*
X247661Y127232D01*
X247453Y127485D01*
X247281Y127626D01*
Y129046D01*
X247453Y129187D01*
X247661Y129440D01*
X247815Y129729D01*
X247910Y130042D01*
X247942Y130368D01*
X247910Y130694D01*
X247815Y131007D01*
X247661Y131296D01*
X247496Y131638D01*
X247661Y131980D01*
X247815Y132269D01*
X247910Y132582D01*
X247942Y132908D01*
X247910Y133234D01*
X247815Y133547D01*
X247661Y133836D01*
X247453Y134089D01*
X247200Y134297D01*
X246911Y134451D01*
X246598Y134546D01*
X246272Y134578D01*
D02*
G37*
G36*
X246253Y160538D02*
X245491D01*
X245093Y160499D01*
X244710Y160382D01*
X244357Y160194D01*
X244047Y159940D01*
X243793Y159630D01*
X243735Y159521D01*
X240735D01*
X240481Y159716D01*
X240141Y159857D01*
X239776Y159905D01*
X239411Y159857D01*
X239071Y159716D01*
X238780Y159492D01*
X238556Y159201D01*
X238415Y158861D01*
X238367Y158496D01*
X238415Y158131D01*
X238556Y157791D01*
X238780Y157500D01*
X239071Y157276D01*
X239411Y157135D01*
X239776Y157087D01*
X240141Y157135D01*
X240481Y157276D01*
X240735Y157471D01*
X243735D01*
X243793Y157362D01*
X244047Y157052D01*
X244357Y156798D01*
X244710Y156610D01*
X245093Y156493D01*
X245491Y156454D01*
X246253D01*
X246651Y156493D01*
X247034Y156610D01*
X247387Y156798D01*
X247697Y157052D01*
X247951Y157362D01*
X248139Y157715D01*
X248256Y158098D01*
X248295Y158496D01*
X248256Y158894D01*
X248139Y159277D01*
X247951Y159630D01*
X247697Y159940D01*
X247387Y160194D01*
X247034Y160382D01*
X246651Y160499D01*
X246253Y160538D01*
D02*
G37*
G36*
X245864Y148075D02*
X244864D01*
X244519Y148041D01*
X244186Y147940D01*
X243880Y147776D01*
X243612Y147556D01*
X243426Y147329D01*
X240735D01*
X240481Y147524D01*
X240141Y147665D01*
X239776Y147713D01*
X239411Y147665D01*
X239071Y147524D01*
X238780Y147300D01*
X238556Y147009D01*
X238415Y146669D01*
X238367Y146304D01*
X238415Y145939D01*
X238556Y145599D01*
X238780Y145308D01*
X239071Y145084D01*
X239411Y144943D01*
X239776Y144895D01*
X240141Y144943D01*
X240481Y145084D01*
X240735Y145279D01*
X243426D01*
X243612Y145052D01*
X243880Y144832D01*
X244186Y144668D01*
X244199Y144664D01*
Y144134D01*
X244186Y144130D01*
X243880Y143966D01*
X243612Y143746D01*
X243392Y143478D01*
X243228Y143172D01*
X243127Y142839D01*
X243093Y142494D01*
X243127Y142149D01*
X243228Y141816D01*
X243392Y141510D01*
X243612Y141242D01*
X243880Y141022D01*
X244186Y140858D01*
X244199Y140854D01*
Y140324D01*
X244186Y140320D01*
X243880Y140156D01*
X243612Y139936D01*
X243426Y139709D01*
X240735D01*
X240481Y139904D01*
X240141Y140045D01*
X239776Y140093D01*
X239411Y140045D01*
X239071Y139904D01*
X238780Y139680D01*
X238556Y139389D01*
X238415Y139049D01*
X238367Y138684D01*
X238415Y138319D01*
X238556Y137979D01*
X238780Y137688D01*
X239071Y137464D01*
X239411Y137323D01*
X239776Y137275D01*
X240141Y137323D01*
X240481Y137464D01*
X240735Y137659D01*
X243426D01*
X243612Y137432D01*
X243880Y137212D01*
X244186Y137048D01*
X244519Y136947D01*
X244864Y136913D01*
X245864D01*
X246209Y136947D01*
X246542Y137048D01*
X246848Y137212D01*
X247116Y137432D01*
X247336Y137700D01*
X247500Y138006D01*
X247601Y138339D01*
X247635Y138684D01*
X247601Y139029D01*
X247500Y139362D01*
X247336Y139668D01*
X247116Y139936D01*
X246848Y140156D01*
X246542Y140320D01*
X246529Y140324D01*
Y140854D01*
X246542Y140858D01*
X246848Y141022D01*
X247116Y141242D01*
X247336Y141510D01*
X247500Y141816D01*
X247601Y142149D01*
X247635Y142494D01*
X247601Y142839D01*
X247500Y143172D01*
X247336Y143478D01*
X247116Y143746D01*
X246848Y143966D01*
X246542Y144130D01*
X246529Y144134D01*
Y144664D01*
X246542Y144668D01*
X246848Y144832D01*
X247116Y145052D01*
X247336Y145320D01*
X247500Y145626D01*
X247601Y145959D01*
X247635Y146304D01*
X247601Y146649D01*
X247500Y146982D01*
X247336Y147288D01*
X247116Y147556D01*
X246848Y147776D01*
X246542Y147940D01*
X246209Y148041D01*
X245864Y148075D01*
D02*
G37*
G36*
X193322Y55395D02*
X192977Y55361D01*
X192644Y55260D01*
X192338Y55096D01*
X192070Y54876D01*
X191850Y54608D01*
X191686Y54302D01*
X191585Y53969D01*
X191551Y53624D01*
X191585Y53279D01*
X191686Y52946D01*
X191850Y52640D01*
X192070Y52372D01*
X192338Y52152D01*
X192644Y51988D01*
X192977Y51887D01*
X193322Y51853D01*
X193667Y51887D01*
X194000Y51988D01*
X194306Y52152D01*
X194574Y52372D01*
X194794Y52640D01*
X194958Y52946D01*
X195059Y53279D01*
X195093Y53624D01*
X195059Y53969D01*
X194958Y54302D01*
X194794Y54608D01*
X194574Y54876D01*
X194306Y55096D01*
X194000Y55260D01*
X193667Y55361D01*
X193322Y55395D01*
D02*
G37*
G36*
X150368Y187960D02*
X149606D01*
Y185928D01*
X150368D01*
Y187960D01*
D02*
G37*
G36*
X171958Y191008D02*
X171196D01*
Y188976D01*
X171958D01*
Y191008D01*
D02*
G37*
G36*
Y187960D02*
X171196D01*
Y185928D01*
X171958D01*
Y187960D01*
D02*
G37*
G36*
X150368Y191008D02*
X149606D01*
Y188976D01*
X150368D01*
Y191008D01*
D02*
G37*
G36*
X130048Y192417D02*
X129683Y192369D01*
X129343Y192228D01*
X129052Y192004D01*
X128828Y191713D01*
X128687Y191373D01*
X128639Y191008D01*
X128687Y190643D01*
X128828Y190303D01*
X129023Y190049D01*
Y185425D01*
X128549Y185220D01*
X128430Y185275D01*
X128143Y185429D01*
X127832Y185523D01*
X127508Y185555D01*
X127184Y185523D01*
X126873Y185429D01*
X126586Y185275D01*
X126467Y185220D01*
X125993Y185425D01*
Y188525D01*
X126188Y188779D01*
X126329Y189119D01*
X126377Y189484D01*
X126329Y189849D01*
X126188Y190189D01*
X125964Y190480D01*
X125673Y190704D01*
X125333Y190845D01*
X124968Y190893D01*
X124603Y190845D01*
X124263Y190704D01*
X123972Y190480D01*
X123748Y190189D01*
X123607Y189849D01*
X123559Y189484D01*
X123276Y189282D01*
X123084Y189200D01*
X122793Y189321D01*
X122428Y189369D01*
X122063Y189321D01*
X121772Y189200D01*
X121580Y189282D01*
X121297Y189484D01*
X121249Y189849D01*
X121108Y190189D01*
X120884Y190480D01*
X120593Y190704D01*
X120253Y190845D01*
X119888Y190893D01*
X119523Y190845D01*
X119183Y190704D01*
X118892Y190480D01*
X118668Y190189D01*
X118527Y189849D01*
X118479Y189484D01*
X118527Y189119D01*
X118668Y188779D01*
X118863Y188525D01*
Y187591D01*
X118355Y187418D01*
X118344Y187432D01*
X118053Y187656D01*
X117713Y187797D01*
X117348Y187845D01*
X116983Y187797D01*
X116643Y187656D01*
X116352Y187432D01*
X116128Y187141D01*
X115987Y186801D01*
X115939Y186436D01*
X115987Y186071D01*
X116128Y185731D01*
X116323Y185477D01*
Y185191D01*
X116175Y185069D01*
X115969Y184818D01*
X115815Y184531D01*
X115721Y184220D01*
X115689Y183896D01*
X115721Y183572D01*
X115815Y183261D01*
X115969Y182974D01*
X116175Y182723D01*
Y182529D01*
X115969Y182278D01*
X115815Y181991D01*
X115721Y181680D01*
X115689Y181356D01*
X115721Y181032D01*
X115815Y180721D01*
X115969Y180434D01*
X116175Y180183D01*
X116426Y179977D01*
X116713Y179823D01*
X117024Y179729D01*
X117348Y179697D01*
X117672Y179729D01*
X117983Y179823D01*
X118270Y179977D01*
X118618Y180138D01*
X118966Y179977D01*
X119253Y179823D01*
X119564Y179729D01*
X119888Y179697D01*
X120212Y179729D01*
X120523Y179823D01*
X120810Y179977D01*
X121158Y180138D01*
X121506Y179977D01*
X121793Y179823D01*
X122104Y179729D01*
X122428Y179697D01*
X122752Y179729D01*
X123063Y179823D01*
X123350Y179977D01*
X123469Y180032D01*
X123943Y179827D01*
Y170604D01*
X106425Y153087D01*
X106119Y153097D01*
X105806Y153186D01*
X105644Y153396D01*
X105353Y153620D01*
X105013Y153761D01*
X104648Y153809D01*
X104283Y153761D01*
X103943Y153620D01*
X103652Y153396D01*
X103428Y153105D01*
X103287Y152765D01*
X103245Y152446D01*
X102781Y151982D01*
X102563Y151990D01*
X102243Y152026D01*
X102014Y152306D01*
X101707Y152557D01*
X101609Y152610D01*
Y153924D01*
X101609Y153924D01*
X101574Y154189D01*
X101471Y154436D01*
X101309Y154649D01*
X85353Y170604D01*
Y175260D01*
X85353Y175260D01*
X85318Y175525D01*
X85215Y175772D01*
X85053Y175985D01*
X85053Y175985D01*
X75401Y185637D01*
X75188Y185799D01*
X74941Y185902D01*
X74676Y185937D01*
X74676Y185937D01*
X69596D01*
X69596Y185937D01*
X69529Y185928D01*
X67564D01*
Y182880D01*
X67564Y182880D01*
Y182499D01*
X67564D01*
X67564Y182372D01*
Y179451D01*
Y178096D01*
X67056Y177685D01*
X66548Y177800D01*
Y177800D01*
X63627D01*
X63500Y177800D01*
Y177800D01*
X63119D01*
Y177800D01*
X60071D01*
Y177301D01*
X57404D01*
X57404Y177301D01*
X57139Y177266D01*
X56892Y177163D01*
X56679Y177001D01*
X56679Y177001D01*
X54599Y174921D01*
X54437Y174708D01*
X54334Y174461D01*
X54299Y174196D01*
X54299Y174196D01*
Y173541D01*
X54182Y173445D01*
X53981Y173200D01*
X53832Y172921D01*
X53740Y172618D01*
X53709Y172303D01*
X53740Y171988D01*
X53832Y171685D01*
X53981Y171406D01*
X54182Y171161D01*
Y170675D01*
X53981Y170430D01*
X53832Y170151D01*
X53740Y169848D01*
X53709Y169533D01*
X53740Y169218D01*
X53832Y168915D01*
X53981Y168636D01*
X54182Y168391D01*
Y167905D01*
X53981Y167660D01*
X53832Y167381D01*
X53740Y167078D01*
X53709Y166763D01*
X53740Y166448D01*
X53832Y166145D01*
X53981Y165866D01*
X54182Y165621D01*
Y165135D01*
X53981Y164890D01*
X53832Y164611D01*
X53740Y164308D01*
X53709Y163993D01*
X53740Y163678D01*
X53832Y163375D01*
X53981Y163096D01*
X54182Y162851D01*
X54299Y162755D01*
Y162100D01*
X54299Y162100D01*
X54334Y161835D01*
X54437Y161588D01*
X54599Y161375D01*
X57441Y158533D01*
X57441Y158533D01*
X57654Y158371D01*
X57901Y158268D01*
X58166Y158233D01*
X58166Y158233D01*
X60071D01*
Y156464D01*
X60570D01*
Y155448D01*
Y152443D01*
X60527Y152400D01*
X58928D01*
Y152019D01*
X58420Y151847D01*
X58400Y151872D01*
X58109Y152096D01*
X57769Y152237D01*
X57404Y152285D01*
X57039Y152237D01*
X56699Y152096D01*
X56408Y151872D01*
X56184Y151581D01*
X56043Y151241D01*
X56001Y150922D01*
X55603Y150524D01*
X55429Y150533D01*
X55176Y150741D01*
X54887Y150895D01*
X54574Y150990D01*
X54248Y151022D01*
X53448D01*
X53122Y150990D01*
X52809Y150895D01*
X52520Y150741D01*
X52267Y150533D01*
X52059Y150280D01*
X51905Y149991D01*
X51810Y149678D01*
X51778Y149352D01*
X51810Y149026D01*
X51905Y148713D01*
X52059Y148424D01*
X52267Y148171D01*
Y147993D01*
X52059Y147740D01*
X51905Y147451D01*
X51810Y147138D01*
X51778Y146812D01*
X51810Y146486D01*
X51905Y146173D01*
X52059Y145884D01*
X52267Y145631D01*
X52520Y145423D01*
X52809Y145269D01*
X53122Y145174D01*
X53448Y145142D01*
X54248D01*
X54574Y145174D01*
X54887Y145269D01*
X55176Y145423D01*
X55429Y145631D01*
X55557Y145787D01*
X55880D01*
X55880Y145787D01*
X56145Y145822D01*
X56392Y145925D01*
X56605Y146087D01*
X57450Y146933D01*
X57769Y146975D01*
X58109Y147116D01*
X58400Y147340D01*
X58420Y147365D01*
X58605Y147349D01*
X58928Y147193D01*
Y145288D01*
X59427D01*
X59462Y145023D01*
X59565Y144776D01*
X59727Y144563D01*
X60452Y143839D01*
X60445Y143764D01*
X60474Y143465D01*
X60561Y143178D01*
X60703Y142913D01*
X60893Y142681D01*
X60968Y142620D01*
X60986Y142483D01*
X61089Y142236D01*
X61251Y142023D01*
X62138Y141136D01*
X62359Y140683D01*
X62169Y140451D01*
X62027Y140186D01*
X61940Y139899D01*
X61911Y139600D01*
X61940Y139301D01*
X62027Y139014D01*
X62169Y138749D01*
X62359Y138517D01*
X62417Y138469D01*
Y137599D01*
X62417Y137599D01*
X62452Y137334D01*
X62555Y137087D01*
X62717Y136874D01*
X62865Y136727D01*
Y135128D01*
X63596D01*
X63664Y135038D01*
X65129Y133574D01*
X64934Y133105D01*
X60876D01*
X58129Y135853D01*
X58083Y135887D01*
X58109Y136448D01*
X58400Y136672D01*
X58624Y136963D01*
X58765Y137303D01*
X58813Y137668D01*
X58765Y138033D01*
X58624Y138373D01*
X58400Y138664D01*
X58109Y138888D01*
X57769Y139029D01*
X57404Y139077D01*
X57039Y139029D01*
X56699Y138888D01*
X56445Y138693D01*
X55557D01*
X55429Y138849D01*
X55176Y139057D01*
X54887Y139211D01*
X54574Y139306D01*
X54248Y139338D01*
X53448D01*
X53122Y139306D01*
X52809Y139211D01*
X52520Y139057D01*
X52267Y138849D01*
X52059Y138596D01*
X51905Y138307D01*
X51810Y137994D01*
X51778Y137668D01*
X51810Y137342D01*
X51905Y137029D01*
X52059Y136740D01*
X52267Y136487D01*
Y136309D01*
X52059Y136056D01*
X51905Y135767D01*
X51810Y135454D01*
X51778Y135128D01*
X51810Y134802D01*
X51905Y134489D01*
X52059Y134200D01*
X52267Y133947D01*
Y133769D01*
X52059Y133516D01*
X51905Y133227D01*
X51810Y132914D01*
X51778Y132588D01*
X51810Y132262D01*
X51905Y131949D01*
X52059Y131660D01*
X52267Y131407D01*
X52520Y131199D01*
X52809Y131045D01*
X53122Y130950D01*
X53448Y130918D01*
X54248D01*
X54574Y130950D01*
X54887Y131045D01*
X55176Y131199D01*
X55429Y131407D01*
X55557Y131563D01*
X56445D01*
X56699Y131368D01*
X57039Y131227D01*
X57404Y131179D01*
X57769Y131227D01*
X58109Y131368D01*
X58400Y131592D01*
X58562Y131802D01*
X58875Y131891D01*
X59181Y131901D01*
X59727Y131355D01*
X59727Y131355D01*
X59940Y131193D01*
X60187Y131090D01*
X60452Y131055D01*
X67474D01*
X67669Y130586D01*
X61552Y124469D01*
X58559D01*
X58386Y124977D01*
X58400Y124988D01*
X58624Y125279D01*
X58765Y125619D01*
X58813Y125984D01*
X58765Y126349D01*
X58624Y126689D01*
X58400Y126980D01*
X58109Y127204D01*
X57769Y127345D01*
X57404Y127393D01*
X57039Y127345D01*
X56699Y127204D01*
X56445Y127009D01*
X55557D01*
X55429Y127165D01*
X55176Y127373D01*
X54887Y127527D01*
X54574Y127622D01*
X54248Y127654D01*
X53448D01*
X53122Y127622D01*
X52809Y127527D01*
X52520Y127373D01*
X52267Y127165D01*
X52059Y126912D01*
X51905Y126623D01*
X51810Y126310D01*
X51778Y125984D01*
X51810Y125658D01*
X51905Y125345D01*
X52059Y125056D01*
X52267Y124803D01*
Y124625D01*
X52059Y124372D01*
X51905Y124083D01*
X51810Y123770D01*
X51778Y123444D01*
X51810Y123118D01*
X51905Y122805D01*
X52059Y122516D01*
X52267Y122263D01*
Y122085D01*
X52059Y121832D01*
X51905Y121543D01*
X51810Y121230D01*
X51778Y120904D01*
X51810Y120578D01*
X51905Y120265D01*
X52059Y119976D01*
X52267Y119723D01*
X52520Y119515D01*
X52809Y119361D01*
X53122Y119266D01*
X53448Y119234D01*
X54248D01*
X54574Y119266D01*
X54887Y119361D01*
X55176Y119515D01*
X55429Y119723D01*
X55557Y119879D01*
X56614D01*
X56692Y119691D01*
X56916Y119400D01*
X57207Y119176D01*
X57465Y119069D01*
X57585Y118790D01*
X57627Y118512D01*
X54933Y115818D01*
X54887Y115843D01*
X54574Y115938D01*
X54248Y115970D01*
X53448D01*
X53122Y115938D01*
X52809Y115843D01*
X52520Y115689D01*
X52267Y115481D01*
X52059Y115228D01*
X51905Y114939D01*
X51810Y114626D01*
X51778Y114300D01*
X51810Y113974D01*
X51905Y113661D01*
X52059Y113372D01*
X52267Y113119D01*
Y112941D01*
X52059Y112688D01*
X51905Y112399D01*
X51810Y112086D01*
X51778Y111760D01*
X51810Y111434D01*
X51905Y111121D01*
X52059Y110832D01*
X52267Y110579D01*
Y110401D01*
X52059Y110148D01*
X51905Y109859D01*
X51810Y109546D01*
X51778Y109220D01*
X51810Y108894D01*
X51905Y108581D01*
X52059Y108292D01*
X52267Y108039D01*
X52520Y107831D01*
X52809Y107677D01*
X52996Y107620D01*
X53179Y107126D01*
X52937Y106738D01*
X52809Y106699D01*
X52520Y106545D01*
X52267Y106337D01*
X52059Y106084D01*
X51905Y105795D01*
X51810Y105482D01*
X51778Y105156D01*
X51810Y104830D01*
X51905Y104517D01*
X52059Y104228D01*
X52267Y103975D01*
Y103797D01*
X52059Y103544D01*
X51905Y103255D01*
X51810Y102942D01*
X51778Y102616D01*
X51810Y102290D01*
X51905Y101977D01*
X52059Y101688D01*
X52267Y101435D01*
Y101257D01*
X52059Y101004D01*
X51905Y100715D01*
X51810Y100402D01*
X51778Y100076D01*
X51810Y99750D01*
X51905Y99437D01*
X52059Y99148D01*
X52267Y98895D01*
X52520Y98687D01*
X52809Y98533D01*
X53122Y98438D01*
X53448Y98406D01*
X54248D01*
X54574Y98438D01*
X54887Y98533D01*
X55176Y98687D01*
X55429Y98895D01*
X55557Y99051D01*
X56388D01*
X56388Y99051D01*
Y97536D01*
X56388D01*
Y97155D01*
X56388D01*
Y94107D01*
X56887D01*
Y92880D01*
X55603Y91596D01*
X55429Y91605D01*
X55176Y91813D01*
X54887Y91967D01*
X54574Y92062D01*
X54248Y92094D01*
X53448D01*
X53122Y92062D01*
X52809Y91967D01*
X52520Y91813D01*
X52267Y91605D01*
X52059Y91352D01*
X51905Y91063D01*
X51810Y90750D01*
X51778Y90424D01*
X51810Y90098D01*
X51905Y89785D01*
X52059Y89496D01*
X52267Y89243D01*
Y89065D01*
X52059Y88812D01*
X51905Y88523D01*
X51810Y88210D01*
X51778Y87884D01*
X51810Y87558D01*
X51905Y87245D01*
X52059Y86956D01*
X52267Y86703D01*
X52520Y86495D01*
X52809Y86341D01*
X53122Y86246D01*
X53448Y86214D01*
X54248D01*
X54574Y86246D01*
X54887Y86341D01*
X55176Y86495D01*
X55429Y86703D01*
X55557Y86859D01*
X56980D01*
X57903Y85936D01*
Y83105D01*
X57404Y82689D01*
X57039Y82641D01*
X56699Y82500D01*
X56445Y82305D01*
X55557D01*
X55429Y82461D01*
X55176Y82669D01*
X54887Y82823D01*
X54574Y82918D01*
X54248Y82950D01*
X53448D01*
X53122Y82918D01*
X52809Y82823D01*
X52520Y82669D01*
X52267Y82461D01*
X52059Y82208D01*
X51905Y81919D01*
X51810Y81606D01*
X51778Y81280D01*
X51810Y80954D01*
X51905Y80641D01*
X52059Y80352D01*
X52267Y80099D01*
Y79921D01*
X52059Y79668D01*
X51905Y79379D01*
X51810Y79066D01*
X51778Y78740D01*
X51810Y78414D01*
X51905Y78101D01*
X52059Y77812D01*
X52267Y77559D01*
X52520Y77351D01*
X52809Y77197D01*
X53122Y77102D01*
X53448Y77070D01*
X54248D01*
X54574Y77102D01*
X54887Y77197D01*
X55176Y77351D01*
X55429Y77559D01*
X55557Y77715D01*
X57404D01*
X57404Y77715D01*
X57903Y77343D01*
Y73961D01*
X57404Y73545D01*
X57039Y73497D01*
X56699Y73356D01*
X56445Y73161D01*
X55557D01*
X55429Y73317D01*
X55176Y73525D01*
X54887Y73679D01*
X54574Y73774D01*
X54248Y73806D01*
X53448D01*
X53122Y73774D01*
X52809Y73679D01*
X52520Y73525D01*
X52267Y73317D01*
X52059Y73064D01*
X51905Y72775D01*
X51810Y72462D01*
X51778Y72136D01*
X51810Y71810D01*
X51905Y71497D01*
X52059Y71208D01*
X52267Y70955D01*
Y70777D01*
X52059Y70524D01*
X51905Y70235D01*
X51810Y69922D01*
X51778Y69596D01*
X51810Y69270D01*
X51905Y68957D01*
X52059Y68668D01*
X52267Y68415D01*
X52520Y68207D01*
X52809Y68053D01*
X53122Y67958D01*
X53448Y67926D01*
X54248D01*
X54574Y67958D01*
X54887Y68053D01*
X55176Y68207D01*
X55429Y68415D01*
X55557Y68571D01*
X57404D01*
X57404Y68571D01*
X57903Y68199D01*
Y64817D01*
X57404Y64401D01*
X57039Y64353D01*
X56699Y64212D01*
X56445Y64017D01*
X55557D01*
X55429Y64173D01*
X55176Y64381D01*
X54887Y64535D01*
X54574Y64630D01*
X54248Y64662D01*
X53448D01*
X53122Y64630D01*
X52809Y64535D01*
X52520Y64381D01*
X52267Y64173D01*
X52059Y63920D01*
X51905Y63631D01*
X51810Y63318D01*
X51778Y62992D01*
X51810Y62666D01*
X51905Y62353D01*
X52059Y62064D01*
X52267Y61811D01*
Y61633D01*
X52059Y61380D01*
X51905Y61091D01*
X51810Y60778D01*
X51778Y60452D01*
X51810Y60126D01*
X51905Y59813D01*
X52059Y59524D01*
X52267Y59271D01*
X52520Y59063D01*
X52809Y58909D01*
X53086Y58825D01*
X53144Y58691D01*
X53181Y58298D01*
X52782Y58053D01*
X52332Y57668D01*
X51947Y57218D01*
X51638Y56713D01*
X51411Y56166D01*
X51273Y55590D01*
X51226Y55000D01*
X51273Y54410D01*
X51411Y53834D01*
X51638Y53287D01*
X51947Y52782D01*
X52332Y52332D01*
X52782Y51947D01*
X53287Y51638D01*
X53834Y51411D01*
X54410Y51273D01*
X55000Y51226D01*
X55590Y51273D01*
X56166Y51411D01*
X56713Y51638D01*
X57218Y51947D01*
X57668Y52332D01*
X58053Y52782D01*
X58362Y53287D01*
X58589Y53834D01*
X58727Y54410D01*
X58774Y55000D01*
X58727Y55590D01*
X58589Y56166D01*
X58362Y56713D01*
X58053Y57218D01*
X57668Y57668D01*
X57218Y58053D01*
X56713Y58362D01*
X56166Y58589D01*
X55917Y58649D01*
X55713Y59220D01*
X55870Y59427D01*
X56953D01*
X57207Y59232D01*
X57547Y59091D01*
X57912Y59043D01*
X58277Y59091D01*
X58617Y59232D01*
X58908Y59456D01*
X58988Y59559D01*
X59094Y59572D01*
X59539Y59451D01*
X59583Y59305D01*
X59737Y59016D01*
X59945Y58763D01*
Y58585D01*
X59737Y58332D01*
X59583Y58043D01*
X59488Y57730D01*
X59456Y57404D01*
X59488Y57078D01*
X59583Y56765D01*
X59737Y56476D01*
X59945Y56223D01*
X60198Y56015D01*
X60487Y55861D01*
X60800Y55766D01*
X60968Y55749D01*
X60986Y55615D01*
X61089Y55368D01*
X61251Y55155D01*
X64299Y52107D01*
X64299Y52107D01*
X64512Y51945D01*
X64759Y51842D01*
X65024Y51807D01*
X71120D01*
X71120Y51807D01*
X71385Y51842D01*
X71632Y51945D01*
X71845Y52107D01*
X74004Y54266D01*
X74004Y54266D01*
X74072Y54356D01*
X74803D01*
X74803Y54356D01*
X75184D01*
Y54356D01*
X75311Y54356D01*
X78232D01*
Y57404D01*
X76907D01*
X76725Y57912D01*
X76741Y57925D01*
X77055Y58308D01*
X77288Y58744D01*
X77432Y59218D01*
X77480Y59710D01*
Y62210D01*
X77432Y62702D01*
X77288Y63176D01*
X77055Y63612D01*
X76741Y63995D01*
X76358Y64309D01*
X75922Y64542D01*
X75448Y64686D01*
X74956Y64734D01*
X74464Y64686D01*
X73990Y64542D01*
X73554Y64309D01*
X73171Y63995D01*
X72857Y63612D01*
X72844Y63588D01*
X72268D01*
X72255Y63612D01*
X71941Y63995D01*
X71558Y64309D01*
X71181Y64511D01*
Y70624D01*
X71247Y70660D01*
X71755Y70357D01*
Y68072D01*
X71755D01*
X71744Y67569D01*
X71743Y67564D01*
X71791Y67199D01*
X71932Y66859D01*
X72156Y66568D01*
X72447Y66344D01*
X72787Y66203D01*
X73152Y66155D01*
X73517Y66203D01*
X73857Y66344D01*
X74148Y66568D01*
X74372Y66859D01*
X74513Y67199D01*
X74561Y67564D01*
X74803Y68072D01*
X75184D01*
Y68072D01*
X78232D01*
Y71120D01*
X76907D01*
X76725Y71628D01*
X76741Y71641D01*
X77055Y72024D01*
X77288Y72460D01*
X77432Y72934D01*
X77480Y73426D01*
Y75926D01*
X77432Y76418D01*
X77288Y76892D01*
X77055Y77328D01*
X76741Y77711D01*
X76358Y78025D01*
X75922Y78258D01*
X75448Y78402D01*
X74956Y78450D01*
X74464Y78402D01*
X73990Y78258D01*
X73554Y78025D01*
X73171Y77711D01*
X72857Y77328D01*
X72844Y77304D01*
X72268D01*
X72255Y77328D01*
X71941Y77711D01*
X71558Y78025D01*
X71181Y78227D01*
Y84848D01*
X71247Y84884D01*
X71755Y84581D01*
Y82296D01*
X71755D01*
X71744Y81793D01*
X71743Y81788D01*
X71791Y81423D01*
X71932Y81083D01*
X72156Y80792D01*
X72447Y80568D01*
X72787Y80427D01*
X73152Y80379D01*
X73517Y80427D01*
X73857Y80568D01*
X74148Y80792D01*
X74372Y81083D01*
X74513Y81423D01*
X74561Y81788D01*
X74708Y82097D01*
X75243Y82037D01*
X75299Y81788D01*
X75347Y81423D01*
X75488Y81083D01*
X75712Y80792D01*
X76003Y80568D01*
X76343Y80427D01*
X76708Y80379D01*
X77073Y80427D01*
X77413Y80568D01*
X77704Y80792D01*
X77928Y81083D01*
X78069Y81423D01*
X78117Y81788D01*
X78232Y82296D01*
X78232D01*
Y85344D01*
X76907D01*
X76725Y85852D01*
X76741Y85865D01*
X77055Y86248D01*
X77288Y86684D01*
X77432Y87158D01*
X77480Y87650D01*
Y90150D01*
X77432Y90642D01*
X77288Y91116D01*
X77055Y91552D01*
X76741Y91935D01*
X76358Y92249D01*
X75922Y92482D01*
X75448Y92626D01*
X74956Y92674D01*
X74464Y92626D01*
X73990Y92482D01*
X73554Y92249D01*
X73171Y91935D01*
X72857Y91552D01*
X72844Y91528D01*
X72268D01*
X72255Y91552D01*
X71941Y91935D01*
X71558Y92249D01*
X71181Y92451D01*
Y93649D01*
X71628Y94095D01*
X71993Y94143D01*
X72333Y94284D01*
X72624Y94508D01*
X72848Y94799D01*
X72989Y95139D01*
X73012Y95311D01*
X73204Y95504D01*
X74803D01*
Y95504D01*
X75184D01*
X75406Y94996D01*
X75347Y94853D01*
X75299Y94488D01*
X75347Y94123D01*
X75488Y93783D01*
X75712Y93492D01*
X76003Y93268D01*
X76343Y93127D01*
X76708Y93079D01*
X77073Y93127D01*
X77413Y93268D01*
X77704Y93492D01*
X77928Y93783D01*
X78069Y94123D01*
X78117Y94488D01*
X78069Y94853D01*
X78010Y94996D01*
X78232Y95504D01*
X78232D01*
Y98552D01*
X76907D01*
X76725Y99060D01*
X76741Y99073D01*
X77055Y99456D01*
X77288Y99892D01*
X77432Y100366D01*
X77480Y100858D01*
Y103358D01*
X77432Y103850D01*
X77288Y104324D01*
X77055Y104760D01*
X76741Y105143D01*
X76358Y105457D01*
X75922Y105690D01*
X75448Y105834D01*
X74956Y105882D01*
X74464Y105834D01*
X73990Y105690D01*
X73554Y105457D01*
X73171Y105143D01*
X72857Y104760D01*
X72844Y104736D01*
X72268D01*
X72255Y104760D01*
X71941Y105143D01*
X71558Y105457D01*
X71181Y105659D01*
Y112912D01*
X73553Y115283D01*
X73964Y115005D01*
X73823Y114665D01*
X73775Y114300D01*
X73823Y113935D01*
X73964Y113595D01*
X74188Y113304D01*
X74479Y113080D01*
X74819Y112939D01*
X75184Y112891D01*
X75549Y112939D01*
X75889Y113080D01*
X76143Y113275D01*
X82024D01*
X82024Y113275D01*
X82289Y113310D01*
X82536Y113413D01*
X82688Y113529D01*
X84074D01*
X84074Y113529D01*
X84148Y113539D01*
X89399Y108288D01*
Y97452D01*
X89362Y97415D01*
X89043Y97373D01*
X88703Y97232D01*
X88412Y97008D01*
X88188Y96717D01*
X88047Y96377D01*
X88005Y96058D01*
X86651Y94705D01*
X86489Y94492D01*
X86386Y94245D01*
X86351Y93980D01*
X86351Y93980D01*
Y93587D01*
X86293Y93539D01*
X86103Y93307D01*
X85961Y93042D01*
X85874Y92755D01*
X85845Y92456D01*
Y91440D01*
X85874Y91141D01*
X85961Y90854D01*
X86103Y90589D01*
X86293Y90357D01*
X86351Y90309D01*
Y84443D01*
X86293Y84395D01*
X86103Y84163D01*
X85961Y83898D01*
X85874Y83611D01*
X85845Y83312D01*
Y82296D01*
X85874Y81997D01*
X85961Y81710D01*
X86103Y81445D01*
X86293Y81213D01*
X86351Y81165D01*
Y75807D01*
X86293Y75759D01*
X86103Y75527D01*
X85961Y75262D01*
X85874Y74975D01*
X85845Y74676D01*
Y73660D01*
X85874Y73361D01*
X85961Y73074D01*
X86103Y72809D01*
X86293Y72577D01*
X86351Y72529D01*
Y67171D01*
X86293Y67123D01*
X86103Y66891D01*
X85961Y66626D01*
X85874Y66339D01*
X85845Y66040D01*
Y65024D01*
X85874Y64725D01*
X85961Y64438D01*
X86103Y64173D01*
X86293Y63941D01*
X86525Y63751D01*
X86790Y63609D01*
X87077Y63522D01*
X87376Y63493D01*
X87675Y63522D01*
X87962Y63609D01*
X88227Y63751D01*
X88290Y63802D01*
X88646Y63893D01*
X89002Y63802D01*
X89065Y63751D01*
X89330Y63609D01*
X89617Y63522D01*
X89916Y63493D01*
X90215Y63522D01*
X90416Y63583D01*
X90932Y63067D01*
Y61985D01*
X86868D01*
X86868Y61985D01*
X86603Y61950D01*
X86356Y61847D01*
X86143Y61685D01*
X86143Y61685D01*
X83603Y59145D01*
X83441Y58932D01*
X83338Y58685D01*
X83303Y58420D01*
X83303Y58420D01*
Y56065D01*
X83147Y55937D01*
X82939Y55684D01*
X82785Y55395D01*
X82690Y55082D01*
X82658Y54756D01*
Y53956D01*
X82690Y53630D01*
X82785Y53317D01*
X82939Y53028D01*
X83147Y52775D01*
X83400Y52567D01*
X83689Y52413D01*
X84002Y52318D01*
X84328Y52286D01*
X84654Y52318D01*
X84967Y52413D01*
X85256Y52567D01*
X85509Y52775D01*
X85687D01*
X85940Y52567D01*
X86229Y52413D01*
X86542Y52318D01*
X86868Y52286D01*
X87194Y52318D01*
X87507Y52413D01*
X87796Y52567D01*
X88049Y52775D01*
X88257Y53028D01*
X88411Y53317D01*
X88506Y53630D01*
X88538Y53956D01*
Y54756D01*
X88506Y55082D01*
X88411Y55395D01*
X88257Y55684D01*
X88049Y55937D01*
X87893Y56065D01*
Y57461D01*
X88088Y57715D01*
X88229Y58055D01*
X88277Y58420D01*
X88229Y58785D01*
X88088Y59125D01*
X87864Y59416D01*
X87850Y59427D01*
X88023Y59935D01*
X90334D01*
X90529Y59466D01*
X90207Y59145D01*
X90045Y58932D01*
X89942Y58685D01*
X89907Y58420D01*
X89907Y58420D01*
Y56065D01*
X89751Y55937D01*
X89543Y55684D01*
X89389Y55395D01*
X89294Y55082D01*
X89262Y54756D01*
Y53956D01*
X89294Y53630D01*
X89389Y53317D01*
X89543Y53028D01*
X89751Y52775D01*
X90004Y52567D01*
X90293Y52413D01*
X90606Y52318D01*
X90932Y52286D01*
X91258Y52318D01*
X91571Y52413D01*
X91860Y52567D01*
X92113Y52775D01*
X92291D01*
X92544Y52567D01*
X92833Y52413D01*
X93146Y52318D01*
X93472Y52286D01*
X93798Y52318D01*
X94111Y52413D01*
X94400Y52567D01*
X94653Y52775D01*
X94861Y53028D01*
X95015Y53317D01*
X95110Y53630D01*
X95142Y53956D01*
Y54577D01*
X96482Y55916D01*
X96931Y55647D01*
X96858Y55408D01*
X96810Y54916D01*
X96858Y54424D01*
X97002Y53950D01*
X97235Y53514D01*
X97549Y53131D01*
X97932Y52817D01*
X98368Y52584D01*
X98842Y52440D01*
X99334Y52392D01*
X101834D01*
X102326Y52440D01*
X102800Y52584D01*
X103236Y52817D01*
X103619Y53131D01*
X103822Y53378D01*
X103869Y53389D01*
X104275Y53340D01*
X104386Y53283D01*
X104444Y53143D01*
X104668Y52852D01*
X104959Y52628D01*
X105299Y52487D01*
X105664Y52439D01*
X106029Y52487D01*
X106369Y52628D01*
X106660Y52852D01*
X106884Y53143D01*
X107025Y53483D01*
X107073Y53848D01*
X107025Y54213D01*
X106884Y54553D01*
X106660Y54844D01*
X106369Y55068D01*
X106029Y55209D01*
X105898Y55226D01*
X105673Y55652D01*
X105638Y55917D01*
X105535Y56164D01*
X105373Y56377D01*
X105373Y56377D01*
X103709Y58041D01*
X103933Y58314D01*
X104591Y58495D01*
X104648Y58464D01*
Y58293D01*
X107696D01*
Y60960D01*
Y64008D01*
X108003Y64389D01*
X108769D01*
X109240Y64008D01*
X109272Y63682D01*
X109367Y63369D01*
X109521Y63080D01*
X109686Y62738D01*
X109521Y62396D01*
X109367Y62107D01*
X109272Y61794D01*
X109240Y61468D01*
X109272Y61142D01*
X109367Y60829D01*
X109521Y60540D01*
X109686Y60198D01*
X109521Y59856D01*
X109367Y59567D01*
X109272Y59254D01*
X109240Y58928D01*
X109272Y58602D01*
X109367Y58289D01*
X109521Y58000D01*
X109729Y57747D01*
X109982Y57539D01*
X110167Y57441D01*
X110285Y57330D01*
X110422Y56808D01*
X110399Y56753D01*
X110351Y56388D01*
X110399Y56023D01*
X110540Y55683D01*
X110764Y55392D01*
X111055Y55168D01*
X111395Y55027D01*
X111760Y54979D01*
X112125Y55027D01*
X112465Y55168D01*
X112756Y55392D01*
X112980Y55683D01*
X113121Y56023D01*
X113169Y56388D01*
X113121Y56753D01*
X113098Y56808D01*
X113235Y57330D01*
X113353Y57441D01*
X113538Y57539D01*
X113783Y57741D01*
X113816Y57737D01*
X114291Y57556D01*
Y53791D01*
X114096Y53537D01*
X113955Y53197D01*
X113907Y52832D01*
X113955Y52467D01*
X114096Y52127D01*
X114320Y51836D01*
X114611Y51612D01*
X114951Y51471D01*
X115316Y51423D01*
X115681Y51471D01*
X116021Y51612D01*
X116312Y51836D01*
X116536Y52127D01*
X116643Y52385D01*
X116922Y52505D01*
X117200Y52547D01*
X117438Y52309D01*
X117457Y52246D01*
X117599Y51981D01*
X117789Y51749D01*
X118021Y51559D01*
X118286Y51417D01*
X118573Y51330D01*
X118872Y51301D01*
X119888D01*
X120187Y51330D01*
X120474Y51417D01*
X120739Y51559D01*
X120971Y51749D01*
X121161Y51981D01*
X121303Y52246D01*
X121390Y52533D01*
X121419Y52832D01*
X121390Y53131D01*
X121303Y53418D01*
X121161Y53683D01*
X121110Y53746D01*
X121067Y53913D01*
X121344Y54347D01*
X121920D01*
X121920Y54347D01*
X122185Y54382D01*
X122406Y54474D01*
X122428Y54471D01*
X122793Y54519D01*
X123133Y54660D01*
X123424Y54884D01*
X123648Y55175D01*
X123789Y55515D01*
X123837Y55880D01*
X123789Y56245D01*
X123733Y56379D01*
X123764Y56435D01*
X124263Y56692D01*
X124603Y56551D01*
X124968Y56503D01*
X125333Y56551D01*
X125673Y56692D01*
X125964Y56916D01*
X126188Y57207D01*
X126329Y57547D01*
X126377Y57912D01*
X126329Y58277D01*
X126188Y58617D01*
X125964Y58908D01*
X125673Y59132D01*
X125333Y59273D01*
X124968Y59321D01*
X124603Y59273D01*
X124263Y59132D01*
X124009Y58937D01*
X122301D01*
Y59436D01*
X122514Y59856D01*
X122729Y60118D01*
X122962Y60554D01*
X123106Y61028D01*
X123154Y61520D01*
X123146Y61600D01*
X123487Y61976D01*
X127499D01*
Y53791D01*
X127304Y53537D01*
X127163Y53197D01*
X127115Y52832D01*
X127163Y52467D01*
X127304Y52127D01*
X127528Y51836D01*
X127819Y51612D01*
X128159Y51471D01*
X128524Y51423D01*
X128889Y51471D01*
X129229Y51612D01*
X129520Y51836D01*
X129744Y52127D01*
X129851Y52385D01*
X130130Y52505D01*
X130408Y52547D01*
X130646Y52309D01*
X130665Y52246D01*
X130807Y51981D01*
X130997Y51749D01*
X131229Y51559D01*
X131494Y51417D01*
X131781Y51330D01*
X132080Y51301D01*
X133096D01*
X133395Y51330D01*
X133682Y51417D01*
X133947Y51559D01*
X134179Y51749D01*
X134369Y51981D01*
X134511Y52246D01*
X134598Y52533D01*
X134627Y52832D01*
X134598Y53131D01*
X134511Y53418D01*
X134369Y53683D01*
X134318Y53746D01*
X134275Y53913D01*
X134552Y54347D01*
X135128D01*
X135128Y54347D01*
X135393Y54382D01*
X135614Y54474D01*
X135636Y54471D01*
X136001Y54519D01*
X136341Y54660D01*
X136632Y54884D01*
X136856Y55175D01*
X136997Y55515D01*
X137045Y55880D01*
X136997Y56245D01*
X136856Y56585D01*
X136829Y56620D01*
X136849Y56692D01*
X137140Y56916D01*
X137364Y57207D01*
X137505Y57547D01*
X137553Y57912D01*
X137505Y58277D01*
X137364Y58617D01*
X137140Y58908D01*
X136849Y59132D01*
X136509Y59273D01*
X136144Y59321D01*
X136017Y59304D01*
X135934Y59326D01*
X135698Y59809D01*
X135722Y59856D01*
X135937Y60118D01*
X136170Y60554D01*
X136314Y61028D01*
X136362Y61520D01*
X136354Y61600D01*
X136695Y61976D01*
X141215D01*
Y53791D01*
X141020Y53537D01*
X140879Y53197D01*
X140831Y52832D01*
X140879Y52467D01*
X141020Y52127D01*
X141244Y51836D01*
X141535Y51612D01*
X141875Y51471D01*
X142240Y51423D01*
X142605Y51471D01*
X142945Y51612D01*
X143236Y51836D01*
X143460Y52127D01*
X143567Y52385D01*
X143846Y52505D01*
X144124Y52547D01*
X144362Y52309D01*
X144381Y52246D01*
X144523Y51981D01*
X144713Y51749D01*
X144945Y51559D01*
X145210Y51417D01*
X145497Y51330D01*
X145796Y51301D01*
X146812D01*
X147111Y51330D01*
X147398Y51417D01*
X147663Y51559D01*
X147895Y51749D01*
X148085Y51981D01*
X148227Y52246D01*
X148314Y52533D01*
X148343Y52832D01*
X148314Y53131D01*
X148227Y53418D01*
X148085Y53683D01*
X148034Y53746D01*
X147991Y53913D01*
X148268Y54347D01*
X148844D01*
X148844Y54347D01*
X149109Y54382D01*
X149330Y54474D01*
X149352Y54471D01*
X149717Y54519D01*
X150057Y54660D01*
X150348Y54884D01*
X150572Y55175D01*
X150713Y55515D01*
X150761Y55880D01*
X150713Y56245D01*
X150565Y56692D01*
X150856Y56916D01*
X151080Y57207D01*
X151221Y57547D01*
X151269Y57912D01*
X151221Y58277D01*
X151080Y58617D01*
X150856Y58908D01*
X150565Y59132D01*
X150225Y59273D01*
X149860Y59321D01*
X149733Y59304D01*
X149650Y59326D01*
X149414Y59809D01*
X149438Y59856D01*
X149653Y60118D01*
X149886Y60554D01*
X150030Y61028D01*
X150078Y61520D01*
X150070Y61600D01*
X150411Y61976D01*
X152421D01*
X152714Y61976D01*
X153008Y61566D01*
X152991Y61477D01*
X152691Y61177D01*
X152529Y60964D01*
X152426Y60717D01*
X152391Y60452D01*
X152391Y60452D01*
Y53791D01*
X152196Y53537D01*
X152055Y53197D01*
X152007Y52832D01*
X152055Y52467D01*
X152196Y52127D01*
X152420Y51836D01*
X152711Y51612D01*
X153051Y51471D01*
X153416Y51423D01*
X153781Y51471D01*
X154121Y51612D01*
X154412Y51836D01*
X154636Y52127D01*
X154743Y52385D01*
X155022Y52505D01*
X155300Y52547D01*
X155538Y52309D01*
X155557Y52246D01*
X155699Y51981D01*
X155889Y51749D01*
X156121Y51559D01*
X156386Y51417D01*
X156673Y51330D01*
X156972Y51301D01*
X157988D01*
X158287Y51330D01*
X158574Y51417D01*
X158839Y51559D01*
X159071Y51749D01*
X159261Y51981D01*
X159403Y52246D01*
X159490Y52533D01*
X159519Y52832D01*
X159490Y53131D01*
X159403Y53418D01*
X159261Y53683D01*
X159210Y53746D01*
X159167Y53913D01*
X159444Y54347D01*
X160020D01*
X160020Y54347D01*
X160285Y54382D01*
X160506Y54474D01*
X160528Y54471D01*
X160893Y54519D01*
X161066Y54591D01*
X161165Y54352D01*
X161327Y54139D01*
X162560Y52907D01*
X162553Y52832D01*
X162582Y52533D01*
X162669Y52246D01*
X162811Y51981D01*
X163001Y51749D01*
X163233Y51559D01*
X163498Y51417D01*
X163785Y51330D01*
X164084Y51301D01*
X165100D01*
X165399Y51330D01*
X165686Y51417D01*
X165951Y51559D01*
X166183Y51749D01*
X166373Y51981D01*
X166515Y52246D01*
X166602Y52533D01*
X166631Y52832D01*
X166602Y53131D01*
X166515Y53418D01*
X166373Y53683D01*
X166322Y53746D01*
X166279Y53913D01*
X166556Y54347D01*
X167132D01*
X167132Y54347D01*
X167397Y54382D01*
X167618Y54474D01*
X167640Y54471D01*
X168005Y54519D01*
X168178Y54591D01*
X168277Y54352D01*
X168439Y54139D01*
X169672Y52907D01*
X169665Y52832D01*
X169694Y52533D01*
X169781Y52246D01*
X169923Y51981D01*
X170113Y51749D01*
X170345Y51559D01*
X170610Y51417D01*
X170897Y51330D01*
X171196Y51301D01*
X172212D01*
X172511Y51330D01*
X172798Y51417D01*
X173063Y51559D01*
X173295Y51749D01*
X173485Y51981D01*
X173627Y52246D01*
X173714Y52533D01*
X173743Y52832D01*
X173714Y53131D01*
X173627Y53418D01*
X173485Y53683D01*
X173434Y53746D01*
X173391Y53913D01*
X173668Y54347D01*
X174244D01*
X174244Y54347D01*
X174509Y54382D01*
X174730Y54474D01*
X174752Y54471D01*
X175117Y54519D01*
X175457Y54660D01*
X175748Y54884D01*
X175972Y55175D01*
X176113Y55515D01*
X176161Y55880D01*
X176572Y56388D01*
X177165D01*
X177165Y56388D01*
X177673Y56520D01*
X177800Y56503D01*
X178165Y56551D01*
X178505Y56692D01*
X178796Y56916D01*
X179020Y57207D01*
X179161Y57547D01*
X179209Y57912D01*
X179161Y58277D01*
X179020Y58617D01*
X178796Y58908D01*
X178505Y59132D01*
X178165Y59273D01*
X177800Y59321D01*
X177673Y59304D01*
X177165Y59436D01*
Y59436D01*
X174244D01*
X174117Y59436D01*
Y59436D01*
X173736D01*
Y59436D01*
X171589D01*
X171541Y59801D01*
X171400Y60141D01*
X171176Y60432D01*
X170885Y60656D01*
X170545Y60797D01*
X170180Y60845D01*
X169815Y60797D01*
X169475Y60656D01*
X169184Y60432D01*
X169132Y60364D01*
X169033Y60323D01*
X168820Y60161D01*
X168438Y59779D01*
X168334Y59797D01*
X168283Y59838D01*
X168069Y60358D01*
X168174Y60554D01*
X168318Y61028D01*
X168366Y61520D01*
X168318Y62012D01*
X168174Y62486D01*
X167941Y62922D01*
X167627Y63305D01*
X167244Y63619D01*
X167220Y63632D01*
Y64208D01*
X167244Y64221D01*
X167627Y64535D01*
X167640Y64551D01*
X168148Y64369D01*
Y64008D01*
X173736D01*
Y67056D01*
X173237D01*
Y68664D01*
X174969Y70395D01*
X175131Y70608D01*
X175234Y70855D01*
X175269Y71120D01*
X175269Y71120D01*
Y91301D01*
X175777Y91474D01*
X175788Y91460D01*
X176079Y91236D01*
X176419Y91095D01*
X176738Y91053D01*
X177791Y90000D01*
Y88138D01*
X177791Y88138D01*
X177826Y87873D01*
X177929Y87626D01*
X178091Y87413D01*
X178726Y86778D01*
X178726Y86778D01*
X178816Y86710D01*
Y85979D01*
X181864D01*
Y86631D01*
X182126Y86842D01*
X182372Y86954D01*
X182581Y86890D01*
X182880Y86861D01*
X183179Y86890D01*
X183466Y86977D01*
X183731Y87119D01*
X183794Y87170D01*
X183961Y87213D01*
X184395Y86936D01*
Y81720D01*
X183961Y81443D01*
X183794Y81486D01*
X183731Y81537D01*
X183466Y81679D01*
X183179Y81766D01*
X182880Y81795D01*
X182581Y81766D01*
X182380Y81705D01*
X181864Y82221D01*
Y83312D01*
X178816D01*
Y80391D01*
X178816Y80264D01*
X178816D01*
Y79883D01*
X178816D01*
Y76835D01*
X178816Y76835D01*
X178948Y76327D01*
X178931Y76200D01*
X178979Y75835D01*
X179120Y75495D01*
X179344Y75204D01*
X179635Y74980D01*
X179975Y74839D01*
X180340Y74791D01*
X180705Y74839D01*
X181045Y74980D01*
X181336Y75204D01*
X181560Y75495D01*
X181701Y75835D01*
X181749Y76200D01*
X181732Y76327D01*
X181864Y76835D01*
X181864D01*
Y77487D01*
X182126Y77698D01*
X182372Y77810D01*
X182581Y77746D01*
X182880Y77717D01*
X183179Y77746D01*
X183466Y77833D01*
X183731Y77975D01*
X183794Y78026D01*
X183961Y78069D01*
X184395Y77792D01*
Y72576D01*
X183961Y72299D01*
X183794Y72342D01*
X183731Y72393D01*
X183466Y72535D01*
X183179Y72622D01*
X182880Y72651D01*
X182581Y72622D01*
X182380Y72561D01*
X181864Y73077D01*
Y74168D01*
X178816D01*
Y71247D01*
X178816Y71120D01*
X178816D01*
Y70739D01*
X178816D01*
Y67691D01*
X178816Y67691D01*
X178948Y67183D01*
X178931Y67056D01*
X178979Y66691D01*
X179120Y66351D01*
X179344Y66060D01*
X179635Y65836D01*
X179975Y65695D01*
X180340Y65647D01*
X180705Y65695D01*
X181045Y65836D01*
X181336Y66060D01*
X181560Y66351D01*
X181701Y66691D01*
X181749Y67056D01*
X181732Y67183D01*
X181864Y67691D01*
X181864D01*
Y68343D01*
X182126Y68554D01*
X182372Y68666D01*
X182581Y68602D01*
X182880Y68573D01*
X183179Y68602D01*
X183466Y68689D01*
X183731Y68831D01*
X183794Y68882D01*
X183961Y68925D01*
X184395Y68648D01*
Y56839D01*
X184200Y56585D01*
X184059Y56245D01*
X184011Y55880D01*
X184059Y55515D01*
X184200Y55175D01*
X184424Y54884D01*
X184715Y54660D01*
X185055Y54519D01*
X185420Y54471D01*
X185785Y54519D01*
X186125Y54660D01*
X186416Y54884D01*
X186640Y55175D01*
X186781Y55515D01*
X186829Y55880D01*
X186781Y56245D01*
X186640Y56585D01*
X186445Y56839D01*
Y68973D01*
X186503Y69021D01*
X186693Y69253D01*
X186835Y69518D01*
X186922Y69805D01*
X186951Y70104D01*
Y71120D01*
X186922Y71419D01*
X186835Y71706D01*
X186693Y71971D01*
X186503Y72203D01*
X186445Y72251D01*
Y78117D01*
X186503Y78165D01*
X186693Y78397D01*
X186835Y78662D01*
X186922Y78949D01*
X186951Y79248D01*
Y80264D01*
X186922Y80563D01*
X186835Y80850D01*
X186693Y81115D01*
X186503Y81347D01*
X186445Y81395D01*
Y87261D01*
X186503Y87309D01*
X186693Y87541D01*
X186835Y87806D01*
X186922Y88093D01*
X186951Y88392D01*
Y89408D01*
X186922Y89707D01*
X186835Y89994D01*
X186693Y90259D01*
X186503Y90491D01*
X186445Y90539D01*
Y92513D01*
X186640Y92767D01*
X186781Y93107D01*
X186829Y93472D01*
X186781Y93837D01*
X186640Y94177D01*
X186445Y94431D01*
Y96405D01*
X186503Y96453D01*
X186693Y96685D01*
X186835Y96950D01*
X186922Y97237D01*
X186951Y97536D01*
Y98552D01*
X186922Y98851D01*
X186835Y99138D01*
X186693Y99403D01*
X186503Y99635D01*
X186445Y99683D01*
Y105549D01*
X186503Y105597D01*
X186693Y105829D01*
X186835Y106094D01*
X186922Y106381D01*
X186951Y106680D01*
Y107696D01*
X186922Y107995D01*
X186835Y108282D01*
X186693Y108547D01*
X186503Y108779D01*
X186445Y108827D01*
Y114693D01*
X186503Y114741D01*
X186693Y114973D01*
X186835Y115238D01*
X186922Y115525D01*
X186951Y115824D01*
Y116840D01*
X186922Y117139D01*
X186835Y117426D01*
X186693Y117691D01*
X186503Y117923D01*
X186271Y118113D01*
X186006Y118255D01*
X185719Y118342D01*
X185420Y118371D01*
X185121Y118342D01*
X184834Y118255D01*
X184569Y118113D01*
X184506Y118062D01*
X184150Y117971D01*
X183794Y118062D01*
X183731Y118113D01*
X183466Y118255D01*
X183179Y118342D01*
X182880Y118371D01*
X182581Y118342D01*
X182327Y118265D01*
X181864Y118474D01*
Y118872D01*
X180929D01*
X180735Y119341D01*
X194988Y133595D01*
X197612D01*
X197612Y133595D01*
X197877Y133630D01*
X198124Y133733D01*
X198337Y133895D01*
X200977Y136536D01*
X201168Y136517D01*
X201492Y136549D01*
X201803Y136643D01*
X202090Y136797D01*
X202341Y137003D01*
X202547Y137254D01*
X202701Y137541D01*
X202795Y137852D01*
X202827Y138176D01*
X202795Y138500D01*
X202778Y138557D01*
X203099Y139065D01*
X204715D01*
Y133012D01*
X199087Y127384D01*
X198559Y127569D01*
X198458Y127902D01*
X198294Y128208D01*
X198074Y128476D01*
X197806Y128696D01*
X197500Y128860D01*
X197167Y128961D01*
X196822Y128995D01*
X196477Y128961D01*
X196144Y128860D01*
X195838Y128696D01*
X195570Y128476D01*
X195350Y128208D01*
X194794D01*
X194574Y128476D01*
X194306Y128696D01*
X194000Y128860D01*
X193667Y128961D01*
X193322Y128995D01*
X192977Y128961D01*
X192644Y128860D01*
X192338Y128696D01*
X192070Y128476D01*
X191850Y128208D01*
X191686Y127902D01*
X191585Y127569D01*
X191551Y127224D01*
X191585Y126879D01*
X191686Y126546D01*
X191850Y126240D01*
X192070Y125972D01*
X192338Y125752D01*
X192644Y125588D01*
X192932Y125501D01*
X193011Y125356D01*
X193112Y124964D01*
X192823Y124675D01*
X192661Y124462D01*
X192558Y124215D01*
X192523Y123950D01*
X192523Y123950D01*
Y120396D01*
X192523Y120396D01*
X192558Y120131D01*
X192661Y119884D01*
X192823Y119671D01*
X202175Y110320D01*
Y54299D01*
X201980Y54045D01*
X201839Y53705D01*
X201791Y53340D01*
X201839Y52975D01*
X201980Y52635D01*
X202204Y52344D01*
X202495Y52120D01*
X202835Y51979D01*
X203200Y51931D01*
X203565Y51979D01*
X203905Y52120D01*
X204196Y52344D01*
X204420Y52635D01*
X204561Y52975D01*
X204609Y53340D01*
X204561Y53705D01*
X204420Y54045D01*
X204225Y54299D01*
Y110744D01*
X204225Y110744D01*
X204225Y110744D01*
Y112860D01*
X211545Y120179D01*
X211545Y120179D01*
X211687Y120365D01*
X211727Y120398D01*
X212277Y120518D01*
X212281Y120517D01*
X212360Y120452D01*
X212666Y120288D01*
X212999Y120187D01*
X213344Y120153D01*
X213689Y120187D01*
X214022Y120288D01*
X214328Y120452D01*
X214596Y120672D01*
X214816Y120940D01*
X214980Y121246D01*
X215081Y121579D01*
X215115Y121924D01*
X215081Y122269D01*
X214980Y122602D01*
X214816Y122908D01*
X214800Y122927D01*
X217454Y125581D01*
X217923Y125386D01*
Y62427D01*
X217728Y62173D01*
X217587Y61833D01*
X217539Y61468D01*
X217587Y61103D01*
X217728Y60763D01*
X217952Y60472D01*
X218243Y60248D01*
X218583Y60107D01*
X218948Y60059D01*
X219313Y60107D01*
X219653Y60248D01*
X219944Y60472D01*
X220168Y60763D01*
X220309Y61103D01*
X220357Y61468D01*
X220309Y61833D01*
X220168Y62173D01*
X219973Y62427D01*
Y83011D01*
X220472Y83427D01*
X220837Y83475D01*
X221177Y83616D01*
X221468Y83840D01*
X221692Y84131D01*
X221833Y84471D01*
X221881Y84836D01*
X221833Y85201D01*
X221692Y85541D01*
X221468Y85832D01*
X221177Y86056D01*
X220989Y86134D01*
Y105363D01*
X221488Y105779D01*
X221853Y105827D01*
X222193Y105968D01*
X222484Y106192D01*
X222708Y106483D01*
X222849Y106823D01*
X222897Y107188D01*
X222849Y107553D01*
X222708Y107893D01*
X222484Y108184D01*
X222193Y108408D01*
X222005Y108486D01*
Y133006D01*
X222474Y133201D01*
X239259Y116416D01*
Y64516D01*
X239259Y64516D01*
X239294Y64251D01*
X239397Y64004D01*
X239559Y63791D01*
X241083Y62267D01*
X241296Y62105D01*
X241543Y62002D01*
X241808Y61967D01*
X244671D01*
X244799Y61811D01*
X245052Y61603D01*
X245341Y61449D01*
X245654Y61354D01*
X245980Y61322D01*
X246780D01*
X247106Y61354D01*
X247419Y61449D01*
X247708Y61603D01*
X247961Y61811D01*
X248169Y62064D01*
X248323Y62353D01*
X248418Y62666D01*
X248450Y62992D01*
X248418Y63318D01*
X248323Y63631D01*
X248169Y63920D01*
X247961Y64173D01*
X248169Y64604D01*
X248323Y64893D01*
X248418Y65206D01*
X248450Y65532D01*
X248418Y65858D01*
X248323Y66171D01*
X248169Y66460D01*
X247961Y66713D01*
X247708Y66921D01*
X247419Y67075D01*
X247106Y67170D01*
X246780Y67202D01*
X245980D01*
X245654Y67170D01*
X245341Y67075D01*
X245052Y66921D01*
X244799Y66713D01*
X244671Y66557D01*
X243783D01*
X243529Y66752D01*
X243189Y66893D01*
X242824Y66941D01*
X242459Y66893D01*
X242119Y66752D01*
X241828Y66528D01*
X241817Y66514D01*
X241309Y66687D01*
Y71538D01*
X241778Y71733D01*
X242099Y71411D01*
X242312Y71249D01*
X242559Y71146D01*
X242824Y71111D01*
X244671D01*
X244799Y70955D01*
X245052Y70747D01*
X245341Y70593D01*
X245654Y70498D01*
X245980Y70466D01*
X246780D01*
X247106Y70498D01*
X247419Y70593D01*
X247708Y70747D01*
X247961Y70955D01*
X248169Y71208D01*
X248323Y71497D01*
X248418Y71810D01*
X248450Y72136D01*
X248418Y72462D01*
X248323Y72775D01*
X248169Y73064D01*
X247961Y73317D01*
X248169Y73748D01*
X248323Y74037D01*
X248418Y74350D01*
X248450Y74676D01*
X248418Y75002D01*
X248323Y75315D01*
X248169Y75604D01*
X247961Y75857D01*
X247708Y76065D01*
X247419Y76219D01*
X247106Y76314D01*
X246780Y76346D01*
X245980D01*
X245654Y76314D01*
X245341Y76219D01*
X245052Y76065D01*
X244799Y75857D01*
X244671Y75701D01*
X243783D01*
X243529Y75896D01*
X243189Y76037D01*
X242824Y76085D01*
X242325Y76501D01*
Y81656D01*
X242513Y81811D01*
X242820Y81917D01*
X243067Y81814D01*
X243332Y81779D01*
X244671D01*
X244799Y81623D01*
X245052Y81415D01*
X245341Y81261D01*
X245654Y81166D01*
X245980Y81134D01*
X246780D01*
X247106Y81166D01*
X247419Y81261D01*
X247708Y81415D01*
X247961Y81623D01*
X248169Y81876D01*
X248323Y82165D01*
X248418Y82478D01*
X248450Y82804D01*
X248418Y83130D01*
X248323Y83443D01*
X248169Y83732D01*
X247961Y84163D01*
X248169Y84416D01*
X248323Y84705D01*
X248418Y85018D01*
X248450Y85344D01*
X248418Y85670D01*
X248323Y85983D01*
X248169Y86272D01*
X247961Y86525D01*
X247708Y86733D01*
X247600Y87179D01*
X247652Y87303D01*
X247741Y87519D01*
X247789Y87884D01*
X247741Y88249D01*
X247600Y88589D01*
X247376Y88880D01*
X247085Y89104D01*
X246745Y89245D01*
X246380Y89293D01*
X246015Y89245D01*
X245675Y89104D01*
X245384Y88880D01*
X245160Y88589D01*
X245019Y88249D01*
X244971Y87884D01*
X245019Y87519D01*
X245108Y87303D01*
X245160Y87179D01*
X245052Y86733D01*
X244799Y86525D01*
X244591Y86272D01*
X244437Y85983D01*
X244342Y85670D01*
X244310Y85344D01*
X244342Y85018D01*
X244437Y84705D01*
X244591Y84416D01*
X244657Y84337D01*
X244429Y83829D01*
X243756D01*
X243341Y84244D01*
Y92366D01*
X243810Y92561D01*
X244131Y92239D01*
X244344Y92077D01*
X244591Y91974D01*
X244649Y91967D01*
X244799Y91783D01*
X245052Y91575D01*
X245341Y91421D01*
X245654Y91326D01*
X245980Y91294D01*
X246780D01*
X247106Y91326D01*
X247419Y91421D01*
X247708Y91575D01*
X247961Y91783D01*
X248169Y92036D01*
X248323Y92325D01*
X248418Y92638D01*
X248450Y92964D01*
X248418Y93290D01*
X248323Y93603D01*
X248169Y93892D01*
X247961Y94145D01*
Y94323D01*
X248169Y94576D01*
X248323Y94865D01*
X248418Y95178D01*
X248450Y95504D01*
X248418Y95830D01*
X248323Y96143D01*
X248169Y96432D01*
X247961Y96685D01*
X247708Y96893D01*
X247600Y97339D01*
X247652Y97463D01*
X247741Y97679D01*
X247789Y98044D01*
X247741Y98409D01*
X247600Y98749D01*
X247376Y99040D01*
X247085Y99264D01*
X246745Y99405D01*
X246380Y99453D01*
X246015Y99405D01*
X245675Y99264D01*
X245384Y99040D01*
X245160Y98749D01*
X245019Y98409D01*
X244971Y98044D01*
X245019Y97679D01*
X245121Y97434D01*
X244918Y96917D01*
X244842Y96892D01*
X244357Y97227D01*
Y118364D01*
X244357Y118364D01*
X244322Y118629D01*
X244219Y118876D01*
X244057Y119089D01*
X237245Y125900D01*
Y164084D01*
X238154D01*
X238238Y164019D01*
X238474Y163576D01*
X238415Y163433D01*
X238367Y163068D01*
X238415Y162703D01*
X238556Y162363D01*
X238780Y162072D01*
X239071Y161848D01*
X239411Y161707D01*
X239776Y161659D01*
X240141Y161707D01*
X240481Y161848D01*
X240772Y162072D01*
X241977Y163276D01*
X242260Y163239D01*
X243746D01*
X243925Y163092D01*
X244248Y162919D01*
X244599Y162813D01*
X244964Y162777D01*
X245764D01*
X246129Y162813D01*
X246480Y162919D01*
X246803Y163092D01*
X247087Y163325D01*
X247320Y163609D01*
X247493Y163932D01*
X247599Y164283D01*
X247635Y164648D01*
X247599Y165013D01*
X247493Y165364D01*
X247320Y165687D01*
X247087Y165971D01*
X246803Y166204D01*
X246480Y166377D01*
X246129Y166483D01*
X245764Y166519D01*
X244964D01*
X244599Y166483D01*
X244248Y166377D01*
X243925Y166204D01*
X243746Y166057D01*
X242835D01*
X242824Y166071D01*
Y167132D01*
X239776D01*
X239395Y167439D01*
Y169672D01*
X238261D01*
Y184404D01*
X238251Y184481D01*
X238249Y184558D01*
X238233Y184613D01*
X238226Y184669D01*
X238196Y184741D01*
X238175Y184815D01*
X238145Y184864D01*
X238123Y184916D01*
X238076Y184978D01*
X238036Y185044D01*
X236599Y186840D01*
X236613Y186944D01*
X236565Y187309D01*
X236424Y187649D01*
X236200Y187940D01*
X235909Y188164D01*
X235569Y188305D01*
X235204Y188353D01*
X234839Y188305D01*
X234499Y188164D01*
X234208Y187940D01*
X234046Y187730D01*
X233733Y187641D01*
X233426Y187631D01*
X233389Y187669D01*
X233176Y187831D01*
X232929Y187934D01*
X232664Y187969D01*
X232664Y187969D01*
X202692D01*
X202427Y187934D01*
X202180Y187831D01*
X201967Y187669D01*
X200443Y186145D01*
X200281Y185932D01*
X200178Y185685D01*
X200144Y185424D01*
X200133Y185416D01*
X199670Y185220D01*
X199550Y185275D01*
X199263Y185429D01*
X198952Y185523D01*
X198628Y185555D01*
X198304Y185523D01*
X197993Y185429D01*
X197706Y185275D01*
X197358Y185114D01*
X197010Y185275D01*
X196723Y185429D01*
X196412Y185523D01*
X196088Y185555D01*
X195764Y185523D01*
X195453Y185429D01*
X195166Y185275D01*
X195047Y185220D01*
X194573Y185425D01*
Y187452D01*
X194538Y187717D01*
X194435Y187964D01*
X194273Y188177D01*
X192749Y189701D01*
X192536Y189863D01*
X192289Y189966D01*
X192024Y190001D01*
X192024Y190001D01*
X178308D01*
X178308Y190001D01*
X178043Y189966D01*
X177796Y189863D01*
X177583Y189701D01*
X177583Y189701D01*
X167931Y180049D01*
X167769Y179836D01*
X167666Y179589D01*
X167631Y179324D01*
X167631Y179324D01*
Y165698D01*
X167162Y165503D01*
X143135Y189530D01*
X143093Y189849D01*
X142952Y190189D01*
X142728Y190480D01*
X142437Y190704D01*
X142097Y190845D01*
X141732Y190893D01*
X141367Y190845D01*
X141027Y190704D01*
X140736Y190480D01*
X140512Y190189D01*
X140371Y189849D01*
X140323Y189484D01*
X140371Y189119D01*
X140512Y188779D01*
X140736Y188488D01*
X141027Y188264D01*
X141097Y188235D01*
Y187685D01*
X141027Y187656D01*
X140736Y187432D01*
X140512Y187141D01*
X140371Y186801D01*
X140323Y186436D01*
X140371Y186071D01*
X140378Y186055D01*
X140038Y185547D01*
X138557D01*
X138557Y185547D01*
X138049Y185506D01*
X137992Y185523D01*
X137668Y185555D01*
X137344Y185523D01*
X137033Y185429D01*
X136746Y185275D01*
X136398Y185114D01*
X136050Y185275D01*
X135763Y185429D01*
X135452Y185523D01*
X135128Y185555D01*
X134804Y185523D01*
X134493Y185429D01*
X134206Y185275D01*
X133858Y185114D01*
X133510Y185275D01*
X133223Y185429D01*
X132912Y185523D01*
X132588Y185555D01*
X132264Y185523D01*
X131953Y185429D01*
X131666Y185275D01*
X131547Y185220D01*
X131073Y185425D01*
Y190049D01*
X131268Y190303D01*
X131409Y190643D01*
X131457Y191008D01*
X131409Y191373D01*
X131268Y191713D01*
X131044Y192004D01*
X130753Y192228D01*
X130413Y192369D01*
X130048Y192417D01*
D02*
G37*
G36*
X244856Y58638D02*
X244266Y58591D01*
X243690Y58453D01*
X243143Y58226D01*
X242638Y57917D01*
X242188Y57532D01*
X241803Y57082D01*
X241494Y56577D01*
X241267Y56030D01*
X241129Y55454D01*
X241082Y54864D01*
X241129Y54274D01*
X241267Y53698D01*
X241494Y53151D01*
X241803Y52646D01*
X242188Y52196D01*
X242638Y51811D01*
X243143Y51502D01*
X243690Y51275D01*
X244266Y51137D01*
X244856Y51090D01*
X245446Y51137D01*
X246022Y51275D01*
X246569Y51502D01*
X247074Y51811D01*
X247524Y52196D01*
X247909Y52646D01*
X248218Y53151D01*
X248445Y53698D01*
X248583Y54274D01*
X248630Y54864D01*
X248583Y55454D01*
X248445Y56030D01*
X248218Y56577D01*
X247909Y57082D01*
X247524Y57532D01*
X247074Y57917D01*
X246569Y58226D01*
X246022Y58453D01*
X245446Y58591D01*
X244856Y58638D01*
D02*
G37*
G36*
X55000Y192774D02*
X54410Y192727D01*
X53834Y192589D01*
X53287Y192362D01*
X52782Y192053D01*
X52332Y191668D01*
X51947Y191218D01*
X51638Y190713D01*
X51411Y190166D01*
X51273Y189590D01*
X51226Y189000D01*
X51273Y188410D01*
X51411Y187834D01*
X51638Y187287D01*
X51947Y186782D01*
X52332Y186332D01*
X52782Y185947D01*
X53287Y185638D01*
X53834Y185411D01*
X54410Y185273D01*
X55000Y185226D01*
X55590Y185273D01*
X56166Y185411D01*
X56713Y185638D01*
X57218Y185947D01*
X57668Y186332D01*
X58053Y186782D01*
X58362Y187287D01*
X58589Y187834D01*
X58727Y188410D01*
X58774Y189000D01*
X58727Y189590D01*
X58589Y190166D01*
X58362Y190713D01*
X58053Y191218D01*
X57668Y191668D01*
X57218Y192053D01*
X56713Y192362D01*
X56166Y192589D01*
X55590Y192727D01*
X55000Y192774D01*
D02*
G37*
G36*
X245000D02*
X244410Y192727D01*
X243834Y192589D01*
X243287Y192362D01*
X242782Y192053D01*
X242332Y191668D01*
X241947Y191218D01*
X241638Y190713D01*
X241411Y190166D01*
X241273Y189590D01*
X241226Y189000D01*
X241273Y188410D01*
X241411Y187834D01*
X241638Y187287D01*
X241947Y186782D01*
X242332Y186332D01*
X242782Y185947D01*
X243287Y185638D01*
X243834Y185411D01*
X244410Y185273D01*
X245000Y185226D01*
X245590Y185273D01*
X246166Y185411D01*
X246713Y185638D01*
X247218Y185947D01*
X247668Y186332D01*
X248053Y186782D01*
X248362Y187287D01*
X248589Y187834D01*
X248727Y188410D01*
X248774Y189000D01*
X248727Y189590D01*
X248589Y190166D01*
X248362Y190713D01*
X248053Y191218D01*
X247668Y191668D01*
X247218Y192053D01*
X246713Y192362D01*
X246166Y192589D01*
X245590Y192727D01*
X245000Y192774D01*
D02*
G37*
%LPD*%
G36*
X89002Y90218D02*
X89065Y90167D01*
X89330Y90025D01*
X89617Y89938D01*
X89916Y89909D01*
X90215Y89938D01*
X90416Y89999D01*
X90932Y89483D01*
Y87884D01*
X93463D01*
Y86149D01*
X92531Y85217D01*
X90932D01*
Y85073D01*
X90670Y84862D01*
X90424Y84750D01*
X90215Y84814D01*
X89916Y84843D01*
X89617Y84814D01*
X89330Y84727D01*
X89065Y84585D01*
X89002Y84534D01*
X88835Y84491D01*
X88401Y84768D01*
Y89984D01*
X88835Y90261D01*
X89002Y90218D01*
D02*
G37*
G36*
X98368Y85096D02*
X98842Y84952D01*
X99334Y84904D01*
X101834D01*
X102326Y84952D01*
X102800Y85096D01*
X102934Y85168D01*
X103334Y84805D01*
X103287Y84693D01*
X103239Y84328D01*
X103287Y83963D01*
X103428Y83623D01*
X103652Y83332D01*
X103943Y83108D01*
X104283Y82967D01*
X104648Y82919D01*
Y82024D01*
X104569Y81979D01*
X103965Y82113D01*
X103933Y82174D01*
X103619Y82557D01*
X103236Y82871D01*
X102800Y83104D01*
X102326Y83248D01*
X101834Y83296D01*
X99334D01*
X98842Y83248D01*
X98368Y83104D01*
X98053Y82935D01*
X97694Y83079D01*
X97545Y83210D01*
Y84990D01*
X97694Y85121D01*
X98053Y85265D01*
X98368Y85096D01*
D02*
G37*
G36*
X65523Y87286D02*
Y75608D01*
X64828Y74914D01*
X64605Y74947D01*
X64548Y74994D01*
X64337Y75501D01*
X64369Y75561D01*
X64464Y75874D01*
X64496Y76200D01*
X64464Y76526D01*
X64369Y76839D01*
X64215Y77128D01*
X64007Y77381D01*
X63754Y77589D01*
X63465Y77743D01*
X63152Y77838D01*
X62826Y77870D01*
X61126D01*
X60800Y77838D01*
X60487Y77743D01*
X60461Y77729D01*
X59953Y78029D01*
Y83409D01*
X60363Y83725D01*
X60372Y83730D01*
X60674Y83599D01*
X60802Y83061D01*
X60756Y83001D01*
X60615Y82661D01*
X60567Y82296D01*
X60615Y81931D01*
X60756Y81591D01*
X60980Y81300D01*
X61271Y81076D01*
X61611Y80935D01*
X61976Y80887D01*
X62341Y80935D01*
X62681Y81076D01*
X62972Y81300D01*
X63196Y81591D01*
X63337Y81931D01*
X63385Y82296D01*
X63337Y82661D01*
X63196Y83001D01*
X63054Y83186D01*
X63146Y83677D01*
X63156Y83707D01*
X63465Y83801D01*
X63754Y83955D01*
X64007Y84163D01*
X64215Y84416D01*
X64369Y84705D01*
X64464Y85018D01*
X64496Y85344D01*
X64464Y85670D01*
X64369Y85983D01*
X64215Y86272D01*
X64106Y86404D01*
X64205Y86695D01*
X64270Y86845D01*
X64329Y86917D01*
X64520Y86997D01*
X64733Y87159D01*
X65054Y87481D01*
X65523Y87286D01*
D02*
G37*
G36*
X64033Y97361D02*
X64507Y97180D01*
Y91796D01*
X64033Y91615D01*
X63999Y91611D01*
X63754Y91813D01*
X63465Y91967D01*
X63152Y92062D01*
X62826Y92094D01*
X61126D01*
X60800Y92062D01*
X60680Y92026D01*
X60432Y92476D01*
X60656Y92767D01*
X60797Y93107D01*
X60845Y93472D01*
X60797Y93837D01*
X60693Y94087D01*
X60890Y94323D01*
X61073Y94436D01*
X61271Y94284D01*
X61611Y94143D01*
X61976Y94095D01*
X62341Y94143D01*
X62681Y94284D01*
X62972Y94508D01*
X63196Y94799D01*
X63337Y95139D01*
X63385Y95504D01*
X63337Y95869D01*
X63196Y96209D01*
X63054Y96394D01*
X63146Y96885D01*
X63156Y96915D01*
X63465Y97009D01*
X63754Y97163D01*
X63999Y97365D01*
X64033Y97361D01*
D02*
G37*
G36*
X120498Y100886D02*
X120561Y100835D01*
X120826Y100693D01*
X121113Y100606D01*
X121412Y100577D01*
X121711Y100606D01*
X121912Y100667D01*
X122428Y100151D01*
Y99060D01*
X124164D01*
X124575Y98552D01*
X124623Y98187D01*
X124764Y97847D01*
X124988Y97556D01*
Y97375D01*
X124524Y96901D01*
X122428D01*
Y96249D01*
X122166Y96038D01*
X121920Y95926D01*
X121711Y95990D01*
X121412Y96019D01*
X121113Y95990D01*
X120826Y95903D01*
X120561Y95761D01*
X120498Y95710D01*
X120331Y95667D01*
X119897Y95944D01*
Y100652D01*
X120331Y100929D01*
X120498Y100886D01*
D02*
G37*
G36*
X147896Y102056D02*
Y100858D01*
X147944Y100366D01*
X148088Y99892D01*
X148321Y99456D01*
X148635Y99073D01*
X149018Y98759D01*
X149395Y98557D01*
Y95420D01*
X147798Y93823D01*
X147329Y94018D01*
Y102288D01*
X147388Y102327D01*
X147896Y102056D01*
D02*
G37*
G36*
X145279Y87704D02*
Y84271D01*
X145084Y84017D01*
X144943Y83677D01*
X144895Y83312D01*
X144943Y82947D01*
X145084Y82607D01*
X145308Y82316D01*
X145599Y82092D01*
X145939Y81951D01*
X146304Y81903D01*
X146803Y81487D01*
Y73644D01*
X145054D01*
X144562Y73596D01*
X144088Y73452D01*
X143652Y73219D01*
X143269Y72905D01*
X142955Y72522D01*
X142722Y72086D01*
X142578Y71612D01*
X142530Y71120D01*
X142578Y70628D01*
X142722Y70154D01*
X142951Y69725D01*
X141515Y68289D01*
X141353Y68076D01*
X141250Y67829D01*
X141226Y67647D01*
X140714D01*
X140690Y67829D01*
X140587Y68076D01*
X140425Y68289D01*
X139192Y69521D01*
Y71120D01*
X138693D01*
Y72220D01*
X139409Y72935D01*
X139409Y72935D01*
X139571Y73148D01*
X139674Y73395D01*
X139709Y73660D01*
Y86180D01*
X140217Y86552D01*
X140356Y86508D01*
X140385Y86469D01*
X140512Y86163D01*
X140736Y85872D01*
X141027Y85648D01*
X141367Y85507D01*
X141732Y85459D01*
X142097Y85507D01*
X142437Y85648D01*
X142728Y85872D01*
X142952Y86163D01*
X143093Y86503D01*
X143141Y86868D01*
X143256Y86983D01*
X143621Y87031D01*
X143961Y87172D01*
X144252Y87396D01*
X144476Y87687D01*
X144603Y87993D01*
X144632Y88032D01*
X144771Y88076D01*
X145279Y87704D01*
D02*
G37*
G36*
X120498Y92250D02*
X120561Y92199D01*
X120826Y92057D01*
X121113Y91970D01*
X121412Y91941D01*
X121711Y91970D01*
X121912Y92031D01*
X122428Y91515D01*
Y90424D01*
X124959D01*
Y89197D01*
X124027Y88265D01*
X122428D01*
Y87613D01*
X122166Y87402D01*
X121920Y87290D01*
X121711Y87354D01*
X121412Y87383D01*
X121113Y87354D01*
X120826Y87267D01*
X120561Y87125D01*
X120498Y87074D01*
X120331Y87031D01*
X119897Y87308D01*
Y92016D01*
X120331Y92293D01*
X120498Y92250D01*
D02*
G37*
G36*
X109240Y79756D02*
X109272Y79430D01*
X109367Y79117D01*
X109521Y78828D01*
X109686Y78486D01*
X109521Y78144D01*
X109367Y77855D01*
X109272Y77542D01*
X109240Y77216D01*
X109272Y76890D01*
X109367Y76577D01*
X109521Y76288D01*
X109686Y75946D01*
X109521Y75604D01*
X109367Y75315D01*
X109272Y75002D01*
X109240Y74676D01*
X109272Y74350D01*
X109367Y74037D01*
X109521Y73748D01*
X109729Y73495D01*
X109982Y73287D01*
X110167Y73189D01*
X110285Y73078D01*
X110422Y72556D01*
X110399Y72501D01*
X110351Y72136D01*
X110399Y71771D01*
X110540Y71431D01*
X110764Y71140D01*
X111055Y70916D01*
X111395Y70775D01*
X111760Y70727D01*
X112125Y70775D01*
X112465Y70916D01*
X112756Y71140D01*
X112767Y71154D01*
X113275Y70981D01*
Y66074D01*
X113147Y65913D01*
X112767Y65663D01*
X112610Y65678D01*
X111539D01*
X110580Y66638D01*
X110367Y66800D01*
X110120Y66903D01*
X109855Y66938D01*
X109728Y67406D01*
Y67437D01*
X106395D01*
X106040Y67945D01*
X106057Y68072D01*
X106009Y68437D01*
X105868Y68777D01*
X105673Y69031D01*
Y71908D01*
X105673Y71908D01*
X105638Y72173D01*
X105535Y72420D01*
X105373Y72633D01*
X105373Y72633D01*
X104348Y73657D01*
X104683Y74041D01*
X107696D01*
Y76708D01*
Y79756D01*
X108003Y80137D01*
X108769D01*
X109240Y79756D01*
D02*
G37*
G36*
X97549Y69387D02*
X97932Y69073D01*
X98368Y68840D01*
X98842Y68696D01*
X99334Y68648D01*
X101834D01*
X102326Y68696D01*
X102800Y68840D01*
X102934Y68912D01*
X103334Y68549D01*
X103287Y68437D01*
X103239Y68072D01*
X103287Y67707D01*
X103428Y67367D01*
X103652Y67076D01*
X103943Y66852D01*
X104283Y66711D01*
X104648Y66663D01*
Y66324D01*
X104147Y65891D01*
X103933Y65918D01*
X103619Y66301D01*
X103236Y66615D01*
X102800Y66848D01*
X102326Y66992D01*
X101834Y67040D01*
X99334D01*
X98842Y66992D01*
X98368Y66848D01*
X97932Y66615D01*
X97549Y66301D01*
X97545Y66296D01*
X97037Y66477D01*
Y69211D01*
X97545Y69393D01*
X97549Y69387D01*
D02*
G37*
G36*
X67632Y60439D02*
Y59710D01*
X67680Y59218D01*
X67824Y58744D01*
X68057Y58308D01*
X68371Y57925D01*
X68754Y57611D01*
X69079Y57437D01*
Y55315D01*
X68884Y55061D01*
X68743Y54721D01*
X68695Y54356D01*
X68279Y53857D01*
X65448D01*
X63827Y55478D01*
X63801Y55667D01*
X63894Y56130D01*
X64007Y56223D01*
X64215Y56476D01*
X64369Y56765D01*
X64464Y57078D01*
X64496Y57404D01*
X64464Y57730D01*
X64369Y58043D01*
X64215Y58332D01*
X64149Y58411D01*
X64377Y58919D01*
X65024D01*
X65024Y58919D01*
X65289Y58954D01*
X65536Y59057D01*
X65749Y59219D01*
X67163Y60633D01*
X67632Y60439D01*
D02*
G37*
G36*
X160670Y65867D02*
X160888Y65756D01*
X161010Y65354D01*
X161243Y64918D01*
X161557Y64535D01*
X161940Y64221D01*
X161964Y64208D01*
Y63632D01*
X161940Y63619D01*
X161557Y63305D01*
X161243Y62922D01*
X161010Y62486D01*
X160866Y62012D01*
X160818Y61520D01*
X160866Y61028D01*
X161010Y60554D01*
X161243Y60118D01*
X161557Y59735D01*
X161496Y59553D01*
X161304Y59286D01*
X161036Y59321D01*
X160909Y59304D01*
X160401Y59436D01*
Y59436D01*
X157353D01*
Y59436D01*
X156972D01*
Y59436D01*
X154441D01*
Y60028D01*
X160346Y65932D01*
X160670Y65867D01*
D02*
G37*
G36*
X89002Y72438D02*
X89065Y72387D01*
X89330Y72245D01*
X89617Y72158D01*
X89916Y72129D01*
X90215Y72158D01*
X90416Y72219D01*
X90932Y71703D01*
Y70104D01*
X91867D01*
X92061Y69635D01*
X91731Y69305D01*
X91569Y69092D01*
X91466Y68845D01*
X91431Y68580D01*
X91431Y68580D01*
Y67945D01*
X90932D01*
Y67801D01*
X90670Y67590D01*
X90424Y67478D01*
X90215Y67542D01*
X89916Y67571D01*
X89617Y67542D01*
X89330Y67455D01*
X89065Y67313D01*
X89002Y67262D01*
X88835Y67219D01*
X88401Y67496D01*
Y72204D01*
X88835Y72481D01*
X89002Y72438D01*
D02*
G37*
G36*
Y81074D02*
X89065Y81023D01*
X89330Y80881D01*
X89617Y80794D01*
X89916Y80765D01*
X90215Y80794D01*
X90416Y80855D01*
X90932Y80339D01*
Y78740D01*
X91867D01*
X92061Y78271D01*
X91731Y77941D01*
X91569Y77728D01*
X91466Y77481D01*
X91431Y77216D01*
X91431Y77216D01*
Y76581D01*
X90932D01*
Y76437D01*
X90670Y76226D01*
X90424Y76114D01*
X90215Y76178D01*
X89916Y76207D01*
X89617Y76178D01*
X89330Y76091D01*
X89065Y75949D01*
X89002Y75898D01*
X88835Y75855D01*
X88401Y76132D01*
Y80840D01*
X88835Y81117D01*
X89002Y81074D01*
D02*
G37*
G36*
X109240Y96012D02*
X109272Y95686D01*
X109367Y95373D01*
X109521Y95084D01*
X109686Y94742D01*
X109521Y94400D01*
X109367Y94111D01*
X109272Y93798D01*
X109240Y93472D01*
X109272Y93146D01*
X109367Y92833D01*
X109521Y92544D01*
X109686Y92202D01*
X109521Y91860D01*
X109367Y91571D01*
X109272Y91258D01*
X109240Y90932D01*
X109272Y90606D01*
X109367Y90293D01*
X109521Y90004D01*
X109729Y89751D01*
X109982Y89543D01*
X110167Y89445D01*
X110285Y89334D01*
X110422Y88812D01*
X110399Y88757D01*
X110351Y88392D01*
X110399Y88027D01*
X110540Y87687D01*
X110764Y87396D01*
X111055Y87172D01*
X111395Y87031D01*
X111760Y86983D01*
X112125Y87031D01*
X112465Y87172D01*
X112756Y87396D01*
X112980Y87687D01*
X113121Y88027D01*
X113169Y88392D01*
X113121Y88757D01*
X113098Y88812D01*
X113235Y89334D01*
X113353Y89445D01*
X113538Y89543D01*
X113791Y89751D01*
X113999Y90004D01*
X114153Y90293D01*
X114248Y90606D01*
X114280Y90932D01*
X114248Y91258D01*
X114153Y91571D01*
X113999Y91860D01*
X113834Y92202D01*
X113999Y92544D01*
X114153Y92833D01*
X114248Y93146D01*
X114280Y93472D01*
X114275Y93522D01*
X114838Y94085D01*
X115307Y93890D01*
Y81196D01*
X114614Y80503D01*
X114026Y80633D01*
X113999Y80684D01*
X113791Y80937D01*
X113538Y81145D01*
X113249Y81299D01*
X112936Y81394D01*
X112610Y81426D01*
X111539D01*
X110580Y82386D01*
X110367Y82548D01*
X110120Y82651D01*
X109855Y82686D01*
X109728Y83154D01*
Y83185D01*
X106172D01*
X105994Y83442D01*
X105897Y83693D01*
X106009Y83963D01*
X106057Y84328D01*
X106009Y84693D01*
X105868Y85033D01*
X105673Y85287D01*
Y88164D01*
X105673Y88164D01*
X105638Y88429D01*
X105535Y88676D01*
X105373Y88889D01*
X105373Y88889D01*
X104348Y89913D01*
X104683Y90297D01*
X107696D01*
Y92964D01*
Y96012D01*
X108003Y96393D01*
X108769D01*
X109240Y96012D01*
D02*
G37*
G36*
X137659Y80682D02*
Y74084D01*
X136943Y73369D01*
X136781Y73156D01*
X136678Y72909D01*
X136643Y72644D01*
X136643Y72644D01*
Y72459D01*
X136572Y72411D01*
X135937Y72522D01*
X135623Y72905D01*
X135240Y73219D01*
X134804Y73452D01*
X134330Y73596D01*
X133838Y73644D01*
X131338D01*
X130846Y73596D01*
X130532Y73501D01*
X130263Y73950D01*
X137190Y80877D01*
X137659Y80682D01*
D02*
G37*
G36*
X66539Y73062D02*
Y62908D01*
X64828Y61198D01*
X64605Y61231D01*
X64548Y61278D01*
X64337Y61785D01*
X64369Y61845D01*
X64464Y62158D01*
X64496Y62484D01*
X64464Y62810D01*
X64369Y63123D01*
X64215Y63412D01*
X64007Y63665D01*
X63754Y63873D01*
X63465Y64027D01*
X63152Y64122D01*
X62826Y64154D01*
X61126D01*
X60800Y64122D01*
X60487Y64027D01*
X60461Y64013D01*
X59953Y64313D01*
Y69185D01*
X60363Y69501D01*
X60372Y69506D01*
X60674Y69375D01*
X60802Y68837D01*
X60756Y68777D01*
X60615Y68437D01*
X60567Y68072D01*
X60615Y67707D01*
X60756Y67367D01*
X60980Y67076D01*
X61271Y66852D01*
X61611Y66711D01*
X61976Y66663D01*
X62341Y66711D01*
X62681Y66852D01*
X62972Y67076D01*
X63196Y67367D01*
X63337Y67707D01*
X63385Y68072D01*
X63337Y68437D01*
X63196Y68777D01*
X63054Y68962D01*
X63146Y69453D01*
X63156Y69483D01*
X63465Y69577D01*
X63754Y69731D01*
X64007Y69939D01*
X64215Y70192D01*
X64369Y70481D01*
X64464Y70794D01*
X64496Y71120D01*
X64464Y71446D01*
X64369Y71759D01*
X64215Y72048D01*
X64149Y72127D01*
X64377Y72635D01*
X65024D01*
X65024Y72635D01*
X65289Y72670D01*
X65536Y72773D01*
X65749Y72935D01*
X66070Y73257D01*
X66539Y73062D01*
D02*
G37*
G36*
X184395Y96080D02*
Y94431D01*
X184200Y94177D01*
X184059Y93837D01*
X184011Y93472D01*
X184059Y93107D01*
X184200Y92767D01*
X184395Y92513D01*
Y90864D01*
X183961Y90587D01*
X183794Y90630D01*
X183731Y90681D01*
X183466Y90823D01*
X183179Y90910D01*
X182880Y90939D01*
X182581Y90910D01*
X182380Y90849D01*
X181864Y91365D01*
Y92456D01*
X178816D01*
Y92456D01*
X178641Y92384D01*
X178160Y92705D01*
X178145Y92821D01*
X178004Y93161D01*
X177825Y93394D01*
X177785Y93518D01*
X177939Y93971D01*
X178689D01*
X178689Y93971D01*
X178954Y94006D01*
X179201Y94109D01*
X179414Y94271D01*
X180265Y95123D01*
X181864D01*
Y95775D01*
X182126Y95986D01*
X182372Y96098D01*
X182581Y96034D01*
X182880Y96005D01*
X183179Y96034D01*
X183466Y96121D01*
X183731Y96263D01*
X183794Y96314D01*
X183961Y96357D01*
X184395Y96080D01*
D02*
G37*
G36*
X102120Y149500D02*
X102298Y148959D01*
X101383Y148045D01*
X101221Y147832D01*
X101118Y147585D01*
X101083Y147320D01*
X101083Y147320D01*
Y139108D01*
X96773Y134799D01*
X96467Y134809D01*
X96154Y134898D01*
X96021Y135071D01*
Y144864D01*
X100083Y148926D01*
X100190Y148893D01*
X100584Y148854D01*
X100978Y148893D01*
X101358Y149008D01*
X101707Y149195D01*
X102014Y149446D01*
X102064Y149508D01*
X102120Y149500D01*
D02*
G37*
G36*
X60071Y164459D02*
Y162052D01*
Y160283D01*
X58590D01*
X56548Y162325D01*
X56466Y162851D01*
X56667Y163096D01*
X56816Y163375D01*
X56908Y163678D01*
X56987Y163757D01*
X57444Y163941D01*
X57546Y163886D01*
X57849Y163794D01*
X58164Y163763D01*
X58479Y163794D01*
X58782Y163886D01*
X59061Y164035D01*
X59306Y164236D01*
X59507Y164481D01*
X59563Y164586D01*
X60071Y164459D01*
D02*
G37*
G36*
X72058Y152001D02*
X72345Y151914D01*
X72644Y151885D01*
X73234D01*
X73309Y151845D01*
X73651Y151384D01*
X73651Y151384D01*
Y149352D01*
X73651Y149352D01*
X73686Y149087D01*
X73789Y148840D01*
X73951Y148627D01*
X86583Y135996D01*
X86541Y135718D01*
X86421Y135439D01*
X86163Y135332D01*
X85872Y135108D01*
X85832D01*
X85541Y135332D01*
X85201Y135473D01*
X84836Y135521D01*
X84471Y135473D01*
X84131Y135332D01*
X83840Y135108D01*
X83800D01*
X83509Y135332D01*
X83169Y135473D01*
X82804Y135521D01*
X82439Y135473D01*
X82099Y135332D01*
X81808Y135108D01*
X81768D01*
X81477Y135332D01*
X81137Y135473D01*
X80772Y135521D01*
X80407Y135473D01*
X80067Y135332D01*
X79776Y135108D01*
X79736D01*
X79445Y135332D01*
X79105Y135473D01*
X78740Y135521D01*
X78375Y135473D01*
X78035Y135332D01*
X77744Y135108D01*
X77704D01*
X77413Y135332D01*
X77073Y135473D01*
X76708Y135521D01*
X76343Y135473D01*
X76003Y135332D01*
X75712Y135108D01*
X75672D01*
X75381Y135332D01*
X75041Y135473D01*
X74676Y135521D01*
X74311Y135473D01*
X73971Y135332D01*
X73680Y135108D01*
X73640D01*
X73349Y135332D01*
X73009Y135473D01*
X72644Y135521D01*
X72517Y135504D01*
X72009Y135859D01*
Y138176D01*
X70410D01*
X69856Y138730D01*
X70054Y139183D01*
X71685D01*
X71939Y138988D01*
X72279Y138847D01*
X72644Y138799D01*
X73009Y138847D01*
X73349Y138988D01*
X73640Y139212D01*
X73864Y139503D01*
X74005Y139843D01*
X74053Y140208D01*
X74005Y140573D01*
X73864Y140913D01*
X73640Y141204D01*
Y141244D01*
X73864Y141535D01*
X74005Y141875D01*
X74053Y142240D01*
X74005Y142605D01*
X73864Y142945D01*
X73640Y143236D01*
X73349Y143460D01*
X73009Y143601D01*
X72644Y143649D01*
X72279Y143601D01*
X71939Y143460D01*
X71685Y143265D01*
X69028D01*
X68960Y143294D01*
X68587Y143758D01*
X68587Y143760D01*
X68587Y143764D01*
X68580Y143839D01*
X70029Y145288D01*
X70646D01*
X70738Y145066D01*
X70962Y144774D01*
X71254Y144550D01*
X71594Y144410D01*
X71958Y144362D01*
X72323Y144410D01*
X72663Y144550D01*
X72955Y144774D01*
X73178Y145066D01*
X73319Y145406D01*
X73367Y145771D01*
X73319Y146135D01*
X73178Y146475D01*
X72983Y146730D01*
Y149530D01*
X72948Y149795D01*
X72846Y150042D01*
X72683Y150254D01*
X71337Y151601D01*
X71307Y151623D01*
X71317Y151876D01*
X71675Y152076D01*
X71834Y152121D01*
X72058Y152001D01*
D02*
G37*
G36*
X131666Y136797D02*
X131953Y136643D01*
X132264Y136549D01*
X132588Y136517D01*
X132912Y136549D01*
X133223Y136643D01*
X133510Y136797D01*
X133595Y136867D01*
X134103Y136647D01*
Y132504D01*
X129002Y127403D01*
X128533Y127598D01*
Y136647D01*
X129041Y136867D01*
X129126Y136797D01*
X129413Y136643D01*
X129724Y136549D01*
X130048Y136517D01*
X130372Y136549D01*
X130683Y136643D01*
X130970Y136797D01*
X131221Y137003D01*
X131415D01*
X131666Y136797D01*
D02*
G37*
G36*
X89399Y161120D02*
Y152610D01*
X89301Y152557D01*
X88994Y152306D01*
X88743Y151999D01*
X88556Y151650D01*
X88441Y151270D01*
X88402Y150876D01*
X88441Y150482D01*
X88556Y150102D01*
X88743Y149753D01*
X88994Y149446D01*
X89301Y149195D01*
X89650Y149008D01*
X90030Y148893D01*
X90424Y148854D01*
X90818Y148893D01*
X91198Y149008D01*
X91547Y149195D01*
X91854Y149446D01*
X92105Y149753D01*
X92292Y150102D01*
X92407Y150482D01*
X92446Y150876D01*
X92407Y151270D01*
X92292Y151650D01*
X92105Y151999D01*
X91854Y152306D01*
X91547Y152557D01*
X91449Y152610D01*
Y160892D01*
X91957Y161102D01*
X99559Y153500D01*
Y152610D01*
X99461Y152557D01*
X99154Y152306D01*
X98903Y151999D01*
X98716Y151650D01*
X98601Y151270D01*
X98562Y150876D01*
X98601Y150482D01*
X98634Y150375D01*
X94271Y146013D01*
X94109Y145800D01*
X94006Y145553D01*
X93971Y145288D01*
X93971Y145288D01*
Y139282D01*
X93502Y139087D01*
X82214Y150375D01*
X82247Y150482D01*
X82286Y150876D01*
X82247Y151270D01*
X82132Y151650D01*
X81945Y151999D01*
X81694Y152306D01*
X81387Y152557D01*
X81289Y152610D01*
Y168512D01*
X81797Y168722D01*
X89399Y161120D01*
D02*
G37*
G36*
X67564Y164296D02*
Y163501D01*
X66331Y162269D01*
X66169Y162056D01*
X66066Y161809D01*
X66031Y161544D01*
X66031Y161544D01*
Y157396D01*
X65108Y156473D01*
X63119D01*
Y159004D01*
Y162052D01*
Y163270D01*
X64441Y164592D01*
X66548D01*
Y164592D01*
X67056Y164707D01*
X67564Y164296D01*
D02*
G37*
G36*
Y174456D02*
Y173228D01*
X68655D01*
X70903Y170979D01*
X70903Y170979D01*
X71116Y170817D01*
X71363Y170714D01*
X71628Y170679D01*
X71628Y170679D01*
X77300D01*
X79239Y168740D01*
Y152610D01*
X79141Y152557D01*
X78834Y152306D01*
X78740Y152191D01*
X78232Y152372D01*
Y154432D01*
X78232Y154432D01*
Y154813D01*
X78232D01*
X78232Y154940D01*
Y157861D01*
X75184D01*
Y156262D01*
X73871Y154949D01*
X73152D01*
X73141Y154947D01*
X72644D01*
X72345Y154918D01*
X72058Y154831D01*
X71793Y154689D01*
X71561Y154499D01*
X71371Y154267D01*
X71229Y154002D01*
X71142Y153715D01*
X71113Y153416D01*
X71142Y153117D01*
X71218Y152867D01*
X71142Y152722D01*
X70883Y152400D01*
X69902D01*
X69889Y152404D01*
X69479Y152890D01*
X69481Y152908D01*
X69433Y153273D01*
X69292Y153613D01*
X69068Y153904D01*
X68777Y154128D01*
X68437Y154269D01*
X68072Y154317D01*
X67707Y154269D01*
X67367Y154128D01*
X67076Y153904D01*
X66852Y153613D01*
X66711Y153273D01*
X66663Y152908D01*
X66711Y152543D01*
X66852Y152203D01*
X67076Y151912D01*
X67296Y151743D01*
X67347Y151675D01*
X68072Y150951D01*
Y149352D01*
Y147320D01*
Y146229D01*
X67131Y145288D01*
X67056Y145295D01*
X66757Y145266D01*
X66470Y145179D01*
X66205Y145037D01*
X65973Y144847D01*
X65783Y144615D01*
X65641Y144350D01*
X65554Y144063D01*
X65525Y143764D01*
X65554Y143465D01*
X65641Y143178D01*
X65783Y142913D01*
X65973Y142681D01*
X66205Y142491D01*
X66470Y142349D01*
X66542Y142327D01*
X66704Y141833D01*
X66696Y141763D01*
X66057Y141124D01*
X65982Y141131D01*
X65683Y141102D01*
X65396Y141015D01*
X65131Y140873D01*
X65068Y140822D01*
X64901Y140779D01*
X64467Y141056D01*
Y141282D01*
X64467Y141282D01*
X64432Y141547D01*
X64329Y141794D01*
X64167Y142007D01*
X63253Y142920D01*
X63391Y143178D01*
X63478Y143465D01*
X63507Y143764D01*
X63478Y144063D01*
X63391Y144350D01*
X63249Y144615D01*
X63059Y144847D01*
X62827Y145037D01*
X62562Y145179D01*
X62275Y145266D01*
X61976Y145295D01*
Y147320D01*
Y149352D01*
Y150951D01*
X62320Y151294D01*
X62482Y151507D01*
X62585Y151754D01*
X62620Y152019D01*
Y154423D01*
X65532D01*
X65532Y154423D01*
X65797Y154458D01*
X66044Y154561D01*
X66257Y154723D01*
X67183Y155650D01*
X67564Y155956D01*
Y155956D01*
X67564Y155956D01*
X70612D01*
Y159004D01*
X70612Y159004D01*
X70633Y159503D01*
X71513D01*
X71561Y159445D01*
X71793Y159255D01*
X72058Y159113D01*
X72345Y159026D01*
X72644Y158997D01*
X73660D01*
X73959Y159026D01*
X74246Y159113D01*
X74511Y159255D01*
X74743Y159445D01*
X74933Y159677D01*
X75075Y159942D01*
X75162Y160229D01*
X75191Y160528D01*
X75162Y160827D01*
X75075Y161114D01*
X74933Y161379D01*
X74882Y161442D01*
X74791Y161798D01*
X74882Y162154D01*
X74933Y162217D01*
X75075Y162482D01*
X75162Y162769D01*
X75182Y162972D01*
X75261Y163072D01*
X75361Y163147D01*
X75679Y163296D01*
X75835Y163231D01*
X76200Y163183D01*
X76565Y163231D01*
X76905Y163372D01*
X77196Y163596D01*
X77420Y163887D01*
X77561Y164227D01*
X77609Y164592D01*
X77561Y164957D01*
X77420Y165297D01*
X77196Y165588D01*
X76905Y165812D01*
X76565Y165953D01*
X76200Y166001D01*
X75835Y165953D01*
X75495Y165812D01*
X75463Y165788D01*
X75205Y165811D01*
X74986Y166190D01*
X74977Y166362D01*
X75075Y166546D01*
X75162Y166833D01*
X75191Y167132D01*
X75162Y167431D01*
X75075Y167718D01*
X74933Y167983D01*
X74743Y168215D01*
X74511Y168405D01*
X74246Y168547D01*
X73959Y168634D01*
X73660Y168663D01*
X72644D01*
X72345Y168634D01*
X72058Y168547D01*
X71793Y168405D01*
X71561Y168215D01*
X71513Y168157D01*
X70612D01*
Y169037D01*
X67564D01*
Y167936D01*
X67056Y167525D01*
X66548Y167640D01*
Y167640D01*
X63500D01*
X63205Y167877D01*
X63185Y168416D01*
X64441Y169672D01*
X66548D01*
Y169672D01*
X67056Y169787D01*
X67421Y169835D01*
X67761Y169976D01*
X68052Y170200D01*
X68276Y170491D01*
X68417Y170831D01*
X68465Y171196D01*
X68417Y171561D01*
X68276Y171901D01*
X68052Y172192D01*
X67761Y172416D01*
X67421Y172557D01*
X67056Y172605D01*
X66548Y172720D01*
Y172720D01*
X63500D01*
X63205Y172957D01*
X63185Y173496D01*
X64441Y174752D01*
X66548D01*
Y174752D01*
X67056Y174867D01*
X67564Y174456D01*
D02*
G37*
G36*
X179092Y181732D02*
X179215Y181619D01*
X179189Y181356D01*
X179221Y181032D01*
X179315Y180721D01*
X179469Y180434D01*
X179675Y180183D01*
X179926Y179977D01*
X180213Y179823D01*
X180524Y179729D01*
X180848Y179697D01*
X181172Y179729D01*
X181483Y179823D01*
X181770Y179977D01*
X181889Y180032D01*
X182363Y179827D01*
Y178308D01*
X182363Y178308D01*
X182398Y178043D01*
X182501Y177796D01*
X182663Y177583D01*
X182985Y177262D01*
X182790Y176793D01*
X181807D01*
X181553Y176988D01*
X181213Y177129D01*
X180848Y177177D01*
X180483Y177129D01*
X180143Y176988D01*
X179852Y176764D01*
X179628Y176473D01*
X179487Y176133D01*
X179439Y175768D01*
X179487Y175403D01*
X179628Y175063D01*
X179852Y174772D01*
X180143Y174548D01*
X180483Y174407D01*
X180848Y174359D01*
X181213Y174407D01*
X181553Y174548D01*
X181807Y174743D01*
X183980D01*
X204715Y154008D01*
Y144881D01*
X204660Y144807D01*
X204207Y144561D01*
X204073Y144617D01*
X203708Y144665D01*
X203343Y144617D01*
X203003Y144476D01*
X202712Y144252D01*
X202164D01*
X201873Y144476D01*
X201533Y144617D01*
X201168Y144665D01*
X200803Y144617D01*
X200463Y144476D01*
X200172Y144252D01*
X199624D01*
X199333Y144476D01*
X198993Y144617D01*
X198628Y144665D01*
X198263Y144617D01*
X197923Y144476D01*
X197632Y144252D01*
X197084D01*
X196793Y144476D01*
X196453Y144617D01*
X196088Y144665D01*
X195723Y144617D01*
X195383Y144476D01*
X195092Y144252D01*
X194544D01*
X194253Y144476D01*
X193913Y144617D01*
X193548Y144665D01*
X193183Y144617D01*
X192843Y144476D01*
X192552Y144252D01*
X192004D01*
X191713Y144476D01*
X191373Y144617D01*
X191008Y144665D01*
X190643Y144617D01*
X190303Y144476D01*
X190012Y144252D01*
X189464D01*
X189173Y144476D01*
X188833Y144617D01*
X188468Y144665D01*
X188103Y144617D01*
X187763Y144476D01*
X187472Y144252D01*
X187248Y143961D01*
X187107Y143621D01*
X187059Y143256D01*
X187107Y142891D01*
X187248Y142551D01*
X187203Y142463D01*
X187162Y142421D01*
X186563Y142249D01*
X186252Y142343D01*
X185928Y142375D01*
X185604Y142343D01*
X185293Y142249D01*
X185006Y142095D01*
X184755Y141889D01*
X184561D01*
X184310Y142095D01*
X184023Y142249D01*
X183712Y142343D01*
X183388Y142375D01*
X183064Y142343D01*
X182753Y142249D01*
X182466Y142095D01*
X182215Y141889D01*
X182021D01*
X181770Y142095D01*
X181483Y142249D01*
X181172Y142343D01*
X180848Y142375D01*
X180524Y142343D01*
X180477Y142329D01*
X180119Y142751D01*
X180177Y142891D01*
X180225Y143256D01*
X180177Y143621D01*
X180036Y143961D01*
X179812Y144252D01*
X179521Y144476D01*
X179181Y144617D01*
X179081Y144630D01*
X178768Y144844D01*
X178684Y145160D01*
X178701Y145288D01*
X178653Y145653D01*
X178512Y145993D01*
X178288Y146284D01*
X177997Y146508D01*
X177657Y146649D01*
X177292Y146697D01*
X176793Y147113D01*
Y147377D01*
X176988Y147631D01*
X177129Y147971D01*
X177177Y148336D01*
X177129Y148701D01*
X176988Y149041D01*
X176764Y149332D01*
X176473Y149556D01*
X176133Y149697D01*
X175768Y149745D01*
X175269Y150161D01*
Y150425D01*
X175464Y150679D01*
X175605Y151019D01*
X175653Y151384D01*
X175605Y151749D01*
X175464Y152089D01*
X175240Y152380D01*
X174949Y152604D01*
X174609Y152745D01*
X174244Y152793D01*
X173745Y153209D01*
Y176868D01*
X178748Y181871D01*
X179092Y181732D01*
D02*
G37*
G36*
X165599Y161120D02*
Y133012D01*
X154257Y121671D01*
X153766Y121897D01*
X153774Y122000D01*
X153727Y122590D01*
X153589Y123166D01*
X153362Y123713D01*
X153053Y124218D01*
X152668Y124668D01*
X152218Y125053D01*
X151713Y125362D01*
X151166Y125589D01*
X150590Y125727D01*
X150000Y125774D01*
X149410Y125727D01*
X148834Y125589D01*
X148287Y125362D01*
X147782Y125053D01*
X147332Y124668D01*
X146947Y124218D01*
X146638Y123713D01*
X146411Y123166D01*
X146273Y122590D01*
X146226Y122000D01*
X146273Y121410D01*
X146411Y120834D01*
X146638Y120287D01*
X146947Y119782D01*
X147332Y119332D01*
X147782Y118947D01*
X148287Y118638D01*
X148834Y118411D01*
X149410Y118273D01*
X150000Y118226D01*
X150103Y118234D01*
X150329Y117743D01*
X138975Y106389D01*
X138813Y106176D01*
X138710Y105929D01*
X138675Y105664D01*
X138675Y105664D01*
Y93896D01*
X136943Y92165D01*
X136781Y91952D01*
X136678Y91705D01*
X136643Y91440D01*
X136643Y91440D01*
Y83228D01*
X124535Y71120D01*
X123154D01*
X123106Y71612D01*
X122962Y72086D01*
X122729Y72522D01*
X122415Y72905D01*
X122032Y73219D01*
X121596Y73452D01*
X121122Y73596D01*
X120630Y73644D01*
X118130D01*
X117638Y73596D01*
X117164Y73452D01*
X116728Y73219D01*
X116345Y72905D01*
X116031Y72522D01*
X115396Y72411D01*
X115325Y72459D01*
Y76792D01*
X118073Y79539D01*
X118073Y79539D01*
X118235Y79752D01*
X118338Y79999D01*
X118797Y80362D01*
X118872Y80379D01*
X119237Y80427D01*
X119577Y80568D01*
X119868Y80792D01*
X120092Y81083D01*
X120233Y81423D01*
X120281Y81788D01*
X120233Y82153D01*
X120092Y82493D01*
X119897Y82747D01*
Y83380D01*
X120331Y83657D01*
X120498Y83614D01*
X120561Y83563D01*
X120826Y83421D01*
X121113Y83334D01*
X121412Y83305D01*
X121711Y83334D01*
X121912Y83395D01*
X122428Y82879D01*
Y81788D01*
X125476D01*
Y84709D01*
X125476Y84836D01*
X125476D01*
Y85217D01*
X125476D01*
Y86816D01*
X126709Y88048D01*
X126871Y88261D01*
X126974Y88508D01*
X127009Y88773D01*
X127009Y88773D01*
Y92513D01*
X127204Y92767D01*
X127345Y93107D01*
X127393Y93472D01*
X127345Y93837D01*
X127204Y94177D01*
X126980Y94468D01*
Y95016D01*
X127204Y95307D01*
X127345Y95647D01*
X127393Y96012D01*
X127345Y96377D01*
X127204Y96717D01*
X126980Y97008D01*
Y97556D01*
X127204Y97847D01*
X127345Y98187D01*
X127393Y98552D01*
X127345Y98917D01*
X127204Y99257D01*
X127009Y99511D01*
Y101981D01*
X127009Y101981D01*
X126974Y102246D01*
X126871Y102493D01*
X126936Y103073D01*
X126980Y103144D01*
X127204Y103435D01*
X127345Y103775D01*
X127393Y104140D01*
X127345Y104505D01*
X127204Y104845D01*
X127009Y105099D01*
Y111125D01*
X127009Y111125D01*
X126974Y111390D01*
X126871Y111637D01*
X126709Y111850D01*
X125476Y113082D01*
Y114681D01*
X122945D01*
X122734Y115189D01*
X123360Y115815D01*
X128581D01*
X128835Y115620D01*
X129175Y115479D01*
X129540Y115431D01*
X129905Y115479D01*
X130245Y115620D01*
X130536Y115844D01*
X130760Y116135D01*
X130901Y116475D01*
X130949Y116840D01*
X130901Y117205D01*
X130760Y117545D01*
X130536Y117836D01*
X130245Y118060D01*
X129905Y118201D01*
X129540Y118249D01*
X129175Y118201D01*
X128835Y118060D01*
X128581Y117865D01*
X124550D01*
X124355Y118334D01*
X133127Y127106D01*
X133597Y126912D01*
Y126238D01*
X133626Y125939D01*
X133713Y125652D01*
X133855Y125387D01*
X134045Y125155D01*
X134277Y124965D01*
X134542Y124823D01*
X134829Y124736D01*
X135128Y124707D01*
X135427Y124736D01*
X135714Y124823D01*
X135979Y124965D01*
X136211Y125155D01*
X136401Y125387D01*
X136543Y125652D01*
X136630Y125939D01*
X136659Y126238D01*
Y127762D01*
X136630Y128061D01*
X136543Y128348D01*
X136401Y128613D01*
X136211Y128845D01*
X135979Y129035D01*
X135846Y129106D01*
X135721Y129502D01*
X135725Y129704D01*
X138393Y132371D01*
X138393Y132371D01*
X138555Y132584D01*
X138658Y132831D01*
X138693Y133096D01*
Y136881D01*
X138841Y137003D01*
X139047Y137254D01*
X139201Y137541D01*
X139295Y137852D01*
X139327Y138176D01*
X139295Y138500D01*
X139278Y138557D01*
X139599Y139065D01*
X141723D01*
X141859Y139065D01*
X142231Y138737D01*
Y125392D01*
X135806Y118968D01*
X135714Y119017D01*
X135427Y119104D01*
X135128Y119133D01*
X134829Y119104D01*
X134542Y119017D01*
X134277Y118875D01*
X134045Y118685D01*
X133855Y118453D01*
X133713Y118188D01*
X133626Y117901D01*
X133597Y117602D01*
Y116078D01*
X133626Y115779D01*
X133713Y115492D01*
X133855Y115227D01*
X134045Y114995D01*
X134277Y114805D01*
X134542Y114663D01*
X134829Y114576D01*
X135128Y114547D01*
X135427Y114576D01*
X135714Y114663D01*
X135979Y114805D01*
X136211Y114995D01*
X136401Y115227D01*
X136543Y115492D01*
X136630Y115779D01*
X136659Y116078D01*
Y116922D01*
X143981Y124243D01*
X143981Y124243D01*
X144143Y124456D01*
X144246Y124703D01*
X144281Y124968D01*
Y154432D01*
X144246Y154697D01*
X144143Y154944D01*
X143981Y155157D01*
X143981Y155157D01*
X143643Y155494D01*
X143601Y155813D01*
X143460Y156153D01*
X143236Y156444D01*
X142945Y156668D01*
X142605Y156809D01*
X142240Y156857D01*
X141875Y156809D01*
X141535Y156668D01*
X141244Y156444D01*
X141020Y156153D01*
X140879Y155813D01*
X140831Y155448D01*
X140879Y155083D01*
X141020Y154743D01*
X141244Y154452D01*
X141535Y154228D01*
X141875Y154087D01*
X142194Y154045D01*
X142231Y154008D01*
Y142695D01*
X141859Y142367D01*
X141723Y142367D01*
X138557D01*
X138557Y142367D01*
X138049Y142326D01*
X137992Y142343D01*
X137668Y142375D01*
X137344Y142343D01*
X137033Y142249D01*
X136746Y142095D01*
X136661Y142025D01*
X136153Y142245D01*
Y146869D01*
X136348Y147123D01*
X136489Y147463D01*
X136537Y147828D01*
X136489Y148193D01*
X136348Y148533D01*
X136124Y148824D01*
X135833Y149048D01*
X135493Y149189D01*
X135128Y149237D01*
X134763Y149189D01*
X134423Y149048D01*
X134132Y148824D01*
X133908Y148533D01*
X133767Y148193D01*
X133719Y147828D01*
X133436Y147626D01*
X133244Y147544D01*
X132953Y147665D01*
X132588Y147713D01*
X132223Y147665D01*
X131883Y147524D01*
X131592Y147300D01*
X131368Y147009D01*
X131227Y146669D01*
X131179Y146304D01*
X130896Y146102D01*
X130704Y146020D01*
X130413Y146141D01*
X130048Y146189D01*
X129683Y146141D01*
X129343Y146000D01*
X129052Y145776D01*
X128828Y145485D01*
X128687Y145145D01*
X128639Y144780D01*
X128356Y144578D01*
X128164Y144496D01*
X127873Y144617D01*
X127508Y144665D01*
X127143Y144617D01*
X126803Y144476D01*
X126512Y144252D01*
X126288Y143961D01*
X126147Y143621D01*
X126099Y143256D01*
X126147Y142891D01*
X126288Y142551D01*
X126243Y142463D01*
X126202Y142421D01*
X125603Y142249D01*
X125292Y142343D01*
X124968Y142375D01*
X124644Y142343D01*
X124333Y142249D01*
X124046Y142095D01*
X123795Y141889D01*
X123601D01*
X123350Y142095D01*
X123063Y142249D01*
X122752Y142343D01*
X122428Y142375D01*
X122104Y142343D01*
X121793Y142249D01*
X121506Y142095D01*
X121255Y141889D01*
X121061D01*
X120810Y142095D01*
X120523Y142249D01*
X120212Y142343D01*
X119888Y142375D01*
X119564Y142343D01*
X119253Y142249D01*
X118966Y142095D01*
X118715Y141889D01*
X118521D01*
X118270Y142095D01*
X117983Y142249D01*
X117672Y142343D01*
X117348Y142375D01*
X117024Y142343D01*
X116713Y142249D01*
X116426Y142095D01*
X116175Y141889D01*
X115969Y141638D01*
X115815Y141351D01*
X115721Y141040D01*
X115689Y140716D01*
X115721Y140392D01*
X115815Y140081D01*
X115969Y139794D01*
X116130Y139446D01*
X115969Y139098D01*
X115815Y138811D01*
X115721Y138500D01*
X115689Y138176D01*
X115721Y137852D01*
X115815Y137541D01*
X115969Y137254D01*
X116175Y137003D01*
X116323Y136881D01*
Y136595D01*
X116128Y136341D01*
X115987Y136001D01*
X115939Y135636D01*
X115987Y135271D01*
X116128Y134931D01*
X116352Y134640D01*
X116643Y134416D01*
X116983Y134275D01*
X117348Y134227D01*
X117713Y134275D01*
X118004Y134396D01*
X118196Y134314D01*
X118479Y134112D01*
X118527Y133747D01*
X118668Y133407D01*
X118892Y133116D01*
X119183Y132892D01*
X119523Y132751D01*
X119888Y132703D01*
X120253Y132751D01*
X120544Y132872D01*
X120736Y132790D01*
X121019Y132588D01*
X121067Y132223D01*
X121208Y131883D01*
X121432Y131592D01*
X121723Y131368D01*
X122063Y131227D01*
X122428Y131179D01*
X122793Y131227D01*
X123133Y131368D01*
X123424Y131592D01*
X123435Y131606D01*
X123943Y131433D01*
Y125392D01*
X113575Y115025D01*
X113413Y114812D01*
X113310Y114565D01*
X113280Y114333D01*
X113263Y114286D01*
X113189Y114200D01*
X112767Y113923D01*
X112610Y113938D01*
X111539D01*
X110580Y114898D01*
X110367Y115060D01*
X110120Y115163D01*
X109855Y115198D01*
X109728Y115666D01*
Y115697D01*
X104648D01*
Y114536D01*
X104569Y114491D01*
X103965Y114625D01*
X103933Y114686D01*
X103619Y115069D01*
X103236Y115383D01*
X102800Y115616D01*
X102326Y115760D01*
X101834Y115808D01*
X99334D01*
X98842Y115760D01*
X98368Y115616D01*
X97932Y115383D01*
X97549Y115069D01*
X97235Y114686D01*
X97002Y114250D01*
X96858Y113776D01*
X96810Y113284D01*
X96858Y112792D01*
X97002Y112318D01*
X97235Y111882D01*
X97549Y111499D01*
X97932Y111185D01*
X97956Y111172D01*
Y110596D01*
X97932Y110583D01*
X97549Y110269D01*
X97235Y109886D01*
X97002Y109450D01*
X96858Y108976D01*
X96810Y108484D01*
X96842Y108160D01*
X96357Y108061D01*
X96216Y108401D01*
X95992Y108692D01*
X95701Y108916D01*
X95361Y109057D01*
X94996Y109105D01*
X94631Y109057D01*
X94291Y108916D01*
X94000Y108692D01*
X93776Y108401D01*
X93635Y108061D01*
X93593Y107742D01*
X91918Y106067D01*
X91449Y106262D01*
Y108712D01*
X91449Y108712D01*
X91414Y108977D01*
X91311Y109224D01*
X91149Y109437D01*
X91149Y109437D01*
X85053Y115533D01*
X84840Y115695D01*
X84593Y115798D01*
X84328Y115833D01*
X84063Y115798D01*
X83816Y115695D01*
X83664Y115579D01*
X82278D01*
X82013Y115544D01*
X81766Y115441D01*
X81613Y115325D01*
X76143D01*
X75889Y115520D01*
X75549Y115661D01*
X75184Y115709D01*
X74819Y115661D01*
X74479Y115520D01*
X74201Y115931D01*
X79278Y121009D01*
X79747Y120814D01*
Y119323D01*
X79552Y119069D01*
X79411Y118729D01*
X79363Y118364D01*
X79411Y117999D01*
X79552Y117659D01*
X79776Y117368D01*
X80067Y117144D01*
X80407Y117003D01*
X80772Y116955D01*
X81137Y117003D01*
X81477Y117144D01*
X81768Y117368D01*
X81992Y117659D01*
X82133Y117999D01*
X82181Y118364D01*
X82133Y118729D01*
X81992Y119069D01*
X81797Y119323D01*
Y122004D01*
X87796Y128003D01*
X88412Y128036D01*
X88703Y127812D01*
X89043Y127671D01*
X89408Y127623D01*
X89773Y127671D01*
X90113Y127812D01*
X90367Y128007D01*
X93980D01*
X93980Y128007D01*
X94245Y128042D01*
X94492Y128145D01*
X94705Y128307D01*
X102646Y136249D01*
X103115Y136054D01*
Y134921D01*
X102616Y134505D01*
X102251Y134457D01*
X101911Y134316D01*
X101620Y134092D01*
X101396Y133801D01*
X101255Y133461D01*
X101207Y133096D01*
X101255Y132731D01*
X101396Y132391D01*
X101591Y132137D01*
Y128694D01*
X94696Y121799D01*
X94377Y121757D01*
X94037Y121616D01*
X93746Y121392D01*
X93522Y121101D01*
X93381Y120761D01*
X93333Y120396D01*
X93381Y120031D01*
X93522Y119691D01*
X93746Y119400D01*
X94037Y119176D01*
X94377Y119035D01*
X94742Y118987D01*
X95107Y119035D01*
X95447Y119176D01*
X95738Y119400D01*
X95962Y119691D01*
X96103Y120031D01*
X96145Y120350D01*
X102646Y126851D01*
X103115Y126656D01*
Y122371D01*
X102920Y122117D01*
X102779Y121777D01*
X102731Y121412D01*
X102779Y121047D01*
X102920Y120707D01*
X103144Y120416D01*
X103435Y120192D01*
X103775Y120051D01*
X104140Y120003D01*
X104505Y120051D01*
X104845Y120192D01*
X105136Y120416D01*
X105360Y120707D01*
X105501Y121047D01*
X105549Y121412D01*
X105501Y121777D01*
X105360Y122117D01*
X105165Y122371D01*
Y145880D01*
X108742Y149457D01*
X109211Y149262D01*
Y129991D01*
X109016Y129737D01*
X108875Y129397D01*
X108827Y129032D01*
X108875Y128667D01*
X109016Y128327D01*
X109240Y128036D01*
X109531Y127812D01*
X109871Y127671D01*
X110236Y127623D01*
X110601Y127671D01*
X110941Y127812D01*
X111232Y128036D01*
X111456Y128327D01*
X111597Y128667D01*
X111645Y129032D01*
X111597Y129397D01*
X111456Y129737D01*
X111261Y129991D01*
Y134022D01*
X111730Y134217D01*
X116961Y128986D01*
X117003Y128667D01*
X117144Y128327D01*
X117368Y128036D01*
X117659Y127812D01*
X117999Y127671D01*
X118364Y127623D01*
X118729Y127671D01*
X119069Y127812D01*
X119360Y128036D01*
X119584Y128327D01*
X119725Y128667D01*
X119773Y129032D01*
X119725Y129397D01*
X119584Y129737D01*
X119360Y130028D01*
X119069Y130252D01*
X118729Y130393D01*
X118410Y130435D01*
X112150Y136695D01*
Y149309D01*
X112822Y149981D01*
X113141Y150023D01*
X113481Y150164D01*
X113772Y150388D01*
X113996Y150679D01*
X114137Y151019D01*
X114185Y151384D01*
X114137Y151749D01*
X113996Y152089D01*
X113772Y152380D01*
X113805Y152996D01*
X133313Y172503D01*
X133313Y172503D01*
X133475Y172716D01*
X133578Y172963D01*
X133613Y173228D01*
Y174613D01*
X134121Y174786D01*
X134132Y174772D01*
X134423Y174548D01*
X134763Y174407D01*
X135128Y174359D01*
X135493Y174407D01*
X135833Y174548D01*
X136124Y174772D01*
X136348Y175063D01*
X136489Y175403D01*
X136537Y175768D01*
X136489Y176133D01*
X136348Y176473D01*
X136153Y176727D01*
Y180061D01*
X136301Y180183D01*
X136507Y180434D01*
X136661Y180721D01*
X136755Y181032D01*
X136787Y181356D01*
X136755Y181680D01*
X136662Y181985D01*
X136671Y182001D01*
X137023Y182353D01*
X137039Y182362D01*
X137344Y182269D01*
X137668Y182237D01*
X137992Y182269D01*
X138049Y182286D01*
X138081Y182284D01*
X138518Y181991D01*
X138557Y181923D01*
Y179705D01*
X141723D01*
Y178251D01*
X141528Y177997D01*
X141387Y177657D01*
X141339Y177292D01*
X141387Y176927D01*
X141446Y176784D01*
X141210Y176341D01*
X141126Y176276D01*
X140716D01*
Y173228D01*
Y170688D01*
X143764D01*
Y172653D01*
X143773Y172720D01*
X143773Y172720D01*
Y176333D01*
X143968Y176587D01*
X144109Y176927D01*
X144157Y177292D01*
X144109Y177657D01*
X143968Y177997D01*
X143773Y178251D01*
Y182228D01*
X144281Y182438D01*
X165599Y161120D01*
D02*
G37*
G36*
X200844Y182269D02*
X201168Y182237D01*
X201492Y182269D01*
X201549Y182286D01*
X201581Y182284D01*
X202018Y181991D01*
X202057Y181923D01*
Y179705D01*
X205223D01*
Y178251D01*
X205028Y177997D01*
X204887Y177657D01*
X204839Y177292D01*
X204428Y176784D01*
X203708D01*
Y173736D01*
Y171196D01*
X205223D01*
Y167730D01*
X204754Y167535D01*
X199653Y172636D01*
Y180061D01*
X199801Y180183D01*
X200007Y180434D01*
X200161Y180721D01*
X200255Y181032D01*
X200287Y181356D01*
X200255Y181680D01*
X200162Y181985D01*
X200171Y182001D01*
X200523Y182353D01*
X200539Y182362D01*
X200844Y182269D01*
D02*
G37*
G36*
X75647Y182492D02*
X83303Y174836D01*
Y170832D01*
X82795Y170622D01*
X74764Y178653D01*
X74743Y179257D01*
X74933Y179489D01*
X75075Y179754D01*
X75162Y180041D01*
X75191Y180340D01*
X75162Y180639D01*
X75075Y180926D01*
X74933Y181191D01*
X74882Y181254D01*
X74791Y181610D01*
X74882Y181966D01*
X74933Y182029D01*
X75075Y182294D01*
X75087Y182334D01*
X75634Y182495D01*
X75647Y182492D01*
D02*
G37*
G36*
X178816Y116759D02*
Y115951D01*
X178816Y115824D01*
X178816D01*
Y115443D01*
X178816D01*
Y113844D01*
X178091Y113120D01*
X177929Y112907D01*
X177826Y112660D01*
X177791Y112395D01*
X177791Y112395D01*
Y106596D01*
X177075Y105881D01*
X176913Y105668D01*
X176810Y105421D01*
X176775Y105156D01*
X176775Y105156D01*
Y101516D01*
X176738Y101479D01*
X176419Y101437D01*
X176079Y101296D01*
X175788Y101072D01*
X175777Y101058D01*
X175269Y101231D01*
Y113876D01*
X178347Y116953D01*
X178816Y116759D01*
D02*
G37*
G36*
X165091Y116750D02*
Y102898D01*
X164903Y102820D01*
X164612Y102596D01*
X164601Y102582D01*
X164093Y102755D01*
Y116416D01*
X164622Y116945D01*
X165091Y116750D01*
D02*
G37*
G36*
X97002Y107518D02*
X97235Y107082D01*
X97549Y106699D01*
X97932Y106385D01*
X97956Y106372D01*
Y105796D01*
X97932Y105783D01*
X97549Y105469D01*
X97235Y105086D01*
X97002Y104650D01*
X96858Y104176D01*
X96810Y103684D01*
X96858Y103192D01*
X97002Y102718D01*
X97235Y102282D01*
X97549Y101899D01*
X97932Y101585D01*
X98368Y101352D01*
X98842Y101208D01*
X99334Y101160D01*
X101834D01*
X102326Y101208D01*
X102800Y101352D01*
X103115Y101521D01*
X103474Y101377D01*
X103623Y101246D01*
Y100527D01*
X103428Y100273D01*
X103287Y99933D01*
X103255Y99693D01*
X102929Y99445D01*
X102752Y99375D01*
X102326Y99504D01*
X101834Y99552D01*
X99334D01*
X98842Y99504D01*
X98368Y99360D01*
X97932Y99127D01*
X97932Y99127D01*
X97800Y99111D01*
X97271Y99242D01*
X97245Y99277D01*
X96399Y100122D01*
X96357Y100441D01*
X96216Y100781D01*
X95992Y101072D01*
Y101620D01*
X96216Y101911D01*
X96357Y102251D01*
X96405Y102616D01*
X96357Y102981D01*
X96216Y103321D01*
X95992Y103612D01*
Y104160D01*
X96216Y104451D01*
X96357Y104791D01*
X96405Y105156D01*
X96357Y105521D01*
X96216Y105861D01*
X95992Y106152D01*
Y106700D01*
X96216Y106991D01*
X96357Y107331D01*
X96405Y107696D01*
X96396Y107766D01*
X96894Y107874D01*
X97002Y107518D01*
D02*
G37*
G36*
X109240Y112268D02*
X109272Y111942D01*
X109367Y111629D01*
X109521Y111340D01*
X109686Y110998D01*
X109521Y110656D01*
X109367Y110367D01*
X109272Y110054D01*
X109240Y109728D01*
X109272Y109402D01*
X109367Y109089D01*
X109521Y108800D01*
X109686Y108458D01*
X109521Y108116D01*
X109367Y107827D01*
X109272Y107514D01*
X109240Y107188D01*
X109272Y106862D01*
X109367Y106549D01*
X109521Y106260D01*
X109729Y106007D01*
X109982Y105799D01*
X110271Y105645D01*
X110584Y105550D01*
X110735Y105535D01*
Y104083D01*
X110540Y103829D01*
X110399Y103489D01*
X110351Y103124D01*
X110399Y102759D01*
X110540Y102419D01*
X110764Y102128D01*
X111055Y101904D01*
X111395Y101763D01*
X111760Y101715D01*
X112125Y101763D01*
X112465Y101904D01*
X112756Y102128D01*
X112980Y102419D01*
X113121Y102759D01*
X113169Y103124D01*
X113121Y103489D01*
X112980Y103829D01*
X112785Y104083D01*
Y105535D01*
X112936Y105550D01*
X113249Y105645D01*
X113538Y105799D01*
X113783Y106001D01*
X113816Y105997D01*
X114291Y105816D01*
Y97384D01*
X113816Y97203D01*
X113783Y97199D01*
X113538Y97401D01*
X113249Y97555D01*
X112936Y97650D01*
X112610Y97682D01*
X111539D01*
X110580Y98642D01*
X110367Y98804D01*
X110120Y98907D01*
X109855Y98942D01*
X109728Y99410D01*
Y99441D01*
X106168D01*
X106057Y99568D01*
X106009Y99933D01*
X105868Y100273D01*
X105673Y100527D01*
Y104420D01*
X105673Y104420D01*
X105638Y104685D01*
X105535Y104932D01*
X105373Y105145D01*
X105373Y105145D01*
X104348Y106169D01*
X104683Y106553D01*
X107696D01*
Y109220D01*
Y112268D01*
X108003Y112649D01*
X108769D01*
X109240Y112268D01*
D02*
G37*
G36*
X162043Y115226D02*
Y95447D01*
X161848Y95193D01*
X161707Y94853D01*
X161659Y94488D01*
X161707Y94123D01*
X161848Y93783D01*
X162072Y93492D01*
X162363Y93268D01*
X162703Y93127D01*
X163068Y93079D01*
X163433Y93127D01*
X163773Y93268D01*
X163825Y93308D01*
X164335Y93278D01*
X164462Y93179D01*
X164612Y92984D01*
X164903Y92760D01*
X165243Y92619D01*
X165608Y92571D01*
X165973Y92619D01*
X166313Y92760D01*
X166604Y92984D01*
X166828Y93275D01*
X166969Y93615D01*
X167011Y93934D01*
X168686Y95609D01*
X169155Y95414D01*
Y91864D01*
X164038Y86747D01*
X163719Y86705D01*
X163379Y86564D01*
X163088Y86340D01*
X162864Y86049D01*
X162723Y85709D01*
X162675Y85344D01*
X162723Y84979D01*
X162864Y84639D01*
X163088Y84348D01*
X163379Y84124D01*
X163719Y83983D01*
X164084Y83935D01*
X164449Y83983D01*
X164789Y84124D01*
X165080Y84348D01*
X165628D01*
X165919Y84124D01*
X166259Y83983D01*
X166624Y83935D01*
X166989Y83983D01*
X167329Y84124D01*
X167620Y84348D01*
X168168D01*
X168459Y84124D01*
X168799Y83983D01*
X169164Y83935D01*
X169529Y83983D01*
X169869Y84124D01*
X170160Y84348D01*
X170384Y84639D01*
X170413Y84709D01*
X170963D01*
X170992Y84639D01*
X171216Y84348D01*
X171507Y84124D01*
X171847Y83983D01*
X172212Y83935D01*
X172577Y83983D01*
X172711Y84039D01*
X173164Y83793D01*
X173219Y83719D01*
Y71544D01*
X172212Y70537D01*
X171196Y71553D01*
Y73152D01*
X168148D01*
Y73071D01*
X167640Y72889D01*
X167627Y72905D01*
X167244Y73219D01*
X166808Y73452D01*
X166334Y73596D01*
X165842Y73644D01*
X163342D01*
X162850Y73596D01*
X162376Y73452D01*
X161940Y73219D01*
X161557Y72905D01*
X161243Y72522D01*
X161010Y72086D01*
X160866Y71612D01*
X160818Y71120D01*
X160866Y70628D01*
X161010Y70154D01*
X161239Y69725D01*
X153407Y61893D01*
X153318Y61876D01*
X152908Y62170D01*
X152908Y62428D01*
Y64643D01*
Y67691D01*
X153215Y68072D01*
X154940D01*
Y71120D01*
X151393D01*
Y81337D01*
X151588Y81591D01*
X151729Y81931D01*
X151777Y82296D01*
X151729Y82661D01*
X151588Y83001D01*
X151387Y83263D01*
X151365Y83298D01*
X151371Y83458D01*
X151480Y83844D01*
X151822Y84027D01*
X152205Y84341D01*
X152519Y84724D01*
X152532Y84748D01*
X153108D01*
X153121Y84724D01*
X153435Y84341D01*
X153818Y84027D01*
X154254Y83794D01*
X154728Y83650D01*
X155220Y83602D01*
X155712Y83650D01*
X156186Y83794D01*
X156622Y84027D01*
X157005Y84341D01*
X157319Y84724D01*
X157552Y85160D01*
X157696Y85634D01*
X157744Y86126D01*
Y88626D01*
X157696Y89118D01*
X157552Y89592D01*
X157319Y90028D01*
X157005Y90411D01*
X156989Y90424D01*
X157171Y90932D01*
X158877D01*
Y93980D01*
X158877D01*
X158888Y94483D01*
X158889Y94488D01*
X158841Y94853D01*
X158700Y95193D01*
X158476Y95484D01*
X158185Y95708D01*
X157845Y95849D01*
X157480Y95897D01*
X157115Y95849D01*
X156775Y95708D01*
X156484Y95484D01*
X156260Y95193D01*
X156119Y94853D01*
X156071Y94488D01*
X155829Y93980D01*
X155448D01*
Y93980D01*
X152400D01*
Y90932D01*
X152899D01*
Y90366D01*
X152391Y90184D01*
X152205Y90411D01*
X151822Y90725D01*
X151445Y90927D01*
Y98557D01*
X151822Y98759D01*
X152205Y99073D01*
X152519Y99456D01*
X152532Y99480D01*
X153108D01*
X153121Y99456D01*
X153435Y99073D01*
X153818Y98759D01*
X154254Y98526D01*
X154728Y98382D01*
X155220Y98334D01*
X155712Y98382D01*
X156186Y98526D01*
X156622Y98759D01*
X157005Y99073D01*
X157319Y99456D01*
X157552Y99892D01*
X157696Y100366D01*
X157744Y100858D01*
Y103358D01*
X157696Y103850D01*
X157552Y104324D01*
X157319Y104760D01*
X157005Y105143D01*
X156989Y105156D01*
X157171Y105664D01*
X158877D01*
Y108712D01*
X158378D01*
Y112225D01*
X161574Y115421D01*
X162043Y115226D01*
D02*
G37*
G36*
X120498Y110030D02*
X120561Y109979D01*
X120826Y109837D01*
X121113Y109750D01*
X121412Y109721D01*
X121711Y109750D01*
X121912Y109811D01*
X122428Y109295D01*
Y108204D01*
X124959D01*
Y105537D01*
X122428D01*
Y104885D01*
X122166Y104674D01*
X121920Y104562D01*
X121711Y104626D01*
X121412Y104655D01*
X121113Y104626D01*
X120826Y104539D01*
X120561Y104397D01*
X120498Y104346D01*
X120331Y104303D01*
X119897Y104580D01*
Y105721D01*
X120092Y105975D01*
X120233Y106315D01*
X120281Y106680D01*
X120233Y107045D01*
X120092Y107385D01*
X119897Y107639D01*
Y109796D01*
X120331Y110073D01*
X120498Y110030D01*
D02*
G37*
G36*
X216907Y143340D02*
Y134921D01*
X216408Y134505D01*
X216043Y134457D01*
X215703Y134316D01*
X215412Y134092D01*
X215188Y133801D01*
X215047Y133461D01*
X215005Y133142D01*
X213369Y131507D01*
X213207Y131294D01*
X213104Y131047D01*
X213069Y130782D01*
X213069Y130782D01*
Y128662D01*
X212842Y128476D01*
X212622Y128208D01*
X212066D01*
X211846Y128476D01*
X211578Y128696D01*
X211272Y128860D01*
X210939Y128961D01*
X210594Y128995D01*
X210249Y128961D01*
X209916Y128860D01*
X209610Y128696D01*
X209342Y128476D01*
X209122Y128208D01*
X208958Y127902D01*
X208857Y127569D01*
X208823Y127224D01*
X208857Y126879D01*
X208958Y126546D01*
X209122Y126240D01*
X209342Y125972D01*
X209610Y125752D01*
X209916Y125588D01*
X210204Y125501D01*
X210283Y125356D01*
X210384Y124964D01*
X210095Y124675D01*
X209933Y124462D01*
X209830Y124215D01*
X209795Y123950D01*
X209795Y123950D01*
Y121328D01*
X202475Y114009D01*
X202313Y113796D01*
X201754Y113656D01*
X201733Y113661D01*
X195715Y119678D01*
X195946Y120166D01*
X196072Y120153D01*
X196417Y120187D01*
X196750Y120288D01*
X197056Y120452D01*
X197324Y120672D01*
X197544Y120940D01*
X197708Y121246D01*
X197809Y121579D01*
X197843Y121924D01*
X197809Y122269D01*
X197708Y122602D01*
X197544Y122908D01*
X197528Y122927D01*
X206465Y131863D01*
X206465Y131863D01*
X206627Y132076D01*
X206730Y132323D01*
X206765Y132588D01*
X206765Y132588D01*
Y152818D01*
X207234Y153013D01*
X216907Y143340D01*
D02*
G37*
G36*
X79141Y149195D02*
X79490Y149008D01*
X79870Y148893D01*
X80264Y148854D01*
X80658Y148893D01*
X80765Y148926D01*
X92447Y137244D01*
Y133547D01*
X92252Y133293D01*
X92111Y132953D01*
X92063Y132588D01*
X92111Y132223D01*
X92167Y132089D01*
X91921Y131636D01*
X91847Y131581D01*
X90514D01*
X90319Y132050D01*
X91149Y132879D01*
X91149Y132879D01*
X91311Y133092D01*
X91414Y133339D01*
X91449Y133604D01*
X91449Y133604D01*
Y135128D01*
X91449Y135128D01*
X91414Y135393D01*
X91311Y135640D01*
X91149Y135853D01*
X91149Y135853D01*
X90641Y136361D01*
X90428Y136523D01*
X90181Y136626D01*
X89916Y136661D01*
X89916Y136661D01*
X88816D01*
X76887Y148590D01*
X76897Y148897D01*
X76986Y149210D01*
X77159Y149343D01*
X78960D01*
X79141Y149195D01*
D02*
G37*
G36*
X235195Y182964D02*
Y127090D01*
X234726Y126895D01*
X226581Y135040D01*
X226548Y135656D01*
X226772Y135947D01*
X226913Y136287D01*
X226961Y136652D01*
X226913Y137017D01*
X226772Y137357D01*
X226548Y137648D01*
X226257Y137872D01*
X226069Y137950D01*
Y147320D01*
X226034Y147585D01*
X225931Y147832D01*
X225769Y148045D01*
X225769Y148045D01*
X207273Y166540D01*
Y176333D01*
X207468Y176587D01*
X207609Y176927D01*
X207657Y177292D01*
X207609Y177657D01*
X207468Y177997D01*
X207273Y178251D01*
Y182372D01*
X207238Y182637D01*
X207135Y182884D01*
X206973Y183097D01*
X205449Y184621D01*
X205359Y184689D01*
Y185547D01*
X205687Y185919D01*
X232240D01*
X235195Y182964D01*
D02*
G37*
G36*
X184171Y105466D02*
X184395Y105323D01*
Y100008D01*
X183961Y99731D01*
X183794Y99774D01*
X183731Y99825D01*
X183466Y99967D01*
X183179Y100054D01*
X182880Y100083D01*
X182581Y100054D01*
X182380Y99993D01*
X181864Y100509D01*
Y101600D01*
X179841D01*
Y103843D01*
X180265Y104267D01*
X181864D01*
Y104919D01*
X182126Y105130D01*
X182372Y105242D01*
X182581Y105178D01*
X182880Y105149D01*
X183179Y105178D01*
X183466Y105265D01*
X183731Y105407D01*
X183887Y105535D01*
X184171Y105466D01*
D02*
G37*
G36*
X184395Y114368D02*
Y109152D01*
X183961Y108875D01*
X183794Y108918D01*
X183731Y108969D01*
X183466Y109111D01*
X183179Y109198D01*
X182880Y109227D01*
X182581Y109198D01*
X182380Y109137D01*
X181864Y109653D01*
Y110744D01*
X179841D01*
Y111971D01*
X180265Y112395D01*
X181864D01*
Y114063D01*
X182126Y114274D01*
X182372Y114386D01*
X182581Y114322D01*
X182880Y114293D01*
X183179Y114322D01*
X183466Y114409D01*
X183731Y114551D01*
X183794Y114602D01*
X183961Y114645D01*
X184395Y114368D01*
D02*
G37*
D11*
X123952Y113157D02*
D03*
Y109728D02*
D03*
Y104013D02*
D03*
Y100584D02*
D03*
X108204Y81661D02*
D03*
Y78232D02*
D03*
Y97917D02*
D03*
Y94488D02*
D03*
Y114173D02*
D03*
Y110744D02*
D03*
X169672Y68199D02*
D03*
Y71628D02*
D03*
X151384Y66167D02*
D03*
Y69596D02*
D03*
X137668Y66167D02*
D03*
Y69596D02*
D03*
X124460Y66167D02*
D03*
Y69596D02*
D03*
X106172Y65913D02*
D03*
Y62484D02*
D03*
Y75565D02*
D03*
Y72136D02*
D03*
X92456Y92837D02*
D03*
Y89408D02*
D03*
X123952Y86741D02*
D03*
Y83312D02*
D03*
X106172Y81661D02*
D03*
Y78232D02*
D03*
X92456Y83693D02*
D03*
Y80264D02*
D03*
X123952Y95377D02*
D03*
Y91948D02*
D03*
X92456Y75057D02*
D03*
Y71628D02*
D03*
X106172Y97917D02*
D03*
Y94488D02*
D03*
Y91821D02*
D03*
Y88392D02*
D03*
X92456Y66421D02*
D03*
Y62992D02*
D03*
X106172Y114173D02*
D03*
Y110744D02*
D03*
Y108077D02*
D03*
Y104648D02*
D03*
X180340Y78359D02*
D03*
Y81788D02*
D03*
Y113919D02*
D03*
Y117348D02*
D03*
Y105791D02*
D03*
Y109220D02*
D03*
Y96647D02*
D03*
Y100076D02*
D03*
Y87503D02*
D03*
Y90932D02*
D03*
X69088Y180975D02*
D03*
Y184404D02*
D03*
Y178181D02*
D03*
Y174752D02*
D03*
Y167513D02*
D03*
Y164084D02*
D03*
Y160909D02*
D03*
Y157480D02*
D03*
X76708Y156337D02*
D03*
Y152908D02*
D03*
X57912Y95631D02*
D03*
Y99060D02*
D03*
X106172Y59817D02*
D03*
Y56388D02*
D03*
X108204Y65913D02*
D03*
Y62484D02*
D03*
X126492Y60071D02*
D03*
Y63500D02*
D03*
X124460Y60071D02*
D03*
Y63500D02*
D03*
X139700Y60071D02*
D03*
Y63500D02*
D03*
X137668Y60071D02*
D03*
Y63500D02*
D03*
X151384Y60071D02*
D03*
Y63500D02*
D03*
X153416Y66167D02*
D03*
Y69596D02*
D03*
X172212Y62103D02*
D03*
Y65532D02*
D03*
X169672Y62103D02*
D03*
Y65532D02*
D03*
X180340Y69215D02*
D03*
Y72644D02*
D03*
D16*
X157353Y107188D02*
D03*
X153924D02*
D03*
X157353Y92456D02*
D03*
X153924D02*
D03*
X158877Y57912D02*
D03*
X155448D02*
D03*
X88983Y174412D02*
D03*
X92412D02*
D03*
X63881Y148844D02*
D03*
X60452D02*
D03*
X61595Y176276D02*
D03*
X65024D02*
D03*
X61595Y173736D02*
D03*
X65024D02*
D03*
X61595Y171196D02*
D03*
X65024D02*
D03*
X61595Y168656D02*
D03*
X65024D02*
D03*
X61595Y166116D02*
D03*
X65024D02*
D03*
X61595Y163576D02*
D03*
X65024D02*
D03*
X61595Y160528D02*
D03*
X65024D02*
D03*
X61595Y157988D02*
D03*
X65024D02*
D03*
X63881Y150876D02*
D03*
X60452D02*
D03*
X63881Y146812D02*
D03*
X60452D02*
D03*
X66167Y150876D02*
D03*
X69596D02*
D03*
X66167Y148844D02*
D03*
X69596D02*
D03*
X66167Y146812D02*
D03*
X69596D02*
D03*
X70485Y136652D02*
D03*
X67056D02*
D03*
X64389D02*
D03*
X60960D02*
D03*
X73279Y97028D02*
D03*
X76708D02*
D03*
X73279Y83820D02*
D03*
X76708D02*
D03*
X73279Y69596D02*
D03*
X76708D02*
D03*
X73279Y55880D02*
D03*
X76708D02*
D03*
X120777Y57912D02*
D03*
X117348D02*
D03*
X133985D02*
D03*
X130556D02*
D03*
X147701D02*
D03*
X144272D02*
D03*
X168021D02*
D03*
X164592D02*
D03*
X175641D02*
D03*
X172212D02*
D03*
X237871Y165608D02*
D03*
X241300D02*
D03*
X237871Y168148D02*
D03*
X241300D02*
D03*
X138811Y174752D02*
D03*
X142240D02*
D03*
X138811Y172212D02*
D03*
X142240D02*
D03*
X201803Y175260D02*
D03*
X205232D02*
D03*
X201803Y172720D02*
D03*
X205232D02*
D03*
D17*
X241300Y165608D02*
X241808Y165100D01*
X239776Y158496D02*
X245872D01*
X239776Y146304D02*
X245364D01*
X239776Y138684D02*
X245364D01*
X53848Y60452D02*
X57912D01*
X50800Y63500D02*
Y72644D01*
Y63500D02*
X52832Y65532D01*
X53848D01*
Y62992D02*
X57404D01*
X53848Y69596D02*
X57404D01*
X53848Y72136D02*
X57404D01*
X50800Y72644D02*
Y82296D01*
Y72644D02*
X52832Y74676D01*
X53848D01*
Y81280D02*
X57404D01*
X50800Y90932D02*
Y115316D01*
Y82296D02*
Y90932D01*
Y82296D02*
X52324Y83820D01*
X53848D01*
Y78740D02*
X57404D01*
X52832Y92964D02*
X53848D01*
X50800Y90932D02*
X52832Y92964D01*
X53848Y87884D02*
X57404D01*
X57912Y92456D02*
Y95504D01*
X55880Y90424D02*
X57912Y92456D01*
X53848Y90424D02*
X55880D01*
X104140Y121412D02*
Y146304D01*
X130048Y172212D01*
X142240Y139192D02*
Y152908D01*
X137668Y157480D02*
X142240Y152908D01*
X140208Y138176D02*
X141224D01*
X142240Y139192D01*
X94996Y145288D02*
X100584Y150876D01*
X94996Y134112D02*
Y145288D01*
X80264Y150876D02*
X93472Y137668D01*
Y132588D02*
Y137668D01*
X93980Y130556D02*
X102108Y138684D01*
X88900Y130556D02*
X93980D01*
X102108Y138684D02*
Y147320D01*
X80772Y122428D02*
X88900Y130556D01*
X93980Y129032D02*
X103124Y138176D01*
X89408Y129032D02*
X93980D01*
X103124Y138176D02*
Y146812D01*
X94742Y120396D02*
X102616Y128270D01*
Y133096D01*
X102108Y147320D02*
X124968Y170180D01*
X103124Y146812D02*
X127508Y171196D01*
X248920Y170180D02*
Y185080D01*
X137668Y178816D02*
Y181356D01*
Y157480D02*
Y178816D01*
X184404Y175768D02*
X205740Y154432D01*
X180848Y175768D02*
X184404D01*
X201168Y178816D02*
Y181356D01*
X248920Y155956D02*
Y170180D01*
X246888Y168148D02*
X248920Y170180D01*
X245364Y168148D02*
X246888D01*
X248920Y125476D02*
Y155956D01*
X246660Y153696D02*
X248920Y155956D01*
X245872Y153696D02*
X246660D01*
X248920Y91948D02*
Y125476D01*
X247208Y123764D02*
X248920Y125476D01*
X245872Y123764D02*
X247208D01*
X248920Y81968D02*
Y91948D01*
Y71000D02*
Y81968D01*
X248912Y58920D02*
X248920D01*
X235712Y50800D02*
X240792D01*
X225044D02*
X235712D01*
X221996D02*
X225044D01*
X224132Y52936D02*
Y69928D01*
X221996Y50800D02*
X224132Y52936D01*
X212344Y50800D02*
X221996D01*
X237132Y92788D02*
Y115648D01*
Y69928D02*
Y92788D01*
X235712Y50800D02*
X237132Y52220D01*
Y69928D01*
X224132D02*
Y92788D01*
X104648Y99568D02*
Y104420D01*
X100584Y108484D02*
X104648Y104420D01*
X118872Y106680D02*
Y111760D01*
Y102616D02*
Y106680D01*
X111760Y103124D02*
Y107188D01*
X106172Y104648D02*
X107696Y103124D01*
X108204D01*
Y110744D01*
X92964Y171196D02*
X96520Y167640D01*
X68072Y152400D02*
Y152908D01*
Y152400D02*
X69596Y150876D01*
X65532Y154432D02*
X69088D01*
X63881Y152781D02*
X65532Y154432D01*
X63881Y150876D02*
Y152781D01*
X69088Y154432D02*
X73152Y150368D01*
X67056Y168656D02*
X68072Y169672D01*
X65024Y168656D02*
X67056D01*
X65024Y171196D02*
X67056D01*
X65024Y166116D02*
X67056D01*
X65024Y163576D02*
X67056D01*
Y161544D02*
X69088Y163576D01*
X67056Y156972D02*
Y161544D01*
X72644Y187452D02*
X75943D01*
X88983Y174412D01*
X74676Y164592D02*
X76200D01*
X73152Y163068D02*
X74676Y164592D01*
X68072Y169672D02*
X73152D01*
X61595Y155448D02*
Y157988D01*
Y152019D02*
Y155448D01*
X65532D01*
X67056Y156972D01*
X69088Y163576D02*
Y164084D01*
X80264Y150876D02*
Y169164D01*
X77724Y171704D02*
X80264Y169164D01*
X71628Y171704D02*
X77724D01*
X100584Y150876D02*
Y153924D01*
X84328Y170180D02*
X100584Y153924D01*
X84328Y170180D02*
Y175260D01*
X90424Y150876D02*
Y161544D01*
X73152Y178816D02*
X90424Y161544D01*
X73152Y178816D02*
Y180340D01*
X74676Y184912D02*
X84328Y175260D01*
X69088Y174244D02*
X71628Y171704D01*
X69088Y174244D02*
Y174752D01*
X72644Y173736D02*
X73152D01*
X70612Y175768D02*
X72644Y173736D01*
X70612Y175768D02*
Y176657D01*
X69088Y178181D02*
X70612Y176657D01*
X69596Y184912D02*
X74676D01*
X69088Y184404D02*
X69596Y184912D01*
X69088Y180975D02*
X70993Y182880D01*
X73152Y176276D02*
Y180340D01*
X76200Y152908D02*
X76708D01*
X74295Y153924D02*
X76708Y156337D01*
X73152Y153924D02*
X74295D01*
X70993Y182880D02*
X73152D01*
X74676Y151384D02*
X76200Y152908D01*
X74676Y149352D02*
Y151384D01*
X245684Y133096D02*
X245872Y132908D01*
X50800Y182372D02*
X52832Y184404D01*
X57404D02*
X57912Y184912D01*
X87884Y173313D02*
X88983Y174412D01*
X87884Y171196D02*
Y173313D01*
X92412Y174412D02*
X92964Y173860D01*
Y171196D02*
Y173860D01*
X88392Y135636D02*
X89916D01*
X74676Y149352D02*
X88392Y135636D01*
X89916D02*
X90424Y135128D01*
X76200Y150368D02*
X79756D01*
X80264Y150876D01*
X103124D02*
X104648Y152400D01*
X100584Y150876D02*
X103124D01*
X55880Y149352D02*
X57404Y150876D01*
X53848Y149352D02*
X55880D01*
Y146812D02*
X57404Y148336D01*
X53848Y146812D02*
X55880D01*
X63442Y137599D02*
X64389Y136652D01*
X142240Y155448D02*
X143256Y154432D01*
Y124968D02*
Y154432D01*
X135128Y116840D02*
X143256Y124968D01*
X241300Y168148D02*
X245364D01*
X206248Y166116D02*
X225044Y147320D01*
Y137160D02*
Y147320D01*
Y137160D02*
X225552Y136652D01*
X243332Y94488D02*
Y118364D01*
X236220Y125476D02*
X243332Y118364D01*
X236220Y125476D02*
Y183388D01*
X224028Y136144D02*
X242316Y117856D01*
X224028Y136144D02*
Y146812D01*
X198628Y172212D02*
X224028Y146812D01*
X196088Y173228D02*
X223012Y146304D01*
Y135636D02*
Y146304D01*
Y135636D02*
X241300Y117348D01*
X240284Y64516D02*
Y116840D01*
X221996Y135128D02*
X240284Y116840D01*
X221996Y135128D02*
Y145796D01*
X193548Y174244D02*
X221996Y145796D01*
X193548Y174244D02*
Y181356D01*
X64389Y135763D02*
Y136652D01*
Y135763D02*
X66548Y133604D01*
X67564D01*
X68522Y139600D02*
X69130Y140208D01*
X72644D01*
X65982Y139600D02*
X68622Y142240D01*
X72644D01*
X111125Y149733D02*
X112776Y151384D01*
X111125Y136271D02*
Y149733D01*
X130048Y172212D02*
Y181356D01*
X132588Y173228D02*
Y181356D01*
X110236Y150876D02*
X132588Y173228D01*
X110236Y129032D02*
Y150876D01*
X80772Y118364D02*
Y122428D01*
X90424Y133604D02*
Y135128D01*
X70156Y113336D02*
X90424Y133604D01*
X70156Y102108D02*
Y113336D01*
X67564Y62484D02*
Y112776D01*
X66548Y75184D02*
Y113792D01*
X65532Y89408D02*
Y114808D01*
X67564Y118364D02*
Y118872D01*
X64516Y115316D02*
X67564Y118364D01*
X64516Y102108D02*
Y115316D01*
X66040Y118364D02*
Y119380D01*
X63500Y115824D02*
X66040Y118364D01*
X63500Y108712D02*
Y115824D01*
X64516Y118364D02*
Y119888D01*
X62484Y116332D02*
X64516Y118364D01*
X62484Y109220D02*
Y116332D01*
X67564Y112776D02*
X88900Y134112D01*
X66548Y113792D02*
X86868Y134112D01*
X65532Y114808D02*
X84836Y134112D01*
X67564Y118872D02*
X82804Y134112D01*
X66040Y119380D02*
X80772Y134112D01*
X64516Y119888D02*
X78740Y134112D01*
X62992Y120396D02*
X76708Y134112D01*
X62992Y118364D02*
Y120396D01*
X58420Y113792D02*
X62992Y118364D01*
X53848Y111760D02*
X54356D01*
X61468Y118872D01*
Y120904D01*
X74676Y134112D01*
X61976Y123444D02*
X72644Y134112D01*
X53848Y123444D02*
X61976D01*
X60452Y132080D02*
X68580D01*
X63881Y150876D02*
X66167D01*
X73152Y147828D02*
Y150368D01*
Y147828D02*
X73660Y147320D01*
X71958Y145771D02*
Y149530D01*
X70612Y150876D02*
X71958Y149530D01*
X69596Y150876D02*
X70612D01*
X191008Y183896D02*
Y186944D01*
X232664D02*
X236220Y183388D01*
X202692Y186944D02*
X232664D01*
X201168Y185420D02*
X202692Y186944D01*
X201168Y184404D02*
Y185420D01*
X135128Y175768D02*
Y181356D01*
X141732Y186436D02*
X166624Y161544D01*
X122428Y183896D02*
Y187960D01*
X119888Y183896D02*
Y189484D01*
X240284Y64516D02*
X241808Y62992D01*
X231882Y58928D02*
Y81788D01*
X242316Y83820D02*
X243332Y82804D01*
X235204Y186944D02*
X237236Y184404D01*
Y168783D02*
Y184404D01*
Y168783D02*
X237871Y168148D01*
X193548Y183896D02*
Y187452D01*
X192024Y188976D02*
X193548Y187452D01*
X237871Y165608D02*
Y168148D01*
X124968Y124968D02*
Y138176D01*
X114300Y114300D02*
X124968Y124968D01*
X127508Y125984D02*
Y138176D01*
X115316Y113792D02*
X127508Y125984D01*
X115316Y96012D02*
Y113792D01*
X135128Y132080D02*
Y138176D01*
X116332Y113284D02*
X135128Y132080D01*
X116332Y80772D02*
Y113284D01*
X137668Y133096D02*
Y138176D01*
X117348Y112776D02*
X137668Y133096D01*
X117348Y80264D02*
Y112776D01*
X112776Y93472D02*
X115316Y96012D01*
X112776Y77216D02*
X116332Y80772D01*
X114300Y77216D02*
X117348Y80264D01*
X169164Y85344D02*
X172212Y88392D01*
X166624Y85344D02*
X171196Y89916D01*
X164084Y85344D02*
X170180Y91440D01*
X159512Y86868D02*
X160020Y86360D01*
X153416Y62103D02*
X160020Y68707D01*
Y87376D01*
X159512Y86868D02*
X160020Y87376D01*
X141732Y189484D02*
X167640Y163576D01*
X197612Y134620D02*
X201168Y138176D01*
X196088Y135636D02*
X198628Y138176D01*
X147828Y92404D02*
X150420Y94996D01*
X178816Y112395D02*
X180340Y113919D01*
X178816Y106172D02*
Y112395D01*
X181864Y117348D02*
X182880Y116332D01*
X180340Y117348D02*
X181864D01*
X147828Y72644D02*
Y92404D01*
X146304Y71120D02*
X147828Y72644D01*
X150368Y70612D02*
Y82296D01*
Y70612D02*
X151384Y69596D01*
X65024Y73660D02*
X66548Y75184D01*
X53848Y102616D02*
X55880D01*
X53848Y100076D02*
X56388D01*
X124968Y183896D02*
Y189484D01*
X117348Y183896D02*
Y186436D01*
X137668Y91440D02*
X139700Y93472D01*
X137668Y82804D02*
Y91440D01*
X124460Y69596D02*
X137668Y82804D01*
X138684Y90932D02*
X140716Y92964D01*
X138684Y73660D02*
Y90932D01*
X137668Y72644D02*
X138684Y73660D01*
X140208Y90932D02*
X141732Y92456D01*
X140208Y88392D02*
Y90932D01*
X141732D02*
X142748Y91948D01*
X141732Y86868D02*
Y90932D01*
X143256Y88392D02*
Y90932D01*
X143764Y91440D01*
X183388Y183896D02*
Y184404D01*
X181864Y185928D02*
X183388Y184404D01*
X179832Y185928D02*
X181864D01*
X185928Y183896D02*
Y185420D01*
X184404Y186944D02*
X185928Y185420D01*
X179324Y186944D02*
X184404D01*
X188468Y183896D02*
Y186436D01*
X186944Y187960D02*
X188468Y186436D01*
X178816Y187960D02*
X186944D01*
X178308Y188976D02*
X192024D01*
X168656Y179324D02*
X178308Y188976D01*
X169672Y178816D02*
X178816Y187960D01*
X170688Y178308D02*
X179324Y186944D01*
X171704Y177800D02*
X179832Y185928D01*
X130048Y183896D02*
Y191008D01*
X65024Y173736D02*
X67056D01*
X50800Y182372D02*
Y184800D01*
Y177800D02*
Y182372D01*
X65024Y162052D02*
Y163576D01*
Y160528D02*
Y162052D01*
Y157988D02*
Y160528D01*
X61595Y159258D02*
Y160528D01*
Y157988D02*
Y159258D01*
X58166D02*
X61595D01*
X55324Y162100D02*
X58166Y159258D01*
X55324Y162100D02*
Y163993D01*
X58720Y162052D02*
X65024D01*
X58164Y162608D02*
X58720Y162052D01*
X61595Y163576D02*
X61976D01*
X64516Y166116D01*
X65024D01*
X58164Y165378D02*
X58902Y166116D01*
X61595D01*
Y168656D02*
X61976D01*
X64516Y171196D01*
X65024D01*
X58164Y168148D02*
Y168400D01*
X60960Y171196D01*
X61595D01*
X65024Y176276D02*
X67056D01*
X61595Y173736D02*
X61976D01*
X64516Y176276D01*
X65024D01*
X55324Y172303D02*
Y174196D01*
X57404Y176276D01*
X61595D01*
X50800Y157988D02*
Y177800D01*
X53643Y180643D01*
X56744D01*
X241300Y73660D02*
X242824Y72136D01*
X243332Y82804D02*
X246380D01*
X242824Y72136D02*
X246380D01*
X242824Y74676D02*
X246380D01*
X241808Y62992D02*
X246380D01*
X242824Y65532D02*
X246380D01*
X165608Y101600D02*
X166116Y102108D01*
X172212Y69088D02*
X174244Y71120D01*
X53848Y132588D02*
X57404D01*
X53848Y135128D02*
X57404D01*
X53848Y137668D02*
X57404D01*
X50800Y142748D02*
Y157988D01*
Y138684D02*
Y142748D01*
X52324Y144272D01*
X53848D01*
X50800Y127000D02*
Y138684D01*
X52324Y140208D01*
X53848D01*
X50800Y115316D02*
Y127000D01*
X52324Y128524D01*
X53848D01*
X50800Y115316D02*
X52324Y116840D01*
X53848D01*
Y125984D02*
X57404D01*
X63500Y101092D02*
X64516Y102108D01*
X196072Y122920D02*
X205740Y132588D01*
X210820Y123950D02*
X214094Y127224D01*
X196072Y121924D02*
Y122920D01*
X193548Y123950D02*
X196822Y127224D01*
X193548Y120396D02*
Y123950D01*
Y120396D02*
X203200Y110744D01*
Y113284D01*
X64008Y87884D02*
X65532Y89408D01*
X61976Y87884D02*
X64008D01*
X61976Y101092D02*
X63500D01*
X65024Y59944D02*
X67564Y62484D01*
X219964Y85344D02*
X220472Y84836D01*
X213344Y122920D02*
X217932Y127508D01*
X213344Y121924D02*
Y122920D01*
X203200Y53340D02*
Y113284D01*
X210820Y120904D01*
Y123950D01*
X231882Y53066D02*
Y58928D01*
X231648Y52832D02*
X231882Y53066D01*
X87376Y65532D02*
Y74168D01*
X79756Y74676D02*
Y88900D01*
Y60960D02*
Y74676D01*
X70156Y88900D02*
Y102108D01*
Y74676D02*
Y88900D01*
Y60960D02*
Y74676D01*
X226882Y81788D02*
Y104648D01*
Y58928D02*
Y81788D01*
X185420Y88900D02*
Y98044D01*
Y107188D01*
Y116332D01*
X231882Y81788D02*
Y104648D01*
X53135Y155653D02*
X56744D01*
X50800Y157988D02*
X53135Y155653D01*
X74956Y71348D02*
Y74676D01*
Y71348D02*
X76708Y69596D01*
X74956Y57632D02*
Y60960D01*
Y57632D02*
X76708Y55880D01*
X74956Y85572D02*
Y88900D01*
Y85572D02*
X76708Y83820D01*
X74956Y98780D02*
Y102108D01*
Y98780D02*
X76708Y97028D01*
X61976Y71120D02*
Y71628D01*
Y82296D02*
Y85344D01*
Y95504D02*
Y98552D01*
Y68072D02*
Y71120D01*
X73152Y83693D02*
X73279Y83820D01*
X73152Y81788D02*
Y83693D01*
Y69469D02*
X73279Y69596D01*
X73152Y67564D02*
Y69469D01*
X89916Y91948D02*
X92456Y89408D01*
X89916Y82804D02*
X92456Y80264D01*
X89916Y74168D02*
X92456Y71628D01*
X89916Y65532D02*
X92456Y62992D01*
X93472Y99060D02*
Y101092D01*
X94996Y102616D01*
X92456D02*
X94996Y105156D01*
X92456Y98044D02*
Y102616D01*
Y83693D02*
X94488Y85725D01*
X92456Y92837D02*
Y96012D01*
X91440Y97028D02*
X92456Y96012D01*
X91440Y97028D02*
Y104140D01*
X94996Y107696D01*
X61976Y59944D02*
X65024D01*
X61976Y73660D02*
X65024D01*
X76708Y81788D02*
Y83820D01*
X71628Y95504D02*
X71755D01*
X73279Y97028D01*
X76708Y94488D02*
Y97028D01*
X59436Y93472D02*
Y104648D01*
X57912Y99060D02*
X58420Y99568D01*
Y105156D01*
X92456Y66421D02*
Y68580D01*
Y75057D02*
Y77216D01*
X95504Y80264D01*
X90932Y54356D02*
Y58420D01*
X99060Y64516D02*
X100584D01*
X93472Y54356D02*
X98832Y59716D01*
X100584D01*
X92456Y68580D02*
X94488Y70612D01*
X96012Y63500D02*
Y76708D01*
X100076Y80772D01*
X100584D01*
X94488Y70612D02*
Y77216D01*
X96520Y79248D01*
X106172Y59817D02*
Y62484D01*
Y75565D02*
Y78232D01*
X103632Y80772D02*
X106172Y78232D01*
X100584Y80772D02*
X103632D01*
X106172Y91821D02*
Y94488D01*
X100584Y97028D02*
X103632D01*
X106172Y97917D02*
X108204D01*
X109855D01*
X111760Y96012D01*
X106172Y81661D02*
X108204D01*
X109855D01*
X111760Y79756D01*
X106172Y65913D02*
X108204D01*
X109855D01*
X111760Y64008D01*
X106172Y108077D02*
Y110744D01*
X103632Y113284D02*
X106172Y110744D01*
X100584Y113284D02*
X103632D01*
X106172Y114173D02*
X108204D01*
X109855D01*
X111760Y112268D01*
X94488Y85725D02*
Y96012D01*
X92456Y98044D02*
X94488Y96012D01*
X95504Y80264D02*
Y97028D01*
X93472Y99060D02*
X95504Y97028D01*
X94996Y100076D02*
X96520Y98552D01*
Y79248D02*
Y98552D01*
X106172Y88392D02*
X108204Y90424D01*
Y94488D01*
Y74168D02*
Y78232D01*
X106172Y72136D02*
X108204Y74168D01*
X100584Y64516D02*
X104140D01*
X106172Y62484D01*
X108204Y58420D02*
Y62484D01*
X106172Y56388D02*
X108204Y58420D01*
X100584Y92228D02*
X104648Y88164D01*
Y84328D02*
Y88164D01*
X100584Y75972D02*
X104648Y71908D01*
Y68072D02*
Y71908D01*
X100584Y59716D02*
X104648Y55652D01*
Y54864D02*
Y55652D01*
Y54864D02*
X105664Y53848D01*
X103632Y97028D02*
X106172Y94488D01*
X118872Y85344D02*
Y93980D01*
Y102616D01*
X111760Y61468D02*
X112776D01*
X114300Y62992D01*
Y77216D01*
X111760D02*
X112776D01*
X111760Y72136D02*
Y74676D01*
Y93472D02*
X112776D01*
X111760Y109728D02*
X112776D01*
X114300Y111252D01*
Y114300D01*
X111760Y56388D02*
Y58928D01*
X79756Y91440D02*
X86360Y98044D01*
X79756Y88900D02*
Y91440D01*
Y102108D01*
Y53340D02*
Y60960D01*
X108204Y53340D02*
Y58420D01*
X93472Y54356D02*
Y58420D01*
X86868Y54356D02*
Y58420D01*
X93472Y60960D02*
X96012Y63500D01*
X90932Y58420D02*
X92456Y59944D01*
X94488D01*
X99060Y64516D01*
X84328Y54356D02*
Y58420D01*
X86868Y60960D01*
X93472D01*
X61976Y55880D02*
Y57404D01*
Y55880D02*
X65024Y52832D01*
X71120D01*
X73279Y54991D01*
Y55880D01*
X70104Y54356D02*
Y60908D01*
X121412Y85344D02*
X123444Y83312D01*
X123952D01*
X121412Y93980D02*
X123444Y91948D01*
X123952D01*
X121412Y102616D02*
X123444Y100584D01*
X123952D01*
X121412Y111760D02*
X123444Y109728D01*
X123952D01*
X111760Y88392D02*
Y90932D01*
X123952Y86741D02*
X125984Y88773D01*
Y98552D02*
Y101981D01*
X123952Y104013D02*
X125984Y101981D01*
X123952Y113157D02*
X125984Y111125D01*
Y104648D02*
Y111125D01*
Y88773D02*
Y93472D01*
X125349Y95377D02*
X125984Y96012D01*
X123952Y95377D02*
X125349D01*
X115316Y67564D02*
X119380Y71628D01*
X115316Y52832D02*
Y67564D01*
X132080Y71120D02*
X132588D01*
X128524Y67564D02*
X132080Y71120D01*
X128524Y52832D02*
Y67564D01*
X145796Y71120D02*
X146304D01*
X142240Y67564D02*
X145796Y71120D01*
X142240Y52832D02*
Y67564D01*
X105664Y50800D02*
X108204Y53340D01*
X77216Y50800D02*
X79756Y53340D01*
X118364Y52832D02*
X119380D01*
X131572D02*
X132588D01*
X145288D02*
X146304D01*
X156464D02*
X157480D01*
X154940Y57404D02*
X155448Y57912D01*
X143764Y54356D02*
X145288Y52832D01*
X143764Y54356D02*
Y57404D01*
X144272Y57912D01*
X130048Y54356D02*
X131572Y52832D01*
X130048Y54356D02*
Y57404D01*
X130556Y57912D01*
X116840Y54356D02*
X118364Y52832D01*
X116840Y54356D02*
Y57404D01*
X117348Y57912D01*
X119380Y55372D02*
X121920D01*
X122428Y55880D01*
X124460Y63500D02*
Y66167D01*
X59200Y50800D02*
X77216D01*
X105664D01*
X122428D01*
X126492Y63500D02*
Y67564D01*
X124460Y69596D02*
X126492Y67564D01*
X137668Y63500D02*
Y66167D01*
Y69596D02*
X139700Y67564D01*
Y63500D02*
Y67564D01*
X153416Y62103D02*
Y66167D01*
X151384Y60071D02*
X153416Y62103D01*
X151384Y63500D02*
Y66167D01*
Y69596D02*
X153416D01*
X146304Y66320D02*
X148564D01*
X119380D02*
X121640D01*
X124460Y63500D01*
X132588Y66320D02*
X134848D01*
X137668Y63500D01*
X148564Y66320D02*
X151384Y63500D01*
X147701Y57912D02*
X149860D01*
X133985D02*
X136144D01*
X172212Y65532D02*
Y69088D01*
X169672Y71628D02*
X172212Y69088D01*
X169672Y65532D02*
Y68199D01*
X168884Y66320D02*
X169672Y65532D01*
X164592Y66320D02*
X168884D01*
X169672Y62103D02*
X172212D01*
X179832Y53848D02*
X182880Y50800D01*
X180848Y109220D02*
X182880Y107188D01*
X180340Y109220D02*
X180848D01*
Y100076D02*
X182880Y98044D01*
X180340Y100076D02*
X180848D01*
Y90932D02*
X182880Y88900D01*
X180340Y90932D02*
X180848D01*
X164084Y52832D02*
X164592D01*
X162052Y54864D02*
X164084Y52832D01*
Y57912D02*
X164592D01*
Y55372D02*
X167132D01*
X167640Y55880D01*
X171196Y52832D02*
X171704D01*
X169164Y54864D02*
X171196Y52832D01*
X169164Y54864D02*
Y55880D01*
X171196Y57912D01*
X172212D01*
X171704Y55372D02*
X174244D01*
X174752Y55880D01*
X157480Y55372D02*
X160020D01*
X160528Y55880D01*
X158877Y57912D02*
X161036D01*
X162052Y54864D02*
Y55880D01*
X164084Y57912D01*
X180848Y81788D02*
X182880Y79756D01*
X180340Y81788D02*
X180848D01*
Y72644D02*
X182880Y70612D01*
X180340Y72644D02*
X180848D01*
X185420Y55880D02*
Y70612D01*
Y79756D01*
Y88900D01*
X179832Y53848D02*
Y58928D01*
X175641Y57912D02*
X177800D01*
X168021D02*
X168148D01*
X172212Y61595D02*
X172720Y62103D01*
X176657D01*
X179832Y58928D01*
X168021Y57912D02*
X169545Y59436D01*
X170180D01*
X180340Y67056D02*
Y69215D01*
Y76200D02*
Y78359D01*
X176784Y94996D02*
X178689D01*
X180340Y96647D01*
X176784Y97536D02*
X178816Y99568D01*
Y104267D01*
X180340Y105791D01*
X177800Y101092D02*
Y105156D01*
X178816Y106172D01*
Y88138D02*
Y90424D01*
X176784Y92456D02*
X178816Y90424D01*
Y88138D02*
X179451Y87503D01*
X180340D01*
X196822Y52550D02*
Y53624D01*
X195072Y50800D02*
X196822Y52550D01*
X122428Y50800D02*
X182880D01*
X195072D01*
X214094Y52550D02*
Y53624D01*
X212344Y50800D02*
X214094Y52550D01*
X195072Y50800D02*
X212344D01*
X226882Y52638D02*
Y58928D01*
X225044Y50800D02*
X226882Y52638D01*
X137668Y69596D02*
Y72644D01*
X155220Y87376D02*
X155448Y87604D01*
X165608Y99060D02*
X167132Y100584D01*
X165608Y93980D02*
X169164Y97536D01*
X165608Y96520D02*
X168148Y99060D01*
X153416Y52832D02*
Y60452D01*
X164084Y71120D01*
X164592D01*
X150420Y87376D02*
Y102108D01*
X154940Y54356D02*
X156464Y52832D01*
X154940Y54356D02*
Y57404D01*
X172212Y85344D02*
X173228Y86360D01*
X132588Y55372D02*
X135128D01*
X135636Y55880D01*
X146304Y55372D02*
X148844D01*
X149352Y55880D01*
X87376Y91948D02*
Y93980D01*
Y74168D02*
Y82804D01*
Y91948D01*
Y93980D02*
X90424Y97028D01*
Y108712D01*
X155220Y102108D02*
X155448Y102336D01*
X160020Y87376D02*
Y102108D01*
X153924Y88672D02*
Y92456D01*
Y88672D02*
X155220Y87376D01*
X153924Y103404D02*
Y107188D01*
Y103404D02*
X155220Y102108D01*
X157353Y92456D02*
Y94361D01*
X157480Y94488D01*
X124460Y60071D02*
X126492D01*
X122428Y50800D02*
X126492Y54864D01*
X120777Y57912D02*
X124968D01*
X126492Y54864D02*
Y60071D01*
X118872Y81788D02*
Y85344D01*
X57912Y60960D02*
X58928Y61976D01*
X57912Y60452D02*
Y60960D01*
X57404Y69596D02*
X58928Y71120D01*
X57404Y78740D02*
X58928Y80264D01*
X57404Y87884D02*
X58928Y86360D01*
Y61976D02*
Y86360D01*
X56388Y100076D02*
X57404Y101092D01*
X55880Y102616D02*
X56388Y103124D01*
X53848Y109220D02*
X55372D01*
X246380Y60452D02*
X247372D01*
X248920Y62000D01*
Y58920D02*
Y62000D01*
X246380Y69596D02*
X247516D01*
X248920Y71000D01*
X246380Y80264D02*
X247216D01*
X248920Y81968D01*
X69215Y160528D02*
X73152D01*
X69088Y167132D02*
X73152D01*
X59436Y104648D02*
X63500Y108712D01*
X172720Y177292D02*
X179324Y183896D01*
X180848D01*
X60452Y145288D02*
X61976Y143764D01*
Y142748D02*
Y143764D01*
X60452Y145288D02*
Y146812D01*
Y148844D01*
Y150876D01*
X60294Y140208D02*
X60902Y139600D01*
X67056Y143764D02*
X69596Y146304D01*
Y146812D01*
Y148844D01*
Y150876D01*
X66167Y145415D02*
Y146812D01*
X64516Y143764D02*
X66167Y145415D01*
Y146812D02*
Y148844D01*
Y150876D01*
X63881Y144399D02*
X64516Y143764D01*
X63881Y144399D02*
Y146812D01*
Y148844D01*
X53848Y140208D02*
X57404D01*
X60294D01*
X53848Y114300D02*
X54864D01*
X117348Y135636D02*
Y138176D01*
X119888Y134112D02*
Y138176D01*
X122428Y132588D02*
Y138176D01*
X127508Y140716D02*
Y143256D01*
X130048Y140716D02*
Y144780D01*
X132588Y140716D02*
Y146304D01*
X135128Y140716D02*
Y147828D01*
X60902Y136710D02*
Y139600D01*
Y136710D02*
X60960Y136652D01*
X63442Y137599D02*
Y139600D01*
X65982Y138742D02*
Y139600D01*
Y138742D02*
X67056Y137668D01*
Y136652D02*
Y137668D01*
X68522Y138615D02*
Y139600D01*
X60452Y150876D02*
X61595Y152019D01*
X57404Y135128D02*
X60452Y132080D01*
X82804Y101600D02*
X86360Y98044D01*
X82804Y101600D02*
Y113284D01*
X84328Y114808D02*
X90424Y108712D01*
X68522Y138615D02*
X70485Y136652D01*
X61976Y142748D02*
X63442Y141282D01*
Y139600D02*
Y141282D01*
X246380Y90424D02*
X247396D01*
X248920Y91948D01*
X244856Y92964D02*
X246380D01*
X243332Y94488D02*
X244856Y92964D01*
X246380Y95504D02*
Y98044D01*
Y85344D02*
Y87884D01*
X176784Y100076D02*
X177800Y101092D01*
X122936Y116840D02*
X129540D01*
X118872Y112776D02*
X122936Y116840D01*
X118872Y111760D02*
Y112776D01*
X111125Y136271D02*
X118364Y129032D01*
X100584Y117348D02*
Y121412D01*
X203708Y140716D02*
Y143256D01*
X201168Y140716D02*
Y143256D01*
X198628Y140716D02*
Y143256D01*
X196088Y140716D02*
Y143256D01*
X193548Y140716D02*
Y143256D01*
X191008Y140716D02*
Y143256D01*
X188468Y140716D02*
Y143256D01*
X183388Y178308D02*
Y181356D01*
X185928Y177292D02*
Y181356D01*
Y177292D02*
X218948Y144272D01*
Y61468D02*
Y144272D01*
X188468Y176276D02*
Y181356D01*
Y176276D02*
X219964Y144780D01*
Y85344D02*
Y144780D01*
X205740Y132588D02*
Y154432D01*
X191008Y175260D02*
Y181356D01*
X196088Y173228D02*
Y181356D01*
X241300Y73660D02*
Y117348D01*
X198628Y172212D02*
Y181356D01*
X242316Y83820D02*
Y117856D01*
X224132Y92788D02*
Y115648D01*
X220980Y107696D02*
X221488Y107188D01*
X220980Y107696D02*
Y145288D01*
X191008Y175260D02*
X220980Y145288D01*
X203708Y133096D02*
Y138176D01*
X221996Y117784D02*
X224132Y115648D01*
X199644Y129032D02*
X203708Y133096D01*
X221996Y117784D02*
Y128524D01*
X222504Y129032D01*
X214094Y127224D02*
Y130782D01*
X216408Y133096D01*
X217932Y127508D02*
Y143764D01*
X183388Y178308D02*
X217932Y143764D01*
X206248Y166116D02*
Y182372D01*
X204724Y183896D02*
X206248Y182372D01*
X203708Y183896D02*
X204724D01*
X140208D02*
X141732D01*
X142748Y182880D01*
Y177292D02*
Y182880D01*
X59944Y119380D02*
Y121920D01*
X54864Y114300D02*
X59944Y119380D01*
X53848Y120904D02*
X57404D01*
X57912Y120396D01*
X53848Y105156D02*
Y106172D01*
X56388Y103124D02*
Y107188D01*
X58420Y105156D02*
X62484Y109220D01*
X56388Y107188D02*
X60960Y111760D01*
X57404Y101092D02*
Y105664D01*
X60452Y108712D01*
Y109220D01*
X53848Y106172D02*
X59436Y111760D01*
Y112776D01*
X60960Y114300D01*
X55372Y109220D02*
X58420Y112268D01*
Y113792D01*
X75184Y114300D02*
X82024D01*
X82278Y114554D01*
X84074D02*
X84328Y114808D01*
X82278Y114554D02*
X84074D01*
X127508Y171196D02*
Y181356D01*
X124968Y170180D02*
Y181356D01*
X52832Y184404D02*
X57404D01*
X68580Y132080D02*
X70104Y133604D01*
X50800Y59200D02*
Y63500D01*
X96520Y167640D02*
X104648D01*
X173228Y86360D02*
Y114808D01*
X194056Y135636D01*
X196088D01*
X174244Y71120D02*
Y114300D01*
X194564Y134620D01*
X197612D01*
X172212Y88392D02*
Y115316D01*
X191008Y134112D01*
Y138176D01*
X171196Y89916D02*
Y115824D01*
X188468Y133096D01*
Y138176D01*
X170180Y91440D02*
Y116332D01*
X185928Y132080D01*
Y138176D01*
X169164Y97536D02*
Y116840D01*
X183388Y131064D01*
Y138176D01*
X168148Y99060D02*
Y117348D01*
X180848Y130048D01*
Y138176D01*
X167132Y100584D02*
Y117856D01*
X178816Y129540D01*
Y143256D01*
X166116Y102108D02*
Y118364D01*
X177292Y129540D01*
Y145288D01*
X163068Y94488D02*
Y116840D01*
X175768Y129540D01*
Y148336D01*
X157353Y107188D02*
Y112649D01*
X174244Y129540D01*
Y151384D01*
X146304Y83312D02*
Y103124D01*
X172720Y129540D01*
Y177292D01*
X144780Y89916D02*
Y103124D01*
X171704Y130048D01*
Y177800D01*
X143764Y91440D02*
Y103632D01*
X170688Y130556D01*
Y178308D01*
X142748Y91948D02*
Y104140D01*
X169672Y131064D01*
Y178816D01*
X141732Y92456D02*
Y104648D01*
X168656Y131572D01*
Y179324D01*
X140716Y92964D02*
Y105156D01*
X167640Y132080D01*
Y163576D01*
X139700Y93472D02*
Y105664D01*
X166624Y132588D01*
Y161544D01*
X142240Y172212D02*
X142748Y172720D01*
Y177292D01*
X201168Y173355D02*
X201803Y172720D01*
X201168Y173355D02*
Y178816D01*
D18*
X239776Y163068D02*
X241808Y165100D01*
X240284Y133096D02*
X245684D01*
X242260Y164648D02*
X245364D01*
X245872Y126304D02*
Y130368D01*
D19*
X53848Y140208D02*
D03*
Y137668D02*
D03*
Y135128D02*
D03*
Y132588D02*
D03*
Y128524D02*
D03*
Y125984D02*
D03*
Y123444D02*
D03*
Y120904D02*
D03*
Y116840D02*
D03*
Y114300D02*
D03*
Y111760D02*
D03*
Y109220D02*
D03*
X246380Y60452D02*
D03*
Y62992D02*
D03*
Y65532D02*
D03*
Y69596D02*
D03*
Y72136D02*
D03*
Y74676D02*
D03*
Y80264D02*
D03*
Y82804D02*
D03*
Y85344D02*
D03*
X53848Y100076D02*
D03*
Y102616D02*
D03*
Y105156D02*
D03*
Y149352D02*
D03*
Y146812D02*
D03*
Y144272D02*
D03*
Y92964D02*
D03*
Y90424D02*
D03*
Y87884D02*
D03*
Y83820D02*
D03*
Y81280D02*
D03*
Y78740D02*
D03*
Y74676D02*
D03*
Y72136D02*
D03*
Y69596D02*
D03*
Y65532D02*
D03*
Y62992D02*
D03*
Y60452D02*
D03*
X246380Y90424D02*
D03*
Y92964D02*
D03*
Y95504D02*
D03*
X245872Y123764D02*
D03*
Y126304D02*
D03*
Y130368D02*
D03*
Y132908D02*
D03*
D20*
X234382Y104648D02*
D03*
X231882D02*
D03*
X229382D02*
D03*
X226882D02*
D03*
X234382Y81788D02*
D03*
X231882D02*
D03*
X229382D02*
D03*
X226882D02*
D03*
X234382Y58928D02*
D03*
X231882D02*
D03*
X229382D02*
D03*
X226882D02*
D03*
X196822Y127224D02*
D03*
X193322D02*
D03*
X196822Y53624D02*
D03*
X193322D02*
D03*
X196072Y121924D02*
D03*
X194072Y58924D02*
D03*
X214094Y127224D02*
D03*
X210594D02*
D03*
X214094Y53624D02*
D03*
X210594D02*
D03*
X213344Y121924D02*
D03*
X211344Y58924D02*
D03*
D21*
X224132Y115648D02*
D03*
X237132D02*
D03*
X224132Y92788D02*
D03*
X237132D02*
D03*
X224132Y69928D02*
D03*
X237132D02*
D03*
D22*
X90424Y150876D02*
D03*
X100584D02*
D03*
X80264D02*
D03*
X92964Y171196D02*
D03*
X87884D02*
D03*
X199272Y121824D02*
D03*
Y59024D02*
D03*
X190872Y57824D02*
D03*
Y123024D02*
D03*
X216544Y121824D02*
D03*
Y59024D02*
D03*
X208144Y57824D02*
D03*
Y123024D02*
D03*
D23*
X140208Y183896D02*
D03*
Y181356D02*
D03*
Y138176D02*
D03*
Y140716D02*
D03*
X203708D02*
D03*
Y138176D02*
D03*
Y181356D02*
D03*
Y183896D02*
D03*
D24*
X137668D02*
D03*
X135128D02*
D03*
X137668Y181356D02*
D03*
X135128D02*
D03*
X132588Y183896D02*
D03*
X127508D02*
D03*
X130048D02*
D03*
X122428D02*
D03*
X124968D02*
D03*
X117348D02*
D03*
X119888D02*
D03*
Y181356D02*
D03*
X117348D02*
D03*
X124968D02*
D03*
X122428D02*
D03*
X130048D02*
D03*
X127508D02*
D03*
X132588D02*
D03*
Y138176D02*
D03*
X127508D02*
D03*
X130048D02*
D03*
X122428D02*
D03*
X124968D02*
D03*
X117348D02*
D03*
X119888D02*
D03*
X135128D02*
D03*
X137668D02*
D03*
Y140716D02*
D03*
X135128D02*
D03*
X119888D02*
D03*
X117348D02*
D03*
X124968D02*
D03*
X122428D02*
D03*
X130048D02*
D03*
X127508D02*
D03*
X132588D02*
D03*
X196088D02*
D03*
X191008D02*
D03*
X193548D02*
D03*
X185928D02*
D03*
X188468D02*
D03*
X180848D02*
D03*
X183388D02*
D03*
X198628D02*
D03*
X201168D02*
D03*
Y138176D02*
D03*
X198628D02*
D03*
X183388D02*
D03*
X180848D02*
D03*
X188468D02*
D03*
X185928D02*
D03*
X193548D02*
D03*
X191008D02*
D03*
X196088D02*
D03*
Y181356D02*
D03*
X191008D02*
D03*
X193548D02*
D03*
X185928D02*
D03*
X188468D02*
D03*
X180848D02*
D03*
X183388D02*
D03*
Y183896D02*
D03*
X180848D02*
D03*
X188468D02*
D03*
X185928D02*
D03*
X193548D02*
D03*
X191008D02*
D03*
X196088D02*
D03*
X198628Y181356D02*
D03*
X201168D02*
D03*
X198628Y183896D02*
D03*
X201168D02*
D03*
D25*
X56744Y180643D02*
D03*
Y155653D02*
D03*
D26*
X58164Y162608D02*
D03*
D27*
X55324Y163993D02*
D03*
X58164Y165378D02*
D03*
X55324Y166763D02*
D03*
X58164Y168148D02*
D03*
X55324Y169533D02*
D03*
X58164Y170918D02*
D03*
X55324Y172303D02*
D03*
X58164Y173688D02*
D03*
D28*
X150000Y122000D02*
D03*
X55000Y189000D02*
D03*
Y55000D02*
D03*
X244856Y54864D02*
D03*
X245000Y189000D02*
D03*
D29*
X164592Y71120D02*
D03*
Y66320D02*
D03*
Y61520D02*
D03*
X146304Y71120D02*
D03*
Y66320D02*
D03*
Y61520D02*
D03*
X132588Y71120D02*
D03*
Y66320D02*
D03*
Y61520D02*
D03*
X119380Y71120D02*
D03*
Y66320D02*
D03*
Y61520D02*
D03*
X100584Y64516D02*
D03*
Y59716D02*
D03*
Y54916D02*
D03*
Y80772D02*
D03*
Y75972D02*
D03*
Y71172D02*
D03*
Y97028D02*
D03*
Y92228D02*
D03*
Y87428D02*
D03*
Y113284D02*
D03*
Y108484D02*
D03*
Y103684D02*
D03*
D30*
X90932Y54356D02*
D03*
X93472D02*
D03*
X84328D02*
D03*
X86868D02*
D03*
D31*
X150420Y102108D02*
D03*
X155220D02*
D03*
X160020D02*
D03*
X150420Y87376D02*
D03*
X155220D02*
D03*
X160020D02*
D03*
X70156Y102108D02*
D03*
X74956D02*
D03*
X79756D02*
D03*
X70156Y88900D02*
D03*
X74956D02*
D03*
X79756D02*
D03*
X70156Y74676D02*
D03*
X74956D02*
D03*
X79756D02*
D03*
X70156Y60960D02*
D03*
X74956D02*
D03*
X79756D02*
D03*
D32*
X61976Y101092D02*
D03*
Y98552D02*
D03*
Y103632D02*
D03*
X111760Y61468D02*
D03*
Y64008D02*
D03*
Y58928D02*
D03*
X61976Y87884D02*
D03*
Y85344D02*
D03*
Y90424D02*
D03*
X111760Y77216D02*
D03*
Y79756D02*
D03*
Y74676D02*
D03*
X61976Y73660D02*
D03*
Y71120D02*
D03*
Y76200D02*
D03*
X111760Y93472D02*
D03*
Y96012D02*
D03*
Y90932D02*
D03*
X61976Y59944D02*
D03*
Y57404D02*
D03*
Y62484D02*
D03*
X111760Y109728D02*
D03*
Y112268D02*
D03*
Y107188D02*
D03*
D33*
X182880Y79756D02*
D03*
X185420D02*
D03*
X182880Y116332D02*
D03*
X185420D02*
D03*
X89916Y91948D02*
D03*
X87376D02*
D03*
X121412Y85344D02*
D03*
X118872D02*
D03*
X89916Y82804D02*
D03*
X87376D02*
D03*
X121412Y93980D02*
D03*
X118872D02*
D03*
X89916Y74168D02*
D03*
X87376D02*
D03*
X121412Y102616D02*
D03*
X118872D02*
D03*
X89916Y65532D02*
D03*
X87376D02*
D03*
X121412Y111760D02*
D03*
X118872D02*
D03*
X182880Y107188D02*
D03*
X185420D02*
D03*
X182880Y98044D02*
D03*
X185420D02*
D03*
X182880Y88900D02*
D03*
X185420D02*
D03*
X182880Y70612D02*
D03*
X185420D02*
D03*
D34*
X171704Y52832D02*
D03*
Y55372D02*
D03*
X164592Y52832D02*
D03*
Y55372D02*
D03*
X157480Y52832D02*
D03*
Y55372D02*
D03*
X146304Y52832D02*
D03*
Y55372D02*
D03*
X132588Y52832D02*
D03*
Y55372D02*
D03*
X119380Y52832D02*
D03*
Y55372D02*
D03*
X73152Y182880D02*
D03*
Y180340D02*
D03*
Y176276D02*
D03*
Y173736D02*
D03*
Y169672D02*
D03*
Y167132D02*
D03*
Y163068D02*
D03*
Y160528D02*
D03*
Y155956D02*
D03*
Y153416D02*
D03*
D35*
X67056Y143764D02*
D03*
X61976D02*
D03*
X64516D02*
D03*
X63442Y139600D02*
D03*
X65982D02*
D03*
X60902D02*
D03*
X68522D02*
D03*
D36*
X135128Y116840D02*
D03*
Y127000D02*
D03*
D37*
X245364Y138684D02*
D03*
Y142494D02*
D03*
Y146304D02*
D03*
D38*
X245872Y153696D02*
D03*
Y158496D02*
D03*
D39*
X245364Y168148D02*
D03*
Y164648D02*
D03*
D40*
X239776Y163068D02*
D03*
Y158496D02*
D03*
Y146304D02*
D03*
Y138684D02*
D03*
X93472Y132588D02*
D03*
X94996Y134112D02*
D03*
X102616Y133096D02*
D03*
X137668Y178816D02*
D03*
X201168D02*
D03*
X89408Y96012D02*
D03*
X104648Y99568D02*
D03*
X118872Y106680D02*
D03*
X111760Y103124D02*
D03*
X108204D02*
D03*
X68072Y152908D02*
D03*
X67056Y168656D02*
D03*
Y171196D02*
D03*
Y166116D02*
D03*
Y163576D02*
D03*
X72644Y187452D02*
D03*
X76200Y164592D02*
D03*
X240284Y133096D02*
D03*
X57912Y184912D02*
D03*
X76200Y150368D02*
D03*
X104648Y152400D02*
D03*
X57404Y148336D02*
D03*
Y150876D02*
D03*
X225552Y136652D02*
D03*
X67564Y133604D02*
D03*
X72644Y140208D02*
D03*
Y142240D02*
D03*
X112776Y151384D02*
D03*
X94742Y120396D02*
D03*
X88900Y134112D02*
D03*
X86868D02*
D03*
X84836D02*
D03*
X82804D02*
D03*
X80772D02*
D03*
X78740D02*
D03*
X76708D02*
D03*
X62992Y120396D02*
D03*
X74676Y134112D02*
D03*
X72644D02*
D03*
X73660Y147320D02*
D03*
X71958Y145771D02*
D03*
X191008Y186944D02*
D03*
X235204D02*
D03*
X135128Y175768D02*
D03*
X141732Y186436D02*
D03*
X122428Y187960D02*
D03*
X119888Y189484D02*
D03*
X180848Y175768D02*
D03*
X129540Y116840D02*
D03*
X169164Y85344D02*
D03*
X166624D02*
D03*
X164084D02*
D03*
X160020Y80772D02*
D03*
X163068Y94488D02*
D03*
X141732Y189484D02*
D03*
X146304Y83312D02*
D03*
X150368Y82296D02*
D03*
X100584Y121412D02*
D03*
X104140D02*
D03*
X110236Y129032D02*
D03*
X124968Y189484D02*
D03*
X117348Y186436D02*
D03*
X140208Y88392D02*
D03*
X141732Y86868D02*
D03*
X143256Y88392D02*
D03*
X144780Y89916D02*
D03*
X130048Y191008D02*
D03*
X67056Y173736D02*
D03*
Y176276D02*
D03*
X242824Y74676D02*
D03*
Y65532D02*
D03*
X57404Y132588D02*
D03*
X221488Y107188D02*
D03*
X220472Y84836D02*
D03*
X218948Y61468D02*
D03*
X203200Y53340D02*
D03*
X231648Y52832D02*
D03*
X61976Y82296D02*
D03*
Y95504D02*
D03*
Y68072D02*
D03*
X73152Y81788D02*
D03*
Y67564D02*
D03*
X94996Y107696D02*
D03*
Y105156D02*
D03*
Y102616D02*
D03*
Y100076D02*
D03*
X76708Y81788D02*
D03*
X71628Y95504D02*
D03*
X76708Y94488D02*
D03*
X59436Y93472D02*
D03*
X86360Y98044D02*
D03*
X108204Y58420D02*
D03*
Y74168D02*
D03*
Y90424D02*
D03*
X105664Y53848D02*
D03*
X104648Y68072D02*
D03*
Y84328D02*
D03*
X111760Y72136D02*
D03*
Y56388D02*
D03*
X93472Y58420D02*
D03*
X86868D02*
D03*
X70104Y54356D02*
D03*
X111760Y88392D02*
D03*
X125984Y98552D02*
D03*
Y104140D02*
D03*
Y93472D02*
D03*
Y96012D02*
D03*
X153416Y52832D02*
D03*
X142240D02*
D03*
X128524D02*
D03*
X115316D02*
D03*
X167640Y55880D02*
D03*
X122428D02*
D03*
X136144Y57912D02*
D03*
X149860D02*
D03*
X174752Y55880D02*
D03*
X161036Y57912D02*
D03*
X160528Y55880D02*
D03*
X185420D02*
D03*
X170180Y59436D02*
D03*
X177800Y57912D02*
D03*
X180340Y76200D02*
D03*
Y67056D02*
D03*
X176784Y92456D02*
D03*
Y94996D02*
D03*
Y97536D02*
D03*
X165608Y96520D02*
D03*
Y99060D02*
D03*
Y101600D02*
D03*
Y93980D02*
D03*
X172212Y85344D02*
D03*
X135636Y55880D02*
D03*
X149352D02*
D03*
X157480Y94488D02*
D03*
X124968Y57912D02*
D03*
X118872Y81788D02*
D03*
X57912Y60452D02*
D03*
X57404Y62992D02*
D03*
Y72136D02*
D03*
Y81280D02*
D03*
Y140208D02*
D03*
Y137668D02*
D03*
Y125984D02*
D03*
X175768Y148336D02*
D03*
X177292Y145288D02*
D03*
X174244Y151384D02*
D03*
X122428Y132588D02*
D03*
X117348Y135636D02*
D03*
X119888Y134112D02*
D03*
X135128Y147828D02*
D03*
X132588Y146304D02*
D03*
X130048Y144780D02*
D03*
X127508Y143256D02*
D03*
X82804Y113284D02*
D03*
X246380Y87884D02*
D03*
Y98044D02*
D03*
X176784Y100076D02*
D03*
X185420Y93472D02*
D03*
X118364Y129032D02*
D03*
X100584Y117348D02*
D03*
X178816Y143256D02*
D03*
X203708D02*
D03*
X201168D02*
D03*
X198628D02*
D03*
X196088D02*
D03*
X193548D02*
D03*
X191008D02*
D03*
X188468D02*
D03*
X199644Y129032D02*
D03*
X222504D02*
D03*
X216408Y133096D02*
D03*
X142748Y177292D02*
D03*
X206248D02*
D03*
X57912Y120396D02*
D03*
X59944Y121920D02*
D03*
X60960Y114300D02*
D03*
Y111760D02*
D03*
X60452Y109220D02*
D03*
X80772Y118364D02*
D03*
X75184Y114300D02*
D03*
X89408Y129032D02*
D03*
X142240Y155448D02*
D03*
X70104Y133604D02*
D03*
X104648Y167640D02*
D03*
X151892Y192532D02*
D03*
X154432D02*
D03*
X156972D02*
D03*
X159512D02*
D03*
X162052D02*
D03*
X164592D02*
D03*
X167132D02*
D03*
X169672D02*
D03*
X168402Y190500D02*
D03*
X165862D02*
D03*
X163322D02*
D03*
X160782D02*
D03*
X158242D02*
D03*
X155702D02*
D03*
X153162D02*
D03*
X169672Y188468D02*
D03*
X167132D02*
D03*
X164592D02*
D03*
X162052D02*
D03*
X159512D02*
D03*
X156972D02*
D03*
X154432D02*
D03*
X151892D02*
D03*
X153162Y186436D02*
D03*
X155702D02*
D03*
X158242D02*
D03*
X160782D02*
D03*
X163322D02*
D03*
X165862D02*
D03*
X168402D02*
D03*
M02*
