G04 Layer_Color=128*
%FSLAX43Y43*%
%MOMM*%
G71*
G01*
G75*
%ADD41C,0.051*%
D41*
X53348Y140208D02*
X54348D01*
X53848Y139708D02*
Y140708D01*
X53348Y137668D02*
X54348D01*
X53848Y137168D02*
Y138168D01*
X53348Y135128D02*
X54348D01*
X53848Y134628D02*
Y135628D01*
X53348Y132588D02*
X54348D01*
X53848Y132088D02*
Y133088D01*
X53348Y128524D02*
X54348D01*
X53848Y128024D02*
Y129024D01*
X53348Y125984D02*
X54348D01*
X53848Y125484D02*
Y126484D01*
X53348Y123444D02*
X54348D01*
X53848Y122944D02*
Y123944D01*
X53348Y120904D02*
X54348D01*
X53848Y120404D02*
Y121404D01*
X53348Y116840D02*
X54348D01*
X53848Y116340D02*
Y117340D01*
X53348Y114300D02*
X54348D01*
X53848Y113800D02*
Y114800D01*
X53348Y111760D02*
X54348D01*
X53848Y111260D02*
Y112260D01*
X53348Y109220D02*
X54348D01*
X53848Y108720D02*
Y109720D01*
X233782Y104648D02*
X234982D01*
X234382Y104048D02*
Y105248D01*
X231282Y104648D02*
X232482D01*
X231882Y104048D02*
Y105248D01*
X228782Y104648D02*
X229982D01*
X229382Y104048D02*
Y105248D01*
X226282Y104648D02*
X227482D01*
X226882Y104048D02*
Y105248D01*
X222532Y115648D02*
X225732D01*
X224132Y114048D02*
Y117248D01*
X235532Y115648D02*
X238732D01*
X237132Y114048D02*
Y117248D01*
X245880Y60452D02*
X246880D01*
X246380Y59952D02*
Y60952D01*
X245880Y62992D02*
X246880D01*
X246380Y62492D02*
Y63492D01*
X245880Y65532D02*
X246880D01*
X246380Y65032D02*
Y66032D01*
X245880Y69596D02*
X246880D01*
X246380Y69096D02*
Y70096D01*
X245880Y72136D02*
X246880D01*
X246380Y71636D02*
Y72636D01*
X245880Y74676D02*
X246880D01*
X246380Y74176D02*
Y75176D01*
X245880Y80264D02*
X246880D01*
X246380Y79764D02*
Y80764D01*
X245880Y82804D02*
X246880D01*
X246380Y82304D02*
Y83304D01*
X245880Y85344D02*
X246880D01*
X246380Y84844D02*
Y85844D01*
X89724Y150876D02*
X91124D01*
X90424Y150176D02*
Y151576D01*
X99884Y150876D02*
X101284D01*
X100584Y150176D02*
Y151576D01*
X79564Y150876D02*
X80964D01*
X80264Y150176D02*
Y151576D01*
X92264Y171196D02*
X93664D01*
X92964Y170496D02*
Y171896D01*
X87184Y171196D02*
X88584D01*
X87884Y170496D02*
Y171896D01*
X53348Y100076D02*
X54348D01*
X53848Y99576D02*
Y100576D01*
X53348Y102616D02*
X54348D01*
X53848Y102116D02*
Y103116D01*
X53348Y105156D02*
X54348D01*
X53848Y104656D02*
Y105656D01*
X139637Y183896D02*
X140779D01*
X140208Y183324D02*
Y184467D01*
X137096Y183896D02*
X138240D01*
X137668Y183324D02*
Y184467D01*
X134557Y183896D02*
X135699D01*
X135128Y183324D02*
Y184467D01*
X139637Y181356D02*
X140779D01*
X140208Y180785D02*
Y181928D01*
X137096Y181356D02*
X138240D01*
X137668Y180785D02*
Y181928D01*
X134557Y181356D02*
X135699D01*
X135128Y180785D02*
Y181928D01*
X132016Y183896D02*
X133160D01*
X132588Y183324D02*
Y184467D01*
X126937Y183896D02*
X128079D01*
X127508Y183324D02*
Y184467D01*
X129477Y183896D02*
X130620D01*
X130048Y183324D02*
Y184467D01*
X121856Y183896D02*
X122999D01*
X122428Y183324D02*
Y184467D01*
X124396Y183896D02*
X125539D01*
X124968Y183324D02*
Y184467D01*
X116776Y183896D02*
X117920D01*
X117348Y183324D02*
Y184467D01*
X119316Y183896D02*
X120460D01*
X119888Y183324D02*
Y184467D01*
X119316Y181356D02*
X120460D01*
X119888Y180785D02*
Y181928D01*
X116776Y181356D02*
X117920D01*
X117348Y180785D02*
Y181928D01*
X124396Y181356D02*
X125539D01*
X124968Y180785D02*
Y181928D01*
X121856Y181356D02*
X122999D01*
X122428Y180785D02*
Y181928D01*
X129477Y181356D02*
X130620D01*
X130048Y180785D02*
Y181928D01*
X126937Y181356D02*
X128079D01*
X127508Y180785D02*
Y181928D01*
X132016Y181356D02*
X133160D01*
X132588Y180785D02*
Y181928D01*
X132016Y138176D02*
X133160D01*
X132588Y137605D02*
Y138747D01*
X126937Y138176D02*
X128079D01*
X127508Y137605D02*
Y138747D01*
X129477Y138176D02*
X130620D01*
X130048Y137605D02*
Y138747D01*
X121856Y138176D02*
X122999D01*
X122428Y137605D02*
Y138747D01*
X124396Y138176D02*
X125539D01*
X124968Y137605D02*
Y138747D01*
X116776Y138176D02*
X117920D01*
X117348Y137605D02*
Y138747D01*
X119316Y138176D02*
X120460D01*
X119888Y137605D02*
Y138747D01*
X134557Y138176D02*
X135699D01*
X135128Y137605D02*
Y138747D01*
X137096Y138176D02*
X138240D01*
X137668Y137605D02*
Y138747D01*
X139637Y138176D02*
X140779D01*
X140208Y137605D02*
Y138747D01*
X137096Y140716D02*
X138240D01*
X137668Y140145D02*
Y141288D01*
X134557Y140716D02*
X135699D01*
X135128Y140145D02*
Y141288D01*
X119316Y140716D02*
X120460D01*
X119888Y140145D02*
Y141288D01*
X116776Y140716D02*
X117920D01*
X117348Y140145D02*
Y141288D01*
X124396Y140716D02*
X125539D01*
X124968Y140145D02*
Y141288D01*
X121856Y140716D02*
X122999D01*
X122428Y140145D02*
Y141288D01*
X129477Y140716D02*
X130620D01*
X130048Y140145D02*
Y141288D01*
X126937Y140716D02*
X128079D01*
X127508Y140145D02*
Y141288D01*
X132016Y140716D02*
X133160D01*
X132588Y140145D02*
Y141288D01*
X139637Y140716D02*
X140779D01*
X140208Y140145D02*
Y141288D01*
X203137Y140716D02*
X204279D01*
X203708Y140145D02*
Y141288D01*
X195516Y140716D02*
X196660D01*
X196088Y140145D02*
Y141288D01*
X190436Y140716D02*
X191579D01*
X191008Y140145D02*
Y141288D01*
X192977Y140716D02*
X194120D01*
X193548Y140145D02*
Y141288D01*
X185357Y140716D02*
X186499D01*
X185928Y140145D02*
Y141288D01*
X187896Y140716D02*
X189040D01*
X188468Y140145D02*
Y141288D01*
X180277Y140716D02*
X181419D01*
X180848Y140145D02*
Y141288D01*
X182816Y140716D02*
X183960D01*
X183388Y140145D02*
Y141288D01*
X198057Y140716D02*
X199199D01*
X198628Y140145D02*
Y141288D01*
X200596Y140716D02*
X201740D01*
X201168Y140145D02*
Y141288D01*
X203137Y138176D02*
X204279D01*
X203708Y137605D02*
Y138747D01*
X200596Y138176D02*
X201740D01*
X201168Y137605D02*
Y138747D01*
X198057Y138176D02*
X199199D01*
X198628Y137605D02*
Y138747D01*
X182816Y138176D02*
X183960D01*
X183388Y137605D02*
Y138747D01*
X180277Y138176D02*
X181419D01*
X180848Y137605D02*
Y138747D01*
X187896Y138176D02*
X189040D01*
X188468Y137605D02*
Y138747D01*
X185357Y138176D02*
X186499D01*
X185928Y137605D02*
Y138747D01*
X192977Y138176D02*
X194120D01*
X193548Y137605D02*
Y138747D01*
X190436Y138176D02*
X191579D01*
X191008Y137605D02*
Y138747D01*
X195516Y138176D02*
X196660D01*
X196088Y137605D02*
Y138747D01*
X195516Y181356D02*
X196660D01*
X196088Y180785D02*
Y181928D01*
X190436Y181356D02*
X191579D01*
X191008Y180785D02*
Y181928D01*
X192977Y181356D02*
X194120D01*
X193548Y180785D02*
Y181928D01*
X185357Y181356D02*
X186499D01*
X185928Y180785D02*
Y181928D01*
X187896Y181356D02*
X189040D01*
X188468Y180785D02*
Y181928D01*
X180277Y181356D02*
X181419D01*
X180848Y180785D02*
Y181928D01*
X182816Y181356D02*
X183960D01*
X183388Y180785D02*
Y181928D01*
X182816Y183896D02*
X183960D01*
X183388Y183324D02*
Y184467D01*
X180277Y183896D02*
X181419D01*
X180848Y183324D02*
Y184467D01*
X187896Y183896D02*
X189040D01*
X188468Y183324D02*
Y184467D01*
X185357Y183896D02*
X186499D01*
X185928Y183324D02*
Y184467D01*
X192977Y183896D02*
X194120D01*
X193548Y183324D02*
Y184467D01*
X190436Y183896D02*
X191579D01*
X191008Y183324D02*
Y184467D01*
X195516Y183896D02*
X196660D01*
X196088Y183324D02*
Y184467D01*
X198057Y181356D02*
X199199D01*
X198628Y180785D02*
Y181928D01*
X200596Y181356D02*
X201740D01*
X201168Y180785D02*
Y181928D01*
X203137Y181356D02*
X204279D01*
X203708Y180785D02*
Y181928D01*
X198057Y183896D02*
X199199D01*
X198628Y183324D02*
Y184467D01*
X200596Y183896D02*
X201740D01*
X201168Y183324D02*
Y184467D01*
X203137Y183896D02*
X204279D01*
X203708Y183324D02*
Y184467D01*
X55114Y180643D02*
X58374D01*
X56744Y179013D02*
Y182273D01*
X55114Y155653D02*
X58374D01*
X56744Y154023D02*
Y157283D01*
X57619Y162608D02*
X58709D01*
X58164Y162063D02*
Y163153D01*
X54779Y163993D02*
X55869D01*
X55324Y163448D02*
Y164538D01*
X57619Y165378D02*
X58709D01*
X58164Y164833D02*
Y165923D01*
X54779Y166763D02*
X55869D01*
X55324Y166218D02*
Y167308D01*
X57619Y168148D02*
X58709D01*
X58164Y167603D02*
Y168693D01*
X54779Y169533D02*
X55869D01*
X55324Y168988D02*
Y170078D01*
X57619Y170918D02*
X58709D01*
X58164Y170373D02*
Y171463D01*
X54779Y172303D02*
X55869D01*
X55324Y171758D02*
Y172848D01*
X57619Y173688D02*
X58709D01*
X58164Y173143D02*
Y174233D01*
X148250Y122000D02*
X151750D01*
X150000Y120250D02*
Y123750D01*
X163242Y71120D02*
X165942D01*
X164592Y69770D02*
Y72470D01*
X163242Y66320D02*
X165942D01*
X164592Y64970D02*
Y67670D01*
X163242Y61520D02*
X165942D01*
X164592Y60170D02*
Y62870D01*
X144954Y71120D02*
X147654D01*
X146304Y69770D02*
Y72470D01*
X144954Y66320D02*
X147654D01*
X146304Y64970D02*
Y67670D01*
X144954Y61520D02*
X147654D01*
X146304Y60170D02*
Y62870D01*
X131238Y71120D02*
X133938D01*
X132588Y69770D02*
Y72470D01*
X131238Y66320D02*
X133938D01*
X132588Y64970D02*
Y67670D01*
X131238Y61520D02*
X133938D01*
X132588Y60170D02*
Y62870D01*
X118030Y71120D02*
X120730D01*
X119380Y69770D02*
Y72470D01*
X118030Y66320D02*
X120730D01*
X119380Y64970D02*
Y67670D01*
X118030Y61520D02*
X120730D01*
X119380Y60170D02*
Y62870D01*
X99234Y64516D02*
X101934D01*
X100584Y63166D02*
Y65866D01*
X99234Y59716D02*
X101934D01*
X100584Y58366D02*
Y61066D01*
X99234Y54916D02*
X101934D01*
X100584Y53566D02*
Y56266D01*
X99234Y80772D02*
X101934D01*
X100584Y79422D02*
Y82122D01*
X99234Y75972D02*
X101934D01*
X100584Y74622D02*
Y77322D01*
X99234Y71172D02*
X101934D01*
X100584Y69822D02*
Y72522D01*
X99234Y97028D02*
X101934D01*
X100584Y95678D02*
Y98378D01*
X99234Y92228D02*
X101934D01*
X100584Y90878D02*
Y93578D01*
X99234Y87428D02*
X101934D01*
X100584Y86078D02*
Y88778D01*
X99234Y113284D02*
X101934D01*
X100584Y111934D02*
Y114634D01*
X99234Y108484D02*
X101934D01*
X100584Y107134D02*
Y109834D01*
X99234Y103684D02*
X101934D01*
X100584Y102334D02*
Y105034D01*
X90432Y54356D02*
X91432D01*
X90932Y53856D02*
Y54856D01*
X92972Y54356D02*
X93972D01*
X93472Y53856D02*
Y54856D01*
X83828Y54356D02*
X84828D01*
X84328Y53856D02*
Y54856D01*
X86368Y54356D02*
X87368D01*
X86868Y53856D02*
Y54856D01*
X149070Y102108D02*
X151770D01*
X150420Y100758D02*
Y103458D01*
X153870Y102108D02*
X156570D01*
X155220Y100758D02*
Y103458D01*
X158670Y102108D02*
X161370D01*
X160020Y100758D02*
Y103458D01*
X149070Y87376D02*
X151770D01*
X150420Y86026D02*
Y88726D01*
X153870Y87376D02*
X156570D01*
X155220Y86026D02*
Y88726D01*
X158670Y87376D02*
X161370D01*
X160020Y86026D02*
Y88726D01*
X68806Y102108D02*
X71506D01*
X70156Y100758D02*
Y103458D01*
X73606Y102108D02*
X76306D01*
X74956Y100758D02*
Y103458D01*
X78406Y102108D02*
X81106D01*
X79756Y100758D02*
Y103458D01*
X68806Y88900D02*
X71506D01*
X70156Y87550D02*
Y90250D01*
X73606Y88900D02*
X76306D01*
X74956Y87550D02*
Y90250D01*
X78406Y88900D02*
X81106D01*
X79756Y87550D02*
Y90250D01*
X68806Y74676D02*
X71506D01*
X70156Y73326D02*
Y76026D01*
X73606Y74676D02*
X76306D01*
X74956Y73326D02*
Y76026D01*
X78406Y74676D02*
X81106D01*
X79756Y73326D02*
Y76026D01*
X68806Y60960D02*
X71506D01*
X70156Y59610D02*
Y62310D01*
X73606Y60960D02*
X76306D01*
X74956Y59610D02*
Y62310D01*
X78406Y60960D02*
X81106D01*
X79756Y59610D02*
Y62310D01*
X61476Y101092D02*
X62476D01*
X61976Y100592D02*
Y101592D01*
X61476Y98552D02*
X62476D01*
X61976Y98052D02*
Y99052D01*
X61476Y103632D02*
X62476D01*
X61976Y103132D02*
Y104132D01*
X111260Y61468D02*
X112260D01*
X111760Y60968D02*
Y61968D01*
X111260Y64008D02*
X112260D01*
X111760Y63508D02*
Y64508D01*
X111260Y58928D02*
X112260D01*
X111760Y58428D02*
Y59428D01*
X61476Y87884D02*
X62476D01*
X61976Y87384D02*
Y88384D01*
X61476Y85344D02*
X62476D01*
X61976Y84844D02*
Y85844D01*
X61476Y90424D02*
X62476D01*
X61976Y89924D02*
Y90924D01*
X111260Y77216D02*
X112260D01*
X111760Y76716D02*
Y77716D01*
X111260Y79756D02*
X112260D01*
X111760Y79256D02*
Y80256D01*
X111260Y74676D02*
X112260D01*
X111760Y74176D02*
Y75176D01*
X61476Y73660D02*
X62476D01*
X61976Y73160D02*
Y74160D01*
X61476Y71120D02*
X62476D01*
X61976Y70620D02*
Y71620D01*
X61476Y76200D02*
X62476D01*
X61976Y75700D02*
Y76700D01*
X111260Y93472D02*
X112260D01*
X111760Y92972D02*
Y93972D01*
X111260Y96012D02*
X112260D01*
X111760Y95512D02*
Y96512D01*
X111260Y90932D02*
X112260D01*
X111760Y90432D02*
Y91432D01*
X61476Y59944D02*
X62476D01*
X61976Y59444D02*
Y60444D01*
X61476Y57404D02*
X62476D01*
X61976Y56904D02*
Y57904D01*
X61476Y62484D02*
X62476D01*
X61976Y61984D02*
Y62984D01*
X111260Y109728D02*
X112260D01*
X111760Y109228D02*
Y110228D01*
X111260Y112268D02*
X112260D01*
X111760Y111768D02*
Y112768D01*
X111260Y107188D02*
X112260D01*
X111760Y106688D02*
Y107688D01*
X233782Y81788D02*
X234982D01*
X234382Y81188D02*
Y82388D01*
X231282Y81788D02*
X232482D01*
X231882Y81188D02*
Y82388D01*
X228782Y81788D02*
X229982D01*
X229382Y81188D02*
Y82388D01*
X226282Y81788D02*
X227482D01*
X226882Y81188D02*
Y82388D01*
X222532Y92788D02*
X225732D01*
X224132Y91188D02*
Y94388D01*
X235532Y92788D02*
X238732D01*
X237132Y91188D02*
Y94388D01*
X233782Y58928D02*
X234982D01*
X234382Y58328D02*
Y59528D01*
X231282Y58928D02*
X232482D01*
X231882Y58328D02*
Y59528D01*
X228782Y58928D02*
X229982D01*
X229382Y58328D02*
Y59528D01*
X226282Y58928D02*
X227482D01*
X226882Y58328D02*
Y59528D01*
X222532Y69928D02*
X225732D01*
X224132Y68328D02*
Y71528D01*
X235532Y69928D02*
X238732D01*
X237132Y68328D02*
Y71528D01*
X182499Y79756D02*
X183261D01*
X182880Y79375D02*
Y80137D01*
X185039Y79756D02*
X185801D01*
X185420Y79375D02*
Y80137D01*
X182499Y116332D02*
X183261D01*
X182880Y115951D02*
Y116713D01*
X185039Y116332D02*
X185801D01*
X185420Y115951D02*
Y116713D01*
X89535Y91948D02*
X90297D01*
X89916Y91567D02*
Y92329D01*
X86995Y91948D02*
X87757D01*
X87376Y91567D02*
Y92329D01*
X121031Y85344D02*
X121793D01*
X121412Y84963D02*
Y85725D01*
X118491Y85344D02*
X119253D01*
X118872Y84963D02*
Y85725D01*
X89535Y82804D02*
X90297D01*
X89916Y82423D02*
Y83185D01*
X86995Y82804D02*
X87757D01*
X87376Y82423D02*
Y83185D01*
X121031Y93980D02*
X121793D01*
X121412Y93599D02*
Y94361D01*
X118491Y93980D02*
X119253D01*
X118872Y93599D02*
Y94361D01*
X89535Y74168D02*
X90297D01*
X89916Y73787D02*
Y74549D01*
X86995Y74168D02*
X87757D01*
X87376Y73787D02*
Y74549D01*
X121031Y102616D02*
X121793D01*
X121412Y102235D02*
Y102997D01*
X118491Y102616D02*
X119253D01*
X118872Y102235D02*
Y102997D01*
X89535Y65532D02*
X90297D01*
X89916Y65151D02*
Y65913D01*
X86995Y65532D02*
X87757D01*
X87376Y65151D02*
Y65913D01*
X121031Y111760D02*
X121793D01*
X121412Y111379D02*
Y112141D01*
X118491Y111760D02*
X119253D01*
X118872Y111379D02*
Y112141D01*
X182499Y107188D02*
X183261D01*
X182880Y106807D02*
Y107569D01*
X185039Y107188D02*
X185801D01*
X185420Y106807D02*
Y107569D01*
X182499Y98044D02*
X183261D01*
X182880Y97663D02*
Y98425D01*
X185039Y98044D02*
X185801D01*
X185420Y97663D02*
Y98425D01*
X182499Y88900D02*
X183261D01*
X182880Y88519D02*
Y89281D01*
X185039Y88900D02*
X185801D01*
X185420Y88519D02*
Y89281D01*
X182499Y70612D02*
X183261D01*
X182880Y70231D02*
Y70993D01*
X185039Y70612D02*
X185801D01*
X185420Y70231D02*
Y70993D01*
X171323Y52832D02*
X172085D01*
X171704Y52451D02*
Y53213D01*
X171323Y55372D02*
X172085D01*
X171704Y54991D02*
Y55753D01*
X164211Y52832D02*
X164973D01*
X164592Y52451D02*
Y53213D01*
X164211Y55372D02*
X164973D01*
X164592Y54991D02*
Y55753D01*
X157099Y52832D02*
X157861D01*
X157480Y52451D02*
Y53213D01*
X157099Y55372D02*
X157861D01*
X157480Y54991D02*
Y55753D01*
X145923Y52832D02*
X146685D01*
X146304Y52451D02*
Y53213D01*
X145923Y55372D02*
X146685D01*
X146304Y54991D02*
Y55753D01*
X132207Y52832D02*
X132969D01*
X132588Y52451D02*
Y53213D01*
X132207Y55372D02*
X132969D01*
X132588Y54991D02*
Y55753D01*
X118999Y52832D02*
X119761D01*
X119380Y52451D02*
Y53213D01*
X118999Y55372D02*
X119761D01*
X119380Y54991D02*
Y55753D01*
X198272Y121824D02*
X200272D01*
X199272Y120824D02*
Y122824D01*
X196322Y127224D02*
X197322D01*
X196822Y126724D02*
Y127724D01*
X192822Y127224D02*
X193822D01*
X193322Y126724D02*
Y127724D01*
X196322Y53624D02*
X197322D01*
X196822Y53124D02*
Y54124D01*
X192822Y53624D02*
X193822D01*
X193322Y53124D02*
Y54124D01*
X195572Y121924D02*
X196572D01*
X196072Y121424D02*
Y122424D01*
X193572Y58924D02*
X194572D01*
X194072Y58424D02*
Y59424D01*
X198272Y59024D02*
X200272D01*
X199272Y58024D02*
Y60024D01*
X189872Y57824D02*
X191872D01*
X190872Y56824D02*
Y58824D01*
X189872Y123024D02*
X191872D01*
X190872Y122024D02*
Y124024D01*
X215544Y121824D02*
X217544D01*
X216544Y120824D02*
Y122824D01*
X213594Y127224D02*
X214594D01*
X214094Y126724D02*
Y127724D01*
X210094Y127224D02*
X211094D01*
X210594Y126724D02*
Y127724D01*
X213594Y53624D02*
X214594D01*
X214094Y53124D02*
Y54124D01*
X210094Y53624D02*
X211094D01*
X210594Y53124D02*
Y54124D01*
X212844Y121924D02*
X213844D01*
X213344Y121424D02*
Y122424D01*
X210844Y58924D02*
X211844D01*
X211344Y58424D02*
Y59424D01*
X215544Y59024D02*
X217544D01*
X216544Y58024D02*
Y60024D01*
X207144Y57824D02*
X209144D01*
X208144Y56824D02*
Y58824D01*
X207144Y123024D02*
X209144D01*
X208144Y122024D02*
Y124024D01*
X53250Y189000D02*
X56750D01*
X55000Y187250D02*
Y190750D01*
X53348Y149352D02*
X54348D01*
X53848Y148852D02*
Y149852D01*
X53348Y146812D02*
X54348D01*
X53848Y146312D02*
Y147312D01*
X53348Y144272D02*
X54348D01*
X53848Y143772D02*
Y144772D01*
X53348Y92964D02*
X54348D01*
X53848Y92464D02*
Y93464D01*
X53348Y90424D02*
X54348D01*
X53848Y89924D02*
Y90924D01*
X53348Y87884D02*
X54348D01*
X53848Y87384D02*
Y88384D01*
X53348Y83820D02*
X54348D01*
X53848Y83320D02*
Y84320D01*
X53348Y81280D02*
X54348D01*
X53848Y80780D02*
Y81780D01*
X53348Y78740D02*
X54348D01*
X53848Y78240D02*
Y79240D01*
X53348Y74676D02*
X54348D01*
X53848Y74176D02*
Y75176D01*
X53348Y72136D02*
X54348D01*
X53848Y71636D02*
Y72636D01*
X53348Y69596D02*
X54348D01*
X53848Y69096D02*
Y70096D01*
X53348Y65532D02*
X54348D01*
X53848Y65032D02*
Y66032D01*
X53348Y62992D02*
X54348D01*
X53848Y62492D02*
Y63492D01*
X53348Y60452D02*
X54348D01*
X53848Y59952D02*
Y60952D01*
X53250Y55000D02*
X56750D01*
X55000Y53250D02*
Y56750D01*
X66675Y143764D02*
X67437D01*
X67056Y143383D02*
Y144145D01*
X61595Y143764D02*
X62357D01*
X61976Y143383D02*
Y144145D01*
X64135Y143764D02*
X64897D01*
X64516Y143383D02*
Y144145D01*
X72771Y182880D02*
X73533D01*
X73152Y182499D02*
Y183261D01*
X72771Y180340D02*
X73533D01*
X73152Y179959D02*
Y180721D01*
X72771Y176276D02*
X73533D01*
X73152Y175895D02*
Y176657D01*
X72771Y173736D02*
X73533D01*
X73152Y173355D02*
Y174117D01*
X72771Y169672D02*
X73533D01*
X73152Y169291D02*
Y170053D01*
X72771Y167132D02*
X73533D01*
X73152Y166751D02*
Y167513D01*
X72771Y163068D02*
X73533D01*
X73152Y162687D02*
Y163449D01*
X72771Y160528D02*
X73533D01*
X73152Y160147D02*
Y160909D01*
X72771Y155956D02*
X73533D01*
X73152Y155575D02*
Y156337D01*
X72771Y153416D02*
X73533D01*
X73152Y153035D02*
Y153797D01*
X134874Y116840D02*
X135382D01*
X135128Y116586D02*
Y117094D01*
X134874Y127000D02*
X135382D01*
X135128Y126746D02*
Y127254D01*
X243106Y54864D02*
X246606D01*
X244856Y53114D02*
Y56614D01*
X245880Y90424D02*
X246880D01*
X246380Y89924D02*
Y90924D01*
X245880Y92964D02*
X246880D01*
X246380Y92464D02*
Y93464D01*
X245880Y95504D02*
X246880D01*
X246380Y95004D02*
Y96004D01*
X245372Y123764D02*
X246372D01*
X245872Y123264D02*
Y124264D01*
X245372Y126304D02*
X246372D01*
X245872Y125804D02*
Y126804D01*
X245372Y130368D02*
X246372D01*
X245872Y129868D02*
Y130868D01*
X245372Y132908D02*
X246372D01*
X245872Y132408D02*
Y133408D01*
X244729Y138684D02*
X245999D01*
X245364Y138049D02*
Y139319D01*
X244729Y142494D02*
X245999D01*
X245364Y141859D02*
Y143129D01*
X244729Y146304D02*
X245999D01*
X245364Y145669D02*
Y146939D01*
X245172Y153696D02*
X246572D01*
X245872Y152996D02*
Y154396D01*
X245172Y158496D02*
X246572D01*
X245872Y157796D02*
Y159196D01*
X244764Y168148D02*
X245964D01*
X245364Y167548D02*
Y168748D01*
X244764Y164648D02*
X245964D01*
X245364Y164048D02*
Y165248D01*
X243250Y189000D02*
X246750D01*
X245000Y187250D02*
Y190750D01*
X63061Y139600D02*
X63823D01*
X63442Y139219D02*
Y139981D01*
X65601Y139600D02*
X66363D01*
X65982Y139219D02*
Y139981D01*
X60521Y139600D02*
X61283D01*
X60902Y139219D02*
Y139981D01*
X68141Y139600D02*
X68903D01*
X68522Y139219D02*
Y139981D01*
X239420Y163068D02*
X240132D01*
X239776Y162712D02*
Y163424D01*
X239420Y158496D02*
X240132D01*
X239776Y158140D02*
Y158852D01*
X239420Y146304D02*
X240132D01*
X239776Y145948D02*
Y146660D01*
X239420Y138684D02*
X240132D01*
X239776Y138328D02*
Y139040D01*
X93116Y132588D02*
X93828D01*
X93472Y132232D02*
Y132944D01*
X94640Y134112D02*
X95352D01*
X94996Y133756D02*
Y134468D01*
X102260Y133096D02*
X102972D01*
X102616Y132740D02*
Y133452D01*
X137312Y178816D02*
X138024D01*
X137668Y178460D02*
Y179172D01*
X200812Y178816D02*
X201524D01*
X201168Y178460D02*
Y179172D01*
X89052Y96012D02*
X89764D01*
X89408Y95656D02*
Y96368D01*
X104292Y99568D02*
X105004D01*
X104648Y99212D02*
Y99924D01*
X118516Y106680D02*
X119228D01*
X118872Y106324D02*
Y107036D01*
X111404Y103124D02*
X112116D01*
X111760Y102768D02*
Y103480D01*
X107848Y103124D02*
X108560D01*
X108204Y102768D02*
Y103480D01*
X67716Y152908D02*
X68428D01*
X68072Y152552D02*
Y153264D01*
X66700Y168656D02*
X67412D01*
X67056Y168300D02*
Y169012D01*
X66700Y171196D02*
X67412D01*
X67056Y170840D02*
Y171552D01*
X66700Y166116D02*
X67412D01*
X67056Y165760D02*
Y166472D01*
X66700Y163576D02*
X67412D01*
X67056Y163220D02*
Y163932D01*
X72288Y187452D02*
X73000D01*
X72644Y187096D02*
Y187808D01*
X75844Y164592D02*
X76556D01*
X76200Y164236D02*
Y164948D01*
X239928Y133096D02*
X240640D01*
X240284Y132740D02*
Y133452D01*
X57556Y184912D02*
X58268D01*
X57912Y184556D02*
Y185268D01*
X75844Y150368D02*
X76556D01*
X76200Y150012D02*
Y150724D01*
X104292Y152400D02*
X105004D01*
X104648Y152044D02*
Y152756D01*
X57048Y148336D02*
X57760D01*
X57404Y147980D02*
Y148692D01*
X57048Y150876D02*
X57760D01*
X57404Y150520D02*
Y151232D01*
X225196Y136652D02*
X225908D01*
X225552Y136296D02*
Y137008D01*
X67208Y133604D02*
X67920D01*
X67564Y133248D02*
Y133960D01*
X72288Y140208D02*
X73000D01*
X72644Y139852D02*
Y140564D01*
X72288Y142240D02*
X73000D01*
X72644Y141884D02*
Y142596D01*
X112420Y151384D02*
X113132D01*
X112776Y151028D02*
Y151740D01*
X94386Y120396D02*
X95098D01*
X94742Y120040D02*
Y120752D01*
X88544Y134112D02*
X89256D01*
X88900Y133756D02*
Y134468D01*
X86512Y134112D02*
X87224D01*
X86868Y133756D02*
Y134468D01*
X84480Y134112D02*
X85192D01*
X84836Y133756D02*
Y134468D01*
X82448Y134112D02*
X83160D01*
X82804Y133756D02*
Y134468D01*
X80416Y134112D02*
X81128D01*
X80772Y133756D02*
Y134468D01*
X78384Y134112D02*
X79096D01*
X78740Y133756D02*
Y134468D01*
X76352Y134112D02*
X77064D01*
X76708Y133756D02*
Y134468D01*
X62636Y120396D02*
X63348D01*
X62992Y120040D02*
Y120752D01*
X74320Y134112D02*
X75032D01*
X74676Y133756D02*
Y134468D01*
X72288Y134112D02*
X73000D01*
X72644Y133756D02*
Y134468D01*
X73304Y147320D02*
X74016D01*
X73660Y146964D02*
Y147676D01*
X71603Y145771D02*
X72314D01*
X71958Y145415D02*
Y146126D01*
X190652Y186944D02*
X191364D01*
X191008Y186588D02*
Y187300D01*
X234848Y186944D02*
X235560D01*
X235204Y186588D02*
Y187300D01*
X134772Y175768D02*
X135484D01*
X135128Y175412D02*
Y176124D01*
X141376Y186436D02*
X142088D01*
X141732Y186080D02*
Y186792D01*
X122072Y187960D02*
X122784D01*
X122428Y187604D02*
Y188316D01*
X119532Y189484D02*
X120244D01*
X119888Y189128D02*
Y189840D01*
X180492Y175768D02*
X181204D01*
X180848Y175412D02*
Y176124D01*
X129184Y116840D02*
X129896D01*
X129540Y116484D02*
Y117196D01*
X168808Y85344D02*
X169520D01*
X169164Y84988D02*
Y85700D01*
X166268Y85344D02*
X166980D01*
X166624Y84988D02*
Y85700D01*
X163728Y85344D02*
X164440D01*
X164084Y84988D02*
Y85700D01*
X159664Y80772D02*
X160376D01*
X160020Y80416D02*
Y81128D01*
X162712Y94488D02*
X163424D01*
X163068Y94132D02*
Y94844D01*
X141376Y189484D02*
X142088D01*
X141732Y189128D02*
Y189840D01*
X145948Y83312D02*
X146660D01*
X146304Y82956D02*
Y83668D01*
X150012Y82296D02*
X150724D01*
X150368Y81940D02*
Y82652D01*
X100228Y121412D02*
X100940D01*
X100584Y121056D02*
Y121768D01*
X103784Y121412D02*
X104496D01*
X104140Y121056D02*
Y121768D01*
X109880Y129032D02*
X110592D01*
X110236Y128676D02*
Y129388D01*
X124612Y189484D02*
X125324D01*
X124968Y189128D02*
Y189840D01*
X116992Y186436D02*
X117704D01*
X117348Y186080D02*
Y186792D01*
X139852Y88392D02*
X140564D01*
X140208Y88036D02*
Y88748D01*
X141376Y86868D02*
X142088D01*
X141732Y86512D02*
Y87224D01*
X142900Y88392D02*
X143612D01*
X143256Y88036D02*
Y88748D01*
X144424Y89916D02*
X145136D01*
X144780Y89560D02*
Y90272D01*
X129692Y191008D02*
X130404D01*
X130048Y190652D02*
Y191364D01*
X66700Y173736D02*
X67412D01*
X67056Y173380D02*
Y174092D01*
X66700Y176276D02*
X67412D01*
X67056Y175920D02*
Y176632D01*
X242468Y74676D02*
X243180D01*
X242824Y74320D02*
Y75032D01*
X242468Y65532D02*
X243180D01*
X242824Y65176D02*
Y65888D01*
X57048Y132588D02*
X57760D01*
X57404Y132232D02*
Y132944D01*
X221132Y107188D02*
X221844D01*
X221488Y106832D02*
Y107544D01*
X220116Y84836D02*
X220828D01*
X220472Y84480D02*
Y85192D01*
X218592Y61468D02*
X219304D01*
X218948Y61112D02*
Y61824D01*
X202844Y53340D02*
X203556D01*
X203200Y52984D02*
Y53696D01*
X231292Y52832D02*
X232004D01*
X231648Y52476D02*
Y53188D01*
X61620Y82296D02*
X62332D01*
X61976Y81940D02*
Y82652D01*
X61620Y95504D02*
X62332D01*
X61976Y95148D02*
Y95860D01*
X61620Y68072D02*
X62332D01*
X61976Y67716D02*
Y68428D01*
X72796Y81788D02*
X73508D01*
X73152Y81432D02*
Y82144D01*
X72796Y67564D02*
X73508D01*
X73152Y67208D02*
Y67920D01*
X94640Y107696D02*
X95352D01*
X94996Y107340D02*
Y108052D01*
X94640Y105156D02*
X95352D01*
X94996Y104800D02*
Y105512D01*
X94640Y102616D02*
X95352D01*
X94996Y102260D02*
Y102972D01*
X94640Y100076D02*
X95352D01*
X94996Y99720D02*
Y100432D01*
X76352Y81788D02*
X77064D01*
X76708Y81432D02*
Y82144D01*
X71272Y95504D02*
X71984D01*
X71628Y95148D02*
Y95860D01*
X76352Y94488D02*
X77064D01*
X76708Y94132D02*
Y94844D01*
X59080Y93472D02*
X59792D01*
X59436Y93116D02*
Y93828D01*
X86004Y98044D02*
X86716D01*
X86360Y97688D02*
Y98400D01*
X107848Y58420D02*
X108560D01*
X108204Y58064D02*
Y58776D01*
X107848Y74168D02*
X108560D01*
X108204Y73812D02*
Y74524D01*
X107848Y90424D02*
X108560D01*
X108204Y90068D02*
Y90780D01*
X105308Y53848D02*
X106020D01*
X105664Y53492D02*
Y54204D01*
X104292Y68072D02*
X105004D01*
X104648Y67716D02*
Y68428D01*
X104292Y84328D02*
X105004D01*
X104648Y83972D02*
Y84684D01*
X111404Y72136D02*
X112116D01*
X111760Y71780D02*
Y72492D01*
X111404Y56388D02*
X112116D01*
X111760Y56032D02*
Y56744D01*
X93116Y58420D02*
X93828D01*
X93472Y58064D02*
Y58776D01*
X86512Y58420D02*
X87224D01*
X86868Y58064D02*
Y58776D01*
X69748Y54356D02*
X70460D01*
X70104Y54000D02*
Y54712D01*
X111404Y88392D02*
X112116D01*
X111760Y88036D02*
Y88748D01*
X125628Y98552D02*
X126340D01*
X125984Y98196D02*
Y98908D01*
X125628Y104140D02*
X126340D01*
X125984Y103784D02*
Y104496D01*
X125628Y93472D02*
X126340D01*
X125984Y93116D02*
Y93828D01*
X125628Y96012D02*
X126340D01*
X125984Y95656D02*
Y96368D01*
X153060Y52832D02*
X153772D01*
X153416Y52476D02*
Y53188D01*
X141884Y52832D02*
X142596D01*
X142240Y52476D02*
Y53188D01*
X128168Y52832D02*
X128880D01*
X128524Y52476D02*
Y53188D01*
X114960Y52832D02*
X115672D01*
X115316Y52476D02*
Y53188D01*
X167284Y55880D02*
X167996D01*
X167640Y55524D02*
Y56236D01*
X122072Y55880D02*
X122784D01*
X122428Y55524D02*
Y56236D01*
X135788Y57912D02*
X136500D01*
X136144Y57556D02*
Y58268D01*
X149504Y57912D02*
X150216D01*
X149860Y57556D02*
Y58268D01*
X174396Y55880D02*
X175108D01*
X174752Y55524D02*
Y56236D01*
X160680Y57912D02*
X161392D01*
X161036Y57556D02*
Y58268D01*
X160172Y55880D02*
X160884D01*
X160528Y55524D02*
Y56236D01*
X185064Y55880D02*
X185776D01*
X185420Y55524D02*
Y56236D01*
X169824Y59436D02*
X170536D01*
X170180Y59080D02*
Y59792D01*
X177444Y57912D02*
X178156D01*
X177800Y57556D02*
Y58268D01*
X179984Y76200D02*
X180696D01*
X180340Y75844D02*
Y76556D01*
X179984Y67056D02*
X180696D01*
X180340Y66700D02*
Y67412D01*
X176428Y92456D02*
X177140D01*
X176784Y92100D02*
Y92812D01*
X176428Y94996D02*
X177140D01*
X176784Y94640D02*
Y95352D01*
X176428Y97536D02*
X177140D01*
X176784Y97180D02*
Y97892D01*
X165252Y96520D02*
X165964D01*
X165608Y96164D02*
Y96876D01*
X165252Y99060D02*
X165964D01*
X165608Y98704D02*
Y99416D01*
X165252Y101600D02*
X165964D01*
X165608Y101244D02*
Y101956D01*
X165252Y93980D02*
X165964D01*
X165608Y93624D02*
Y94336D01*
X171856Y85344D02*
X172568D01*
X172212Y84988D02*
Y85700D01*
X135280Y55880D02*
X135992D01*
X135636Y55524D02*
Y56236D01*
X148996Y55880D02*
X149708D01*
X149352Y55524D02*
Y56236D01*
X157124Y94488D02*
X157836D01*
X157480Y94132D02*
Y94844D01*
X124612Y57912D02*
X125324D01*
X124968Y57556D02*
Y58268D01*
X118516Y81788D02*
X119228D01*
X118872Y81432D02*
Y82144D01*
X57556Y60452D02*
X58268D01*
X57912Y60096D02*
Y60808D01*
X57048Y62992D02*
X57760D01*
X57404Y62636D02*
Y63348D01*
X57048Y72136D02*
X57760D01*
X57404Y71780D02*
Y72492D01*
X57048Y81280D02*
X57760D01*
X57404Y80924D02*
Y81636D01*
X57048Y140208D02*
X57760D01*
X57404Y139852D02*
Y140564D01*
X57048Y137668D02*
X57760D01*
X57404Y137312D02*
Y138024D01*
X57048Y125984D02*
X57760D01*
X57404Y125628D02*
Y126340D01*
X175412Y148336D02*
X176124D01*
X175768Y147980D02*
Y148692D01*
X176936Y145288D02*
X177648D01*
X177292Y144932D02*
Y145644D01*
X173888Y151384D02*
X174600D01*
X174244Y151028D02*
Y151740D01*
X122072Y132588D02*
X122784D01*
X122428Y132232D02*
Y132944D01*
X116992Y135636D02*
X117704D01*
X117348Y135280D02*
Y135992D01*
X119532Y134112D02*
X120244D01*
X119888Y133756D02*
Y134468D01*
X134772Y147828D02*
X135484D01*
X135128Y147472D02*
Y148184D01*
X132232Y146304D02*
X132944D01*
X132588Y145948D02*
Y146660D01*
X129692Y144780D02*
X130404D01*
X130048Y144424D02*
Y145136D01*
X127152Y143256D02*
X127864D01*
X127508Y142900D02*
Y143612D01*
X82448Y113284D02*
X83160D01*
X82804Y112928D02*
Y113640D01*
X246024Y87884D02*
X246736D01*
X246380Y87528D02*
Y88240D01*
X246024Y98044D02*
X246736D01*
X246380Y97688D02*
Y98400D01*
X176428Y100076D02*
X177140D01*
X176784Y99720D02*
Y100432D01*
X185064Y93472D02*
X185776D01*
X185420Y93116D02*
Y93828D01*
X118008Y129032D02*
X118720D01*
X118364Y128676D02*
Y129388D01*
X100228Y117348D02*
X100940D01*
X100584Y116992D02*
Y117704D01*
X178460Y143256D02*
X179172D01*
X178816Y142900D02*
Y143612D01*
X203352Y143256D02*
X204064D01*
X203708Y142900D02*
Y143612D01*
X200812Y143256D02*
X201524D01*
X201168Y142900D02*
Y143612D01*
X198272Y143256D02*
X198984D01*
X198628Y142900D02*
Y143612D01*
X195732Y143256D02*
X196444D01*
X196088Y142900D02*
Y143612D01*
X193192Y143256D02*
X193904D01*
X193548Y142900D02*
Y143612D01*
X190652Y143256D02*
X191364D01*
X191008Y142900D02*
Y143612D01*
X188112Y143256D02*
X188824D01*
X188468Y142900D02*
Y143612D01*
X199288Y129032D02*
X200000D01*
X199644Y128676D02*
Y129388D01*
X222148Y129032D02*
X222860D01*
X222504Y128676D02*
Y129388D01*
X216052Y133096D02*
X216764D01*
X216408Y132740D02*
Y133452D01*
X142392Y177292D02*
X143104D01*
X142748Y176936D02*
Y177648D01*
X205892Y177292D02*
X206604D01*
X206248Y176936D02*
Y177648D01*
X57556Y120396D02*
X58268D01*
X57912Y120040D02*
Y120752D01*
X59588Y121920D02*
X60300D01*
X59944Y121564D02*
Y122276D01*
X60604Y114300D02*
X61316D01*
X60960Y113944D02*
Y114656D01*
X60604Y111760D02*
X61316D01*
X60960Y111404D02*
Y112116D01*
X60096Y109220D02*
X60808D01*
X60452Y108864D02*
Y109576D01*
X80416Y118364D02*
X81128D01*
X80772Y118008D02*
Y118720D01*
X74828Y114300D02*
X75540D01*
X75184Y113944D02*
Y114656D01*
X89052Y129032D02*
X89764D01*
X89408Y128676D02*
Y129388D01*
X141884Y155448D02*
X142596D01*
X142240Y155092D02*
Y155804D01*
X69748Y133604D02*
X70460D01*
X70104Y133248D02*
Y133960D01*
X104292Y167640D02*
X105004D01*
X104648Y167284D02*
Y167996D01*
X151536Y192532D02*
X152248D01*
X151892Y192176D02*
Y192888D01*
X154076Y192532D02*
X154788D01*
X154432Y192176D02*
Y192888D01*
X156616Y192532D02*
X157328D01*
X156972Y192176D02*
Y192888D01*
X159156Y192532D02*
X159868D01*
X159512Y192176D02*
Y192888D01*
X161696Y192532D02*
X162408D01*
X162052Y192176D02*
Y192888D01*
X164236Y192532D02*
X164948D01*
X164592Y192176D02*
Y192888D01*
X166776Y192532D02*
X167488D01*
X167132Y192176D02*
Y192888D01*
X169316Y192532D02*
X170028D01*
X169672Y192176D02*
Y192888D01*
X168046Y190500D02*
X168758D01*
X168402Y190144D02*
Y190856D01*
X165506Y190500D02*
X166218D01*
X165862Y190144D02*
Y190856D01*
X162966Y190500D02*
X163678D01*
X163322Y190144D02*
Y190856D01*
X160426Y190500D02*
X161138D01*
X160782Y190144D02*
Y190856D01*
X157886Y190500D02*
X158598D01*
X158242Y190144D02*
Y190856D01*
X155346Y190500D02*
X156058D01*
X155702Y190144D02*
Y190856D01*
X152806Y190500D02*
X153518D01*
X153162Y190144D02*
Y190856D01*
X169316Y188468D02*
X170028D01*
X169672Y188112D02*
Y188824D01*
X166776Y188468D02*
X167488D01*
X167132Y188112D02*
Y188824D01*
X164236Y188468D02*
X164948D01*
X164592Y188112D02*
Y188824D01*
X161696Y188468D02*
X162408D01*
X162052Y188112D02*
Y188824D01*
X159156Y188468D02*
X159868D01*
X159512Y188112D02*
Y188824D01*
X156616Y188468D02*
X157328D01*
X156972Y188112D02*
Y188824D01*
X154076Y188468D02*
X154788D01*
X154432Y188112D02*
Y188824D01*
X151536Y188468D02*
X152248D01*
X151892Y188112D02*
Y188824D01*
X152806Y186436D02*
X153518D01*
X153162Y186080D02*
Y186792D01*
X155346Y186436D02*
X156058D01*
X155702Y186080D02*
Y186792D01*
X157886Y186436D02*
X158598D01*
X158242Y186080D02*
Y186792D01*
X160426Y186436D02*
X161138D01*
X160782Y186080D02*
Y186792D01*
X162966Y186436D02*
X163678D01*
X163322Y186080D02*
Y186792D01*
X165506Y186436D02*
X166218D01*
X165862Y186080D02*
Y186792D01*
X168046Y186436D02*
X168758D01*
X168402Y186080D02*
Y186792D01*
M02*
