G04 Layer_Color=2752767*
%FSLAX43Y43*%
%MOMM*%
G71*
G01*
G75*
%ADD41C,0.051*%
%ADD42C,0.068*%
%ADD43C,0.034*%
D41*
X53645Y140005D02*
Y140411D01*
X54051D01*
Y140005D01*
X53645D01*
Y137465D02*
Y137871D01*
X54051D01*
Y137465D01*
X53645D01*
Y134925D02*
Y135331D01*
X54051D01*
Y134925D01*
X53645D01*
Y132385D02*
Y132791D01*
X54051D01*
Y132385D01*
X53645D01*
Y128321D02*
Y128727D01*
X54051D01*
Y128321D01*
X53645D01*
Y125781D02*
Y126187D01*
X54051D01*
Y125781D01*
X53645D01*
Y123241D02*
Y123647D01*
X54051D01*
Y123241D01*
X53645D01*
Y120701D02*
Y121107D01*
X54051D01*
Y120701D01*
X53645D01*
Y116637D02*
Y117043D01*
X54051D01*
Y116637D01*
X53645D01*
Y114097D02*
Y114503D01*
X54051D01*
Y114097D01*
X53645D01*
Y111557D02*
Y111963D01*
X54051D01*
Y111557D01*
X53645D01*
Y109017D02*
Y109423D01*
X54051D01*
Y109017D01*
X53645D01*
X224132Y115445D02*
X223929Y115851D01*
X224335D01*
X224132Y115445D01*
X237132D02*
X236929Y115851D01*
X237335D01*
X237132Y115445D01*
X246177Y60249D02*
Y60655D01*
X246583D01*
Y60249D01*
X246177D01*
Y62789D02*
Y63195D01*
X246583D01*
Y62789D01*
X246177D01*
Y65329D02*
Y65735D01*
X246583D01*
Y65329D01*
X246177D01*
Y69393D02*
Y69799D01*
X246583D01*
Y69393D01*
X246177D01*
Y71933D02*
Y72339D01*
X246583D01*
Y71933D01*
X246177D01*
Y74473D02*
Y74879D01*
X246583D01*
Y74473D01*
X246177D01*
Y80061D02*
Y80467D01*
X246583D01*
Y80061D01*
X246177D01*
Y82601D02*
Y83007D01*
X246583D01*
Y82601D01*
X246177D01*
Y85141D02*
Y85547D01*
X246583D01*
Y85141D01*
X246177D01*
X90424Y150673D02*
X90526Y150774D01*
X90627D01*
X90526Y150876D01*
X90627Y150978D01*
X90526D01*
X90424Y151079D01*
X90322Y150978D01*
X90221D01*
X90322Y150876D01*
X90221Y150774D01*
X90322D01*
X90424Y150673D01*
X100584D02*
X100686Y150774D01*
X100787D01*
X100686Y150876D01*
X100787Y150978D01*
X100686D01*
X100584Y151079D01*
X100482Y150978D01*
X100381D01*
X100482Y150876D01*
X100381Y150774D01*
X100482D01*
X100584Y150673D01*
X80264D02*
X80366Y150774D01*
X80467D01*
X80366Y150876D01*
X80467Y150978D01*
X80366D01*
X80264Y151079D01*
X80162Y150978D01*
X80061D01*
X80162Y150876D01*
X80061Y150774D01*
X80162D01*
X80264Y150673D01*
X92964Y170993D02*
X93066Y171094D01*
X93167D01*
X93066Y171196D01*
X93167Y171298D01*
X93066D01*
X92964Y171399D01*
X92862Y171298D01*
X92761D01*
X92862Y171196D01*
X92761Y171094D01*
X92862D01*
X92964Y170993D01*
X87884D02*
X87986Y171094D01*
X88087D01*
X87986Y171196D01*
X88087Y171298D01*
X87986D01*
X87884Y171399D01*
X87782Y171298D01*
X87681D01*
X87782Y171196D01*
X87681Y171094D01*
X87782D01*
X87884Y170993D01*
X53645Y99873D02*
Y100279D01*
X54051D01*
Y99873D01*
X53645D01*
Y102413D02*
Y102819D01*
X54051D01*
Y102413D01*
X53645D01*
Y104953D02*
Y105359D01*
X54051D01*
Y104953D01*
X53645D01*
X140005Y183693D02*
X140106Y183896D01*
X140005Y184099D01*
X140208Y183998D01*
X140411Y184099D01*
X140310Y183896D01*
X140411Y183693D01*
X140208Y183794D01*
X140005Y183693D01*
X137465D02*
X137566Y183896D01*
X137465Y184099D01*
X137668Y183998D01*
X137871Y184099D01*
X137770Y183896D01*
X137871Y183693D01*
X137668Y183794D01*
X137465Y183693D01*
X134925D02*
X135026Y183896D01*
X134925Y184099D01*
X135128Y183998D01*
X135331Y184099D01*
X135230Y183896D01*
X135331Y183693D01*
X135128Y183794D01*
X134925Y183693D01*
X140005Y181153D02*
X140106Y181356D01*
X140005Y181559D01*
X140208Y181458D01*
X140411Y181559D01*
X140310Y181356D01*
X140411Y181153D01*
X140208Y181254D01*
X140005Y181153D01*
X137465D02*
X137566Y181356D01*
X137465Y181559D01*
X137668Y181458D01*
X137871Y181559D01*
X137770Y181356D01*
X137871Y181153D01*
X137668Y181254D01*
X137465Y181153D01*
X134925D02*
X135026Y181356D01*
X134925Y181559D01*
X135128Y181458D01*
X135331Y181559D01*
X135230Y181356D01*
X135331Y181153D01*
X135128Y181254D01*
X134925Y181153D01*
X132385Y183693D02*
X132486Y183896D01*
X132385Y184099D01*
X132588Y183998D01*
X132791Y184099D01*
X132690Y183896D01*
X132791Y183693D01*
X132588Y183794D01*
X132385Y183693D01*
X127305D02*
X127406Y183896D01*
X127305Y184099D01*
X127508Y183998D01*
X127711Y184099D01*
X127610Y183896D01*
X127711Y183693D01*
X127508Y183794D01*
X127305Y183693D01*
X129845D02*
X129946Y183896D01*
X129845Y184099D01*
X130048Y183998D01*
X130251Y184099D01*
X130150Y183896D01*
X130251Y183693D01*
X130048Y183794D01*
X129845Y183693D01*
X122225D02*
X122326Y183896D01*
X122225Y184099D01*
X122428Y183998D01*
X122631Y184099D01*
X122530Y183896D01*
X122631Y183693D01*
X122428Y183794D01*
X122225Y183693D01*
X124765D02*
X124866Y183896D01*
X124765Y184099D01*
X124968Y183998D01*
X125171Y184099D01*
X125070Y183896D01*
X125171Y183693D01*
X124968Y183794D01*
X124765Y183693D01*
X117145D02*
X117246Y183896D01*
X117145Y184099D01*
X117348Y183998D01*
X117551Y184099D01*
X117450Y183896D01*
X117551Y183693D01*
X117348Y183794D01*
X117145Y183693D01*
X119685D02*
X119786Y183896D01*
X119685Y184099D01*
X119888Y183998D01*
X120091Y184099D01*
X119990Y183896D01*
X120091Y183693D01*
X119888Y183794D01*
X119685Y183693D01*
Y181153D02*
X119786Y181356D01*
X119685Y181559D01*
X119888Y181458D01*
X120091Y181559D01*
X119990Y181356D01*
X120091Y181153D01*
X119888Y181254D01*
X119685Y181153D01*
X117145D02*
X117246Y181356D01*
X117145Y181559D01*
X117348Y181458D01*
X117551Y181559D01*
X117450Y181356D01*
X117551Y181153D01*
X117348Y181254D01*
X117145Y181153D01*
X124765D02*
X124866Y181356D01*
X124765Y181559D01*
X124968Y181458D01*
X125171Y181559D01*
X125070Y181356D01*
X125171Y181153D01*
X124968Y181254D01*
X124765Y181153D01*
X122225D02*
X122326Y181356D01*
X122225Y181559D01*
X122428Y181458D01*
X122631Y181559D01*
X122530Y181356D01*
X122631Y181153D01*
X122428Y181254D01*
X122225Y181153D01*
X129845D02*
X129946Y181356D01*
X129845Y181559D01*
X130048Y181458D01*
X130251Y181559D01*
X130150Y181356D01*
X130251Y181153D01*
X130048Y181254D01*
X129845Y181153D01*
X127305D02*
X127406Y181356D01*
X127305Y181559D01*
X127508Y181458D01*
X127711Y181559D01*
X127610Y181356D01*
X127711Y181153D01*
X127508Y181254D01*
X127305Y181153D01*
X132385D02*
X132486Y181356D01*
X132385Y181559D01*
X132588Y181458D01*
X132791Y181559D01*
X132690Y181356D01*
X132791Y181153D01*
X132588Y181254D01*
X132385Y181153D01*
Y137973D02*
X132486Y138176D01*
X132385Y138379D01*
X132588Y138278D01*
X132791Y138379D01*
X132690Y138176D01*
X132791Y137973D01*
X132588Y138074D01*
X132385Y137973D01*
X127305D02*
X127406Y138176D01*
X127305Y138379D01*
X127508Y138278D01*
X127711Y138379D01*
X127610Y138176D01*
X127711Y137973D01*
X127508Y138074D01*
X127305Y137973D01*
X129845D02*
X129946Y138176D01*
X129845Y138379D01*
X130048Y138278D01*
X130251Y138379D01*
X130150Y138176D01*
X130251Y137973D01*
X130048Y138074D01*
X129845Y137973D01*
X122225D02*
X122326Y138176D01*
X122225Y138379D01*
X122428Y138278D01*
X122631Y138379D01*
X122530Y138176D01*
X122631Y137973D01*
X122428Y138074D01*
X122225Y137973D01*
X124765D02*
X124866Y138176D01*
X124765Y138379D01*
X124968Y138278D01*
X125171Y138379D01*
X125070Y138176D01*
X125171Y137973D01*
X124968Y138074D01*
X124765Y137973D01*
X117145D02*
X117246Y138176D01*
X117145Y138379D01*
X117348Y138278D01*
X117551Y138379D01*
X117450Y138176D01*
X117551Y137973D01*
X117348Y138074D01*
X117145Y137973D01*
X119685D02*
X119786Y138176D01*
X119685Y138379D01*
X119888Y138278D01*
X120091Y138379D01*
X119990Y138176D01*
X120091Y137973D01*
X119888Y138074D01*
X119685Y137973D01*
X134925D02*
X135026Y138176D01*
X134925Y138379D01*
X135128Y138278D01*
X135331Y138379D01*
X135230Y138176D01*
X135331Y137973D01*
X135128Y138074D01*
X134925Y137973D01*
X137465D02*
X137566Y138176D01*
X137465Y138379D01*
X137668Y138278D01*
X137871Y138379D01*
X137770Y138176D01*
X137871Y137973D01*
X137668Y138074D01*
X137465Y137973D01*
X140005D02*
X140106Y138176D01*
X140005Y138379D01*
X140208Y138278D01*
X140411Y138379D01*
X140310Y138176D01*
X140411Y137973D01*
X140208Y138074D01*
X140005Y137973D01*
X137465Y140513D02*
X137566Y140716D01*
X137465Y140919D01*
X137668Y140818D01*
X137871Y140919D01*
X137770Y140716D01*
X137871Y140513D01*
X137668Y140614D01*
X137465Y140513D01*
X134925D02*
X135026Y140716D01*
X134925Y140919D01*
X135128Y140818D01*
X135331Y140919D01*
X135230Y140716D01*
X135331Y140513D01*
X135128Y140614D01*
X134925Y140513D01*
X119685D02*
X119786Y140716D01*
X119685Y140919D01*
X119888Y140818D01*
X120091Y140919D01*
X119990Y140716D01*
X120091Y140513D01*
X119888Y140614D01*
X119685Y140513D01*
X117145D02*
X117246Y140716D01*
X117145Y140919D01*
X117348Y140818D01*
X117551Y140919D01*
X117450Y140716D01*
X117551Y140513D01*
X117348Y140614D01*
X117145Y140513D01*
X124765D02*
X124866Y140716D01*
X124765Y140919D01*
X124968Y140818D01*
X125171Y140919D01*
X125070Y140716D01*
X125171Y140513D01*
X124968Y140614D01*
X124765Y140513D01*
X122225D02*
X122326Y140716D01*
X122225Y140919D01*
X122428Y140818D01*
X122631Y140919D01*
X122530Y140716D01*
X122631Y140513D01*
X122428Y140614D01*
X122225Y140513D01*
X129845D02*
X129946Y140716D01*
X129845Y140919D01*
X130048Y140818D01*
X130251Y140919D01*
X130150Y140716D01*
X130251Y140513D01*
X130048Y140614D01*
X129845Y140513D01*
X127305D02*
X127406Y140716D01*
X127305Y140919D01*
X127508Y140818D01*
X127711Y140919D01*
X127610Y140716D01*
X127711Y140513D01*
X127508Y140614D01*
X127305Y140513D01*
X132385D02*
X132486Y140716D01*
X132385Y140919D01*
X132588Y140818D01*
X132791Y140919D01*
X132690Y140716D01*
X132791Y140513D01*
X132588Y140614D01*
X132385Y140513D01*
X140005D02*
X140106Y140716D01*
X140005Y140919D01*
X140208Y140818D01*
X140411Y140919D01*
X140310Y140716D01*
X140411Y140513D01*
X140208Y140614D01*
X140005Y140513D01*
X203505D02*
X203606Y140716D01*
X203505Y140919D01*
X203708Y140818D01*
X203911Y140919D01*
X203810Y140716D01*
X203911Y140513D01*
X203708Y140614D01*
X203505Y140513D01*
X195885D02*
X195986Y140716D01*
X195885Y140919D01*
X196088Y140818D01*
X196291Y140919D01*
X196190Y140716D01*
X196291Y140513D01*
X196088Y140614D01*
X195885Y140513D01*
X190805D02*
X190906Y140716D01*
X190805Y140919D01*
X191008Y140818D01*
X191211Y140919D01*
X191110Y140716D01*
X191211Y140513D01*
X191008Y140614D01*
X190805Y140513D01*
X193345D02*
X193446Y140716D01*
X193345Y140919D01*
X193548Y140818D01*
X193751Y140919D01*
X193650Y140716D01*
X193751Y140513D01*
X193548Y140614D01*
X193345Y140513D01*
X185725D02*
X185826Y140716D01*
X185725Y140919D01*
X185928Y140818D01*
X186131Y140919D01*
X186030Y140716D01*
X186131Y140513D01*
X185928Y140614D01*
X185725Y140513D01*
X188265D02*
X188366Y140716D01*
X188265Y140919D01*
X188468Y140818D01*
X188671Y140919D01*
X188570Y140716D01*
X188671Y140513D01*
X188468Y140614D01*
X188265Y140513D01*
X180645D02*
X180746Y140716D01*
X180645Y140919D01*
X180848Y140818D01*
X181051Y140919D01*
X180950Y140716D01*
X181051Y140513D01*
X180848Y140614D01*
X180645Y140513D01*
X183185D02*
X183286Y140716D01*
X183185Y140919D01*
X183388Y140818D01*
X183591Y140919D01*
X183490Y140716D01*
X183591Y140513D01*
X183388Y140614D01*
X183185Y140513D01*
X198425D02*
X198526Y140716D01*
X198425Y140919D01*
X198628Y140818D01*
X198831Y140919D01*
X198730Y140716D01*
X198831Y140513D01*
X198628Y140614D01*
X198425Y140513D01*
X200965D02*
X201066Y140716D01*
X200965Y140919D01*
X201168Y140818D01*
X201371Y140919D01*
X201270Y140716D01*
X201371Y140513D01*
X201168Y140614D01*
X200965Y140513D01*
X203505Y137973D02*
X203606Y138176D01*
X203505Y138379D01*
X203708Y138278D01*
X203911Y138379D01*
X203810Y138176D01*
X203911Y137973D01*
X203708Y138074D01*
X203505Y137973D01*
X200965D02*
X201066Y138176D01*
X200965Y138379D01*
X201168Y138278D01*
X201371Y138379D01*
X201270Y138176D01*
X201371Y137973D01*
X201168Y138074D01*
X200965Y137973D01*
X198425D02*
X198526Y138176D01*
X198425Y138379D01*
X198628Y138278D01*
X198831Y138379D01*
X198730Y138176D01*
X198831Y137973D01*
X198628Y138074D01*
X198425Y137973D01*
X183185D02*
X183286Y138176D01*
X183185Y138379D01*
X183388Y138278D01*
X183591Y138379D01*
X183490Y138176D01*
X183591Y137973D01*
X183388Y138074D01*
X183185Y137973D01*
X180645D02*
X180746Y138176D01*
X180645Y138379D01*
X180848Y138278D01*
X181051Y138379D01*
X180950Y138176D01*
X181051Y137973D01*
X180848Y138074D01*
X180645Y137973D01*
X188265D02*
X188366Y138176D01*
X188265Y138379D01*
X188468Y138278D01*
X188671Y138379D01*
X188570Y138176D01*
X188671Y137973D01*
X188468Y138074D01*
X188265Y137973D01*
X185725D02*
X185826Y138176D01*
X185725Y138379D01*
X185928Y138278D01*
X186131Y138379D01*
X186030Y138176D01*
X186131Y137973D01*
X185928Y138074D01*
X185725Y137973D01*
X193345D02*
X193446Y138176D01*
X193345Y138379D01*
X193548Y138278D01*
X193751Y138379D01*
X193650Y138176D01*
X193751Y137973D01*
X193548Y138074D01*
X193345Y137973D01*
X190805D02*
X190906Y138176D01*
X190805Y138379D01*
X191008Y138278D01*
X191211Y138379D01*
X191110Y138176D01*
X191211Y137973D01*
X191008Y138074D01*
X190805Y137973D01*
X195885D02*
X195986Y138176D01*
X195885Y138379D01*
X196088Y138278D01*
X196291Y138379D01*
X196190Y138176D01*
X196291Y137973D01*
X196088Y138074D01*
X195885Y137973D01*
Y181153D02*
X195986Y181356D01*
X195885Y181559D01*
X196088Y181458D01*
X196291Y181559D01*
X196190Y181356D01*
X196291Y181153D01*
X196088Y181254D01*
X195885Y181153D01*
X190805D02*
X190906Y181356D01*
X190805Y181559D01*
X191008Y181458D01*
X191211Y181559D01*
X191110Y181356D01*
X191211Y181153D01*
X191008Y181254D01*
X190805Y181153D01*
X193345D02*
X193446Y181356D01*
X193345Y181559D01*
X193548Y181458D01*
X193751Y181559D01*
X193650Y181356D01*
X193751Y181153D01*
X193548Y181254D01*
X193345Y181153D01*
X185725D02*
X185826Y181356D01*
X185725Y181559D01*
X185928Y181458D01*
X186131Y181559D01*
X186030Y181356D01*
X186131Y181153D01*
X185928Y181254D01*
X185725Y181153D01*
X188265D02*
X188366Y181356D01*
X188265Y181559D01*
X188468Y181458D01*
X188671Y181559D01*
X188570Y181356D01*
X188671Y181153D01*
X188468Y181254D01*
X188265Y181153D01*
X180645D02*
X180746Y181356D01*
X180645Y181559D01*
X180848Y181458D01*
X181051Y181559D01*
X180950Y181356D01*
X181051Y181153D01*
X180848Y181254D01*
X180645Y181153D01*
X183185D02*
X183286Y181356D01*
X183185Y181559D01*
X183388Y181458D01*
X183591Y181559D01*
X183490Y181356D01*
X183591Y181153D01*
X183388Y181254D01*
X183185Y181153D01*
Y183693D02*
X183286Y183896D01*
X183185Y184099D01*
X183388Y183998D01*
X183591Y184099D01*
X183490Y183896D01*
X183591Y183693D01*
X183388Y183794D01*
X183185Y183693D01*
X180645D02*
X180746Y183896D01*
X180645Y184099D01*
X180848Y183998D01*
X181051Y184099D01*
X180950Y183896D01*
X181051Y183693D01*
X180848Y183794D01*
X180645Y183693D01*
X188265D02*
X188366Y183896D01*
X188265Y184099D01*
X188468Y183998D01*
X188671Y184099D01*
X188570Y183896D01*
X188671Y183693D01*
X188468Y183794D01*
X188265Y183693D01*
X185725D02*
X185826Y183896D01*
X185725Y184099D01*
X185928Y183998D01*
X186131Y184099D01*
X186030Y183896D01*
X186131Y183693D01*
X185928Y183794D01*
X185725Y183693D01*
X193345D02*
X193446Y183896D01*
X193345Y184099D01*
X193548Y183998D01*
X193751Y184099D01*
X193650Y183896D01*
X193751Y183693D01*
X193548Y183794D01*
X193345Y183693D01*
X190805D02*
X190906Y183896D01*
X190805Y184099D01*
X191008Y183998D01*
X191211Y184099D01*
X191110Y183896D01*
X191211Y183693D01*
X191008Y183794D01*
X190805Y183693D01*
X195885D02*
X195986Y183896D01*
X195885Y184099D01*
X196088Y183998D01*
X196291Y184099D01*
X196190Y183896D01*
X196291Y183693D01*
X196088Y183794D01*
X195885Y183693D01*
X198425Y181153D02*
X198526Y181356D01*
X198425Y181559D01*
X198628Y181458D01*
X198831Y181559D01*
X198730Y181356D01*
X198831Y181153D01*
X198628Y181254D01*
X198425Y181153D01*
X200965D02*
X201066Y181356D01*
X200965Y181559D01*
X201168Y181458D01*
X201371Y181559D01*
X201270Y181356D01*
X201371Y181153D01*
X201168Y181254D01*
X200965Y181153D01*
X203505D02*
X203606Y181356D01*
X203505Y181559D01*
X203708Y181458D01*
X203911Y181559D01*
X203810Y181356D01*
X203911Y181153D01*
X203708Y181254D01*
X203505Y181153D01*
X198425Y183693D02*
X198526Y183896D01*
X198425Y184099D01*
X198628Y183998D01*
X198831Y184099D01*
X198730Y183896D01*
X198831Y183693D01*
X198628Y183794D01*
X198425Y183693D01*
X200965D02*
X201066Y183896D01*
X200965Y184099D01*
X201168Y183998D01*
X201371Y184099D01*
X201270Y183896D01*
X201371Y183693D01*
X201168Y183794D01*
X200965Y183693D01*
X203505D02*
X203606Y183896D01*
X203505Y184099D01*
X203708Y183998D01*
X203911Y184099D01*
X203810Y183896D01*
X203911Y183693D01*
X203708Y183794D01*
X203505Y183693D01*
X56642Y180541D02*
Y180440D01*
X56846D01*
Y180541D01*
X56947D01*
Y180745D01*
X56846D01*
Y180846D01*
X56642D01*
Y180745D01*
X56541D01*
Y180541D01*
X56642D01*
Y155551D02*
Y155450D01*
X56846D01*
Y155551D01*
X56947D01*
Y155755D01*
X56846D01*
Y155856D01*
X56642D01*
Y155755D01*
X56541D01*
Y155551D01*
X56642D01*
X57961Y162405D02*
X58062D01*
X58164Y162506D01*
X58266Y162405D01*
X58367D01*
Y162506D01*
X58266Y162608D01*
X58367Y162710D01*
Y162811D01*
X58266D01*
X58164Y162710D01*
X58062Y162811D01*
X57961D01*
Y162710D01*
X58062Y162608D01*
X57961Y162506D01*
Y162405D01*
X55121Y163790D02*
X55222D01*
X55324Y163891D01*
X55426Y163790D01*
X55527D01*
Y163891D01*
X55426Y163993D01*
X55527Y164095D01*
Y164196D01*
X55426D01*
X55324Y164095D01*
X55222Y164196D01*
X55121D01*
Y164095D01*
X55222Y163993D01*
X55121Y163891D01*
Y163790D01*
X57961Y165175D02*
X58062D01*
X58164Y165276D01*
X58266Y165175D01*
X58367D01*
Y165276D01*
X58266Y165378D01*
X58367Y165480D01*
Y165581D01*
X58266D01*
X58164Y165480D01*
X58062Y165581D01*
X57961D01*
Y165480D01*
X58062Y165378D01*
X57961Y165276D01*
Y165175D01*
X55121Y166560D02*
X55222D01*
X55324Y166661D01*
X55426Y166560D01*
X55527D01*
Y166661D01*
X55426Y166763D01*
X55527Y166865D01*
Y166966D01*
X55426D01*
X55324Y166865D01*
X55222Y166966D01*
X55121D01*
Y166865D01*
X55222Y166763D01*
X55121Y166661D01*
Y166560D01*
X57961Y167945D02*
X58062D01*
X58164Y168046D01*
X58266Y167945D01*
X58367D01*
Y168046D01*
X58266Y168148D01*
X58367Y168250D01*
Y168351D01*
X58266D01*
X58164Y168250D01*
X58062Y168351D01*
X57961D01*
Y168250D01*
X58062Y168148D01*
X57961Y168046D01*
Y167945D01*
X55121Y169330D02*
X55222D01*
X55324Y169431D01*
X55426Y169330D01*
X55527D01*
Y169431D01*
X55426Y169533D01*
X55527Y169635D01*
Y169736D01*
X55426D01*
X55324Y169635D01*
X55222Y169736D01*
X55121D01*
Y169635D01*
X55222Y169533D01*
X55121Y169431D01*
Y169330D01*
X57961Y170715D02*
X58062D01*
X58164Y170816D01*
X58266Y170715D01*
X58367D01*
Y170816D01*
X58266Y170918D01*
X58367Y171020D01*
Y171121D01*
X58266D01*
X58164Y171020D01*
X58062Y171121D01*
X57961D01*
Y171020D01*
X58062Y170918D01*
X57961Y170816D01*
Y170715D01*
X55121Y172100D02*
X55222D01*
X55324Y172201D01*
X55426Y172100D01*
X55527D01*
Y172201D01*
X55426Y172303D01*
X55527Y172405D01*
Y172506D01*
X55426D01*
X55324Y172405D01*
X55222Y172506D01*
X55121D01*
Y172405D01*
X55222Y172303D01*
X55121Y172201D01*
Y172100D01*
X57961Y173485D02*
X58062D01*
X58164Y173586D01*
X58266Y173485D01*
X58367D01*
Y173586D01*
X58266Y173688D01*
X58367Y173790D01*
Y173891D01*
X58266D01*
X58164Y173790D01*
X58062Y173891D01*
X57961D01*
Y173790D01*
X58062Y173688D01*
X57961Y173586D01*
Y173485D01*
X149797Y122000D02*
X150000Y122203D01*
X150203Y122000D01*
X150000Y121797D01*
X149797Y122000D01*
X164389Y70917D02*
Y71323D01*
X164795D01*
Y70917D01*
X164389D01*
X164490Y71018D02*
Y71222D01*
X164694D01*
Y71018D01*
X164490D01*
X164389Y66117D02*
Y66523D01*
X164795D01*
Y66117D01*
X164389D01*
X164490Y66218D02*
Y66422D01*
X164694D01*
Y66218D01*
X164490D01*
X164389Y61317D02*
Y61723D01*
X164795D01*
Y61317D01*
X164389D01*
X164490Y61418D02*
Y61622D01*
X164694D01*
Y61418D01*
X164490D01*
X146101Y70917D02*
Y71323D01*
X146507D01*
Y70917D01*
X146101D01*
X146202Y71018D02*
Y71222D01*
X146406D01*
Y71018D01*
X146202D01*
X146101Y66117D02*
Y66523D01*
X146507D01*
Y66117D01*
X146101D01*
X146202Y66218D02*
Y66422D01*
X146406D01*
Y66218D01*
X146202D01*
X146101Y61317D02*
Y61723D01*
X146507D01*
Y61317D01*
X146101D01*
X146202Y61418D02*
Y61622D01*
X146406D01*
Y61418D01*
X146202D01*
X132385Y70917D02*
Y71323D01*
X132791D01*
Y70917D01*
X132385D01*
X132486Y71018D02*
Y71222D01*
X132690D01*
Y71018D01*
X132486D01*
X132385Y66117D02*
Y66523D01*
X132791D01*
Y66117D01*
X132385D01*
X132486Y66218D02*
Y66422D01*
X132690D01*
Y66218D01*
X132486D01*
X132385Y61317D02*
Y61723D01*
X132791D01*
Y61317D01*
X132385D01*
X132486Y61418D02*
Y61622D01*
X132690D01*
Y61418D01*
X132486D01*
X119177Y70917D02*
Y71323D01*
X119583D01*
Y70917D01*
X119177D01*
X119278Y71018D02*
Y71222D01*
X119482D01*
Y71018D01*
X119278D01*
X119177Y66117D02*
Y66523D01*
X119583D01*
Y66117D01*
X119177D01*
X119278Y66218D02*
Y66422D01*
X119482D01*
Y66218D01*
X119278D01*
X119177Y61317D02*
Y61723D01*
X119583D01*
Y61317D01*
X119177D01*
X119278Y61418D02*
Y61622D01*
X119482D01*
Y61418D01*
X119278D01*
X100381Y64313D02*
Y64719D01*
X100787D01*
Y64313D01*
X100381D01*
X100482Y64414D02*
Y64618D01*
X100686D01*
Y64414D01*
X100482D01*
X100381Y59513D02*
Y59919D01*
X100787D01*
Y59513D01*
X100381D01*
X100482Y59614D02*
Y59818D01*
X100686D01*
Y59614D01*
X100482D01*
X100381Y54713D02*
Y55119D01*
X100787D01*
Y54713D01*
X100381D01*
X100482Y54814D02*
Y55018D01*
X100686D01*
Y54814D01*
X100482D01*
X100381Y80569D02*
Y80975D01*
X100787D01*
Y80569D01*
X100381D01*
X100482Y80670D02*
Y80874D01*
X100686D01*
Y80670D01*
X100482D01*
X100381Y75769D02*
Y76175D01*
X100787D01*
Y75769D01*
X100381D01*
X100482Y75870D02*
Y76074D01*
X100686D01*
Y75870D01*
X100482D01*
X100381Y70969D02*
Y71375D01*
X100787D01*
Y70969D01*
X100381D01*
X100482Y71070D02*
Y71274D01*
X100686D01*
Y71070D01*
X100482D01*
X100381Y96825D02*
Y97231D01*
X100787D01*
Y96825D01*
X100381D01*
X100482Y96926D02*
Y97130D01*
X100686D01*
Y96926D01*
X100482D01*
X100381Y92025D02*
Y92431D01*
X100787D01*
Y92025D01*
X100381D01*
X100482Y92126D02*
Y92330D01*
X100686D01*
Y92126D01*
X100482D01*
X100381Y87225D02*
Y87631D01*
X100787D01*
Y87225D01*
X100381D01*
X100482Y87326D02*
Y87530D01*
X100686D01*
Y87326D01*
X100482D01*
X100381Y113081D02*
Y113487D01*
X100787D01*
Y113081D01*
X100381D01*
X100482Y113182D02*
Y113386D01*
X100686D01*
Y113182D01*
X100482D01*
X100381Y108281D02*
Y108687D01*
X100787D01*
Y108281D01*
X100381D01*
X100482Y108382D02*
Y108586D01*
X100686D01*
Y108382D01*
X100482D01*
X100381Y103481D02*
Y103887D01*
X100787D01*
Y103481D01*
X100381D01*
X100482Y103582D02*
Y103786D01*
X100686D01*
Y103582D01*
X100482D01*
X90729Y54153D02*
Y54559D01*
X91135D01*
Y54153D01*
X90729D01*
X93269D02*
Y54559D01*
X93675D01*
Y54153D01*
X93269D01*
X84125D02*
Y54559D01*
X84531D01*
Y54153D01*
X84125D01*
X86665D02*
Y54559D01*
X87071D01*
Y54153D01*
X86665D01*
X150217Y101905D02*
Y102311D01*
X150623D01*
Y101905D01*
X150217D01*
X150318Y102006D02*
Y102210D01*
X150522D01*
Y102006D01*
X150318D01*
X155017Y101905D02*
Y102311D01*
X155423D01*
Y101905D01*
X155017D01*
X155118Y102006D02*
Y102210D01*
X155322D01*
Y102006D01*
X155118D01*
X159817Y101905D02*
Y102311D01*
X160223D01*
Y101905D01*
X159817D01*
X159918Y102006D02*
Y102210D01*
X160122D01*
Y102006D01*
X159918D01*
X150217Y87173D02*
Y87579D01*
X150623D01*
Y87173D01*
X150217D01*
X150318Y87274D02*
Y87478D01*
X150522D01*
Y87274D01*
X150318D01*
X155017Y87173D02*
Y87579D01*
X155423D01*
Y87173D01*
X155017D01*
X155118Y87274D02*
Y87478D01*
X155322D01*
Y87274D01*
X155118D01*
X159817Y87173D02*
Y87579D01*
X160223D01*
Y87173D01*
X159817D01*
X159918Y87274D02*
Y87478D01*
X160122D01*
Y87274D01*
X159918D01*
X69953Y101905D02*
Y102311D01*
X70359D01*
Y101905D01*
X69953D01*
X70054Y102006D02*
Y102210D01*
X70258D01*
Y102006D01*
X70054D01*
X74753Y101905D02*
Y102311D01*
X75159D01*
Y101905D01*
X74753D01*
X74854Y102006D02*
Y102210D01*
X75058D01*
Y102006D01*
X74854D01*
X79553Y101905D02*
Y102311D01*
X79959D01*
Y101905D01*
X79553D01*
X79654Y102006D02*
Y102210D01*
X79858D01*
Y102006D01*
X79654D01*
X69953Y88697D02*
Y89103D01*
X70359D01*
Y88697D01*
X69953D01*
X70054Y88798D02*
Y89002D01*
X70258D01*
Y88798D01*
X70054D01*
X74753Y88697D02*
Y89103D01*
X75159D01*
Y88697D01*
X74753D01*
X74854Y88798D02*
Y89002D01*
X75058D01*
Y88798D01*
X74854D01*
X79553Y88697D02*
Y89103D01*
X79959D01*
Y88697D01*
X79553D01*
X79654Y88798D02*
Y89002D01*
X79858D01*
Y88798D01*
X79654D01*
X69953Y74473D02*
Y74879D01*
X70359D01*
Y74473D01*
X69953D01*
X70054Y74574D02*
Y74778D01*
X70258D01*
Y74574D01*
X70054D01*
X74753Y74473D02*
Y74879D01*
X75159D01*
Y74473D01*
X74753D01*
X74854Y74574D02*
Y74778D01*
X75058D01*
Y74574D01*
X74854D01*
X79553Y74473D02*
Y74879D01*
X79959D01*
Y74473D01*
X79553D01*
X79654Y74574D02*
Y74778D01*
X79858D01*
Y74574D01*
X79654D01*
X69953Y60757D02*
Y61163D01*
X70359D01*
Y60757D01*
X69953D01*
X70054Y60858D02*
Y61062D01*
X70258D01*
Y60858D01*
X70054D01*
X74753Y60757D02*
Y61163D01*
X75159D01*
Y60757D01*
X74753D01*
X74854Y60858D02*
Y61062D01*
X75058D01*
Y60858D01*
X74854D01*
X79553Y60757D02*
Y61163D01*
X79959D01*
Y60757D01*
X79553D01*
X79654Y60858D02*
Y61062D01*
X79858D01*
Y60858D01*
X79654D01*
X61773Y100889D02*
Y101295D01*
X62179D01*
Y100889D01*
X61773D01*
Y98349D02*
Y98755D01*
X62179D01*
Y98349D01*
X61773D01*
Y103429D02*
Y103835D01*
X62179D01*
Y103429D01*
X61773D01*
X111557Y61265D02*
Y61671D01*
X111963D01*
Y61265D01*
X111557D01*
Y63805D02*
Y64211D01*
X111963D01*
Y63805D01*
X111557D01*
Y58725D02*
Y59131D01*
X111963D01*
Y58725D01*
X111557D01*
X61773Y87681D02*
Y88087D01*
X62179D01*
Y87681D01*
X61773D01*
Y85141D02*
Y85547D01*
X62179D01*
Y85141D01*
X61773D01*
Y90221D02*
Y90627D01*
X62179D01*
Y90221D01*
X61773D01*
X111557Y77013D02*
Y77419D01*
X111963D01*
Y77013D01*
X111557D01*
Y79553D02*
Y79959D01*
X111963D01*
Y79553D01*
X111557D01*
Y74473D02*
Y74879D01*
X111963D01*
Y74473D01*
X111557D01*
X61773Y73457D02*
Y73863D01*
X62179D01*
Y73457D01*
X61773D01*
Y70917D02*
Y71323D01*
X62179D01*
Y70917D01*
X61773D01*
Y75997D02*
Y76403D01*
X62179D01*
Y75997D01*
X61773D01*
X111557Y93269D02*
Y93675D01*
X111963D01*
Y93269D01*
X111557D01*
Y95809D02*
Y96215D01*
X111963D01*
Y95809D01*
X111557D01*
Y90729D02*
Y91135D01*
X111963D01*
Y90729D01*
X111557D01*
X61773Y59741D02*
Y60147D01*
X62179D01*
Y59741D01*
X61773D01*
Y57201D02*
Y57607D01*
X62179D01*
Y57201D01*
X61773D01*
Y62281D02*
Y62687D01*
X62179D01*
Y62281D01*
X61773D01*
X111557Y109525D02*
Y109931D01*
X111963D01*
Y109525D01*
X111557D01*
Y112065D02*
Y112471D01*
X111963D01*
Y112065D01*
X111557D01*
Y106985D02*
Y107391D01*
X111963D01*
Y106985D01*
X111557D01*
X224132Y92585D02*
X223929Y92991D01*
X224335D01*
X224132Y92585D01*
X237132D02*
X236929Y92991D01*
X237335D01*
X237132Y92585D01*
X224132Y69725D02*
X223929Y70131D01*
X224335D01*
X224132Y69725D01*
X237132D02*
X236929Y70131D01*
X237335D01*
X237132Y69725D01*
X199272Y121621D02*
X199069Y122027D01*
X199475D01*
X199272Y121621D01*
Y121722D02*
X199170Y121926D01*
X199374D01*
X199272Y121722D01*
X196619Y127021D02*
Y127427D01*
X197025D01*
Y127021D01*
X196619D01*
X193119D02*
Y127427D01*
X193525D01*
Y127021D01*
X193119D01*
X196619Y53421D02*
Y53827D01*
X197025D01*
Y53421D01*
X196619D01*
X193119D02*
Y53827D01*
X193525D01*
Y53421D01*
X193119D01*
X195869Y121721D02*
Y122127D01*
X196275D01*
Y121721D01*
X195869D01*
X193869Y58721D02*
Y59127D01*
X194275D01*
Y58721D01*
X193869D01*
X199272Y58821D02*
X199069Y59227D01*
X199475D01*
X199272Y58821D01*
Y58922D02*
X199170Y59126D01*
X199374D01*
X199272Y58922D01*
X190872Y57621D02*
X190669Y58027D01*
X191075D01*
X190872Y57621D01*
Y57722D02*
X190770Y57926D01*
X190974D01*
X190872Y57722D01*
Y122821D02*
X190669Y123227D01*
X191075D01*
X190872Y122821D01*
Y122922D02*
X190770Y123126D01*
X190974D01*
X190872Y122922D01*
X216544Y121621D02*
X216341Y122027D01*
X216747D01*
X216544Y121621D01*
Y121722D02*
X216442Y121926D01*
X216646D01*
X216544Y121722D01*
X213891Y127021D02*
Y127427D01*
X214297D01*
Y127021D01*
X213891D01*
X210391D02*
Y127427D01*
X210797D01*
Y127021D01*
X210391D01*
X213891Y53421D02*
Y53827D01*
X214297D01*
Y53421D01*
X213891D01*
X210391D02*
Y53827D01*
X210797D01*
Y53421D01*
X210391D01*
X213141Y121721D02*
Y122127D01*
X213547D01*
Y121721D01*
X213141D01*
X211141Y58721D02*
Y59127D01*
X211547D01*
Y58721D01*
X211141D01*
X216544Y58821D02*
X216341Y59227D01*
X216747D01*
X216544Y58821D01*
Y58922D02*
X216442Y59126D01*
X216646D01*
X216544Y58922D01*
X208144Y57621D02*
X207941Y58027D01*
X208347D01*
X208144Y57621D01*
Y57722D02*
X208042Y57926D01*
X208246D01*
X208144Y57722D01*
Y122821D02*
X207941Y123227D01*
X208347D01*
X208144Y122821D01*
Y122922D02*
X208042Y123126D01*
X208246D01*
X208144Y122922D01*
X54797Y189000D02*
X55000Y189203D01*
X55203Y189000D01*
X55000Y188797D01*
X54797Y189000D01*
X53645Y149149D02*
Y149555D01*
X54051D01*
Y149149D01*
X53645D01*
Y146609D02*
Y147015D01*
X54051D01*
Y146609D01*
X53645D01*
Y144069D02*
Y144475D01*
X54051D01*
Y144069D01*
X53645D01*
Y92761D02*
Y93167D01*
X54051D01*
Y92761D01*
X53645D01*
Y90221D02*
Y90627D01*
X54051D01*
Y90221D01*
X53645D01*
Y87681D02*
Y88087D01*
X54051D01*
Y87681D01*
X53645D01*
Y83617D02*
Y84023D01*
X54051D01*
Y83617D01*
X53645D01*
Y81077D02*
Y81483D01*
X54051D01*
Y81077D01*
X53645D01*
Y78537D02*
Y78943D01*
X54051D01*
Y78537D01*
X53645D01*
Y74473D02*
Y74879D01*
X54051D01*
Y74473D01*
X53645D01*
Y71933D02*
Y72339D01*
X54051D01*
Y71933D01*
X53645D01*
Y69393D02*
Y69799D01*
X54051D01*
Y69393D01*
X53645D01*
Y65329D02*
Y65735D01*
X54051D01*
Y65329D01*
X53645D01*
Y62789D02*
Y63195D01*
X54051D01*
Y62789D01*
X53645D01*
Y60249D02*
Y60655D01*
X54051D01*
Y60249D01*
X53645D01*
X54797Y55000D02*
X55000Y55203D01*
X55203Y55000D01*
X55000Y54797D01*
X54797Y55000D01*
X135128Y116637D02*
X135230Y116738D01*
X135331D01*
X135230Y116840D01*
X135331Y116942D01*
X135230D01*
X135128Y117043D01*
X135026Y116942D01*
X134925D01*
X135026Y116840D01*
X134925Y116738D01*
X135026D01*
X135128Y116637D01*
Y116738D02*
X135179Y116789D01*
X135230D01*
X135179Y116840D01*
X135230Y116891D01*
X135179D01*
X135128Y116942D01*
X135077Y116891D01*
X135026D01*
X135077Y116840D01*
X135026Y116789D01*
X135077D01*
X135128Y116738D01*
Y126797D02*
X135230Y126898D01*
X135331D01*
X135230Y127000D01*
X135331Y127102D01*
X135230D01*
X135128Y127203D01*
X135026Y127102D01*
X134925D01*
X135026Y127000D01*
X134925Y126898D01*
X135026D01*
X135128Y126797D01*
Y126898D02*
X135179Y126949D01*
X135230D01*
X135179Y127000D01*
X135230Y127051D01*
X135179D01*
X135128Y127102D01*
X135077Y127051D01*
X135026D01*
X135077Y127000D01*
X135026Y126949D01*
X135077D01*
X135128Y126898D01*
X244653Y54864D02*
X244856Y55067D01*
X245059Y54864D01*
X244856Y54661D01*
X244653Y54864D01*
X246177Y90221D02*
Y90627D01*
X246583D01*
Y90221D01*
X246177D01*
Y92761D02*
Y93167D01*
X246583D01*
Y92761D01*
X246177D01*
Y95301D02*
Y95707D01*
X246583D01*
Y95301D01*
X246177D01*
X245669Y123561D02*
Y123967D01*
X246075D01*
Y123561D01*
X245669D01*
Y126101D02*
Y126507D01*
X246075D01*
Y126101D01*
X245669D01*
Y130165D02*
Y130571D01*
X246075D01*
Y130165D01*
X245669D01*
Y132705D02*
Y133111D01*
X246075D01*
Y132705D01*
X245669D01*
X245161Y138481D02*
X245262Y138684D01*
X245161Y138887D01*
X245364Y138786D01*
X245567Y138887D01*
X245466Y138684D01*
X245567Y138481D01*
X245364Y138582D01*
X245161Y138481D01*
X245262Y138582D02*
X245313Y138684D01*
X245262Y138786D01*
X245364Y138735D01*
X245466Y138786D01*
X245415Y138684D01*
X245466Y138582D01*
X245364Y138633D01*
X245262Y138582D01*
X245161Y142291D02*
X245262Y142494D01*
X245161Y142697D01*
X245364Y142596D01*
X245567Y142697D01*
X245466Y142494D01*
X245567Y142291D01*
X245364Y142392D01*
X245161Y142291D01*
X245262Y142392D02*
X245313Y142494D01*
X245262Y142596D01*
X245364Y142545D01*
X245466Y142596D01*
X245415Y142494D01*
X245466Y142392D01*
X245364Y142443D01*
X245262Y142392D01*
X245161Y146101D02*
X245262Y146304D01*
X245161Y146507D01*
X245364Y146406D01*
X245567Y146507D01*
X245466Y146304D01*
X245567Y146101D01*
X245364Y146202D01*
X245161Y146101D01*
X245262Y146202D02*
X245313Y146304D01*
X245262Y146406D01*
X245364Y146355D01*
X245466Y146406D01*
X245415Y146304D01*
X245466Y146202D01*
X245364Y146253D01*
X245262Y146202D01*
X245872Y153493D02*
X245974Y153594D01*
X246075D01*
X245974Y153696D01*
X246075Y153798D01*
X245974D01*
X245872Y153899D01*
X245770Y153798D01*
X245669D01*
X245770Y153696D01*
X245669Y153594D01*
X245770D01*
X245872Y153493D01*
Y158293D02*
X245974Y158394D01*
X246075D01*
X245974Y158496D01*
X246075Y158598D01*
X245974D01*
X245872Y158699D01*
X245770Y158598D01*
X245669D01*
X245770Y158496D01*
X245669Y158394D01*
X245770D01*
X245872Y158293D01*
X244797Y189000D02*
X245000Y189203D01*
X245203Y189000D01*
X245000Y188797D01*
X244797Y189000D01*
X239674Y162966D02*
Y162865D01*
X239878D01*
Y162966D01*
X239979D01*
Y163170D01*
X239878D01*
Y163271D01*
X239674D01*
Y163170D01*
X239573D01*
Y162966D01*
X239674D01*
X239725Y163017D02*
Y162966D01*
X239827D01*
Y163017D01*
X239878D01*
Y163119D01*
X239827D01*
Y163170D01*
X239725D01*
Y163119D01*
X239674D01*
Y163017D01*
X239725D01*
X239674Y158394D02*
Y158293D01*
X239878D01*
Y158394D01*
X239979D01*
Y158598D01*
X239878D01*
Y158699D01*
X239674D01*
Y158598D01*
X239573D01*
Y158394D01*
X239674D01*
X239725Y158445D02*
Y158394D01*
X239827D01*
Y158445D01*
X239878D01*
Y158547D01*
X239827D01*
Y158598D01*
X239725D01*
Y158547D01*
X239674D01*
Y158445D01*
X239725D01*
X239674Y146202D02*
Y146101D01*
X239878D01*
Y146202D01*
X239979D01*
Y146406D01*
X239878D01*
Y146507D01*
X239674D01*
Y146406D01*
X239573D01*
Y146202D01*
X239674D01*
X239725Y146253D02*
Y146202D01*
X239827D01*
Y146253D01*
X239878D01*
Y146355D01*
X239827D01*
Y146406D01*
X239725D01*
Y146355D01*
X239674D01*
Y146253D01*
X239725D01*
X239674Y138582D02*
Y138481D01*
X239878D01*
Y138582D01*
X239979D01*
Y138786D01*
X239878D01*
Y138887D01*
X239674D01*
Y138786D01*
X239573D01*
Y138582D01*
X239674D01*
X239725Y138633D02*
Y138582D01*
X239827D01*
Y138633D01*
X239878D01*
Y138735D01*
X239827D01*
Y138786D01*
X239725D01*
Y138735D01*
X239674D01*
Y138633D01*
X239725D01*
X93370Y132486D02*
Y132385D01*
X93574D01*
Y132486D01*
X93675D01*
Y132690D01*
X93574D01*
Y132791D01*
X93370D01*
Y132690D01*
X93269D01*
Y132486D01*
X93370D01*
X93421Y132537D02*
Y132486D01*
X93523D01*
Y132537D01*
X93574D01*
Y132639D01*
X93523D01*
Y132690D01*
X93421D01*
Y132639D01*
X93370D01*
Y132537D01*
X93421D01*
X94894Y134010D02*
Y133909D01*
X95098D01*
Y134010D01*
X95199D01*
Y134214D01*
X95098D01*
Y134315D01*
X94894D01*
Y134214D01*
X94793D01*
Y134010D01*
X94894D01*
X94945Y134061D02*
Y134010D01*
X95047D01*
Y134061D01*
X95098D01*
Y134163D01*
X95047D01*
Y134214D01*
X94945D01*
Y134163D01*
X94894D01*
Y134061D01*
X94945D01*
X102514Y132994D02*
Y132893D01*
X102718D01*
Y132994D01*
X102819D01*
Y133198D01*
X102718D01*
Y133299D01*
X102514D01*
Y133198D01*
X102413D01*
Y132994D01*
X102514D01*
X102565Y133045D02*
Y132994D01*
X102667D01*
Y133045D01*
X102718D01*
Y133147D01*
X102667D01*
Y133198D01*
X102565D01*
Y133147D01*
X102514D01*
Y133045D01*
X102565D01*
X137566Y178714D02*
Y178613D01*
X137770D01*
Y178714D01*
X137871D01*
Y178918D01*
X137770D01*
Y179019D01*
X137566D01*
Y178918D01*
X137465D01*
Y178714D01*
X137566D01*
X137617Y178765D02*
Y178714D01*
X137719D01*
Y178765D01*
X137770D01*
Y178867D01*
X137719D01*
Y178918D01*
X137617D01*
Y178867D01*
X137566D01*
Y178765D01*
X137617D01*
X201066Y178714D02*
Y178613D01*
X201270D01*
Y178714D01*
X201371D01*
Y178918D01*
X201270D01*
Y179019D01*
X201066D01*
Y178918D01*
X200965D01*
Y178714D01*
X201066D01*
X201117Y178765D02*
Y178714D01*
X201219D01*
Y178765D01*
X201270D01*
Y178867D01*
X201219D01*
Y178918D01*
X201117D01*
Y178867D01*
X201066D01*
Y178765D01*
X201117D01*
X89306Y95910D02*
Y95809D01*
X89510D01*
Y95910D01*
X89611D01*
Y96114D01*
X89510D01*
Y96215D01*
X89306D01*
Y96114D01*
X89205D01*
Y95910D01*
X89306D01*
X89357Y95961D02*
Y95910D01*
X89459D01*
Y95961D01*
X89510D01*
Y96063D01*
X89459D01*
Y96114D01*
X89357D01*
Y96063D01*
X89306D01*
Y95961D01*
X89357D01*
X104546Y99466D02*
Y99365D01*
X104750D01*
Y99466D01*
X104851D01*
Y99670D01*
X104750D01*
Y99771D01*
X104546D01*
Y99670D01*
X104445D01*
Y99466D01*
X104546D01*
X104597Y99517D02*
Y99466D01*
X104699D01*
Y99517D01*
X104750D01*
Y99619D01*
X104699D01*
Y99670D01*
X104597D01*
Y99619D01*
X104546D01*
Y99517D01*
X104597D01*
X118770Y106578D02*
Y106477D01*
X118974D01*
Y106578D01*
X119075D01*
Y106782D01*
X118974D01*
Y106883D01*
X118770D01*
Y106782D01*
X118669D01*
Y106578D01*
X118770D01*
X118821Y106629D02*
Y106578D01*
X118923D01*
Y106629D01*
X118974D01*
Y106731D01*
X118923D01*
Y106782D01*
X118821D01*
Y106731D01*
X118770D01*
Y106629D01*
X118821D01*
X111658Y103022D02*
Y102921D01*
X111862D01*
Y103022D01*
X111963D01*
Y103226D01*
X111862D01*
Y103327D01*
X111658D01*
Y103226D01*
X111557D01*
Y103022D01*
X111658D01*
X111709Y103073D02*
Y103022D01*
X111811D01*
Y103073D01*
X111862D01*
Y103175D01*
X111811D01*
Y103226D01*
X111709D01*
Y103175D01*
X111658D01*
Y103073D01*
X111709D01*
X108102Y103022D02*
Y102921D01*
X108306D01*
Y103022D01*
X108407D01*
Y103226D01*
X108306D01*
Y103327D01*
X108102D01*
Y103226D01*
X108001D01*
Y103022D01*
X108102D01*
X108153Y103073D02*
Y103022D01*
X108255D01*
Y103073D01*
X108306D01*
Y103175D01*
X108255D01*
Y103226D01*
X108153D01*
Y103175D01*
X108102D01*
Y103073D01*
X108153D01*
X67970Y152806D02*
Y152705D01*
X68174D01*
Y152806D01*
X68275D01*
Y153010D01*
X68174D01*
Y153111D01*
X67970D01*
Y153010D01*
X67869D01*
Y152806D01*
X67970D01*
X68021Y152857D02*
Y152806D01*
X68123D01*
Y152857D01*
X68174D01*
Y152959D01*
X68123D01*
Y153010D01*
X68021D01*
Y152959D01*
X67970D01*
Y152857D01*
X68021D01*
X66954Y168554D02*
Y168453D01*
X67158D01*
Y168554D01*
X67259D01*
Y168758D01*
X67158D01*
Y168859D01*
X66954D01*
Y168758D01*
X66853D01*
Y168554D01*
X66954D01*
X67005Y168605D02*
Y168554D01*
X67107D01*
Y168605D01*
X67158D01*
Y168707D01*
X67107D01*
Y168758D01*
X67005D01*
Y168707D01*
X66954D01*
Y168605D01*
X67005D01*
X66954Y171094D02*
Y170993D01*
X67158D01*
Y171094D01*
X67259D01*
Y171298D01*
X67158D01*
Y171399D01*
X66954D01*
Y171298D01*
X66853D01*
Y171094D01*
X66954D01*
X67005Y171145D02*
Y171094D01*
X67107D01*
Y171145D01*
X67158D01*
Y171247D01*
X67107D01*
Y171298D01*
X67005D01*
Y171247D01*
X66954D01*
Y171145D01*
X67005D01*
X66954Y166014D02*
Y165913D01*
X67158D01*
Y166014D01*
X67259D01*
Y166218D01*
X67158D01*
Y166319D01*
X66954D01*
Y166218D01*
X66853D01*
Y166014D01*
X66954D01*
X67005Y166065D02*
Y166014D01*
X67107D01*
Y166065D01*
X67158D01*
Y166167D01*
X67107D01*
Y166218D01*
X67005D01*
Y166167D01*
X66954D01*
Y166065D01*
X67005D01*
X66954Y163474D02*
Y163373D01*
X67158D01*
Y163474D01*
X67259D01*
Y163678D01*
X67158D01*
Y163779D01*
X66954D01*
Y163678D01*
X66853D01*
Y163474D01*
X66954D01*
X67005Y163525D02*
Y163474D01*
X67107D01*
Y163525D01*
X67158D01*
Y163627D01*
X67107D01*
Y163678D01*
X67005D01*
Y163627D01*
X66954D01*
Y163525D01*
X67005D01*
X72542Y187350D02*
Y187249D01*
X72746D01*
Y187350D01*
X72847D01*
Y187554D01*
X72746D01*
Y187655D01*
X72542D01*
Y187554D01*
X72441D01*
Y187350D01*
X72542D01*
X72593Y187401D02*
Y187350D01*
X72695D01*
Y187401D01*
X72746D01*
Y187503D01*
X72695D01*
Y187554D01*
X72593D01*
Y187503D01*
X72542D01*
Y187401D01*
X72593D01*
X76098Y164490D02*
Y164389D01*
X76302D01*
Y164490D01*
X76403D01*
Y164694D01*
X76302D01*
Y164795D01*
X76098D01*
Y164694D01*
X75997D01*
Y164490D01*
X76098D01*
X76149Y164541D02*
Y164490D01*
X76251D01*
Y164541D01*
X76302D01*
Y164643D01*
X76251D01*
Y164694D01*
X76149D01*
Y164643D01*
X76098D01*
Y164541D01*
X76149D01*
X240182Y132994D02*
Y132893D01*
X240386D01*
Y132994D01*
X240487D01*
Y133198D01*
X240386D01*
Y133299D01*
X240182D01*
Y133198D01*
X240081D01*
Y132994D01*
X240182D01*
X240233Y133045D02*
Y132994D01*
X240335D01*
Y133045D01*
X240386D01*
Y133147D01*
X240335D01*
Y133198D01*
X240233D01*
Y133147D01*
X240182D01*
Y133045D01*
X240233D01*
X57810Y184810D02*
Y184709D01*
X58014D01*
Y184810D01*
X58115D01*
Y185014D01*
X58014D01*
Y185115D01*
X57810D01*
Y185014D01*
X57709D01*
Y184810D01*
X57810D01*
X57861Y184861D02*
Y184810D01*
X57963D01*
Y184861D01*
X58014D01*
Y184963D01*
X57963D01*
Y185014D01*
X57861D01*
Y184963D01*
X57810D01*
Y184861D01*
X57861D01*
X76098Y150266D02*
Y150165D01*
X76302D01*
Y150266D01*
X76403D01*
Y150470D01*
X76302D01*
Y150571D01*
X76098D01*
Y150470D01*
X75997D01*
Y150266D01*
X76098D01*
X76149Y150317D02*
Y150266D01*
X76251D01*
Y150317D01*
X76302D01*
Y150419D01*
X76251D01*
Y150470D01*
X76149D01*
Y150419D01*
X76098D01*
Y150317D01*
X76149D01*
X104546Y152298D02*
Y152197D01*
X104750D01*
Y152298D01*
X104851D01*
Y152502D01*
X104750D01*
Y152603D01*
X104546D01*
Y152502D01*
X104445D01*
Y152298D01*
X104546D01*
X104597Y152349D02*
Y152298D01*
X104699D01*
Y152349D01*
X104750D01*
Y152451D01*
X104699D01*
Y152502D01*
X104597D01*
Y152451D01*
X104546D01*
Y152349D01*
X104597D01*
X57302Y148234D02*
Y148133D01*
X57506D01*
Y148234D01*
X57607D01*
Y148438D01*
X57506D01*
Y148539D01*
X57302D01*
Y148438D01*
X57201D01*
Y148234D01*
X57302D01*
X57353Y148285D02*
Y148234D01*
X57455D01*
Y148285D01*
X57506D01*
Y148387D01*
X57455D01*
Y148438D01*
X57353D01*
Y148387D01*
X57302D01*
Y148285D01*
X57353D01*
X57302Y150774D02*
Y150673D01*
X57506D01*
Y150774D01*
X57607D01*
Y150978D01*
X57506D01*
Y151079D01*
X57302D01*
Y150978D01*
X57201D01*
Y150774D01*
X57302D01*
X57353Y150825D02*
Y150774D01*
X57455D01*
Y150825D01*
X57506D01*
Y150927D01*
X57455D01*
Y150978D01*
X57353D01*
Y150927D01*
X57302D01*
Y150825D01*
X57353D01*
X225450Y136550D02*
Y136449D01*
X225654D01*
Y136550D01*
X225755D01*
Y136754D01*
X225654D01*
Y136855D01*
X225450D01*
Y136754D01*
X225349D01*
Y136550D01*
X225450D01*
X225501Y136601D02*
Y136550D01*
X225603D01*
Y136601D01*
X225654D01*
Y136703D01*
X225603D01*
Y136754D01*
X225501D01*
Y136703D01*
X225450D01*
Y136601D01*
X225501D01*
X67462Y133502D02*
Y133401D01*
X67666D01*
Y133502D01*
X67767D01*
Y133706D01*
X67666D01*
Y133807D01*
X67462D01*
Y133706D01*
X67361D01*
Y133502D01*
X67462D01*
X67513Y133553D02*
Y133502D01*
X67615D01*
Y133553D01*
X67666D01*
Y133655D01*
X67615D01*
Y133706D01*
X67513D01*
Y133655D01*
X67462D01*
Y133553D01*
X67513D01*
X72542Y140106D02*
Y140005D01*
X72746D01*
Y140106D01*
X72847D01*
Y140310D01*
X72746D01*
Y140411D01*
X72542D01*
Y140310D01*
X72441D01*
Y140106D01*
X72542D01*
X72593Y140157D02*
Y140106D01*
X72695D01*
Y140157D01*
X72746D01*
Y140259D01*
X72695D01*
Y140310D01*
X72593D01*
Y140259D01*
X72542D01*
Y140157D01*
X72593D01*
X72542Y142138D02*
Y142037D01*
X72746D01*
Y142138D01*
X72847D01*
Y142342D01*
X72746D01*
Y142443D01*
X72542D01*
Y142342D01*
X72441D01*
Y142138D01*
X72542D01*
X72593Y142189D02*
Y142138D01*
X72695D01*
Y142189D01*
X72746D01*
Y142291D01*
X72695D01*
Y142342D01*
X72593D01*
Y142291D01*
X72542D01*
Y142189D01*
X72593D01*
X112674Y151282D02*
Y151181D01*
X112878D01*
Y151282D01*
X112979D01*
Y151486D01*
X112878D01*
Y151587D01*
X112674D01*
Y151486D01*
X112573D01*
Y151282D01*
X112674D01*
X112725Y151333D02*
Y151282D01*
X112827D01*
Y151333D01*
X112878D01*
Y151435D01*
X112827D01*
Y151486D01*
X112725D01*
Y151435D01*
X112674D01*
Y151333D01*
X112725D01*
X94640Y120294D02*
Y120193D01*
X94844D01*
Y120294D01*
X94945D01*
Y120498D01*
X94844D01*
Y120599D01*
X94640D01*
Y120498D01*
X94539D01*
Y120294D01*
X94640D01*
X94691Y120345D02*
Y120294D01*
X94793D01*
Y120345D01*
X94844D01*
Y120447D01*
X94793D01*
Y120498D01*
X94691D01*
Y120447D01*
X94640D01*
Y120345D01*
X94691D01*
X88798Y134010D02*
Y133909D01*
X89002D01*
Y134010D01*
X89103D01*
Y134214D01*
X89002D01*
Y134315D01*
X88798D01*
Y134214D01*
X88697D01*
Y134010D01*
X88798D01*
X88849Y134061D02*
Y134010D01*
X88951D01*
Y134061D01*
X89002D01*
Y134163D01*
X88951D01*
Y134214D01*
X88849D01*
Y134163D01*
X88798D01*
Y134061D01*
X88849D01*
X86766Y134010D02*
Y133909D01*
X86970D01*
Y134010D01*
X87071D01*
Y134214D01*
X86970D01*
Y134315D01*
X86766D01*
Y134214D01*
X86665D01*
Y134010D01*
X86766D01*
X86817Y134061D02*
Y134010D01*
X86919D01*
Y134061D01*
X86970D01*
Y134163D01*
X86919D01*
Y134214D01*
X86817D01*
Y134163D01*
X86766D01*
Y134061D01*
X86817D01*
X84734Y134010D02*
Y133909D01*
X84938D01*
Y134010D01*
X85039D01*
Y134214D01*
X84938D01*
Y134315D01*
X84734D01*
Y134214D01*
X84633D01*
Y134010D01*
X84734D01*
X84785Y134061D02*
Y134010D01*
X84887D01*
Y134061D01*
X84938D01*
Y134163D01*
X84887D01*
Y134214D01*
X84785D01*
Y134163D01*
X84734D01*
Y134061D01*
X84785D01*
X82702Y134010D02*
Y133909D01*
X82906D01*
Y134010D01*
X83007D01*
Y134214D01*
X82906D01*
Y134315D01*
X82702D01*
Y134214D01*
X82601D01*
Y134010D01*
X82702D01*
X82753Y134061D02*
Y134010D01*
X82855D01*
Y134061D01*
X82906D01*
Y134163D01*
X82855D01*
Y134214D01*
X82753D01*
Y134163D01*
X82702D01*
Y134061D01*
X82753D01*
X80670Y134010D02*
Y133909D01*
X80874D01*
Y134010D01*
X80975D01*
Y134214D01*
X80874D01*
Y134315D01*
X80670D01*
Y134214D01*
X80569D01*
Y134010D01*
X80670D01*
X80721Y134061D02*
Y134010D01*
X80823D01*
Y134061D01*
X80874D01*
Y134163D01*
X80823D01*
Y134214D01*
X80721D01*
Y134163D01*
X80670D01*
Y134061D01*
X80721D01*
X78638Y134010D02*
Y133909D01*
X78842D01*
Y134010D01*
X78943D01*
Y134214D01*
X78842D01*
Y134315D01*
X78638D01*
Y134214D01*
X78537D01*
Y134010D01*
X78638D01*
X78689Y134061D02*
Y134010D01*
X78791D01*
Y134061D01*
X78842D01*
Y134163D01*
X78791D01*
Y134214D01*
X78689D01*
Y134163D01*
X78638D01*
Y134061D01*
X78689D01*
X76606Y134010D02*
Y133909D01*
X76810D01*
Y134010D01*
X76911D01*
Y134214D01*
X76810D01*
Y134315D01*
X76606D01*
Y134214D01*
X76505D01*
Y134010D01*
X76606D01*
X76657Y134061D02*
Y134010D01*
X76759D01*
Y134061D01*
X76810D01*
Y134163D01*
X76759D01*
Y134214D01*
X76657D01*
Y134163D01*
X76606D01*
Y134061D01*
X76657D01*
X62890Y120294D02*
Y120193D01*
X63094D01*
Y120294D01*
X63195D01*
Y120498D01*
X63094D01*
Y120599D01*
X62890D01*
Y120498D01*
X62789D01*
Y120294D01*
X62890D01*
X62941Y120345D02*
Y120294D01*
X63043D01*
Y120345D01*
X63094D01*
Y120447D01*
X63043D01*
Y120498D01*
X62941D01*
Y120447D01*
X62890D01*
Y120345D01*
X62941D01*
X74574Y134010D02*
Y133909D01*
X74778D01*
Y134010D01*
X74879D01*
Y134214D01*
X74778D01*
Y134315D01*
X74574D01*
Y134214D01*
X74473D01*
Y134010D01*
X74574D01*
X74625Y134061D02*
Y134010D01*
X74727D01*
Y134061D01*
X74778D01*
Y134163D01*
X74727D01*
Y134214D01*
X74625D01*
Y134163D01*
X74574D01*
Y134061D01*
X74625D01*
X72542Y134010D02*
Y133909D01*
X72746D01*
Y134010D01*
X72847D01*
Y134214D01*
X72746D01*
Y134315D01*
X72542D01*
Y134214D01*
X72441D01*
Y134010D01*
X72542D01*
X72593Y134061D02*
Y134010D01*
X72695D01*
Y134061D01*
X72746D01*
Y134163D01*
X72695D01*
Y134214D01*
X72593D01*
Y134163D01*
X72542D01*
Y134061D01*
X72593D01*
X73558Y147218D02*
Y147117D01*
X73762D01*
Y147218D01*
X73863D01*
Y147422D01*
X73762D01*
Y147523D01*
X73558D01*
Y147422D01*
X73457D01*
Y147218D01*
X73558D01*
X73609Y147269D02*
Y147218D01*
X73711D01*
Y147269D01*
X73762D01*
Y147371D01*
X73711D01*
Y147422D01*
X73609D01*
Y147371D01*
X73558D01*
Y147269D01*
X73609D01*
X71857Y145669D02*
Y145567D01*
X72060D01*
Y145669D01*
X72161D01*
Y145872D01*
X72060D01*
Y145974D01*
X71857D01*
Y145872D01*
X71755D01*
Y145669D01*
X71857D01*
X71907Y145720D02*
Y145669D01*
X72009D01*
Y145720D01*
X72060D01*
Y145821D01*
X72009D01*
Y145872D01*
X71907D01*
Y145821D01*
X71857D01*
Y145720D01*
X71907D01*
X190906Y186842D02*
Y186741D01*
X191110D01*
Y186842D01*
X191211D01*
Y187046D01*
X191110D01*
Y187147D01*
X190906D01*
Y187046D01*
X190805D01*
Y186842D01*
X190906D01*
X190957Y186893D02*
Y186842D01*
X191059D01*
Y186893D01*
X191110D01*
Y186995D01*
X191059D01*
Y187046D01*
X190957D01*
Y186995D01*
X190906D01*
Y186893D01*
X190957D01*
X235102Y186842D02*
Y186741D01*
X235306D01*
Y186842D01*
X235407D01*
Y187046D01*
X235306D01*
Y187147D01*
X235102D01*
Y187046D01*
X235001D01*
Y186842D01*
X235102D01*
X235153Y186893D02*
Y186842D01*
X235255D01*
Y186893D01*
X235306D01*
Y186995D01*
X235255D01*
Y187046D01*
X235153D01*
Y186995D01*
X235102D01*
Y186893D01*
X235153D01*
X135026Y175666D02*
Y175565D01*
X135230D01*
Y175666D01*
X135331D01*
Y175870D01*
X135230D01*
Y175971D01*
X135026D01*
Y175870D01*
X134925D01*
Y175666D01*
X135026D01*
X135077Y175717D02*
Y175666D01*
X135179D01*
Y175717D01*
X135230D01*
Y175819D01*
X135179D01*
Y175870D01*
X135077D01*
Y175819D01*
X135026D01*
Y175717D01*
X135077D01*
X141630Y186334D02*
Y186233D01*
X141834D01*
Y186334D01*
X141935D01*
Y186538D01*
X141834D01*
Y186639D01*
X141630D01*
Y186538D01*
X141529D01*
Y186334D01*
X141630D01*
X141681Y186385D02*
Y186334D01*
X141783D01*
Y186385D01*
X141834D01*
Y186487D01*
X141783D01*
Y186538D01*
X141681D01*
Y186487D01*
X141630D01*
Y186385D01*
X141681D01*
X122326Y187858D02*
Y187757D01*
X122530D01*
Y187858D01*
X122631D01*
Y188062D01*
X122530D01*
Y188163D01*
X122326D01*
Y188062D01*
X122225D01*
Y187858D01*
X122326D01*
X122377Y187909D02*
Y187858D01*
X122479D01*
Y187909D01*
X122530D01*
Y188011D01*
X122479D01*
Y188062D01*
X122377D01*
Y188011D01*
X122326D01*
Y187909D01*
X122377D01*
X119786Y189382D02*
Y189281D01*
X119990D01*
Y189382D01*
X120091D01*
Y189586D01*
X119990D01*
Y189687D01*
X119786D01*
Y189586D01*
X119685D01*
Y189382D01*
X119786D01*
X119837Y189433D02*
Y189382D01*
X119939D01*
Y189433D01*
X119990D01*
Y189535D01*
X119939D01*
Y189586D01*
X119837D01*
Y189535D01*
X119786D01*
Y189433D01*
X119837D01*
X180746Y175666D02*
Y175565D01*
X180950D01*
Y175666D01*
X181051D01*
Y175870D01*
X180950D01*
Y175971D01*
X180746D01*
Y175870D01*
X180645D01*
Y175666D01*
X180746D01*
X180797Y175717D02*
Y175666D01*
X180899D01*
Y175717D01*
X180950D01*
Y175819D01*
X180899D01*
Y175870D01*
X180797D01*
Y175819D01*
X180746D01*
Y175717D01*
X180797D01*
X129438Y116738D02*
Y116637D01*
X129642D01*
Y116738D01*
X129743D01*
Y116942D01*
X129642D01*
Y117043D01*
X129438D01*
Y116942D01*
X129337D01*
Y116738D01*
X129438D01*
X129489Y116789D02*
Y116738D01*
X129591D01*
Y116789D01*
X129642D01*
Y116891D01*
X129591D01*
Y116942D01*
X129489D01*
Y116891D01*
X129438D01*
Y116789D01*
X129489D01*
X169062Y85242D02*
Y85141D01*
X169266D01*
Y85242D01*
X169367D01*
Y85446D01*
X169266D01*
Y85547D01*
X169062D01*
Y85446D01*
X168961D01*
Y85242D01*
X169062D01*
X169113Y85293D02*
Y85242D01*
X169215D01*
Y85293D01*
X169266D01*
Y85395D01*
X169215D01*
Y85446D01*
X169113D01*
Y85395D01*
X169062D01*
Y85293D01*
X169113D01*
X166522Y85242D02*
Y85141D01*
X166726D01*
Y85242D01*
X166827D01*
Y85446D01*
X166726D01*
Y85547D01*
X166522D01*
Y85446D01*
X166421D01*
Y85242D01*
X166522D01*
X166573Y85293D02*
Y85242D01*
X166675D01*
Y85293D01*
X166726D01*
Y85395D01*
X166675D01*
Y85446D01*
X166573D01*
Y85395D01*
X166522D01*
Y85293D01*
X166573D01*
X163982Y85242D02*
Y85141D01*
X164186D01*
Y85242D01*
X164287D01*
Y85446D01*
X164186D01*
Y85547D01*
X163982D01*
Y85446D01*
X163881D01*
Y85242D01*
X163982D01*
X164033Y85293D02*
Y85242D01*
X164135D01*
Y85293D01*
X164186D01*
Y85395D01*
X164135D01*
Y85446D01*
X164033D01*
Y85395D01*
X163982D01*
Y85293D01*
X164033D01*
X159918Y80670D02*
Y80569D01*
X160122D01*
Y80670D01*
X160223D01*
Y80874D01*
X160122D01*
Y80975D01*
X159918D01*
Y80874D01*
X159817D01*
Y80670D01*
X159918D01*
X159969Y80721D02*
Y80670D01*
X160071D01*
Y80721D01*
X160122D01*
Y80823D01*
X160071D01*
Y80874D01*
X159969D01*
Y80823D01*
X159918D01*
Y80721D01*
X159969D01*
X162966Y94386D02*
Y94285D01*
X163170D01*
Y94386D01*
X163271D01*
Y94590D01*
X163170D01*
Y94691D01*
X162966D01*
Y94590D01*
X162865D01*
Y94386D01*
X162966D01*
X163017Y94437D02*
Y94386D01*
X163119D01*
Y94437D01*
X163170D01*
Y94539D01*
X163119D01*
Y94590D01*
X163017D01*
Y94539D01*
X162966D01*
Y94437D01*
X163017D01*
X141630Y189382D02*
Y189281D01*
X141834D01*
Y189382D01*
X141935D01*
Y189586D01*
X141834D01*
Y189687D01*
X141630D01*
Y189586D01*
X141529D01*
Y189382D01*
X141630D01*
X141681Y189433D02*
Y189382D01*
X141783D01*
Y189433D01*
X141834D01*
Y189535D01*
X141783D01*
Y189586D01*
X141681D01*
Y189535D01*
X141630D01*
Y189433D01*
X141681D01*
X146202Y83210D02*
Y83109D01*
X146406D01*
Y83210D01*
X146507D01*
Y83414D01*
X146406D01*
Y83515D01*
X146202D01*
Y83414D01*
X146101D01*
Y83210D01*
X146202D01*
X146253Y83261D02*
Y83210D01*
X146355D01*
Y83261D01*
X146406D01*
Y83363D01*
X146355D01*
Y83414D01*
X146253D01*
Y83363D01*
X146202D01*
Y83261D01*
X146253D01*
X150266Y82194D02*
Y82093D01*
X150470D01*
Y82194D01*
X150571D01*
Y82398D01*
X150470D01*
Y82499D01*
X150266D01*
Y82398D01*
X150165D01*
Y82194D01*
X150266D01*
X150317Y82245D02*
Y82194D01*
X150419D01*
Y82245D01*
X150470D01*
Y82347D01*
X150419D01*
Y82398D01*
X150317D01*
Y82347D01*
X150266D01*
Y82245D01*
X150317D01*
X100482Y121310D02*
Y121209D01*
X100686D01*
Y121310D01*
X100787D01*
Y121514D01*
X100686D01*
Y121615D01*
X100482D01*
Y121514D01*
X100381D01*
Y121310D01*
X100482D01*
X100533Y121361D02*
Y121310D01*
X100635D01*
Y121361D01*
X100686D01*
Y121463D01*
X100635D01*
Y121514D01*
X100533D01*
Y121463D01*
X100482D01*
Y121361D01*
X100533D01*
X104038Y121310D02*
Y121209D01*
X104242D01*
Y121310D01*
X104343D01*
Y121514D01*
X104242D01*
Y121615D01*
X104038D01*
Y121514D01*
X103937D01*
Y121310D01*
X104038D01*
X104089Y121361D02*
Y121310D01*
X104191D01*
Y121361D01*
X104242D01*
Y121463D01*
X104191D01*
Y121514D01*
X104089D01*
Y121463D01*
X104038D01*
Y121361D01*
X104089D01*
X110134Y128930D02*
Y128829D01*
X110338D01*
Y128930D01*
X110439D01*
Y129134D01*
X110338D01*
Y129235D01*
X110134D01*
Y129134D01*
X110033D01*
Y128930D01*
X110134D01*
X110185Y128981D02*
Y128930D01*
X110287D01*
Y128981D01*
X110338D01*
Y129083D01*
X110287D01*
Y129134D01*
X110185D01*
Y129083D01*
X110134D01*
Y128981D01*
X110185D01*
X124866Y189382D02*
Y189281D01*
X125070D01*
Y189382D01*
X125171D01*
Y189586D01*
X125070D01*
Y189687D01*
X124866D01*
Y189586D01*
X124765D01*
Y189382D01*
X124866D01*
X124917Y189433D02*
Y189382D01*
X125019D01*
Y189433D01*
X125070D01*
Y189535D01*
X125019D01*
Y189586D01*
X124917D01*
Y189535D01*
X124866D01*
Y189433D01*
X124917D01*
X117246Y186334D02*
Y186233D01*
X117450D01*
Y186334D01*
X117551D01*
Y186538D01*
X117450D01*
Y186639D01*
X117246D01*
Y186538D01*
X117145D01*
Y186334D01*
X117246D01*
X117297Y186385D02*
Y186334D01*
X117399D01*
Y186385D01*
X117450D01*
Y186487D01*
X117399D01*
Y186538D01*
X117297D01*
Y186487D01*
X117246D01*
Y186385D01*
X117297D01*
X140106Y88290D02*
Y88189D01*
X140310D01*
Y88290D01*
X140411D01*
Y88494D01*
X140310D01*
Y88595D01*
X140106D01*
Y88494D01*
X140005D01*
Y88290D01*
X140106D01*
X140157Y88341D02*
Y88290D01*
X140259D01*
Y88341D01*
X140310D01*
Y88443D01*
X140259D01*
Y88494D01*
X140157D01*
Y88443D01*
X140106D01*
Y88341D01*
X140157D01*
X141630Y86766D02*
Y86665D01*
X141834D01*
Y86766D01*
X141935D01*
Y86970D01*
X141834D01*
Y87071D01*
X141630D01*
Y86970D01*
X141529D01*
Y86766D01*
X141630D01*
X141681Y86817D02*
Y86766D01*
X141783D01*
Y86817D01*
X141834D01*
Y86919D01*
X141783D01*
Y86970D01*
X141681D01*
Y86919D01*
X141630D01*
Y86817D01*
X141681D01*
X143154Y88290D02*
Y88189D01*
X143358D01*
Y88290D01*
X143459D01*
Y88494D01*
X143358D01*
Y88595D01*
X143154D01*
Y88494D01*
X143053D01*
Y88290D01*
X143154D01*
X143205Y88341D02*
Y88290D01*
X143307D01*
Y88341D01*
X143358D01*
Y88443D01*
X143307D01*
Y88494D01*
X143205D01*
Y88443D01*
X143154D01*
Y88341D01*
X143205D01*
X144678Y89814D02*
Y89713D01*
X144882D01*
Y89814D01*
X144983D01*
Y90018D01*
X144882D01*
Y90119D01*
X144678D01*
Y90018D01*
X144577D01*
Y89814D01*
X144678D01*
X144729Y89865D02*
Y89814D01*
X144831D01*
Y89865D01*
X144882D01*
Y89967D01*
X144831D01*
Y90018D01*
X144729D01*
Y89967D01*
X144678D01*
Y89865D01*
X144729D01*
X129946Y190906D02*
Y190805D01*
X130150D01*
Y190906D01*
X130251D01*
Y191110D01*
X130150D01*
Y191211D01*
X129946D01*
Y191110D01*
X129845D01*
Y190906D01*
X129946D01*
X129997Y190957D02*
Y190906D01*
X130099D01*
Y190957D01*
X130150D01*
Y191059D01*
X130099D01*
Y191110D01*
X129997D01*
Y191059D01*
X129946D01*
Y190957D01*
X129997D01*
X66954Y173634D02*
Y173533D01*
X67158D01*
Y173634D01*
X67259D01*
Y173838D01*
X67158D01*
Y173939D01*
X66954D01*
Y173838D01*
X66853D01*
Y173634D01*
X66954D01*
X67005Y173685D02*
Y173634D01*
X67107D01*
Y173685D01*
X67158D01*
Y173787D01*
X67107D01*
Y173838D01*
X67005D01*
Y173787D01*
X66954D01*
Y173685D01*
X67005D01*
X66954Y176174D02*
Y176073D01*
X67158D01*
Y176174D01*
X67259D01*
Y176378D01*
X67158D01*
Y176479D01*
X66954D01*
Y176378D01*
X66853D01*
Y176174D01*
X66954D01*
X67005Y176225D02*
Y176174D01*
X67107D01*
Y176225D01*
X67158D01*
Y176327D01*
X67107D01*
Y176378D01*
X67005D01*
Y176327D01*
X66954D01*
Y176225D01*
X67005D01*
X242722Y74574D02*
Y74473D01*
X242926D01*
Y74574D01*
X243027D01*
Y74778D01*
X242926D01*
Y74879D01*
X242722D01*
Y74778D01*
X242621D01*
Y74574D01*
X242722D01*
X242773Y74625D02*
Y74574D01*
X242875D01*
Y74625D01*
X242926D01*
Y74727D01*
X242875D01*
Y74778D01*
X242773D01*
Y74727D01*
X242722D01*
Y74625D01*
X242773D01*
X242722Y65430D02*
Y65329D01*
X242926D01*
Y65430D01*
X243027D01*
Y65634D01*
X242926D01*
Y65735D01*
X242722D01*
Y65634D01*
X242621D01*
Y65430D01*
X242722D01*
X242773Y65481D02*
Y65430D01*
X242875D01*
Y65481D01*
X242926D01*
Y65583D01*
X242875D01*
Y65634D01*
X242773D01*
Y65583D01*
X242722D01*
Y65481D01*
X242773D01*
X57302Y132486D02*
Y132385D01*
X57506D01*
Y132486D01*
X57607D01*
Y132690D01*
X57506D01*
Y132791D01*
X57302D01*
Y132690D01*
X57201D01*
Y132486D01*
X57302D01*
X57353Y132537D02*
Y132486D01*
X57455D01*
Y132537D01*
X57506D01*
Y132639D01*
X57455D01*
Y132690D01*
X57353D01*
Y132639D01*
X57302D01*
Y132537D01*
X57353D01*
X221386Y107086D02*
Y106985D01*
X221590D01*
Y107086D01*
X221691D01*
Y107290D01*
X221590D01*
Y107391D01*
X221386D01*
Y107290D01*
X221285D01*
Y107086D01*
X221386D01*
X221437Y107137D02*
Y107086D01*
X221539D01*
Y107137D01*
X221590D01*
Y107239D01*
X221539D01*
Y107290D01*
X221437D01*
Y107239D01*
X221386D01*
Y107137D01*
X221437D01*
X220370Y84734D02*
Y84633D01*
X220574D01*
Y84734D01*
X220675D01*
Y84938D01*
X220574D01*
Y85039D01*
X220370D01*
Y84938D01*
X220269D01*
Y84734D01*
X220370D01*
X220421Y84785D02*
Y84734D01*
X220523D01*
Y84785D01*
X220574D01*
Y84887D01*
X220523D01*
Y84938D01*
X220421D01*
Y84887D01*
X220370D01*
Y84785D01*
X220421D01*
X218846Y61366D02*
Y61265D01*
X219050D01*
Y61366D01*
X219151D01*
Y61570D01*
X219050D01*
Y61671D01*
X218846D01*
Y61570D01*
X218745D01*
Y61366D01*
X218846D01*
X218897Y61417D02*
Y61366D01*
X218999D01*
Y61417D01*
X219050D01*
Y61519D01*
X218999D01*
Y61570D01*
X218897D01*
Y61519D01*
X218846D01*
Y61417D01*
X218897D01*
X203098Y53238D02*
Y53137D01*
X203302D01*
Y53238D01*
X203403D01*
Y53442D01*
X203302D01*
Y53543D01*
X203098D01*
Y53442D01*
X202997D01*
Y53238D01*
X203098D01*
X203149Y53289D02*
Y53238D01*
X203251D01*
Y53289D01*
X203302D01*
Y53391D01*
X203251D01*
Y53442D01*
X203149D01*
Y53391D01*
X203098D01*
Y53289D01*
X203149D01*
X231546Y52730D02*
Y52629D01*
X231750D01*
Y52730D01*
X231851D01*
Y52934D01*
X231750D01*
Y53035D01*
X231546D01*
Y52934D01*
X231445D01*
Y52730D01*
X231546D01*
X231597Y52781D02*
Y52730D01*
X231699D01*
Y52781D01*
X231750D01*
Y52883D01*
X231699D01*
Y52934D01*
X231597D01*
Y52883D01*
X231546D01*
Y52781D01*
X231597D01*
X61874Y82194D02*
Y82093D01*
X62078D01*
Y82194D01*
X62179D01*
Y82398D01*
X62078D01*
Y82499D01*
X61874D01*
Y82398D01*
X61773D01*
Y82194D01*
X61874D01*
X61925Y82245D02*
Y82194D01*
X62027D01*
Y82245D01*
X62078D01*
Y82347D01*
X62027D01*
Y82398D01*
X61925D01*
Y82347D01*
X61874D01*
Y82245D01*
X61925D01*
X61874Y95402D02*
Y95301D01*
X62078D01*
Y95402D01*
X62179D01*
Y95606D01*
X62078D01*
Y95707D01*
X61874D01*
Y95606D01*
X61773D01*
Y95402D01*
X61874D01*
X61925Y95453D02*
Y95402D01*
X62027D01*
Y95453D01*
X62078D01*
Y95555D01*
X62027D01*
Y95606D01*
X61925D01*
Y95555D01*
X61874D01*
Y95453D01*
X61925D01*
X61874Y67970D02*
Y67869D01*
X62078D01*
Y67970D01*
X62179D01*
Y68174D01*
X62078D01*
Y68275D01*
X61874D01*
Y68174D01*
X61773D01*
Y67970D01*
X61874D01*
X61925Y68021D02*
Y67970D01*
X62027D01*
Y68021D01*
X62078D01*
Y68123D01*
X62027D01*
Y68174D01*
X61925D01*
Y68123D01*
X61874D01*
Y68021D01*
X61925D01*
X73050Y81686D02*
Y81585D01*
X73254D01*
Y81686D01*
X73355D01*
Y81890D01*
X73254D01*
Y81991D01*
X73050D01*
Y81890D01*
X72949D01*
Y81686D01*
X73050D01*
X73101Y81737D02*
Y81686D01*
X73203D01*
Y81737D01*
X73254D01*
Y81839D01*
X73203D01*
Y81890D01*
X73101D01*
Y81839D01*
X73050D01*
Y81737D01*
X73101D01*
X73050Y67462D02*
Y67361D01*
X73254D01*
Y67462D01*
X73355D01*
Y67666D01*
X73254D01*
Y67767D01*
X73050D01*
Y67666D01*
X72949D01*
Y67462D01*
X73050D01*
X73101Y67513D02*
Y67462D01*
X73203D01*
Y67513D01*
X73254D01*
Y67615D01*
X73203D01*
Y67666D01*
X73101D01*
Y67615D01*
X73050D01*
Y67513D01*
X73101D01*
X94894Y107594D02*
Y107493D01*
X95098D01*
Y107594D01*
X95199D01*
Y107798D01*
X95098D01*
Y107899D01*
X94894D01*
Y107798D01*
X94793D01*
Y107594D01*
X94894D01*
X94945Y107645D02*
Y107594D01*
X95047D01*
Y107645D01*
X95098D01*
Y107747D01*
X95047D01*
Y107798D01*
X94945D01*
Y107747D01*
X94894D01*
Y107645D01*
X94945D01*
X94894Y105054D02*
Y104953D01*
X95098D01*
Y105054D01*
X95199D01*
Y105258D01*
X95098D01*
Y105359D01*
X94894D01*
Y105258D01*
X94793D01*
Y105054D01*
X94894D01*
X94945Y105105D02*
Y105054D01*
X95047D01*
Y105105D01*
X95098D01*
Y105207D01*
X95047D01*
Y105258D01*
X94945D01*
Y105207D01*
X94894D01*
Y105105D01*
X94945D01*
X94894Y102514D02*
Y102413D01*
X95098D01*
Y102514D01*
X95199D01*
Y102718D01*
X95098D01*
Y102819D01*
X94894D01*
Y102718D01*
X94793D01*
Y102514D01*
X94894D01*
X94945Y102565D02*
Y102514D01*
X95047D01*
Y102565D01*
X95098D01*
Y102667D01*
X95047D01*
Y102718D01*
X94945D01*
Y102667D01*
X94894D01*
Y102565D01*
X94945D01*
X94894Y99974D02*
Y99873D01*
X95098D01*
Y99974D01*
X95199D01*
Y100178D01*
X95098D01*
Y100279D01*
X94894D01*
Y100178D01*
X94793D01*
Y99974D01*
X94894D01*
X94945Y100025D02*
Y99974D01*
X95047D01*
Y100025D01*
X95098D01*
Y100127D01*
X95047D01*
Y100178D01*
X94945D01*
Y100127D01*
X94894D01*
Y100025D01*
X94945D01*
X76606Y81686D02*
Y81585D01*
X76810D01*
Y81686D01*
X76911D01*
Y81890D01*
X76810D01*
Y81991D01*
X76606D01*
Y81890D01*
X76505D01*
Y81686D01*
X76606D01*
X76657Y81737D02*
Y81686D01*
X76759D01*
Y81737D01*
X76810D01*
Y81839D01*
X76759D01*
Y81890D01*
X76657D01*
Y81839D01*
X76606D01*
Y81737D01*
X76657D01*
X71526Y95402D02*
Y95301D01*
X71730D01*
Y95402D01*
X71831D01*
Y95606D01*
X71730D01*
Y95707D01*
X71526D01*
Y95606D01*
X71425D01*
Y95402D01*
X71526D01*
X71577Y95453D02*
Y95402D01*
X71679D01*
Y95453D01*
X71730D01*
Y95555D01*
X71679D01*
Y95606D01*
X71577D01*
Y95555D01*
X71526D01*
Y95453D01*
X71577D01*
X76606Y94386D02*
Y94285D01*
X76810D01*
Y94386D01*
X76911D01*
Y94590D01*
X76810D01*
Y94691D01*
X76606D01*
Y94590D01*
X76505D01*
Y94386D01*
X76606D01*
X76657Y94437D02*
Y94386D01*
X76759D01*
Y94437D01*
X76810D01*
Y94539D01*
X76759D01*
Y94590D01*
X76657D01*
Y94539D01*
X76606D01*
Y94437D01*
X76657D01*
X59334Y93370D02*
Y93269D01*
X59538D01*
Y93370D01*
X59639D01*
Y93574D01*
X59538D01*
Y93675D01*
X59334D01*
Y93574D01*
X59233D01*
Y93370D01*
X59334D01*
X59385Y93421D02*
Y93370D01*
X59487D01*
Y93421D01*
X59538D01*
Y93523D01*
X59487D01*
Y93574D01*
X59385D01*
Y93523D01*
X59334D01*
Y93421D01*
X59385D01*
X86258Y97942D02*
Y97841D01*
X86462D01*
Y97942D01*
X86563D01*
Y98146D01*
X86462D01*
Y98247D01*
X86258D01*
Y98146D01*
X86157D01*
Y97942D01*
X86258D01*
X86309Y97993D02*
Y97942D01*
X86411D01*
Y97993D01*
X86462D01*
Y98095D01*
X86411D01*
Y98146D01*
X86309D01*
Y98095D01*
X86258D01*
Y97993D01*
X86309D01*
X108102Y58318D02*
Y58217D01*
X108306D01*
Y58318D01*
X108407D01*
Y58522D01*
X108306D01*
Y58623D01*
X108102D01*
Y58522D01*
X108001D01*
Y58318D01*
X108102D01*
X108153Y58369D02*
Y58318D01*
X108255D01*
Y58369D01*
X108306D01*
Y58471D01*
X108255D01*
Y58522D01*
X108153D01*
Y58471D01*
X108102D01*
Y58369D01*
X108153D01*
X108102Y74066D02*
Y73965D01*
X108306D01*
Y74066D01*
X108407D01*
Y74270D01*
X108306D01*
Y74371D01*
X108102D01*
Y74270D01*
X108001D01*
Y74066D01*
X108102D01*
X108153Y74117D02*
Y74066D01*
X108255D01*
Y74117D01*
X108306D01*
Y74219D01*
X108255D01*
Y74270D01*
X108153D01*
Y74219D01*
X108102D01*
Y74117D01*
X108153D01*
X108102Y90322D02*
Y90221D01*
X108306D01*
Y90322D01*
X108407D01*
Y90526D01*
X108306D01*
Y90627D01*
X108102D01*
Y90526D01*
X108001D01*
Y90322D01*
X108102D01*
X108153Y90373D02*
Y90322D01*
X108255D01*
Y90373D01*
X108306D01*
Y90475D01*
X108255D01*
Y90526D01*
X108153D01*
Y90475D01*
X108102D01*
Y90373D01*
X108153D01*
X105562Y53746D02*
Y53645D01*
X105766D01*
Y53746D01*
X105867D01*
Y53950D01*
X105766D01*
Y54051D01*
X105562D01*
Y53950D01*
X105461D01*
Y53746D01*
X105562D01*
X105613Y53797D02*
Y53746D01*
X105715D01*
Y53797D01*
X105766D01*
Y53899D01*
X105715D01*
Y53950D01*
X105613D01*
Y53899D01*
X105562D01*
Y53797D01*
X105613D01*
X104546Y67970D02*
Y67869D01*
X104750D01*
Y67970D01*
X104851D01*
Y68174D01*
X104750D01*
Y68275D01*
X104546D01*
Y68174D01*
X104445D01*
Y67970D01*
X104546D01*
X104597Y68021D02*
Y67970D01*
X104699D01*
Y68021D01*
X104750D01*
Y68123D01*
X104699D01*
Y68174D01*
X104597D01*
Y68123D01*
X104546D01*
Y68021D01*
X104597D01*
X104546Y84226D02*
Y84125D01*
X104750D01*
Y84226D01*
X104851D01*
Y84430D01*
X104750D01*
Y84531D01*
X104546D01*
Y84430D01*
X104445D01*
Y84226D01*
X104546D01*
X104597Y84277D02*
Y84226D01*
X104699D01*
Y84277D01*
X104750D01*
Y84379D01*
X104699D01*
Y84430D01*
X104597D01*
Y84379D01*
X104546D01*
Y84277D01*
X104597D01*
X111658Y72034D02*
Y71933D01*
X111862D01*
Y72034D01*
X111963D01*
Y72238D01*
X111862D01*
Y72339D01*
X111658D01*
Y72238D01*
X111557D01*
Y72034D01*
X111658D01*
X111709Y72085D02*
Y72034D01*
X111811D01*
Y72085D01*
X111862D01*
Y72187D01*
X111811D01*
Y72238D01*
X111709D01*
Y72187D01*
X111658D01*
Y72085D01*
X111709D01*
X111658Y56286D02*
Y56185D01*
X111862D01*
Y56286D01*
X111963D01*
Y56490D01*
X111862D01*
Y56591D01*
X111658D01*
Y56490D01*
X111557D01*
Y56286D01*
X111658D01*
X111709Y56337D02*
Y56286D01*
X111811D01*
Y56337D01*
X111862D01*
Y56439D01*
X111811D01*
Y56490D01*
X111709D01*
Y56439D01*
X111658D01*
Y56337D01*
X111709D01*
X93370Y58318D02*
Y58217D01*
X93574D01*
Y58318D01*
X93675D01*
Y58522D01*
X93574D01*
Y58623D01*
X93370D01*
Y58522D01*
X93269D01*
Y58318D01*
X93370D01*
X93421Y58369D02*
Y58318D01*
X93523D01*
Y58369D01*
X93574D01*
Y58471D01*
X93523D01*
Y58522D01*
X93421D01*
Y58471D01*
X93370D01*
Y58369D01*
X93421D01*
X86766Y58318D02*
Y58217D01*
X86970D01*
Y58318D01*
X87071D01*
Y58522D01*
X86970D01*
Y58623D01*
X86766D01*
Y58522D01*
X86665D01*
Y58318D01*
X86766D01*
X86817Y58369D02*
Y58318D01*
X86919D01*
Y58369D01*
X86970D01*
Y58471D01*
X86919D01*
Y58522D01*
X86817D01*
Y58471D01*
X86766D01*
Y58369D01*
X86817D01*
X70002Y54254D02*
Y54153D01*
X70206D01*
Y54254D01*
X70307D01*
Y54458D01*
X70206D01*
Y54559D01*
X70002D01*
Y54458D01*
X69901D01*
Y54254D01*
X70002D01*
X70053Y54305D02*
Y54254D01*
X70155D01*
Y54305D01*
X70206D01*
Y54407D01*
X70155D01*
Y54458D01*
X70053D01*
Y54407D01*
X70002D01*
Y54305D01*
X70053D01*
X111658Y88290D02*
Y88189D01*
X111862D01*
Y88290D01*
X111963D01*
Y88494D01*
X111862D01*
Y88595D01*
X111658D01*
Y88494D01*
X111557D01*
Y88290D01*
X111658D01*
X111709Y88341D02*
Y88290D01*
X111811D01*
Y88341D01*
X111862D01*
Y88443D01*
X111811D01*
Y88494D01*
X111709D01*
Y88443D01*
X111658D01*
Y88341D01*
X111709D01*
X125882Y98450D02*
Y98349D01*
X126086D01*
Y98450D01*
X126187D01*
Y98654D01*
X126086D01*
Y98755D01*
X125882D01*
Y98654D01*
X125781D01*
Y98450D01*
X125882D01*
X125933Y98501D02*
Y98450D01*
X126035D01*
Y98501D01*
X126086D01*
Y98603D01*
X126035D01*
Y98654D01*
X125933D01*
Y98603D01*
X125882D01*
Y98501D01*
X125933D01*
X125882Y104038D02*
Y103937D01*
X126086D01*
Y104038D01*
X126187D01*
Y104242D01*
X126086D01*
Y104343D01*
X125882D01*
Y104242D01*
X125781D01*
Y104038D01*
X125882D01*
X125933Y104089D02*
Y104038D01*
X126035D01*
Y104089D01*
X126086D01*
Y104191D01*
X126035D01*
Y104242D01*
X125933D01*
Y104191D01*
X125882D01*
Y104089D01*
X125933D01*
X125882Y93370D02*
Y93269D01*
X126086D01*
Y93370D01*
X126187D01*
Y93574D01*
X126086D01*
Y93675D01*
X125882D01*
Y93574D01*
X125781D01*
Y93370D01*
X125882D01*
X125933Y93421D02*
Y93370D01*
X126035D01*
Y93421D01*
X126086D01*
Y93523D01*
X126035D01*
Y93574D01*
X125933D01*
Y93523D01*
X125882D01*
Y93421D01*
X125933D01*
X125882Y95910D02*
Y95809D01*
X126086D01*
Y95910D01*
X126187D01*
Y96114D01*
X126086D01*
Y96215D01*
X125882D01*
Y96114D01*
X125781D01*
Y95910D01*
X125882D01*
X125933Y95961D02*
Y95910D01*
X126035D01*
Y95961D01*
X126086D01*
Y96063D01*
X126035D01*
Y96114D01*
X125933D01*
Y96063D01*
X125882D01*
Y95961D01*
X125933D01*
X153314Y52730D02*
Y52629D01*
X153518D01*
Y52730D01*
X153619D01*
Y52934D01*
X153518D01*
Y53035D01*
X153314D01*
Y52934D01*
X153213D01*
Y52730D01*
X153314D01*
X153365Y52781D02*
Y52730D01*
X153467D01*
Y52781D01*
X153518D01*
Y52883D01*
X153467D01*
Y52934D01*
X153365D01*
Y52883D01*
X153314D01*
Y52781D01*
X153365D01*
X142138Y52730D02*
Y52629D01*
X142342D01*
Y52730D01*
X142443D01*
Y52934D01*
X142342D01*
Y53035D01*
X142138D01*
Y52934D01*
X142037D01*
Y52730D01*
X142138D01*
X142189Y52781D02*
Y52730D01*
X142291D01*
Y52781D01*
X142342D01*
Y52883D01*
X142291D01*
Y52934D01*
X142189D01*
Y52883D01*
X142138D01*
Y52781D01*
X142189D01*
X128422Y52730D02*
Y52629D01*
X128626D01*
Y52730D01*
X128727D01*
Y52934D01*
X128626D01*
Y53035D01*
X128422D01*
Y52934D01*
X128321D01*
Y52730D01*
X128422D01*
X128473Y52781D02*
Y52730D01*
X128575D01*
Y52781D01*
X128626D01*
Y52883D01*
X128575D01*
Y52934D01*
X128473D01*
Y52883D01*
X128422D01*
Y52781D01*
X128473D01*
X115214Y52730D02*
Y52629D01*
X115418D01*
Y52730D01*
X115519D01*
Y52934D01*
X115418D01*
Y53035D01*
X115214D01*
Y52934D01*
X115113D01*
Y52730D01*
X115214D01*
X115265Y52781D02*
Y52730D01*
X115367D01*
Y52781D01*
X115418D01*
Y52883D01*
X115367D01*
Y52934D01*
X115265D01*
Y52883D01*
X115214D01*
Y52781D01*
X115265D01*
X167538Y55778D02*
Y55677D01*
X167742D01*
Y55778D01*
X167843D01*
Y55982D01*
X167742D01*
Y56083D01*
X167538D01*
Y55982D01*
X167437D01*
Y55778D01*
X167538D01*
X167589Y55829D02*
Y55778D01*
X167691D01*
Y55829D01*
X167742D01*
Y55931D01*
X167691D01*
Y55982D01*
X167589D01*
Y55931D01*
X167538D01*
Y55829D01*
X167589D01*
X122326Y55778D02*
Y55677D01*
X122530D01*
Y55778D01*
X122631D01*
Y55982D01*
X122530D01*
Y56083D01*
X122326D01*
Y55982D01*
X122225D01*
Y55778D01*
X122326D01*
X122377Y55829D02*
Y55778D01*
X122479D01*
Y55829D01*
X122530D01*
Y55931D01*
X122479D01*
Y55982D01*
X122377D01*
Y55931D01*
X122326D01*
Y55829D01*
X122377D01*
X136042Y57810D02*
Y57709D01*
X136246D01*
Y57810D01*
X136347D01*
Y58014D01*
X136246D01*
Y58115D01*
X136042D01*
Y58014D01*
X135941D01*
Y57810D01*
X136042D01*
X136093Y57861D02*
Y57810D01*
X136195D01*
Y57861D01*
X136246D01*
Y57963D01*
X136195D01*
Y58014D01*
X136093D01*
Y57963D01*
X136042D01*
Y57861D01*
X136093D01*
X149758Y57810D02*
Y57709D01*
X149962D01*
Y57810D01*
X150063D01*
Y58014D01*
X149962D01*
Y58115D01*
X149758D01*
Y58014D01*
X149657D01*
Y57810D01*
X149758D01*
X149809Y57861D02*
Y57810D01*
X149911D01*
Y57861D01*
X149962D01*
Y57963D01*
X149911D01*
Y58014D01*
X149809D01*
Y57963D01*
X149758D01*
Y57861D01*
X149809D01*
X174650Y55778D02*
Y55677D01*
X174854D01*
Y55778D01*
X174955D01*
Y55982D01*
X174854D01*
Y56083D01*
X174650D01*
Y55982D01*
X174549D01*
Y55778D01*
X174650D01*
X174701Y55829D02*
Y55778D01*
X174803D01*
Y55829D01*
X174854D01*
Y55931D01*
X174803D01*
Y55982D01*
X174701D01*
Y55931D01*
X174650D01*
Y55829D01*
X174701D01*
X160934Y57810D02*
Y57709D01*
X161138D01*
Y57810D01*
X161239D01*
Y58014D01*
X161138D01*
Y58115D01*
X160934D01*
Y58014D01*
X160833D01*
Y57810D01*
X160934D01*
X160985Y57861D02*
Y57810D01*
X161087D01*
Y57861D01*
X161138D01*
Y57963D01*
X161087D01*
Y58014D01*
X160985D01*
Y57963D01*
X160934D01*
Y57861D01*
X160985D01*
X160426Y55778D02*
Y55677D01*
X160630D01*
Y55778D01*
X160731D01*
Y55982D01*
X160630D01*
Y56083D01*
X160426D01*
Y55982D01*
X160325D01*
Y55778D01*
X160426D01*
X160477Y55829D02*
Y55778D01*
X160579D01*
Y55829D01*
X160630D01*
Y55931D01*
X160579D01*
Y55982D01*
X160477D01*
Y55931D01*
X160426D01*
Y55829D01*
X160477D01*
X185318Y55778D02*
Y55677D01*
X185522D01*
Y55778D01*
X185623D01*
Y55982D01*
X185522D01*
Y56083D01*
X185318D01*
Y55982D01*
X185217D01*
Y55778D01*
X185318D01*
X185369Y55829D02*
Y55778D01*
X185471D01*
Y55829D01*
X185522D01*
Y55931D01*
X185471D01*
Y55982D01*
X185369D01*
Y55931D01*
X185318D01*
Y55829D01*
X185369D01*
X170078Y59334D02*
Y59233D01*
X170282D01*
Y59334D01*
X170383D01*
Y59538D01*
X170282D01*
Y59639D01*
X170078D01*
Y59538D01*
X169977D01*
Y59334D01*
X170078D01*
X170129Y59385D02*
Y59334D01*
X170231D01*
Y59385D01*
X170282D01*
Y59487D01*
X170231D01*
Y59538D01*
X170129D01*
Y59487D01*
X170078D01*
Y59385D01*
X170129D01*
X177698Y57810D02*
Y57709D01*
X177902D01*
Y57810D01*
X178003D01*
Y58014D01*
X177902D01*
Y58115D01*
X177698D01*
Y58014D01*
X177597D01*
Y57810D01*
X177698D01*
X177749Y57861D02*
Y57810D01*
X177851D01*
Y57861D01*
X177902D01*
Y57963D01*
X177851D01*
Y58014D01*
X177749D01*
Y57963D01*
X177698D01*
Y57861D01*
X177749D01*
X180238Y76098D02*
Y75997D01*
X180442D01*
Y76098D01*
X180543D01*
Y76302D01*
X180442D01*
Y76403D01*
X180238D01*
Y76302D01*
X180137D01*
Y76098D01*
X180238D01*
X180289Y76149D02*
Y76098D01*
X180391D01*
Y76149D01*
X180442D01*
Y76251D01*
X180391D01*
Y76302D01*
X180289D01*
Y76251D01*
X180238D01*
Y76149D01*
X180289D01*
X180238Y66954D02*
Y66853D01*
X180442D01*
Y66954D01*
X180543D01*
Y67158D01*
X180442D01*
Y67259D01*
X180238D01*
Y67158D01*
X180137D01*
Y66954D01*
X180238D01*
X180289Y67005D02*
Y66954D01*
X180391D01*
Y67005D01*
X180442D01*
Y67107D01*
X180391D01*
Y67158D01*
X180289D01*
Y67107D01*
X180238D01*
Y67005D01*
X180289D01*
X176682Y92354D02*
Y92253D01*
X176886D01*
Y92354D01*
X176987D01*
Y92558D01*
X176886D01*
Y92659D01*
X176682D01*
Y92558D01*
X176581D01*
Y92354D01*
X176682D01*
X176733Y92405D02*
Y92354D01*
X176835D01*
Y92405D01*
X176886D01*
Y92507D01*
X176835D01*
Y92558D01*
X176733D01*
Y92507D01*
X176682D01*
Y92405D01*
X176733D01*
X176682Y94894D02*
Y94793D01*
X176886D01*
Y94894D01*
X176987D01*
Y95098D01*
X176886D01*
Y95199D01*
X176682D01*
Y95098D01*
X176581D01*
Y94894D01*
X176682D01*
X176733Y94945D02*
Y94894D01*
X176835D01*
Y94945D01*
X176886D01*
Y95047D01*
X176835D01*
Y95098D01*
X176733D01*
Y95047D01*
X176682D01*
Y94945D01*
X176733D01*
X176682Y97434D02*
Y97333D01*
X176886D01*
Y97434D01*
X176987D01*
Y97638D01*
X176886D01*
Y97739D01*
X176682D01*
Y97638D01*
X176581D01*
Y97434D01*
X176682D01*
X176733Y97485D02*
Y97434D01*
X176835D01*
Y97485D01*
X176886D01*
Y97587D01*
X176835D01*
Y97638D01*
X176733D01*
Y97587D01*
X176682D01*
Y97485D01*
X176733D01*
X165506Y96418D02*
Y96317D01*
X165710D01*
Y96418D01*
X165811D01*
Y96622D01*
X165710D01*
Y96723D01*
X165506D01*
Y96622D01*
X165405D01*
Y96418D01*
X165506D01*
X165557Y96469D02*
Y96418D01*
X165659D01*
Y96469D01*
X165710D01*
Y96571D01*
X165659D01*
Y96622D01*
X165557D01*
Y96571D01*
X165506D01*
Y96469D01*
X165557D01*
X165506Y98958D02*
Y98857D01*
X165710D01*
Y98958D01*
X165811D01*
Y99162D01*
X165710D01*
Y99263D01*
X165506D01*
Y99162D01*
X165405D01*
Y98958D01*
X165506D01*
X165557Y99009D02*
Y98958D01*
X165659D01*
Y99009D01*
X165710D01*
Y99111D01*
X165659D01*
Y99162D01*
X165557D01*
Y99111D01*
X165506D01*
Y99009D01*
X165557D01*
X165506Y101498D02*
Y101397D01*
X165710D01*
Y101498D01*
X165811D01*
Y101702D01*
X165710D01*
Y101803D01*
X165506D01*
Y101702D01*
X165405D01*
Y101498D01*
X165506D01*
X165557Y101549D02*
Y101498D01*
X165659D01*
Y101549D01*
X165710D01*
Y101651D01*
X165659D01*
Y101702D01*
X165557D01*
Y101651D01*
X165506D01*
Y101549D01*
X165557D01*
X165506Y93878D02*
Y93777D01*
X165710D01*
Y93878D01*
X165811D01*
Y94082D01*
X165710D01*
Y94183D01*
X165506D01*
Y94082D01*
X165405D01*
Y93878D01*
X165506D01*
X165557Y93929D02*
Y93878D01*
X165659D01*
Y93929D01*
X165710D01*
Y94031D01*
X165659D01*
Y94082D01*
X165557D01*
Y94031D01*
X165506D01*
Y93929D01*
X165557D01*
X172110Y85242D02*
Y85141D01*
X172314D01*
Y85242D01*
X172415D01*
Y85446D01*
X172314D01*
Y85547D01*
X172110D01*
Y85446D01*
X172009D01*
Y85242D01*
X172110D01*
X172161Y85293D02*
Y85242D01*
X172263D01*
Y85293D01*
X172314D01*
Y85395D01*
X172263D01*
Y85446D01*
X172161D01*
Y85395D01*
X172110D01*
Y85293D01*
X172161D01*
X135534Y55778D02*
Y55677D01*
X135738D01*
Y55778D01*
X135839D01*
Y55982D01*
X135738D01*
Y56083D01*
X135534D01*
Y55982D01*
X135433D01*
Y55778D01*
X135534D01*
X135585Y55829D02*
Y55778D01*
X135687D01*
Y55829D01*
X135738D01*
Y55931D01*
X135687D01*
Y55982D01*
X135585D01*
Y55931D01*
X135534D01*
Y55829D01*
X135585D01*
X149250Y55778D02*
Y55677D01*
X149454D01*
Y55778D01*
X149555D01*
Y55982D01*
X149454D01*
Y56083D01*
X149250D01*
Y55982D01*
X149149D01*
Y55778D01*
X149250D01*
X149301Y55829D02*
Y55778D01*
X149403D01*
Y55829D01*
X149454D01*
Y55931D01*
X149403D01*
Y55982D01*
X149301D01*
Y55931D01*
X149250D01*
Y55829D01*
X149301D01*
X157378Y94386D02*
Y94285D01*
X157582D01*
Y94386D01*
X157683D01*
Y94590D01*
X157582D01*
Y94691D01*
X157378D01*
Y94590D01*
X157277D01*
Y94386D01*
X157378D01*
X157429Y94437D02*
Y94386D01*
X157531D01*
Y94437D01*
X157582D01*
Y94539D01*
X157531D01*
Y94590D01*
X157429D01*
Y94539D01*
X157378D01*
Y94437D01*
X157429D01*
X124866Y57810D02*
Y57709D01*
X125070D01*
Y57810D01*
X125171D01*
Y58014D01*
X125070D01*
Y58115D01*
X124866D01*
Y58014D01*
X124765D01*
Y57810D01*
X124866D01*
X124917Y57861D02*
Y57810D01*
X125019D01*
Y57861D01*
X125070D01*
Y57963D01*
X125019D01*
Y58014D01*
X124917D01*
Y57963D01*
X124866D01*
Y57861D01*
X124917D01*
X118770Y81686D02*
Y81585D01*
X118974D01*
Y81686D01*
X119075D01*
Y81890D01*
X118974D01*
Y81991D01*
X118770D01*
Y81890D01*
X118669D01*
Y81686D01*
X118770D01*
X118821Y81737D02*
Y81686D01*
X118923D01*
Y81737D01*
X118974D01*
Y81839D01*
X118923D01*
Y81890D01*
X118821D01*
Y81839D01*
X118770D01*
Y81737D01*
X118821D01*
X57810Y60350D02*
Y60249D01*
X58014D01*
Y60350D01*
X58115D01*
Y60554D01*
X58014D01*
Y60655D01*
X57810D01*
Y60554D01*
X57709D01*
Y60350D01*
X57810D01*
X57861Y60401D02*
Y60350D01*
X57963D01*
Y60401D01*
X58014D01*
Y60503D01*
X57963D01*
Y60554D01*
X57861D01*
Y60503D01*
X57810D01*
Y60401D01*
X57861D01*
X57302Y62890D02*
Y62789D01*
X57506D01*
Y62890D01*
X57607D01*
Y63094D01*
X57506D01*
Y63195D01*
X57302D01*
Y63094D01*
X57201D01*
Y62890D01*
X57302D01*
X57353Y62941D02*
Y62890D01*
X57455D01*
Y62941D01*
X57506D01*
Y63043D01*
X57455D01*
Y63094D01*
X57353D01*
Y63043D01*
X57302D01*
Y62941D01*
X57353D01*
X57302Y72034D02*
Y71933D01*
X57506D01*
Y72034D01*
X57607D01*
Y72238D01*
X57506D01*
Y72339D01*
X57302D01*
Y72238D01*
X57201D01*
Y72034D01*
X57302D01*
X57353Y72085D02*
Y72034D01*
X57455D01*
Y72085D01*
X57506D01*
Y72187D01*
X57455D01*
Y72238D01*
X57353D01*
Y72187D01*
X57302D01*
Y72085D01*
X57353D01*
X57302Y81178D02*
Y81077D01*
X57506D01*
Y81178D01*
X57607D01*
Y81382D01*
X57506D01*
Y81483D01*
X57302D01*
Y81382D01*
X57201D01*
Y81178D01*
X57302D01*
X57353Y81229D02*
Y81178D01*
X57455D01*
Y81229D01*
X57506D01*
Y81331D01*
X57455D01*
Y81382D01*
X57353D01*
Y81331D01*
X57302D01*
Y81229D01*
X57353D01*
X57302Y140106D02*
Y140005D01*
X57506D01*
Y140106D01*
X57607D01*
Y140310D01*
X57506D01*
Y140411D01*
X57302D01*
Y140310D01*
X57201D01*
Y140106D01*
X57302D01*
X57353Y140157D02*
Y140106D01*
X57455D01*
Y140157D01*
X57506D01*
Y140259D01*
X57455D01*
Y140310D01*
X57353D01*
Y140259D01*
X57302D01*
Y140157D01*
X57353D01*
X57302Y137566D02*
Y137465D01*
X57506D01*
Y137566D01*
X57607D01*
Y137770D01*
X57506D01*
Y137871D01*
X57302D01*
Y137770D01*
X57201D01*
Y137566D01*
X57302D01*
X57353Y137617D02*
Y137566D01*
X57455D01*
Y137617D01*
X57506D01*
Y137719D01*
X57455D01*
Y137770D01*
X57353D01*
Y137719D01*
X57302D01*
Y137617D01*
X57353D01*
X57302Y125882D02*
Y125781D01*
X57506D01*
Y125882D01*
X57607D01*
Y126086D01*
X57506D01*
Y126187D01*
X57302D01*
Y126086D01*
X57201D01*
Y125882D01*
X57302D01*
X57353Y125933D02*
Y125882D01*
X57455D01*
Y125933D01*
X57506D01*
Y126035D01*
X57455D01*
Y126086D01*
X57353D01*
Y126035D01*
X57302D01*
Y125933D01*
X57353D01*
X175666Y148234D02*
Y148133D01*
X175870D01*
Y148234D01*
X175971D01*
Y148438D01*
X175870D01*
Y148539D01*
X175666D01*
Y148438D01*
X175565D01*
Y148234D01*
X175666D01*
X175717Y148285D02*
Y148234D01*
X175819D01*
Y148285D01*
X175870D01*
Y148387D01*
X175819D01*
Y148438D01*
X175717D01*
Y148387D01*
X175666D01*
Y148285D01*
X175717D01*
X177190Y145186D02*
Y145085D01*
X177394D01*
Y145186D01*
X177495D01*
Y145390D01*
X177394D01*
Y145491D01*
X177190D01*
Y145390D01*
X177089D01*
Y145186D01*
X177190D01*
X177241Y145237D02*
Y145186D01*
X177343D01*
Y145237D01*
X177394D01*
Y145339D01*
X177343D01*
Y145390D01*
X177241D01*
Y145339D01*
X177190D01*
Y145237D01*
X177241D01*
X174142Y151282D02*
Y151181D01*
X174346D01*
Y151282D01*
X174447D01*
Y151486D01*
X174346D01*
Y151587D01*
X174142D01*
Y151486D01*
X174041D01*
Y151282D01*
X174142D01*
X174193Y151333D02*
Y151282D01*
X174295D01*
Y151333D01*
X174346D01*
Y151435D01*
X174295D01*
Y151486D01*
X174193D01*
Y151435D01*
X174142D01*
Y151333D01*
X174193D01*
X122326Y132486D02*
Y132385D01*
X122530D01*
Y132486D01*
X122631D01*
Y132690D01*
X122530D01*
Y132791D01*
X122326D01*
Y132690D01*
X122225D01*
Y132486D01*
X122326D01*
X122377Y132537D02*
Y132486D01*
X122479D01*
Y132537D01*
X122530D01*
Y132639D01*
X122479D01*
Y132690D01*
X122377D01*
Y132639D01*
X122326D01*
Y132537D01*
X122377D01*
X117246Y135534D02*
Y135433D01*
X117450D01*
Y135534D01*
X117551D01*
Y135738D01*
X117450D01*
Y135839D01*
X117246D01*
Y135738D01*
X117145D01*
Y135534D01*
X117246D01*
X117297Y135585D02*
Y135534D01*
X117399D01*
Y135585D01*
X117450D01*
Y135687D01*
X117399D01*
Y135738D01*
X117297D01*
Y135687D01*
X117246D01*
Y135585D01*
X117297D01*
X119786Y134010D02*
Y133909D01*
X119990D01*
Y134010D01*
X120091D01*
Y134214D01*
X119990D01*
Y134315D01*
X119786D01*
Y134214D01*
X119685D01*
Y134010D01*
X119786D01*
X119837Y134061D02*
Y134010D01*
X119939D01*
Y134061D01*
X119990D01*
Y134163D01*
X119939D01*
Y134214D01*
X119837D01*
Y134163D01*
X119786D01*
Y134061D01*
X119837D01*
X135026Y147726D02*
Y147625D01*
X135230D01*
Y147726D01*
X135331D01*
Y147930D01*
X135230D01*
Y148031D01*
X135026D01*
Y147930D01*
X134925D01*
Y147726D01*
X135026D01*
X135077Y147777D02*
Y147726D01*
X135179D01*
Y147777D01*
X135230D01*
Y147879D01*
X135179D01*
Y147930D01*
X135077D01*
Y147879D01*
X135026D01*
Y147777D01*
X135077D01*
X132486Y146202D02*
Y146101D01*
X132690D01*
Y146202D01*
X132791D01*
Y146406D01*
X132690D01*
Y146507D01*
X132486D01*
Y146406D01*
X132385D01*
Y146202D01*
X132486D01*
X132537Y146253D02*
Y146202D01*
X132639D01*
Y146253D01*
X132690D01*
Y146355D01*
X132639D01*
Y146406D01*
X132537D01*
Y146355D01*
X132486D01*
Y146253D01*
X132537D01*
X129946Y144678D02*
Y144577D01*
X130150D01*
Y144678D01*
X130251D01*
Y144882D01*
X130150D01*
Y144983D01*
X129946D01*
Y144882D01*
X129845D01*
Y144678D01*
X129946D01*
X129997Y144729D02*
Y144678D01*
X130099D01*
Y144729D01*
X130150D01*
Y144831D01*
X130099D01*
Y144882D01*
X129997D01*
Y144831D01*
X129946D01*
Y144729D01*
X129997D01*
X127406Y143154D02*
Y143053D01*
X127610D01*
Y143154D01*
X127711D01*
Y143358D01*
X127610D01*
Y143459D01*
X127406D01*
Y143358D01*
X127305D01*
Y143154D01*
X127406D01*
X127457Y143205D02*
Y143154D01*
X127559D01*
Y143205D01*
X127610D01*
Y143307D01*
X127559D01*
Y143358D01*
X127457D01*
Y143307D01*
X127406D01*
Y143205D01*
X127457D01*
X82702Y113182D02*
Y113081D01*
X82906D01*
Y113182D01*
X83007D01*
Y113386D01*
X82906D01*
Y113487D01*
X82702D01*
Y113386D01*
X82601D01*
Y113182D01*
X82702D01*
X82753Y113233D02*
Y113182D01*
X82855D01*
Y113233D01*
X82906D01*
Y113335D01*
X82855D01*
Y113386D01*
X82753D01*
Y113335D01*
X82702D01*
Y113233D01*
X82753D01*
X246278Y87782D02*
Y87681D01*
X246482D01*
Y87782D01*
X246583D01*
Y87986D01*
X246482D01*
Y88087D01*
X246278D01*
Y87986D01*
X246177D01*
Y87782D01*
X246278D01*
X246329Y87833D02*
Y87782D01*
X246431D01*
Y87833D01*
X246482D01*
Y87935D01*
X246431D01*
Y87986D01*
X246329D01*
Y87935D01*
X246278D01*
Y87833D01*
X246329D01*
X246278Y97942D02*
Y97841D01*
X246482D01*
Y97942D01*
X246583D01*
Y98146D01*
X246482D01*
Y98247D01*
X246278D01*
Y98146D01*
X246177D01*
Y97942D01*
X246278D01*
X246329Y97993D02*
Y97942D01*
X246431D01*
Y97993D01*
X246482D01*
Y98095D01*
X246431D01*
Y98146D01*
X246329D01*
Y98095D01*
X246278D01*
Y97993D01*
X246329D01*
X176682Y99974D02*
Y99873D01*
X176886D01*
Y99974D01*
X176987D01*
Y100178D01*
X176886D01*
Y100279D01*
X176682D01*
Y100178D01*
X176581D01*
Y99974D01*
X176682D01*
X176733Y100025D02*
Y99974D01*
X176835D01*
Y100025D01*
X176886D01*
Y100127D01*
X176835D01*
Y100178D01*
X176733D01*
Y100127D01*
X176682D01*
Y100025D01*
X176733D01*
X185318Y93370D02*
Y93269D01*
X185522D01*
Y93370D01*
X185623D01*
Y93574D01*
X185522D01*
Y93675D01*
X185318D01*
Y93574D01*
X185217D01*
Y93370D01*
X185318D01*
X185369Y93421D02*
Y93370D01*
X185471D01*
Y93421D01*
X185522D01*
Y93523D01*
X185471D01*
Y93574D01*
X185369D01*
Y93523D01*
X185318D01*
Y93421D01*
X185369D01*
X118262Y128930D02*
Y128829D01*
X118466D01*
Y128930D01*
X118567D01*
Y129134D01*
X118466D01*
Y129235D01*
X118262D01*
Y129134D01*
X118161D01*
Y128930D01*
X118262D01*
X118313Y128981D02*
Y128930D01*
X118415D01*
Y128981D01*
X118466D01*
Y129083D01*
X118415D01*
Y129134D01*
X118313D01*
Y129083D01*
X118262D01*
Y128981D01*
X118313D01*
X100482Y117246D02*
Y117145D01*
X100686D01*
Y117246D01*
X100787D01*
Y117450D01*
X100686D01*
Y117551D01*
X100482D01*
Y117450D01*
X100381D01*
Y117246D01*
X100482D01*
X100533Y117297D02*
Y117246D01*
X100635D01*
Y117297D01*
X100686D01*
Y117399D01*
X100635D01*
Y117450D01*
X100533D01*
Y117399D01*
X100482D01*
Y117297D01*
X100533D01*
X178714Y143154D02*
Y143053D01*
X178918D01*
Y143154D01*
X179019D01*
Y143358D01*
X178918D01*
Y143459D01*
X178714D01*
Y143358D01*
X178613D01*
Y143154D01*
X178714D01*
X178765Y143205D02*
Y143154D01*
X178867D01*
Y143205D01*
X178918D01*
Y143307D01*
X178867D01*
Y143358D01*
X178765D01*
Y143307D01*
X178714D01*
Y143205D01*
X178765D01*
X203606Y143154D02*
Y143053D01*
X203810D01*
Y143154D01*
X203911D01*
Y143358D01*
X203810D01*
Y143459D01*
X203606D01*
Y143358D01*
X203505D01*
Y143154D01*
X203606D01*
X203657Y143205D02*
Y143154D01*
X203759D01*
Y143205D01*
X203810D01*
Y143307D01*
X203759D01*
Y143358D01*
X203657D01*
Y143307D01*
X203606D01*
Y143205D01*
X203657D01*
X201066Y143154D02*
Y143053D01*
X201270D01*
Y143154D01*
X201371D01*
Y143358D01*
X201270D01*
Y143459D01*
X201066D01*
Y143358D01*
X200965D01*
Y143154D01*
X201066D01*
X201117Y143205D02*
Y143154D01*
X201219D01*
Y143205D01*
X201270D01*
Y143307D01*
X201219D01*
Y143358D01*
X201117D01*
Y143307D01*
X201066D01*
Y143205D01*
X201117D01*
X198526Y143154D02*
Y143053D01*
X198730D01*
Y143154D01*
X198831D01*
Y143358D01*
X198730D01*
Y143459D01*
X198526D01*
Y143358D01*
X198425D01*
Y143154D01*
X198526D01*
X198577Y143205D02*
Y143154D01*
X198679D01*
Y143205D01*
X198730D01*
Y143307D01*
X198679D01*
Y143358D01*
X198577D01*
Y143307D01*
X198526D01*
Y143205D01*
X198577D01*
X195986Y143154D02*
Y143053D01*
X196190D01*
Y143154D01*
X196291D01*
Y143358D01*
X196190D01*
Y143459D01*
X195986D01*
Y143358D01*
X195885D01*
Y143154D01*
X195986D01*
X196037Y143205D02*
Y143154D01*
X196139D01*
Y143205D01*
X196190D01*
Y143307D01*
X196139D01*
Y143358D01*
X196037D01*
Y143307D01*
X195986D01*
Y143205D01*
X196037D01*
X193446Y143154D02*
Y143053D01*
X193650D01*
Y143154D01*
X193751D01*
Y143358D01*
X193650D01*
Y143459D01*
X193446D01*
Y143358D01*
X193345D01*
Y143154D01*
X193446D01*
X193497Y143205D02*
Y143154D01*
X193599D01*
Y143205D01*
X193650D01*
Y143307D01*
X193599D01*
Y143358D01*
X193497D01*
Y143307D01*
X193446D01*
Y143205D01*
X193497D01*
X190906Y143154D02*
Y143053D01*
X191110D01*
Y143154D01*
X191211D01*
Y143358D01*
X191110D01*
Y143459D01*
X190906D01*
Y143358D01*
X190805D01*
Y143154D01*
X190906D01*
X190957Y143205D02*
Y143154D01*
X191059D01*
Y143205D01*
X191110D01*
Y143307D01*
X191059D01*
Y143358D01*
X190957D01*
Y143307D01*
X190906D01*
Y143205D01*
X190957D01*
X188366Y143154D02*
Y143053D01*
X188570D01*
Y143154D01*
X188671D01*
Y143358D01*
X188570D01*
Y143459D01*
X188366D01*
Y143358D01*
X188265D01*
Y143154D01*
X188366D01*
X188417Y143205D02*
Y143154D01*
X188519D01*
Y143205D01*
X188570D01*
Y143307D01*
X188519D01*
Y143358D01*
X188417D01*
Y143307D01*
X188366D01*
Y143205D01*
X188417D01*
X199542Y128930D02*
Y128829D01*
X199746D01*
Y128930D01*
X199847D01*
Y129134D01*
X199746D01*
Y129235D01*
X199542D01*
Y129134D01*
X199441D01*
Y128930D01*
X199542D01*
X199593Y128981D02*
Y128930D01*
X199695D01*
Y128981D01*
X199746D01*
Y129083D01*
X199695D01*
Y129134D01*
X199593D01*
Y129083D01*
X199542D01*
Y128981D01*
X199593D01*
X222402Y128930D02*
Y128829D01*
X222606D01*
Y128930D01*
X222707D01*
Y129134D01*
X222606D01*
Y129235D01*
X222402D01*
Y129134D01*
X222301D01*
Y128930D01*
X222402D01*
X222453Y128981D02*
Y128930D01*
X222555D01*
Y128981D01*
X222606D01*
Y129083D01*
X222555D01*
Y129134D01*
X222453D01*
Y129083D01*
X222402D01*
Y128981D01*
X222453D01*
X216306Y132994D02*
Y132893D01*
X216510D01*
Y132994D01*
X216611D01*
Y133198D01*
X216510D01*
Y133299D01*
X216306D01*
Y133198D01*
X216205D01*
Y132994D01*
X216306D01*
X216357Y133045D02*
Y132994D01*
X216459D01*
Y133045D01*
X216510D01*
Y133147D01*
X216459D01*
Y133198D01*
X216357D01*
Y133147D01*
X216306D01*
Y133045D01*
X216357D01*
X142646Y177190D02*
Y177089D01*
X142850D01*
Y177190D01*
X142951D01*
Y177394D01*
X142850D01*
Y177495D01*
X142646D01*
Y177394D01*
X142545D01*
Y177190D01*
X142646D01*
X142697Y177241D02*
Y177190D01*
X142799D01*
Y177241D01*
X142850D01*
Y177343D01*
X142799D01*
Y177394D01*
X142697D01*
Y177343D01*
X142646D01*
Y177241D01*
X142697D01*
X206146Y177190D02*
Y177089D01*
X206350D01*
Y177190D01*
X206451D01*
Y177394D01*
X206350D01*
Y177495D01*
X206146D01*
Y177394D01*
X206045D01*
Y177190D01*
X206146D01*
X206197Y177241D02*
Y177190D01*
X206299D01*
Y177241D01*
X206350D01*
Y177343D01*
X206299D01*
Y177394D01*
X206197D01*
Y177343D01*
X206146D01*
Y177241D01*
X206197D01*
X57810Y120294D02*
Y120193D01*
X58014D01*
Y120294D01*
X58115D01*
Y120498D01*
X58014D01*
Y120599D01*
X57810D01*
Y120498D01*
X57709D01*
Y120294D01*
X57810D01*
X57861Y120345D02*
Y120294D01*
X57963D01*
Y120345D01*
X58014D01*
Y120447D01*
X57963D01*
Y120498D01*
X57861D01*
Y120447D01*
X57810D01*
Y120345D01*
X57861D01*
X59842Y121818D02*
Y121717D01*
X60046D01*
Y121818D01*
X60147D01*
Y122022D01*
X60046D01*
Y122123D01*
X59842D01*
Y122022D01*
X59741D01*
Y121818D01*
X59842D01*
X59893Y121869D02*
Y121818D01*
X59995D01*
Y121869D01*
X60046D01*
Y121971D01*
X59995D01*
Y122022D01*
X59893D01*
Y121971D01*
X59842D01*
Y121869D01*
X59893D01*
X60858Y114198D02*
Y114097D01*
X61062D01*
Y114198D01*
X61163D01*
Y114402D01*
X61062D01*
Y114503D01*
X60858D01*
Y114402D01*
X60757D01*
Y114198D01*
X60858D01*
X60909Y114249D02*
Y114198D01*
X61011D01*
Y114249D01*
X61062D01*
Y114351D01*
X61011D01*
Y114402D01*
X60909D01*
Y114351D01*
X60858D01*
Y114249D01*
X60909D01*
X60858Y111658D02*
Y111557D01*
X61062D01*
Y111658D01*
X61163D01*
Y111862D01*
X61062D01*
Y111963D01*
X60858D01*
Y111862D01*
X60757D01*
Y111658D01*
X60858D01*
X60909Y111709D02*
Y111658D01*
X61011D01*
Y111709D01*
X61062D01*
Y111811D01*
X61011D01*
Y111862D01*
X60909D01*
Y111811D01*
X60858D01*
Y111709D01*
X60909D01*
X60350Y109118D02*
Y109017D01*
X60554D01*
Y109118D01*
X60655D01*
Y109322D01*
X60554D01*
Y109423D01*
X60350D01*
Y109322D01*
X60249D01*
Y109118D01*
X60350D01*
X60401Y109169D02*
Y109118D01*
X60503D01*
Y109169D01*
X60554D01*
Y109271D01*
X60503D01*
Y109322D01*
X60401D01*
Y109271D01*
X60350D01*
Y109169D01*
X60401D01*
X80670Y118262D02*
Y118161D01*
X80874D01*
Y118262D01*
X80975D01*
Y118466D01*
X80874D01*
Y118567D01*
X80670D01*
Y118466D01*
X80569D01*
Y118262D01*
X80670D01*
X80721Y118313D02*
Y118262D01*
X80823D01*
Y118313D01*
X80874D01*
Y118415D01*
X80823D01*
Y118466D01*
X80721D01*
Y118415D01*
X80670D01*
Y118313D01*
X80721D01*
X75082Y114198D02*
Y114097D01*
X75286D01*
Y114198D01*
X75387D01*
Y114402D01*
X75286D01*
Y114503D01*
X75082D01*
Y114402D01*
X74981D01*
Y114198D01*
X75082D01*
X75133Y114249D02*
Y114198D01*
X75235D01*
Y114249D01*
X75286D01*
Y114351D01*
X75235D01*
Y114402D01*
X75133D01*
Y114351D01*
X75082D01*
Y114249D01*
X75133D01*
X89306Y128930D02*
Y128829D01*
X89510D01*
Y128930D01*
X89611D01*
Y129134D01*
X89510D01*
Y129235D01*
X89306D01*
Y129134D01*
X89205D01*
Y128930D01*
X89306D01*
X89357Y128981D02*
Y128930D01*
X89459D01*
Y128981D01*
X89510D01*
Y129083D01*
X89459D01*
Y129134D01*
X89357D01*
Y129083D01*
X89306D01*
Y128981D01*
X89357D01*
X142138Y155346D02*
Y155245D01*
X142342D01*
Y155346D01*
X142443D01*
Y155550D01*
X142342D01*
Y155651D01*
X142138D01*
Y155550D01*
X142037D01*
Y155346D01*
X142138D01*
X142189Y155397D02*
Y155346D01*
X142291D01*
Y155397D01*
X142342D01*
Y155499D01*
X142291D01*
Y155550D01*
X142189D01*
Y155499D01*
X142138D01*
Y155397D01*
X142189D01*
X70002Y133502D02*
Y133401D01*
X70206D01*
Y133502D01*
X70307D01*
Y133706D01*
X70206D01*
Y133807D01*
X70002D01*
Y133706D01*
X69901D01*
Y133502D01*
X70002D01*
X70053Y133553D02*
Y133502D01*
X70155D01*
Y133553D01*
X70206D01*
Y133655D01*
X70155D01*
Y133706D01*
X70053D01*
Y133655D01*
X70002D01*
Y133553D01*
X70053D01*
X104546Y167538D02*
Y167437D01*
X104750D01*
Y167538D01*
X104851D01*
Y167742D01*
X104750D01*
Y167843D01*
X104546D01*
Y167742D01*
X104445D01*
Y167538D01*
X104546D01*
X104597Y167589D02*
Y167538D01*
X104699D01*
Y167589D01*
X104750D01*
Y167691D01*
X104699D01*
Y167742D01*
X104597D01*
Y167691D01*
X104546D01*
Y167589D01*
X104597D01*
X151790Y192430D02*
Y192329D01*
X151994D01*
Y192430D01*
X152095D01*
Y192634D01*
X151994D01*
Y192735D01*
X151790D01*
Y192634D01*
X151689D01*
Y192430D01*
X151790D01*
X151841Y192481D02*
Y192430D01*
X151943D01*
Y192481D01*
X151994D01*
Y192583D01*
X151943D01*
Y192634D01*
X151841D01*
Y192583D01*
X151790D01*
Y192481D01*
X151841D01*
X154330Y192430D02*
Y192329D01*
X154534D01*
Y192430D01*
X154635D01*
Y192634D01*
X154534D01*
Y192735D01*
X154330D01*
Y192634D01*
X154229D01*
Y192430D01*
X154330D01*
X154381Y192481D02*
Y192430D01*
X154483D01*
Y192481D01*
X154534D01*
Y192583D01*
X154483D01*
Y192634D01*
X154381D01*
Y192583D01*
X154330D01*
Y192481D01*
X154381D01*
X156870Y192430D02*
Y192329D01*
X157074D01*
Y192430D01*
X157175D01*
Y192634D01*
X157074D01*
Y192735D01*
X156870D01*
Y192634D01*
X156769D01*
Y192430D01*
X156870D01*
X156921Y192481D02*
Y192430D01*
X157023D01*
Y192481D01*
X157074D01*
Y192583D01*
X157023D01*
Y192634D01*
X156921D01*
Y192583D01*
X156870D01*
Y192481D01*
X156921D01*
X159410Y192430D02*
Y192329D01*
X159614D01*
Y192430D01*
X159715D01*
Y192634D01*
X159614D01*
Y192735D01*
X159410D01*
Y192634D01*
X159309D01*
Y192430D01*
X159410D01*
X159461Y192481D02*
Y192430D01*
X159563D01*
Y192481D01*
X159614D01*
Y192583D01*
X159563D01*
Y192634D01*
X159461D01*
Y192583D01*
X159410D01*
Y192481D01*
X159461D01*
X161950Y192430D02*
Y192329D01*
X162154D01*
Y192430D01*
X162255D01*
Y192634D01*
X162154D01*
Y192735D01*
X161950D01*
Y192634D01*
X161849D01*
Y192430D01*
X161950D01*
X162001Y192481D02*
Y192430D01*
X162103D01*
Y192481D01*
X162154D01*
Y192583D01*
X162103D01*
Y192634D01*
X162001D01*
Y192583D01*
X161950D01*
Y192481D01*
X162001D01*
X164490Y192430D02*
Y192329D01*
X164694D01*
Y192430D01*
X164795D01*
Y192634D01*
X164694D01*
Y192735D01*
X164490D01*
Y192634D01*
X164389D01*
Y192430D01*
X164490D01*
X164541Y192481D02*
Y192430D01*
X164643D01*
Y192481D01*
X164694D01*
Y192583D01*
X164643D01*
Y192634D01*
X164541D01*
Y192583D01*
X164490D01*
Y192481D01*
X164541D01*
X167030Y192430D02*
Y192329D01*
X167234D01*
Y192430D01*
X167335D01*
Y192634D01*
X167234D01*
Y192735D01*
X167030D01*
Y192634D01*
X166929D01*
Y192430D01*
X167030D01*
X167081Y192481D02*
Y192430D01*
X167183D01*
Y192481D01*
X167234D01*
Y192583D01*
X167183D01*
Y192634D01*
X167081D01*
Y192583D01*
X167030D01*
Y192481D01*
X167081D01*
X169570Y192430D02*
Y192329D01*
X169774D01*
Y192430D01*
X169875D01*
Y192634D01*
X169774D01*
Y192735D01*
X169570D01*
Y192634D01*
X169469D01*
Y192430D01*
X169570D01*
X169621Y192481D02*
Y192430D01*
X169723D01*
Y192481D01*
X169774D01*
Y192583D01*
X169723D01*
Y192634D01*
X169621D01*
Y192583D01*
X169570D01*
Y192481D01*
X169621D01*
X168300Y190398D02*
Y190297D01*
X168504D01*
Y190398D01*
X168605D01*
Y190602D01*
X168504D01*
Y190703D01*
X168300D01*
Y190602D01*
X168199D01*
Y190398D01*
X168300D01*
X168351Y190449D02*
Y190398D01*
X168453D01*
Y190449D01*
X168504D01*
Y190551D01*
X168453D01*
Y190602D01*
X168351D01*
Y190551D01*
X168300D01*
Y190449D01*
X168351D01*
X165760Y190398D02*
Y190297D01*
X165964D01*
Y190398D01*
X166065D01*
Y190602D01*
X165964D01*
Y190703D01*
X165760D01*
Y190602D01*
X165659D01*
Y190398D01*
X165760D01*
X165811Y190449D02*
Y190398D01*
X165913D01*
Y190449D01*
X165964D01*
Y190551D01*
X165913D01*
Y190602D01*
X165811D01*
Y190551D01*
X165760D01*
Y190449D01*
X165811D01*
X163220Y190398D02*
Y190297D01*
X163424D01*
Y190398D01*
X163525D01*
Y190602D01*
X163424D01*
Y190703D01*
X163220D01*
Y190602D01*
X163119D01*
Y190398D01*
X163220D01*
X163271Y190449D02*
Y190398D01*
X163373D01*
Y190449D01*
X163424D01*
Y190551D01*
X163373D01*
Y190602D01*
X163271D01*
Y190551D01*
X163220D01*
Y190449D01*
X163271D01*
X160680Y190398D02*
Y190297D01*
X160884D01*
Y190398D01*
X160985D01*
Y190602D01*
X160884D01*
Y190703D01*
X160680D01*
Y190602D01*
X160579D01*
Y190398D01*
X160680D01*
X160731Y190449D02*
Y190398D01*
X160833D01*
Y190449D01*
X160884D01*
Y190551D01*
X160833D01*
Y190602D01*
X160731D01*
Y190551D01*
X160680D01*
Y190449D01*
X160731D01*
X158140Y190398D02*
Y190297D01*
X158344D01*
Y190398D01*
X158445D01*
Y190602D01*
X158344D01*
Y190703D01*
X158140D01*
Y190602D01*
X158039D01*
Y190398D01*
X158140D01*
X158191Y190449D02*
Y190398D01*
X158293D01*
Y190449D01*
X158344D01*
Y190551D01*
X158293D01*
Y190602D01*
X158191D01*
Y190551D01*
X158140D01*
Y190449D01*
X158191D01*
X155600Y190398D02*
Y190297D01*
X155804D01*
Y190398D01*
X155905D01*
Y190602D01*
X155804D01*
Y190703D01*
X155600D01*
Y190602D01*
X155499D01*
Y190398D01*
X155600D01*
X155651Y190449D02*
Y190398D01*
X155753D01*
Y190449D01*
X155804D01*
Y190551D01*
X155753D01*
Y190602D01*
X155651D01*
Y190551D01*
X155600D01*
Y190449D01*
X155651D01*
X153060Y190398D02*
Y190297D01*
X153264D01*
Y190398D01*
X153365D01*
Y190602D01*
X153264D01*
Y190703D01*
X153060D01*
Y190602D01*
X152959D01*
Y190398D01*
X153060D01*
X153111Y190449D02*
Y190398D01*
X153213D01*
Y190449D01*
X153264D01*
Y190551D01*
X153213D01*
Y190602D01*
X153111D01*
Y190551D01*
X153060D01*
Y190449D01*
X153111D01*
X169570Y188366D02*
Y188265D01*
X169774D01*
Y188366D01*
X169875D01*
Y188570D01*
X169774D01*
Y188671D01*
X169570D01*
Y188570D01*
X169469D01*
Y188366D01*
X169570D01*
X169621Y188417D02*
Y188366D01*
X169723D01*
Y188417D01*
X169774D01*
Y188519D01*
X169723D01*
Y188570D01*
X169621D01*
Y188519D01*
X169570D01*
Y188417D01*
X169621D01*
X167030Y188366D02*
Y188265D01*
X167234D01*
Y188366D01*
X167335D01*
Y188570D01*
X167234D01*
Y188671D01*
X167030D01*
Y188570D01*
X166929D01*
Y188366D01*
X167030D01*
X167081Y188417D02*
Y188366D01*
X167183D01*
Y188417D01*
X167234D01*
Y188519D01*
X167183D01*
Y188570D01*
X167081D01*
Y188519D01*
X167030D01*
Y188417D01*
X167081D01*
X164490Y188366D02*
Y188265D01*
X164694D01*
Y188366D01*
X164795D01*
Y188570D01*
X164694D01*
Y188671D01*
X164490D01*
Y188570D01*
X164389D01*
Y188366D01*
X164490D01*
X164541Y188417D02*
Y188366D01*
X164643D01*
Y188417D01*
X164694D01*
Y188519D01*
X164643D01*
Y188570D01*
X164541D01*
Y188519D01*
X164490D01*
Y188417D01*
X164541D01*
X161950Y188366D02*
Y188265D01*
X162154D01*
Y188366D01*
X162255D01*
Y188570D01*
X162154D01*
Y188671D01*
X161950D01*
Y188570D01*
X161849D01*
Y188366D01*
X161950D01*
X162001Y188417D02*
Y188366D01*
X162103D01*
Y188417D01*
X162154D01*
Y188519D01*
X162103D01*
Y188570D01*
X162001D01*
Y188519D01*
X161950D01*
Y188417D01*
X162001D01*
X159410Y188366D02*
Y188265D01*
X159614D01*
Y188366D01*
X159715D01*
Y188570D01*
X159614D01*
Y188671D01*
X159410D01*
Y188570D01*
X159309D01*
Y188366D01*
X159410D01*
X159461Y188417D02*
Y188366D01*
X159563D01*
Y188417D01*
X159614D01*
Y188519D01*
X159563D01*
Y188570D01*
X159461D01*
Y188519D01*
X159410D01*
Y188417D01*
X159461D01*
X156870Y188366D02*
Y188265D01*
X157074D01*
Y188366D01*
X157175D01*
Y188570D01*
X157074D01*
Y188671D01*
X156870D01*
Y188570D01*
X156769D01*
Y188366D01*
X156870D01*
X156921Y188417D02*
Y188366D01*
X157023D01*
Y188417D01*
X157074D01*
Y188519D01*
X157023D01*
Y188570D01*
X156921D01*
Y188519D01*
X156870D01*
Y188417D01*
X156921D01*
X154330Y188366D02*
Y188265D01*
X154534D01*
Y188366D01*
X154635D01*
Y188570D01*
X154534D01*
Y188671D01*
X154330D01*
Y188570D01*
X154229D01*
Y188366D01*
X154330D01*
X154381Y188417D02*
Y188366D01*
X154483D01*
Y188417D01*
X154534D01*
Y188519D01*
X154483D01*
Y188570D01*
X154381D01*
Y188519D01*
X154330D01*
Y188417D01*
X154381D01*
X151790Y188366D02*
Y188265D01*
X151994D01*
Y188366D01*
X152095D01*
Y188570D01*
X151994D01*
Y188671D01*
X151790D01*
Y188570D01*
X151689D01*
Y188366D01*
X151790D01*
X151841Y188417D02*
Y188366D01*
X151943D01*
Y188417D01*
X151994D01*
Y188519D01*
X151943D01*
Y188570D01*
X151841D01*
Y188519D01*
X151790D01*
Y188417D01*
X151841D01*
X153060Y186334D02*
Y186233D01*
X153264D01*
Y186334D01*
X153365D01*
Y186538D01*
X153264D01*
Y186639D01*
X153060D01*
Y186538D01*
X152959D01*
Y186334D01*
X153060D01*
X153111Y186385D02*
Y186334D01*
X153213D01*
Y186385D01*
X153264D01*
Y186487D01*
X153213D01*
Y186538D01*
X153111D01*
Y186487D01*
X153060D01*
Y186385D01*
X153111D01*
X155600Y186334D02*
Y186233D01*
X155804D01*
Y186334D01*
X155905D01*
Y186538D01*
X155804D01*
Y186639D01*
X155600D01*
Y186538D01*
X155499D01*
Y186334D01*
X155600D01*
X155651Y186385D02*
Y186334D01*
X155753D01*
Y186385D01*
X155804D01*
Y186487D01*
X155753D01*
Y186538D01*
X155651D01*
Y186487D01*
X155600D01*
Y186385D01*
X155651D01*
X158140Y186334D02*
Y186233D01*
X158344D01*
Y186334D01*
X158445D01*
Y186538D01*
X158344D01*
Y186639D01*
X158140D01*
Y186538D01*
X158039D01*
Y186334D01*
X158140D01*
X158191Y186385D02*
Y186334D01*
X158293D01*
Y186385D01*
X158344D01*
Y186487D01*
X158293D01*
Y186538D01*
X158191D01*
Y186487D01*
X158140D01*
Y186385D01*
X158191D01*
X160680Y186334D02*
Y186233D01*
X160884D01*
Y186334D01*
X160985D01*
Y186538D01*
X160884D01*
Y186639D01*
X160680D01*
Y186538D01*
X160579D01*
Y186334D01*
X160680D01*
X160731Y186385D02*
Y186334D01*
X160833D01*
Y186385D01*
X160884D01*
Y186487D01*
X160833D01*
Y186538D01*
X160731D01*
Y186487D01*
X160680D01*
Y186385D01*
X160731D01*
X163220Y186334D02*
Y186233D01*
X163424D01*
Y186334D01*
X163525D01*
Y186538D01*
X163424D01*
Y186639D01*
X163220D01*
Y186538D01*
X163119D01*
Y186334D01*
X163220D01*
X163271Y186385D02*
Y186334D01*
X163373D01*
Y186385D01*
X163424D01*
Y186487D01*
X163373D01*
Y186538D01*
X163271D01*
Y186487D01*
X163220D01*
Y186385D01*
X163271D01*
X165760Y186334D02*
Y186233D01*
X165964D01*
Y186334D01*
X166065D01*
Y186538D01*
X165964D01*
Y186639D01*
X165760D01*
Y186538D01*
X165659D01*
Y186334D01*
X165760D01*
X165811Y186385D02*
Y186334D01*
X165913D01*
Y186385D01*
X165964D01*
Y186487D01*
X165913D01*
Y186538D01*
X165811D01*
Y186487D01*
X165760D01*
Y186385D01*
X165811D01*
X168300Y186334D02*
Y186233D01*
X168504D01*
Y186334D01*
X168605D01*
Y186538D01*
X168504D01*
Y186639D01*
X168300D01*
Y186538D01*
X168199D01*
Y186334D01*
X168300D01*
X168351Y186385D02*
Y186334D01*
X168453D01*
Y186385D01*
X168504D01*
Y186487D01*
X168453D01*
Y186538D01*
X168351D01*
Y186487D01*
X168300D01*
Y186385D01*
X168351D01*
D42*
X234585Y104648D02*
G03*
X234585Y104648I-203J0D01*
G01*
X232085D02*
G03*
X232085Y104648I-203J0D01*
G01*
X229585D02*
G03*
X229585Y104648I-203J0D01*
G01*
X227085D02*
G03*
X227085Y104648I-203J0D01*
G01*
X234585Y81788D02*
G03*
X234585Y81788I-203J0D01*
G01*
X232085D02*
G03*
X232085Y81788I-203J0D01*
G01*
X229585D02*
G03*
X229585Y81788I-203J0D01*
G01*
X227085D02*
G03*
X227085Y81788I-203J0D01*
G01*
X234585Y58928D02*
G03*
X234585Y58928I-203J0D01*
G01*
X232085D02*
G03*
X232085Y58928I-203J0D01*
G01*
X229585D02*
G03*
X229585Y58928I-203J0D01*
G01*
X227085D02*
G03*
X227085Y58928I-203J0D01*
G01*
X183083Y79756D02*
G03*
X183083Y79756I-203J0D01*
G01*
X185623D02*
G03*
X185623Y79756I-203J0D01*
G01*
X183083Y116332D02*
G03*
X183083Y116332I-203J0D01*
G01*
X185623D02*
G03*
X185623Y116332I-203J0D01*
G01*
X90119Y91948D02*
G03*
X90119Y91948I-203J0D01*
G01*
X87579D02*
G03*
X87579Y91948I-203J0D01*
G01*
X121615Y85344D02*
G03*
X121615Y85344I-203J0D01*
G01*
X119075D02*
G03*
X119075Y85344I-203J0D01*
G01*
X90119Y82804D02*
G03*
X90119Y82804I-203J0D01*
G01*
X87579D02*
G03*
X87579Y82804I-203J0D01*
G01*
X121615Y93980D02*
G03*
X121615Y93980I-203J0D01*
G01*
X119075D02*
G03*
X119075Y93980I-203J0D01*
G01*
X90119Y74168D02*
G03*
X90119Y74168I-203J0D01*
G01*
X87579D02*
G03*
X87579Y74168I-203J0D01*
G01*
X121615Y102616D02*
G03*
X121615Y102616I-203J0D01*
G01*
X119075D02*
G03*
X119075Y102616I-203J0D01*
G01*
X90119Y65532D02*
G03*
X90119Y65532I-203J0D01*
G01*
X87579D02*
G03*
X87579Y65532I-203J0D01*
G01*
X121615Y111760D02*
G03*
X121615Y111760I-203J0D01*
G01*
X119075D02*
G03*
X119075Y111760I-203J0D01*
G01*
X183083Y107188D02*
G03*
X183083Y107188I-203J0D01*
G01*
X185623D02*
G03*
X185623Y107188I-203J0D01*
G01*
X183083Y98044D02*
G03*
X183083Y98044I-203J0D01*
G01*
X185623D02*
G03*
X185623Y98044I-203J0D01*
G01*
X183083Y88900D02*
G03*
X183083Y88900I-203J0D01*
G01*
X185623D02*
G03*
X185623Y88900I-203J0D01*
G01*
X183083Y70612D02*
G03*
X183083Y70612I-203J0D01*
G01*
X185623D02*
G03*
X185623Y70612I-203J0D01*
G01*
X171907Y52832D02*
G03*
X171907Y52832I-203J0D01*
G01*
Y55372D02*
G03*
X171907Y55372I-203J0D01*
G01*
X164795Y52832D02*
G03*
X164795Y52832I-203J0D01*
G01*
Y55372D02*
G03*
X164795Y55372I-203J0D01*
G01*
X157683Y52832D02*
G03*
X157683Y52832I-203J0D01*
G01*
Y55372D02*
G03*
X157683Y55372I-203J0D01*
G01*
X146507Y52832D02*
G03*
X146507Y52832I-203J0D01*
G01*
Y55372D02*
G03*
X146507Y55372I-203J0D01*
G01*
X132791Y52832D02*
G03*
X132791Y52832I-203J0D01*
G01*
Y55372D02*
G03*
X132791Y55372I-203J0D01*
G01*
X119583Y52832D02*
G03*
X119583Y52832I-203J0D01*
G01*
Y55372D02*
G03*
X119583Y55372I-203J0D01*
G01*
X67259Y143764D02*
G03*
X67259Y143764I-203J0D01*
G01*
X62179D02*
G03*
X62179Y143764I-203J0D01*
G01*
X64719D02*
G03*
X64719Y143764I-203J0D01*
G01*
X73355Y182880D02*
G03*
X73355Y182880I-203J0D01*
G01*
Y180340D02*
G03*
X73355Y180340I-203J0D01*
G01*
Y176276D02*
G03*
X73355Y176276I-203J0D01*
G01*
Y173736D02*
G03*
X73355Y173736I-203J0D01*
G01*
Y169672D02*
G03*
X73355Y169672I-203J0D01*
G01*
Y167132D02*
G03*
X73355Y167132I-203J0D01*
G01*
Y163068D02*
G03*
X73355Y163068I-203J0D01*
G01*
Y160528D02*
G03*
X73355Y160528I-203J0D01*
G01*
Y155956D02*
G03*
X73355Y155956I-203J0D01*
G01*
Y153416D02*
G03*
X73355Y153416I-203J0D01*
G01*
X245567Y168148D02*
G03*
X245567Y168148I-203J0D01*
G01*
Y164648D02*
G03*
X245567Y164648I-203J0D01*
G01*
X63645Y139600D02*
G03*
X63645Y139600I-203J0D01*
G01*
X66185D02*
G03*
X66185Y139600I-203J0D01*
G01*
X61105D02*
G03*
X61105Y139600I-203J0D01*
G01*
X68725D02*
G03*
X68725Y139600I-203J0D01*
G01*
D43*
X182982Y79756D02*
G03*
X182982Y79756I-102J0D01*
G01*
X185522D02*
G03*
X185522Y79756I-102J0D01*
G01*
X182982Y116332D02*
G03*
X182982Y116332I-102J0D01*
G01*
X185522D02*
G03*
X185522Y116332I-102J0D01*
G01*
X90018Y91948D02*
G03*
X90018Y91948I-102J0D01*
G01*
X87478D02*
G03*
X87478Y91948I-102J0D01*
G01*
X121514Y85344D02*
G03*
X121514Y85344I-102J0D01*
G01*
X118974D02*
G03*
X118974Y85344I-102J0D01*
G01*
X90018Y82804D02*
G03*
X90018Y82804I-102J0D01*
G01*
X87478D02*
G03*
X87478Y82804I-102J0D01*
G01*
X121514Y93980D02*
G03*
X121514Y93980I-102J0D01*
G01*
X118974D02*
G03*
X118974Y93980I-102J0D01*
G01*
X90018Y74168D02*
G03*
X90018Y74168I-102J0D01*
G01*
X87478D02*
G03*
X87478Y74168I-102J0D01*
G01*
X121514Y102616D02*
G03*
X121514Y102616I-102J0D01*
G01*
X118974D02*
G03*
X118974Y102616I-102J0D01*
G01*
X90018Y65532D02*
G03*
X90018Y65532I-102J0D01*
G01*
X87478D02*
G03*
X87478Y65532I-102J0D01*
G01*
X121514Y111760D02*
G03*
X121514Y111760I-102J0D01*
G01*
X118974D02*
G03*
X118974Y111760I-102J0D01*
G01*
X182982Y107188D02*
G03*
X182982Y107188I-102J0D01*
G01*
X185522D02*
G03*
X185522Y107188I-102J0D01*
G01*
X182982Y98044D02*
G03*
X182982Y98044I-102J0D01*
G01*
X185522D02*
G03*
X185522Y98044I-102J0D01*
G01*
X182982Y88900D02*
G03*
X182982Y88900I-102J0D01*
G01*
X185522D02*
G03*
X185522Y88900I-102J0D01*
G01*
X182982Y70612D02*
G03*
X182982Y70612I-102J0D01*
G01*
X185522D02*
G03*
X185522Y70612I-102J0D01*
G01*
X171806Y52832D02*
G03*
X171806Y52832I-102J0D01*
G01*
Y55372D02*
G03*
X171806Y55372I-102J0D01*
G01*
X164694Y52832D02*
G03*
X164694Y52832I-102J0D01*
G01*
Y55372D02*
G03*
X164694Y55372I-102J0D01*
G01*
X157582Y52832D02*
G03*
X157582Y52832I-102J0D01*
G01*
Y55372D02*
G03*
X157582Y55372I-102J0D01*
G01*
X146406Y52832D02*
G03*
X146406Y52832I-102J0D01*
G01*
Y55372D02*
G03*
X146406Y55372I-102J0D01*
G01*
X132690Y52832D02*
G03*
X132690Y52832I-102J0D01*
G01*
Y55372D02*
G03*
X132690Y55372I-102J0D01*
G01*
X119482Y52832D02*
G03*
X119482Y52832I-102J0D01*
G01*
Y55372D02*
G03*
X119482Y55372I-102J0D01*
G01*
X67158Y143764D02*
G03*
X67158Y143764I-102J0D01*
G01*
X62078D02*
G03*
X62078Y143764I-102J0D01*
G01*
X64618D02*
G03*
X64618Y143764I-102J0D01*
G01*
X73254Y182880D02*
G03*
X73254Y182880I-102J0D01*
G01*
Y180340D02*
G03*
X73254Y180340I-102J0D01*
G01*
Y176276D02*
G03*
X73254Y176276I-102J0D01*
G01*
Y173736D02*
G03*
X73254Y173736I-102J0D01*
G01*
Y169672D02*
G03*
X73254Y169672I-102J0D01*
G01*
Y167132D02*
G03*
X73254Y167132I-102J0D01*
G01*
Y163068D02*
G03*
X73254Y163068I-102J0D01*
G01*
Y160528D02*
G03*
X73254Y160528I-102J0D01*
G01*
Y155956D02*
G03*
X73254Y155956I-102J0D01*
G01*
Y153416D02*
G03*
X73254Y153416I-102J0D01*
G01*
X63544Y139600D02*
G03*
X63544Y139600I-102J0D01*
G01*
X66084D02*
G03*
X66084Y139600I-102J0D01*
G01*
X61004D02*
G03*
X61004Y139600I-102J0D01*
G01*
X68624D02*
G03*
X68624Y139600I-102J0D01*
G01*
M02*
