G04 #@! TF.FileFunction,Copper,L2,Bot,Signal*
%FSLAX46Y46*%
G04 Gerber Fmt 4.6, Leading zero omitted, Abs format (unit mm)*
G04 Created by KiCad (PCBNEW 4.0.7) date 05/17/18 12:20:08*
%MOMM*%
%LPD*%
G01*
G04 APERTURE LIST*
%ADD10C,0.100000*%
%ADD11R,2.600000X2.000000*%
%ADD12O,2.600000X2.000000*%
%ADD13R,1.600000X1.000000*%
%ADD14C,2.999740*%
%ADD15C,3.500120*%
%ADD16R,0.600000X0.900000*%
%ADD17R,0.900000X0.600000*%
%ADD18R,1.150000X0.700000*%
%ADD19R,1.550000X4.700000*%
%ADD20R,3.300000X4.200000*%
%ADD21R,0.900000X1.700000*%
%ADD22R,1.700000X0.900000*%
%ADD23R,1.500000X0.600000*%
%ADD24C,6.000000*%
%ADD25O,3.000000X1.600000*%
%ADD26C,1.400000*%
%ADD27C,0.600000*%
%ADD28C,1.000000*%
%ADD29C,0.300000*%
%ADD30C,0.256000*%
G04 APERTURE END LIST*
D10*
D11*
X3500000Y-25000000D03*
D12*
X3500000Y-27540000D03*
X3500000Y-30080000D03*
X3500000Y-32620000D03*
D13*
X23250000Y-25750000D03*
X23250000Y-28750000D03*
X14500000Y-22500000D03*
X14500000Y-19500000D03*
X16750000Y-22500000D03*
X16750000Y-19500000D03*
D10*
G36*
X28348528Y-24770101D02*
X29479899Y-25901472D01*
X28772792Y-26608579D01*
X27641421Y-25477208D01*
X28348528Y-24770101D01*
X28348528Y-24770101D01*
G37*
G36*
X26227208Y-26891421D02*
X27358579Y-28022792D01*
X26651472Y-28729899D01*
X25520101Y-27598528D01*
X26227208Y-26891421D01*
X26227208Y-26891421D01*
G37*
D13*
X14500000Y-15500000D03*
X14500000Y-12500000D03*
X16750000Y-15500000D03*
X16750000Y-12500000D03*
X23250000Y-33250000D03*
X23250000Y-30250000D03*
X14500000Y-45500000D03*
X14500000Y-42500000D03*
X16750000Y-45500000D03*
X16750000Y-42500000D03*
X14500000Y-38500000D03*
X14500000Y-35500000D03*
X16750000Y-38500000D03*
X16750000Y-35500000D03*
D14*
X28000000Y-17405000D03*
X28000000Y-13595000D03*
D15*
X28000000Y-21500000D03*
D14*
X28000000Y-39905000D03*
X28000000Y-36095000D03*
D15*
X28000000Y-44000000D03*
D16*
X21315000Y-19350000D03*
X22165000Y-19350000D03*
X20465000Y-19350000D03*
X21315000Y-21650000D03*
X22165000Y-21650000D03*
X20465000Y-21650000D03*
X20465000Y-20500000D03*
X22165000Y-20500000D03*
D17*
X18615000Y-18620000D03*
X18615000Y-22380000D03*
X18615000Y-19900000D03*
D18*
X24335000Y-19860000D03*
X24335000Y-18590000D03*
X24335000Y-21140000D03*
D19*
X18865000Y-20500000D03*
D20*
X21065000Y-20500000D03*
D18*
X24335000Y-22410000D03*
D17*
X18615000Y-21100000D03*
D16*
X21315000Y-20500000D03*
X21315000Y-13350000D03*
X22165000Y-13350000D03*
X20465000Y-13350000D03*
X21315000Y-15650000D03*
X22165000Y-15650000D03*
X20465000Y-15650000D03*
X20465000Y-14500000D03*
X22165000Y-14500000D03*
D17*
X18615000Y-12620000D03*
X18615000Y-16380000D03*
X18615000Y-13900000D03*
D18*
X24335000Y-13860000D03*
X24335000Y-12590000D03*
X24335000Y-15140000D03*
D19*
X18865000Y-14500000D03*
D20*
X21065000Y-14500000D03*
D18*
X24335000Y-16410000D03*
D17*
X18615000Y-15100000D03*
D16*
X21315000Y-14500000D03*
X21315000Y-42350000D03*
X22165000Y-42350000D03*
X20465000Y-42350000D03*
X21315000Y-44650000D03*
X22165000Y-44650000D03*
X20465000Y-44650000D03*
X20465000Y-43500000D03*
X22165000Y-43500000D03*
D17*
X18615000Y-41620000D03*
X18615000Y-45380000D03*
X18615000Y-42900000D03*
D18*
X24335000Y-42860000D03*
X24335000Y-41590000D03*
X24335000Y-44140000D03*
D19*
X18865000Y-43500000D03*
D20*
X21065000Y-43500000D03*
D18*
X24335000Y-45410000D03*
D17*
X18615000Y-44100000D03*
D16*
X21315000Y-43500000D03*
X21315000Y-36350000D03*
X22165000Y-36350000D03*
X20465000Y-36350000D03*
X21315000Y-38650000D03*
X22165000Y-38650000D03*
X20465000Y-38650000D03*
X20465000Y-37500000D03*
X22165000Y-37500000D03*
D17*
X18615000Y-35620000D03*
X18615000Y-39380000D03*
X18615000Y-36900000D03*
D18*
X24335000Y-36860000D03*
X24335000Y-35590000D03*
X24335000Y-38140000D03*
D19*
X18865000Y-37500000D03*
D20*
X21065000Y-37500000D03*
D18*
X24335000Y-39410000D03*
D17*
X18615000Y-38100000D03*
D16*
X21315000Y-37500000D03*
D21*
X16950000Y-17500000D03*
X14050000Y-17500000D03*
D22*
X27750000Y-33200000D03*
X27750000Y-30300000D03*
X25500000Y-33200000D03*
X25500000Y-30300000D03*
D21*
X16950000Y-40500000D03*
X14050000Y-40500000D03*
D23*
X20650000Y-24555000D03*
X20650000Y-25825000D03*
X20650000Y-27095000D03*
X20650000Y-28365000D03*
X20650000Y-29635000D03*
X20650000Y-30905000D03*
X20650000Y-32175000D03*
X20650000Y-33445000D03*
X11350000Y-33445000D03*
X11350000Y-32175000D03*
X11350000Y-30905000D03*
X11350000Y-29635000D03*
X11350000Y-28365000D03*
X11350000Y-27095000D03*
X11350000Y-25825000D03*
X11350000Y-24555000D03*
D24*
X15000000Y-6000000D03*
X15000000Y-52000000D03*
D25*
X3500000Y-39500000D03*
X3500000Y-42040000D03*
X3500000Y-49660000D03*
X3500000Y-52200000D03*
X3500000Y-54740000D03*
X3500000Y-3500000D03*
X3500000Y-6040000D03*
X3500000Y-13660000D03*
X3500000Y-16200000D03*
X3500000Y-18740000D03*
D26*
X25500000Y-28500000D03*
X12500000Y-12500000D03*
X3500000Y-35750000D03*
X25500000Y-26000000D03*
X12500000Y-22500000D03*
X12500000Y-14750000D03*
X12500000Y-19500000D03*
X25000000Y-24250000D03*
X12500000Y-45500000D03*
X12500000Y-35500000D03*
X12500000Y-42500000D03*
X28500000Y-28500000D03*
D27*
X26439340Y-27810660D02*
X26189340Y-27810660D01*
X26189340Y-27810660D02*
X25500000Y-28500000D01*
X20650000Y-28365000D02*
X22865000Y-28365000D01*
X22865000Y-28365000D02*
X23250000Y-28750000D01*
X23250000Y-30250000D02*
X23250000Y-28750000D01*
X23250000Y-30250000D02*
X25450000Y-30250000D01*
X25450000Y-30250000D02*
X25500000Y-30300000D01*
X25500000Y-28500000D02*
X25500000Y-30300000D01*
X25250000Y-28750000D02*
X23250000Y-28750000D01*
X25500000Y-28500000D02*
X25250000Y-28750000D01*
D28*
X3500000Y-32620000D02*
X5880000Y-32620000D01*
X9000000Y-12500000D02*
X12500000Y-12500000D01*
X6500000Y-15000000D02*
X9000000Y-12500000D01*
X6500000Y-32000000D02*
X6500000Y-15000000D01*
X5880000Y-32620000D02*
X6500000Y-32000000D01*
X3500000Y-35750000D02*
X3500000Y-32620000D01*
D27*
X25500000Y-30300000D02*
X25050000Y-30300000D01*
X25450000Y-30250000D02*
X25500000Y-30300000D01*
D29*
X27750000Y-33200000D02*
X27550000Y-33200000D01*
X27550000Y-33200000D02*
X26500000Y-34250000D01*
X22000000Y-34250000D02*
X21195000Y-33445000D01*
X26500000Y-34250000D02*
X22000000Y-34250000D01*
X21195000Y-33445000D02*
X20650000Y-33445000D01*
D27*
X23500000Y-26000000D02*
X25500000Y-26000000D01*
X23500000Y-26000000D02*
X23250000Y-25750000D01*
X20650000Y-27095000D02*
X21405000Y-27095000D01*
X22500000Y-26000000D02*
X23250000Y-25750000D01*
X22500000Y-26250000D02*
X22500000Y-26000000D01*
X21405000Y-27095000D02*
X22500000Y-26250000D01*
D29*
X20650000Y-33445000D02*
X21195000Y-33445000D01*
D27*
X20650000Y-33445000D02*
X19695000Y-33445000D01*
X19905000Y-27095000D02*
X20650000Y-27095000D01*
X19250000Y-27750000D02*
X19905000Y-27095000D01*
X19250000Y-33000000D02*
X19250000Y-27750000D01*
X19695000Y-33445000D02*
X19250000Y-33000000D01*
D29*
X21195000Y-33445000D02*
X20650000Y-33445000D01*
D27*
X11350000Y-24555000D02*
X11350000Y-23650000D01*
X11350000Y-23650000D02*
X12500000Y-22500000D01*
X12500000Y-22500000D02*
X14500000Y-22500000D01*
X16750000Y-22500000D02*
X18465000Y-22500000D01*
X18465000Y-22500000D02*
X20465000Y-20500000D01*
X14500000Y-22500000D02*
X16750000Y-22500000D01*
X8750000Y-18500000D02*
X8750000Y-26000000D01*
X11350000Y-27095000D02*
X9845000Y-27095000D01*
X9845000Y-27095000D02*
X8750000Y-26000000D01*
X8750000Y-18500000D02*
X12500000Y-14750000D01*
D28*
X14500000Y-12500000D02*
X14500000Y-12750000D01*
X14500000Y-12750000D02*
X12500000Y-14750000D01*
D27*
X16750000Y-12500000D02*
X18465000Y-12500000D01*
X18465000Y-12500000D02*
X20465000Y-14500000D01*
X14500000Y-12500000D02*
X16750000Y-12500000D01*
X12500000Y-19500000D02*
X14500000Y-19500000D01*
X15500000Y-19500000D02*
X15500000Y-15500000D01*
X14500000Y-19500000D02*
X15500000Y-19500000D01*
X15500000Y-19500000D02*
X16750000Y-19500000D01*
X14500000Y-15500000D02*
X15500000Y-15500000D01*
X15500000Y-15500000D02*
X16750000Y-15500000D01*
X25000000Y-24250000D02*
X25305000Y-24555000D01*
X25305000Y-24555000D02*
X27426320Y-24555000D01*
X27426320Y-24555000D02*
X28560660Y-25689340D01*
X20650000Y-24555000D02*
X27426320Y-24555000D01*
X27426320Y-24555000D02*
X28560660Y-25689340D01*
X20650000Y-24555000D02*
X20695000Y-24555000D01*
X23250000Y-33250000D02*
X25450000Y-33250000D01*
X25450000Y-33250000D02*
X25500000Y-33200000D01*
D29*
X20650000Y-30905000D02*
X21080000Y-30905000D01*
X21080000Y-30905000D02*
X22000000Y-31825000D01*
X22000000Y-32250000D02*
X23000000Y-33250000D01*
X22000000Y-31825000D02*
X22000000Y-32250000D01*
X23000000Y-33250000D02*
X23250000Y-33250000D01*
X25450000Y-33250000D02*
X25500000Y-33200000D01*
X20650000Y-30905000D02*
X21155000Y-30905000D01*
X23000000Y-33250000D02*
X23250000Y-33250000D01*
D27*
X11350000Y-30905000D02*
X10095000Y-30905000D01*
X12500000Y-45500000D02*
X12500000Y-45500000D01*
X8750000Y-35000000D02*
X8750000Y-41750000D01*
X8750000Y-41750000D02*
X12500000Y-45500000D01*
X12500000Y-45500000D02*
X14500000Y-45500000D01*
X8750000Y-35000000D02*
X8750000Y-35000000D01*
X8750000Y-32250000D02*
X8750000Y-35000000D01*
X10095000Y-30905000D02*
X8750000Y-32250000D01*
X16750000Y-45500000D02*
X18465000Y-45500000D01*
X18465000Y-45500000D02*
X20465000Y-43500000D01*
X14500000Y-45500000D02*
X16750000Y-45500000D01*
D29*
X12500000Y-35500000D02*
X12750000Y-35500000D01*
X12750000Y-35500000D02*
X12500000Y-35500000D01*
D27*
X11350000Y-33445000D02*
X11350000Y-34100000D01*
X12750000Y-35500000D02*
X12500000Y-35500000D01*
X12500000Y-35500000D02*
X14500000Y-35500000D01*
X11350000Y-34100000D02*
X12750000Y-35500000D01*
X16750000Y-35500000D02*
X18465000Y-35500000D01*
X18465000Y-35500000D02*
X20465000Y-37500000D01*
X14500000Y-35500000D02*
X16750000Y-35500000D01*
X12500000Y-42500000D02*
X14500000Y-42500000D01*
X15500000Y-42500000D02*
X15500000Y-38500000D01*
X14500000Y-42500000D02*
X15500000Y-42500000D01*
X15500000Y-42500000D02*
X16750000Y-42500000D01*
X14500000Y-38500000D02*
X15500000Y-38500000D01*
X15500000Y-38500000D02*
X16750000Y-38500000D01*
X28000000Y-13595000D02*
X27995000Y-13595000D01*
X27995000Y-13595000D02*
X26800000Y-12400000D01*
X26800000Y-12400000D02*
X25800000Y-12400000D01*
D29*
X28000000Y-17405000D02*
X28000000Y-19000000D01*
X27100000Y-19400000D02*
X26000000Y-19400000D01*
X27200000Y-19300000D02*
X27100000Y-19400000D01*
X27700000Y-19300000D02*
X27200000Y-19300000D01*
X28000000Y-19000000D02*
X27700000Y-19300000D01*
D27*
X28000000Y-36095000D02*
X27445000Y-36095000D01*
X27445000Y-36095000D02*
X26400000Y-35050000D01*
X26400000Y-35050000D02*
X25850000Y-35050000D01*
D29*
X24335000Y-35590000D02*
X27495000Y-35590000D01*
X27495000Y-35590000D02*
X28000000Y-36095000D01*
X28000000Y-39905000D02*
X28000000Y-41500000D01*
X27750000Y-41750000D02*
X26000000Y-41750000D01*
X28000000Y-41500000D02*
X27750000Y-41750000D01*
X22750000Y-17500000D02*
X23250000Y-18000000D01*
X22750000Y-17500000D02*
X23250000Y-17000000D01*
X23250000Y-16750000D02*
X23250000Y-17000000D01*
X23590000Y-16410000D02*
X24335000Y-16410000D01*
X23590000Y-16410000D02*
X23250000Y-16750000D01*
X23250000Y-17000000D02*
X23250000Y-18000000D01*
X23250000Y-18000000D02*
X23250000Y-22250000D01*
X24335000Y-22410000D02*
X23410000Y-22410000D01*
X23410000Y-22410000D02*
X23250000Y-22250000D01*
D27*
X23000000Y-17500000D02*
X22750000Y-17500000D01*
X22750000Y-17500000D02*
X17200000Y-17500000D01*
D29*
X27750000Y-30300000D02*
X27450000Y-30300000D01*
X27450000Y-30300000D02*
X26525000Y-31225000D01*
X20650000Y-29635000D02*
X21110000Y-29635000D01*
X21110000Y-29635000D02*
X21975000Y-30500000D01*
X22275000Y-31225000D02*
X26525000Y-31225000D01*
X21975000Y-30925000D02*
X22275000Y-31225000D01*
X21975000Y-30500000D02*
X21975000Y-30925000D01*
X27500000Y-30300000D02*
X27750000Y-30300000D01*
D27*
X27750000Y-29250000D02*
X27750000Y-30300000D01*
X28500000Y-28500000D02*
X27750000Y-29250000D01*
X27750000Y-30300000D02*
X27750000Y-30300000D01*
D29*
X20650000Y-29635000D02*
X21135000Y-29635000D01*
X23250000Y-40000000D02*
X22750000Y-40500000D01*
X23250000Y-39750000D02*
X23250000Y-40000000D01*
X23600000Y-39410000D02*
X23590000Y-39410000D01*
X23600000Y-39410000D02*
X24335000Y-39410000D01*
X23590000Y-39410000D02*
X23250000Y-39750000D01*
X23250000Y-40000000D02*
X23250000Y-41000000D01*
X23250000Y-41000000D02*
X23250000Y-45250000D01*
X23250000Y-45250000D02*
X23410000Y-45410000D01*
X24335000Y-45410000D02*
X23410000Y-45410000D01*
D27*
X17300000Y-40500000D02*
X22750000Y-40500000D01*
X22750000Y-40500000D02*
X23000000Y-40500000D01*
X9750000Y-21750000D02*
X9750000Y-19000000D01*
X9750000Y-21750000D02*
X9750000Y-21750000D01*
X9750000Y-25500000D02*
X9750000Y-21750000D01*
X10075000Y-25825000D02*
X9750000Y-25500000D01*
X9750000Y-19000000D02*
X11250000Y-17500000D01*
X14050000Y-17500000D02*
X11250000Y-17500000D01*
X10075000Y-25825000D02*
X11350000Y-25825000D01*
X11350000Y-32175000D02*
X10325000Y-32175000D01*
X10750000Y-40500000D02*
X14050000Y-40500000D01*
X9750000Y-39500000D02*
X10750000Y-40500000D01*
X9750000Y-34500000D02*
X9750000Y-39500000D01*
X9750000Y-34500000D02*
X9750000Y-34500000D01*
X9750000Y-32750000D02*
X9750000Y-34500000D01*
X10325000Y-32175000D02*
X9750000Y-32750000D01*
D30*
G36*
X25872000Y-19400000D02*
X25880754Y-19446523D01*
X25908249Y-19489251D01*
X25950201Y-19517915D01*
X26000000Y-19528000D01*
X27069041Y-19528000D01*
X26767840Y-19652454D01*
X26154607Y-20264617D01*
X25822319Y-21064856D01*
X25822051Y-21372000D01*
X25291000Y-21372000D01*
X25231000Y-21312000D01*
X24507000Y-21312000D01*
X24507000Y-21332000D01*
X24163000Y-21332000D01*
X24163000Y-21312000D01*
X24143000Y-21312000D01*
X24143000Y-20968000D01*
X24163000Y-20968000D01*
X24163000Y-20032000D01*
X24507000Y-20032000D01*
X24507000Y-20968000D01*
X25231000Y-20968000D01*
X25338000Y-20861000D01*
X25338000Y-20704866D01*
X25272841Y-20547558D01*
X25225283Y-20500000D01*
X25272841Y-20452442D01*
X25338000Y-20295134D01*
X25338000Y-20139000D01*
X25231000Y-20032000D01*
X24507000Y-20032000D01*
X24163000Y-20032000D01*
X24143000Y-20032000D01*
X24143000Y-19688000D01*
X24163000Y-19688000D01*
X24163000Y-18762000D01*
X24507000Y-18762000D01*
X24507000Y-19688000D01*
X25231000Y-19688000D01*
X25338000Y-19581000D01*
X25338000Y-19424866D01*
X25272841Y-19267558D01*
X25230283Y-19225000D01*
X25272841Y-19182442D01*
X25338000Y-19025134D01*
X25338000Y-18869000D01*
X25231000Y-18762000D01*
X24507000Y-18762000D01*
X24163000Y-18762000D01*
X24143000Y-18762000D01*
X24143000Y-18418000D01*
X24163000Y-18418000D01*
X24163000Y-17919000D01*
X24507000Y-17919000D01*
X24507000Y-18418000D01*
X25231000Y-18418000D01*
X25338000Y-18311000D01*
X25338000Y-18154866D01*
X25272841Y-17997558D01*
X25152443Y-17877159D01*
X24995135Y-17812000D01*
X24614000Y-17812000D01*
X24507000Y-17919000D01*
X24163000Y-17919000D01*
X24056000Y-17812000D01*
X23828000Y-17812000D01*
X23828000Y-17196385D01*
X24910000Y-17196385D01*
X25068607Y-17166541D01*
X25214279Y-17072804D01*
X25312004Y-16929778D01*
X25346385Y-16760000D01*
X25346385Y-16060000D01*
X25316541Y-15901393D01*
X25233281Y-15772003D01*
X25272841Y-15732442D01*
X25338000Y-15575134D01*
X25338000Y-15419000D01*
X25231000Y-15312000D01*
X24507000Y-15312000D01*
X24507000Y-15332000D01*
X24163000Y-15332000D01*
X24163000Y-15312000D01*
X24143000Y-15312000D01*
X24143000Y-14968000D01*
X24163000Y-14968000D01*
X24163000Y-14032000D01*
X24507000Y-14032000D01*
X24507000Y-14968000D01*
X25231000Y-14968000D01*
X25338000Y-14861000D01*
X25338000Y-14704866D01*
X25272841Y-14547558D01*
X25225283Y-14500000D01*
X25272841Y-14452442D01*
X25338000Y-14295134D01*
X25338000Y-14139000D01*
X25231000Y-14032000D01*
X24507000Y-14032000D01*
X24163000Y-14032000D01*
X24143000Y-14032000D01*
X24143000Y-13688000D01*
X24163000Y-13688000D01*
X24163000Y-12762000D01*
X24507000Y-12762000D01*
X24507000Y-13688000D01*
X25231000Y-13688000D01*
X25338000Y-13581000D01*
X25338000Y-13424866D01*
X25272841Y-13267558D01*
X25230283Y-13225000D01*
X25272841Y-13182442D01*
X25338000Y-13025134D01*
X25338000Y-12869000D01*
X25231000Y-12762000D01*
X24507000Y-12762000D01*
X24163000Y-12762000D01*
X24143000Y-12762000D01*
X24143000Y-12418000D01*
X24163000Y-12418000D01*
X24163000Y-12398000D01*
X24507000Y-12398000D01*
X24507000Y-12418000D01*
X25231000Y-12418000D01*
X25338000Y-12311000D01*
X25338000Y-12228000D01*
X25872000Y-12228000D01*
X25872000Y-19400000D01*
X25872000Y-19400000D01*
G37*
X25872000Y-19400000D02*
X25880754Y-19446523D01*
X25908249Y-19489251D01*
X25950201Y-19517915D01*
X26000000Y-19528000D01*
X27069041Y-19528000D01*
X26767840Y-19652454D01*
X26154607Y-20264617D01*
X25822319Y-21064856D01*
X25822051Y-21372000D01*
X25291000Y-21372000D01*
X25231000Y-21312000D01*
X24507000Y-21312000D01*
X24507000Y-21332000D01*
X24163000Y-21332000D01*
X24163000Y-21312000D01*
X24143000Y-21312000D01*
X24143000Y-20968000D01*
X24163000Y-20968000D01*
X24163000Y-20032000D01*
X24507000Y-20032000D01*
X24507000Y-20968000D01*
X25231000Y-20968000D01*
X25338000Y-20861000D01*
X25338000Y-20704866D01*
X25272841Y-20547558D01*
X25225283Y-20500000D01*
X25272841Y-20452442D01*
X25338000Y-20295134D01*
X25338000Y-20139000D01*
X25231000Y-20032000D01*
X24507000Y-20032000D01*
X24163000Y-20032000D01*
X24143000Y-20032000D01*
X24143000Y-19688000D01*
X24163000Y-19688000D01*
X24163000Y-18762000D01*
X24507000Y-18762000D01*
X24507000Y-19688000D01*
X25231000Y-19688000D01*
X25338000Y-19581000D01*
X25338000Y-19424866D01*
X25272841Y-19267558D01*
X25230283Y-19225000D01*
X25272841Y-19182442D01*
X25338000Y-19025134D01*
X25338000Y-18869000D01*
X25231000Y-18762000D01*
X24507000Y-18762000D01*
X24163000Y-18762000D01*
X24143000Y-18762000D01*
X24143000Y-18418000D01*
X24163000Y-18418000D01*
X24163000Y-17919000D01*
X24507000Y-17919000D01*
X24507000Y-18418000D01*
X25231000Y-18418000D01*
X25338000Y-18311000D01*
X25338000Y-18154866D01*
X25272841Y-17997558D01*
X25152443Y-17877159D01*
X24995135Y-17812000D01*
X24614000Y-17812000D01*
X24507000Y-17919000D01*
X24163000Y-17919000D01*
X24056000Y-17812000D01*
X23828000Y-17812000D01*
X23828000Y-17196385D01*
X24910000Y-17196385D01*
X25068607Y-17166541D01*
X25214279Y-17072804D01*
X25312004Y-16929778D01*
X25346385Y-16760000D01*
X25346385Y-16060000D01*
X25316541Y-15901393D01*
X25233281Y-15772003D01*
X25272841Y-15732442D01*
X25338000Y-15575134D01*
X25338000Y-15419000D01*
X25231000Y-15312000D01*
X24507000Y-15312000D01*
X24507000Y-15332000D01*
X24163000Y-15332000D01*
X24163000Y-15312000D01*
X24143000Y-15312000D01*
X24143000Y-14968000D01*
X24163000Y-14968000D01*
X24163000Y-14032000D01*
X24507000Y-14032000D01*
X24507000Y-14968000D01*
X25231000Y-14968000D01*
X25338000Y-14861000D01*
X25338000Y-14704866D01*
X25272841Y-14547558D01*
X25225283Y-14500000D01*
X25272841Y-14452442D01*
X25338000Y-14295134D01*
X25338000Y-14139000D01*
X25231000Y-14032000D01*
X24507000Y-14032000D01*
X24163000Y-14032000D01*
X24143000Y-14032000D01*
X24143000Y-13688000D01*
X24163000Y-13688000D01*
X24163000Y-12762000D01*
X24507000Y-12762000D01*
X24507000Y-13688000D01*
X25231000Y-13688000D01*
X25338000Y-13581000D01*
X25338000Y-13424866D01*
X25272841Y-13267558D01*
X25230283Y-13225000D01*
X25272841Y-13182442D01*
X25338000Y-13025134D01*
X25338000Y-12869000D01*
X25231000Y-12762000D01*
X24507000Y-12762000D01*
X24163000Y-12762000D01*
X24143000Y-12762000D01*
X24143000Y-12418000D01*
X24163000Y-12418000D01*
X24163000Y-12398000D01*
X24507000Y-12398000D01*
X24507000Y-12418000D01*
X25231000Y-12418000D01*
X25338000Y-12311000D01*
X25338000Y-12228000D01*
X25872000Y-12228000D01*
X25872000Y-19400000D01*
G36*
X25872000Y-41750000D02*
X25880754Y-41796523D01*
X25908249Y-41839251D01*
X25950201Y-41867915D01*
X26000000Y-41878000D01*
X27432068Y-41878000D01*
X26767840Y-42152454D01*
X26154607Y-42764617D01*
X25822319Y-43564856D01*
X25821614Y-44372000D01*
X25291000Y-44372000D01*
X25231000Y-44312000D01*
X24507000Y-44312000D01*
X24507000Y-44332000D01*
X24163000Y-44332000D01*
X24163000Y-44312000D01*
X24143000Y-44312000D01*
X24143000Y-43968000D01*
X24163000Y-43968000D01*
X24163000Y-43032000D01*
X24507000Y-43032000D01*
X24507000Y-43968000D01*
X25231000Y-43968000D01*
X25338000Y-43861000D01*
X25338000Y-43704866D01*
X25272841Y-43547558D01*
X25225283Y-43500000D01*
X25272841Y-43452442D01*
X25338000Y-43295134D01*
X25338000Y-43139000D01*
X25231000Y-43032000D01*
X24507000Y-43032000D01*
X24163000Y-43032000D01*
X24143000Y-43032000D01*
X24143000Y-42688000D01*
X24163000Y-42688000D01*
X24163000Y-41762000D01*
X24507000Y-41762000D01*
X24507000Y-42688000D01*
X25231000Y-42688000D01*
X25338000Y-42581000D01*
X25338000Y-42424866D01*
X25272841Y-42267558D01*
X25230283Y-42225000D01*
X25272841Y-42182442D01*
X25338000Y-42025134D01*
X25338000Y-41869000D01*
X25231000Y-41762000D01*
X24507000Y-41762000D01*
X24163000Y-41762000D01*
X24143000Y-41762000D01*
X24143000Y-41418000D01*
X24163000Y-41418000D01*
X24163000Y-40919000D01*
X24507000Y-40919000D01*
X24507000Y-41418000D01*
X25231000Y-41418000D01*
X25338000Y-41311000D01*
X25338000Y-41154866D01*
X25272841Y-40997558D01*
X25152443Y-40877159D01*
X24995135Y-40812000D01*
X24614000Y-40812000D01*
X24507000Y-40919000D01*
X24163000Y-40919000D01*
X24056000Y-40812000D01*
X23828000Y-40812000D01*
X23828000Y-40196385D01*
X24910000Y-40196385D01*
X25068607Y-40166541D01*
X25214279Y-40072804D01*
X25312004Y-39929778D01*
X25346385Y-39760000D01*
X25346385Y-39060000D01*
X25316541Y-38901393D01*
X25233281Y-38772003D01*
X25272841Y-38732442D01*
X25338000Y-38575134D01*
X25338000Y-38419000D01*
X25231000Y-38312000D01*
X24507000Y-38312000D01*
X24507000Y-38332000D01*
X24163000Y-38332000D01*
X24163000Y-38312000D01*
X24143000Y-38312000D01*
X24143000Y-37968000D01*
X24163000Y-37968000D01*
X24163000Y-37032000D01*
X24507000Y-37032000D01*
X24507000Y-37968000D01*
X25231000Y-37968000D01*
X25338000Y-37861000D01*
X25338000Y-37704866D01*
X25272841Y-37547558D01*
X25225283Y-37500000D01*
X25272841Y-37452442D01*
X25338000Y-37295134D01*
X25338000Y-37139000D01*
X25231000Y-37032000D01*
X24507000Y-37032000D01*
X24163000Y-37032000D01*
X24143000Y-37032000D01*
X24143000Y-36688000D01*
X24163000Y-36688000D01*
X24163000Y-35762000D01*
X24507000Y-35762000D01*
X24507000Y-36688000D01*
X25231000Y-36688000D01*
X25338000Y-36581000D01*
X25338000Y-36424866D01*
X25272841Y-36267558D01*
X25230283Y-36225000D01*
X25272841Y-36182442D01*
X25338000Y-36025134D01*
X25338000Y-35869000D01*
X25231000Y-35762000D01*
X24507000Y-35762000D01*
X24163000Y-35762000D01*
X24143000Y-35762000D01*
X24143000Y-35418000D01*
X24163000Y-35418000D01*
X24163000Y-35398000D01*
X24507000Y-35398000D01*
X24507000Y-35418000D01*
X25231000Y-35418000D01*
X25338000Y-35311000D01*
X25338000Y-35154866D01*
X25272841Y-34997558D01*
X25153284Y-34878000D01*
X25872000Y-34878000D01*
X25872000Y-41750000D01*
X25872000Y-41750000D01*
G37*
X25872000Y-41750000D02*
X25880754Y-41796523D01*
X25908249Y-41839251D01*
X25950201Y-41867915D01*
X26000000Y-41878000D01*
X27432068Y-41878000D01*
X26767840Y-42152454D01*
X26154607Y-42764617D01*
X25822319Y-43564856D01*
X25821614Y-44372000D01*
X25291000Y-44372000D01*
X25231000Y-44312000D01*
X24507000Y-44312000D01*
X24507000Y-44332000D01*
X24163000Y-44332000D01*
X24163000Y-44312000D01*
X24143000Y-44312000D01*
X24143000Y-43968000D01*
X24163000Y-43968000D01*
X24163000Y-43032000D01*
X24507000Y-43032000D01*
X24507000Y-43968000D01*
X25231000Y-43968000D01*
X25338000Y-43861000D01*
X25338000Y-43704866D01*
X25272841Y-43547558D01*
X25225283Y-43500000D01*
X25272841Y-43452442D01*
X25338000Y-43295134D01*
X25338000Y-43139000D01*
X25231000Y-43032000D01*
X24507000Y-43032000D01*
X24163000Y-43032000D01*
X24143000Y-43032000D01*
X24143000Y-42688000D01*
X24163000Y-42688000D01*
X24163000Y-41762000D01*
X24507000Y-41762000D01*
X24507000Y-42688000D01*
X25231000Y-42688000D01*
X25338000Y-42581000D01*
X25338000Y-42424866D01*
X25272841Y-42267558D01*
X25230283Y-42225000D01*
X25272841Y-42182442D01*
X25338000Y-42025134D01*
X25338000Y-41869000D01*
X25231000Y-41762000D01*
X24507000Y-41762000D01*
X24163000Y-41762000D01*
X24143000Y-41762000D01*
X24143000Y-41418000D01*
X24163000Y-41418000D01*
X24163000Y-40919000D01*
X24507000Y-40919000D01*
X24507000Y-41418000D01*
X25231000Y-41418000D01*
X25338000Y-41311000D01*
X25338000Y-41154866D01*
X25272841Y-40997558D01*
X25152443Y-40877159D01*
X24995135Y-40812000D01*
X24614000Y-40812000D01*
X24507000Y-40919000D01*
X24163000Y-40919000D01*
X24056000Y-40812000D01*
X23828000Y-40812000D01*
X23828000Y-40196385D01*
X24910000Y-40196385D01*
X25068607Y-40166541D01*
X25214279Y-40072804D01*
X25312004Y-39929778D01*
X25346385Y-39760000D01*
X25346385Y-39060000D01*
X25316541Y-38901393D01*
X25233281Y-38772003D01*
X25272841Y-38732442D01*
X25338000Y-38575134D01*
X25338000Y-38419000D01*
X25231000Y-38312000D01*
X24507000Y-38312000D01*
X24507000Y-38332000D01*
X24163000Y-38332000D01*
X24163000Y-38312000D01*
X24143000Y-38312000D01*
X24143000Y-37968000D01*
X24163000Y-37968000D01*
X24163000Y-37032000D01*
X24507000Y-37032000D01*
X24507000Y-37968000D01*
X25231000Y-37968000D01*
X25338000Y-37861000D01*
X25338000Y-37704866D01*
X25272841Y-37547558D01*
X25225283Y-37500000D01*
X25272841Y-37452442D01*
X25338000Y-37295134D01*
X25338000Y-37139000D01*
X25231000Y-37032000D01*
X24507000Y-37032000D01*
X24163000Y-37032000D01*
X24143000Y-37032000D01*
X24143000Y-36688000D01*
X24163000Y-36688000D01*
X24163000Y-35762000D01*
X24507000Y-35762000D01*
X24507000Y-36688000D01*
X25231000Y-36688000D01*
X25338000Y-36581000D01*
X25338000Y-36424866D01*
X25272841Y-36267558D01*
X25230283Y-36225000D01*
X25272841Y-36182442D01*
X25338000Y-36025134D01*
X25338000Y-35869000D01*
X25231000Y-35762000D01*
X24507000Y-35762000D01*
X24163000Y-35762000D01*
X24143000Y-35762000D01*
X24143000Y-35418000D01*
X24163000Y-35418000D01*
X24163000Y-35398000D01*
X24507000Y-35398000D01*
X24507000Y-35418000D01*
X25231000Y-35418000D01*
X25338000Y-35311000D01*
X25338000Y-35154866D01*
X25272841Y-34997558D01*
X25153284Y-34878000D01*
X25872000Y-34878000D01*
X25872000Y-41750000D01*
G36*
X29372000Y-36053020D02*
X29372000Y-39946980D01*
X27696980Y-41622000D01*
X26128000Y-41622000D01*
X26128000Y-34878000D01*
X28196980Y-34878000D01*
X29372000Y-36053020D01*
X29372000Y-36053020D01*
G37*
X29372000Y-36053020D02*
X29372000Y-39946980D01*
X27696980Y-41622000D01*
X26128000Y-41622000D01*
X26128000Y-34878000D01*
X28196980Y-34878000D01*
X29372000Y-36053020D01*
G36*
X29372000Y-13653020D02*
X29372000Y-17446980D01*
X28309490Y-18509490D01*
X28281408Y-18551835D01*
X28272000Y-18600000D01*
X28272000Y-18746980D01*
X27746980Y-19272000D01*
X26128000Y-19272000D01*
X26128000Y-12228000D01*
X27946980Y-12228000D01*
X29372000Y-13653020D01*
X29372000Y-13653020D01*
G37*
X29372000Y-13653020D02*
X29372000Y-17446980D01*
X28309490Y-18509490D01*
X28281408Y-18551835D01*
X28272000Y-18600000D01*
X28272000Y-18746980D01*
X27746980Y-19272000D01*
X26128000Y-19272000D01*
X26128000Y-12228000D01*
X27946980Y-12228000D01*
X29372000Y-13653020D01*
G36*
X29497000Y-12365814D02*
X29093476Y-11961585D01*
X28774544Y-11829153D01*
X28756794Y-11801568D01*
X28616516Y-11705720D01*
X28450000Y-11672000D01*
X28396078Y-11672000D01*
X28385159Y-11667466D01*
X27618205Y-11666796D01*
X27605610Y-11672000D01*
X23450000Y-11672000D01*
X23292322Y-11702104D01*
X23149940Y-11794798D01*
X23054840Y-11935584D01*
X23023832Y-12093007D01*
X22884778Y-11997996D01*
X22715000Y-11963615D01*
X20028666Y-11963615D01*
X19952804Y-11845721D01*
X19809778Y-11747996D01*
X19640000Y-11713615D01*
X18090000Y-11713615D01*
X17931393Y-11743459D01*
X17904612Y-11760692D01*
X17862804Y-11695721D01*
X17719778Y-11597996D01*
X17550000Y-11563615D01*
X15950000Y-11563615D01*
X15791393Y-11593459D01*
X15645721Y-11687196D01*
X15625944Y-11716141D01*
X15612804Y-11695721D01*
X15469778Y-11597996D01*
X15300000Y-11563615D01*
X13700000Y-11563615D01*
X13541393Y-11593459D01*
X13395721Y-11687196D01*
X13349697Y-11754554D01*
X13139795Y-11544286D01*
X12725357Y-11372196D01*
X12276611Y-11371804D01*
X11861874Y-11543170D01*
X11832994Y-11572000D01*
X9000000Y-11572000D01*
X8644870Y-11642640D01*
X8343805Y-11843805D01*
X5843805Y-14343805D01*
X5642640Y-14644870D01*
X5572000Y-15000000D01*
X5572000Y-31615610D01*
X5495610Y-31692000D01*
X4898224Y-31692000D01*
X4843602Y-31610252D01*
X4454108Y-31350000D01*
X4843602Y-31089748D01*
X5153154Y-30626472D01*
X5261854Y-30080000D01*
X5153154Y-29533528D01*
X4843602Y-29070252D01*
X4454108Y-28810000D01*
X4843602Y-28549748D01*
X5153154Y-28086472D01*
X5261854Y-27540000D01*
X5153154Y-26993528D01*
X4843602Y-26530252D01*
X4703121Y-26436385D01*
X4800000Y-26436385D01*
X4958607Y-26406541D01*
X5104279Y-26312804D01*
X5202004Y-26169778D01*
X5236385Y-26000000D01*
X5236385Y-24000000D01*
X5206541Y-23841393D01*
X5112804Y-23695721D01*
X4969778Y-23597996D01*
X4800000Y-23563615D01*
X2200000Y-23563615D01*
X2041393Y-23593459D01*
X1895721Y-23687196D01*
X1797996Y-23830222D01*
X1763615Y-24000000D01*
X1763615Y-26000000D01*
X1793459Y-26158607D01*
X1887196Y-26304279D01*
X2030222Y-26402004D01*
X2200000Y-26436385D01*
X2296879Y-26436385D01*
X2156398Y-26530252D01*
X1846846Y-26993528D01*
X1738146Y-27540000D01*
X1846846Y-28086472D01*
X2156398Y-28549748D01*
X2545892Y-28810000D01*
X2156398Y-29070252D01*
X1846846Y-29533528D01*
X1738146Y-30080000D01*
X1846846Y-30626472D01*
X2156398Y-31089748D01*
X2545892Y-31350000D01*
X2156398Y-31610252D01*
X1846846Y-32073528D01*
X1738146Y-32620000D01*
X1846846Y-33166472D01*
X2156398Y-33629748D01*
X2572000Y-33907445D01*
X2572000Y-35082539D01*
X2544286Y-35110205D01*
X2372196Y-35524643D01*
X2371804Y-35973389D01*
X2543170Y-36388126D01*
X2860205Y-36705714D01*
X3274643Y-36877804D01*
X3723389Y-36878196D01*
X4138126Y-36706830D01*
X4455714Y-36389795D01*
X4627804Y-35975357D01*
X4628196Y-35526611D01*
X4456830Y-35111874D01*
X4428000Y-35082994D01*
X4428000Y-33907445D01*
X4843602Y-33629748D01*
X4898224Y-33548000D01*
X5880000Y-33548000D01*
X6235130Y-33477360D01*
X6536195Y-33276195D01*
X7156195Y-32656195D01*
X7357360Y-32355131D01*
X7428000Y-32000000D01*
X7428000Y-15384390D01*
X9384390Y-13428000D01*
X11832539Y-13428000D01*
X11860205Y-13455714D01*
X12268382Y-13625204D01*
X11861874Y-13793170D01*
X11544286Y-14110205D01*
X11372196Y-14524643D01*
X11371913Y-14848539D01*
X8235226Y-17985226D01*
X8077416Y-18221406D01*
X8022000Y-18500000D01*
X8022000Y-26000000D01*
X8077416Y-26278594D01*
X8185693Y-26440642D01*
X8235226Y-26514774D01*
X9330226Y-27609774D01*
X9566407Y-27767585D01*
X9845000Y-27823000D01*
X10247343Y-27823000D01*
X10197996Y-27895222D01*
X10163615Y-28065000D01*
X10163615Y-28665000D01*
X10193459Y-28823607D01*
X10287196Y-28969279D01*
X10331215Y-28999356D01*
X10295721Y-29022196D01*
X10197996Y-29165222D01*
X10163615Y-29335000D01*
X10163615Y-29935000D01*
X10193459Y-30093607D01*
X10247121Y-30177000D01*
X10095000Y-30177000D01*
X9816406Y-30232416D01*
X9609003Y-30370998D01*
X9580226Y-30390226D01*
X8235226Y-31735226D01*
X8077416Y-31971406D01*
X8022000Y-32250000D01*
X8022000Y-41750000D01*
X8077416Y-42028594D01*
X8195768Y-42205721D01*
X8235226Y-42264774D01*
X11372085Y-45401633D01*
X11371804Y-45723389D01*
X11543170Y-46138126D01*
X11860205Y-46455714D01*
X12274643Y-46627804D01*
X12723389Y-46628196D01*
X13138126Y-46456830D01*
X13349550Y-46245775D01*
X13387196Y-46304279D01*
X13530222Y-46402004D01*
X13700000Y-46436385D01*
X15300000Y-46436385D01*
X15458607Y-46406541D01*
X15604279Y-46312804D01*
X15624056Y-46283859D01*
X15637196Y-46304279D01*
X15780222Y-46402004D01*
X15950000Y-46436385D01*
X17550000Y-46436385D01*
X17708607Y-46406541D01*
X17854279Y-46312804D01*
X17903588Y-46240638D01*
X17920222Y-46252004D01*
X18090000Y-46286385D01*
X19640000Y-46286385D01*
X19798607Y-46256541D01*
X19944279Y-46162804D01*
X20030657Y-46036385D01*
X22715000Y-46036385D01*
X22873607Y-46006541D01*
X23019279Y-45912804D01*
X23057782Y-45856453D01*
X23188809Y-45944002D01*
X23396367Y-45985288D01*
X23447196Y-46064279D01*
X23590222Y-46162004D01*
X23760000Y-46196385D01*
X24910000Y-46196385D01*
X25068607Y-46166541D01*
X25214279Y-46072804D01*
X25312004Y-45929778D01*
X25346385Y-45760000D01*
X25346385Y-45060000D01*
X25321547Y-44928000D01*
X26026777Y-44928000D01*
X26152454Y-45232160D01*
X26764617Y-45845393D01*
X27564856Y-46177681D01*
X28431342Y-46178438D01*
X29232160Y-45847546D01*
X29497000Y-45583168D01*
X29497000Y-57497000D01*
X503000Y-57497000D01*
X503000Y-54740000D01*
X1534228Y-54740000D01*
X1627704Y-55209935D01*
X1893901Y-55608327D01*
X2292293Y-55874524D01*
X2762228Y-55968000D01*
X4237772Y-55968000D01*
X4707707Y-55874524D01*
X5106099Y-55608327D01*
X5372296Y-55209935D01*
X5465772Y-54740000D01*
X5372296Y-54270065D01*
X5106099Y-53871673D01*
X4707707Y-53605476D01*
X4237772Y-53512000D01*
X2762228Y-53512000D01*
X2292293Y-53605476D01*
X1893901Y-53871673D01*
X1627704Y-54270065D01*
X1534228Y-54740000D01*
X503000Y-54740000D01*
X503000Y-52200000D01*
X1534228Y-52200000D01*
X1627704Y-52669935D01*
X1893901Y-53068327D01*
X2292293Y-53334524D01*
X2762228Y-53428000D01*
X4237772Y-53428000D01*
X4707707Y-53334524D01*
X5106099Y-53068327D01*
X5366319Y-52678880D01*
X11571407Y-52678880D01*
X12092189Y-53939269D01*
X13055659Y-54904422D01*
X14315137Y-55427403D01*
X15678880Y-55428593D01*
X16939269Y-54907811D01*
X17904422Y-53944341D01*
X18427403Y-52684863D01*
X18428593Y-51321120D01*
X17907811Y-50060731D01*
X16944341Y-49095578D01*
X15684863Y-48572597D01*
X14321120Y-48571407D01*
X13060731Y-49092189D01*
X12095578Y-50055659D01*
X11572597Y-51315137D01*
X11571407Y-52678880D01*
X5366319Y-52678880D01*
X5372296Y-52669935D01*
X5465772Y-52200000D01*
X5372296Y-51730065D01*
X5106099Y-51331673D01*
X4707707Y-51065476D01*
X4237772Y-50972000D01*
X2762228Y-50972000D01*
X2292293Y-51065476D01*
X1893901Y-51331673D01*
X1627704Y-51730065D01*
X1534228Y-52200000D01*
X503000Y-52200000D01*
X503000Y-49660000D01*
X1534228Y-49660000D01*
X1627704Y-50129935D01*
X1893901Y-50528327D01*
X2292293Y-50794524D01*
X2762228Y-50888000D01*
X4237772Y-50888000D01*
X4707707Y-50794524D01*
X5106099Y-50528327D01*
X5372296Y-50129935D01*
X5465772Y-49660000D01*
X5372296Y-49190065D01*
X5106099Y-48791673D01*
X4707707Y-48525476D01*
X4237772Y-48432000D01*
X2762228Y-48432000D01*
X2292293Y-48525476D01*
X1893901Y-48791673D01*
X1627704Y-49190065D01*
X1534228Y-49660000D01*
X503000Y-49660000D01*
X503000Y-42040000D01*
X1534228Y-42040000D01*
X1627704Y-42509935D01*
X1893901Y-42908327D01*
X2292293Y-43174524D01*
X2762228Y-43268000D01*
X4237772Y-43268000D01*
X4707707Y-43174524D01*
X5106099Y-42908327D01*
X5372296Y-42509935D01*
X5465772Y-42040000D01*
X5372296Y-41570065D01*
X5106099Y-41171673D01*
X4707707Y-40905476D01*
X4237772Y-40812000D01*
X2762228Y-40812000D01*
X2292293Y-40905476D01*
X1893901Y-41171673D01*
X1627704Y-41570065D01*
X1534228Y-42040000D01*
X503000Y-42040000D01*
X503000Y-39500000D01*
X1534228Y-39500000D01*
X1627704Y-39969935D01*
X1893901Y-40368327D01*
X2292293Y-40634524D01*
X2762228Y-40728000D01*
X4237772Y-40728000D01*
X4707707Y-40634524D01*
X5106099Y-40368327D01*
X5372296Y-39969935D01*
X5465772Y-39500000D01*
X5372296Y-39030065D01*
X5106099Y-38631673D01*
X4707707Y-38365476D01*
X4237772Y-38272000D01*
X2762228Y-38272000D01*
X2292293Y-38365476D01*
X1893901Y-38631673D01*
X1627704Y-39030065D01*
X1534228Y-39500000D01*
X503000Y-39500000D01*
X503000Y-18740000D01*
X1534228Y-18740000D01*
X1627704Y-19209935D01*
X1893901Y-19608327D01*
X2292293Y-19874524D01*
X2762228Y-19968000D01*
X4237772Y-19968000D01*
X4707707Y-19874524D01*
X5106099Y-19608327D01*
X5372296Y-19209935D01*
X5465772Y-18740000D01*
X5372296Y-18270065D01*
X5106099Y-17871673D01*
X4707707Y-17605476D01*
X4237772Y-17512000D01*
X2762228Y-17512000D01*
X2292293Y-17605476D01*
X1893901Y-17871673D01*
X1627704Y-18270065D01*
X1534228Y-18740000D01*
X503000Y-18740000D01*
X503000Y-16200000D01*
X1534228Y-16200000D01*
X1627704Y-16669935D01*
X1893901Y-17068327D01*
X2292293Y-17334524D01*
X2762228Y-17428000D01*
X4237772Y-17428000D01*
X4707707Y-17334524D01*
X5106099Y-17068327D01*
X5372296Y-16669935D01*
X5465772Y-16200000D01*
X5372296Y-15730065D01*
X5106099Y-15331673D01*
X4707707Y-15065476D01*
X4237772Y-14972000D01*
X2762228Y-14972000D01*
X2292293Y-15065476D01*
X1893901Y-15331673D01*
X1627704Y-15730065D01*
X1534228Y-16200000D01*
X503000Y-16200000D01*
X503000Y-13660000D01*
X1534228Y-13660000D01*
X1627704Y-14129935D01*
X1893901Y-14528327D01*
X2292293Y-14794524D01*
X2762228Y-14888000D01*
X4237772Y-14888000D01*
X4707707Y-14794524D01*
X5106099Y-14528327D01*
X5372296Y-14129935D01*
X5465772Y-13660000D01*
X5372296Y-13190065D01*
X5106099Y-12791673D01*
X4707707Y-12525476D01*
X4237772Y-12432000D01*
X2762228Y-12432000D01*
X2292293Y-12525476D01*
X1893901Y-12791673D01*
X1627704Y-13190065D01*
X1534228Y-13660000D01*
X503000Y-13660000D01*
X503000Y-6040000D01*
X1534228Y-6040000D01*
X1627704Y-6509935D01*
X1893901Y-6908327D01*
X2292293Y-7174524D01*
X2762228Y-7268000D01*
X4237772Y-7268000D01*
X4707707Y-7174524D01*
X5106099Y-6908327D01*
X5259410Y-6678880D01*
X11571407Y-6678880D01*
X12092189Y-7939269D01*
X13055659Y-8904422D01*
X14315137Y-9427403D01*
X15678880Y-9428593D01*
X16939269Y-8907811D01*
X17904422Y-7944341D01*
X18427403Y-6684863D01*
X18428593Y-5321120D01*
X17907811Y-4060731D01*
X16944341Y-3095578D01*
X15684863Y-2572597D01*
X14321120Y-2571407D01*
X13060731Y-3092189D01*
X12095578Y-4055659D01*
X11572597Y-5315137D01*
X11571407Y-6678880D01*
X5259410Y-6678880D01*
X5372296Y-6509935D01*
X5465772Y-6040000D01*
X5372296Y-5570065D01*
X5106099Y-5171673D01*
X4707707Y-4905476D01*
X4237772Y-4812000D01*
X2762228Y-4812000D01*
X2292293Y-4905476D01*
X1893901Y-5171673D01*
X1627704Y-5570065D01*
X1534228Y-6040000D01*
X503000Y-6040000D01*
X503000Y-3500000D01*
X1534228Y-3500000D01*
X1627704Y-3969935D01*
X1893901Y-4368327D01*
X2292293Y-4634524D01*
X2762228Y-4728000D01*
X4237772Y-4728000D01*
X4707707Y-4634524D01*
X5106099Y-4368327D01*
X5372296Y-3969935D01*
X5465772Y-3500000D01*
X5372296Y-3030065D01*
X5106099Y-2631673D01*
X4707707Y-2365476D01*
X4237772Y-2272000D01*
X2762228Y-2272000D01*
X2292293Y-2365476D01*
X1893901Y-2631673D01*
X1627704Y-3030065D01*
X1534228Y-3500000D01*
X503000Y-3500000D01*
X503000Y-503000D01*
X29497000Y-503000D01*
X29497000Y-12365814D01*
X29497000Y-12365814D01*
G37*
X29497000Y-12365814D02*
X29093476Y-11961585D01*
X28774544Y-11829153D01*
X28756794Y-11801568D01*
X28616516Y-11705720D01*
X28450000Y-11672000D01*
X28396078Y-11672000D01*
X28385159Y-11667466D01*
X27618205Y-11666796D01*
X27605610Y-11672000D01*
X23450000Y-11672000D01*
X23292322Y-11702104D01*
X23149940Y-11794798D01*
X23054840Y-11935584D01*
X23023832Y-12093007D01*
X22884778Y-11997996D01*
X22715000Y-11963615D01*
X20028666Y-11963615D01*
X19952804Y-11845721D01*
X19809778Y-11747996D01*
X19640000Y-11713615D01*
X18090000Y-11713615D01*
X17931393Y-11743459D01*
X17904612Y-11760692D01*
X17862804Y-11695721D01*
X17719778Y-11597996D01*
X17550000Y-11563615D01*
X15950000Y-11563615D01*
X15791393Y-11593459D01*
X15645721Y-11687196D01*
X15625944Y-11716141D01*
X15612804Y-11695721D01*
X15469778Y-11597996D01*
X15300000Y-11563615D01*
X13700000Y-11563615D01*
X13541393Y-11593459D01*
X13395721Y-11687196D01*
X13349697Y-11754554D01*
X13139795Y-11544286D01*
X12725357Y-11372196D01*
X12276611Y-11371804D01*
X11861874Y-11543170D01*
X11832994Y-11572000D01*
X9000000Y-11572000D01*
X8644870Y-11642640D01*
X8343805Y-11843805D01*
X5843805Y-14343805D01*
X5642640Y-14644870D01*
X5572000Y-15000000D01*
X5572000Y-31615610D01*
X5495610Y-31692000D01*
X4898224Y-31692000D01*
X4843602Y-31610252D01*
X4454108Y-31350000D01*
X4843602Y-31089748D01*
X5153154Y-30626472D01*
X5261854Y-30080000D01*
X5153154Y-29533528D01*
X4843602Y-29070252D01*
X4454108Y-28810000D01*
X4843602Y-28549748D01*
X5153154Y-28086472D01*
X5261854Y-27540000D01*
X5153154Y-26993528D01*
X4843602Y-26530252D01*
X4703121Y-26436385D01*
X4800000Y-26436385D01*
X4958607Y-26406541D01*
X5104279Y-26312804D01*
X5202004Y-26169778D01*
X5236385Y-26000000D01*
X5236385Y-24000000D01*
X5206541Y-23841393D01*
X5112804Y-23695721D01*
X4969778Y-23597996D01*
X4800000Y-23563615D01*
X2200000Y-23563615D01*
X2041393Y-23593459D01*
X1895721Y-23687196D01*
X1797996Y-23830222D01*
X1763615Y-24000000D01*
X1763615Y-26000000D01*
X1793459Y-26158607D01*
X1887196Y-26304279D01*
X2030222Y-26402004D01*
X2200000Y-26436385D01*
X2296879Y-26436385D01*
X2156398Y-26530252D01*
X1846846Y-26993528D01*
X1738146Y-27540000D01*
X1846846Y-28086472D01*
X2156398Y-28549748D01*
X2545892Y-28810000D01*
X2156398Y-29070252D01*
X1846846Y-29533528D01*
X1738146Y-30080000D01*
X1846846Y-30626472D01*
X2156398Y-31089748D01*
X2545892Y-31350000D01*
X2156398Y-31610252D01*
X1846846Y-32073528D01*
X1738146Y-32620000D01*
X1846846Y-33166472D01*
X2156398Y-33629748D01*
X2572000Y-33907445D01*
X2572000Y-35082539D01*
X2544286Y-35110205D01*
X2372196Y-35524643D01*
X2371804Y-35973389D01*
X2543170Y-36388126D01*
X2860205Y-36705714D01*
X3274643Y-36877804D01*
X3723389Y-36878196D01*
X4138126Y-36706830D01*
X4455714Y-36389795D01*
X4627804Y-35975357D01*
X4628196Y-35526611D01*
X4456830Y-35111874D01*
X4428000Y-35082994D01*
X4428000Y-33907445D01*
X4843602Y-33629748D01*
X4898224Y-33548000D01*
X5880000Y-33548000D01*
X6235130Y-33477360D01*
X6536195Y-33276195D01*
X7156195Y-32656195D01*
X7357360Y-32355131D01*
X7428000Y-32000000D01*
X7428000Y-15384390D01*
X9384390Y-13428000D01*
X11832539Y-13428000D01*
X11860205Y-13455714D01*
X12268382Y-13625204D01*
X11861874Y-13793170D01*
X11544286Y-14110205D01*
X11372196Y-14524643D01*
X11371913Y-14848539D01*
X8235226Y-17985226D01*
X8077416Y-18221406D01*
X8022000Y-18500000D01*
X8022000Y-26000000D01*
X8077416Y-26278594D01*
X8185693Y-26440642D01*
X8235226Y-26514774D01*
X9330226Y-27609774D01*
X9566407Y-27767585D01*
X9845000Y-27823000D01*
X10247343Y-27823000D01*
X10197996Y-27895222D01*
X10163615Y-28065000D01*
X10163615Y-28665000D01*
X10193459Y-28823607D01*
X10287196Y-28969279D01*
X10331215Y-28999356D01*
X10295721Y-29022196D01*
X10197996Y-29165222D01*
X10163615Y-29335000D01*
X10163615Y-29935000D01*
X10193459Y-30093607D01*
X10247121Y-30177000D01*
X10095000Y-30177000D01*
X9816406Y-30232416D01*
X9609003Y-30370998D01*
X9580226Y-30390226D01*
X8235226Y-31735226D01*
X8077416Y-31971406D01*
X8022000Y-32250000D01*
X8022000Y-41750000D01*
X8077416Y-42028594D01*
X8195768Y-42205721D01*
X8235226Y-42264774D01*
X11372085Y-45401633D01*
X11371804Y-45723389D01*
X11543170Y-46138126D01*
X11860205Y-46455714D01*
X12274643Y-46627804D01*
X12723389Y-46628196D01*
X13138126Y-46456830D01*
X13349550Y-46245775D01*
X13387196Y-46304279D01*
X13530222Y-46402004D01*
X13700000Y-46436385D01*
X15300000Y-46436385D01*
X15458607Y-46406541D01*
X15604279Y-46312804D01*
X15624056Y-46283859D01*
X15637196Y-46304279D01*
X15780222Y-46402004D01*
X15950000Y-46436385D01*
X17550000Y-46436385D01*
X17708607Y-46406541D01*
X17854279Y-46312804D01*
X17903588Y-46240638D01*
X17920222Y-46252004D01*
X18090000Y-46286385D01*
X19640000Y-46286385D01*
X19798607Y-46256541D01*
X19944279Y-46162804D01*
X20030657Y-46036385D01*
X22715000Y-46036385D01*
X22873607Y-46006541D01*
X23019279Y-45912804D01*
X23057782Y-45856453D01*
X23188809Y-45944002D01*
X23396367Y-45985288D01*
X23447196Y-46064279D01*
X23590222Y-46162004D01*
X23760000Y-46196385D01*
X24910000Y-46196385D01*
X25068607Y-46166541D01*
X25214279Y-46072804D01*
X25312004Y-45929778D01*
X25346385Y-45760000D01*
X25346385Y-45060000D01*
X25321547Y-44928000D01*
X26026777Y-44928000D01*
X26152454Y-45232160D01*
X26764617Y-45845393D01*
X27564856Y-46177681D01*
X28431342Y-46178438D01*
X29232160Y-45847546D01*
X29497000Y-45583168D01*
X29497000Y-57497000D01*
X503000Y-57497000D01*
X503000Y-54740000D01*
X1534228Y-54740000D01*
X1627704Y-55209935D01*
X1893901Y-55608327D01*
X2292293Y-55874524D01*
X2762228Y-55968000D01*
X4237772Y-55968000D01*
X4707707Y-55874524D01*
X5106099Y-55608327D01*
X5372296Y-55209935D01*
X5465772Y-54740000D01*
X5372296Y-54270065D01*
X5106099Y-53871673D01*
X4707707Y-53605476D01*
X4237772Y-53512000D01*
X2762228Y-53512000D01*
X2292293Y-53605476D01*
X1893901Y-53871673D01*
X1627704Y-54270065D01*
X1534228Y-54740000D01*
X503000Y-54740000D01*
X503000Y-52200000D01*
X1534228Y-52200000D01*
X1627704Y-52669935D01*
X1893901Y-53068327D01*
X2292293Y-53334524D01*
X2762228Y-53428000D01*
X4237772Y-53428000D01*
X4707707Y-53334524D01*
X5106099Y-53068327D01*
X5366319Y-52678880D01*
X11571407Y-52678880D01*
X12092189Y-53939269D01*
X13055659Y-54904422D01*
X14315137Y-55427403D01*
X15678880Y-55428593D01*
X16939269Y-54907811D01*
X17904422Y-53944341D01*
X18427403Y-52684863D01*
X18428593Y-51321120D01*
X17907811Y-50060731D01*
X16944341Y-49095578D01*
X15684863Y-48572597D01*
X14321120Y-48571407D01*
X13060731Y-49092189D01*
X12095578Y-50055659D01*
X11572597Y-51315137D01*
X11571407Y-52678880D01*
X5366319Y-52678880D01*
X5372296Y-52669935D01*
X5465772Y-52200000D01*
X5372296Y-51730065D01*
X5106099Y-51331673D01*
X4707707Y-51065476D01*
X4237772Y-50972000D01*
X2762228Y-50972000D01*
X2292293Y-51065476D01*
X1893901Y-51331673D01*
X1627704Y-51730065D01*
X1534228Y-52200000D01*
X503000Y-52200000D01*
X503000Y-49660000D01*
X1534228Y-49660000D01*
X1627704Y-50129935D01*
X1893901Y-50528327D01*
X2292293Y-50794524D01*
X2762228Y-50888000D01*
X4237772Y-50888000D01*
X4707707Y-50794524D01*
X5106099Y-50528327D01*
X5372296Y-50129935D01*
X5465772Y-49660000D01*
X5372296Y-49190065D01*
X5106099Y-48791673D01*
X4707707Y-48525476D01*
X4237772Y-48432000D01*
X2762228Y-48432000D01*
X2292293Y-48525476D01*
X1893901Y-48791673D01*
X1627704Y-49190065D01*
X1534228Y-49660000D01*
X503000Y-49660000D01*
X503000Y-42040000D01*
X1534228Y-42040000D01*
X1627704Y-42509935D01*
X1893901Y-42908327D01*
X2292293Y-43174524D01*
X2762228Y-43268000D01*
X4237772Y-43268000D01*
X4707707Y-43174524D01*
X5106099Y-42908327D01*
X5372296Y-42509935D01*
X5465772Y-42040000D01*
X5372296Y-41570065D01*
X5106099Y-41171673D01*
X4707707Y-40905476D01*
X4237772Y-40812000D01*
X2762228Y-40812000D01*
X2292293Y-40905476D01*
X1893901Y-41171673D01*
X1627704Y-41570065D01*
X1534228Y-42040000D01*
X503000Y-42040000D01*
X503000Y-39500000D01*
X1534228Y-39500000D01*
X1627704Y-39969935D01*
X1893901Y-40368327D01*
X2292293Y-40634524D01*
X2762228Y-40728000D01*
X4237772Y-40728000D01*
X4707707Y-40634524D01*
X5106099Y-40368327D01*
X5372296Y-39969935D01*
X5465772Y-39500000D01*
X5372296Y-39030065D01*
X5106099Y-38631673D01*
X4707707Y-38365476D01*
X4237772Y-38272000D01*
X2762228Y-38272000D01*
X2292293Y-38365476D01*
X1893901Y-38631673D01*
X1627704Y-39030065D01*
X1534228Y-39500000D01*
X503000Y-39500000D01*
X503000Y-18740000D01*
X1534228Y-18740000D01*
X1627704Y-19209935D01*
X1893901Y-19608327D01*
X2292293Y-19874524D01*
X2762228Y-19968000D01*
X4237772Y-19968000D01*
X4707707Y-19874524D01*
X5106099Y-19608327D01*
X5372296Y-19209935D01*
X5465772Y-18740000D01*
X5372296Y-18270065D01*
X5106099Y-17871673D01*
X4707707Y-17605476D01*
X4237772Y-17512000D01*
X2762228Y-17512000D01*
X2292293Y-17605476D01*
X1893901Y-17871673D01*
X1627704Y-18270065D01*
X1534228Y-18740000D01*
X503000Y-18740000D01*
X503000Y-16200000D01*
X1534228Y-16200000D01*
X1627704Y-16669935D01*
X1893901Y-17068327D01*
X2292293Y-17334524D01*
X2762228Y-17428000D01*
X4237772Y-17428000D01*
X4707707Y-17334524D01*
X5106099Y-17068327D01*
X5372296Y-16669935D01*
X5465772Y-16200000D01*
X5372296Y-15730065D01*
X5106099Y-15331673D01*
X4707707Y-15065476D01*
X4237772Y-14972000D01*
X2762228Y-14972000D01*
X2292293Y-15065476D01*
X1893901Y-15331673D01*
X1627704Y-15730065D01*
X1534228Y-16200000D01*
X503000Y-16200000D01*
X503000Y-13660000D01*
X1534228Y-13660000D01*
X1627704Y-14129935D01*
X1893901Y-14528327D01*
X2292293Y-14794524D01*
X2762228Y-14888000D01*
X4237772Y-14888000D01*
X4707707Y-14794524D01*
X5106099Y-14528327D01*
X5372296Y-14129935D01*
X5465772Y-13660000D01*
X5372296Y-13190065D01*
X5106099Y-12791673D01*
X4707707Y-12525476D01*
X4237772Y-12432000D01*
X2762228Y-12432000D01*
X2292293Y-12525476D01*
X1893901Y-12791673D01*
X1627704Y-13190065D01*
X1534228Y-13660000D01*
X503000Y-13660000D01*
X503000Y-6040000D01*
X1534228Y-6040000D01*
X1627704Y-6509935D01*
X1893901Y-6908327D01*
X2292293Y-7174524D01*
X2762228Y-7268000D01*
X4237772Y-7268000D01*
X4707707Y-7174524D01*
X5106099Y-6908327D01*
X5259410Y-6678880D01*
X11571407Y-6678880D01*
X12092189Y-7939269D01*
X13055659Y-8904422D01*
X14315137Y-9427403D01*
X15678880Y-9428593D01*
X16939269Y-8907811D01*
X17904422Y-7944341D01*
X18427403Y-6684863D01*
X18428593Y-5321120D01*
X17907811Y-4060731D01*
X16944341Y-3095578D01*
X15684863Y-2572597D01*
X14321120Y-2571407D01*
X13060731Y-3092189D01*
X12095578Y-4055659D01*
X11572597Y-5315137D01*
X11571407Y-6678880D01*
X5259410Y-6678880D01*
X5372296Y-6509935D01*
X5465772Y-6040000D01*
X5372296Y-5570065D01*
X5106099Y-5171673D01*
X4707707Y-4905476D01*
X4237772Y-4812000D01*
X2762228Y-4812000D01*
X2292293Y-4905476D01*
X1893901Y-5171673D01*
X1627704Y-5570065D01*
X1534228Y-6040000D01*
X503000Y-6040000D01*
X503000Y-3500000D01*
X1534228Y-3500000D01*
X1627704Y-3969935D01*
X1893901Y-4368327D01*
X2292293Y-4634524D01*
X2762228Y-4728000D01*
X4237772Y-4728000D01*
X4707707Y-4634524D01*
X5106099Y-4368327D01*
X5372296Y-3969935D01*
X5465772Y-3500000D01*
X5372296Y-3030065D01*
X5106099Y-2631673D01*
X4707707Y-2365476D01*
X4237772Y-2272000D01*
X2762228Y-2272000D01*
X2292293Y-2365476D01*
X1893901Y-2631673D01*
X1627704Y-3030065D01*
X1534228Y-3500000D01*
X503000Y-3500000D01*
X503000Y-503000D01*
X29497000Y-503000D01*
X29497000Y-12365814D01*
G36*
X10235224Y-41014771D02*
X10235226Y-41014774D01*
X10349745Y-41091293D01*
X10471407Y-41172585D01*
X10750000Y-41228001D01*
X10750005Y-41228000D01*
X13163615Y-41228000D01*
X13163615Y-41350000D01*
X13193459Y-41508607D01*
X13287196Y-41654279D01*
X13376514Y-41715307D01*
X13349697Y-41754554D01*
X13139795Y-41544286D01*
X12725357Y-41372196D01*
X12276611Y-41371804D01*
X11861874Y-41543170D01*
X11544286Y-41860205D01*
X11372196Y-42274643D01*
X11371804Y-42723389D01*
X11543170Y-43138126D01*
X11860205Y-43455714D01*
X12274643Y-43627804D01*
X12723389Y-43628196D01*
X13138126Y-43456830D01*
X13349550Y-43245775D01*
X13387196Y-43304279D01*
X13530222Y-43402004D01*
X13700000Y-43436385D01*
X15300000Y-43436385D01*
X15458607Y-43406541D01*
X15604279Y-43312804D01*
X15624056Y-43283859D01*
X15637196Y-43304279D01*
X15780222Y-43402004D01*
X15950000Y-43436385D01*
X17550000Y-43436385D01*
X17653615Y-43416888D01*
X17653615Y-44584598D01*
X17550000Y-44563615D01*
X15950000Y-44563615D01*
X15791393Y-44593459D01*
X15645721Y-44687196D01*
X15625944Y-44716141D01*
X15612804Y-44695721D01*
X15469778Y-44597996D01*
X15300000Y-44563615D01*
X13700000Y-44563615D01*
X13541393Y-44593459D01*
X13395721Y-44687196D01*
X13349697Y-44754554D01*
X13139795Y-44544286D01*
X12725357Y-44372196D01*
X12401461Y-44371913D01*
X9478000Y-41448452D01*
X9478000Y-40257548D01*
X10235224Y-41014771D01*
X10235224Y-41014771D01*
G37*
X10235224Y-41014771D02*
X10235226Y-41014774D01*
X10349745Y-41091293D01*
X10471407Y-41172585D01*
X10750000Y-41228001D01*
X10750005Y-41228000D01*
X13163615Y-41228000D01*
X13163615Y-41350000D01*
X13193459Y-41508607D01*
X13287196Y-41654279D01*
X13376514Y-41715307D01*
X13349697Y-41754554D01*
X13139795Y-41544286D01*
X12725357Y-41372196D01*
X12276611Y-41371804D01*
X11861874Y-41543170D01*
X11544286Y-41860205D01*
X11372196Y-42274643D01*
X11371804Y-42723389D01*
X11543170Y-43138126D01*
X11860205Y-43455714D01*
X12274643Y-43627804D01*
X12723389Y-43628196D01*
X13138126Y-43456830D01*
X13349550Y-43245775D01*
X13387196Y-43304279D01*
X13530222Y-43402004D01*
X13700000Y-43436385D01*
X15300000Y-43436385D01*
X15458607Y-43406541D01*
X15604279Y-43312804D01*
X15624056Y-43283859D01*
X15637196Y-43304279D01*
X15780222Y-43402004D01*
X15950000Y-43436385D01*
X17550000Y-43436385D01*
X17653615Y-43416888D01*
X17653615Y-44584598D01*
X17550000Y-44563615D01*
X15950000Y-44563615D01*
X15791393Y-44593459D01*
X15645721Y-44687196D01*
X15625944Y-44716141D01*
X15612804Y-44695721D01*
X15469778Y-44597996D01*
X15300000Y-44563615D01*
X13700000Y-44563615D01*
X13541393Y-44593459D01*
X13395721Y-44687196D01*
X13349697Y-44754554D01*
X13139795Y-44544286D01*
X12725357Y-44372196D01*
X12401461Y-44371913D01*
X9478000Y-41448452D01*
X9478000Y-40257548D01*
X10235224Y-41014771D01*
G36*
X29497000Y-42416681D02*
X29235383Y-42154607D01*
X28928000Y-42026971D01*
X28928000Y-41607516D01*
X29090624Y-41540321D01*
X29497000Y-41134653D01*
X29497000Y-42416681D01*
X29497000Y-42416681D01*
G37*
X29497000Y-42416681D02*
X29235383Y-42154607D01*
X28928000Y-42026971D01*
X28928000Y-41607516D01*
X29090624Y-41540321D01*
X29497000Y-41134653D01*
X29497000Y-42416681D01*
G36*
X10600000Y-34181385D02*
X10638189Y-34181385D01*
X10677416Y-34378594D01*
X10748665Y-34485226D01*
X10835226Y-34614774D01*
X11408255Y-35187803D01*
X11372196Y-35274643D01*
X11371804Y-35723389D01*
X11543170Y-36138126D01*
X11860205Y-36455714D01*
X12274643Y-36627804D01*
X12723389Y-36628196D01*
X13138126Y-36456830D01*
X13349550Y-36245775D01*
X13387196Y-36304279D01*
X13530222Y-36402004D01*
X13700000Y-36436385D01*
X15300000Y-36436385D01*
X15458607Y-36406541D01*
X15604279Y-36312804D01*
X15624056Y-36283859D01*
X15637196Y-36304279D01*
X15780222Y-36402004D01*
X15950000Y-36436385D01*
X17550000Y-36436385D01*
X17653615Y-36416888D01*
X17653615Y-37584598D01*
X17550000Y-37563615D01*
X15950000Y-37563615D01*
X15791393Y-37593459D01*
X15645721Y-37687196D01*
X15625944Y-37716141D01*
X15612804Y-37695721D01*
X15469778Y-37597996D01*
X15300000Y-37563615D01*
X13700000Y-37563615D01*
X13541393Y-37593459D01*
X13395721Y-37687196D01*
X13297996Y-37830222D01*
X13263615Y-38000000D01*
X13263615Y-39000000D01*
X13293459Y-39158607D01*
X13375389Y-39285931D01*
X13295721Y-39337196D01*
X13197996Y-39480222D01*
X13163615Y-39650000D01*
X13163615Y-39772000D01*
X11051547Y-39772000D01*
X10478000Y-39198452D01*
X10478000Y-34156679D01*
X10600000Y-34181385D01*
X10600000Y-34181385D01*
G37*
X10600000Y-34181385D02*
X10638189Y-34181385D01*
X10677416Y-34378594D01*
X10748665Y-34485226D01*
X10835226Y-34614774D01*
X11408255Y-35187803D01*
X11372196Y-35274643D01*
X11371804Y-35723389D01*
X11543170Y-36138126D01*
X11860205Y-36455714D01*
X12274643Y-36627804D01*
X12723389Y-36628196D01*
X13138126Y-36456830D01*
X13349550Y-36245775D01*
X13387196Y-36304279D01*
X13530222Y-36402004D01*
X13700000Y-36436385D01*
X15300000Y-36436385D01*
X15458607Y-36406541D01*
X15604279Y-36312804D01*
X15624056Y-36283859D01*
X15637196Y-36304279D01*
X15780222Y-36402004D01*
X15950000Y-36436385D01*
X17550000Y-36436385D01*
X17653615Y-36416888D01*
X17653615Y-37584598D01*
X17550000Y-37563615D01*
X15950000Y-37563615D01*
X15791393Y-37593459D01*
X15645721Y-37687196D01*
X15625944Y-37716141D01*
X15612804Y-37695721D01*
X15469778Y-37597996D01*
X15300000Y-37563615D01*
X13700000Y-37563615D01*
X13541393Y-37593459D01*
X13395721Y-37687196D01*
X13297996Y-37830222D01*
X13263615Y-38000000D01*
X13263615Y-39000000D01*
X13293459Y-39158607D01*
X13375389Y-39285931D01*
X13295721Y-39337196D01*
X13197996Y-39480222D01*
X13163615Y-39650000D01*
X13163615Y-39772000D01*
X11051547Y-39772000D01*
X10478000Y-39198452D01*
X10478000Y-34156679D01*
X10600000Y-34181385D01*
G36*
X23188809Y-22944002D02*
X23396367Y-22985288D01*
X23447196Y-23064279D01*
X23590222Y-23162004D01*
X23760000Y-23196385D01*
X24596111Y-23196385D01*
X24361874Y-23293170D01*
X24044286Y-23610205D01*
X23954265Y-23827000D01*
X21441406Y-23827000D01*
X21400000Y-23818615D01*
X19900000Y-23818615D01*
X19741393Y-23848459D01*
X19595721Y-23942196D01*
X19497996Y-24085222D01*
X19463615Y-24255000D01*
X19463615Y-24855000D01*
X19493459Y-25013607D01*
X19587196Y-25159279D01*
X19631215Y-25189356D01*
X19595721Y-25212196D01*
X19497996Y-25355222D01*
X19463615Y-25525000D01*
X19463615Y-26125000D01*
X19493459Y-26283607D01*
X19587196Y-26429279D01*
X19601504Y-26439055D01*
X19430973Y-26553000D01*
X19390226Y-26580226D01*
X18735226Y-27235226D01*
X18577416Y-27471406D01*
X18522000Y-27750000D01*
X18522000Y-33000000D01*
X18577416Y-33278594D01*
X18711051Y-33478593D01*
X18735226Y-33514774D01*
X19180226Y-33959774D01*
X19416406Y-34117584D01*
X19695000Y-34173000D01*
X19858594Y-34173000D01*
X19900000Y-34181385D01*
X21113969Y-34181385D01*
X21591292Y-34658708D01*
X21778809Y-34784002D01*
X22000000Y-34828000D01*
X23072000Y-34828000D01*
X23072000Y-35164404D01*
X23027804Y-35095721D01*
X22884778Y-34997996D01*
X22715000Y-34963615D01*
X20028666Y-34963615D01*
X19952804Y-34845721D01*
X19809778Y-34747996D01*
X19640000Y-34713615D01*
X18090000Y-34713615D01*
X17931393Y-34743459D01*
X17904612Y-34760692D01*
X17862804Y-34695721D01*
X17719778Y-34597996D01*
X17550000Y-34563615D01*
X15950000Y-34563615D01*
X15791393Y-34593459D01*
X15645721Y-34687196D01*
X15625944Y-34716141D01*
X15612804Y-34695721D01*
X15469778Y-34597996D01*
X15300000Y-34563615D01*
X13700000Y-34563615D01*
X13541393Y-34593459D01*
X13395721Y-34687196D01*
X13349697Y-34754554D01*
X13139795Y-34544286D01*
X12725357Y-34372196D01*
X12651680Y-34372132D01*
X12363556Y-34084008D01*
X12404279Y-34057804D01*
X12502004Y-33914778D01*
X12536385Y-33745000D01*
X12536385Y-33145000D01*
X12506541Y-32986393D01*
X12412804Y-32840721D01*
X12368785Y-32810644D01*
X12404279Y-32787804D01*
X12502004Y-32644778D01*
X12536385Y-32475000D01*
X12536385Y-31875000D01*
X12506541Y-31716393D01*
X12412804Y-31570721D01*
X12368785Y-31540644D01*
X12404279Y-31517804D01*
X12502004Y-31374778D01*
X12536385Y-31205000D01*
X12536385Y-30605000D01*
X12506541Y-30446393D01*
X12412804Y-30300721D01*
X12368785Y-30270644D01*
X12404279Y-30247804D01*
X12502004Y-30104778D01*
X12536385Y-29935000D01*
X12536385Y-29335000D01*
X12506541Y-29176393D01*
X12412804Y-29030721D01*
X12368785Y-29000644D01*
X12404279Y-28977804D01*
X12502004Y-28834778D01*
X12536385Y-28665000D01*
X12536385Y-28065000D01*
X12506541Y-27906393D01*
X12412804Y-27760721D01*
X12368785Y-27730644D01*
X12404279Y-27707804D01*
X12502004Y-27564778D01*
X12536385Y-27395000D01*
X12536385Y-26795000D01*
X12506541Y-26636393D01*
X12412804Y-26490721D01*
X12368785Y-26460644D01*
X12404279Y-26437804D01*
X12502004Y-26294778D01*
X12536385Y-26125000D01*
X12536385Y-25525000D01*
X12506541Y-25366393D01*
X12412804Y-25220721D01*
X12368785Y-25190644D01*
X12404279Y-25167804D01*
X12502004Y-25024778D01*
X12536385Y-24855000D01*
X12536385Y-24255000D01*
X12506541Y-24096393D01*
X12412804Y-23950721D01*
X12269778Y-23852996D01*
X12192251Y-23837296D01*
X12401633Y-23627915D01*
X12723389Y-23628196D01*
X13138126Y-23456830D01*
X13349550Y-23245775D01*
X13387196Y-23304279D01*
X13530222Y-23402004D01*
X13700000Y-23436385D01*
X15300000Y-23436385D01*
X15458607Y-23406541D01*
X15604279Y-23312804D01*
X15624056Y-23283859D01*
X15637196Y-23304279D01*
X15780222Y-23402004D01*
X15950000Y-23436385D01*
X17550000Y-23436385D01*
X17708607Y-23406541D01*
X17854279Y-23312804D01*
X17903588Y-23240638D01*
X17920222Y-23252004D01*
X18090000Y-23286385D01*
X19640000Y-23286385D01*
X19798607Y-23256541D01*
X19944279Y-23162804D01*
X20030657Y-23036385D01*
X22715000Y-23036385D01*
X22873607Y-23006541D01*
X23019279Y-22912804D01*
X23057782Y-22856453D01*
X23188809Y-22944002D01*
X23188809Y-22944002D01*
G37*
X23188809Y-22944002D02*
X23396367Y-22985288D01*
X23447196Y-23064279D01*
X23590222Y-23162004D01*
X23760000Y-23196385D01*
X24596111Y-23196385D01*
X24361874Y-23293170D01*
X24044286Y-23610205D01*
X23954265Y-23827000D01*
X21441406Y-23827000D01*
X21400000Y-23818615D01*
X19900000Y-23818615D01*
X19741393Y-23848459D01*
X19595721Y-23942196D01*
X19497996Y-24085222D01*
X19463615Y-24255000D01*
X19463615Y-24855000D01*
X19493459Y-25013607D01*
X19587196Y-25159279D01*
X19631215Y-25189356D01*
X19595721Y-25212196D01*
X19497996Y-25355222D01*
X19463615Y-25525000D01*
X19463615Y-26125000D01*
X19493459Y-26283607D01*
X19587196Y-26429279D01*
X19601504Y-26439055D01*
X19430973Y-26553000D01*
X19390226Y-26580226D01*
X18735226Y-27235226D01*
X18577416Y-27471406D01*
X18522000Y-27750000D01*
X18522000Y-33000000D01*
X18577416Y-33278594D01*
X18711051Y-33478593D01*
X18735226Y-33514774D01*
X19180226Y-33959774D01*
X19416406Y-34117584D01*
X19695000Y-34173000D01*
X19858594Y-34173000D01*
X19900000Y-34181385D01*
X21113969Y-34181385D01*
X21591292Y-34658708D01*
X21778809Y-34784002D01*
X22000000Y-34828000D01*
X23072000Y-34828000D01*
X23072000Y-35164404D01*
X23027804Y-35095721D01*
X22884778Y-34997996D01*
X22715000Y-34963615D01*
X20028666Y-34963615D01*
X19952804Y-34845721D01*
X19809778Y-34747996D01*
X19640000Y-34713615D01*
X18090000Y-34713615D01*
X17931393Y-34743459D01*
X17904612Y-34760692D01*
X17862804Y-34695721D01*
X17719778Y-34597996D01*
X17550000Y-34563615D01*
X15950000Y-34563615D01*
X15791393Y-34593459D01*
X15645721Y-34687196D01*
X15625944Y-34716141D01*
X15612804Y-34695721D01*
X15469778Y-34597996D01*
X15300000Y-34563615D01*
X13700000Y-34563615D01*
X13541393Y-34593459D01*
X13395721Y-34687196D01*
X13349697Y-34754554D01*
X13139795Y-34544286D01*
X12725357Y-34372196D01*
X12651680Y-34372132D01*
X12363556Y-34084008D01*
X12404279Y-34057804D01*
X12502004Y-33914778D01*
X12536385Y-33745000D01*
X12536385Y-33145000D01*
X12506541Y-32986393D01*
X12412804Y-32840721D01*
X12368785Y-32810644D01*
X12404279Y-32787804D01*
X12502004Y-32644778D01*
X12536385Y-32475000D01*
X12536385Y-31875000D01*
X12506541Y-31716393D01*
X12412804Y-31570721D01*
X12368785Y-31540644D01*
X12404279Y-31517804D01*
X12502004Y-31374778D01*
X12536385Y-31205000D01*
X12536385Y-30605000D01*
X12506541Y-30446393D01*
X12412804Y-30300721D01*
X12368785Y-30270644D01*
X12404279Y-30247804D01*
X12502004Y-30104778D01*
X12536385Y-29935000D01*
X12536385Y-29335000D01*
X12506541Y-29176393D01*
X12412804Y-29030721D01*
X12368785Y-29000644D01*
X12404279Y-28977804D01*
X12502004Y-28834778D01*
X12536385Y-28665000D01*
X12536385Y-28065000D01*
X12506541Y-27906393D01*
X12412804Y-27760721D01*
X12368785Y-27730644D01*
X12404279Y-27707804D01*
X12502004Y-27564778D01*
X12536385Y-27395000D01*
X12536385Y-26795000D01*
X12506541Y-26636393D01*
X12412804Y-26490721D01*
X12368785Y-26460644D01*
X12404279Y-26437804D01*
X12502004Y-26294778D01*
X12536385Y-26125000D01*
X12536385Y-25525000D01*
X12506541Y-25366393D01*
X12412804Y-25220721D01*
X12368785Y-25190644D01*
X12404279Y-25167804D01*
X12502004Y-25024778D01*
X12536385Y-24855000D01*
X12536385Y-24255000D01*
X12506541Y-24096393D01*
X12412804Y-23950721D01*
X12269778Y-23852996D01*
X12192251Y-23837296D01*
X12401633Y-23627915D01*
X12723389Y-23628196D01*
X13138126Y-23456830D01*
X13349550Y-23245775D01*
X13387196Y-23304279D01*
X13530222Y-23402004D01*
X13700000Y-23436385D01*
X15300000Y-23436385D01*
X15458607Y-23406541D01*
X15604279Y-23312804D01*
X15624056Y-23283859D01*
X15637196Y-23304279D01*
X15780222Y-23402004D01*
X15950000Y-23436385D01*
X17550000Y-23436385D01*
X17708607Y-23406541D01*
X17854279Y-23312804D01*
X17903588Y-23240638D01*
X17920222Y-23252004D01*
X18090000Y-23286385D01*
X19640000Y-23286385D01*
X19798607Y-23256541D01*
X19944279Y-23162804D01*
X20030657Y-23036385D01*
X22715000Y-23036385D01*
X22873607Y-23006541D01*
X23019279Y-22912804D01*
X23057782Y-22856453D01*
X23188809Y-22944002D01*
G36*
X29497000Y-34865814D02*
X29093476Y-34461585D01*
X28385159Y-34167466D01*
X27618205Y-34166796D01*
X27247410Y-34320006D01*
X27481031Y-34086385D01*
X28600000Y-34086385D01*
X28758607Y-34056541D01*
X28904279Y-33962804D01*
X29002004Y-33819778D01*
X29036385Y-33650000D01*
X29036385Y-32750000D01*
X29006541Y-32591393D01*
X28912804Y-32445721D01*
X28769778Y-32347996D01*
X28600000Y-32313615D01*
X26900000Y-32313615D01*
X26741393Y-32343459D01*
X26623843Y-32419100D01*
X26519778Y-32347996D01*
X26350000Y-32313615D01*
X24650000Y-32313615D01*
X24491393Y-32343459D01*
X24348093Y-32435670D01*
X24219778Y-32347996D01*
X24050000Y-32313615D01*
X22881031Y-32313615D01*
X22578000Y-32010584D01*
X22578000Y-31825000D01*
X22573624Y-31803000D01*
X26525000Y-31803000D01*
X26746191Y-31759002D01*
X26933708Y-31633708D01*
X27381031Y-31186385D01*
X28600000Y-31186385D01*
X28758607Y-31156541D01*
X28904279Y-31062804D01*
X29002004Y-30919778D01*
X29036385Y-30750000D01*
X29036385Y-29850000D01*
X29006541Y-29691393D01*
X28914944Y-29549047D01*
X29138126Y-29456830D01*
X29455714Y-29139795D01*
X29497000Y-29040367D01*
X29497000Y-34865814D01*
X29497000Y-34865814D01*
G37*
X29497000Y-34865814D02*
X29093476Y-34461585D01*
X28385159Y-34167466D01*
X27618205Y-34166796D01*
X27247410Y-34320006D01*
X27481031Y-34086385D01*
X28600000Y-34086385D01*
X28758607Y-34056541D01*
X28904279Y-33962804D01*
X29002004Y-33819778D01*
X29036385Y-33650000D01*
X29036385Y-32750000D01*
X29006541Y-32591393D01*
X28912804Y-32445721D01*
X28769778Y-32347996D01*
X28600000Y-32313615D01*
X26900000Y-32313615D01*
X26741393Y-32343459D01*
X26623843Y-32419100D01*
X26519778Y-32347996D01*
X26350000Y-32313615D01*
X24650000Y-32313615D01*
X24491393Y-32343459D01*
X24348093Y-32435670D01*
X24219778Y-32347996D01*
X24050000Y-32313615D01*
X22881031Y-32313615D01*
X22578000Y-32010584D01*
X22578000Y-31825000D01*
X22573624Y-31803000D01*
X26525000Y-31803000D01*
X26746191Y-31759002D01*
X26933708Y-31633708D01*
X27381031Y-31186385D01*
X28600000Y-31186385D01*
X28758607Y-31156541D01*
X28904279Y-31062804D01*
X29002004Y-30919778D01*
X29036385Y-30750000D01*
X29036385Y-29850000D01*
X29006541Y-29691393D01*
X28914944Y-29549047D01*
X29138126Y-29456830D01*
X29455714Y-29139795D01*
X29497000Y-29040367D01*
X29497000Y-34865814D01*
G36*
X22013615Y-33081031D02*
X22013615Y-33446199D01*
X21836385Y-33268969D01*
X21836385Y-33145000D01*
X21806541Y-32986393D01*
X21712804Y-32840721D01*
X21668785Y-32810644D01*
X21704279Y-32787804D01*
X21710818Y-32778234D01*
X22013615Y-33081031D01*
X22013615Y-33081031D01*
G37*
X22013615Y-33081031D02*
X22013615Y-33446199D01*
X21836385Y-33268969D01*
X21836385Y-33145000D01*
X21806541Y-32986393D01*
X21712804Y-32840721D01*
X21668785Y-32810644D01*
X21704279Y-32787804D01*
X21710818Y-32778234D01*
X22013615Y-33081031D01*
G36*
X22013615Y-29250000D02*
X22043459Y-29408607D01*
X22102531Y-29500407D01*
X22047996Y-29580222D01*
X22018465Y-29726049D01*
X21836385Y-29543969D01*
X21836385Y-29335000D01*
X21806541Y-29176393D01*
X21752879Y-29093000D01*
X22013615Y-29093000D01*
X22013615Y-29250000D01*
X22013615Y-29250000D01*
G37*
X22013615Y-29250000D02*
X22043459Y-29408607D01*
X22102531Y-29500407D01*
X22047996Y-29580222D01*
X22018465Y-29726049D01*
X21836385Y-29543969D01*
X21836385Y-29335000D01*
X21806541Y-29176393D01*
X21752879Y-29093000D01*
X22013615Y-29093000D01*
X22013615Y-29250000D01*
G36*
X27077416Y-28971406D02*
X27022000Y-29250000D01*
X27022000Y-29413615D01*
X26900000Y-29413615D01*
X26741393Y-29443459D01*
X26623843Y-29519100D01*
X26519778Y-29447996D01*
X26350000Y-29413615D01*
X26228000Y-29413615D01*
X26228000Y-29367112D01*
X26455714Y-29139795D01*
X26463556Y-29120910D01*
X26476156Y-29129519D01*
X26645443Y-29166242D01*
X26815680Y-29134210D01*
X26960043Y-29038470D01*
X27178721Y-28819792D01*
X27077416Y-28971406D01*
X27077416Y-28971406D01*
G37*
X27077416Y-28971406D02*
X27022000Y-29250000D01*
X27022000Y-29413615D01*
X26900000Y-29413615D01*
X26741393Y-29443459D01*
X26623843Y-29519100D01*
X26519778Y-29447996D01*
X26350000Y-29413615D01*
X26228000Y-29413615D01*
X26228000Y-29367112D01*
X26455714Y-29139795D01*
X26463556Y-29120910D01*
X26476156Y-29129519D01*
X26645443Y-29166242D01*
X26815680Y-29134210D01*
X26960043Y-29038470D01*
X27178721Y-28819792D01*
X27077416Y-28971406D01*
G36*
X24399428Y-29502637D02*
X24397469Y-29499593D01*
X24412223Y-29478000D01*
X24437715Y-29478000D01*
X24399428Y-29502637D01*
X24399428Y-29502637D01*
G37*
X24399428Y-29502637D02*
X24397469Y-29499593D01*
X24412223Y-29478000D01*
X24437715Y-29478000D01*
X24399428Y-29502637D01*
G36*
X23500000Y-26728000D02*
X24632888Y-26728000D01*
X24860205Y-26955714D01*
X25274643Y-27127804D01*
X25373597Y-27127890D01*
X25211530Y-27289957D01*
X25120481Y-27423212D01*
X25117359Y-27437606D01*
X24861874Y-27543170D01*
X24544286Y-27860205D01*
X24477103Y-28022000D01*
X24411888Y-28022000D01*
X24362804Y-27945721D01*
X24219778Y-27847996D01*
X24050000Y-27813615D01*
X23324982Y-27813615D01*
X23143594Y-27692416D01*
X22865000Y-27637000D01*
X21894265Y-27637000D01*
X22944760Y-26826344D01*
X22975670Y-26790902D01*
X23014774Y-26764774D01*
X23067152Y-26686385D01*
X23290788Y-26686385D01*
X23500000Y-26728000D01*
X23500000Y-26728000D01*
G37*
X23500000Y-26728000D02*
X24632888Y-26728000D01*
X24860205Y-26955714D01*
X25274643Y-27127804D01*
X25373597Y-27127890D01*
X25211530Y-27289957D01*
X25120481Y-27423212D01*
X25117359Y-27437606D01*
X24861874Y-27543170D01*
X24544286Y-27860205D01*
X24477103Y-28022000D01*
X24411888Y-28022000D01*
X24362804Y-27945721D01*
X24219778Y-27847996D01*
X24050000Y-27813615D01*
X23324982Y-27813615D01*
X23143594Y-27692416D01*
X22865000Y-27637000D01*
X21894265Y-27637000D01*
X22944760Y-26826344D01*
X22975670Y-26790902D01*
X23014774Y-26764774D01*
X23067152Y-26686385D01*
X23290788Y-26686385D01*
X23500000Y-26728000D01*
G36*
X27224307Y-25382535D02*
X27205078Y-25471179D01*
X27237110Y-25641416D01*
X27332850Y-25785779D01*
X28464221Y-26917150D01*
X28597476Y-27008199D01*
X28766763Y-27044922D01*
X28937000Y-27012890D01*
X29081363Y-26917150D01*
X29497000Y-26501513D01*
X29497000Y-27959093D01*
X29456830Y-27861874D01*
X29139795Y-27544286D01*
X28725357Y-27372196D01*
X28276611Y-27371804D01*
X27861874Y-27543170D01*
X27676461Y-27728260D01*
X27667150Y-27714221D01*
X26535779Y-26582850D01*
X26491829Y-26552820D01*
X26627804Y-26225357D01*
X26628196Y-25776611D01*
X26456830Y-25361874D01*
X26378093Y-25283000D01*
X27124772Y-25283000D01*
X27224307Y-25382535D01*
X27224307Y-25382535D01*
G37*
X27224307Y-25382535D02*
X27205078Y-25471179D01*
X27237110Y-25641416D01*
X27332850Y-25785779D01*
X28464221Y-26917150D01*
X28597476Y-27008199D01*
X28766763Y-27044922D01*
X28937000Y-27012890D01*
X29081363Y-26917150D01*
X29497000Y-26501513D01*
X29497000Y-27959093D01*
X29456830Y-27861874D01*
X29139795Y-27544286D01*
X28725357Y-27372196D01*
X28276611Y-27371804D01*
X27861874Y-27543170D01*
X27676461Y-27728260D01*
X27667150Y-27714221D01*
X26535779Y-26582850D01*
X26491829Y-26552820D01*
X26627804Y-26225357D01*
X26628196Y-25776611D01*
X26456830Y-25361874D01*
X26378093Y-25283000D01*
X27124772Y-25283000D01*
X27224307Y-25382535D01*
G36*
X22013615Y-25462139D02*
X22006977Y-25470693D01*
X21985226Y-25485226D01*
X21920398Y-25582248D01*
X21848857Y-25674428D01*
X21841948Y-25699657D01*
X21836385Y-25707983D01*
X21836385Y-25525000D01*
X21806541Y-25366393D01*
X21752879Y-25283000D01*
X22013615Y-25283000D01*
X22013615Y-25462139D01*
X22013615Y-25462139D01*
G37*
X22013615Y-25462139D02*
X22006977Y-25470693D01*
X21985226Y-25485226D01*
X21920398Y-25582248D01*
X21848857Y-25674428D01*
X21841948Y-25699657D01*
X21836385Y-25707983D01*
X21836385Y-25525000D01*
X21806541Y-25366393D01*
X21752879Y-25283000D01*
X22013615Y-25283000D01*
X22013615Y-25462139D01*
G36*
X25821562Y-21931342D02*
X26152454Y-22732160D01*
X26764617Y-23345393D01*
X27564856Y-23677681D01*
X28431342Y-23678438D01*
X29232160Y-23347546D01*
X29497000Y-23083168D01*
X29497000Y-25301431D01*
X28657099Y-24461530D01*
X28523844Y-24370481D01*
X28354557Y-24333758D01*
X28253619Y-24352751D01*
X27941094Y-24040226D01*
X27880891Y-24000000D01*
X27704914Y-23882416D01*
X27426320Y-23827000D01*
X26045718Y-23827000D01*
X25956830Y-23611874D01*
X25639795Y-23294286D01*
X25225357Y-23122196D01*
X25137640Y-23122119D01*
X25214279Y-23072804D01*
X25312004Y-22929778D01*
X25346385Y-22760000D01*
X25346385Y-22060000D01*
X25321547Y-21928000D01*
X25821565Y-21928000D01*
X25821562Y-21931342D01*
X25821562Y-21931342D01*
G37*
X25821562Y-21931342D02*
X26152454Y-22732160D01*
X26764617Y-23345393D01*
X27564856Y-23677681D01*
X28431342Y-23678438D01*
X29232160Y-23347546D01*
X29497000Y-23083168D01*
X29497000Y-25301431D01*
X28657099Y-24461530D01*
X28523844Y-24370481D01*
X28354557Y-24333758D01*
X28253619Y-24352751D01*
X27941094Y-24040226D01*
X27880891Y-24000000D01*
X27704914Y-23882416D01*
X27426320Y-23827000D01*
X26045718Y-23827000D01*
X25956830Y-23611874D01*
X25639795Y-23294286D01*
X25225357Y-23122196D01*
X25137640Y-23122119D01*
X25214279Y-23072804D01*
X25312004Y-22929778D01*
X25346385Y-22760000D01*
X25346385Y-22060000D01*
X25321547Y-21928000D01*
X25821565Y-21928000D01*
X25821562Y-21931342D01*
G36*
X13163615Y-18350000D02*
X13193459Y-18508607D01*
X13287196Y-18654279D01*
X13376514Y-18715307D01*
X13349697Y-18754554D01*
X13139795Y-18544286D01*
X12725357Y-18372196D01*
X12276611Y-18371804D01*
X11861874Y-18543170D01*
X11544286Y-18860205D01*
X11372196Y-19274643D01*
X11371804Y-19723389D01*
X11543170Y-20138126D01*
X11860205Y-20455714D01*
X12274643Y-20627804D01*
X12723389Y-20628196D01*
X13138126Y-20456830D01*
X13349550Y-20245775D01*
X13387196Y-20304279D01*
X13530222Y-20402004D01*
X13700000Y-20436385D01*
X15300000Y-20436385D01*
X15458607Y-20406541D01*
X15604279Y-20312804D01*
X15624056Y-20283859D01*
X15637196Y-20304279D01*
X15780222Y-20402004D01*
X15950000Y-20436385D01*
X17550000Y-20436385D01*
X17653615Y-20416888D01*
X17653615Y-21584598D01*
X17550000Y-21563615D01*
X15950000Y-21563615D01*
X15791393Y-21593459D01*
X15645721Y-21687196D01*
X15625944Y-21716141D01*
X15612804Y-21695721D01*
X15469778Y-21597996D01*
X15300000Y-21563615D01*
X13700000Y-21563615D01*
X13541393Y-21593459D01*
X13395721Y-21687196D01*
X13349697Y-21754554D01*
X13139795Y-21544286D01*
X12725357Y-21372196D01*
X12276611Y-21371804D01*
X11861874Y-21543170D01*
X11544286Y-21860205D01*
X11372196Y-22274643D01*
X11371913Y-22598539D01*
X10835226Y-23135226D01*
X10677416Y-23371406D01*
X10622000Y-23650000D01*
X10622000Y-23818615D01*
X10600000Y-23818615D01*
X10478000Y-23841571D01*
X10478000Y-19301548D01*
X11551547Y-18228000D01*
X13163615Y-18228000D01*
X13163615Y-18350000D01*
X13163615Y-18350000D01*
G37*
X13163615Y-18350000D02*
X13193459Y-18508607D01*
X13287196Y-18654279D01*
X13376514Y-18715307D01*
X13349697Y-18754554D01*
X13139795Y-18544286D01*
X12725357Y-18372196D01*
X12276611Y-18371804D01*
X11861874Y-18543170D01*
X11544286Y-18860205D01*
X11372196Y-19274643D01*
X11371804Y-19723389D01*
X11543170Y-20138126D01*
X11860205Y-20455714D01*
X12274643Y-20627804D01*
X12723389Y-20628196D01*
X13138126Y-20456830D01*
X13349550Y-20245775D01*
X13387196Y-20304279D01*
X13530222Y-20402004D01*
X13700000Y-20436385D01*
X15300000Y-20436385D01*
X15458607Y-20406541D01*
X15604279Y-20312804D01*
X15624056Y-20283859D01*
X15637196Y-20304279D01*
X15780222Y-20402004D01*
X15950000Y-20436385D01*
X17550000Y-20436385D01*
X17653615Y-20416888D01*
X17653615Y-21584598D01*
X17550000Y-21563615D01*
X15950000Y-21563615D01*
X15791393Y-21593459D01*
X15645721Y-21687196D01*
X15625944Y-21716141D01*
X15612804Y-21695721D01*
X15469778Y-21597996D01*
X15300000Y-21563615D01*
X13700000Y-21563615D01*
X13541393Y-21593459D01*
X13395721Y-21687196D01*
X13349697Y-21754554D01*
X13139795Y-21544286D01*
X12725357Y-21372196D01*
X12276611Y-21371804D01*
X11861874Y-21543170D01*
X11544286Y-21860205D01*
X11372196Y-22274643D01*
X11371913Y-22598539D01*
X10835226Y-23135226D01*
X10677416Y-23371406D01*
X10622000Y-23650000D01*
X10622000Y-23818615D01*
X10600000Y-23818615D01*
X10478000Y-23841571D01*
X10478000Y-19301548D01*
X11551547Y-18228000D01*
X13163615Y-18228000D01*
X13163615Y-18350000D01*
G36*
X29497000Y-19916681D02*
X29235383Y-19654607D01*
X28917488Y-19522606D01*
X28915308Y-19112760D01*
X29090624Y-19040321D01*
X29497000Y-18634653D01*
X29497000Y-19916681D01*
X29497000Y-19916681D01*
G37*
X29497000Y-19916681D02*
X29235383Y-19654607D01*
X28917488Y-19522606D01*
X28915308Y-19112760D01*
X29090624Y-19040321D01*
X29497000Y-18634653D01*
X29497000Y-19916681D01*
G36*
X13263615Y-16000000D02*
X13293459Y-16158607D01*
X13375389Y-16285931D01*
X13295721Y-16337196D01*
X13197996Y-16480222D01*
X13163615Y-16650000D01*
X13163615Y-16772000D01*
X11507548Y-16772000D01*
X12401633Y-15877915D01*
X12723389Y-15878196D01*
X13138126Y-15706830D01*
X13263615Y-15581560D01*
X13263615Y-16000000D01*
X13263615Y-16000000D01*
G37*
X13263615Y-16000000D02*
X13293459Y-16158607D01*
X13375389Y-16285931D01*
X13295721Y-16337196D01*
X13197996Y-16480222D01*
X13163615Y-16650000D01*
X13163615Y-16772000D01*
X11507548Y-16772000D01*
X12401633Y-15877915D01*
X12723389Y-15878196D01*
X13138126Y-15706830D01*
X13263615Y-15581560D01*
X13263615Y-16000000D01*
G36*
X15637196Y-13304279D02*
X15780222Y-13402004D01*
X15950000Y-13436385D01*
X17550000Y-13436385D01*
X17653615Y-13416888D01*
X17653615Y-14584598D01*
X17550000Y-14563615D01*
X15950000Y-14563615D01*
X15791393Y-14593459D01*
X15645721Y-14687196D01*
X15625944Y-14716141D01*
X15612804Y-14695721D01*
X15469778Y-14597996D01*
X15300000Y-14563615D01*
X13998775Y-14563615D01*
X15126005Y-13436385D01*
X15300000Y-13436385D01*
X15458607Y-13406541D01*
X15604279Y-13312804D01*
X15624056Y-13283859D01*
X15637196Y-13304279D01*
X15637196Y-13304279D01*
G37*
X15637196Y-13304279D02*
X15780222Y-13402004D01*
X15950000Y-13436385D01*
X17550000Y-13436385D01*
X17653615Y-13416888D01*
X17653615Y-14584598D01*
X17550000Y-14563615D01*
X15950000Y-14563615D01*
X15791393Y-14593459D01*
X15645721Y-14687196D01*
X15625944Y-14716141D01*
X15612804Y-14695721D01*
X15469778Y-14597996D01*
X15300000Y-14563615D01*
X13998775Y-14563615D01*
X15126005Y-13436385D01*
X15300000Y-13436385D01*
X15458607Y-13406541D01*
X15604279Y-13312804D01*
X15624056Y-13283859D01*
X15637196Y-13304279D01*
M02*
