G04 #@! TF.FileFunction,Other,Fab,Bot*
%FSLAX46Y46*%
G04 Gerber Fmt 4.6, Leading zero omitted, Abs format (unit mm)*
G04 Created by KiCad (PCBNEW 4.0.7) date 05/17/18 12:20:08*
%MOMM*%
%LPD*%
G01*
G04 APERTURE LIST*
%ADD10C,0.100000*%
%ADD11C,0.120000*%
%ADD12C,0.150000*%
%ADD13C,0.105000*%
G04 APERTURE END LIST*
D10*
D11*
X380000Y-23530000D02*
X6580000Y-23530000D01*
X6580000Y-23530000D02*
X6580000Y-34090000D01*
X6580000Y-34090000D02*
X380000Y-34090000D01*
X380000Y-34090000D02*
X380000Y-23530000D01*
D10*
X24050000Y-25650000D02*
X22450000Y-25650000D01*
X24050000Y-28850000D02*
X24050000Y-25650000D01*
X22450000Y-28850000D02*
X24050000Y-28850000D01*
X22450000Y-25650000D02*
X22450000Y-28850000D01*
X13700000Y-22600000D02*
X15300000Y-22600000D01*
X13700000Y-19400000D02*
X13700000Y-22600000D01*
X15300000Y-19400000D02*
X13700000Y-19400000D01*
X15300000Y-22600000D02*
X15300000Y-19400000D01*
X15950000Y-22600000D02*
X17550000Y-22600000D01*
X15950000Y-19400000D02*
X15950000Y-22600000D01*
X17550000Y-19400000D02*
X15950000Y-19400000D01*
X17550000Y-22600000D02*
X17550000Y-19400000D01*
X29197056Y-26184315D02*
X28065685Y-25052944D01*
X26934315Y-28447056D02*
X29197056Y-26184315D01*
X25802944Y-27315685D02*
X26934315Y-28447056D01*
X28065685Y-25052944D02*
X25802944Y-27315685D01*
X13700000Y-15600000D02*
X15300000Y-15600000D01*
X13700000Y-12400000D02*
X13700000Y-15600000D01*
X15300000Y-12400000D02*
X13700000Y-12400000D01*
X15300000Y-15600000D02*
X15300000Y-12400000D01*
X15950000Y-15600000D02*
X17550000Y-15600000D01*
X15950000Y-12400000D02*
X15950000Y-15600000D01*
X17550000Y-12400000D02*
X15950000Y-12400000D01*
X17550000Y-15600000D02*
X17550000Y-12400000D01*
X22450000Y-33350000D02*
X24050000Y-33350000D01*
X22450000Y-30150000D02*
X22450000Y-33350000D01*
X24050000Y-30150000D02*
X22450000Y-30150000D01*
X24050000Y-33350000D02*
X24050000Y-30150000D01*
X13700000Y-45600000D02*
X15300000Y-45600000D01*
X13700000Y-42400000D02*
X13700000Y-45600000D01*
X15300000Y-42400000D02*
X13700000Y-42400000D01*
X15300000Y-45600000D02*
X15300000Y-42400000D01*
X15950000Y-45600000D02*
X17550000Y-45600000D01*
X15950000Y-42400000D02*
X15950000Y-45600000D01*
X17550000Y-42400000D02*
X15950000Y-42400000D01*
X17550000Y-45600000D02*
X17550000Y-42400000D01*
X13700000Y-38600000D02*
X15300000Y-38600000D01*
X13700000Y-35400000D02*
X13700000Y-38600000D01*
X15300000Y-35400000D02*
X13700000Y-35400000D01*
X15300000Y-38600000D02*
X15300000Y-35400000D01*
X15950000Y-38600000D02*
X17550000Y-38600000D01*
X15950000Y-35400000D02*
X15950000Y-38600000D01*
X17550000Y-35400000D02*
X15950000Y-35400000D01*
X17550000Y-38600000D02*
X17550000Y-35400000D01*
X23715000Y-22200000D02*
X24715000Y-22200000D01*
X24715000Y-22200000D02*
X24715000Y-22650000D01*
X24715000Y-22650000D02*
X23715000Y-22650000D01*
X23715000Y-20900000D02*
X24715000Y-20900000D01*
X24715000Y-20900000D02*
X24715000Y-21350000D01*
X24715000Y-21350000D02*
X23715000Y-21350000D01*
X23715000Y-19650000D02*
X24715000Y-19650000D01*
X24715000Y-19650000D02*
X24715000Y-20100000D01*
X24715000Y-20100000D02*
X23715000Y-20100000D01*
X24715000Y-18350000D02*
X24715000Y-18850000D01*
X24715000Y-18350000D02*
X23715000Y-18350000D01*
X24715000Y-18850000D02*
X23715000Y-18850000D01*
X18315000Y-18300000D02*
X18315000Y-22700000D01*
X18315000Y-22700000D02*
X19615000Y-22700000D01*
X18315000Y-18300000D02*
X19615000Y-18300000D01*
X19615000Y-18000000D02*
X23715000Y-18000000D01*
X23715000Y-18000000D02*
X23715000Y-23000000D01*
X23715000Y-23000000D02*
X19615000Y-23000000D01*
X19615000Y-23000000D02*
X19615000Y-18000000D01*
X23715000Y-16200000D02*
X24715000Y-16200000D01*
X24715000Y-16200000D02*
X24715000Y-16650000D01*
X24715000Y-16650000D02*
X23715000Y-16650000D01*
X23715000Y-14900000D02*
X24715000Y-14900000D01*
X24715000Y-14900000D02*
X24715000Y-15350000D01*
X24715000Y-15350000D02*
X23715000Y-15350000D01*
X23715000Y-13650000D02*
X24715000Y-13650000D01*
X24715000Y-13650000D02*
X24715000Y-14100000D01*
X24715000Y-14100000D02*
X23715000Y-14100000D01*
X24715000Y-12350000D02*
X24715000Y-12850000D01*
X24715000Y-12350000D02*
X23715000Y-12350000D01*
X24715000Y-12850000D02*
X23715000Y-12850000D01*
X18315000Y-12300000D02*
X18315000Y-16700000D01*
X18315000Y-16700000D02*
X19615000Y-16700000D01*
X18315000Y-12300000D02*
X19615000Y-12300000D01*
X19615000Y-12000000D02*
X23715000Y-12000000D01*
X23715000Y-12000000D02*
X23715000Y-17000000D01*
X23715000Y-17000000D02*
X19615000Y-17000000D01*
X19615000Y-17000000D02*
X19615000Y-12000000D01*
X23715000Y-45200000D02*
X24715000Y-45200000D01*
X24715000Y-45200000D02*
X24715000Y-45650000D01*
X24715000Y-45650000D02*
X23715000Y-45650000D01*
X23715000Y-43900000D02*
X24715000Y-43900000D01*
X24715000Y-43900000D02*
X24715000Y-44350000D01*
X24715000Y-44350000D02*
X23715000Y-44350000D01*
X23715000Y-42650000D02*
X24715000Y-42650000D01*
X24715000Y-42650000D02*
X24715000Y-43100000D01*
X24715000Y-43100000D02*
X23715000Y-43100000D01*
X24715000Y-41350000D02*
X24715000Y-41850000D01*
X24715000Y-41350000D02*
X23715000Y-41350000D01*
X24715000Y-41850000D02*
X23715000Y-41850000D01*
X18315000Y-41300000D02*
X18315000Y-45700000D01*
X18315000Y-45700000D02*
X19615000Y-45700000D01*
X18315000Y-41300000D02*
X19615000Y-41300000D01*
X19615000Y-41000000D02*
X23715000Y-41000000D01*
X23715000Y-41000000D02*
X23715000Y-46000000D01*
X23715000Y-46000000D02*
X19615000Y-46000000D01*
X19615000Y-46000000D02*
X19615000Y-41000000D01*
X23715000Y-39200000D02*
X24715000Y-39200000D01*
X24715000Y-39200000D02*
X24715000Y-39650000D01*
X24715000Y-39650000D02*
X23715000Y-39650000D01*
X23715000Y-37900000D02*
X24715000Y-37900000D01*
X24715000Y-37900000D02*
X24715000Y-38350000D01*
X24715000Y-38350000D02*
X23715000Y-38350000D01*
X23715000Y-36650000D02*
X24715000Y-36650000D01*
X24715000Y-36650000D02*
X24715000Y-37100000D01*
X24715000Y-37100000D02*
X23715000Y-37100000D01*
X24715000Y-35350000D02*
X24715000Y-35850000D01*
X24715000Y-35350000D02*
X23715000Y-35350000D01*
X24715000Y-35850000D02*
X23715000Y-35850000D01*
X18315000Y-35300000D02*
X18315000Y-39700000D01*
X18315000Y-39700000D02*
X19615000Y-39700000D01*
X18315000Y-35300000D02*
X19615000Y-35300000D01*
X19615000Y-35000000D02*
X23715000Y-35000000D01*
X23715000Y-35000000D02*
X23715000Y-40000000D01*
X23715000Y-40000000D02*
X19615000Y-40000000D01*
X19615000Y-40000000D02*
X19615000Y-35000000D01*
X17100000Y-18300000D02*
X17100000Y-16700000D01*
X13900000Y-18300000D02*
X17100000Y-18300000D01*
X13900000Y-16700000D02*
X13900000Y-18300000D01*
X17100000Y-16700000D02*
X13900000Y-16700000D01*
X26950000Y-33350000D02*
X28550000Y-33350000D01*
X26950000Y-30150000D02*
X26950000Y-33350000D01*
X28550000Y-30150000D02*
X26950000Y-30150000D01*
X28550000Y-33350000D02*
X28550000Y-30150000D01*
X24700000Y-33350000D02*
X26300000Y-33350000D01*
X24700000Y-30150000D02*
X24700000Y-33350000D01*
X26300000Y-30150000D02*
X24700000Y-30150000D01*
X26300000Y-33350000D02*
X26300000Y-30150000D01*
X17100000Y-41300000D02*
X17100000Y-39700000D01*
X13900000Y-41300000D02*
X17100000Y-41300000D01*
X13900000Y-39700000D02*
X13900000Y-41300000D01*
X17100000Y-39700000D02*
X13900000Y-39700000D01*
D12*
X18750000Y-23850000D02*
X12250000Y-23850000D01*
X12250000Y-23850000D02*
X12250000Y-34150000D01*
X12250000Y-34150000D02*
X19750000Y-34150000D01*
X19750000Y-34150000D02*
X19750000Y-24850000D01*
X19750000Y-24850000D02*
X18750000Y-23850000D01*
X833000Y-37087000D02*
X10993000Y-37087000D01*
X10993000Y-37087000D02*
X10993000Y-56899000D01*
X10993000Y-56899000D02*
X833000Y-56899000D01*
X833000Y-56899000D02*
X833000Y-37087000D01*
X833000Y-1087000D02*
X10993000Y-1087000D01*
X10993000Y-1087000D02*
X10993000Y-20899000D01*
X10993000Y-20899000D02*
X833000Y-20899000D01*
X833000Y-20899000D02*
X833000Y-1087000D01*
X5952381Y-26702381D02*
X4952381Y-26702381D01*
X5285714Y-27178571D02*
X5952381Y-27178571D01*
X5380952Y-27178571D02*
X5333333Y-27226190D01*
X5285714Y-27321428D01*
X5285714Y-27464286D01*
X5333333Y-27559524D01*
X5428571Y-27607143D01*
X5952381Y-27607143D01*
X5285714Y-28083333D02*
X6285714Y-28083333D01*
X5333333Y-28083333D02*
X5285714Y-28178571D01*
X5285714Y-28369048D01*
X5333333Y-28464286D01*
X5380952Y-28511905D01*
X5476190Y-28559524D01*
X5761905Y-28559524D01*
X5857143Y-28511905D01*
X5904762Y-28464286D01*
X5952381Y-28369048D01*
X5952381Y-28178571D01*
X5904762Y-28083333D01*
X5285714Y-29416667D02*
X5952381Y-29416667D01*
X5285714Y-28988095D02*
X5809524Y-28988095D01*
X5904762Y-29035714D01*
X5952381Y-29130952D01*
X5952381Y-29273810D01*
X5904762Y-29369048D01*
X5857143Y-29416667D01*
X5285714Y-29750000D02*
X5285714Y-30130952D01*
X4952381Y-29892857D02*
X5809524Y-29892857D01*
X5904762Y-29940476D01*
X5952381Y-30035714D01*
X5952381Y-30130952D01*
X5904762Y-30416667D02*
X5952381Y-30511905D01*
X5952381Y-30702381D01*
X5904762Y-30797620D01*
X5809524Y-30845239D01*
X5761905Y-30845239D01*
X5666667Y-30797620D01*
X5619048Y-30702381D01*
X5619048Y-30559524D01*
X5571429Y-30464286D01*
X5476190Y-30416667D01*
X5428571Y-30416667D01*
X5333333Y-30464286D01*
X5285714Y-30559524D01*
X5285714Y-30702381D01*
X5333333Y-30797620D01*
X2952381Y-28416667D02*
X3666667Y-28416667D01*
X3809524Y-28369047D01*
X3904762Y-28273809D01*
X3952381Y-28130952D01*
X3952381Y-28035714D01*
X3952381Y-29416667D02*
X3952381Y-28845238D01*
X3952381Y-29130952D02*
X2952381Y-29130952D01*
X3095238Y-29035714D01*
X3190476Y-28940476D01*
X3238095Y-28845238D01*
X21952381Y-25880953D02*
X21952381Y-25309524D01*
X21952381Y-25595238D02*
X20952381Y-25595238D01*
X21095238Y-25500000D01*
X21190476Y-25404762D01*
X21238095Y-25309524D01*
X20952381Y-26500000D02*
X20952381Y-26595239D01*
X21000000Y-26690477D01*
X21047619Y-26738096D01*
X21142857Y-26785715D01*
X21333333Y-26833334D01*
X21571429Y-26833334D01*
X21761905Y-26785715D01*
X21857143Y-26738096D01*
X21904762Y-26690477D01*
X21952381Y-26595239D01*
X21952381Y-26500000D01*
X21904762Y-26404762D01*
X21857143Y-26357143D01*
X21761905Y-26309524D01*
X21571429Y-26261905D01*
X21333333Y-26261905D01*
X21142857Y-26309524D01*
X21047619Y-26357143D01*
X21000000Y-26404762D01*
X20952381Y-26500000D01*
X20952381Y-27452381D02*
X20952381Y-27547620D01*
X21000000Y-27642858D01*
X21047619Y-27690477D01*
X21142857Y-27738096D01*
X21333333Y-27785715D01*
X21571429Y-27785715D01*
X21761905Y-27738096D01*
X21857143Y-27690477D01*
X21904762Y-27642858D01*
X21952381Y-27547620D01*
X21952381Y-27452381D01*
X21904762Y-27357143D01*
X21857143Y-27309524D01*
X21761905Y-27261905D01*
X21571429Y-27214286D01*
X21333333Y-27214286D01*
X21142857Y-27261905D01*
X21047619Y-27309524D01*
X21000000Y-27357143D01*
X20952381Y-27452381D01*
X21285714Y-28214286D02*
X21952381Y-28214286D01*
X21380952Y-28214286D02*
X21333333Y-28261905D01*
X21285714Y-28357143D01*
X21285714Y-28500001D01*
X21333333Y-28595239D01*
X21428571Y-28642858D01*
X21952381Y-28642858D01*
X23607143Y-26607143D02*
X23654762Y-26559524D01*
X23702381Y-26416667D01*
X23702381Y-26321429D01*
X23654762Y-26178571D01*
X23559524Y-26083333D01*
X23464286Y-26035714D01*
X23273810Y-25988095D01*
X23130952Y-25988095D01*
X22940476Y-26035714D01*
X22845238Y-26083333D01*
X22750000Y-26178571D01*
X22702381Y-26321429D01*
X22702381Y-26416667D01*
X22750000Y-26559524D01*
X22797619Y-26607143D01*
X23702381Y-27559524D02*
X23702381Y-26988095D01*
X23702381Y-27273809D02*
X22702381Y-27273809D01*
X22845238Y-27178571D01*
X22940476Y-27083333D01*
X22988095Y-26988095D01*
X23702381Y-28511905D02*
X23702381Y-27940476D01*
X23702381Y-28226190D02*
X22702381Y-28226190D01*
X22845238Y-28130952D01*
X22940476Y-28035714D01*
X22988095Y-27940476D01*
X12535714Y-20023810D02*
X13202381Y-20023810D01*
X12154762Y-19785714D02*
X12869048Y-19547619D01*
X12869048Y-20166667D01*
X13107143Y-20547619D02*
X13154762Y-20595238D01*
X13202381Y-20547619D01*
X13154762Y-20500000D01*
X13107143Y-20547619D01*
X13202381Y-20547619D01*
X12202381Y-20928571D02*
X12202381Y-21595238D01*
X13202381Y-21166666D01*
X12535714Y-22404762D02*
X13202381Y-22404762D01*
X12535714Y-21976190D02*
X13059524Y-21976190D01*
X13154762Y-22023809D01*
X13202381Y-22119047D01*
X13202381Y-22261905D01*
X13154762Y-22357143D01*
X13107143Y-22404762D01*
X14857143Y-20833334D02*
X14904762Y-20785715D01*
X14952381Y-20642858D01*
X14952381Y-20547620D01*
X14904762Y-20404762D01*
X14809524Y-20309524D01*
X14714286Y-20261905D01*
X14523810Y-20214286D01*
X14380952Y-20214286D01*
X14190476Y-20261905D01*
X14095238Y-20309524D01*
X14000000Y-20404762D01*
X13952381Y-20547620D01*
X13952381Y-20642858D01*
X14000000Y-20785715D01*
X14047619Y-20833334D01*
X13952381Y-21690477D02*
X13952381Y-21500000D01*
X14000000Y-21404762D01*
X14047619Y-21357143D01*
X14190476Y-21261905D01*
X14380952Y-21214286D01*
X14761905Y-21214286D01*
X14857143Y-21261905D01*
X14904762Y-21309524D01*
X14952381Y-21404762D01*
X14952381Y-21595239D01*
X14904762Y-21690477D01*
X14857143Y-21738096D01*
X14761905Y-21785715D01*
X14523810Y-21785715D01*
X14428571Y-21738096D01*
X14380952Y-21690477D01*
X14333333Y-21595239D01*
X14333333Y-21404762D01*
X14380952Y-21309524D01*
X14428571Y-21261905D01*
X14523810Y-21214286D01*
X19202381Y-19880953D02*
X19202381Y-19309524D01*
X19202381Y-19595238D02*
X18202381Y-19595238D01*
X18345238Y-19500000D01*
X18440476Y-19404762D01*
X18488095Y-19309524D01*
X18202381Y-20500000D02*
X18202381Y-20595239D01*
X18250000Y-20690477D01*
X18297619Y-20738096D01*
X18392857Y-20785715D01*
X18583333Y-20833334D01*
X18821429Y-20833334D01*
X19011905Y-20785715D01*
X19107143Y-20738096D01*
X19154762Y-20690477D01*
X19202381Y-20595239D01*
X19202381Y-20500000D01*
X19154762Y-20404762D01*
X19107143Y-20357143D01*
X19011905Y-20309524D01*
X18821429Y-20261905D01*
X18583333Y-20261905D01*
X18392857Y-20309524D01*
X18297619Y-20357143D01*
X18250000Y-20404762D01*
X18202381Y-20500000D01*
X18202381Y-21452381D02*
X18202381Y-21547620D01*
X18250000Y-21642858D01*
X18297619Y-21690477D01*
X18392857Y-21738096D01*
X18583333Y-21785715D01*
X18821429Y-21785715D01*
X19011905Y-21738096D01*
X19107143Y-21690477D01*
X19154762Y-21642858D01*
X19202381Y-21547620D01*
X19202381Y-21452381D01*
X19154762Y-21357143D01*
X19107143Y-21309524D01*
X19011905Y-21261905D01*
X18821429Y-21214286D01*
X18583333Y-21214286D01*
X18392857Y-21261905D01*
X18297619Y-21309524D01*
X18250000Y-21357143D01*
X18202381Y-21452381D01*
X18535714Y-22214286D02*
X19202381Y-22214286D01*
X18630952Y-22214286D02*
X18583333Y-22261905D01*
X18535714Y-22357143D01*
X18535714Y-22500001D01*
X18583333Y-22595239D01*
X18678571Y-22642858D01*
X19202381Y-22642858D01*
X17107143Y-20833334D02*
X17154762Y-20785715D01*
X17202381Y-20642858D01*
X17202381Y-20547620D01*
X17154762Y-20404762D01*
X17059524Y-20309524D01*
X16964286Y-20261905D01*
X16773810Y-20214286D01*
X16630952Y-20214286D01*
X16440476Y-20261905D01*
X16345238Y-20309524D01*
X16250000Y-20404762D01*
X16202381Y-20547620D01*
X16202381Y-20642858D01*
X16250000Y-20785715D01*
X16297619Y-20833334D01*
X16202381Y-21166667D02*
X16202381Y-21833334D01*
X17202381Y-21404762D01*
X26755076Y-24220473D02*
X26317343Y-24658206D01*
X26822420Y-24691877D01*
X26721404Y-24792893D01*
X26687732Y-24893908D01*
X26687732Y-24961252D01*
X26721405Y-25062268D01*
X26889763Y-25230626D01*
X26990778Y-25264298D01*
X27058122Y-25264298D01*
X27159137Y-25230626D01*
X27361168Y-25028595D01*
X27394840Y-24927580D01*
X27394840Y-24860237D01*
X26081641Y-24893908D02*
X25643908Y-25331641D01*
X26148985Y-25365312D01*
X26047969Y-25466328D01*
X26014297Y-25567343D01*
X26014297Y-25634687D01*
X26047970Y-25735703D01*
X26216328Y-25904061D01*
X26317343Y-25937733D01*
X26384687Y-25937733D01*
X26485702Y-25904061D01*
X26687733Y-25702030D01*
X26721405Y-25601015D01*
X26721405Y-25533672D01*
X25576565Y-25870389D02*
X26283672Y-26577496D01*
X25610237Y-25904061D02*
X25509222Y-25937732D01*
X25374534Y-26072420D01*
X25340862Y-26173435D01*
X25340862Y-26240778D01*
X25374534Y-26341794D01*
X25576565Y-26543825D01*
X25677580Y-26577496D01*
X25744924Y-26577496D01*
X25845939Y-26543825D01*
X25980626Y-26409137D01*
X26014298Y-26308122D01*
X27870389Y-26884688D02*
X27937732Y-26884688D01*
X28072419Y-26817344D01*
X28139763Y-26750001D01*
X28207107Y-26615313D01*
X28207107Y-26480626D01*
X28173435Y-26379611D01*
X28072420Y-26211253D01*
X27971404Y-26110237D01*
X27803045Y-26009222D01*
X27702030Y-25975550D01*
X27567343Y-25975550D01*
X27432656Y-26042894D01*
X27365312Y-26110237D01*
X27297969Y-26244924D01*
X27297969Y-26312268D01*
X27129610Y-26952030D02*
X27163282Y-26851015D01*
X27163282Y-26783672D01*
X27129610Y-26682657D01*
X27095939Y-26648985D01*
X26994924Y-26615313D01*
X26927580Y-26615313D01*
X26826565Y-26648985D01*
X26691877Y-26783672D01*
X26658206Y-26884688D01*
X26658206Y-26952031D01*
X26691877Y-27053046D01*
X26725549Y-27086718D01*
X26826564Y-27120390D01*
X26893908Y-27120390D01*
X26994923Y-27086718D01*
X27129610Y-26952030D01*
X27230626Y-26918359D01*
X27297969Y-26918359D01*
X27398985Y-26952031D01*
X27533672Y-27086718D01*
X27567343Y-27187733D01*
X27567343Y-27255076D01*
X27533672Y-27356092D01*
X27398984Y-27490779D01*
X27297969Y-27524451D01*
X27230626Y-27524451D01*
X27129610Y-27490779D01*
X26994924Y-27356092D01*
X26961251Y-27255076D01*
X26961251Y-27187733D01*
X26994923Y-27086718D01*
X14285714Y-9023810D02*
X14952381Y-9023810D01*
X13904762Y-8785714D02*
X14619048Y-8547619D01*
X14619048Y-9166667D01*
X14857143Y-9547619D02*
X14904762Y-9595238D01*
X14952381Y-9547619D01*
X14904762Y-9500000D01*
X14857143Y-9547619D01*
X14952381Y-9547619D01*
X13952381Y-9928571D02*
X13952381Y-10595238D01*
X14952381Y-10166666D01*
X14285714Y-11404762D02*
X14952381Y-11404762D01*
X14285714Y-10976190D02*
X14809524Y-10976190D01*
X14904762Y-11023809D01*
X14952381Y-11119047D01*
X14952381Y-11261905D01*
X14904762Y-11357143D01*
X14857143Y-11404762D01*
X14857143Y-13833334D02*
X14904762Y-13785715D01*
X14952381Y-13642858D01*
X14952381Y-13547620D01*
X14904762Y-13404762D01*
X14809524Y-13309524D01*
X14714286Y-13261905D01*
X14523810Y-13214286D01*
X14380952Y-13214286D01*
X14190476Y-13261905D01*
X14095238Y-13309524D01*
X14000000Y-13404762D01*
X13952381Y-13547620D01*
X13952381Y-13642858D01*
X14000000Y-13785715D01*
X14047619Y-13833334D01*
X14952381Y-14309524D02*
X14952381Y-14500000D01*
X14904762Y-14595239D01*
X14857143Y-14642858D01*
X14714286Y-14738096D01*
X14523810Y-14785715D01*
X14142857Y-14785715D01*
X14047619Y-14738096D01*
X14000000Y-14690477D01*
X13952381Y-14595239D01*
X13952381Y-14404762D01*
X14000000Y-14309524D01*
X14047619Y-14261905D01*
X14142857Y-14214286D01*
X14380952Y-14214286D01*
X14476190Y-14261905D01*
X14523810Y-14309524D01*
X14571429Y-14404762D01*
X14571429Y-14595239D01*
X14523810Y-14690477D01*
X14476190Y-14738096D01*
X14380952Y-14785715D01*
X17202381Y-8630953D02*
X17202381Y-8059524D01*
X17202381Y-8345238D02*
X16202381Y-8345238D01*
X16345238Y-8250000D01*
X16440476Y-8154762D01*
X16488095Y-8059524D01*
X16202381Y-9250000D02*
X16202381Y-9345239D01*
X16250000Y-9440477D01*
X16297619Y-9488096D01*
X16392857Y-9535715D01*
X16583333Y-9583334D01*
X16821429Y-9583334D01*
X17011905Y-9535715D01*
X17107143Y-9488096D01*
X17154762Y-9440477D01*
X17202381Y-9345239D01*
X17202381Y-9250000D01*
X17154762Y-9154762D01*
X17107143Y-9107143D01*
X17011905Y-9059524D01*
X16821429Y-9011905D01*
X16583333Y-9011905D01*
X16392857Y-9059524D01*
X16297619Y-9107143D01*
X16250000Y-9154762D01*
X16202381Y-9250000D01*
X16202381Y-10202381D02*
X16202381Y-10297620D01*
X16250000Y-10392858D01*
X16297619Y-10440477D01*
X16392857Y-10488096D01*
X16583333Y-10535715D01*
X16821429Y-10535715D01*
X17011905Y-10488096D01*
X17107143Y-10440477D01*
X17154762Y-10392858D01*
X17202381Y-10297620D01*
X17202381Y-10202381D01*
X17154762Y-10107143D01*
X17107143Y-10059524D01*
X17011905Y-10011905D01*
X16821429Y-9964286D01*
X16583333Y-9964286D01*
X16392857Y-10011905D01*
X16297619Y-10059524D01*
X16250000Y-10107143D01*
X16202381Y-10202381D01*
X16535714Y-10964286D02*
X17202381Y-10964286D01*
X16630952Y-10964286D02*
X16583333Y-11011905D01*
X16535714Y-11107143D01*
X16535714Y-11250001D01*
X16583333Y-11345239D01*
X16678571Y-11392858D01*
X17202381Y-11392858D01*
X17107143Y-13357143D02*
X17154762Y-13309524D01*
X17202381Y-13166667D01*
X17202381Y-13071429D01*
X17154762Y-12928571D01*
X17059524Y-12833333D01*
X16964286Y-12785714D01*
X16773810Y-12738095D01*
X16630952Y-12738095D01*
X16440476Y-12785714D01*
X16345238Y-12833333D01*
X16250000Y-12928571D01*
X16202381Y-13071429D01*
X16202381Y-13166667D01*
X16250000Y-13309524D01*
X16297619Y-13357143D01*
X17202381Y-14309524D02*
X17202381Y-13738095D01*
X17202381Y-14023809D02*
X16202381Y-14023809D01*
X16345238Y-13928571D01*
X16440476Y-13833333D01*
X16488095Y-13738095D01*
X16202381Y-14928571D02*
X16202381Y-15023810D01*
X16250000Y-15119048D01*
X16297619Y-15166667D01*
X16392857Y-15214286D01*
X16583333Y-15261905D01*
X16821429Y-15261905D01*
X17011905Y-15214286D01*
X17107143Y-15166667D01*
X17154762Y-15119048D01*
X17202381Y-15023810D01*
X17202381Y-14928571D01*
X17154762Y-14833333D01*
X17107143Y-14785714D01*
X17011905Y-14738095D01*
X16821429Y-14690476D01*
X16583333Y-14690476D01*
X16392857Y-14738095D01*
X16297619Y-14785714D01*
X16250000Y-14833333D01*
X16202381Y-14928571D01*
X21047619Y-30297619D02*
X21000000Y-30345238D01*
X20952381Y-30440476D01*
X20952381Y-30678572D01*
X21000000Y-30773810D01*
X21047619Y-30821429D01*
X21142857Y-30869048D01*
X21238095Y-30869048D01*
X21380952Y-30821429D01*
X21952381Y-30250000D01*
X21952381Y-30869048D01*
X21857143Y-31297619D02*
X21904762Y-31345238D01*
X21952381Y-31297619D01*
X21904762Y-31250000D01*
X21857143Y-31297619D01*
X21952381Y-31297619D01*
X21047619Y-31726190D02*
X21000000Y-31773809D01*
X20952381Y-31869047D01*
X20952381Y-32107143D01*
X21000000Y-32202381D01*
X21047619Y-32250000D01*
X21142857Y-32297619D01*
X21238095Y-32297619D01*
X21380952Y-32250000D01*
X21952381Y-31678571D01*
X21952381Y-32297619D01*
X21285714Y-32726190D02*
X21952381Y-32726190D01*
X21380952Y-32726190D02*
X21333333Y-32773809D01*
X21285714Y-32869047D01*
X21285714Y-33011905D01*
X21333333Y-33107143D01*
X21428571Y-33154762D01*
X21952381Y-33154762D01*
X23607143Y-31107143D02*
X23654762Y-31059524D01*
X23702381Y-30916667D01*
X23702381Y-30821429D01*
X23654762Y-30678571D01*
X23559524Y-30583333D01*
X23464286Y-30535714D01*
X23273810Y-30488095D01*
X23130952Y-30488095D01*
X22940476Y-30535714D01*
X22845238Y-30583333D01*
X22750000Y-30678571D01*
X22702381Y-30821429D01*
X22702381Y-30916667D01*
X22750000Y-31059524D01*
X22797619Y-31107143D01*
X23702381Y-32059524D02*
X23702381Y-31488095D01*
X23702381Y-31773809D02*
X22702381Y-31773809D01*
X22845238Y-31678571D01*
X22940476Y-31583333D01*
X22988095Y-31488095D01*
X22797619Y-32440476D02*
X22750000Y-32488095D01*
X22702381Y-32583333D01*
X22702381Y-32821429D01*
X22750000Y-32916667D01*
X22797619Y-32964286D01*
X22892857Y-33011905D01*
X22988095Y-33011905D01*
X23130952Y-32964286D01*
X23702381Y-32392857D01*
X23702381Y-33011905D01*
X14285714Y-47023810D02*
X14952381Y-47023810D01*
X13904762Y-46785714D02*
X14619048Y-46547619D01*
X14619048Y-47166667D01*
X14857143Y-47547619D02*
X14904762Y-47595238D01*
X14952381Y-47547619D01*
X14904762Y-47500000D01*
X14857143Y-47547619D01*
X14952381Y-47547619D01*
X13952381Y-47928571D02*
X13952381Y-48595238D01*
X14952381Y-48166666D01*
X14285714Y-49404762D02*
X14952381Y-49404762D01*
X14285714Y-48976190D02*
X14809524Y-48976190D01*
X14904762Y-49023809D01*
X14952381Y-49119047D01*
X14952381Y-49261905D01*
X14904762Y-49357143D01*
X14857143Y-49404762D01*
X14857143Y-43357143D02*
X14904762Y-43309524D01*
X14952381Y-43166667D01*
X14952381Y-43071429D01*
X14904762Y-42928571D01*
X14809524Y-42833333D01*
X14714286Y-42785714D01*
X14523810Y-42738095D01*
X14380952Y-42738095D01*
X14190476Y-42785714D01*
X14095238Y-42833333D01*
X14000000Y-42928571D01*
X13952381Y-43071429D01*
X13952381Y-43166667D01*
X14000000Y-43309524D01*
X14047619Y-43357143D01*
X14952381Y-44309524D02*
X14952381Y-43738095D01*
X14952381Y-44023809D02*
X13952381Y-44023809D01*
X14095238Y-43928571D01*
X14190476Y-43833333D01*
X14238095Y-43738095D01*
X14285714Y-45166667D02*
X14952381Y-45166667D01*
X13904762Y-44928571D02*
X14619048Y-44690476D01*
X14619048Y-45309524D01*
X17202381Y-47130953D02*
X17202381Y-46559524D01*
X17202381Y-46845238D02*
X16202381Y-46845238D01*
X16345238Y-46750000D01*
X16440476Y-46654762D01*
X16488095Y-46559524D01*
X16202381Y-47750000D02*
X16202381Y-47845239D01*
X16250000Y-47940477D01*
X16297619Y-47988096D01*
X16392857Y-48035715D01*
X16583333Y-48083334D01*
X16821429Y-48083334D01*
X17011905Y-48035715D01*
X17107143Y-47988096D01*
X17154762Y-47940477D01*
X17202381Y-47845239D01*
X17202381Y-47750000D01*
X17154762Y-47654762D01*
X17107143Y-47607143D01*
X17011905Y-47559524D01*
X16821429Y-47511905D01*
X16583333Y-47511905D01*
X16392857Y-47559524D01*
X16297619Y-47607143D01*
X16250000Y-47654762D01*
X16202381Y-47750000D01*
X16202381Y-48702381D02*
X16202381Y-48797620D01*
X16250000Y-48892858D01*
X16297619Y-48940477D01*
X16392857Y-48988096D01*
X16583333Y-49035715D01*
X16821429Y-49035715D01*
X17011905Y-48988096D01*
X17107143Y-48940477D01*
X17154762Y-48892858D01*
X17202381Y-48797620D01*
X17202381Y-48702381D01*
X17154762Y-48607143D01*
X17107143Y-48559524D01*
X17011905Y-48511905D01*
X16821429Y-48464286D01*
X16583333Y-48464286D01*
X16392857Y-48511905D01*
X16297619Y-48559524D01*
X16250000Y-48607143D01*
X16202381Y-48702381D01*
X16535714Y-49464286D02*
X17202381Y-49464286D01*
X16630952Y-49464286D02*
X16583333Y-49511905D01*
X16535714Y-49607143D01*
X16535714Y-49750001D01*
X16583333Y-49845239D01*
X16678571Y-49892858D01*
X17202381Y-49892858D01*
X17107143Y-43357143D02*
X17154762Y-43309524D01*
X17202381Y-43166667D01*
X17202381Y-43071429D01*
X17154762Y-42928571D01*
X17059524Y-42833333D01*
X16964286Y-42785714D01*
X16773810Y-42738095D01*
X16630952Y-42738095D01*
X16440476Y-42785714D01*
X16345238Y-42833333D01*
X16250000Y-42928571D01*
X16202381Y-43071429D01*
X16202381Y-43166667D01*
X16250000Y-43309524D01*
X16297619Y-43357143D01*
X17202381Y-44309524D02*
X17202381Y-43738095D01*
X17202381Y-44023809D02*
X16202381Y-44023809D01*
X16345238Y-43928571D01*
X16440476Y-43833333D01*
X16488095Y-43738095D01*
X16202381Y-45214286D02*
X16202381Y-44738095D01*
X16678571Y-44690476D01*
X16630952Y-44738095D01*
X16583333Y-44833333D01*
X16583333Y-45071429D01*
X16630952Y-45166667D01*
X16678571Y-45214286D01*
X16773810Y-45261905D01*
X17011905Y-45261905D01*
X17107143Y-45214286D01*
X17154762Y-45166667D01*
X17202381Y-45071429D01*
X17202381Y-44833333D01*
X17154762Y-44738095D01*
X17107143Y-44690476D01*
X12535714Y-36023810D02*
X13202381Y-36023810D01*
X12154762Y-35785714D02*
X12869048Y-35547619D01*
X12869048Y-36166667D01*
X13107143Y-36547619D02*
X13154762Y-36595238D01*
X13202381Y-36547619D01*
X13154762Y-36500000D01*
X13107143Y-36547619D01*
X13202381Y-36547619D01*
X12202381Y-36928571D02*
X12202381Y-37595238D01*
X13202381Y-37166666D01*
X12535714Y-38404762D02*
X13202381Y-38404762D01*
X12535714Y-37976190D02*
X13059524Y-37976190D01*
X13154762Y-38023809D01*
X13202381Y-38119047D01*
X13202381Y-38261905D01*
X13154762Y-38357143D01*
X13107143Y-38404762D01*
X14857143Y-36357143D02*
X14904762Y-36309524D01*
X14952381Y-36166667D01*
X14952381Y-36071429D01*
X14904762Y-35928571D01*
X14809524Y-35833333D01*
X14714286Y-35785714D01*
X14523810Y-35738095D01*
X14380952Y-35738095D01*
X14190476Y-35785714D01*
X14095238Y-35833333D01*
X14000000Y-35928571D01*
X13952381Y-36071429D01*
X13952381Y-36166667D01*
X14000000Y-36309524D01*
X14047619Y-36357143D01*
X14952381Y-37309524D02*
X14952381Y-36738095D01*
X14952381Y-37023809D02*
X13952381Y-37023809D01*
X14095238Y-36928571D01*
X14190476Y-36833333D01*
X14238095Y-36738095D01*
X13952381Y-38166667D02*
X13952381Y-37976190D01*
X14000000Y-37880952D01*
X14047619Y-37833333D01*
X14190476Y-37738095D01*
X14380952Y-37690476D01*
X14761905Y-37690476D01*
X14857143Y-37738095D01*
X14904762Y-37785714D01*
X14952381Y-37880952D01*
X14952381Y-38071429D01*
X14904762Y-38166667D01*
X14857143Y-38214286D01*
X14761905Y-38261905D01*
X14523810Y-38261905D01*
X14428571Y-38214286D01*
X14380952Y-38166667D01*
X14333333Y-38071429D01*
X14333333Y-37880952D01*
X14380952Y-37785714D01*
X14428571Y-37738095D01*
X14523810Y-37690476D01*
X19452381Y-35880953D02*
X19452381Y-35309524D01*
X19452381Y-35595238D02*
X18452381Y-35595238D01*
X18595238Y-35500000D01*
X18690476Y-35404762D01*
X18738095Y-35309524D01*
X18452381Y-36500000D02*
X18452381Y-36595239D01*
X18500000Y-36690477D01*
X18547619Y-36738096D01*
X18642857Y-36785715D01*
X18833333Y-36833334D01*
X19071429Y-36833334D01*
X19261905Y-36785715D01*
X19357143Y-36738096D01*
X19404762Y-36690477D01*
X19452381Y-36595239D01*
X19452381Y-36500000D01*
X19404762Y-36404762D01*
X19357143Y-36357143D01*
X19261905Y-36309524D01*
X19071429Y-36261905D01*
X18833333Y-36261905D01*
X18642857Y-36309524D01*
X18547619Y-36357143D01*
X18500000Y-36404762D01*
X18452381Y-36500000D01*
X18452381Y-37452381D02*
X18452381Y-37547620D01*
X18500000Y-37642858D01*
X18547619Y-37690477D01*
X18642857Y-37738096D01*
X18833333Y-37785715D01*
X19071429Y-37785715D01*
X19261905Y-37738096D01*
X19357143Y-37690477D01*
X19404762Y-37642858D01*
X19452381Y-37547620D01*
X19452381Y-37452381D01*
X19404762Y-37357143D01*
X19357143Y-37309524D01*
X19261905Y-37261905D01*
X19071429Y-37214286D01*
X18833333Y-37214286D01*
X18642857Y-37261905D01*
X18547619Y-37309524D01*
X18500000Y-37357143D01*
X18452381Y-37452381D01*
X18785714Y-38214286D02*
X19452381Y-38214286D01*
X18880952Y-38214286D02*
X18833333Y-38261905D01*
X18785714Y-38357143D01*
X18785714Y-38500001D01*
X18833333Y-38595239D01*
X18928571Y-38642858D01*
X19452381Y-38642858D01*
X17107143Y-36357143D02*
X17154762Y-36309524D01*
X17202381Y-36166667D01*
X17202381Y-36071429D01*
X17154762Y-35928571D01*
X17059524Y-35833333D01*
X16964286Y-35785714D01*
X16773810Y-35738095D01*
X16630952Y-35738095D01*
X16440476Y-35785714D01*
X16345238Y-35833333D01*
X16250000Y-35928571D01*
X16202381Y-36071429D01*
X16202381Y-36166667D01*
X16250000Y-36309524D01*
X16297619Y-36357143D01*
X17202381Y-37309524D02*
X17202381Y-36738095D01*
X17202381Y-37023809D02*
X16202381Y-37023809D01*
X16345238Y-36928571D01*
X16440476Y-36833333D01*
X16488095Y-36738095D01*
X16202381Y-37642857D02*
X16202381Y-38309524D01*
X17202381Y-37880952D01*
X29702381Y-12750000D02*
X28702381Y-12750000D01*
X28702381Y-13130953D01*
X28750000Y-13226191D01*
X28797619Y-13273810D01*
X28892857Y-13321429D01*
X29035714Y-13321429D01*
X29130952Y-13273810D01*
X29178571Y-13226191D01*
X29226190Y-13130953D01*
X29226190Y-12750000D01*
X29702381Y-13750000D02*
X28702381Y-13750000D01*
X29178571Y-13750000D02*
X29178571Y-14321429D01*
X29702381Y-14321429D02*
X28702381Y-14321429D01*
X29702381Y-14797619D02*
X28702381Y-14797619D01*
X28702381Y-15178572D01*
X28750000Y-15273810D01*
X28797619Y-15321429D01*
X28892857Y-15369048D01*
X29035714Y-15369048D01*
X29130952Y-15321429D01*
X29178571Y-15273810D01*
X29226190Y-15178572D01*
X29226190Y-14797619D01*
X28702381Y-15654762D02*
X28702381Y-16226191D01*
X29702381Y-15940476D02*
X28702381Y-15940476D01*
X28702381Y-16988096D02*
X28702381Y-16797619D01*
X28750000Y-16702381D01*
X28797619Y-16654762D01*
X28940476Y-16559524D01*
X29130952Y-16511905D01*
X29511905Y-16511905D01*
X29607143Y-16559524D01*
X29654762Y-16607143D01*
X29702381Y-16702381D01*
X29702381Y-16892858D01*
X29654762Y-16988096D01*
X29607143Y-17035715D01*
X29511905Y-17083334D01*
X29273810Y-17083334D01*
X29178571Y-17035715D01*
X29130952Y-16988096D01*
X29083333Y-16892858D01*
X29083333Y-16702381D01*
X29130952Y-16607143D01*
X29178571Y-16559524D01*
X29273810Y-16511905D01*
X28702381Y-17702381D02*
X28702381Y-17797620D01*
X28750000Y-17892858D01*
X28797619Y-17940477D01*
X28892857Y-17988096D01*
X29083333Y-18035715D01*
X29321429Y-18035715D01*
X29511905Y-17988096D01*
X29607143Y-17940477D01*
X29654762Y-17892858D01*
X29702381Y-17797620D01*
X29702381Y-17702381D01*
X29654762Y-17607143D01*
X29607143Y-17559524D01*
X29511905Y-17511905D01*
X29321429Y-17464286D01*
X29083333Y-17464286D01*
X28892857Y-17511905D01*
X28797619Y-17559524D01*
X28750000Y-17607143D01*
X28702381Y-17702381D01*
X29035714Y-18892858D02*
X29702381Y-18892858D01*
X28654762Y-18654762D02*
X29369048Y-18416667D01*
X29369048Y-19035715D01*
X29702381Y-19940477D02*
X29702381Y-19369048D01*
X29702381Y-19654762D02*
X28702381Y-19654762D01*
X28845238Y-19559524D01*
X28940476Y-19464286D01*
X28988095Y-19369048D01*
X28702381Y-20845239D02*
X28702381Y-20369048D01*
X29178571Y-20321429D01*
X29130952Y-20369048D01*
X29083333Y-20464286D01*
X29083333Y-20702382D01*
X29130952Y-20797620D01*
X29178571Y-20845239D01*
X29273810Y-20892858D01*
X29511905Y-20892858D01*
X29607143Y-20845239D01*
X29654762Y-20797620D01*
X29702381Y-20702382D01*
X29702381Y-20464286D01*
X29654762Y-20369048D01*
X29607143Y-20321429D01*
X29702381Y-21321429D02*
X28702381Y-21321429D01*
X29702381Y-21892858D01*
X28702381Y-21892858D01*
X29226190Y-22559524D02*
X29702381Y-22559524D01*
X28702381Y-22226191D02*
X29226190Y-22559524D01*
X28702381Y-22892858D01*
X22047619Y-20404762D02*
X22000000Y-20309524D01*
X21904762Y-20214286D01*
X21761905Y-20071429D01*
X21714286Y-19976190D01*
X21714286Y-19880952D01*
X21952381Y-19928571D02*
X21904762Y-19833333D01*
X21809524Y-19738095D01*
X21619048Y-19690476D01*
X21285714Y-19690476D01*
X21095238Y-19738095D01*
X21000000Y-19833333D01*
X20952381Y-19928571D01*
X20952381Y-20119048D01*
X21000000Y-20214286D01*
X21095238Y-20309524D01*
X21285714Y-20357143D01*
X21619048Y-20357143D01*
X21809524Y-20309524D01*
X21904762Y-20214286D01*
X21952381Y-20119048D01*
X21952381Y-19928571D01*
X21952381Y-21309524D02*
X21952381Y-20738095D01*
X21952381Y-21023809D02*
X20952381Y-21023809D01*
X21095238Y-20928571D01*
X21190476Y-20833333D01*
X21238095Y-20738095D01*
X26452381Y-6773809D02*
X25452381Y-6773809D01*
X25452381Y-7154762D01*
X25500000Y-7250000D01*
X25547619Y-7297619D01*
X25642857Y-7345238D01*
X25785714Y-7345238D01*
X25880952Y-7297619D01*
X25928571Y-7250000D01*
X25976190Y-7154762D01*
X25976190Y-6773809D01*
X26452381Y-7773809D02*
X25452381Y-7773809D01*
X25928571Y-7773809D02*
X25928571Y-8345238D01*
X26452381Y-8345238D02*
X25452381Y-8345238D01*
X26452381Y-8821428D02*
X25452381Y-8821428D01*
X25452381Y-9202381D01*
X25500000Y-9297619D01*
X25547619Y-9345238D01*
X25642857Y-9392857D01*
X25785714Y-9392857D01*
X25880952Y-9345238D01*
X25928571Y-9297619D01*
X25976190Y-9202381D01*
X25976190Y-8821428D01*
X25452381Y-9678571D02*
X25452381Y-10250000D01*
X26452381Y-9964285D02*
X25452381Y-9964285D01*
X25452381Y-11011905D02*
X25452381Y-10821428D01*
X25500000Y-10726190D01*
X25547619Y-10678571D01*
X25690476Y-10583333D01*
X25880952Y-10535714D01*
X26261905Y-10535714D01*
X26357143Y-10583333D01*
X26404762Y-10630952D01*
X26452381Y-10726190D01*
X26452381Y-10916667D01*
X26404762Y-11011905D01*
X26357143Y-11059524D01*
X26261905Y-11107143D01*
X26023810Y-11107143D01*
X25928571Y-11059524D01*
X25880952Y-11011905D01*
X25833333Y-10916667D01*
X25833333Y-10726190D01*
X25880952Y-10630952D01*
X25928571Y-10583333D01*
X26023810Y-10535714D01*
X25452381Y-11726190D02*
X25452381Y-11821429D01*
X25500000Y-11916667D01*
X25547619Y-11964286D01*
X25642857Y-12011905D01*
X25833333Y-12059524D01*
X26071429Y-12059524D01*
X26261905Y-12011905D01*
X26357143Y-11964286D01*
X26404762Y-11916667D01*
X26452381Y-11821429D01*
X26452381Y-11726190D01*
X26404762Y-11630952D01*
X26357143Y-11583333D01*
X26261905Y-11535714D01*
X26071429Y-11488095D01*
X25833333Y-11488095D01*
X25642857Y-11535714D01*
X25547619Y-11583333D01*
X25500000Y-11630952D01*
X25452381Y-11726190D01*
X25785714Y-12916667D02*
X26452381Y-12916667D01*
X25404762Y-12678571D02*
X26119048Y-12440476D01*
X26119048Y-13059524D01*
X26452381Y-13964286D02*
X26452381Y-13392857D01*
X26452381Y-13678571D02*
X25452381Y-13678571D01*
X25595238Y-13583333D01*
X25690476Y-13488095D01*
X25738095Y-13392857D01*
X25452381Y-14869048D02*
X25452381Y-14392857D01*
X25928571Y-14345238D01*
X25880952Y-14392857D01*
X25833333Y-14488095D01*
X25833333Y-14726191D01*
X25880952Y-14821429D01*
X25928571Y-14869048D01*
X26023810Y-14916667D01*
X26261905Y-14916667D01*
X26357143Y-14869048D01*
X26404762Y-14821429D01*
X26452381Y-14726191D01*
X26452381Y-14488095D01*
X26404762Y-14392857D01*
X26357143Y-14345238D01*
X26452381Y-15345238D02*
X25452381Y-15345238D01*
X25452381Y-15726191D01*
X25500000Y-15821429D01*
X25547619Y-15869048D01*
X25642857Y-15916667D01*
X25785714Y-15916667D01*
X25880952Y-15869048D01*
X25928571Y-15821429D01*
X25976190Y-15726191D01*
X25976190Y-15345238D01*
X25976190Y-16535714D02*
X26452381Y-16535714D01*
X25452381Y-16202381D02*
X25976190Y-16535714D01*
X25452381Y-16869048D01*
X22047619Y-14404762D02*
X22000000Y-14309524D01*
X21904762Y-14214286D01*
X21761905Y-14071429D01*
X21714286Y-13976190D01*
X21714286Y-13880952D01*
X21952381Y-13928571D02*
X21904762Y-13833333D01*
X21809524Y-13738095D01*
X21619048Y-13690476D01*
X21285714Y-13690476D01*
X21095238Y-13738095D01*
X21000000Y-13833333D01*
X20952381Y-13928571D01*
X20952381Y-14119048D01*
X21000000Y-14214286D01*
X21095238Y-14309524D01*
X21285714Y-14357143D01*
X21619048Y-14357143D01*
X21809524Y-14309524D01*
X21904762Y-14214286D01*
X21952381Y-14119048D01*
X21952381Y-13928571D01*
X21047619Y-14738095D02*
X21000000Y-14785714D01*
X20952381Y-14880952D01*
X20952381Y-15119048D01*
X21000000Y-15214286D01*
X21047619Y-15261905D01*
X21142857Y-15309524D01*
X21238095Y-15309524D01*
X21380952Y-15261905D01*
X21952381Y-14690476D01*
X21952381Y-15309524D01*
X26452381Y-41000000D02*
X25452381Y-41000000D01*
X25452381Y-41380953D01*
X25500000Y-41476191D01*
X25547619Y-41523810D01*
X25642857Y-41571429D01*
X25785714Y-41571429D01*
X25880952Y-41523810D01*
X25928571Y-41476191D01*
X25976190Y-41380953D01*
X25976190Y-41000000D01*
X26452381Y-42000000D02*
X25452381Y-42000000D01*
X25928571Y-42000000D02*
X25928571Y-42571429D01*
X26452381Y-42571429D02*
X25452381Y-42571429D01*
X26452381Y-43047619D02*
X25452381Y-43047619D01*
X25452381Y-43428572D01*
X25500000Y-43523810D01*
X25547619Y-43571429D01*
X25642857Y-43619048D01*
X25785714Y-43619048D01*
X25880952Y-43571429D01*
X25928571Y-43523810D01*
X25976190Y-43428572D01*
X25976190Y-43047619D01*
X25452381Y-43904762D02*
X25452381Y-44476191D01*
X26452381Y-44190476D02*
X25452381Y-44190476D01*
X25452381Y-45238096D02*
X25452381Y-45047619D01*
X25500000Y-44952381D01*
X25547619Y-44904762D01*
X25690476Y-44809524D01*
X25880952Y-44761905D01*
X26261905Y-44761905D01*
X26357143Y-44809524D01*
X26404762Y-44857143D01*
X26452381Y-44952381D01*
X26452381Y-45142858D01*
X26404762Y-45238096D01*
X26357143Y-45285715D01*
X26261905Y-45333334D01*
X26023810Y-45333334D01*
X25928571Y-45285715D01*
X25880952Y-45238096D01*
X25833333Y-45142858D01*
X25833333Y-44952381D01*
X25880952Y-44857143D01*
X25928571Y-44809524D01*
X26023810Y-44761905D01*
X25452381Y-45952381D02*
X25452381Y-46047620D01*
X25500000Y-46142858D01*
X25547619Y-46190477D01*
X25642857Y-46238096D01*
X25833333Y-46285715D01*
X26071429Y-46285715D01*
X26261905Y-46238096D01*
X26357143Y-46190477D01*
X26404762Y-46142858D01*
X26452381Y-46047620D01*
X26452381Y-45952381D01*
X26404762Y-45857143D01*
X26357143Y-45809524D01*
X26261905Y-45761905D01*
X26071429Y-45714286D01*
X25833333Y-45714286D01*
X25642857Y-45761905D01*
X25547619Y-45809524D01*
X25500000Y-45857143D01*
X25452381Y-45952381D01*
X25785714Y-47142858D02*
X26452381Y-47142858D01*
X25404762Y-46904762D02*
X26119048Y-46666667D01*
X26119048Y-47285715D01*
X26452381Y-48190477D02*
X26452381Y-47619048D01*
X26452381Y-47904762D02*
X25452381Y-47904762D01*
X25595238Y-47809524D01*
X25690476Y-47714286D01*
X25738095Y-47619048D01*
X25452381Y-49095239D02*
X25452381Y-48619048D01*
X25928571Y-48571429D01*
X25880952Y-48619048D01*
X25833333Y-48714286D01*
X25833333Y-48952382D01*
X25880952Y-49047620D01*
X25928571Y-49095239D01*
X26023810Y-49142858D01*
X26261905Y-49142858D01*
X26357143Y-49095239D01*
X26404762Y-49047620D01*
X26452381Y-48952382D01*
X26452381Y-48714286D01*
X26404762Y-48619048D01*
X26357143Y-48571429D01*
X26452381Y-49571429D02*
X25452381Y-49571429D01*
X26452381Y-50142858D01*
X25452381Y-50142858D01*
X25976190Y-50809524D02*
X26452381Y-50809524D01*
X25452381Y-50476191D02*
X25976190Y-50809524D01*
X25452381Y-51142858D01*
X22047619Y-43404762D02*
X22000000Y-43309524D01*
X21904762Y-43214286D01*
X21761905Y-43071429D01*
X21714286Y-42976190D01*
X21714286Y-42880952D01*
X21952381Y-42928571D02*
X21904762Y-42833333D01*
X21809524Y-42738095D01*
X21619048Y-42690476D01*
X21285714Y-42690476D01*
X21095238Y-42738095D01*
X21000000Y-42833333D01*
X20952381Y-42928571D01*
X20952381Y-43119048D01*
X21000000Y-43214286D01*
X21095238Y-43309524D01*
X21285714Y-43357143D01*
X21619048Y-43357143D01*
X21809524Y-43309524D01*
X21904762Y-43214286D01*
X21952381Y-43119048D01*
X21952381Y-42928571D01*
X21285714Y-44214286D02*
X21952381Y-44214286D01*
X20904762Y-43976190D02*
X21619048Y-43738095D01*
X21619048Y-44357143D01*
X29702381Y-35023809D02*
X28702381Y-35023809D01*
X28702381Y-35404762D01*
X28750000Y-35500000D01*
X28797619Y-35547619D01*
X28892857Y-35595238D01*
X29035714Y-35595238D01*
X29130952Y-35547619D01*
X29178571Y-35500000D01*
X29226190Y-35404762D01*
X29226190Y-35023809D01*
X29702381Y-36023809D02*
X28702381Y-36023809D01*
X29178571Y-36023809D02*
X29178571Y-36595238D01*
X29702381Y-36595238D02*
X28702381Y-36595238D01*
X29702381Y-37071428D02*
X28702381Y-37071428D01*
X28702381Y-37452381D01*
X28750000Y-37547619D01*
X28797619Y-37595238D01*
X28892857Y-37642857D01*
X29035714Y-37642857D01*
X29130952Y-37595238D01*
X29178571Y-37547619D01*
X29226190Y-37452381D01*
X29226190Y-37071428D01*
X28702381Y-37928571D02*
X28702381Y-38500000D01*
X29702381Y-38214285D02*
X28702381Y-38214285D01*
X28702381Y-39261905D02*
X28702381Y-39071428D01*
X28750000Y-38976190D01*
X28797619Y-38928571D01*
X28940476Y-38833333D01*
X29130952Y-38785714D01*
X29511905Y-38785714D01*
X29607143Y-38833333D01*
X29654762Y-38880952D01*
X29702381Y-38976190D01*
X29702381Y-39166667D01*
X29654762Y-39261905D01*
X29607143Y-39309524D01*
X29511905Y-39357143D01*
X29273810Y-39357143D01*
X29178571Y-39309524D01*
X29130952Y-39261905D01*
X29083333Y-39166667D01*
X29083333Y-38976190D01*
X29130952Y-38880952D01*
X29178571Y-38833333D01*
X29273810Y-38785714D01*
X28702381Y-39976190D02*
X28702381Y-40071429D01*
X28750000Y-40166667D01*
X28797619Y-40214286D01*
X28892857Y-40261905D01*
X29083333Y-40309524D01*
X29321429Y-40309524D01*
X29511905Y-40261905D01*
X29607143Y-40214286D01*
X29654762Y-40166667D01*
X29702381Y-40071429D01*
X29702381Y-39976190D01*
X29654762Y-39880952D01*
X29607143Y-39833333D01*
X29511905Y-39785714D01*
X29321429Y-39738095D01*
X29083333Y-39738095D01*
X28892857Y-39785714D01*
X28797619Y-39833333D01*
X28750000Y-39880952D01*
X28702381Y-39976190D01*
X29035714Y-41166667D02*
X29702381Y-41166667D01*
X28654762Y-40928571D02*
X29369048Y-40690476D01*
X29369048Y-41309524D01*
X29702381Y-42214286D02*
X29702381Y-41642857D01*
X29702381Y-41928571D02*
X28702381Y-41928571D01*
X28845238Y-41833333D01*
X28940476Y-41738095D01*
X28988095Y-41642857D01*
X28702381Y-43119048D02*
X28702381Y-42642857D01*
X29178571Y-42595238D01*
X29130952Y-42642857D01*
X29083333Y-42738095D01*
X29083333Y-42976191D01*
X29130952Y-43071429D01*
X29178571Y-43119048D01*
X29273810Y-43166667D01*
X29511905Y-43166667D01*
X29607143Y-43119048D01*
X29654762Y-43071429D01*
X29702381Y-42976191D01*
X29702381Y-42738095D01*
X29654762Y-42642857D01*
X29607143Y-42595238D01*
X29702381Y-43595238D02*
X28702381Y-43595238D01*
X28702381Y-43976191D01*
X28750000Y-44071429D01*
X28797619Y-44119048D01*
X28892857Y-44166667D01*
X29035714Y-44166667D01*
X29130952Y-44119048D01*
X29178571Y-44071429D01*
X29226190Y-43976191D01*
X29226190Y-43595238D01*
X29226190Y-44785714D02*
X29702381Y-44785714D01*
X28702381Y-44452381D02*
X29226190Y-44785714D01*
X28702381Y-45119048D01*
X22047619Y-37404762D02*
X22000000Y-37309524D01*
X21904762Y-37214286D01*
X21761905Y-37071429D01*
X21714286Y-36976190D01*
X21714286Y-36880952D01*
X21952381Y-36928571D02*
X21904762Y-36833333D01*
X21809524Y-36738095D01*
X21619048Y-36690476D01*
X21285714Y-36690476D01*
X21095238Y-36738095D01*
X21000000Y-36833333D01*
X20952381Y-36928571D01*
X20952381Y-37119048D01*
X21000000Y-37214286D01*
X21095238Y-37309524D01*
X21285714Y-37357143D01*
X21619048Y-37357143D01*
X21809524Y-37309524D01*
X21904762Y-37214286D01*
X21952381Y-37119048D01*
X21952381Y-36928571D01*
X20952381Y-38261905D02*
X20952381Y-37785714D01*
X21428571Y-37738095D01*
X21380952Y-37785714D01*
X21333333Y-37880952D01*
X21333333Y-38119048D01*
X21380952Y-38214286D01*
X21428571Y-38261905D01*
X21523810Y-38309524D01*
X21761905Y-38309524D01*
X21857143Y-38261905D01*
X21904762Y-38214286D01*
X21952381Y-38119048D01*
X21952381Y-37880952D01*
X21904762Y-37785714D01*
X21857143Y-37738095D01*
X12464285Y-17952381D02*
X13035714Y-17952381D01*
X12750000Y-17952381D02*
X12750000Y-16952381D01*
X12845238Y-17095238D01*
X12940476Y-17190476D01*
X13035714Y-17238095D01*
D13*
X15616666Y-17816667D02*
X15850000Y-17483333D01*
X16016666Y-17816667D02*
X16016666Y-17116667D01*
X15750000Y-17116667D01*
X15683333Y-17150000D01*
X15650000Y-17183333D01*
X15616666Y-17250000D01*
X15616666Y-17350000D01*
X15650000Y-17416667D01*
X15683333Y-17450000D01*
X15750000Y-17483333D01*
X16016666Y-17483333D01*
X15350000Y-17183333D02*
X15316666Y-17150000D01*
X15250000Y-17116667D01*
X15083333Y-17116667D01*
X15016666Y-17150000D01*
X14983333Y-17183333D01*
X14950000Y-17250000D01*
X14950000Y-17316667D01*
X14983333Y-17416667D01*
X15383333Y-17816667D01*
X14950000Y-17816667D01*
D12*
X28202381Y-34428572D02*
X28202381Y-33857143D01*
X28202381Y-34142857D02*
X27202381Y-34142857D01*
X27345238Y-34047619D01*
X27440476Y-33952381D01*
X27488095Y-33857143D01*
X27202381Y-35047619D02*
X27202381Y-35142858D01*
X27250000Y-35238096D01*
X27297619Y-35285715D01*
X27392857Y-35333334D01*
X27583333Y-35380953D01*
X27821429Y-35380953D01*
X28011905Y-35333334D01*
X28107143Y-35285715D01*
X28154762Y-35238096D01*
X28202381Y-35142858D01*
X28202381Y-35047619D01*
X28154762Y-34952381D01*
X28107143Y-34904762D01*
X28011905Y-34857143D01*
X27821429Y-34809524D01*
X27583333Y-34809524D01*
X27392857Y-34857143D01*
X27297619Y-34904762D01*
X27250000Y-34952381D01*
X27202381Y-35047619D01*
X27202381Y-36000000D02*
X27202381Y-36095239D01*
X27250000Y-36190477D01*
X27297619Y-36238096D01*
X27392857Y-36285715D01*
X27583333Y-36333334D01*
X27821429Y-36333334D01*
X28011905Y-36285715D01*
X28107143Y-36238096D01*
X28154762Y-36190477D01*
X28202381Y-36095239D01*
X28202381Y-36000000D01*
X28154762Y-35904762D01*
X28107143Y-35857143D01*
X28011905Y-35809524D01*
X27821429Y-35761905D01*
X27583333Y-35761905D01*
X27392857Y-35809524D01*
X27297619Y-35857143D01*
X27250000Y-35904762D01*
X27202381Y-36000000D01*
X28202381Y-36761905D02*
X27202381Y-36761905D01*
X27821429Y-36857143D02*
X28202381Y-37142858D01*
X27535714Y-37142858D02*
X27916667Y-36761905D01*
D13*
X28066667Y-31633334D02*
X27733333Y-31400000D01*
X28066667Y-31233334D02*
X27366667Y-31233334D01*
X27366667Y-31500000D01*
X27400000Y-31566667D01*
X27433333Y-31600000D01*
X27500000Y-31633334D01*
X27600000Y-31633334D01*
X27666667Y-31600000D01*
X27700000Y-31566667D01*
X27733333Y-31500000D01*
X27733333Y-31233334D01*
X27366667Y-31866667D02*
X27366667Y-32300000D01*
X27633333Y-32066667D01*
X27633333Y-32166667D01*
X27666667Y-32233334D01*
X27700000Y-32266667D01*
X27766667Y-32300000D01*
X27933333Y-32300000D01*
X28000000Y-32266667D01*
X28033333Y-32233334D01*
X28066667Y-32166667D01*
X28066667Y-31966667D01*
X28033333Y-31900000D01*
X28000000Y-31866667D01*
D12*
X25952381Y-34428572D02*
X25952381Y-33857143D01*
X25952381Y-34142857D02*
X24952381Y-34142857D01*
X25095238Y-34047619D01*
X25190476Y-33952381D01*
X25238095Y-33857143D01*
X24952381Y-35047619D02*
X24952381Y-35142858D01*
X25000000Y-35238096D01*
X25047619Y-35285715D01*
X25142857Y-35333334D01*
X25333333Y-35380953D01*
X25571429Y-35380953D01*
X25761905Y-35333334D01*
X25857143Y-35285715D01*
X25904762Y-35238096D01*
X25952381Y-35142858D01*
X25952381Y-35047619D01*
X25904762Y-34952381D01*
X25857143Y-34904762D01*
X25761905Y-34857143D01*
X25571429Y-34809524D01*
X25333333Y-34809524D01*
X25142857Y-34857143D01*
X25047619Y-34904762D01*
X25000000Y-34952381D01*
X24952381Y-35047619D01*
X24952381Y-36000000D02*
X24952381Y-36095239D01*
X25000000Y-36190477D01*
X25047619Y-36238096D01*
X25142857Y-36285715D01*
X25333333Y-36333334D01*
X25571429Y-36333334D01*
X25761905Y-36285715D01*
X25857143Y-36238096D01*
X25904762Y-36190477D01*
X25952381Y-36095239D01*
X25952381Y-36000000D01*
X25904762Y-35904762D01*
X25857143Y-35857143D01*
X25761905Y-35809524D01*
X25571429Y-35761905D01*
X25333333Y-35761905D01*
X25142857Y-35809524D01*
X25047619Y-35857143D01*
X25000000Y-35904762D01*
X24952381Y-36000000D01*
X25952381Y-36761905D02*
X24952381Y-36761905D01*
X25571429Y-36857143D02*
X25952381Y-37142858D01*
X25285714Y-37142858D02*
X25666667Y-36761905D01*
D13*
X25816667Y-31633334D02*
X25483333Y-31400000D01*
X25816667Y-31233334D02*
X25116667Y-31233334D01*
X25116667Y-31500000D01*
X25150000Y-31566667D01*
X25183333Y-31600000D01*
X25250000Y-31633334D01*
X25350000Y-31633334D01*
X25416667Y-31600000D01*
X25450000Y-31566667D01*
X25483333Y-31500000D01*
X25483333Y-31233334D01*
X25116667Y-32266667D02*
X25116667Y-31933334D01*
X25450000Y-31900000D01*
X25416667Y-31933334D01*
X25383333Y-32000000D01*
X25383333Y-32166667D01*
X25416667Y-32233334D01*
X25450000Y-32266667D01*
X25516667Y-32300000D01*
X25683333Y-32300000D01*
X25750000Y-32266667D01*
X25783333Y-32233334D01*
X25816667Y-32166667D01*
X25816667Y-32000000D01*
X25783333Y-31933334D01*
X25750000Y-31900000D01*
D12*
X12464285Y-40952381D02*
X13035714Y-40952381D01*
X12750000Y-40952381D02*
X12750000Y-39952381D01*
X12845238Y-40095238D01*
X12940476Y-40190476D01*
X13035714Y-40238095D01*
D13*
X15616666Y-40816667D02*
X15850000Y-40483333D01*
X16016666Y-40816667D02*
X16016666Y-40116667D01*
X15750000Y-40116667D01*
X15683333Y-40150000D01*
X15650000Y-40183333D01*
X15616666Y-40250000D01*
X15616666Y-40350000D01*
X15650000Y-40416667D01*
X15683333Y-40450000D01*
X15750000Y-40483333D01*
X16016666Y-40483333D01*
X15016666Y-40116667D02*
X15150000Y-40116667D01*
X15216666Y-40150000D01*
X15250000Y-40183333D01*
X15316666Y-40283333D01*
X15350000Y-40416667D01*
X15350000Y-40683333D01*
X15316666Y-40750000D01*
X15283333Y-40783333D01*
X15216666Y-40816667D01*
X15083333Y-40816667D01*
X15016666Y-40783333D01*
X14983333Y-40750000D01*
X14950000Y-40683333D01*
X14950000Y-40516667D01*
X14983333Y-40450000D01*
X15016666Y-40416667D01*
X15083333Y-40383333D01*
X15216666Y-40383333D01*
X15283333Y-40416667D01*
X15316666Y-40450000D01*
X15350000Y-40516667D01*
D12*
X18452381Y-25083333D02*
X19261905Y-25083333D01*
X19357143Y-25130952D01*
X19404762Y-25178571D01*
X19452381Y-25273809D01*
X19452381Y-25464286D01*
X19404762Y-25559524D01*
X19357143Y-25607143D01*
X19261905Y-25654762D01*
X18452381Y-25654762D01*
X19357143Y-26702381D02*
X19404762Y-26654762D01*
X19452381Y-26511905D01*
X19452381Y-26416667D01*
X19404762Y-26273809D01*
X19309524Y-26178571D01*
X19214286Y-26130952D01*
X19023810Y-26083333D01*
X18880952Y-26083333D01*
X18690476Y-26130952D01*
X18595238Y-26178571D01*
X18500000Y-26273809D01*
X18452381Y-26416667D01*
X18452381Y-26511905D01*
X18500000Y-26654762D01*
X18547619Y-26702381D01*
X19357143Y-27702381D02*
X19404762Y-27654762D01*
X19452381Y-27511905D01*
X19452381Y-27416667D01*
X19404762Y-27273809D01*
X19309524Y-27178571D01*
X19214286Y-27130952D01*
X19023810Y-27083333D01*
X18880952Y-27083333D01*
X18690476Y-27130952D01*
X18595238Y-27178571D01*
X18500000Y-27273809D01*
X18452381Y-27416667D01*
X18452381Y-27511905D01*
X18500000Y-27654762D01*
X18547619Y-27702381D01*
X18547619Y-28083333D02*
X18500000Y-28130952D01*
X18452381Y-28226190D01*
X18452381Y-28464286D01*
X18500000Y-28559524D01*
X18547619Y-28607143D01*
X18642857Y-28654762D01*
X18738095Y-28654762D01*
X18880952Y-28607143D01*
X19452381Y-28035714D01*
X19452381Y-28654762D01*
X18452381Y-29273809D02*
X18452381Y-29369048D01*
X18500000Y-29464286D01*
X18547619Y-29511905D01*
X18642857Y-29559524D01*
X18833333Y-29607143D01*
X19071429Y-29607143D01*
X19261905Y-29559524D01*
X19357143Y-29511905D01*
X19404762Y-29464286D01*
X19452381Y-29369048D01*
X19452381Y-29273809D01*
X19404762Y-29178571D01*
X19357143Y-29130952D01*
X19261905Y-29083333D01*
X19071429Y-29035714D01*
X18833333Y-29035714D01*
X18642857Y-29083333D01*
X18547619Y-29130952D01*
X18500000Y-29178571D01*
X18452381Y-29273809D01*
X18452381Y-30511905D02*
X18452381Y-30035714D01*
X18928571Y-29988095D01*
X18880952Y-30035714D01*
X18833333Y-30130952D01*
X18833333Y-30369048D01*
X18880952Y-30464286D01*
X18928571Y-30511905D01*
X19023810Y-30559524D01*
X19261905Y-30559524D01*
X19357143Y-30511905D01*
X19404762Y-30464286D01*
X19452381Y-30369048D01*
X19452381Y-30130952D01*
X19404762Y-30035714D01*
X19357143Y-29988095D01*
X18547619Y-30940476D02*
X18500000Y-30988095D01*
X18452381Y-31083333D01*
X18452381Y-31321429D01*
X18500000Y-31416667D01*
X18547619Y-31464286D01*
X18642857Y-31511905D01*
X18738095Y-31511905D01*
X18880952Y-31464286D01*
X19452381Y-30892857D01*
X19452381Y-31511905D01*
X18452381Y-32130952D02*
X18452381Y-32226191D01*
X18500000Y-32321429D01*
X18547619Y-32369048D01*
X18642857Y-32416667D01*
X18833333Y-32464286D01*
X19071429Y-32464286D01*
X19261905Y-32416667D01*
X19357143Y-32369048D01*
X19404762Y-32321429D01*
X19452381Y-32226191D01*
X19452381Y-32130952D01*
X19404762Y-32035714D01*
X19357143Y-31988095D01*
X19261905Y-31940476D01*
X19071429Y-31892857D01*
X18833333Y-31892857D01*
X18642857Y-31940476D01*
X18547619Y-31988095D01*
X18500000Y-32035714D01*
X18452381Y-32130952D01*
X16761905Y-28452381D02*
X16761905Y-29261905D01*
X16714286Y-29357143D01*
X16666667Y-29404762D01*
X16571429Y-29452381D01*
X16380952Y-29452381D01*
X16285714Y-29404762D01*
X16238095Y-29357143D01*
X16190476Y-29261905D01*
X16190476Y-28452381D01*
X15809524Y-28452381D02*
X15190476Y-28452381D01*
X15523810Y-28833333D01*
X15380952Y-28833333D01*
X15285714Y-28880952D01*
X15238095Y-28928571D01*
X15190476Y-29023810D01*
X15190476Y-29261905D01*
X15238095Y-29357143D01*
X15285714Y-29404762D01*
X15380952Y-29452381D01*
X15666667Y-29452381D01*
X15761905Y-29404762D01*
X15809524Y-29357143D01*
X10556381Y-37540190D02*
X9556381Y-37540190D01*
X10270667Y-37873524D01*
X9556381Y-38206857D01*
X10556381Y-38206857D01*
X9604000Y-39206857D02*
X9556381Y-39111619D01*
X9556381Y-38968762D01*
X9604000Y-38825904D01*
X9699238Y-38730666D01*
X9794476Y-38683047D01*
X9984952Y-38635428D01*
X10127810Y-38635428D01*
X10318286Y-38683047D01*
X10413524Y-38730666D01*
X10508762Y-38825904D01*
X10556381Y-38968762D01*
X10556381Y-39064000D01*
X10508762Y-39206857D01*
X10461143Y-39254476D01*
X10127810Y-39254476D01*
X10127810Y-39064000D01*
X9556381Y-39968762D02*
X10270667Y-39968762D01*
X10413524Y-39921142D01*
X10508762Y-39825904D01*
X10556381Y-39683047D01*
X10556381Y-39587809D01*
X9651619Y-40397333D02*
X9604000Y-40444952D01*
X9556381Y-40540190D01*
X9556381Y-40778286D01*
X9604000Y-40873524D01*
X9651619Y-40921143D01*
X9746857Y-40968762D01*
X9842095Y-40968762D01*
X9984952Y-40921143D01*
X10556381Y-40349714D01*
X10556381Y-40968762D01*
X10556381Y-41397333D02*
X9556381Y-41397333D01*
X9556381Y-41635428D01*
X9604000Y-41778286D01*
X9699238Y-41873524D01*
X9794476Y-41921143D01*
X9984952Y-41968762D01*
X10127810Y-41968762D01*
X10318286Y-41921143D01*
X10413524Y-41873524D01*
X10508762Y-41778286D01*
X10556381Y-41635428D01*
X10556381Y-41397333D01*
X9651619Y-42349714D02*
X9604000Y-42397333D01*
X9556381Y-42492571D01*
X9556381Y-42730667D01*
X9604000Y-42825905D01*
X9651619Y-42873524D01*
X9746857Y-42921143D01*
X9842095Y-42921143D01*
X9984952Y-42873524D01*
X10556381Y-42302095D01*
X10556381Y-42921143D01*
X9889714Y-43778286D02*
X10556381Y-43778286D01*
X9508762Y-43540190D02*
X10223048Y-43302095D01*
X10223048Y-43921143D01*
X10556381Y-44825905D02*
X10556381Y-44254476D01*
X10556381Y-44540190D02*
X9556381Y-44540190D01*
X9699238Y-44444952D01*
X9794476Y-44349714D01*
X9842095Y-44254476D01*
X9556381Y-45730667D02*
X9556381Y-45254476D01*
X10032571Y-45206857D01*
X9984952Y-45254476D01*
X9937333Y-45349714D01*
X9937333Y-45587810D01*
X9984952Y-45683048D01*
X10032571Y-45730667D01*
X10127810Y-45778286D01*
X10365905Y-45778286D01*
X10461143Y-45730667D01*
X10508762Y-45683048D01*
X10556381Y-45587810D01*
X10556381Y-45349714D01*
X10508762Y-45254476D01*
X10461143Y-45206857D01*
X9556381Y-46397333D02*
X9556381Y-46492572D01*
X9604000Y-46587810D01*
X9651619Y-46635429D01*
X9746857Y-46683048D01*
X9937333Y-46730667D01*
X10175429Y-46730667D01*
X10365905Y-46683048D01*
X10461143Y-46635429D01*
X10508762Y-46587810D01*
X10556381Y-46492572D01*
X10556381Y-46397333D01*
X10508762Y-46302095D01*
X10461143Y-46254476D01*
X10365905Y-46206857D01*
X10175429Y-46159238D01*
X9937333Y-46159238D01*
X9746857Y-46206857D01*
X9651619Y-46254476D01*
X9604000Y-46302095D01*
X9556381Y-46397333D01*
X10556381Y-47206857D02*
X10556381Y-47397333D01*
X10508762Y-47492572D01*
X10461143Y-47540191D01*
X10318286Y-47635429D01*
X10127810Y-47683048D01*
X9746857Y-47683048D01*
X9651619Y-47635429D01*
X9604000Y-47587810D01*
X9556381Y-47492572D01*
X9556381Y-47302095D01*
X9604000Y-47206857D01*
X9651619Y-47159238D01*
X9746857Y-47111619D01*
X9984952Y-47111619D01*
X10080190Y-47159238D01*
X10127810Y-47206857D01*
X10175429Y-47302095D01*
X10175429Y-47492572D01*
X10127810Y-47587810D01*
X10080190Y-47635429D01*
X9984952Y-47683048D01*
X10508762Y-48064000D02*
X10556381Y-48206857D01*
X10556381Y-48444953D01*
X10508762Y-48540191D01*
X10461143Y-48587810D01*
X10365905Y-48635429D01*
X10270667Y-48635429D01*
X10175429Y-48587810D01*
X10127810Y-48540191D01*
X10080190Y-48444953D01*
X10032571Y-48254476D01*
X9984952Y-48159238D01*
X9937333Y-48111619D01*
X9842095Y-48064000D01*
X9746857Y-48064000D01*
X9651619Y-48111619D01*
X9604000Y-48159238D01*
X9556381Y-48254476D01*
X9556381Y-48492572D01*
X9604000Y-48635429D01*
X10461143Y-49635429D02*
X10508762Y-49587810D01*
X10556381Y-49444953D01*
X10556381Y-49349715D01*
X10508762Y-49206857D01*
X10413524Y-49111619D01*
X10318286Y-49064000D01*
X10127810Y-49016381D01*
X9984952Y-49016381D01*
X9794476Y-49064000D01*
X9699238Y-49111619D01*
X9604000Y-49206857D01*
X9556381Y-49349715D01*
X9556381Y-49444953D01*
X9604000Y-49587810D01*
X9651619Y-49635429D01*
X5452381Y-45488095D02*
X6261905Y-45488095D01*
X6357143Y-45535714D01*
X6404762Y-45583333D01*
X6452381Y-45678571D01*
X6452381Y-45869048D01*
X6404762Y-45964286D01*
X6357143Y-46011905D01*
X6261905Y-46059524D01*
X5452381Y-46059524D01*
X5785714Y-46964286D02*
X6452381Y-46964286D01*
X5404762Y-46726190D02*
X6119048Y-46488095D01*
X6119048Y-47107143D01*
X10556381Y-1540190D02*
X9556381Y-1540190D01*
X10270667Y-1873524D01*
X9556381Y-2206857D01*
X10556381Y-2206857D01*
X9604000Y-3206857D02*
X9556381Y-3111619D01*
X9556381Y-2968762D01*
X9604000Y-2825904D01*
X9699238Y-2730666D01*
X9794476Y-2683047D01*
X9984952Y-2635428D01*
X10127810Y-2635428D01*
X10318286Y-2683047D01*
X10413524Y-2730666D01*
X10508762Y-2825904D01*
X10556381Y-2968762D01*
X10556381Y-3064000D01*
X10508762Y-3206857D01*
X10461143Y-3254476D01*
X10127810Y-3254476D01*
X10127810Y-3064000D01*
X9556381Y-3968762D02*
X10270667Y-3968762D01*
X10413524Y-3921142D01*
X10508762Y-3825904D01*
X10556381Y-3683047D01*
X10556381Y-3587809D01*
X9651619Y-4397333D02*
X9604000Y-4444952D01*
X9556381Y-4540190D01*
X9556381Y-4778286D01*
X9604000Y-4873524D01*
X9651619Y-4921143D01*
X9746857Y-4968762D01*
X9842095Y-4968762D01*
X9984952Y-4921143D01*
X10556381Y-4349714D01*
X10556381Y-4968762D01*
X10556381Y-5397333D02*
X9556381Y-5397333D01*
X9556381Y-5635428D01*
X9604000Y-5778286D01*
X9699238Y-5873524D01*
X9794476Y-5921143D01*
X9984952Y-5968762D01*
X10127810Y-5968762D01*
X10318286Y-5921143D01*
X10413524Y-5873524D01*
X10508762Y-5778286D01*
X10556381Y-5635428D01*
X10556381Y-5397333D01*
X9651619Y-6349714D02*
X9604000Y-6397333D01*
X9556381Y-6492571D01*
X9556381Y-6730667D01*
X9604000Y-6825905D01*
X9651619Y-6873524D01*
X9746857Y-6921143D01*
X9842095Y-6921143D01*
X9984952Y-6873524D01*
X10556381Y-6302095D01*
X10556381Y-6921143D01*
X9889714Y-7778286D02*
X10556381Y-7778286D01*
X9508762Y-7540190D02*
X10223048Y-7302095D01*
X10223048Y-7921143D01*
X10556381Y-8825905D02*
X10556381Y-8254476D01*
X10556381Y-8540190D02*
X9556381Y-8540190D01*
X9699238Y-8444952D01*
X9794476Y-8349714D01*
X9842095Y-8254476D01*
X9556381Y-9730667D02*
X9556381Y-9254476D01*
X10032571Y-9206857D01*
X9984952Y-9254476D01*
X9937333Y-9349714D01*
X9937333Y-9587810D01*
X9984952Y-9683048D01*
X10032571Y-9730667D01*
X10127810Y-9778286D01*
X10365905Y-9778286D01*
X10461143Y-9730667D01*
X10508762Y-9683048D01*
X10556381Y-9587810D01*
X10556381Y-9349714D01*
X10508762Y-9254476D01*
X10461143Y-9206857D01*
X9556381Y-10397333D02*
X9556381Y-10492572D01*
X9604000Y-10587810D01*
X9651619Y-10635429D01*
X9746857Y-10683048D01*
X9937333Y-10730667D01*
X10175429Y-10730667D01*
X10365905Y-10683048D01*
X10461143Y-10635429D01*
X10508762Y-10587810D01*
X10556381Y-10492572D01*
X10556381Y-10397333D01*
X10508762Y-10302095D01*
X10461143Y-10254476D01*
X10365905Y-10206857D01*
X10175429Y-10159238D01*
X9937333Y-10159238D01*
X9746857Y-10206857D01*
X9651619Y-10254476D01*
X9604000Y-10302095D01*
X9556381Y-10397333D01*
X10556381Y-11206857D02*
X10556381Y-11397333D01*
X10508762Y-11492572D01*
X10461143Y-11540191D01*
X10318286Y-11635429D01*
X10127810Y-11683048D01*
X9746857Y-11683048D01*
X9651619Y-11635429D01*
X9604000Y-11587810D01*
X9556381Y-11492572D01*
X9556381Y-11302095D01*
X9604000Y-11206857D01*
X9651619Y-11159238D01*
X9746857Y-11111619D01*
X9984952Y-11111619D01*
X10080190Y-11159238D01*
X10127810Y-11206857D01*
X10175429Y-11302095D01*
X10175429Y-11492572D01*
X10127810Y-11587810D01*
X10080190Y-11635429D01*
X9984952Y-11683048D01*
X10508762Y-12064000D02*
X10556381Y-12206857D01*
X10556381Y-12444953D01*
X10508762Y-12540191D01*
X10461143Y-12587810D01*
X10365905Y-12635429D01*
X10270667Y-12635429D01*
X10175429Y-12587810D01*
X10127810Y-12540191D01*
X10080190Y-12444953D01*
X10032571Y-12254476D01*
X9984952Y-12159238D01*
X9937333Y-12111619D01*
X9842095Y-12064000D01*
X9746857Y-12064000D01*
X9651619Y-12111619D01*
X9604000Y-12159238D01*
X9556381Y-12254476D01*
X9556381Y-12492572D01*
X9604000Y-12635429D01*
X10461143Y-13635429D02*
X10508762Y-13587810D01*
X10556381Y-13444953D01*
X10556381Y-13349715D01*
X10508762Y-13206857D01*
X10413524Y-13111619D01*
X10318286Y-13064000D01*
X10127810Y-13016381D01*
X9984952Y-13016381D01*
X9794476Y-13064000D01*
X9699238Y-13111619D01*
X9604000Y-13206857D01*
X9556381Y-13349715D01*
X9556381Y-13444953D01*
X9604000Y-13587810D01*
X9651619Y-13635429D01*
X5452381Y-9488095D02*
X6261905Y-9488095D01*
X6357143Y-9535714D01*
X6404762Y-9583333D01*
X6452381Y-9678571D01*
X6452381Y-9869048D01*
X6404762Y-9964286D01*
X6357143Y-10011905D01*
X6261905Y-10059524D01*
X5452381Y-10059524D01*
X5547619Y-10488095D02*
X5500000Y-10535714D01*
X5452381Y-10630952D01*
X5452381Y-10869048D01*
X5500000Y-10964286D01*
X5547619Y-11011905D01*
X5642857Y-11059524D01*
X5738095Y-11059524D01*
X5880952Y-11011905D01*
X6452381Y-10440476D01*
X6452381Y-11059524D01*
M02*
