M48
;DRILL file {KiCad 4.0.7} date 05/17/18 12:20:17
;FORMAT={-:-/ absolute / metric / decimal}
FMAT,2
METRIC,TZ
T1C0.800
T2C1.000
T3C1.199
T4C1.200
T5C3.500
%
G90
G05
M71
T1
X3.5Y-35.75
X12.5Y-12.5
X12.5Y-14.75
X12.5Y-19.5
X12.5Y-22.5
X12.5Y-35.5
X12.5Y-42.5
X12.5Y-45.5
X25.Y-24.25
X25.5Y-26.
X25.5Y-28.5
X28.5Y-28.5
T2
X3.5Y-3.5
X3.5Y-6.04
X3.5Y-13.66
X3.5Y-16.2
X3.5Y-18.74
X3.5Y-39.5
X3.5Y-42.04
X3.5Y-49.66
X3.5Y-52.2
X3.5Y-54.74
T3
X28.Y-13.595
X28.Y-17.405
X28.Y-21.5
X28.Y-36.095
X28.Y-39.905
X28.Y-44.
T4
X3.5Y-25.
X3.5Y-27.54
X3.5Y-30.08
X3.5Y-32.62
T5
X15.Y-6.
X15.Y-52.
T0
M30
