G04 #@! TF.FileFunction,Copper,L2,Bot,Signal*
%FSLAX46Y46*%
G04 Gerber Fmt 4.6, Leading zero omitted, Abs format (unit mm)*
G04 Created by KiCad (PCBNEW 4.0.7) date 05/09/18 13:26:44*
%MOMM*%
%LPD*%
G01*
G04 APERTURE LIST*
%ADD10C,0.100000*%
%ADD11C,0.150000*%
%ADD12C,0.300000*%
%ADD13C,0.400000*%
%ADD14C,5.001260*%
%ADD15R,1.800000X1.800000*%
%ADD16O,1.800000X1.800000*%
%ADD17C,7.000000*%
%ADD18C,1.800000*%
%ADD19C,0.254000*%
G04 APERTURE END LIST*
D10*
D11*
X177002200Y-166007200D02*
X177002200Y-198007200D01*
X285002200Y-198007200D01*
X285002200Y-166007200D01*
X177002200Y-166007200D01*
D10*
D11*
X10000000Y-10000000D02*
X10000000Y-200007200D01*
X287002200Y-200007200D01*
X287002200Y-10000000D01*
X10000000Y-10000000D01*
D10*
D11*
X12000000Y-12000000D02*
X12000000Y-198007200D01*
X285002200Y-198007200D01*
X285002200Y-12000000D01*
X12000000Y-12000000D01*
D10*
D11*
X60000000Y-12000000D02*
X60000000Y-10000000D01*
D10*
D11*
X110000000Y-12000000D02*
X110000000Y-10000000D01*
D10*
D11*
X160000000Y-12000000D02*
X160000000Y-10000000D01*
D10*
D11*
X210000000Y-12000000D02*
X210000000Y-10000000D01*
D10*
D11*
X260000000Y-12000000D02*
X260000000Y-10000000D01*
D10*
D11*
X35990476Y-11588095D02*
X35247619Y-11588095D01*
X35619048Y-11588095D02*
X35619048Y-10288095D01*
X35495238Y-10473810D01*
X35371429Y-10597619D01*
X35247619Y-10659524D01*
D10*
D11*
X85247619Y-10411905D02*
X85309524Y-10350000D01*
X85433333Y-10288095D01*
X85742857Y-10288095D01*
X85866667Y-10350000D01*
X85928571Y-10411905D01*
X85990476Y-10535714D01*
X85990476Y-10659524D01*
X85928571Y-10845238D01*
X85185714Y-11588095D01*
X85990476Y-11588095D01*
D10*
D11*
X135185714Y-10288095D02*
X135990476Y-10288095D01*
X135557143Y-10783333D01*
X135742857Y-10783333D01*
X135866667Y-10845238D01*
X135928571Y-10907143D01*
X135990476Y-11030952D01*
X135990476Y-11340476D01*
X135928571Y-11464286D01*
X135866667Y-11526190D01*
X135742857Y-11588095D01*
X135371429Y-11588095D01*
X135247619Y-11526190D01*
X135185714Y-11464286D01*
D10*
D11*
X185866667Y-10721429D02*
X185866667Y-11588095D01*
X185557143Y-10226190D02*
X185247619Y-11154762D01*
X186052381Y-11154762D01*
D10*
D11*
X235928571Y-10288095D02*
X235309524Y-10288095D01*
X235247619Y-10907143D01*
X235309524Y-10845238D01*
X235433333Y-10783333D01*
X235742857Y-10783333D01*
X235866667Y-10845238D01*
X235928571Y-10907143D01*
X235990476Y-11030952D01*
X235990476Y-11340476D01*
X235928571Y-11464286D01*
X235866667Y-11526190D01*
X235742857Y-11588095D01*
X235433333Y-11588095D01*
X235309524Y-11526190D01*
X235247619Y-11464286D01*
D10*
D11*
X285866667Y-10288095D02*
X285619048Y-10288095D01*
X285495238Y-10350000D01*
X285433333Y-10411905D01*
X285309524Y-10597619D01*
X285247619Y-10845238D01*
X285247619Y-11340476D01*
X285309524Y-11464286D01*
X285371429Y-11526190D01*
X285495238Y-11588095D01*
X285742857Y-11588095D01*
X285866667Y-11526190D01*
X285928571Y-11464286D01*
X285990476Y-11340476D01*
X285990476Y-11030952D01*
X285928571Y-10907143D01*
X285866667Y-10845238D01*
X285742857Y-10783333D01*
X285495238Y-10783333D01*
X285371429Y-10845238D01*
X285309524Y-10907143D01*
X285247619Y-11030952D01*
D10*
D11*
X60000000Y-198007200D02*
X60000000Y-200007200D01*
D10*
D11*
X110000000Y-198007200D02*
X110000000Y-200007200D01*
D10*
D11*
X160000000Y-198007200D02*
X160000000Y-200007200D01*
D10*
D11*
X210000000Y-198007200D02*
X210000000Y-200007200D01*
D10*
D11*
X260000000Y-198007200D02*
X260000000Y-200007200D01*
D10*
D11*
X35990476Y-199595295D02*
X35247619Y-199595295D01*
X35619048Y-199595295D02*
X35619048Y-198295295D01*
X35495238Y-198481010D01*
X35371429Y-198604819D01*
X35247619Y-198666724D01*
D10*
D11*
X85247619Y-198419105D02*
X85309524Y-198357200D01*
X85433333Y-198295295D01*
X85742857Y-198295295D01*
X85866667Y-198357200D01*
X85928571Y-198419105D01*
X85990476Y-198542914D01*
X85990476Y-198666724D01*
X85928571Y-198852438D01*
X85185714Y-199595295D01*
X85990476Y-199595295D01*
D10*
D11*
X135185714Y-198295295D02*
X135990476Y-198295295D01*
X135557143Y-198790533D01*
X135742857Y-198790533D01*
X135866667Y-198852438D01*
X135928571Y-198914343D01*
X135990476Y-199038152D01*
X135990476Y-199347676D01*
X135928571Y-199471486D01*
X135866667Y-199533390D01*
X135742857Y-199595295D01*
X135371429Y-199595295D01*
X135247619Y-199533390D01*
X135185714Y-199471486D01*
D10*
D11*
X185866667Y-198728629D02*
X185866667Y-199595295D01*
X185557143Y-198233390D02*
X185247619Y-199161962D01*
X186052381Y-199161962D01*
D10*
D11*
X235928571Y-198295295D02*
X235309524Y-198295295D01*
X235247619Y-198914343D01*
X235309524Y-198852438D01*
X235433333Y-198790533D01*
X235742857Y-198790533D01*
X235866667Y-198852438D01*
X235928571Y-198914343D01*
X235990476Y-199038152D01*
X235990476Y-199347676D01*
X235928571Y-199471486D01*
X235866667Y-199533390D01*
X235742857Y-199595295D01*
X235433333Y-199595295D01*
X235309524Y-199533390D01*
X235247619Y-199471486D01*
D10*
D11*
X285866667Y-198295295D02*
X285619048Y-198295295D01*
X285495238Y-198357200D01*
X285433333Y-198419105D01*
X285309524Y-198604819D01*
X285247619Y-198852438D01*
X285247619Y-199347676D01*
X285309524Y-199471486D01*
X285371429Y-199533390D01*
X285495238Y-199595295D01*
X285742857Y-199595295D01*
X285866667Y-199533390D01*
X285928571Y-199471486D01*
X285990476Y-199347676D01*
X285990476Y-199038152D01*
X285928571Y-198914343D01*
X285866667Y-198852438D01*
X285742857Y-198790533D01*
X285495238Y-198790533D01*
X285371429Y-198852438D01*
X285309524Y-198914343D01*
X285247619Y-199038152D01*
D10*
D11*
X10000000Y-60000000D02*
X12000000Y-60000000D01*
D10*
D11*
X10000000Y-110000000D02*
X12000000Y-110000000D01*
D10*
D11*
X10000000Y-160000000D02*
X12000000Y-160000000D01*
D10*
D11*
X10690476Y-35216667D02*
X11309524Y-35216667D01*
X10566667Y-35588095D02*
X11000000Y-34288095D01*
X11433333Y-35588095D01*
D10*
D11*
X11092857Y-84907143D02*
X11278571Y-84969048D01*
X11340476Y-85030952D01*
X11402381Y-85154762D01*
X11402381Y-85340476D01*
X11340476Y-85464286D01*
X11278571Y-85526190D01*
X11154762Y-85588095D01*
X10659524Y-85588095D01*
X10659524Y-84288095D01*
X11092857Y-84288095D01*
X11216667Y-84350000D01*
X11278571Y-84411905D01*
X11340476Y-84535714D01*
X11340476Y-84659524D01*
X11278571Y-84783333D01*
X11216667Y-84845238D01*
X11092857Y-84907143D01*
X10659524Y-84907143D01*
D10*
D11*
X11402381Y-135464286D02*
X11340476Y-135526190D01*
X11154762Y-135588095D01*
X11030952Y-135588095D01*
X10845238Y-135526190D01*
X10721429Y-135402381D01*
X10659524Y-135278571D01*
X10597619Y-135030952D01*
X10597619Y-134845238D01*
X10659524Y-134597619D01*
X10721429Y-134473810D01*
X10845238Y-134350000D01*
X11030952Y-134288095D01*
X11154762Y-134288095D01*
X11340476Y-134350000D01*
X11402381Y-134411905D01*
D10*
D11*
X10659524Y-185588095D02*
X10659524Y-184288095D01*
X10969048Y-184288095D01*
X11154762Y-184350000D01*
X11278571Y-184473810D01*
X11340476Y-184597619D01*
X11402381Y-184845238D01*
X11402381Y-185030952D01*
X11340476Y-185278571D01*
X11278571Y-185402381D01*
X11154762Y-185526190D01*
X10969048Y-185588095D01*
X10659524Y-185588095D01*
D10*
D11*
X287002200Y-60000000D02*
X285002200Y-60000000D01*
D10*
D11*
X287002200Y-110000000D02*
X285002200Y-110000000D01*
D10*
D11*
X287002200Y-160000000D02*
X285002200Y-160000000D01*
D10*
D11*
X285692676Y-35216667D02*
X286311724Y-35216667D01*
X285568867Y-35588095D02*
X286002200Y-34288095D01*
X286435533Y-35588095D01*
D10*
D11*
X286095057Y-84907143D02*
X286280771Y-84969048D01*
X286342676Y-85030952D01*
X286404581Y-85154762D01*
X286404581Y-85340476D01*
X286342676Y-85464286D01*
X286280771Y-85526190D01*
X286156962Y-85588095D01*
X285661724Y-85588095D01*
X285661724Y-84288095D01*
X286095057Y-84288095D01*
X286218867Y-84350000D01*
X286280771Y-84411905D01*
X286342676Y-84535714D01*
X286342676Y-84659524D01*
X286280771Y-84783333D01*
X286218867Y-84845238D01*
X286095057Y-84907143D01*
X285661724Y-84907143D01*
D10*
D11*
X286404581Y-135464286D02*
X286342676Y-135526190D01*
X286156962Y-135588095D01*
X286033152Y-135588095D01*
X285847438Y-135526190D01*
X285723629Y-135402381D01*
X285661724Y-135278571D01*
X285599819Y-135030952D01*
X285599819Y-134845238D01*
X285661724Y-134597619D01*
X285723629Y-134473810D01*
X285847438Y-134350000D01*
X286033152Y-134288095D01*
X286156962Y-134288095D01*
X286342676Y-134350000D01*
X286404581Y-134411905D01*
D10*
D11*
X285661724Y-185588095D02*
X285661724Y-184288095D01*
X285971248Y-184288095D01*
X286156962Y-184350000D01*
X286280771Y-184473810D01*
X286342676Y-184597619D01*
X286404581Y-184845238D01*
X286404581Y-185030952D01*
X286342676Y-185278571D01*
X286280771Y-185402381D01*
X286156962Y-185526190D01*
X285971248Y-185588095D01*
X285661724Y-185588095D01*
D10*
D11*
X200359343Y-193785771D02*
X200359343Y-192285771D01*
X200716486Y-192285771D01*
X200930771Y-192357200D01*
X201073629Y-192500057D01*
X201145057Y-192642914D01*
X201216486Y-192928629D01*
X201216486Y-193142914D01*
X201145057Y-193428629D01*
X201073629Y-193571486D01*
X200930771Y-193714343D01*
X200716486Y-193785771D01*
X200359343Y-193785771D01*
X202502200Y-193785771D02*
X202502200Y-193000057D01*
X202430771Y-192857200D01*
X202287914Y-192785771D01*
X202002200Y-192785771D01*
X201859343Y-192857200D01*
X202502200Y-193714343D02*
X202359343Y-193785771D01*
X202002200Y-193785771D01*
X201859343Y-193714343D01*
X201787914Y-193571486D01*
X201787914Y-193428629D01*
X201859343Y-193285771D01*
X202002200Y-193214343D01*
X202359343Y-193214343D01*
X202502200Y-193142914D01*
X203002200Y-192785771D02*
X203573629Y-192785771D01*
X203216486Y-192285771D02*
X203216486Y-193571486D01*
X203287914Y-193714343D01*
X203430772Y-193785771D01*
X203573629Y-193785771D01*
X204645057Y-193714343D02*
X204502200Y-193785771D01*
X204216486Y-193785771D01*
X204073629Y-193714343D01*
X204002200Y-193571486D01*
X204002200Y-193000057D01*
X204073629Y-192857200D01*
X204216486Y-192785771D01*
X204502200Y-192785771D01*
X204645057Y-192857200D01*
X204716486Y-193000057D01*
X204716486Y-193142914D01*
X204002200Y-193285771D01*
X205359343Y-193642914D02*
X205430771Y-193714343D01*
X205359343Y-193785771D01*
X205287914Y-193714343D01*
X205359343Y-193642914D01*
X205359343Y-193785771D01*
X205359343Y-192857200D02*
X205430771Y-192928629D01*
X205359343Y-193000057D01*
X205287914Y-192928629D01*
X205359343Y-192857200D01*
X205359343Y-193000057D01*
D10*
D11*
X177002200Y-194507200D02*
X285002200Y-194507200D01*
D10*
D11*
X178359343Y-196585771D02*
X178359343Y-195085771D01*
X179216486Y-196585771D02*
X178573629Y-195728629D01*
X179216486Y-195085771D02*
X178359343Y-195942914D01*
X179859343Y-196585771D02*
X179859343Y-195585771D01*
X179859343Y-195085771D02*
X179787914Y-195157200D01*
X179859343Y-195228629D01*
X179930771Y-195157200D01*
X179859343Y-195085771D01*
X179859343Y-195228629D01*
X181430772Y-196442914D02*
X181359343Y-196514343D01*
X181145057Y-196585771D01*
X181002200Y-196585771D01*
X180787915Y-196514343D01*
X180645057Y-196371486D01*
X180573629Y-196228629D01*
X180502200Y-195942914D01*
X180502200Y-195728629D01*
X180573629Y-195442914D01*
X180645057Y-195300057D01*
X180787915Y-195157200D01*
X181002200Y-195085771D01*
X181145057Y-195085771D01*
X181359343Y-195157200D01*
X181430772Y-195228629D01*
X182716486Y-196585771D02*
X182716486Y-195800057D01*
X182645057Y-195657200D01*
X182502200Y-195585771D01*
X182216486Y-195585771D01*
X182073629Y-195657200D01*
X182716486Y-196514343D02*
X182573629Y-196585771D01*
X182216486Y-196585771D01*
X182073629Y-196514343D01*
X182002200Y-196371486D01*
X182002200Y-196228629D01*
X182073629Y-196085771D01*
X182216486Y-196014343D01*
X182573629Y-196014343D01*
X182716486Y-195942914D01*
X184073629Y-196585771D02*
X184073629Y-195085771D01*
X184073629Y-196514343D02*
X183930772Y-196585771D01*
X183645058Y-196585771D01*
X183502200Y-196514343D01*
X183430772Y-196442914D01*
X183359343Y-196300057D01*
X183359343Y-195871486D01*
X183430772Y-195728629D01*
X183502200Y-195657200D01*
X183645058Y-195585771D01*
X183930772Y-195585771D01*
X184073629Y-195657200D01*
X185930772Y-195800057D02*
X186430772Y-195800057D01*
X186645058Y-196585771D02*
X185930772Y-196585771D01*
X185930772Y-195085771D01*
X186645058Y-195085771D01*
X187287915Y-196442914D02*
X187359343Y-196514343D01*
X187287915Y-196585771D01*
X187216486Y-196514343D01*
X187287915Y-196442914D01*
X187287915Y-196585771D01*
X188002201Y-196585771D02*
X188002201Y-195085771D01*
X188359344Y-195085771D01*
X188573629Y-195157200D01*
X188716487Y-195300057D01*
X188787915Y-195442914D01*
X188859344Y-195728629D01*
X188859344Y-195942914D01*
X188787915Y-196228629D01*
X188716487Y-196371486D01*
X188573629Y-196514343D01*
X188359344Y-196585771D01*
X188002201Y-196585771D01*
X189502201Y-196442914D02*
X189573629Y-196514343D01*
X189502201Y-196585771D01*
X189430772Y-196514343D01*
X189502201Y-196442914D01*
X189502201Y-196585771D01*
X190145058Y-196157200D02*
X190859344Y-196157200D01*
X190002201Y-196585771D02*
X190502201Y-195085771D01*
X191002201Y-196585771D01*
X191502201Y-196442914D02*
X191573629Y-196514343D01*
X191502201Y-196585771D01*
X191430772Y-196514343D01*
X191502201Y-196442914D01*
X191502201Y-196585771D01*
X194502201Y-196585771D02*
X194502201Y-195085771D01*
X194645058Y-196014343D02*
X195073629Y-196585771D01*
X195073629Y-195585771D02*
X194502201Y-196157200D01*
X195716487Y-196585771D02*
X195716487Y-195585771D01*
X195716487Y-195085771D02*
X195645058Y-195157200D01*
X195716487Y-195228629D01*
X195787915Y-195157200D01*
X195716487Y-195085771D01*
X195716487Y-195228629D01*
X197073630Y-196514343D02*
X196930773Y-196585771D01*
X196645059Y-196585771D01*
X196502201Y-196514343D01*
X196430773Y-196442914D01*
X196359344Y-196300057D01*
X196359344Y-195871486D01*
X196430773Y-195728629D01*
X196502201Y-195657200D01*
X196645059Y-195585771D01*
X196930773Y-195585771D01*
X197073630Y-195657200D01*
X198359344Y-196585771D02*
X198359344Y-195800057D01*
X198287915Y-195657200D01*
X198145058Y-195585771D01*
X197859344Y-195585771D01*
X197716487Y-195657200D01*
X198359344Y-196514343D02*
X198216487Y-196585771D01*
X197859344Y-196585771D01*
X197716487Y-196514343D01*
X197645058Y-196371486D01*
X197645058Y-196228629D01*
X197716487Y-196085771D01*
X197859344Y-196014343D01*
X198216487Y-196014343D01*
X198359344Y-195942914D01*
X199716487Y-196585771D02*
X199716487Y-195085771D01*
X199716487Y-196514343D02*
X199573630Y-196585771D01*
X199287916Y-196585771D01*
X199145058Y-196514343D01*
X199073630Y-196442914D01*
X199002201Y-196300057D01*
X199002201Y-195871486D01*
X199073630Y-195728629D01*
X199145058Y-195657200D01*
X199287916Y-195585771D01*
X199573630Y-195585771D01*
X199716487Y-195657200D01*
X202216487Y-195585771D02*
X202216487Y-196585771D01*
X201859344Y-195014343D02*
X201502201Y-196085771D01*
X202430773Y-196085771D01*
X203002201Y-196442914D02*
X203073629Y-196514343D01*
X203002201Y-196585771D01*
X202930772Y-196514343D01*
X203002201Y-196442914D01*
X203002201Y-196585771D01*
X204002201Y-195085771D02*
X204145058Y-195085771D01*
X204287915Y-195157200D01*
X204359344Y-195228629D01*
X204430773Y-195371486D01*
X204502201Y-195657200D01*
X204502201Y-196014343D01*
X204430773Y-196300057D01*
X204359344Y-196442914D01*
X204287915Y-196514343D01*
X204145058Y-196585771D01*
X204002201Y-196585771D01*
X203859344Y-196514343D01*
X203787915Y-196442914D01*
X203716487Y-196300057D01*
X203645058Y-196014343D01*
X203645058Y-195657200D01*
X203716487Y-195371486D01*
X203787915Y-195228629D01*
X203859344Y-195157200D01*
X204002201Y-195085771D01*
X205145058Y-196442914D02*
X205216486Y-196514343D01*
X205145058Y-196585771D01*
X205073629Y-196514343D01*
X205145058Y-196442914D01*
X205145058Y-196585771D01*
X205716487Y-195085771D02*
X206716487Y-195085771D01*
X206073630Y-196585771D01*
D10*
D11*
X177002200Y-191507200D02*
X285002200Y-191507200D01*
D10*
D12*
X264216486Y-193785771D02*
X263716486Y-193071486D01*
X263359343Y-193785771D02*
X263359343Y-192285771D01*
X263930771Y-192285771D01*
X264073629Y-192357200D01*
X264145057Y-192428629D01*
X264216486Y-192571486D01*
X264216486Y-192785771D01*
X264145057Y-192928629D01*
X264073629Y-193000057D01*
X263930771Y-193071486D01*
X263359343Y-193071486D01*
X265430771Y-193714343D02*
X265287914Y-193785771D01*
X265002200Y-193785771D01*
X264859343Y-193714343D01*
X264787914Y-193571486D01*
X264787914Y-193000057D01*
X264859343Y-192857200D01*
X265002200Y-192785771D01*
X265287914Y-192785771D01*
X265430771Y-192857200D01*
X265502200Y-193000057D01*
X265502200Y-193142914D01*
X264787914Y-193285771D01*
X266002200Y-192785771D02*
X266359343Y-193785771D01*
X266716485Y-192785771D01*
X267287914Y-193642914D02*
X267359342Y-193714343D01*
X267287914Y-193785771D01*
X267216485Y-193714343D01*
X267287914Y-193642914D01*
X267287914Y-193785771D01*
X267287914Y-192857200D02*
X267359342Y-192928629D01*
X267287914Y-193000057D01*
X267216485Y-192928629D01*
X267287914Y-192857200D01*
X267287914Y-193000057D01*
D10*
D11*
X178287914Y-193714343D02*
X178502200Y-193785771D01*
X178859343Y-193785771D01*
X179002200Y-193714343D01*
X179073629Y-193642914D01*
X179145057Y-193500057D01*
X179145057Y-193357200D01*
X179073629Y-193214343D01*
X179002200Y-193142914D01*
X178859343Y-193071486D01*
X178573629Y-193000057D01*
X178430771Y-192928629D01*
X178359343Y-192857200D01*
X178287914Y-192714343D01*
X178287914Y-192571486D01*
X178359343Y-192428629D01*
X178430771Y-192357200D01*
X178573629Y-192285771D01*
X178930771Y-192285771D01*
X179145057Y-192357200D01*
X179787914Y-193785771D02*
X179787914Y-192785771D01*
X179787914Y-192285771D02*
X179716485Y-192357200D01*
X179787914Y-192428629D01*
X179859342Y-192357200D01*
X179787914Y-192285771D01*
X179787914Y-192428629D01*
X180359343Y-192785771D02*
X181145057Y-192785771D01*
X180359343Y-193785771D01*
X181145057Y-193785771D01*
X182287914Y-193714343D02*
X182145057Y-193785771D01*
X181859343Y-193785771D01*
X181716486Y-193714343D01*
X181645057Y-193571486D01*
X181645057Y-193000057D01*
X181716486Y-192857200D01*
X181859343Y-192785771D01*
X182145057Y-192785771D01*
X182287914Y-192857200D01*
X182359343Y-193000057D01*
X182359343Y-193142914D01*
X181645057Y-193285771D01*
X183002200Y-193642914D02*
X183073628Y-193714343D01*
X183002200Y-193785771D01*
X182930771Y-193714343D01*
X183002200Y-193642914D01*
X183002200Y-193785771D01*
X183002200Y-192857200D02*
X183073628Y-192928629D01*
X183002200Y-193000057D01*
X182930771Y-192928629D01*
X183002200Y-192857200D01*
X183002200Y-193000057D01*
X184787914Y-193357200D02*
X185502200Y-193357200D01*
X184645057Y-193785771D02*
X185145057Y-192285771D01*
X185645057Y-193785771D01*
X186787914Y-192785771D02*
X186787914Y-193785771D01*
X186430771Y-192214343D02*
X186073628Y-193285771D01*
X187002200Y-193285771D01*
D10*
D11*
X263359343Y-196585771D02*
X263359343Y-195085771D01*
X264716486Y-196585771D02*
X264716486Y-195085771D01*
X264716486Y-196514343D02*
X264573629Y-196585771D01*
X264287915Y-196585771D01*
X264145057Y-196514343D01*
X264073629Y-196442914D01*
X264002200Y-196300057D01*
X264002200Y-195871486D01*
X264073629Y-195728629D01*
X264145057Y-195657200D01*
X264287915Y-195585771D01*
X264573629Y-195585771D01*
X264716486Y-195657200D01*
X265430772Y-196442914D02*
X265502200Y-196514343D01*
X265430772Y-196585771D01*
X265359343Y-196514343D01*
X265430772Y-196442914D01*
X265430772Y-196585771D01*
X265430772Y-195657200D02*
X265502200Y-195728629D01*
X265430772Y-195800057D01*
X265359343Y-195728629D01*
X265430772Y-195657200D01*
X265430772Y-195800057D01*
X268073629Y-196585771D02*
X267216486Y-196585771D01*
X267645058Y-196585771D02*
X267645058Y-195085771D01*
X267502201Y-195300057D01*
X267359343Y-195442914D01*
X267216486Y-195514343D01*
X269787914Y-195014343D02*
X268502200Y-196942914D01*
X271073629Y-196585771D02*
X270216486Y-196585771D01*
X270645058Y-196585771D02*
X270645058Y-195085771D01*
X270502201Y-195300057D01*
X270359343Y-195442914D01*
X270216486Y-195514343D01*
D10*
D11*
X177002200Y-187507200D02*
X285002200Y-187507200D01*
D10*
D13*
X178454581Y-188211962D02*
X179597438Y-188211962D01*
X178776010Y-190211962D02*
X179026010Y-188211962D01*
X180014105Y-190211962D02*
X180180771Y-188878629D01*
X180264105Y-188211962D02*
X180156962Y-188307200D01*
X180240295Y-188402438D01*
X180347439Y-188307200D01*
X180264105Y-188211962D01*
X180240295Y-188402438D01*
X180847438Y-188878629D02*
X181609343Y-188878629D01*
X181216486Y-188211962D02*
X181002200Y-189926248D01*
X181073630Y-190116724D01*
X181252201Y-190211962D01*
X181442677Y-190211962D01*
X182395058Y-190211962D02*
X182216487Y-190116724D01*
X182145057Y-189926248D01*
X182359343Y-188211962D01*
X183930772Y-190116724D02*
X183728391Y-190211962D01*
X183347439Y-190211962D01*
X183168867Y-190116724D01*
X183097438Y-189926248D01*
X183192676Y-189164343D01*
X183311724Y-188973867D01*
X183514105Y-188878629D01*
X183895057Y-188878629D01*
X184073629Y-188973867D01*
X184145057Y-189164343D01*
X184121248Y-189354819D01*
X183145057Y-189545295D01*
X184895057Y-190021486D02*
X184978392Y-190116724D01*
X184871248Y-190211962D01*
X184787915Y-190116724D01*
X184895057Y-190021486D01*
X184871248Y-190211962D01*
X185026010Y-188973867D02*
X185109344Y-189069105D01*
X185002200Y-189164343D01*
X184918867Y-189069105D01*
X185026010Y-188973867D01*
X185002200Y-189164343D01*
D10*
D11*
X178859343Y-185600057D02*
X178359343Y-185600057D01*
X178359343Y-186385771D02*
X178359343Y-184885771D01*
X179073629Y-184885771D01*
X179645057Y-186385771D02*
X179645057Y-185385771D01*
X179645057Y-184885771D02*
X179573628Y-184957200D01*
X179645057Y-185028629D01*
X179716485Y-184957200D01*
X179645057Y-184885771D01*
X179645057Y-185028629D01*
X180573629Y-186385771D02*
X180430771Y-186314343D01*
X180359343Y-186171486D01*
X180359343Y-184885771D01*
X181716485Y-186314343D02*
X181573628Y-186385771D01*
X181287914Y-186385771D01*
X181145057Y-186314343D01*
X181073628Y-186171486D01*
X181073628Y-185600057D01*
X181145057Y-185457200D01*
X181287914Y-185385771D01*
X181573628Y-185385771D01*
X181716485Y-185457200D01*
X181787914Y-185600057D01*
X181787914Y-185742914D01*
X181073628Y-185885771D01*
X182430771Y-186242914D02*
X182502199Y-186314343D01*
X182430771Y-186385771D01*
X182359342Y-186314343D01*
X182430771Y-186242914D01*
X182430771Y-186385771D01*
X182430771Y-185457200D02*
X182502199Y-185528629D01*
X182430771Y-185600057D01*
X182359342Y-185528629D01*
X182430771Y-185457200D01*
X182430771Y-185600057D01*
X184287914Y-184885771D02*
X184287914Y-186100057D01*
X184359342Y-186242914D01*
X184430771Y-186314343D01*
X184573628Y-186385771D01*
X184859342Y-186385771D01*
X185002200Y-186314343D01*
X185073628Y-186242914D01*
X185145057Y-186100057D01*
X185145057Y-184885771D01*
X186502200Y-186314343D02*
X186359343Y-186385771D01*
X186073629Y-186385771D01*
X185930771Y-186314343D01*
X185859343Y-186242914D01*
X185787914Y-186100057D01*
X185787914Y-185671486D01*
X185859343Y-185528629D01*
X185930771Y-185457200D01*
X186073629Y-185385771D01*
X186359343Y-185385771D01*
X186502200Y-185457200D01*
X187716485Y-186314343D02*
X187573628Y-186385771D01*
X187287914Y-186385771D01*
X187145057Y-186314343D01*
X187073628Y-186171486D01*
X187073628Y-185600057D01*
X187145057Y-185457200D01*
X187287914Y-185385771D01*
X187573628Y-185385771D01*
X187716485Y-185457200D01*
X187787914Y-185600057D01*
X187787914Y-185742914D01*
X187073628Y-185885771D01*
X188430771Y-185385771D02*
X188430771Y-186385771D01*
X188430771Y-185528629D02*
X188502199Y-185457200D01*
X188645057Y-185385771D01*
X188859342Y-185385771D01*
X189002199Y-185457200D01*
X189073628Y-185600057D01*
X189073628Y-186385771D01*
X189787914Y-185385771D02*
X189787914Y-186671486D01*
X189716485Y-186814343D01*
X189573628Y-186885771D01*
X189502200Y-186885771D01*
X189787914Y-184885771D02*
X189716485Y-184957200D01*
X189787914Y-185028629D01*
X189859342Y-184957200D01*
X189787914Y-184885771D01*
X189787914Y-185028629D01*
X191073628Y-186314343D02*
X190930771Y-186385771D01*
X190645057Y-186385771D01*
X190502200Y-186314343D01*
X190430771Y-186171486D01*
X190430771Y-185600057D01*
X190502200Y-185457200D01*
X190645057Y-185385771D01*
X190930771Y-185385771D01*
X191073628Y-185457200D01*
X191145057Y-185600057D01*
X191145057Y-185742914D01*
X190430771Y-185885771D01*
X191787914Y-186242914D02*
X191859342Y-186314343D01*
X191787914Y-186385771D01*
X191716485Y-186314343D01*
X191787914Y-186242914D01*
X191787914Y-186385771D01*
X192502200Y-186385771D02*
X192502200Y-184885771D01*
X192645057Y-185814343D02*
X193073628Y-186385771D01*
X193073628Y-185385771D02*
X192502200Y-185957200D01*
X193716486Y-186385771D02*
X193716486Y-185385771D01*
X193716486Y-184885771D02*
X193645057Y-184957200D01*
X193716486Y-185028629D01*
X193787914Y-184957200D01*
X193716486Y-184885771D01*
X193716486Y-185028629D01*
X195073629Y-186314343D02*
X194930772Y-186385771D01*
X194645058Y-186385771D01*
X194502200Y-186314343D01*
X194430772Y-186242914D01*
X194359343Y-186100057D01*
X194359343Y-185671486D01*
X194430772Y-185528629D01*
X194502200Y-185457200D01*
X194645058Y-185385771D01*
X194930772Y-185385771D01*
X195073629Y-185457200D01*
X196359343Y-186385771D02*
X196359343Y-185600057D01*
X196287914Y-185457200D01*
X196145057Y-185385771D01*
X195859343Y-185385771D01*
X195716486Y-185457200D01*
X196359343Y-186314343D02*
X196216486Y-186385771D01*
X195859343Y-186385771D01*
X195716486Y-186314343D01*
X195645057Y-186171486D01*
X195645057Y-186028629D01*
X195716486Y-185885771D01*
X195859343Y-185814343D01*
X196216486Y-185814343D01*
X196359343Y-185742914D01*
X197716486Y-186385771D02*
X197716486Y-184885771D01*
X197716486Y-186314343D02*
X197573629Y-186385771D01*
X197287915Y-186385771D01*
X197145057Y-186314343D01*
X197073629Y-186242914D01*
X197002200Y-186100057D01*
X197002200Y-185671486D01*
X197073629Y-185528629D01*
X197145057Y-185457200D01*
X197287915Y-185385771D01*
X197573629Y-185385771D01*
X197716486Y-185457200D01*
X198073629Y-186528629D02*
X199216486Y-186528629D01*
X199573629Y-185385771D02*
X199573629Y-186885771D01*
X199573629Y-185457200D02*
X199716486Y-185385771D01*
X200002200Y-185385771D01*
X200145057Y-185457200D01*
X200216486Y-185528629D01*
X200287915Y-185671486D01*
X200287915Y-186100057D01*
X200216486Y-186242914D01*
X200145057Y-186314343D01*
X200002200Y-186385771D01*
X199716486Y-186385771D01*
X199573629Y-186314343D01*
X201573629Y-186314343D02*
X201430772Y-186385771D01*
X201145058Y-186385771D01*
X201002200Y-186314343D01*
X200930772Y-186242914D01*
X200859343Y-186100057D01*
X200859343Y-185671486D01*
X200930772Y-185528629D01*
X201002200Y-185457200D01*
X201145058Y-185385771D01*
X201430772Y-185385771D01*
X201573629Y-185457200D01*
X202216486Y-186385771D02*
X202216486Y-184885771D01*
X202216486Y-185457200D02*
X202359343Y-185385771D01*
X202645057Y-185385771D01*
X202787914Y-185457200D01*
X202859343Y-185528629D01*
X202930772Y-185671486D01*
X202930772Y-186100057D01*
X202859343Y-186242914D01*
X202787914Y-186314343D01*
X202645057Y-186385771D01*
X202359343Y-186385771D01*
X202216486Y-186314343D01*
D10*
D11*
X177002200Y-181507200D02*
X285002200Y-181507200D01*
D10*
D11*
X178287914Y-183614343D02*
X178502200Y-183685771D01*
X178859343Y-183685771D01*
X179002200Y-183614343D01*
X179073629Y-183542914D01*
X179145057Y-183400057D01*
X179145057Y-183257200D01*
X179073629Y-183114343D01*
X179002200Y-183042914D01*
X178859343Y-182971486D01*
X178573629Y-182900057D01*
X178430771Y-182828629D01*
X178359343Y-182757200D01*
X178287914Y-182614343D01*
X178287914Y-182471486D01*
X178359343Y-182328629D01*
X178430771Y-182257200D01*
X178573629Y-182185771D01*
X178930771Y-182185771D01*
X179145057Y-182257200D01*
X179787914Y-183685771D02*
X179787914Y-182185771D01*
X180430771Y-183685771D02*
X180430771Y-182900057D01*
X180359342Y-182757200D01*
X180216485Y-182685771D01*
X180002200Y-182685771D01*
X179859342Y-182757200D01*
X179787914Y-182828629D01*
X181716485Y-183614343D02*
X181573628Y-183685771D01*
X181287914Y-183685771D01*
X181145057Y-183614343D01*
X181073628Y-183471486D01*
X181073628Y-182900057D01*
X181145057Y-182757200D01*
X181287914Y-182685771D01*
X181573628Y-182685771D01*
X181716485Y-182757200D01*
X181787914Y-182900057D01*
X181787914Y-183042914D01*
X181073628Y-183185771D01*
X183002199Y-183614343D02*
X182859342Y-183685771D01*
X182573628Y-183685771D01*
X182430771Y-183614343D01*
X182359342Y-183471486D01*
X182359342Y-182900057D01*
X182430771Y-182757200D01*
X182573628Y-182685771D01*
X182859342Y-182685771D01*
X183002199Y-182757200D01*
X183073628Y-182900057D01*
X183073628Y-183042914D01*
X182359342Y-183185771D01*
X183502199Y-182685771D02*
X184073628Y-182685771D01*
X183716485Y-182185771D02*
X183716485Y-183471486D01*
X183787913Y-183614343D01*
X183930771Y-183685771D01*
X184073628Y-183685771D01*
X184573628Y-183542914D02*
X184645056Y-183614343D01*
X184573628Y-183685771D01*
X184502199Y-183614343D01*
X184573628Y-183542914D01*
X184573628Y-183685771D01*
X184573628Y-182757200D02*
X184645056Y-182828629D01*
X184573628Y-182900057D01*
X184502199Y-182828629D01*
X184573628Y-182757200D01*
X184573628Y-182900057D01*
D10*
D11*
X197002200Y-191507200D02*
X197002200Y-194507200D01*
D10*
D11*
X261002200Y-191507200D02*
X261002200Y-198007200D01*
D14*
X191600000Y-109700000D03*
X175100000Y-109700000D03*
X186600000Y-104400000D03*
X183548800Y-130133600D03*
D15*
X185877200Y-109372400D03*
D16*
X183337200Y-109372400D03*
X180797200Y-109372400D03*
D15*
X199898000Y-133096000D03*
D16*
X199898000Y-135636000D03*
X199898000Y-138176000D03*
D17*
X202300000Y-100600000D03*
X170900000Y-100600000D03*
X170850000Y-148300000D03*
X202350000Y-148350000D03*
D18*
X176022000Y-145288000D03*
X197104000Y-141986000D03*
X172250000Y-135750000D03*
X176276000Y-142240000D03*
X187452000Y-132334000D03*
X179324000Y-140716000D03*
X192024000Y-137160000D03*
D12*
X197104000Y-145288000D02*
X197104000Y-141986000D01*
X197104000Y-145288000D02*
X197104000Y-145288000D01*
X176022000Y-145288000D02*
X197104000Y-145288000D01*
X172250000Y-139250000D02*
X176276000Y-139250000D01*
X172250000Y-135750000D02*
X172250000Y-139250000D01*
X182880000Y-137668000D02*
X176276000Y-137668000D01*
X176276000Y-137668000D02*
X176276000Y-139250000D01*
X176276000Y-139250000D02*
X176276000Y-142240000D01*
X190500000Y-132334000D02*
X187452000Y-132334000D01*
X190754000Y-132080000D02*
X190500000Y-132334000D01*
X190754000Y-137668000D02*
X190754000Y-132080000D01*
X182880000Y-137668000D02*
X183388000Y-137668000D01*
X183388000Y-137668000D02*
X190754000Y-137668000D01*
X179324000Y-141732000D02*
X179324000Y-140716000D01*
X192024000Y-141732000D02*
X179324000Y-141732000D01*
X192024000Y-137160000D02*
X192024000Y-141732000D01*
D19*
G36*
X200078440Y-97268911D02*
X198972793Y-98372629D01*
X198373684Y-99815445D01*
X198372320Y-101377702D01*
X198968911Y-102821560D01*
X200072629Y-103927207D01*
X201515445Y-104526316D01*
X203077702Y-104527680D01*
X204521560Y-103931089D01*
X205627207Y-102827371D01*
X205773000Y-102476262D01*
X205773000Y-146350881D01*
X205681089Y-146128440D01*
X204577371Y-145022793D01*
X203134555Y-144423684D01*
X201572298Y-144422320D01*
X200128440Y-145018911D01*
X199022793Y-146122629D01*
X198423684Y-147565445D01*
X198422320Y-149127702D01*
X199018911Y-150571560D01*
X200122629Y-151677207D01*
X200232911Y-151723000D01*
X172849119Y-151723000D01*
X173071560Y-151631089D01*
X174177207Y-150527371D01*
X174776316Y-149084555D01*
X174777680Y-147522298D01*
X174181089Y-146078440D01*
X173654368Y-145550798D01*
X174694771Y-145550798D01*
X174896369Y-146038703D01*
X175269334Y-146412319D01*
X175756885Y-146614769D01*
X176284798Y-146615229D01*
X176772703Y-146413631D01*
X177146319Y-146040666D01*
X177219262Y-145865000D01*
X197104000Y-145865000D01*
X197324808Y-145821078D01*
X197512001Y-145696001D01*
X197637078Y-145508808D01*
X197681000Y-145288000D01*
X197681000Y-143183404D01*
X197854703Y-143111631D01*
X198228319Y-142738666D01*
X198430769Y-142251115D01*
X198431229Y-141723202D01*
X198229631Y-141235297D01*
X197856666Y-140861681D01*
X197369115Y-140659231D01*
X196841202Y-140658771D01*
X196353297Y-140860369D01*
X195979681Y-141233334D01*
X195777231Y-141720885D01*
X195776771Y-142248798D01*
X195978369Y-142736703D01*
X196351334Y-143110319D01*
X196527000Y-143183262D01*
X196527000Y-144711000D01*
X177219404Y-144711000D01*
X177147631Y-144537297D01*
X176774666Y-144163681D01*
X176287115Y-143961231D01*
X175759202Y-143960771D01*
X175271297Y-144162369D01*
X174897681Y-144535334D01*
X174695231Y-145022885D01*
X174694771Y-145550798D01*
X173654368Y-145550798D01*
X173077371Y-144972793D01*
X171634555Y-144373684D01*
X170072298Y-144372320D01*
X168628440Y-144968911D01*
X167522793Y-146072629D01*
X167427000Y-146303324D01*
X167427000Y-136012798D01*
X170922771Y-136012798D01*
X171124369Y-136500703D01*
X171497334Y-136874319D01*
X171673000Y-136947262D01*
X171673000Y-139250000D01*
X171716922Y-139470808D01*
X171841999Y-139658001D01*
X172029192Y-139783078D01*
X172250000Y-139827000D01*
X175699000Y-139827000D01*
X175699000Y-141042596D01*
X175525297Y-141114369D01*
X175151681Y-141487334D01*
X174949231Y-141974885D01*
X174948771Y-142502798D01*
X175150369Y-142990703D01*
X175523334Y-143364319D01*
X176010885Y-143566769D01*
X176538798Y-143567229D01*
X177026703Y-143365631D01*
X177400319Y-142992666D01*
X177602769Y-142505115D01*
X177603229Y-141977202D01*
X177401631Y-141489297D01*
X177028666Y-141115681D01*
X176853000Y-141042738D01*
X176853000Y-138245000D01*
X190754000Y-138245000D01*
X190974808Y-138201078D01*
X191102840Y-138115531D01*
X191271334Y-138284319D01*
X191447000Y-138357262D01*
X191447000Y-141155000D01*
X180578565Y-141155000D01*
X180650769Y-140981115D01*
X180651229Y-140453202D01*
X180449631Y-139965297D01*
X180076666Y-139591681D01*
X179589115Y-139389231D01*
X179061202Y-139388771D01*
X178573297Y-139590369D01*
X178199681Y-139963334D01*
X177997231Y-140450885D01*
X177996771Y-140978798D01*
X178198369Y-141466703D01*
X178571334Y-141840319D01*
X178786302Y-141929582D01*
X178790922Y-141952808D01*
X178915999Y-142140001D01*
X179103192Y-142265078D01*
X179324000Y-142309000D01*
X192024000Y-142309000D01*
X192244808Y-142265078D01*
X192432001Y-142140001D01*
X192557078Y-141952808D01*
X192601000Y-141732000D01*
X192601000Y-138357404D01*
X192774703Y-138285631D01*
X193148319Y-137912666D01*
X193350769Y-137425115D01*
X193351229Y-136897202D01*
X193149631Y-136409297D01*
X192776666Y-136035681D01*
X192289115Y-135833231D01*
X191761202Y-135832771D01*
X191331000Y-136010527D01*
X191331000Y-132196000D01*
X198562635Y-132196000D01*
X198562635Y-133996000D01*
X198592409Y-134154237D01*
X198685927Y-134299567D01*
X198828619Y-134397064D01*
X198998000Y-134431365D01*
X199319315Y-134431365D01*
X198959669Y-134671672D01*
X198672012Y-135102182D01*
X198571000Y-135610003D01*
X198571000Y-135661997D01*
X198672012Y-136169818D01*
X198959669Y-136600328D01*
X199390179Y-136887985D01*
X199480746Y-136906000D01*
X199390179Y-136924015D01*
X198959669Y-137211672D01*
X198672012Y-137642182D01*
X198571000Y-138150003D01*
X198571000Y-138201997D01*
X198672012Y-138709818D01*
X198959669Y-139140328D01*
X199390179Y-139427985D01*
X199898000Y-139528997D01*
X200405821Y-139427985D01*
X200836331Y-139140328D01*
X201123988Y-138709818D01*
X201225000Y-138201997D01*
X201225000Y-138150003D01*
X201123988Y-137642182D01*
X200836331Y-137211672D01*
X200405821Y-136924015D01*
X200315254Y-136906000D01*
X200405821Y-136887985D01*
X200836331Y-136600328D01*
X201123988Y-136169818D01*
X201225000Y-135661997D01*
X201225000Y-135610003D01*
X201123988Y-135102182D01*
X200836331Y-134671672D01*
X200476685Y-134431365D01*
X200798000Y-134431365D01*
X200956237Y-134401591D01*
X201101567Y-134308073D01*
X201199064Y-134165381D01*
X201233365Y-133996000D01*
X201233365Y-132196000D01*
X201203591Y-132037763D01*
X201110073Y-131892433D01*
X200967381Y-131794936D01*
X200798000Y-131760635D01*
X198998000Y-131760635D01*
X198839763Y-131790409D01*
X198694433Y-131883927D01*
X198596936Y-132026619D01*
X198562635Y-132196000D01*
X191331000Y-132196000D01*
X191331000Y-132080000D01*
X191287078Y-131859192D01*
X191162001Y-131671999D01*
X190974808Y-131546922D01*
X190754000Y-131503000D01*
X190533192Y-131546922D01*
X190345999Y-131671999D01*
X190345997Y-131672002D01*
X190260999Y-131757000D01*
X188649404Y-131757000D01*
X188577631Y-131583297D01*
X188204666Y-131209681D01*
X187717115Y-131007231D01*
X187189202Y-131006771D01*
X186701297Y-131208369D01*
X186327681Y-131581334D01*
X186125231Y-132068885D01*
X186124771Y-132596798D01*
X186326369Y-133084703D01*
X186699334Y-133458319D01*
X187186885Y-133660769D01*
X187714798Y-133661229D01*
X188202703Y-133459631D01*
X188576319Y-133086666D01*
X188649262Y-132911000D01*
X190177000Y-132911000D01*
X190177000Y-137091000D01*
X176276000Y-137091000D01*
X176055192Y-137134922D01*
X175867999Y-137259999D01*
X175742922Y-137447192D01*
X175699000Y-137668000D01*
X175699000Y-138673000D01*
X172827000Y-138673000D01*
X172827000Y-136947404D01*
X173000703Y-136875631D01*
X173374319Y-136502666D01*
X173576769Y-136015115D01*
X173577229Y-135487202D01*
X173375631Y-134999297D01*
X173002666Y-134625681D01*
X172515115Y-134423231D01*
X171987202Y-134422771D01*
X171499297Y-134624369D01*
X171125681Y-134997334D01*
X170923231Y-135484885D01*
X170922771Y-136012798D01*
X167427000Y-136012798D01*
X167427000Y-132561099D01*
X182002356Y-132561099D01*
X182336926Y-132861513D01*
X183473101Y-133117627D01*
X184620800Y-132919450D01*
X184760674Y-132861513D01*
X185095244Y-132561099D01*
X183548800Y-131014655D01*
X182002356Y-132561099D01*
X167427000Y-132561099D01*
X167427000Y-130057901D01*
X180564773Y-130057901D01*
X180762950Y-131205600D01*
X180820887Y-131345474D01*
X181121301Y-131680044D01*
X182667745Y-130133600D01*
X184429855Y-130133600D01*
X185976299Y-131680044D01*
X186276713Y-131345474D01*
X186532827Y-130209299D01*
X186334650Y-129061600D01*
X186276713Y-128921726D01*
X185976299Y-128587156D01*
X184429855Y-130133600D01*
X182667745Y-130133600D01*
X181121301Y-128587156D01*
X180820887Y-128921726D01*
X180564773Y-130057901D01*
X167427000Y-130057901D01*
X167427000Y-127706101D01*
X182002356Y-127706101D01*
X183548800Y-129252545D01*
X185095244Y-127706101D01*
X184760674Y-127405687D01*
X183624499Y-127149573D01*
X182476800Y-127347750D01*
X182336926Y-127405687D01*
X182002356Y-127706101D01*
X167427000Y-127706101D01*
X167427000Y-110279787D01*
X172171863Y-110279787D01*
X172616629Y-111356203D01*
X173439465Y-112180477D01*
X174515104Y-112627121D01*
X175679787Y-112628137D01*
X176756203Y-112183371D01*
X177580477Y-111360535D01*
X178027121Y-110284896D01*
X178027917Y-109372400D01*
X179444203Y-109372400D01*
X179545215Y-109880221D01*
X179832872Y-110310731D01*
X180263382Y-110598388D01*
X180771203Y-110699400D01*
X180823197Y-110699400D01*
X181331018Y-110598388D01*
X181761528Y-110310731D01*
X182049185Y-109880221D01*
X182067200Y-109789654D01*
X182085215Y-109880221D01*
X182372872Y-110310731D01*
X182803382Y-110598388D01*
X183311203Y-110699400D01*
X183363197Y-110699400D01*
X183871018Y-110598388D01*
X184301528Y-110310731D01*
X184541835Y-109951085D01*
X184541835Y-110272400D01*
X184571609Y-110430637D01*
X184665127Y-110575967D01*
X184807819Y-110673464D01*
X184977200Y-110707765D01*
X186777200Y-110707765D01*
X186935437Y-110677991D01*
X187080767Y-110584473D01*
X187178264Y-110441781D01*
X187211069Y-110279787D01*
X188671863Y-110279787D01*
X189116629Y-111356203D01*
X189939465Y-112180477D01*
X191015104Y-112627121D01*
X192179787Y-112628137D01*
X193256203Y-112183371D01*
X194080477Y-111360535D01*
X194527121Y-110284896D01*
X194528137Y-109120213D01*
X194083371Y-108043797D01*
X193260535Y-107219523D01*
X192184896Y-106772879D01*
X191020213Y-106771863D01*
X189943797Y-107216629D01*
X189119523Y-108039465D01*
X188672879Y-109115104D01*
X188671863Y-110279787D01*
X187211069Y-110279787D01*
X187212565Y-110272400D01*
X187212565Y-108472400D01*
X187182791Y-108314163D01*
X187089273Y-108168833D01*
X186946581Y-108071336D01*
X186777200Y-108037035D01*
X184977200Y-108037035D01*
X184818963Y-108066809D01*
X184673633Y-108160327D01*
X184576136Y-108303019D01*
X184541835Y-108472400D01*
X184541835Y-108793715D01*
X184301528Y-108434069D01*
X183871018Y-108146412D01*
X183363197Y-108045400D01*
X183311203Y-108045400D01*
X182803382Y-108146412D01*
X182372872Y-108434069D01*
X182085215Y-108864579D01*
X182067200Y-108955146D01*
X182049185Y-108864579D01*
X181761528Y-108434069D01*
X181331018Y-108146412D01*
X180823197Y-108045400D01*
X180771203Y-108045400D01*
X180263382Y-108146412D01*
X179832872Y-108434069D01*
X179545215Y-108864579D01*
X179444203Y-109372400D01*
X178027917Y-109372400D01*
X178028137Y-109120213D01*
X177583371Y-108043797D01*
X176760535Y-107219523D01*
X175684896Y-106772879D01*
X174520213Y-106771863D01*
X173443797Y-107216629D01*
X172619523Y-108039465D01*
X172172879Y-109115104D01*
X172171863Y-110279787D01*
X167427000Y-110279787D01*
X167427000Y-104979787D01*
X183671863Y-104979787D01*
X184116629Y-106056203D01*
X184939465Y-106880477D01*
X186015104Y-107327121D01*
X187179787Y-107328137D01*
X188256203Y-106883371D01*
X189080477Y-106060535D01*
X189527121Y-104984896D01*
X189528137Y-103820213D01*
X189083371Y-102743797D01*
X188260535Y-101919523D01*
X187184896Y-101472879D01*
X186020213Y-101471863D01*
X184943797Y-101916629D01*
X184119523Y-102739465D01*
X183672879Y-103815104D01*
X183671863Y-104979787D01*
X167427000Y-104979787D01*
X167427000Y-102478110D01*
X167568911Y-102821560D01*
X168672629Y-103927207D01*
X170115445Y-104526316D01*
X171677702Y-104527680D01*
X173121560Y-103931089D01*
X174227207Y-102827371D01*
X174826316Y-101384555D01*
X174827680Y-99822298D01*
X174231089Y-98378440D01*
X173127371Y-97272793D01*
X172896676Y-97177000D01*
X200300881Y-97177000D01*
X200078440Y-97268911D01*
X200078440Y-97268911D01*
G37*
X200078440Y-97268911D02*
X198972793Y-98372629D01*
X198373684Y-99815445D01*
X198372320Y-101377702D01*
X198968911Y-102821560D01*
X200072629Y-103927207D01*
X201515445Y-104526316D01*
X203077702Y-104527680D01*
X204521560Y-103931089D01*
X205627207Y-102827371D01*
X205773000Y-102476262D01*
X205773000Y-146350881D01*
X205681089Y-146128440D01*
X204577371Y-145022793D01*
X203134555Y-144423684D01*
X201572298Y-144422320D01*
X200128440Y-145018911D01*
X199022793Y-146122629D01*
X198423684Y-147565445D01*
X198422320Y-149127702D01*
X199018911Y-150571560D01*
X200122629Y-151677207D01*
X200232911Y-151723000D01*
X172849119Y-151723000D01*
X173071560Y-151631089D01*
X174177207Y-150527371D01*
X174776316Y-149084555D01*
X174777680Y-147522298D01*
X174181089Y-146078440D01*
X173654368Y-145550798D01*
X174694771Y-145550798D01*
X174896369Y-146038703D01*
X175269334Y-146412319D01*
X175756885Y-146614769D01*
X176284798Y-146615229D01*
X176772703Y-146413631D01*
X177146319Y-146040666D01*
X177219262Y-145865000D01*
X197104000Y-145865000D01*
X197324808Y-145821078D01*
X197512001Y-145696001D01*
X197637078Y-145508808D01*
X197681000Y-145288000D01*
X197681000Y-143183404D01*
X197854703Y-143111631D01*
X198228319Y-142738666D01*
X198430769Y-142251115D01*
X198431229Y-141723202D01*
X198229631Y-141235297D01*
X197856666Y-140861681D01*
X197369115Y-140659231D01*
X196841202Y-140658771D01*
X196353297Y-140860369D01*
X195979681Y-141233334D01*
X195777231Y-141720885D01*
X195776771Y-142248798D01*
X195978369Y-142736703D01*
X196351334Y-143110319D01*
X196527000Y-143183262D01*
X196527000Y-144711000D01*
X177219404Y-144711000D01*
X177147631Y-144537297D01*
X176774666Y-144163681D01*
X176287115Y-143961231D01*
X175759202Y-143960771D01*
X175271297Y-144162369D01*
X174897681Y-144535334D01*
X174695231Y-145022885D01*
X174694771Y-145550798D01*
X173654368Y-145550798D01*
X173077371Y-144972793D01*
X171634555Y-144373684D01*
X170072298Y-144372320D01*
X168628440Y-144968911D01*
X167522793Y-146072629D01*
X167427000Y-146303324D01*
X167427000Y-136012798D01*
X170922771Y-136012798D01*
X171124369Y-136500703D01*
X171497334Y-136874319D01*
X171673000Y-136947262D01*
X171673000Y-139250000D01*
X171716922Y-139470808D01*
X171841999Y-139658001D01*
X172029192Y-139783078D01*
X172250000Y-139827000D01*
X175699000Y-139827000D01*
X175699000Y-141042596D01*
X175525297Y-141114369D01*
X175151681Y-141487334D01*
X174949231Y-141974885D01*
X174948771Y-142502798D01*
X175150369Y-142990703D01*
X175523334Y-143364319D01*
X176010885Y-143566769D01*
X176538798Y-143567229D01*
X177026703Y-143365631D01*
X177400319Y-142992666D01*
X177602769Y-142505115D01*
X177603229Y-141977202D01*
X177401631Y-141489297D01*
X177028666Y-141115681D01*
X176853000Y-141042738D01*
X176853000Y-138245000D01*
X190754000Y-138245000D01*
X190974808Y-138201078D01*
X191102840Y-138115531D01*
X191271334Y-138284319D01*
X191447000Y-138357262D01*
X191447000Y-141155000D01*
X180578565Y-141155000D01*
X180650769Y-140981115D01*
X180651229Y-140453202D01*
X180449631Y-139965297D01*
X180076666Y-139591681D01*
X179589115Y-139389231D01*
X179061202Y-139388771D01*
X178573297Y-139590369D01*
X178199681Y-139963334D01*
X177997231Y-140450885D01*
X177996771Y-140978798D01*
X178198369Y-141466703D01*
X178571334Y-141840319D01*
X178786302Y-141929582D01*
X178790922Y-141952808D01*
X178915999Y-142140001D01*
X179103192Y-142265078D01*
X179324000Y-142309000D01*
X192024000Y-142309000D01*
X192244808Y-142265078D01*
X192432001Y-142140001D01*
X192557078Y-141952808D01*
X192601000Y-141732000D01*
X192601000Y-138357404D01*
X192774703Y-138285631D01*
X193148319Y-137912666D01*
X193350769Y-137425115D01*
X193351229Y-136897202D01*
X193149631Y-136409297D01*
X192776666Y-136035681D01*
X192289115Y-135833231D01*
X191761202Y-135832771D01*
X191331000Y-136010527D01*
X191331000Y-132196000D01*
X198562635Y-132196000D01*
X198562635Y-133996000D01*
X198592409Y-134154237D01*
X198685927Y-134299567D01*
X198828619Y-134397064D01*
X198998000Y-134431365D01*
X199319315Y-134431365D01*
X198959669Y-134671672D01*
X198672012Y-135102182D01*
X198571000Y-135610003D01*
X198571000Y-135661997D01*
X198672012Y-136169818D01*
X198959669Y-136600328D01*
X199390179Y-136887985D01*
X199480746Y-136906000D01*
X199390179Y-136924015D01*
X198959669Y-137211672D01*
X198672012Y-137642182D01*
X198571000Y-138150003D01*
X198571000Y-138201997D01*
X198672012Y-138709818D01*
X198959669Y-139140328D01*
X199390179Y-139427985D01*
X199898000Y-139528997D01*
X200405821Y-139427985D01*
X200836331Y-139140328D01*
X201123988Y-138709818D01*
X201225000Y-138201997D01*
X201225000Y-138150003D01*
X201123988Y-137642182D01*
X200836331Y-137211672D01*
X200405821Y-136924015D01*
X200315254Y-136906000D01*
X200405821Y-136887985D01*
X200836331Y-136600328D01*
X201123988Y-136169818D01*
X201225000Y-135661997D01*
X201225000Y-135610003D01*
X201123988Y-135102182D01*
X200836331Y-134671672D01*
X200476685Y-134431365D01*
X200798000Y-134431365D01*
X200956237Y-134401591D01*
X201101567Y-134308073D01*
X201199064Y-134165381D01*
X201233365Y-133996000D01*
X201233365Y-132196000D01*
X201203591Y-132037763D01*
X201110073Y-131892433D01*
X200967381Y-131794936D01*
X200798000Y-131760635D01*
X198998000Y-131760635D01*
X198839763Y-131790409D01*
X198694433Y-131883927D01*
X198596936Y-132026619D01*
X198562635Y-132196000D01*
X191331000Y-132196000D01*
X191331000Y-132080000D01*
X191287078Y-131859192D01*
X191162001Y-131671999D01*
X190974808Y-131546922D01*
X190754000Y-131503000D01*
X190533192Y-131546922D01*
X190345999Y-131671999D01*
X190345997Y-131672002D01*
X190260999Y-131757000D01*
X188649404Y-131757000D01*
X188577631Y-131583297D01*
X188204666Y-131209681D01*
X187717115Y-131007231D01*
X187189202Y-131006771D01*
X186701297Y-131208369D01*
X186327681Y-131581334D01*
X186125231Y-132068885D01*
X186124771Y-132596798D01*
X186326369Y-133084703D01*
X186699334Y-133458319D01*
X187186885Y-133660769D01*
X187714798Y-133661229D01*
X188202703Y-133459631D01*
X188576319Y-133086666D01*
X188649262Y-132911000D01*
X190177000Y-132911000D01*
X190177000Y-137091000D01*
X176276000Y-137091000D01*
X176055192Y-137134922D01*
X175867999Y-137259999D01*
X175742922Y-137447192D01*
X175699000Y-137668000D01*
X175699000Y-138673000D01*
X172827000Y-138673000D01*
X172827000Y-136947404D01*
X173000703Y-136875631D01*
X173374319Y-136502666D01*
X173576769Y-136015115D01*
X173577229Y-135487202D01*
X173375631Y-134999297D01*
X173002666Y-134625681D01*
X172515115Y-134423231D01*
X171987202Y-134422771D01*
X171499297Y-134624369D01*
X171125681Y-134997334D01*
X170923231Y-135484885D01*
X170922771Y-136012798D01*
X167427000Y-136012798D01*
X167427000Y-132561099D01*
X182002356Y-132561099D01*
X182336926Y-132861513D01*
X183473101Y-133117627D01*
X184620800Y-132919450D01*
X184760674Y-132861513D01*
X185095244Y-132561099D01*
X183548800Y-131014655D01*
X182002356Y-132561099D01*
X167427000Y-132561099D01*
X167427000Y-130057901D01*
X180564773Y-130057901D01*
X180762950Y-131205600D01*
X180820887Y-131345474D01*
X181121301Y-131680044D01*
X182667745Y-130133600D01*
X184429855Y-130133600D01*
X185976299Y-131680044D01*
X186276713Y-131345474D01*
X186532827Y-130209299D01*
X186334650Y-129061600D01*
X186276713Y-128921726D01*
X185976299Y-128587156D01*
X184429855Y-130133600D01*
X182667745Y-130133600D01*
X181121301Y-128587156D01*
X180820887Y-128921726D01*
X180564773Y-130057901D01*
X167427000Y-130057901D01*
X167427000Y-127706101D01*
X182002356Y-127706101D01*
X183548800Y-129252545D01*
X185095244Y-127706101D01*
X184760674Y-127405687D01*
X183624499Y-127149573D01*
X182476800Y-127347750D01*
X182336926Y-127405687D01*
X182002356Y-127706101D01*
X167427000Y-127706101D01*
X167427000Y-110279787D01*
X172171863Y-110279787D01*
X172616629Y-111356203D01*
X173439465Y-112180477D01*
X174515104Y-112627121D01*
X175679787Y-112628137D01*
X176756203Y-112183371D01*
X177580477Y-111360535D01*
X178027121Y-110284896D01*
X178027917Y-109372400D01*
X179444203Y-109372400D01*
X179545215Y-109880221D01*
X179832872Y-110310731D01*
X180263382Y-110598388D01*
X180771203Y-110699400D01*
X180823197Y-110699400D01*
X181331018Y-110598388D01*
X181761528Y-110310731D01*
X182049185Y-109880221D01*
X182067200Y-109789654D01*
X182085215Y-109880221D01*
X182372872Y-110310731D01*
X182803382Y-110598388D01*
X183311203Y-110699400D01*
X183363197Y-110699400D01*
X183871018Y-110598388D01*
X184301528Y-110310731D01*
X184541835Y-109951085D01*
X184541835Y-110272400D01*
X184571609Y-110430637D01*
X184665127Y-110575967D01*
X184807819Y-110673464D01*
X184977200Y-110707765D01*
X186777200Y-110707765D01*
X186935437Y-110677991D01*
X187080767Y-110584473D01*
X187178264Y-110441781D01*
X187211069Y-110279787D01*
X188671863Y-110279787D01*
X189116629Y-111356203D01*
X189939465Y-112180477D01*
X191015104Y-112627121D01*
X192179787Y-112628137D01*
X193256203Y-112183371D01*
X194080477Y-111360535D01*
X194527121Y-110284896D01*
X194528137Y-109120213D01*
X194083371Y-108043797D01*
X193260535Y-107219523D01*
X192184896Y-106772879D01*
X191020213Y-106771863D01*
X189943797Y-107216629D01*
X189119523Y-108039465D01*
X188672879Y-109115104D01*
X188671863Y-110279787D01*
X187211069Y-110279787D01*
X187212565Y-110272400D01*
X187212565Y-108472400D01*
X187182791Y-108314163D01*
X187089273Y-108168833D01*
X186946581Y-108071336D01*
X186777200Y-108037035D01*
X184977200Y-108037035D01*
X184818963Y-108066809D01*
X184673633Y-108160327D01*
X184576136Y-108303019D01*
X184541835Y-108472400D01*
X184541835Y-108793715D01*
X184301528Y-108434069D01*
X183871018Y-108146412D01*
X183363197Y-108045400D01*
X183311203Y-108045400D01*
X182803382Y-108146412D01*
X182372872Y-108434069D01*
X182085215Y-108864579D01*
X182067200Y-108955146D01*
X182049185Y-108864579D01*
X181761528Y-108434069D01*
X181331018Y-108146412D01*
X180823197Y-108045400D01*
X180771203Y-108045400D01*
X180263382Y-108146412D01*
X179832872Y-108434069D01*
X179545215Y-108864579D01*
X179444203Y-109372400D01*
X178027917Y-109372400D01*
X178028137Y-109120213D01*
X177583371Y-108043797D01*
X176760535Y-107219523D01*
X175684896Y-106772879D01*
X174520213Y-106771863D01*
X173443797Y-107216629D01*
X172619523Y-108039465D01*
X172172879Y-109115104D01*
X172171863Y-110279787D01*
X167427000Y-110279787D01*
X167427000Y-104979787D01*
X183671863Y-104979787D01*
X184116629Y-106056203D01*
X184939465Y-106880477D01*
X186015104Y-107327121D01*
X187179787Y-107328137D01*
X188256203Y-106883371D01*
X189080477Y-106060535D01*
X189527121Y-104984896D01*
X189528137Y-103820213D01*
X189083371Y-102743797D01*
X188260535Y-101919523D01*
X187184896Y-101472879D01*
X186020213Y-101471863D01*
X184943797Y-101916629D01*
X184119523Y-102739465D01*
X183672879Y-103815104D01*
X183671863Y-104979787D01*
X167427000Y-104979787D01*
X167427000Y-102478110D01*
X167568911Y-102821560D01*
X168672629Y-103927207D01*
X170115445Y-104526316D01*
X171677702Y-104527680D01*
X173121560Y-103931089D01*
X174227207Y-102827371D01*
X174826316Y-101384555D01*
X174827680Y-99822298D01*
X174231089Y-98378440D01*
X173127371Y-97272793D01*
X172896676Y-97177000D01*
X200300881Y-97177000D01*
X200078440Y-97268911D01*
M02*
