G04 #@! TF.FileFunction,Copper,L1,Top,Signal*
%FSLAX46Y46*%
G04 Gerber Fmt 4.6, Leading zero omitted, Abs format (unit mm)*
G04 Created by KiCad (PCBNEW 4.0.7) date 05/09/18 12:26:35*
%MOMM*%
%LPD*%
G01*
G04 APERTURE LIST*
%ADD10C,0.100000*%
%ADD11C,5.001260*%
%ADD12R,2.500000X1.000000*%
%ADD13R,1.800000X1.800000*%
%ADD14O,1.800000X1.800000*%
%ADD15R,0.900000X1.700000*%
%ADD16R,1.700000X0.900000*%
%ADD17R,0.450000X1.450000*%
%ADD18R,0.600000X1.550000*%
%ADD19R,10.100000X1.400000*%
%ADD20R,8.700000X2.900000*%
%ADD21R,9.700000X3.700000*%
%ADD22R,0.800000X2.800000*%
%ADD23C,1.000000*%
%ADD24R,8.000000X0.800000*%
%ADD25R,1.600000X1.000000*%
%ADD26C,7.000000*%
%ADD27C,1.800000*%
%ADD28C,2.500000*%
%ADD29C,0.300000*%
%ADD30C,0.250000*%
%ADD31C,1.000000*%
%ADD32C,0.254000*%
G04 APERTURE END LIST*
D10*
D11*
X191600000Y-109700000D03*
X175100000Y-109700000D03*
X186600000Y-104400000D03*
X183548800Y-130133600D03*
D12*
X194627500Y-143613000D03*
X194627500Y-140613000D03*
X194564000Y-135850500D03*
X194564000Y-138850500D03*
D13*
X185877200Y-109372400D03*
D14*
X183337200Y-109372400D03*
X180797200Y-109372400D03*
D15*
X180414000Y-143256000D03*
X183314000Y-143256000D03*
X184732000Y-143256000D03*
X187632000Y-143256000D03*
X192077000Y-143256000D03*
X189177000Y-143256000D03*
D16*
X189611000Y-141150000D03*
X189611000Y-138250000D03*
X181457600Y-135862400D03*
X181457600Y-138762400D03*
X189611000Y-136451000D03*
X189611000Y-133551000D03*
D15*
X176850000Y-125550000D03*
X173950000Y-125550000D03*
X192415500Y-133731000D03*
X195315500Y-133731000D03*
X192394500Y-129857500D03*
X189494500Y-129857500D03*
D17*
X184902200Y-139309200D03*
X185552200Y-139309200D03*
X186202200Y-139309200D03*
X186852200Y-139309200D03*
X186852200Y-134909200D03*
X186202200Y-134909200D03*
X185552200Y-134909200D03*
X184902200Y-134909200D03*
D13*
X199898000Y-133096000D03*
D14*
X199898000Y-135636000D03*
X199898000Y-138176000D03*
D18*
X170995000Y-133975000D03*
X172265000Y-133975000D03*
X173535000Y-133975000D03*
X174805000Y-133975000D03*
X174805000Y-128575000D03*
X173535000Y-128575000D03*
X172265000Y-128575000D03*
X170995000Y-128575000D03*
D19*
X183388000Y-114141200D03*
D20*
X183388000Y-116291200D03*
D21*
X183388000Y-119591200D03*
D22*
X182788000Y-125341200D03*
X183988000Y-125341200D03*
X185188000Y-125341200D03*
X186388000Y-125341200D03*
X187588000Y-125341200D03*
X181588000Y-125341200D03*
X180388000Y-125341200D03*
X179188000Y-125341200D03*
D23*
X179188000Y-120171200D03*
X180388000Y-120171200D03*
X181588000Y-120171200D03*
X182788000Y-120171200D03*
X183988000Y-120171200D03*
X185188000Y-120171200D03*
X186388000Y-120171200D03*
X187588000Y-120171200D03*
X187588000Y-118971200D03*
X186388000Y-118971200D03*
X183988000Y-118971200D03*
X185188000Y-118971200D03*
X182788000Y-118971200D03*
X181588000Y-118971200D03*
X180388000Y-118971200D03*
X179188000Y-118971200D03*
X180388000Y-117771200D03*
X181588000Y-117771200D03*
X182788000Y-117771200D03*
X183988000Y-117771200D03*
X185188000Y-117771200D03*
X186388000Y-117771200D03*
X186388000Y-116571200D03*
X183988000Y-116571200D03*
X185188000Y-116571200D03*
X182788000Y-116571200D03*
X181588000Y-116571200D03*
X180388000Y-116571200D03*
X180388000Y-115371200D03*
X181588000Y-115371200D03*
X182788000Y-115371200D03*
X183988000Y-115371200D03*
X185188000Y-115371200D03*
X186388000Y-115371200D03*
X179188000Y-114071200D03*
X180388000Y-114071200D03*
X181588000Y-114071200D03*
X182788000Y-114071200D03*
X183988000Y-114071200D03*
X185188000Y-114071200D03*
X186388000Y-114071200D03*
X187588000Y-114071200D03*
D24*
X183988000Y-124341200D03*
D25*
X178200000Y-132750000D03*
X178200000Y-135750000D03*
X178175000Y-131075000D03*
X178175000Y-128075000D03*
D26*
X202300000Y-100600000D03*
X170900000Y-100600000D03*
X170850000Y-148300000D03*
X202350000Y-148350000D03*
D27*
X176022000Y-145288000D03*
X197104000Y-141986000D03*
X172250000Y-135750000D03*
X176276000Y-142240000D03*
X187452000Y-132334000D03*
X179324000Y-140716000D03*
X192024000Y-137160000D03*
D28*
X183337200Y-109372400D02*
X183337200Y-107662800D01*
X183337200Y-107662800D02*
X186600000Y-104400000D01*
D29*
X200152000Y-143002000D02*
X200152000Y-138430000D01*
X200152000Y-138430000D02*
X199898000Y-138176000D01*
X194627500Y-143613000D02*
X198731000Y-143613000D01*
X198834000Y-142865100D02*
X198818500Y-142849600D01*
X198834000Y-143510000D02*
X198834000Y-142865100D01*
X198731000Y-143613000D02*
X198834000Y-143510000D01*
X203200000Y-143002000D02*
X200152000Y-143002000D01*
X200152000Y-143002000D02*
X198818500Y-143002000D01*
X203200113Y-128005474D02*
X203200000Y-143002000D01*
X202692000Y-128016000D02*
X203200113Y-128005474D01*
X191300140Y-128000000D02*
X202692000Y-128016000D01*
X191600000Y-109700000D02*
X191300140Y-128000000D01*
X198818500Y-143002000D02*
X198818500Y-142849600D01*
X198818500Y-143002000D02*
X198818500Y-142849600D01*
X192077000Y-143256000D02*
X194270500Y-143256000D01*
X194270500Y-143256000D02*
X194627500Y-143613000D01*
D30*
X194514000Y-143232000D02*
X194490000Y-143256000D01*
D31*
X183388000Y-109423200D02*
X183337200Y-109372400D01*
D29*
X189611000Y-138250000D02*
X191350000Y-138250000D01*
X191500000Y-139700000D02*
X194564000Y-139700000D01*
X191400000Y-139800000D02*
X191500000Y-139700000D01*
X191400000Y-138300000D02*
X191400000Y-139800000D01*
X191350000Y-138250000D02*
X191400000Y-138300000D01*
X181445800Y-130941100D02*
X181498800Y-130888100D01*
X174805000Y-135605000D02*
X174805000Y-133975000D01*
X174950000Y-135750000D02*
X174805000Y-135605000D01*
X176250000Y-135750000D02*
X174950000Y-135750000D01*
X176425000Y-128575000D02*
X176425000Y-135750000D01*
X176425000Y-135750000D02*
X176250000Y-135750000D01*
X174805000Y-128575000D02*
X176425000Y-128575000D01*
X176425000Y-128100000D02*
X178175000Y-128075000D01*
X176425000Y-128575000D02*
X176425000Y-128100000D01*
X178200000Y-128000000D02*
X179950000Y-128075000D01*
X179950000Y-128075000D02*
X180075000Y-127950000D01*
X178200000Y-135750000D02*
X176250000Y-135750000D01*
D30*
X189494500Y-129857500D02*
X187007500Y-129857500D01*
X187007500Y-129857500D02*
X186690000Y-129540000D01*
X183563800Y-129808600D02*
X183515000Y-125814200D01*
X183515000Y-125814200D02*
X183988000Y-125341200D01*
X188237200Y-138250000D02*
X188237200Y-138965600D01*
X187893600Y-139309200D02*
X186852200Y-139309200D01*
X188237200Y-138965600D02*
X187893600Y-139309200D01*
X189611000Y-133551000D02*
X188520600Y-133551000D01*
X188520600Y-133551000D02*
X188112400Y-133959200D01*
X188237200Y-138250000D02*
X189611000Y-138250000D01*
X188112400Y-138125200D02*
X188237200Y-138250000D01*
X188112400Y-133959200D02*
X188112400Y-138125200D01*
X187722800Y-125476000D02*
X187588000Y-125341200D01*
X189494500Y-129857500D02*
X189242700Y-129857500D01*
D29*
X189611000Y-138250000D02*
X189664000Y-138250000D01*
X194564000Y-138850500D02*
X194564000Y-139700000D01*
X194564000Y-139700000D02*
X194564000Y-140549500D01*
X194564000Y-140549500D02*
X194627500Y-140613000D01*
X189494500Y-129857500D02*
X189494500Y-131572000D01*
X189494500Y-131572000D02*
X189494500Y-131762500D01*
X189494500Y-131762500D02*
X189494500Y-133434500D01*
X189494500Y-133434500D02*
X189611000Y-133551000D01*
X189367500Y-129984500D02*
X189494500Y-129857500D01*
X178175000Y-131075000D02*
X178175000Y-132725000D01*
X178175000Y-132725000D02*
X178200000Y-132750000D01*
X170995000Y-128575000D02*
X169525000Y-128575000D01*
X169575000Y-133975000D02*
X170995000Y-133975000D01*
X169500000Y-134050000D02*
X169575000Y-133975000D01*
X169500000Y-128600000D02*
X169500000Y-134050000D01*
X169525000Y-128575000D02*
X169500000Y-128600000D01*
X181457600Y-135862400D02*
X181457600Y-134583592D01*
X181450000Y-134650000D02*
X181450000Y-134583731D01*
X181450000Y-134591192D02*
X181450000Y-134650000D01*
X181457600Y-134583592D02*
X181450000Y-134591192D01*
X178200000Y-132750000D02*
X180375000Y-132750000D01*
X180475000Y-132850000D02*
X180475000Y-134601497D01*
X180375000Y-132750000D02*
X180475000Y-132850000D01*
X174724880Y-137053232D02*
X170928232Y-137053232D01*
X170995000Y-136986464D02*
X170995000Y-133975000D01*
X170928232Y-137053232D02*
X170995000Y-136986464D01*
D30*
X179825003Y-137075000D02*
X179825003Y-137106405D01*
X179825003Y-137106405D02*
X179825003Y-137075000D01*
D29*
X179800000Y-134625000D02*
X179825003Y-137075000D01*
X179825003Y-137075000D02*
X174724880Y-137053232D01*
X174724880Y-137053232D02*
X174570533Y-137052573D01*
X174542933Y-137080173D02*
X174600000Y-145400000D01*
X174570533Y-137052573D02*
X174542933Y-137080173D01*
X174600000Y-145400000D02*
X176022000Y-145288000D01*
X179800000Y-134625000D02*
X180475000Y-134601497D01*
X180475000Y-134601497D02*
X181450000Y-134583731D01*
X181450000Y-134583731D02*
X181724285Y-134578733D01*
X181724285Y-134578733D02*
X182332880Y-134536806D01*
X185552200Y-133725800D02*
X185552200Y-134909200D01*
X185420000Y-133604000D02*
X185552200Y-133725800D01*
X184150000Y-133604000D02*
X185420000Y-133604000D01*
X182324999Y-133649965D02*
X184150000Y-133604000D01*
X182332880Y-134536806D02*
X182324999Y-133649965D01*
X197104000Y-141986000D02*
X197104000Y-135850500D01*
X197104000Y-135850500D02*
X197104000Y-135890000D01*
X197104000Y-135890000D02*
X197104000Y-135850500D01*
X194564000Y-135850500D02*
X197104000Y-135850500D01*
X197104000Y-135850500D02*
X199683500Y-135850500D01*
X199683500Y-135850500D02*
X199898000Y-135636000D01*
D30*
X185580000Y-134881400D02*
X185552200Y-134909200D01*
D29*
X192405000Y-133731000D02*
X192415500Y-133731000D01*
X192415500Y-133731000D02*
X192415500Y-135837000D01*
X192429000Y-135850500D02*
X194564000Y-135850500D01*
X192415500Y-135837000D02*
X192429000Y-135850500D01*
D30*
X192423000Y-134437000D02*
X192532000Y-134546000D01*
D29*
X186207481Y-133600145D02*
X187499855Y-133600145D01*
X187452000Y-133552290D02*
X187452000Y-132334000D01*
X187499855Y-133600145D02*
X187452000Y-133552290D01*
X172265000Y-133975000D02*
X172265000Y-135735000D01*
X172265000Y-135735000D02*
X172250000Y-135750000D01*
X176276000Y-143256000D02*
X180414000Y-143256000D01*
X176276000Y-142240000D02*
X176276000Y-143256000D01*
X186207481Y-133600145D02*
X186182000Y-134889000D01*
X186182000Y-134889000D02*
X186202200Y-134909200D01*
X180276500Y-143256000D02*
X180414000Y-143256000D01*
D30*
X184732000Y-143256000D02*
X184732000Y-141302400D01*
X186202200Y-141091800D02*
X186202200Y-139309200D01*
X186232800Y-141122400D02*
X186202200Y-141091800D01*
X184912000Y-141122400D02*
X186232800Y-141122400D01*
X184732000Y-141302400D02*
X184912000Y-141122400D01*
X184732000Y-143256000D02*
X183314000Y-143256000D01*
D29*
X189177000Y-143256000D02*
X189177000Y-142023000D01*
X189611000Y-141989000D02*
X189611000Y-141150000D01*
X189600000Y-142000000D02*
X189611000Y-141989000D01*
X189200000Y-142000000D02*
X189600000Y-142000000D01*
X189177000Y-142023000D02*
X189200000Y-142000000D01*
X189177000Y-143256000D02*
X187632000Y-143256000D01*
X189611000Y-136451000D02*
X191315000Y-136451000D01*
X179578000Y-140462000D02*
X181559200Y-140462000D01*
X179324000Y-140716000D02*
X179578000Y-140462000D01*
X191315000Y-136451000D02*
X192024000Y-137160000D01*
X181457600Y-138762400D02*
X181457600Y-140360400D01*
X181457600Y-140360400D02*
X181559200Y-140462000D01*
X185552200Y-140340200D02*
X185552200Y-139309200D01*
X181559200Y-140462000D02*
X185674000Y-140462000D01*
X185674000Y-140462000D02*
X185552200Y-140340200D01*
X189611000Y-136451000D02*
X189494500Y-136451000D01*
X173535000Y-128575000D02*
X173535000Y-125965000D01*
X173535000Y-125965000D02*
X173950000Y-125550000D01*
X173535000Y-128575000D02*
X172265000Y-128575000D01*
X195315500Y-133731000D02*
X196977000Y-133731000D01*
X197104000Y-133096000D02*
X199898000Y-133096000D01*
X197104000Y-133604000D02*
X197104000Y-133096000D01*
X196977000Y-133731000D02*
X197104000Y-133604000D01*
X192394500Y-129857500D02*
X195262500Y-129857500D01*
X195315500Y-129910500D02*
X195315500Y-133731000D01*
X195262500Y-129857500D02*
X195315500Y-129910500D01*
X176850000Y-125550000D02*
X178979200Y-125550000D01*
X178979200Y-125550000D02*
X179188000Y-125341200D01*
X179146800Y-125300000D02*
X179188000Y-125341200D01*
D31*
X183400000Y-111400000D02*
X183400000Y-114129200D01*
X183400000Y-114129200D02*
X183388000Y-114141200D01*
X180797200Y-109372400D02*
X180797200Y-110597200D01*
X180797200Y-110597200D02*
X180900000Y-110700000D01*
X185877200Y-109372400D02*
X185877200Y-110877200D01*
X185877200Y-110877200D02*
X185900000Y-110900000D01*
X183388000Y-114141200D02*
X183388000Y-112312000D01*
X183388000Y-112312000D02*
X183400000Y-112300000D01*
D30*
X183388000Y-114141200D02*
X179419200Y-114141200D01*
D32*
G36*
X199827421Y-97524732D02*
X199277188Y-98063559D01*
X198842093Y-98699000D01*
X198538709Y-99406848D01*
X198378591Y-100160143D01*
X198367838Y-100930193D01*
X198506860Y-101687665D01*
X198790362Y-102403709D01*
X199207545Y-103051050D01*
X199742518Y-103605031D01*
X200374905Y-104044551D01*
X201080619Y-104352870D01*
X201832778Y-104518243D01*
X202602733Y-104534371D01*
X203361158Y-104400640D01*
X204079163Y-104122145D01*
X204729401Y-103709491D01*
X205287103Y-103178398D01*
X205731028Y-102549095D01*
X205773000Y-102454824D01*
X205773000Y-146405484D01*
X205407932Y-145856012D01*
X204865276Y-145309554D01*
X204226814Y-144878906D01*
X203516864Y-144580471D01*
X202762469Y-144425616D01*
X201992364Y-144420239D01*
X201235880Y-144564546D01*
X200521833Y-144853040D01*
X199877421Y-145274732D01*
X199327188Y-145813559D01*
X198892093Y-146449000D01*
X198588709Y-147156848D01*
X198428591Y-147910143D01*
X198417838Y-148680193D01*
X198556860Y-149437665D01*
X198840362Y-150153709D01*
X199257545Y-150801050D01*
X199792518Y-151355031D01*
X200321957Y-151723000D01*
X172785390Y-151723000D01*
X173279401Y-151409491D01*
X173837103Y-150878398D01*
X174281028Y-150249095D01*
X174594266Y-149545551D01*
X174764886Y-148794565D01*
X174777168Y-147914938D01*
X174627584Y-147159480D01*
X174334112Y-146447465D01*
X173907932Y-145806012D01*
X173365276Y-145259554D01*
X172726814Y-144828906D01*
X172016864Y-144530471D01*
X171262469Y-144375616D01*
X170492364Y-144370239D01*
X169735880Y-144514546D01*
X169021833Y-144803040D01*
X168377421Y-145224732D01*
X167827188Y-145763559D01*
X167427000Y-146348020D01*
X167427000Y-128600000D01*
X168923000Y-128600000D01*
X168923000Y-134050000D01*
X168928399Y-134105065D01*
X168933601Y-134160097D01*
X168933890Y-134161068D01*
X168933989Y-134162073D01*
X168949976Y-134215024D01*
X168965773Y-134268014D01*
X168966244Y-134268907D01*
X168966537Y-134269878D01*
X168992586Y-134318869D01*
X169018293Y-134367627D01*
X169018927Y-134368410D01*
X169019404Y-134369307D01*
X169054432Y-134412255D01*
X169089161Y-134455142D01*
X169089938Y-134455790D01*
X169090578Y-134456574D01*
X169133170Y-134491809D01*
X169175678Y-134527226D01*
X169176567Y-134527711D01*
X169177346Y-134528355D01*
X169225954Y-134554637D01*
X169274548Y-134581131D01*
X169275514Y-134581434D01*
X169276404Y-134581915D01*
X169329326Y-134598297D01*
X169382006Y-134614806D01*
X169383009Y-134614915D01*
X169383978Y-134615215D01*
X169438978Y-134620996D01*
X169493958Y-134626969D01*
X169494969Y-134626881D01*
X169495972Y-134626986D01*
X169551103Y-134621969D01*
X169606140Y-134617153D01*
X169607107Y-134616872D01*
X169608119Y-134616780D01*
X169661296Y-134601129D01*
X169714280Y-134585736D01*
X169715178Y-134585270D01*
X169716148Y-134584985D01*
X169765114Y-134559386D01*
X169779364Y-134552000D01*
X170265934Y-134552000D01*
X170265934Y-134750000D01*
X170271356Y-134817998D01*
X170307073Y-134933330D01*
X170373506Y-135034146D01*
X170418000Y-135072068D01*
X170418000Y-136789534D01*
X170396317Y-136829636D01*
X170396019Y-136830599D01*
X170395539Y-136831494D01*
X170379313Y-136884566D01*
X170363017Y-136937210D01*
X170362912Y-136938213D01*
X170362615Y-136939183D01*
X170357027Y-136994204D01*
X170351246Y-137049204D01*
X170351338Y-137050214D01*
X170351236Y-137051218D01*
X170356431Y-137106178D01*
X170361452Y-137161351D01*
X170361738Y-137162322D01*
X170361833Y-137163329D01*
X170377619Y-137216282D01*
X170393247Y-137269380D01*
X170393716Y-137270278D01*
X170394005Y-137271246D01*
X170419754Y-137320084D01*
X170445419Y-137369176D01*
X170446054Y-137369966D01*
X170446525Y-137370859D01*
X170481237Y-137413725D01*
X170515981Y-137456938D01*
X170516758Y-137457590D01*
X170517393Y-137458374D01*
X170559887Y-137493779D01*
X170602246Y-137529322D01*
X170603130Y-137529808D01*
X170603910Y-137530458D01*
X170652508Y-137556954D01*
X170700928Y-137583573D01*
X170701892Y-137583879D01*
X170702780Y-137584363D01*
X170755503Y-137600885D01*
X170808267Y-137617623D01*
X170809274Y-137617736D01*
X170810238Y-137618038D01*
X170865221Y-137624012D01*
X170920176Y-137630176D01*
X170922082Y-137630189D01*
X170922190Y-137630201D01*
X170922306Y-137630191D01*
X170928232Y-137630232D01*
X173969693Y-137630232D01*
X174023014Y-145403958D01*
X174024968Y-145422571D01*
X174024479Y-145441289D01*
X174030835Y-145478462D01*
X174034771Y-145515953D01*
X174040303Y-145533832D01*
X174043459Y-145552288D01*
X174056915Y-145587519D01*
X174068058Y-145623532D01*
X174076958Y-145639998D01*
X174083638Y-145657487D01*
X174103674Y-145689423D01*
X174121605Y-145722596D01*
X174133537Y-145737023D01*
X174143485Y-145752879D01*
X174169346Y-145780319D01*
X174193376Y-145809373D01*
X174207880Y-145821205D01*
X174220720Y-145834829D01*
X174251418Y-145856722D01*
X174280635Y-145880557D01*
X174297166Y-145889349D01*
X174312403Y-145900216D01*
X174346762Y-145915727D01*
X174380058Y-145933436D01*
X174397981Y-145938850D01*
X174415040Y-145946551D01*
X174451754Y-145955092D01*
X174487858Y-145965998D01*
X174506494Y-145967827D01*
X174524721Y-145972068D01*
X174562400Y-145973316D01*
X174599930Y-145977000D01*
X174618562Y-145975175D01*
X174637270Y-145975795D01*
X174645306Y-145975219D01*
X174874485Y-145957168D01*
X174977007Y-146116251D01*
X175157783Y-146303451D01*
X175371478Y-146451973D01*
X175609950Y-146556159D01*
X175864118Y-146612041D01*
X176124299Y-146617491D01*
X176380583Y-146572301D01*
X176623210Y-146478193D01*
X176842936Y-146338750D01*
X177031393Y-146159285D01*
X177181403Y-145946632D01*
X177287251Y-145708893D01*
X177344907Y-145455122D01*
X177349057Y-145157881D01*
X177298510Y-144902599D01*
X177199341Y-144661997D01*
X177055327Y-144445239D01*
X176871955Y-144260581D01*
X176656207Y-144115058D01*
X176416303Y-144014212D01*
X176161380Y-143961884D01*
X175901149Y-143960067D01*
X175645520Y-144008831D01*
X175404231Y-144106318D01*
X175186473Y-144248814D01*
X175169233Y-144265697D01*
X175160266Y-142958483D01*
X175231007Y-143068251D01*
X175411783Y-143255451D01*
X175625478Y-143403973D01*
X175735038Y-143451838D01*
X175741015Y-143472148D01*
X175741952Y-143473940D01*
X175742537Y-143475878D01*
X175768050Y-143523862D01*
X175793187Y-143571944D01*
X175794453Y-143573519D01*
X175795404Y-143575307D01*
X175829716Y-143617377D01*
X175863749Y-143659706D01*
X175865301Y-143661008D01*
X175866578Y-143662574D01*
X175908412Y-143697182D01*
X175950014Y-143732090D01*
X175951785Y-143733064D01*
X175953346Y-143734355D01*
X176001149Y-143760202D01*
X176048696Y-143786341D01*
X176050624Y-143786953D01*
X176052404Y-143787915D01*
X176104296Y-143803979D01*
X176156035Y-143820391D01*
X176158044Y-143820616D01*
X176159978Y-143821215D01*
X176213986Y-143826891D01*
X176267944Y-143832944D01*
X176271829Y-143832971D01*
X176271972Y-143832986D01*
X176272115Y-143832973D01*
X176276000Y-143833000D01*
X179534934Y-143833000D01*
X179534934Y-144106000D01*
X179540356Y-144173998D01*
X179576073Y-144289330D01*
X179642506Y-144390146D01*
X179734395Y-144468463D01*
X179844465Y-144518079D01*
X179964000Y-144535066D01*
X180864000Y-144535066D01*
X180931998Y-144529644D01*
X181047330Y-144493927D01*
X181148146Y-144427494D01*
X181226463Y-144335605D01*
X181276079Y-144225535D01*
X181293066Y-144106000D01*
X181293066Y-142406000D01*
X181287644Y-142338002D01*
X181251927Y-142222670D01*
X181185494Y-142121854D01*
X181093605Y-142043537D01*
X180983535Y-141993921D01*
X180864000Y-141976934D01*
X179964000Y-141976934D01*
X179896002Y-141982356D01*
X179780670Y-142018073D01*
X179679854Y-142084506D01*
X179601537Y-142176395D01*
X179551921Y-142286465D01*
X179534934Y-142406000D01*
X179534934Y-142679000D01*
X177533189Y-142679000D01*
X177541251Y-142660893D01*
X177598907Y-142407122D01*
X177603057Y-142109881D01*
X177552510Y-141854599D01*
X177453341Y-141613997D01*
X177309327Y-141397239D01*
X177125955Y-141212581D01*
X176910207Y-141067058D01*
X176670303Y-140966212D01*
X176415380Y-140913884D01*
X176155149Y-140912067D01*
X175899520Y-140960831D01*
X175658231Y-141058318D01*
X175440473Y-141200814D01*
X175254540Y-141382894D01*
X175150501Y-141534839D01*
X175145650Y-140827578D01*
X177995255Y-140827578D01*
X178042233Y-141083541D01*
X178138034Y-141325504D01*
X178279007Y-141544251D01*
X178459783Y-141731451D01*
X178673478Y-141879973D01*
X178911950Y-141984159D01*
X179166118Y-142040041D01*
X179426299Y-142045491D01*
X179682583Y-142000301D01*
X179925210Y-141906193D01*
X180144936Y-141766750D01*
X180333393Y-141587285D01*
X180483403Y-141374632D01*
X180589251Y-141136893D01*
X180611492Y-141039000D01*
X184249878Y-141039000D01*
X184249229Y-141040211D01*
X184224637Y-141084944D01*
X184223759Y-141087712D01*
X184222388Y-141090269D01*
X184207472Y-141139055D01*
X184192063Y-141187633D01*
X184191740Y-141190513D01*
X184190890Y-141193293D01*
X184185730Y-141244087D01*
X184180054Y-141294693D01*
X184180014Y-141300362D01*
X184180003Y-141300473D01*
X184180013Y-141300576D01*
X184180000Y-141302400D01*
X184180000Y-141992886D01*
X184098670Y-142018073D01*
X184022567Y-142068221D01*
X183993605Y-142043537D01*
X183883535Y-141993921D01*
X183764000Y-141976934D01*
X182864000Y-141976934D01*
X182796002Y-141982356D01*
X182680670Y-142018073D01*
X182579854Y-142084506D01*
X182501537Y-142176395D01*
X182451921Y-142286465D01*
X182434934Y-142406000D01*
X182434934Y-144106000D01*
X182440356Y-144173998D01*
X182476073Y-144289330D01*
X182542506Y-144390146D01*
X182634395Y-144468463D01*
X182744465Y-144518079D01*
X182864000Y-144535066D01*
X183764000Y-144535066D01*
X183831998Y-144529644D01*
X183947330Y-144493927D01*
X184023433Y-144443779D01*
X184052395Y-144468463D01*
X184162465Y-144518079D01*
X184282000Y-144535066D01*
X185182000Y-144535066D01*
X185249998Y-144529644D01*
X185365330Y-144493927D01*
X185466146Y-144427494D01*
X185544463Y-144335605D01*
X185594079Y-144225535D01*
X185611066Y-144106000D01*
X185611066Y-142406000D01*
X186752934Y-142406000D01*
X186752934Y-144106000D01*
X186758356Y-144173998D01*
X186794073Y-144289330D01*
X186860506Y-144390146D01*
X186952395Y-144468463D01*
X187062465Y-144518079D01*
X187182000Y-144535066D01*
X188082000Y-144535066D01*
X188149998Y-144529644D01*
X188265330Y-144493927D01*
X188366146Y-144427494D01*
X188402223Y-144385165D01*
X188405506Y-144390146D01*
X188497395Y-144468463D01*
X188607465Y-144518079D01*
X188727000Y-144535066D01*
X189627000Y-144535066D01*
X189694998Y-144529644D01*
X189810330Y-144493927D01*
X189911146Y-144427494D01*
X189989463Y-144335605D01*
X190039079Y-144225535D01*
X190056066Y-144106000D01*
X190056066Y-142406000D01*
X190052132Y-142356666D01*
X190052831Y-142355814D01*
X190087090Y-142314986D01*
X190088550Y-142312330D01*
X190090478Y-142309983D01*
X190115675Y-142262991D01*
X190141341Y-142216304D01*
X190142259Y-142213411D01*
X190143692Y-142210738D01*
X190159285Y-142159739D01*
X190175391Y-142108965D01*
X190175729Y-142105954D01*
X190176617Y-142103049D01*
X190182003Y-142050018D01*
X190184353Y-142029066D01*
X190461000Y-142029066D01*
X190528998Y-142023644D01*
X190644330Y-141987927D01*
X190745146Y-141921494D01*
X190823463Y-141829605D01*
X190873079Y-141719535D01*
X190890066Y-141600000D01*
X190890066Y-140969750D01*
X192950500Y-140969750D01*
X192950500Y-141155056D01*
X192966909Y-141237551D01*
X192999098Y-141315261D01*
X193045828Y-141385197D01*
X193105303Y-141444673D01*
X193175240Y-141491403D01*
X193252949Y-141523591D01*
X193335444Y-141540000D01*
X193897750Y-141540000D01*
X194004500Y-141433250D01*
X194004500Y-140863000D01*
X193057250Y-140863000D01*
X192950500Y-140969750D01*
X190890066Y-140969750D01*
X190890066Y-140700000D01*
X190884644Y-140632002D01*
X190848927Y-140516670D01*
X190782494Y-140415854D01*
X190690605Y-140337537D01*
X190580535Y-140287921D01*
X190461000Y-140270934D01*
X188761000Y-140270934D01*
X188693002Y-140276356D01*
X188577670Y-140312073D01*
X188476854Y-140378506D01*
X188398537Y-140470395D01*
X188348921Y-140580465D01*
X188331934Y-140700000D01*
X188331934Y-141600000D01*
X188337356Y-141667998D01*
X188373073Y-141783330D01*
X188439506Y-141884146D01*
X188531395Y-141962463D01*
X188602355Y-141994449D01*
X188601722Y-142000095D01*
X188543670Y-142018073D01*
X188442854Y-142084506D01*
X188406777Y-142126835D01*
X188403494Y-142121854D01*
X188311605Y-142043537D01*
X188201535Y-141993921D01*
X188082000Y-141976934D01*
X187182000Y-141976934D01*
X187114002Y-141982356D01*
X186998670Y-142018073D01*
X186897854Y-142084506D01*
X186819537Y-142176395D01*
X186769921Y-142286465D01*
X186752934Y-142406000D01*
X185611066Y-142406000D01*
X185605644Y-142338002D01*
X185569927Y-142222670D01*
X185503494Y-142121854D01*
X185411605Y-142043537D01*
X185301535Y-141993921D01*
X185284000Y-141991429D01*
X185284000Y-141674400D01*
X186232800Y-141674400D01*
X186285390Y-141669243D01*
X186338127Y-141664258D01*
X186339055Y-141663981D01*
X186340017Y-141663887D01*
X186390528Y-141648637D01*
X186441368Y-141633481D01*
X186442228Y-141633028D01*
X186443151Y-141632749D01*
X186489795Y-141607949D01*
X186536666Y-141583236D01*
X186537418Y-141582627D01*
X186538272Y-141582173D01*
X186579162Y-141548824D01*
X186620389Y-141515439D01*
X186621012Y-141514692D01*
X186621758Y-141514083D01*
X186655368Y-141473455D01*
X186689348Y-141432671D01*
X186689812Y-141431820D01*
X186690429Y-141431074D01*
X186715636Y-141384455D01*
X186740918Y-141338083D01*
X186741206Y-141337163D01*
X186741668Y-141336309D01*
X186757341Y-141285678D01*
X186773135Y-141235282D01*
X186773239Y-141234321D01*
X186773526Y-141233395D01*
X186779062Y-141180722D01*
X186784770Y-141128181D01*
X186784686Y-141127218D01*
X186784787Y-141126254D01*
X186779993Y-141073576D01*
X186775381Y-141020859D01*
X186775111Y-141019928D01*
X186775023Y-141018966D01*
X186760107Y-140968287D01*
X186754200Y-140947956D01*
X186754200Y-140305414D01*
X186789663Y-140263805D01*
X186839279Y-140153735D01*
X186856266Y-140034200D01*
X186856266Y-139671700D01*
X186964700Y-139671700D01*
X186964700Y-140354450D01*
X187071450Y-140461200D01*
X187119256Y-140461200D01*
X187201751Y-140444791D01*
X187279461Y-140412602D01*
X187349397Y-140365872D01*
X187408873Y-140306397D01*
X187455603Y-140236460D01*
X187487791Y-140158751D01*
X187504200Y-140076256D01*
X187504200Y-139778450D01*
X187397450Y-139671700D01*
X186964700Y-139671700D01*
X186856266Y-139671700D01*
X186856266Y-139207250D01*
X192887000Y-139207250D01*
X192887000Y-139392556D01*
X192903409Y-139475051D01*
X192935598Y-139552761D01*
X192982328Y-139622697D01*
X193041803Y-139682173D01*
X193111740Y-139728903D01*
X193156200Y-139747319D01*
X193105303Y-139781327D01*
X193045828Y-139840803D01*
X192999098Y-139910739D01*
X192966909Y-139988449D01*
X192950500Y-140070944D01*
X192950500Y-140256250D01*
X193057250Y-140363000D01*
X194004500Y-140363000D01*
X194004500Y-139792750D01*
X193911750Y-139700000D01*
X193941000Y-139670750D01*
X193941000Y-139100500D01*
X195187000Y-139100500D01*
X195187000Y-139670750D01*
X195279750Y-139763500D01*
X195250500Y-139792750D01*
X195250500Y-140363000D01*
X196197750Y-140363000D01*
X196304500Y-140256250D01*
X196304500Y-140070944D01*
X196288091Y-139988449D01*
X196255902Y-139910739D01*
X196209172Y-139840803D01*
X196149697Y-139781327D01*
X196079760Y-139734597D01*
X196035300Y-139716181D01*
X196086197Y-139682173D01*
X196145672Y-139622697D01*
X196192402Y-139552761D01*
X196224591Y-139475051D01*
X196241000Y-139392556D01*
X196241000Y-139207250D01*
X196134250Y-139100500D01*
X195187000Y-139100500D01*
X193941000Y-139100500D01*
X192993750Y-139100500D01*
X192887000Y-139207250D01*
X186856266Y-139207250D01*
X186856266Y-138584200D01*
X186850844Y-138516202D01*
X186815127Y-138400870D01*
X186748694Y-138300054D01*
X186739700Y-138292388D01*
X186739700Y-138263950D01*
X186964700Y-138263950D01*
X186964700Y-138946700D01*
X187397450Y-138946700D01*
X187504200Y-138839950D01*
X187504200Y-138581750D01*
X188334000Y-138581750D01*
X188334000Y-138742056D01*
X188350409Y-138824551D01*
X188382598Y-138902261D01*
X188429328Y-138972197D01*
X188488803Y-139031673D01*
X188558740Y-139078403D01*
X188636449Y-139110591D01*
X188718944Y-139127000D01*
X189079250Y-139127000D01*
X189186000Y-139020250D01*
X189186000Y-138475000D01*
X190036000Y-138475000D01*
X190036000Y-139020250D01*
X190142750Y-139127000D01*
X190503056Y-139127000D01*
X190585551Y-139110591D01*
X190663260Y-139078403D01*
X190733197Y-139031673D01*
X190792672Y-138972197D01*
X190839402Y-138902261D01*
X190871591Y-138824551D01*
X190888000Y-138742056D01*
X190888000Y-138581750D01*
X190781250Y-138475000D01*
X190036000Y-138475000D01*
X189186000Y-138475000D01*
X188440750Y-138475000D01*
X188334000Y-138581750D01*
X187504200Y-138581750D01*
X187504200Y-138542144D01*
X187487791Y-138459649D01*
X187455603Y-138381940D01*
X187408873Y-138312003D01*
X187349397Y-138252528D01*
X187279461Y-138205798D01*
X187201751Y-138173609D01*
X187119256Y-138157200D01*
X187071450Y-138157200D01*
X186964700Y-138263950D01*
X186739700Y-138263950D01*
X186632950Y-138157200D01*
X186585144Y-138157200D01*
X186525384Y-138169087D01*
X186427200Y-138155134D01*
X185977200Y-138155134D01*
X185909202Y-138160556D01*
X185879683Y-138169698D01*
X185777200Y-138155134D01*
X185327200Y-138155134D01*
X185259202Y-138160556D01*
X185229683Y-138169698D01*
X185127200Y-138155134D01*
X184677200Y-138155134D01*
X184609202Y-138160556D01*
X184493870Y-138196273D01*
X184393054Y-138262706D01*
X184314737Y-138354595D01*
X184265121Y-138464665D01*
X184248134Y-138584200D01*
X184248134Y-139885000D01*
X182034600Y-139885000D01*
X182034600Y-139641466D01*
X182307600Y-139641466D01*
X182375598Y-139636044D01*
X182490930Y-139600327D01*
X182591746Y-139533894D01*
X182670063Y-139442005D01*
X182719679Y-139331935D01*
X182736666Y-139212400D01*
X182736666Y-138312400D01*
X182731244Y-138244402D01*
X182695527Y-138129070D01*
X182629094Y-138028254D01*
X182537205Y-137949937D01*
X182427135Y-137900321D01*
X182307600Y-137883334D01*
X180607600Y-137883334D01*
X180539602Y-137888756D01*
X180424270Y-137924473D01*
X180323454Y-137990906D01*
X180245137Y-138082795D01*
X180195521Y-138192865D01*
X180178534Y-138312400D01*
X180178534Y-139212400D01*
X180183956Y-139280398D01*
X180219673Y-139395730D01*
X180286106Y-139496546D01*
X180377995Y-139574863D01*
X180488065Y-139624479D01*
X180607600Y-139641466D01*
X180880600Y-139641466D01*
X180880600Y-139885000D01*
X180365141Y-139885000D01*
X180357327Y-139873239D01*
X180173955Y-139688581D01*
X179958207Y-139543058D01*
X179718303Y-139442212D01*
X179463380Y-139389884D01*
X179203149Y-139388067D01*
X178947520Y-139436831D01*
X178706231Y-139534318D01*
X178488473Y-139676814D01*
X178302540Y-139858894D01*
X178155514Y-140073620D01*
X178052996Y-140312814D01*
X177998889Y-140567365D01*
X177995255Y-140827578D01*
X175145650Y-140827578D01*
X175124596Y-137757944D01*
X188334000Y-137757944D01*
X188334000Y-137918250D01*
X188440750Y-138025000D01*
X189186000Y-138025000D01*
X189186000Y-137479750D01*
X189079250Y-137373000D01*
X188718944Y-137373000D01*
X188636449Y-137389409D01*
X188558740Y-137421597D01*
X188488803Y-137468327D01*
X188429328Y-137527803D01*
X188382598Y-137597739D01*
X188350409Y-137675449D01*
X188334000Y-137757944D01*
X175124596Y-137757944D01*
X175123731Y-137631940D01*
X179757651Y-137651718D01*
X179821149Y-137658392D01*
X179928437Y-137648628D01*
X180031786Y-137618210D01*
X180127258Y-137568299D01*
X180139688Y-137558305D01*
X180142255Y-137556954D01*
X180143940Y-137555592D01*
X180145858Y-137554564D01*
X180187816Y-137520118D01*
X180229825Y-137486154D01*
X180231213Y-137484491D01*
X180232895Y-137483110D01*
X180267334Y-137441206D01*
X180301976Y-137399693D01*
X180303016Y-137397789D01*
X180304395Y-137396111D01*
X180330042Y-137348311D01*
X180355958Y-137300864D01*
X180356607Y-137298799D01*
X180357636Y-137296881D01*
X180373520Y-137244975D01*
X180389717Y-137193433D01*
X180389953Y-137191279D01*
X180390589Y-137189200D01*
X180396084Y-137135244D01*
X180401966Y-137081491D01*
X180401779Y-137079331D01*
X180401999Y-137077168D01*
X180401973Y-137069112D01*
X180398042Y-136683899D01*
X180488065Y-136724479D01*
X180607600Y-136741466D01*
X182307600Y-136741466D01*
X182375598Y-136736044D01*
X182490930Y-136700327D01*
X182591746Y-136633894D01*
X182670063Y-136542005D01*
X182719679Y-136431935D01*
X182736666Y-136312400D01*
X182736666Y-135412400D01*
X182731244Y-135344402D01*
X182695527Y-135229070D01*
X182629094Y-135128254D01*
X182557950Y-135067618D01*
X182570820Y-135060743D01*
X182588902Y-135053896D01*
X182620388Y-135034266D01*
X182653102Y-135016792D01*
X182668057Y-135004548D01*
X182684462Y-134994320D01*
X182711530Y-134968954D01*
X182740233Y-134945453D01*
X182752527Y-134930535D01*
X182766631Y-134917317D01*
X182788257Y-134887176D01*
X182811848Y-134858548D01*
X182821009Y-134841527D01*
X182832279Y-134825820D01*
X182847638Y-134792054D01*
X182865220Y-134759388D01*
X182870902Y-134740909D01*
X182878904Y-134723316D01*
X182887410Y-134687218D01*
X182898315Y-134651751D01*
X182900300Y-134632517D01*
X182904732Y-134613707D01*
X182906064Y-134576646D01*
X182909873Y-134539735D01*
X182909857Y-134531679D01*
X182907020Y-134212489D01*
X184157262Y-134181000D01*
X184248589Y-134181000D01*
X184248134Y-134184200D01*
X184248134Y-135634200D01*
X184253556Y-135702198D01*
X184289273Y-135817530D01*
X184355706Y-135918346D01*
X184447595Y-135996663D01*
X184557665Y-136046279D01*
X184677200Y-136063266D01*
X185127200Y-136063266D01*
X185195198Y-136057844D01*
X185224717Y-136048702D01*
X185327200Y-136063266D01*
X185777200Y-136063266D01*
X185845198Y-136057844D01*
X185874717Y-136048702D01*
X185977200Y-136063266D01*
X186427200Y-136063266D01*
X186495198Y-136057844D01*
X186524717Y-136048702D01*
X186627200Y-136063266D01*
X187077200Y-136063266D01*
X187145198Y-136057844D01*
X187260530Y-136022127D01*
X187361346Y-135955694D01*
X187439663Y-135863805D01*
X187489279Y-135753735D01*
X187506266Y-135634200D01*
X187506266Y-134184200D01*
X187505658Y-134176576D01*
X187554920Y-134171746D01*
X187609952Y-134166544D01*
X187610923Y-134166255D01*
X187611928Y-134166156D01*
X187664940Y-134150151D01*
X187717869Y-134134372D01*
X187718762Y-134133901D01*
X187719733Y-134133608D01*
X187768724Y-134107559D01*
X187817482Y-134081852D01*
X187818265Y-134081218D01*
X187819162Y-134080741D01*
X187862110Y-134045713D01*
X187904997Y-134010984D01*
X187905645Y-134010207D01*
X187906429Y-134009567D01*
X187941690Y-133966944D01*
X187977081Y-133924467D01*
X187977566Y-133923578D01*
X187978210Y-133922799D01*
X187999864Y-133882750D01*
X188334000Y-133882750D01*
X188334000Y-134043056D01*
X188350409Y-134125551D01*
X188382598Y-134203261D01*
X188429328Y-134273197D01*
X188488803Y-134332673D01*
X188558740Y-134379403D01*
X188636449Y-134411591D01*
X188718944Y-134428000D01*
X189079250Y-134428000D01*
X189186000Y-134321250D01*
X189186000Y-133776000D01*
X190036000Y-133776000D01*
X190036000Y-134321250D01*
X190142750Y-134428000D01*
X190503056Y-134428000D01*
X190585551Y-134411591D01*
X190663260Y-134379403D01*
X190733197Y-134332673D01*
X190792672Y-134273197D01*
X190839402Y-134203261D01*
X190871591Y-134125551D01*
X190888000Y-134043056D01*
X190888000Y-133882750D01*
X190781250Y-133776000D01*
X190036000Y-133776000D01*
X189186000Y-133776000D01*
X188440750Y-133776000D01*
X188334000Y-133882750D01*
X187999864Y-133882750D01*
X188004492Y-133874191D01*
X188030986Y-133825597D01*
X188031289Y-133824631D01*
X188031770Y-133823741D01*
X188048152Y-133770819D01*
X188064661Y-133718139D01*
X188064770Y-133717136D01*
X188065070Y-133716167D01*
X188070851Y-133661167D01*
X188076824Y-133606187D01*
X188076736Y-133605176D01*
X188076841Y-133604173D01*
X188071824Y-133549042D01*
X188068785Y-133514309D01*
X188272936Y-133384750D01*
X188388987Y-133274237D01*
X188440750Y-133326000D01*
X189186000Y-133326000D01*
X189186000Y-132780750D01*
X190036000Y-132780750D01*
X190036000Y-133326000D01*
X190781250Y-133326000D01*
X190888000Y-133219250D01*
X190888000Y-133058944D01*
X190871591Y-132976449D01*
X190839402Y-132898739D01*
X190792672Y-132828803D01*
X190733197Y-132769327D01*
X190663260Y-132722597D01*
X190585551Y-132690409D01*
X190503056Y-132674000D01*
X190142750Y-132674000D01*
X190036000Y-132780750D01*
X189186000Y-132780750D01*
X189079250Y-132674000D01*
X188735630Y-132674000D01*
X188774907Y-132501122D01*
X188779057Y-132203881D01*
X188728510Y-131948599D01*
X188629341Y-131707997D01*
X188485327Y-131491239D01*
X188301955Y-131306581D01*
X188086207Y-131161058D01*
X187846303Y-131060212D01*
X187591380Y-131007884D01*
X187331149Y-131006067D01*
X187075520Y-131054831D01*
X186834231Y-131152318D01*
X186616473Y-131294814D01*
X186430540Y-131476894D01*
X186283514Y-131691620D01*
X186180996Y-131930814D01*
X186126889Y-132185365D01*
X186123255Y-132445578D01*
X186170233Y-132701541D01*
X186266034Y-132943504D01*
X186317359Y-133023145D01*
X186207481Y-133023145D01*
X186159117Y-133027887D01*
X186110586Y-133031338D01*
X186103109Y-133033379D01*
X186095408Y-133034134D01*
X186048875Y-133048183D01*
X186001950Y-133060992D01*
X185995018Y-133064443D01*
X185987603Y-133066682D01*
X185944667Y-133089511D01*
X185901142Y-133111181D01*
X185895012Y-133115913D01*
X185888174Y-133119549D01*
X185850491Y-133150283D01*
X185812003Y-133179995D01*
X185811709Y-133180332D01*
X185810967Y-133179649D01*
X185777811Y-133154614D01*
X185745986Y-133127910D01*
X185732961Y-133120750D01*
X185721098Y-133111792D01*
X185683707Y-133093672D01*
X185647304Y-133073659D01*
X185633138Y-133069165D01*
X185619760Y-133062682D01*
X185579558Y-133052169D01*
X185539965Y-133039609D01*
X185525196Y-133037952D01*
X185510813Y-133034191D01*
X185469340Y-133031687D01*
X185428056Y-133027056D01*
X185420000Y-133027000D01*
X184150000Y-133027000D01*
X184146767Y-133027317D01*
X184143527Y-133027036D01*
X184135472Y-133027183D01*
X184065491Y-133028946D01*
X184613890Y-132875815D01*
X184734706Y-132825771D01*
X185063951Y-132529806D01*
X183548800Y-131014655D01*
X182033649Y-132529806D01*
X182362894Y-132825771D01*
X182910897Y-133005400D01*
X183270911Y-133048958D01*
X182310471Y-133073148D01*
X182261232Y-133079231D01*
X182211848Y-133084168D01*
X182205398Y-133086129D01*
X182198710Y-133086955D01*
X182151570Y-133102493D01*
X182104106Y-133116922D01*
X182098164Y-133120096D01*
X182091759Y-133122207D01*
X182048521Y-133146613D01*
X182004777Y-133169979D01*
X181999564Y-133174247D01*
X181993693Y-133177561D01*
X181956036Y-133209886D01*
X181917646Y-133241318D01*
X181913359Y-133246520D01*
X181908245Y-133250910D01*
X181877576Y-133289943D01*
X181846031Y-133328223D01*
X181842839Y-133334154D01*
X181838672Y-133339457D01*
X181816171Y-133383700D01*
X181792659Y-133427383D01*
X181790678Y-133433826D01*
X181787623Y-133439833D01*
X181774149Y-133487583D01*
X181759564Y-133535020D01*
X181758872Y-133541725D01*
X181757042Y-133548211D01*
X181753101Y-133597656D01*
X181748006Y-133647036D01*
X181748022Y-133655092D01*
X181751074Y-133998520D01*
X181699173Y-134002095D01*
X181439488Y-134006827D01*
X181052000Y-134013888D01*
X181052000Y-132850000D01*
X181046795Y-132796913D01*
X181042153Y-132743860D01*
X181041307Y-132740949D01*
X181041011Y-132737927D01*
X181025598Y-132686877D01*
X181010736Y-132635720D01*
X181009340Y-132633027D01*
X181008463Y-132630122D01*
X180983435Y-132583051D01*
X180958913Y-132535743D01*
X180957021Y-132533373D01*
X180955596Y-132530693D01*
X180921914Y-132489395D01*
X180888657Y-132447735D01*
X180884492Y-132443512D01*
X180884422Y-132443426D01*
X180884342Y-132443360D01*
X180883000Y-132441999D01*
X180783001Y-132341999D01*
X180741785Y-132308144D01*
X180700986Y-132273910D01*
X180698330Y-132272450D01*
X180695983Y-132270522D01*
X180648956Y-132245306D01*
X180602304Y-132219659D01*
X180599416Y-132218743D01*
X180596738Y-132217307D01*
X180545693Y-132201701D01*
X180494965Y-132185609D01*
X180491955Y-132185271D01*
X180489049Y-132184383D01*
X180436018Y-132178997D01*
X180383056Y-132173056D01*
X180377120Y-132173015D01*
X180377014Y-132173004D01*
X180376915Y-132173013D01*
X180375000Y-132173000D01*
X179420856Y-132173000D01*
X179387927Y-132066670D01*
X179321494Y-131965854D01*
X179248413Y-131903567D01*
X179259146Y-131896494D01*
X179337463Y-131804605D01*
X179387079Y-131694535D01*
X179404066Y-131575000D01*
X179404066Y-130575000D01*
X179398644Y-130507002D01*
X179362927Y-130391670D01*
X179296494Y-130290854D01*
X179204605Y-130212537D01*
X179094535Y-130162921D01*
X178975000Y-130145934D01*
X177375000Y-130145934D01*
X177307002Y-130151356D01*
X177191670Y-130187073D01*
X177090854Y-130253506D01*
X177012537Y-130345395D01*
X176962921Y-130455465D01*
X176945934Y-130575000D01*
X176945934Y-131575000D01*
X176951356Y-131642998D01*
X176987073Y-131758330D01*
X177053506Y-131859146D01*
X177126587Y-131921433D01*
X177115854Y-131928506D01*
X177037537Y-132020395D01*
X176987921Y-132130465D01*
X176970934Y-132250000D01*
X176970934Y-133250000D01*
X176976356Y-133317998D01*
X177012073Y-133433330D01*
X177078506Y-133534146D01*
X177170395Y-133612463D01*
X177280465Y-133662079D01*
X177400000Y-133679066D01*
X179000000Y-133679066D01*
X179067998Y-133673644D01*
X179183330Y-133637927D01*
X179284146Y-133571494D01*
X179362463Y-133479605D01*
X179412079Y-133369535D01*
X179418124Y-133327000D01*
X179898000Y-133327000D01*
X179898000Y-134044238D01*
X179779921Y-134048349D01*
X179733097Y-134054592D01*
X179686103Y-134059353D01*
X179677358Y-134062024D01*
X179668299Y-134063232D01*
X179623576Y-134078451D01*
X179578404Y-134092249D01*
X179570350Y-134096565D01*
X179561692Y-134099511D01*
X179520772Y-134123131D01*
X179479145Y-134145436D01*
X179472080Y-134151236D01*
X179464163Y-134155806D01*
X179428627Y-134186909D01*
X179392108Y-134216890D01*
X179386301Y-134223955D01*
X179379425Y-134229974D01*
X179350604Y-134267391D01*
X179320608Y-134303889D01*
X179316287Y-134311943D01*
X179310707Y-134319187D01*
X179289694Y-134361507D01*
X179267367Y-134403120D01*
X179264693Y-134411859D01*
X179260626Y-134420049D01*
X179248234Y-134465640D01*
X179234414Y-134510801D01*
X179233488Y-134519895D01*
X179231090Y-134528717D01*
X179227790Y-134575843D01*
X179223004Y-134622832D01*
X179223030Y-134630888D01*
X179225646Y-134887223D01*
X179202260Y-134871597D01*
X179124551Y-134839409D01*
X179042056Y-134823000D01*
X178706750Y-134823000D01*
X178600000Y-134929750D01*
X178600000Y-135500000D01*
X178843000Y-135500000D01*
X178843000Y-136000000D01*
X178600000Y-136000000D01*
X178600000Y-136250000D01*
X177800000Y-136250000D01*
X177800000Y-136000000D01*
X177079750Y-136000000D01*
X176973000Y-136106750D01*
X176973000Y-136292056D01*
X176989409Y-136374551D01*
X177021598Y-136452261D01*
X177044226Y-136486126D01*
X174727343Y-136476237D01*
X174572997Y-136475578D01*
X174566021Y-136476232D01*
X173361717Y-136476232D01*
X173409403Y-136408632D01*
X173515251Y-136170893D01*
X173572907Y-135917122D01*
X173577057Y-135619881D01*
X173526510Y-135364599D01*
X173461942Y-135207944D01*
X176973000Y-135207944D01*
X176973000Y-135393250D01*
X177079750Y-135500000D01*
X177800000Y-135500000D01*
X177800000Y-134929750D01*
X177693250Y-134823000D01*
X177357944Y-134823000D01*
X177275449Y-134839409D01*
X177197740Y-134871597D01*
X177127803Y-134918327D01*
X177068328Y-134977803D01*
X177021598Y-135047739D01*
X176989409Y-135125449D01*
X176973000Y-135207944D01*
X173461942Y-135207944D01*
X173450039Y-135179066D01*
X173835000Y-135179066D01*
X173902998Y-135173644D01*
X174018330Y-135137927D01*
X174119146Y-135071494D01*
X174167982Y-135014195D01*
X174173328Y-135022197D01*
X174232803Y-135081673D01*
X174302740Y-135128403D01*
X174380449Y-135160591D01*
X174462944Y-135177000D01*
X174548250Y-135177000D01*
X174655000Y-135070250D01*
X174655000Y-134362500D01*
X174955000Y-134362500D01*
X174955000Y-135070250D01*
X175061750Y-135177000D01*
X175147056Y-135177000D01*
X175229551Y-135160591D01*
X175307260Y-135128403D01*
X175377197Y-135081673D01*
X175436672Y-135022197D01*
X175483402Y-134952261D01*
X175515591Y-134874551D01*
X175532000Y-134792056D01*
X175532000Y-134469250D01*
X175425250Y-134362500D01*
X174955000Y-134362500D01*
X174655000Y-134362500D01*
X174505000Y-134362500D01*
X174505000Y-133587500D01*
X174655000Y-133587500D01*
X174655000Y-132879750D01*
X174955000Y-132879750D01*
X174955000Y-133587500D01*
X175425250Y-133587500D01*
X175532000Y-133480750D01*
X175532000Y-133157944D01*
X175515591Y-133075449D01*
X175483402Y-132997739D01*
X175436672Y-132927803D01*
X175377197Y-132868327D01*
X175307260Y-132821597D01*
X175229551Y-132789409D01*
X175147056Y-132773000D01*
X175061750Y-132773000D01*
X174955000Y-132879750D01*
X174655000Y-132879750D01*
X174548250Y-132773000D01*
X174462944Y-132773000D01*
X174380449Y-132789409D01*
X174302740Y-132821597D01*
X174232803Y-132868327D01*
X174173328Y-132927803D01*
X174168817Y-132934555D01*
X174156494Y-132915854D01*
X174064605Y-132837537D01*
X173954535Y-132787921D01*
X173835000Y-132770934D01*
X173235000Y-132770934D01*
X173167002Y-132776356D01*
X173051670Y-132812073D01*
X172950854Y-132878506D01*
X172900677Y-132937378D01*
X172886494Y-132915854D01*
X172794605Y-132837537D01*
X172684535Y-132787921D01*
X172565000Y-132770934D01*
X171965000Y-132770934D01*
X171897002Y-132776356D01*
X171781670Y-132812073D01*
X171680854Y-132878506D01*
X171630677Y-132937378D01*
X171616494Y-132915854D01*
X171524605Y-132837537D01*
X171414535Y-132787921D01*
X171295000Y-132770934D01*
X170695000Y-132770934D01*
X170627002Y-132776356D01*
X170511670Y-132812073D01*
X170410854Y-132878506D01*
X170332537Y-132970395D01*
X170282921Y-133080465D01*
X170265934Y-133200000D01*
X170265934Y-133398000D01*
X170077000Y-133398000D01*
X170077000Y-130068215D01*
X180607731Y-130068215D01*
X180651487Y-130643245D01*
X180806585Y-131198690D01*
X180856629Y-131319506D01*
X181152594Y-131648751D01*
X182667745Y-130133600D01*
X184429855Y-130133600D01*
X185945006Y-131648751D01*
X186240971Y-131319506D01*
X186420600Y-130771503D01*
X186466848Y-130389250D01*
X188617500Y-130389250D01*
X188617500Y-130749556D01*
X188633909Y-130832051D01*
X188666097Y-130909760D01*
X188712827Y-130979697D01*
X188772303Y-131039172D01*
X188842239Y-131085902D01*
X188919949Y-131118091D01*
X189002444Y-131134500D01*
X189162750Y-131134500D01*
X189269500Y-131027750D01*
X189269500Y-130282500D01*
X189719500Y-130282500D01*
X189719500Y-131027750D01*
X189826250Y-131134500D01*
X189986556Y-131134500D01*
X190069051Y-131118091D01*
X190146761Y-131085902D01*
X190216697Y-131039172D01*
X190276173Y-130979697D01*
X190322903Y-130909760D01*
X190355091Y-130832051D01*
X190371500Y-130749556D01*
X190371500Y-130389250D01*
X190264750Y-130282500D01*
X189719500Y-130282500D01*
X189269500Y-130282500D01*
X188724250Y-130282500D01*
X188617500Y-130389250D01*
X186466848Y-130389250D01*
X186489869Y-130198985D01*
X186446113Y-129623955D01*
X186291015Y-129068510D01*
X186248324Y-128965444D01*
X188617500Y-128965444D01*
X188617500Y-129325750D01*
X188724250Y-129432500D01*
X189269500Y-129432500D01*
X189269500Y-128687250D01*
X189719500Y-128687250D01*
X189719500Y-129432500D01*
X190264750Y-129432500D01*
X190371500Y-129325750D01*
X190371500Y-128965444D01*
X190355091Y-128882949D01*
X190322903Y-128805240D01*
X190276173Y-128735303D01*
X190216697Y-128675828D01*
X190146761Y-128629098D01*
X190069051Y-128596909D01*
X189986556Y-128580500D01*
X189826250Y-128580500D01*
X189719500Y-128687250D01*
X189269500Y-128687250D01*
X189162750Y-128580500D01*
X189002444Y-128580500D01*
X188919949Y-128596909D01*
X188842239Y-128629098D01*
X188772303Y-128675828D01*
X188712827Y-128735303D01*
X188666097Y-128805240D01*
X188633909Y-128882949D01*
X188617500Y-128965444D01*
X186248324Y-128965444D01*
X186240971Y-128947694D01*
X185945006Y-128618449D01*
X184429855Y-130133600D01*
X182667745Y-130133600D01*
X181152594Y-128618449D01*
X180856629Y-128947694D01*
X180677000Y-129495697D01*
X180607731Y-130068215D01*
X170077000Y-130068215D01*
X170077000Y-129152000D01*
X170265934Y-129152000D01*
X170265934Y-129350000D01*
X170271356Y-129417998D01*
X170307073Y-129533330D01*
X170373506Y-129634146D01*
X170465395Y-129712463D01*
X170575465Y-129762079D01*
X170695000Y-129779066D01*
X171295000Y-129779066D01*
X171362998Y-129773644D01*
X171478330Y-129737927D01*
X171579146Y-129671494D01*
X171629323Y-129612622D01*
X171643506Y-129634146D01*
X171735395Y-129712463D01*
X171845465Y-129762079D01*
X171965000Y-129779066D01*
X172565000Y-129779066D01*
X172632998Y-129773644D01*
X172748330Y-129737927D01*
X172849146Y-129671494D01*
X172899323Y-129612622D01*
X172913506Y-129634146D01*
X173005395Y-129712463D01*
X173115465Y-129762079D01*
X173235000Y-129779066D01*
X173835000Y-129779066D01*
X173902998Y-129773644D01*
X174018330Y-129737927D01*
X174119146Y-129671494D01*
X174167982Y-129614195D01*
X174173328Y-129622197D01*
X174232803Y-129681673D01*
X174302740Y-129728403D01*
X174380449Y-129760591D01*
X174462944Y-129777000D01*
X174548250Y-129777000D01*
X174655000Y-129670250D01*
X174655000Y-128962500D01*
X174955000Y-128962500D01*
X174955000Y-129670250D01*
X175061750Y-129777000D01*
X175147056Y-129777000D01*
X175229551Y-129760591D01*
X175307260Y-129728403D01*
X175377197Y-129681673D01*
X175436672Y-129622197D01*
X175483402Y-129552261D01*
X175515591Y-129474551D01*
X175532000Y-129392056D01*
X175532000Y-129069250D01*
X175425250Y-128962500D01*
X174955000Y-128962500D01*
X174655000Y-128962500D01*
X174505000Y-128962500D01*
X174505000Y-128431750D01*
X176948000Y-128431750D01*
X176948000Y-128617056D01*
X176964409Y-128699551D01*
X176996598Y-128777261D01*
X177043328Y-128847197D01*
X177102803Y-128906673D01*
X177172740Y-128953403D01*
X177250449Y-128985591D01*
X177332944Y-129002000D01*
X177668250Y-129002000D01*
X177775000Y-128895250D01*
X177775000Y-128325000D01*
X178575000Y-128325000D01*
X178575000Y-128895250D01*
X178681750Y-129002000D01*
X179017056Y-129002000D01*
X179099551Y-128985591D01*
X179177260Y-128953403D01*
X179247197Y-128906673D01*
X179306672Y-128847197D01*
X179353402Y-128777261D01*
X179385591Y-128699551D01*
X179402000Y-128617056D01*
X179402000Y-128431750D01*
X179295250Y-128325000D01*
X178575000Y-128325000D01*
X177775000Y-128325000D01*
X177054750Y-128325000D01*
X176948000Y-128431750D01*
X174505000Y-128431750D01*
X174505000Y-128187500D01*
X174655000Y-128187500D01*
X174655000Y-127479750D01*
X174955000Y-127479750D01*
X174955000Y-128187500D01*
X175425250Y-128187500D01*
X175532000Y-128080750D01*
X175532000Y-127757944D01*
X175515591Y-127675449D01*
X175483402Y-127597739D01*
X175440108Y-127532944D01*
X176948000Y-127532944D01*
X176948000Y-127718250D01*
X177054750Y-127825000D01*
X177775000Y-127825000D01*
X177775000Y-127254750D01*
X177668250Y-127148000D01*
X177332944Y-127148000D01*
X177250449Y-127164409D01*
X177172740Y-127196597D01*
X177102803Y-127243327D01*
X177043328Y-127302803D01*
X176996598Y-127372739D01*
X176964409Y-127450449D01*
X176948000Y-127532944D01*
X175440108Y-127532944D01*
X175436672Y-127527803D01*
X175377197Y-127468327D01*
X175307260Y-127421597D01*
X175229551Y-127389409D01*
X175147056Y-127373000D01*
X175061750Y-127373000D01*
X174955000Y-127479750D01*
X174655000Y-127479750D01*
X174548250Y-127373000D01*
X174462944Y-127373000D01*
X174380449Y-127389409D01*
X174302740Y-127421597D01*
X174232803Y-127468327D01*
X174173328Y-127527803D01*
X174168817Y-127534555D01*
X174156494Y-127515854D01*
X174112000Y-127477932D01*
X174112000Y-126829066D01*
X174400000Y-126829066D01*
X174467998Y-126823644D01*
X174583330Y-126787927D01*
X174684146Y-126721494D01*
X174762463Y-126629605D01*
X174812079Y-126519535D01*
X174829066Y-126400000D01*
X174829066Y-124700000D01*
X175970934Y-124700000D01*
X175970934Y-126400000D01*
X175976356Y-126467998D01*
X176012073Y-126583330D01*
X176078506Y-126684146D01*
X176170395Y-126762463D01*
X176280465Y-126812079D01*
X176400000Y-126829066D01*
X177300000Y-126829066D01*
X177367998Y-126823644D01*
X177483330Y-126787927D01*
X177584146Y-126721494D01*
X177662463Y-126629605D01*
X177712079Y-126519535D01*
X177729066Y-126400000D01*
X177729066Y-126127000D01*
X178358934Y-126127000D01*
X178358934Y-126741200D01*
X178364356Y-126809198D01*
X178400073Y-126924530D01*
X178466506Y-127025346D01*
X178558395Y-127103663D01*
X178668465Y-127153279D01*
X178675475Y-127154275D01*
X178575000Y-127254750D01*
X178575000Y-127825000D01*
X179295250Y-127825000D01*
X179382856Y-127737394D01*
X182033649Y-127737394D01*
X183548800Y-129252545D01*
X185063951Y-127737394D01*
X184734706Y-127441429D01*
X184186703Y-127261800D01*
X183614185Y-127192531D01*
X183039155Y-127236287D01*
X182483710Y-127391385D01*
X182362894Y-127441429D01*
X182033649Y-127737394D01*
X179382856Y-127737394D01*
X179402000Y-127718250D01*
X179402000Y-127532944D01*
X179385591Y-127450449D01*
X179353402Y-127372739D01*
X179306672Y-127302803D01*
X179247197Y-127243327D01*
X179177260Y-127196597D01*
X179113691Y-127170266D01*
X179588000Y-127170266D01*
X179655998Y-127164844D01*
X179771330Y-127129127D01*
X179785767Y-127119614D01*
X179863449Y-127151791D01*
X179945944Y-127168200D01*
X180081250Y-127168200D01*
X180188000Y-127061450D01*
X180188000Y-125964200D01*
X180588000Y-125964200D01*
X180588000Y-127061450D01*
X180694750Y-127168200D01*
X180830056Y-127168200D01*
X180912551Y-127151791D01*
X180988000Y-127120539D01*
X181063449Y-127151791D01*
X181145944Y-127168200D01*
X181281250Y-127168200D01*
X181388000Y-127061450D01*
X181388000Y-125964200D01*
X181788000Y-125964200D01*
X181788000Y-127061450D01*
X181894750Y-127168200D01*
X182030056Y-127168200D01*
X182112551Y-127151791D01*
X182188000Y-127120539D01*
X182263449Y-127151791D01*
X182345944Y-127168200D01*
X182481250Y-127168200D01*
X182588000Y-127061450D01*
X182588000Y-125964200D01*
X182988000Y-125964200D01*
X182988000Y-127061450D01*
X183094750Y-127168200D01*
X183230056Y-127168200D01*
X183312551Y-127151791D01*
X183388000Y-127120539D01*
X183463449Y-127151791D01*
X183545944Y-127168200D01*
X183681250Y-127168200D01*
X183788000Y-127061450D01*
X183788000Y-125964200D01*
X184188000Y-125964200D01*
X184188000Y-127061450D01*
X184294750Y-127168200D01*
X184430056Y-127168200D01*
X184512551Y-127151791D01*
X184588000Y-127120539D01*
X184663449Y-127151791D01*
X184745944Y-127168200D01*
X184881250Y-127168200D01*
X184988000Y-127061450D01*
X184988000Y-125964200D01*
X185388000Y-125964200D01*
X185388000Y-127061450D01*
X185494750Y-127168200D01*
X185630056Y-127168200D01*
X185712551Y-127151791D01*
X185788000Y-127120539D01*
X185863449Y-127151791D01*
X185945944Y-127168200D01*
X186081250Y-127168200D01*
X186188000Y-127061450D01*
X186188000Y-125964200D01*
X186588000Y-125964200D01*
X186588000Y-127061450D01*
X186694750Y-127168200D01*
X186830056Y-127168200D01*
X186912551Y-127151791D01*
X186988000Y-127120539D01*
X187063449Y-127151791D01*
X187145944Y-127168200D01*
X187281250Y-127168200D01*
X187388000Y-127061450D01*
X187388000Y-125964200D01*
X187788000Y-125964200D01*
X187788000Y-127061450D01*
X187894750Y-127168200D01*
X188030056Y-127168200D01*
X188112551Y-127151791D01*
X188190261Y-127119602D01*
X188260197Y-127072872D01*
X188319673Y-127013397D01*
X188366403Y-126943460D01*
X188398591Y-126865751D01*
X188415000Y-126783256D01*
X188415000Y-126070950D01*
X188308250Y-125964200D01*
X187788000Y-125964200D01*
X187388000Y-125964200D01*
X186588000Y-125964200D01*
X186188000Y-125964200D01*
X185388000Y-125964200D01*
X184988000Y-125964200D01*
X184188000Y-125964200D01*
X183788000Y-125964200D01*
X182988000Y-125964200D01*
X182588000Y-125964200D01*
X181788000Y-125964200D01*
X181388000Y-125964200D01*
X180588000Y-125964200D01*
X180188000Y-125964200D01*
X180017066Y-125964200D01*
X180017066Y-125168200D01*
X183258250Y-125168200D01*
X183365000Y-125061450D01*
X183365000Y-124718200D01*
X183788000Y-124718200D01*
X183788000Y-123620950D01*
X184188000Y-123620950D01*
X184188000Y-124718200D01*
X184611000Y-124718200D01*
X184611000Y-125061450D01*
X184717750Y-125168200D01*
X188030056Y-125168200D01*
X188112551Y-125151791D01*
X188190261Y-125119602D01*
X188260197Y-125072872D01*
X188319673Y-125013397D01*
X188366403Y-124943460D01*
X188398591Y-124865751D01*
X188415000Y-124783256D01*
X188415000Y-124647950D01*
X188396750Y-124629700D01*
X188415000Y-124611450D01*
X188415000Y-123899144D01*
X188398591Y-123816649D01*
X188366403Y-123738940D01*
X188319673Y-123669003D01*
X188260197Y-123609528D01*
X188190261Y-123562798D01*
X188112551Y-123530609D01*
X188030056Y-123514200D01*
X184717750Y-123514200D01*
X184710749Y-123521201D01*
X184663449Y-123530609D01*
X184588000Y-123561861D01*
X184512551Y-123530609D01*
X184430056Y-123514200D01*
X184294750Y-123514200D01*
X184188000Y-123620950D01*
X183788000Y-123620950D01*
X183681250Y-123514200D01*
X183545944Y-123514200D01*
X183463449Y-123530609D01*
X183388000Y-123561861D01*
X183312551Y-123530609D01*
X183265251Y-123521201D01*
X183258250Y-123514200D01*
X179945944Y-123514200D01*
X179863449Y-123530609D01*
X179785739Y-123562798D01*
X179784332Y-123563738D01*
X179707535Y-123529121D01*
X179588000Y-123512134D01*
X178788000Y-123512134D01*
X178720002Y-123517556D01*
X178604670Y-123553273D01*
X178503854Y-123619706D01*
X178425537Y-123711595D01*
X178375921Y-123821665D01*
X178358934Y-123941200D01*
X178358934Y-124973000D01*
X177729066Y-124973000D01*
X177729066Y-124700000D01*
X177723644Y-124632002D01*
X177687927Y-124516670D01*
X177621494Y-124415854D01*
X177529605Y-124337537D01*
X177419535Y-124287921D01*
X177300000Y-124270934D01*
X176400000Y-124270934D01*
X176332002Y-124276356D01*
X176216670Y-124312073D01*
X176115854Y-124378506D01*
X176037537Y-124470395D01*
X175987921Y-124580465D01*
X175970934Y-124700000D01*
X174829066Y-124700000D01*
X174823644Y-124632002D01*
X174787927Y-124516670D01*
X174721494Y-124415854D01*
X174629605Y-124337537D01*
X174519535Y-124287921D01*
X174400000Y-124270934D01*
X173500000Y-124270934D01*
X173432002Y-124276356D01*
X173316670Y-124312073D01*
X173215854Y-124378506D01*
X173137537Y-124470395D01*
X173087921Y-124580465D01*
X173070934Y-124700000D01*
X173070934Y-125624684D01*
X173058910Y-125639014D01*
X173057450Y-125641670D01*
X173055522Y-125644017D01*
X173030306Y-125691044D01*
X173004659Y-125737696D01*
X173003743Y-125740584D01*
X173002307Y-125743262D01*
X172986701Y-125794307D01*
X172970609Y-125845035D01*
X172970271Y-125848045D01*
X172969383Y-125850951D01*
X172963997Y-125903982D01*
X172958056Y-125956944D01*
X172958015Y-125962880D01*
X172958004Y-125962986D01*
X172958013Y-125963085D01*
X172958000Y-125965000D01*
X172958000Y-127473797D01*
X172950854Y-127478506D01*
X172900677Y-127537378D01*
X172886494Y-127515854D01*
X172794605Y-127437537D01*
X172684535Y-127387921D01*
X172565000Y-127370934D01*
X171965000Y-127370934D01*
X171897002Y-127376356D01*
X171781670Y-127412073D01*
X171680854Y-127478506D01*
X171630677Y-127537378D01*
X171616494Y-127515854D01*
X171524605Y-127437537D01*
X171414535Y-127387921D01*
X171295000Y-127370934D01*
X170695000Y-127370934D01*
X170627002Y-127376356D01*
X170511670Y-127412073D01*
X170410854Y-127478506D01*
X170332537Y-127570395D01*
X170282921Y-127680465D01*
X170265934Y-127800000D01*
X170265934Y-127998000D01*
X169525000Y-127998000D01*
X169471913Y-128003205D01*
X169418860Y-128007847D01*
X169415949Y-128008693D01*
X169412927Y-128008989D01*
X169361877Y-128024402D01*
X169310720Y-128039264D01*
X169308027Y-128040660D01*
X169305122Y-128041537D01*
X169258051Y-128066565D01*
X169210743Y-128091087D01*
X169208373Y-128092979D01*
X169205693Y-128094404D01*
X169164395Y-128128086D01*
X169122735Y-128161343D01*
X169118512Y-128165508D01*
X169118426Y-128165578D01*
X169118360Y-128165658D01*
X169116999Y-128167000D01*
X169091999Y-128191999D01*
X169058144Y-128233215D01*
X169023910Y-128274014D01*
X169022450Y-128276670D01*
X169020522Y-128279017D01*
X168995306Y-128326044D01*
X168969659Y-128372696D01*
X168968743Y-128375584D01*
X168967307Y-128378262D01*
X168951701Y-128429307D01*
X168935609Y-128480035D01*
X168935271Y-128483045D01*
X168934383Y-128485951D01*
X168928997Y-128538982D01*
X168923056Y-128591944D01*
X168923015Y-128597880D01*
X168923004Y-128597986D01*
X168923013Y-128598085D01*
X168923000Y-128600000D01*
X167427000Y-128600000D01*
X167427000Y-108800000D01*
X171173000Y-108800000D01*
X171173000Y-111500000D01*
X171204384Y-111660677D01*
X171298065Y-111801935D01*
X173098065Y-113601935D01*
X173233873Y-113693358D01*
X173400000Y-113727000D01*
X176000000Y-113727000D01*
X176160677Y-113695616D01*
X176301935Y-113601935D01*
X177876870Y-112027000D01*
X182473000Y-112027000D01*
X182473000Y-112190686D01*
X182470642Y-112213901D01*
X182461090Y-112299057D01*
X182461024Y-112308590D01*
X182461006Y-112308764D01*
X182461021Y-112308927D01*
X182461000Y-112312000D01*
X182461000Y-113012134D01*
X178338000Y-113012134D01*
X178270002Y-113017556D01*
X178154670Y-113053273D01*
X178053854Y-113119706D01*
X177975537Y-113211595D01*
X177925921Y-113321665D01*
X177908934Y-113441200D01*
X177908934Y-114841200D01*
X177914356Y-114909198D01*
X177950073Y-115024530D01*
X178016506Y-115125346D01*
X178108395Y-115203663D01*
X178218465Y-115253279D01*
X178338000Y-115270266D01*
X178608934Y-115270266D01*
X178608934Y-117312134D01*
X178538000Y-117312134D01*
X178470002Y-117317556D01*
X178354670Y-117353273D01*
X178253854Y-117419706D01*
X178175537Y-117511595D01*
X178125921Y-117621665D01*
X178108934Y-117741200D01*
X178108934Y-121441200D01*
X178114356Y-121509198D01*
X178150073Y-121624530D01*
X178216506Y-121725346D01*
X178308395Y-121803663D01*
X178418465Y-121853279D01*
X178538000Y-121870266D01*
X188238000Y-121870266D01*
X188305998Y-121864844D01*
X188421330Y-121829127D01*
X188522146Y-121762694D01*
X188600463Y-121670805D01*
X188650079Y-121560735D01*
X188667066Y-121441200D01*
X188667066Y-117741200D01*
X188661644Y-117673202D01*
X188625927Y-117557870D01*
X188559494Y-117457054D01*
X188467605Y-117378737D01*
X188357535Y-117329121D01*
X188238000Y-117312134D01*
X188167066Y-117312134D01*
X188167066Y-115270266D01*
X188438000Y-115270266D01*
X188505998Y-115264844D01*
X188621330Y-115229127D01*
X188722146Y-115162694D01*
X188800463Y-115070805D01*
X188850079Y-114960735D01*
X188867066Y-114841200D01*
X188867066Y-113441200D01*
X188861644Y-113373202D01*
X188825927Y-113257870D01*
X188759494Y-113157054D01*
X188667605Y-113078737D01*
X188557535Y-113029121D01*
X188438000Y-113012134D01*
X184327000Y-113012134D01*
X184327000Y-112027000D01*
X187700000Y-112027000D01*
X187855196Y-111997798D01*
X187997735Y-111906077D01*
X188093358Y-111766127D01*
X188127000Y-111600000D01*
X188127000Y-110400000D01*
X188097798Y-110244804D01*
X188006077Y-110102265D01*
X187866127Y-110006642D01*
X187700000Y-109973000D01*
X187206266Y-109973000D01*
X187206266Y-108472400D01*
X187200844Y-108404402D01*
X187165127Y-108289070D01*
X187098694Y-108188254D01*
X187006805Y-108109937D01*
X186896735Y-108060321D01*
X186777200Y-108043334D01*
X185328302Y-108043334D01*
X185644636Y-107727000D01*
X186200000Y-107727000D01*
X186355196Y-107697798D01*
X186465220Y-107627000D01*
X188173000Y-107627000D01*
X188173000Y-111500000D01*
X188202202Y-111655196D01*
X188293923Y-111797735D01*
X188433873Y-111893358D01*
X188600000Y-111927000D01*
X188623130Y-111927000D01*
X189998065Y-113301935D01*
X190133873Y-113393358D01*
X190300000Y-113427000D01*
X190961852Y-113427000D01*
X190723217Y-127990547D01*
X190723405Y-127992858D01*
X190723160Y-127995162D01*
X190727981Y-128048967D01*
X190732369Y-128102785D01*
X190733002Y-128105013D01*
X190733209Y-128107323D01*
X190748383Y-128159149D01*
X190763146Y-128211108D01*
X190764201Y-128213174D01*
X190764852Y-128215396D01*
X190789781Y-128263245D01*
X190814377Y-128311390D01*
X190815814Y-128313212D01*
X190816884Y-128315266D01*
X190850697Y-128357442D01*
X190884112Y-128399812D01*
X190885869Y-128401315D01*
X190887322Y-128403127D01*
X190928654Y-128437907D01*
X190969692Y-128473005D01*
X190971716Y-128474143D01*
X190973486Y-128475632D01*
X191020733Y-128501693D01*
X191067859Y-128528180D01*
X191070061Y-128528902D01*
X191072091Y-128530021D01*
X191123553Y-128546426D01*
X191174873Y-128563238D01*
X191177173Y-128563518D01*
X191179382Y-128564222D01*
X191233021Y-128570315D01*
X191286659Y-128576843D01*
X191288973Y-128576671D01*
X191291274Y-128576932D01*
X191299330Y-128576999D01*
X192321037Y-128578434D01*
X191944500Y-128578434D01*
X191876502Y-128583856D01*
X191761170Y-128619573D01*
X191660354Y-128686006D01*
X191582037Y-128777895D01*
X191532421Y-128887965D01*
X191515434Y-129007500D01*
X191515434Y-130707500D01*
X191520856Y-130775498D01*
X191556573Y-130890830D01*
X191623006Y-130991646D01*
X191714895Y-131069963D01*
X191824965Y-131119579D01*
X191944500Y-131136566D01*
X192844500Y-131136566D01*
X192912498Y-131131144D01*
X193027830Y-131095427D01*
X193128646Y-131028994D01*
X193206963Y-130937105D01*
X193256579Y-130827035D01*
X193273566Y-130707500D01*
X193273566Y-130434500D01*
X194738500Y-130434500D01*
X194738500Y-132475628D01*
X194682170Y-132493073D01*
X194581354Y-132559506D01*
X194503037Y-132651395D01*
X194453421Y-132761465D01*
X194436434Y-132881000D01*
X194436434Y-134581000D01*
X194441856Y-134648998D01*
X194477573Y-134764330D01*
X194544006Y-134865146D01*
X194610048Y-134921434D01*
X193314000Y-134921434D01*
X193246002Y-134926856D01*
X193130670Y-134962573D01*
X193029854Y-135029006D01*
X192992500Y-135072833D01*
X192992500Y-134986372D01*
X193048830Y-134968927D01*
X193149646Y-134902494D01*
X193227963Y-134810605D01*
X193277579Y-134700535D01*
X193294566Y-134581000D01*
X193294566Y-132881000D01*
X193289144Y-132813002D01*
X193253427Y-132697670D01*
X193186994Y-132596854D01*
X193095105Y-132518537D01*
X192985035Y-132468921D01*
X192865500Y-132451934D01*
X191965500Y-132451934D01*
X191897502Y-132457356D01*
X191782170Y-132493073D01*
X191681354Y-132559506D01*
X191603037Y-132651395D01*
X191553421Y-132761465D01*
X191536434Y-132881000D01*
X191536434Y-134581000D01*
X191541856Y-134648998D01*
X191577573Y-134764330D01*
X191644006Y-134865146D01*
X191735895Y-134943463D01*
X191838500Y-134989714D01*
X191838500Y-135837000D01*
X191839212Y-135844264D01*
X191647520Y-135880831D01*
X191545116Y-135922205D01*
X191542304Y-135920659D01*
X191539416Y-135919743D01*
X191536738Y-135918307D01*
X191485693Y-135902701D01*
X191434965Y-135886609D01*
X191431955Y-135886271D01*
X191429049Y-135885383D01*
X191376018Y-135879997D01*
X191323056Y-135874056D01*
X191317120Y-135874015D01*
X191317014Y-135874004D01*
X191316915Y-135874013D01*
X191315000Y-135874000D01*
X190866372Y-135874000D01*
X190848927Y-135817670D01*
X190782494Y-135716854D01*
X190690605Y-135638537D01*
X190580535Y-135588921D01*
X190461000Y-135571934D01*
X188761000Y-135571934D01*
X188693002Y-135577356D01*
X188577670Y-135613073D01*
X188476854Y-135679506D01*
X188398537Y-135771395D01*
X188348921Y-135881465D01*
X188331934Y-136001000D01*
X188331934Y-136901000D01*
X188337356Y-136968998D01*
X188373073Y-137084330D01*
X188439506Y-137185146D01*
X188531395Y-137263463D01*
X188641465Y-137313079D01*
X188761000Y-137330066D01*
X190461000Y-137330066D01*
X190528998Y-137324644D01*
X190644330Y-137288927D01*
X190695483Y-137255219D01*
X190695255Y-137271578D01*
X190731109Y-137466932D01*
X190663260Y-137421597D01*
X190585551Y-137389409D01*
X190503056Y-137373000D01*
X190142750Y-137373000D01*
X190036000Y-137479750D01*
X190036000Y-138025000D01*
X190781250Y-138025000D01*
X190888000Y-137918250D01*
X190888000Y-137847036D01*
X190979007Y-137988251D01*
X191159783Y-138175451D01*
X191373478Y-138323973D01*
X191611950Y-138428159D01*
X191866118Y-138484041D01*
X192126299Y-138489491D01*
X192382583Y-138444301D01*
X192625210Y-138350193D01*
X192844936Y-138210750D01*
X192979369Y-138082731D01*
X192935598Y-138148239D01*
X192903409Y-138225949D01*
X192887000Y-138308444D01*
X192887000Y-138493750D01*
X192993750Y-138600500D01*
X193941000Y-138600500D01*
X193941000Y-138030250D01*
X195187000Y-138030250D01*
X195187000Y-138600500D01*
X196134250Y-138600500D01*
X196241000Y-138493750D01*
X196241000Y-138308444D01*
X196224591Y-138225949D01*
X196192402Y-138148239D01*
X196145672Y-138078303D01*
X196086197Y-138018827D01*
X196016260Y-137972097D01*
X195938551Y-137939909D01*
X195856056Y-137923500D01*
X195293750Y-137923500D01*
X195187000Y-138030250D01*
X193941000Y-138030250D01*
X193834250Y-137923500D01*
X193271944Y-137923500D01*
X193189449Y-137939909D01*
X193111740Y-137972097D01*
X193042518Y-138018349D01*
X193183403Y-137818632D01*
X193289251Y-137580893D01*
X193346907Y-137327122D01*
X193351057Y-137029881D01*
X193301131Y-136777737D01*
X193314000Y-136779566D01*
X195814000Y-136779566D01*
X195881998Y-136774144D01*
X195997330Y-136738427D01*
X196098146Y-136671994D01*
X196176463Y-136580105D01*
X196226079Y-136470035D01*
X196232124Y-136427500D01*
X196527000Y-136427500D01*
X196527000Y-140787846D01*
X196486231Y-140804318D01*
X196276386Y-140941636D01*
X196197750Y-140863000D01*
X195250500Y-140863000D01*
X195250500Y-141433250D01*
X195357250Y-141540000D01*
X195851346Y-141540000D01*
X195832996Y-141582814D01*
X195778889Y-141837365D01*
X195775255Y-142097578D01*
X195822233Y-142353541D01*
X195918034Y-142595504D01*
X195984855Y-142699190D01*
X195877500Y-142683934D01*
X194555718Y-142683934D01*
X194519781Y-142680030D01*
X194475156Y-142683934D01*
X194322043Y-142683934D01*
X194278556Y-142679056D01*
X194272620Y-142679015D01*
X194272514Y-142679004D01*
X194272415Y-142679013D01*
X194270500Y-142679000D01*
X192956066Y-142679000D01*
X192956066Y-142406000D01*
X192950644Y-142338002D01*
X192914927Y-142222670D01*
X192848494Y-142121854D01*
X192756605Y-142043537D01*
X192646535Y-141993921D01*
X192527000Y-141976934D01*
X191627000Y-141976934D01*
X191559002Y-141982356D01*
X191443670Y-142018073D01*
X191342854Y-142084506D01*
X191264537Y-142176395D01*
X191214921Y-142286465D01*
X191197934Y-142406000D01*
X191197934Y-144106000D01*
X191203356Y-144173998D01*
X191239073Y-144289330D01*
X191305506Y-144390146D01*
X191397395Y-144468463D01*
X191507465Y-144518079D01*
X191627000Y-144535066D01*
X192527000Y-144535066D01*
X192594998Y-144529644D01*
X192710330Y-144493927D01*
X192811146Y-144427494D01*
X192889463Y-144335605D01*
X192939079Y-144225535D01*
X192950820Y-144142918D01*
X192953856Y-144180998D01*
X192989573Y-144296330D01*
X193056006Y-144397146D01*
X193147895Y-144475463D01*
X193257965Y-144525079D01*
X193377500Y-144542066D01*
X195877500Y-144542066D01*
X195945498Y-144536644D01*
X196060830Y-144500927D01*
X196161646Y-144434494D01*
X196239963Y-144342605D01*
X196289579Y-144232535D01*
X196295624Y-144190000D01*
X198731000Y-144190000D01*
X198784043Y-144184799D01*
X198837140Y-144180153D01*
X198840051Y-144179307D01*
X198843073Y-144179011D01*
X198894123Y-144163598D01*
X198945280Y-144148736D01*
X198947973Y-144147340D01*
X198950878Y-144146463D01*
X198997949Y-144121435D01*
X199045257Y-144096913D01*
X199047627Y-144095021D01*
X199050307Y-144093596D01*
X199091605Y-144059914D01*
X199133265Y-144026657D01*
X199137492Y-144022489D01*
X199137574Y-144022422D01*
X199137636Y-144022347D01*
X199139001Y-144021001D01*
X199242001Y-143918001D01*
X199275856Y-143876785D01*
X199310090Y-143835986D01*
X199311550Y-143833330D01*
X199313478Y-143830983D01*
X199338694Y-143783956D01*
X199364341Y-143737304D01*
X199365257Y-143734416D01*
X199366693Y-143731738D01*
X199382299Y-143680693D01*
X199398391Y-143629965D01*
X199398729Y-143626955D01*
X199399617Y-143624049D01*
X199404192Y-143579000D01*
X203200000Y-143579000D01*
X203253986Y-143573707D01*
X203308115Y-143568781D01*
X203310061Y-143568208D01*
X203312073Y-143568011D01*
X203363992Y-143552336D01*
X203416144Y-143536987D01*
X203417940Y-143536048D01*
X203419878Y-143535463D01*
X203467872Y-143509944D01*
X203515940Y-143484815D01*
X203517515Y-143483549D01*
X203519307Y-143482596D01*
X203561402Y-143448264D01*
X203603703Y-143414254D01*
X203605007Y-143412700D01*
X203606574Y-143411422D01*
X203641149Y-143369628D01*
X203676088Y-143327990D01*
X203677064Y-143326214D01*
X203678355Y-143324654D01*
X203704190Y-143276873D01*
X203730339Y-143229308D01*
X203730951Y-143227379D01*
X203731915Y-143225596D01*
X203747987Y-143173676D01*
X203764390Y-143121969D01*
X203764616Y-143119959D01*
X203765215Y-143118022D01*
X203770906Y-143063880D01*
X203776944Y-143010060D01*
X203776971Y-143006170D01*
X203776986Y-143006028D01*
X203776973Y-143005885D01*
X203777000Y-143002004D01*
X203777113Y-128005478D01*
X203776725Y-128001519D01*
X203777059Y-127997551D01*
X203771232Y-127945497D01*
X203766125Y-127893405D01*
X203764975Y-127889595D01*
X203764532Y-127885639D01*
X203748719Y-127835751D01*
X203733578Y-127785600D01*
X203731707Y-127782081D01*
X203730506Y-127778292D01*
X203705303Y-127732423D01*
X203680711Y-127686171D01*
X203678196Y-127683088D01*
X203676279Y-127679598D01*
X203642610Y-127639454D01*
X203609538Y-127598903D01*
X203606474Y-127596368D01*
X203603914Y-127593316D01*
X203563110Y-127560493D01*
X203522771Y-127527121D01*
X203519268Y-127525227D01*
X203516169Y-127522734D01*
X203469778Y-127498468D01*
X203423713Y-127473561D01*
X203419912Y-127472384D01*
X203416384Y-127470539D01*
X203366141Y-127455739D01*
X203316139Y-127440260D01*
X203312183Y-127439844D01*
X203308363Y-127438719D01*
X203256204Y-127433960D01*
X203204145Y-127428488D01*
X203200182Y-127428849D01*
X203196218Y-127428487D01*
X203188162Y-127428598D01*
X202686421Y-127438992D01*
X191886659Y-127423824D01*
X192116008Y-113427000D01*
X194600000Y-113427000D01*
X194755196Y-113397798D01*
X194897735Y-113306077D01*
X194993358Y-113166127D01*
X195027000Y-113000000D01*
X195027000Y-107000000D01*
X194995616Y-106839323D01*
X194901935Y-106698065D01*
X188301935Y-100098065D01*
X188166127Y-100006642D01*
X188000000Y-99973000D01*
X183700000Y-99973000D01*
X183539323Y-100004384D01*
X183398065Y-100098065D01*
X181498065Y-101998065D01*
X181406642Y-102133873D01*
X181373000Y-102300000D01*
X181373000Y-107000000D01*
X181404384Y-107160677D01*
X181498065Y-107301935D01*
X181677994Y-107481864D01*
X181677634Y-107485412D01*
X181660363Y-107639385D01*
X181660243Y-107656622D01*
X181660210Y-107656947D01*
X181660239Y-107657250D01*
X181660200Y-107662800D01*
X181660200Y-108367147D01*
X181553332Y-108277474D01*
X181326382Y-108152707D01*
X181079520Y-108074398D01*
X180822149Y-108045529D01*
X180803621Y-108045400D01*
X180790779Y-108045400D01*
X180533030Y-108070673D01*
X180285099Y-108145527D01*
X180056428Y-108267114D01*
X179855729Y-108430800D01*
X179690646Y-108630351D01*
X179567467Y-108858167D01*
X179542545Y-108938675D01*
X177201935Y-106598065D01*
X177066127Y-106506642D01*
X176900000Y-106473000D01*
X173300000Y-106473000D01*
X173150314Y-106500096D01*
X173006522Y-106589839D01*
X172908974Y-106728455D01*
X172873041Y-106894101D01*
X172877632Y-106918498D01*
X171298065Y-108498065D01*
X171206642Y-108633873D01*
X171173000Y-108800000D01*
X167427000Y-108800000D01*
X167427000Y-102460560D01*
X167807545Y-103051050D01*
X168342518Y-103605031D01*
X168974905Y-104044551D01*
X169680619Y-104352870D01*
X170432778Y-104518243D01*
X171202733Y-104534371D01*
X171961158Y-104400640D01*
X172679163Y-104122145D01*
X173329401Y-103709491D01*
X173887103Y-103178398D01*
X174331028Y-102549095D01*
X174644266Y-101845551D01*
X174814886Y-101094565D01*
X174827168Y-100214938D01*
X174677584Y-99459480D01*
X174384112Y-98747465D01*
X173957932Y-98106012D01*
X173415276Y-97559554D01*
X172848116Y-97177000D01*
X200358810Y-97177000D01*
X199827421Y-97524732D01*
X199827421Y-97524732D01*
G37*
X199827421Y-97524732D02*
X199277188Y-98063559D01*
X198842093Y-98699000D01*
X198538709Y-99406848D01*
X198378591Y-100160143D01*
X198367838Y-100930193D01*
X198506860Y-101687665D01*
X198790362Y-102403709D01*
X199207545Y-103051050D01*
X199742518Y-103605031D01*
X200374905Y-104044551D01*
X201080619Y-104352870D01*
X201832778Y-104518243D01*
X202602733Y-104534371D01*
X203361158Y-104400640D01*
X204079163Y-104122145D01*
X204729401Y-103709491D01*
X205287103Y-103178398D01*
X205731028Y-102549095D01*
X205773000Y-102454824D01*
X205773000Y-146405484D01*
X205407932Y-145856012D01*
X204865276Y-145309554D01*
X204226814Y-144878906D01*
X203516864Y-144580471D01*
X202762469Y-144425616D01*
X201992364Y-144420239D01*
X201235880Y-144564546D01*
X200521833Y-144853040D01*
X199877421Y-145274732D01*
X199327188Y-145813559D01*
X198892093Y-146449000D01*
X198588709Y-147156848D01*
X198428591Y-147910143D01*
X198417838Y-148680193D01*
X198556860Y-149437665D01*
X198840362Y-150153709D01*
X199257545Y-150801050D01*
X199792518Y-151355031D01*
X200321957Y-151723000D01*
X172785390Y-151723000D01*
X173279401Y-151409491D01*
X173837103Y-150878398D01*
X174281028Y-150249095D01*
X174594266Y-149545551D01*
X174764886Y-148794565D01*
X174777168Y-147914938D01*
X174627584Y-147159480D01*
X174334112Y-146447465D01*
X173907932Y-145806012D01*
X173365276Y-145259554D01*
X172726814Y-144828906D01*
X172016864Y-144530471D01*
X171262469Y-144375616D01*
X170492364Y-144370239D01*
X169735880Y-144514546D01*
X169021833Y-144803040D01*
X168377421Y-145224732D01*
X167827188Y-145763559D01*
X167427000Y-146348020D01*
X167427000Y-128600000D01*
X168923000Y-128600000D01*
X168923000Y-134050000D01*
X168928399Y-134105065D01*
X168933601Y-134160097D01*
X168933890Y-134161068D01*
X168933989Y-134162073D01*
X168949976Y-134215024D01*
X168965773Y-134268014D01*
X168966244Y-134268907D01*
X168966537Y-134269878D01*
X168992586Y-134318869D01*
X169018293Y-134367627D01*
X169018927Y-134368410D01*
X169019404Y-134369307D01*
X169054432Y-134412255D01*
X169089161Y-134455142D01*
X169089938Y-134455790D01*
X169090578Y-134456574D01*
X169133170Y-134491809D01*
X169175678Y-134527226D01*
X169176567Y-134527711D01*
X169177346Y-134528355D01*
X169225954Y-134554637D01*
X169274548Y-134581131D01*
X169275514Y-134581434D01*
X169276404Y-134581915D01*
X169329326Y-134598297D01*
X169382006Y-134614806D01*
X169383009Y-134614915D01*
X169383978Y-134615215D01*
X169438978Y-134620996D01*
X169493958Y-134626969D01*
X169494969Y-134626881D01*
X169495972Y-134626986D01*
X169551103Y-134621969D01*
X169606140Y-134617153D01*
X169607107Y-134616872D01*
X169608119Y-134616780D01*
X169661296Y-134601129D01*
X169714280Y-134585736D01*
X169715178Y-134585270D01*
X169716148Y-134584985D01*
X169765114Y-134559386D01*
X169779364Y-134552000D01*
X170265934Y-134552000D01*
X170265934Y-134750000D01*
X170271356Y-134817998D01*
X170307073Y-134933330D01*
X170373506Y-135034146D01*
X170418000Y-135072068D01*
X170418000Y-136789534D01*
X170396317Y-136829636D01*
X170396019Y-136830599D01*
X170395539Y-136831494D01*
X170379313Y-136884566D01*
X170363017Y-136937210D01*
X170362912Y-136938213D01*
X170362615Y-136939183D01*
X170357027Y-136994204D01*
X170351246Y-137049204D01*
X170351338Y-137050214D01*
X170351236Y-137051218D01*
X170356431Y-137106178D01*
X170361452Y-137161351D01*
X170361738Y-137162322D01*
X170361833Y-137163329D01*
X170377619Y-137216282D01*
X170393247Y-137269380D01*
X170393716Y-137270278D01*
X170394005Y-137271246D01*
X170419754Y-137320084D01*
X170445419Y-137369176D01*
X170446054Y-137369966D01*
X170446525Y-137370859D01*
X170481237Y-137413725D01*
X170515981Y-137456938D01*
X170516758Y-137457590D01*
X170517393Y-137458374D01*
X170559887Y-137493779D01*
X170602246Y-137529322D01*
X170603130Y-137529808D01*
X170603910Y-137530458D01*
X170652508Y-137556954D01*
X170700928Y-137583573D01*
X170701892Y-137583879D01*
X170702780Y-137584363D01*
X170755503Y-137600885D01*
X170808267Y-137617623D01*
X170809274Y-137617736D01*
X170810238Y-137618038D01*
X170865221Y-137624012D01*
X170920176Y-137630176D01*
X170922082Y-137630189D01*
X170922190Y-137630201D01*
X170922306Y-137630191D01*
X170928232Y-137630232D01*
X173969693Y-137630232D01*
X174023014Y-145403958D01*
X174024968Y-145422571D01*
X174024479Y-145441289D01*
X174030835Y-145478462D01*
X174034771Y-145515953D01*
X174040303Y-145533832D01*
X174043459Y-145552288D01*
X174056915Y-145587519D01*
X174068058Y-145623532D01*
X174076958Y-145639998D01*
X174083638Y-145657487D01*
X174103674Y-145689423D01*
X174121605Y-145722596D01*
X174133537Y-145737023D01*
X174143485Y-145752879D01*
X174169346Y-145780319D01*
X174193376Y-145809373D01*
X174207880Y-145821205D01*
X174220720Y-145834829D01*
X174251418Y-145856722D01*
X174280635Y-145880557D01*
X174297166Y-145889349D01*
X174312403Y-145900216D01*
X174346762Y-145915727D01*
X174380058Y-145933436D01*
X174397981Y-145938850D01*
X174415040Y-145946551D01*
X174451754Y-145955092D01*
X174487858Y-145965998D01*
X174506494Y-145967827D01*
X174524721Y-145972068D01*
X174562400Y-145973316D01*
X174599930Y-145977000D01*
X174618562Y-145975175D01*
X174637270Y-145975795D01*
X174645306Y-145975219D01*
X174874485Y-145957168D01*
X174977007Y-146116251D01*
X175157783Y-146303451D01*
X175371478Y-146451973D01*
X175609950Y-146556159D01*
X175864118Y-146612041D01*
X176124299Y-146617491D01*
X176380583Y-146572301D01*
X176623210Y-146478193D01*
X176842936Y-146338750D01*
X177031393Y-146159285D01*
X177181403Y-145946632D01*
X177287251Y-145708893D01*
X177344907Y-145455122D01*
X177349057Y-145157881D01*
X177298510Y-144902599D01*
X177199341Y-144661997D01*
X177055327Y-144445239D01*
X176871955Y-144260581D01*
X176656207Y-144115058D01*
X176416303Y-144014212D01*
X176161380Y-143961884D01*
X175901149Y-143960067D01*
X175645520Y-144008831D01*
X175404231Y-144106318D01*
X175186473Y-144248814D01*
X175169233Y-144265697D01*
X175160266Y-142958483D01*
X175231007Y-143068251D01*
X175411783Y-143255451D01*
X175625478Y-143403973D01*
X175735038Y-143451838D01*
X175741015Y-143472148D01*
X175741952Y-143473940D01*
X175742537Y-143475878D01*
X175768050Y-143523862D01*
X175793187Y-143571944D01*
X175794453Y-143573519D01*
X175795404Y-143575307D01*
X175829716Y-143617377D01*
X175863749Y-143659706D01*
X175865301Y-143661008D01*
X175866578Y-143662574D01*
X175908412Y-143697182D01*
X175950014Y-143732090D01*
X175951785Y-143733064D01*
X175953346Y-143734355D01*
X176001149Y-143760202D01*
X176048696Y-143786341D01*
X176050624Y-143786953D01*
X176052404Y-143787915D01*
X176104296Y-143803979D01*
X176156035Y-143820391D01*
X176158044Y-143820616D01*
X176159978Y-143821215D01*
X176213986Y-143826891D01*
X176267944Y-143832944D01*
X176271829Y-143832971D01*
X176271972Y-143832986D01*
X176272115Y-143832973D01*
X176276000Y-143833000D01*
X179534934Y-143833000D01*
X179534934Y-144106000D01*
X179540356Y-144173998D01*
X179576073Y-144289330D01*
X179642506Y-144390146D01*
X179734395Y-144468463D01*
X179844465Y-144518079D01*
X179964000Y-144535066D01*
X180864000Y-144535066D01*
X180931998Y-144529644D01*
X181047330Y-144493927D01*
X181148146Y-144427494D01*
X181226463Y-144335605D01*
X181276079Y-144225535D01*
X181293066Y-144106000D01*
X181293066Y-142406000D01*
X181287644Y-142338002D01*
X181251927Y-142222670D01*
X181185494Y-142121854D01*
X181093605Y-142043537D01*
X180983535Y-141993921D01*
X180864000Y-141976934D01*
X179964000Y-141976934D01*
X179896002Y-141982356D01*
X179780670Y-142018073D01*
X179679854Y-142084506D01*
X179601537Y-142176395D01*
X179551921Y-142286465D01*
X179534934Y-142406000D01*
X179534934Y-142679000D01*
X177533189Y-142679000D01*
X177541251Y-142660893D01*
X177598907Y-142407122D01*
X177603057Y-142109881D01*
X177552510Y-141854599D01*
X177453341Y-141613997D01*
X177309327Y-141397239D01*
X177125955Y-141212581D01*
X176910207Y-141067058D01*
X176670303Y-140966212D01*
X176415380Y-140913884D01*
X176155149Y-140912067D01*
X175899520Y-140960831D01*
X175658231Y-141058318D01*
X175440473Y-141200814D01*
X175254540Y-141382894D01*
X175150501Y-141534839D01*
X175145650Y-140827578D01*
X177995255Y-140827578D01*
X178042233Y-141083541D01*
X178138034Y-141325504D01*
X178279007Y-141544251D01*
X178459783Y-141731451D01*
X178673478Y-141879973D01*
X178911950Y-141984159D01*
X179166118Y-142040041D01*
X179426299Y-142045491D01*
X179682583Y-142000301D01*
X179925210Y-141906193D01*
X180144936Y-141766750D01*
X180333393Y-141587285D01*
X180483403Y-141374632D01*
X180589251Y-141136893D01*
X180611492Y-141039000D01*
X184249878Y-141039000D01*
X184249229Y-141040211D01*
X184224637Y-141084944D01*
X184223759Y-141087712D01*
X184222388Y-141090269D01*
X184207472Y-141139055D01*
X184192063Y-141187633D01*
X184191740Y-141190513D01*
X184190890Y-141193293D01*
X184185730Y-141244087D01*
X184180054Y-141294693D01*
X184180014Y-141300362D01*
X184180003Y-141300473D01*
X184180013Y-141300576D01*
X184180000Y-141302400D01*
X184180000Y-141992886D01*
X184098670Y-142018073D01*
X184022567Y-142068221D01*
X183993605Y-142043537D01*
X183883535Y-141993921D01*
X183764000Y-141976934D01*
X182864000Y-141976934D01*
X182796002Y-141982356D01*
X182680670Y-142018073D01*
X182579854Y-142084506D01*
X182501537Y-142176395D01*
X182451921Y-142286465D01*
X182434934Y-142406000D01*
X182434934Y-144106000D01*
X182440356Y-144173998D01*
X182476073Y-144289330D01*
X182542506Y-144390146D01*
X182634395Y-144468463D01*
X182744465Y-144518079D01*
X182864000Y-144535066D01*
X183764000Y-144535066D01*
X183831998Y-144529644D01*
X183947330Y-144493927D01*
X184023433Y-144443779D01*
X184052395Y-144468463D01*
X184162465Y-144518079D01*
X184282000Y-144535066D01*
X185182000Y-144535066D01*
X185249998Y-144529644D01*
X185365330Y-144493927D01*
X185466146Y-144427494D01*
X185544463Y-144335605D01*
X185594079Y-144225535D01*
X185611066Y-144106000D01*
X185611066Y-142406000D01*
X186752934Y-142406000D01*
X186752934Y-144106000D01*
X186758356Y-144173998D01*
X186794073Y-144289330D01*
X186860506Y-144390146D01*
X186952395Y-144468463D01*
X187062465Y-144518079D01*
X187182000Y-144535066D01*
X188082000Y-144535066D01*
X188149998Y-144529644D01*
X188265330Y-144493927D01*
X188366146Y-144427494D01*
X188402223Y-144385165D01*
X188405506Y-144390146D01*
X188497395Y-144468463D01*
X188607465Y-144518079D01*
X188727000Y-144535066D01*
X189627000Y-144535066D01*
X189694998Y-144529644D01*
X189810330Y-144493927D01*
X189911146Y-144427494D01*
X189989463Y-144335605D01*
X190039079Y-144225535D01*
X190056066Y-144106000D01*
X190056066Y-142406000D01*
X190052132Y-142356666D01*
X190052831Y-142355814D01*
X190087090Y-142314986D01*
X190088550Y-142312330D01*
X190090478Y-142309983D01*
X190115675Y-142262991D01*
X190141341Y-142216304D01*
X190142259Y-142213411D01*
X190143692Y-142210738D01*
X190159285Y-142159739D01*
X190175391Y-142108965D01*
X190175729Y-142105954D01*
X190176617Y-142103049D01*
X190182003Y-142050018D01*
X190184353Y-142029066D01*
X190461000Y-142029066D01*
X190528998Y-142023644D01*
X190644330Y-141987927D01*
X190745146Y-141921494D01*
X190823463Y-141829605D01*
X190873079Y-141719535D01*
X190890066Y-141600000D01*
X190890066Y-140969750D01*
X192950500Y-140969750D01*
X192950500Y-141155056D01*
X192966909Y-141237551D01*
X192999098Y-141315261D01*
X193045828Y-141385197D01*
X193105303Y-141444673D01*
X193175240Y-141491403D01*
X193252949Y-141523591D01*
X193335444Y-141540000D01*
X193897750Y-141540000D01*
X194004500Y-141433250D01*
X194004500Y-140863000D01*
X193057250Y-140863000D01*
X192950500Y-140969750D01*
X190890066Y-140969750D01*
X190890066Y-140700000D01*
X190884644Y-140632002D01*
X190848927Y-140516670D01*
X190782494Y-140415854D01*
X190690605Y-140337537D01*
X190580535Y-140287921D01*
X190461000Y-140270934D01*
X188761000Y-140270934D01*
X188693002Y-140276356D01*
X188577670Y-140312073D01*
X188476854Y-140378506D01*
X188398537Y-140470395D01*
X188348921Y-140580465D01*
X188331934Y-140700000D01*
X188331934Y-141600000D01*
X188337356Y-141667998D01*
X188373073Y-141783330D01*
X188439506Y-141884146D01*
X188531395Y-141962463D01*
X188602355Y-141994449D01*
X188601722Y-142000095D01*
X188543670Y-142018073D01*
X188442854Y-142084506D01*
X188406777Y-142126835D01*
X188403494Y-142121854D01*
X188311605Y-142043537D01*
X188201535Y-141993921D01*
X188082000Y-141976934D01*
X187182000Y-141976934D01*
X187114002Y-141982356D01*
X186998670Y-142018073D01*
X186897854Y-142084506D01*
X186819537Y-142176395D01*
X186769921Y-142286465D01*
X186752934Y-142406000D01*
X185611066Y-142406000D01*
X185605644Y-142338002D01*
X185569927Y-142222670D01*
X185503494Y-142121854D01*
X185411605Y-142043537D01*
X185301535Y-141993921D01*
X185284000Y-141991429D01*
X185284000Y-141674400D01*
X186232800Y-141674400D01*
X186285390Y-141669243D01*
X186338127Y-141664258D01*
X186339055Y-141663981D01*
X186340017Y-141663887D01*
X186390528Y-141648637D01*
X186441368Y-141633481D01*
X186442228Y-141633028D01*
X186443151Y-141632749D01*
X186489795Y-141607949D01*
X186536666Y-141583236D01*
X186537418Y-141582627D01*
X186538272Y-141582173D01*
X186579162Y-141548824D01*
X186620389Y-141515439D01*
X186621012Y-141514692D01*
X186621758Y-141514083D01*
X186655368Y-141473455D01*
X186689348Y-141432671D01*
X186689812Y-141431820D01*
X186690429Y-141431074D01*
X186715636Y-141384455D01*
X186740918Y-141338083D01*
X186741206Y-141337163D01*
X186741668Y-141336309D01*
X186757341Y-141285678D01*
X186773135Y-141235282D01*
X186773239Y-141234321D01*
X186773526Y-141233395D01*
X186779062Y-141180722D01*
X186784770Y-141128181D01*
X186784686Y-141127218D01*
X186784787Y-141126254D01*
X186779993Y-141073576D01*
X186775381Y-141020859D01*
X186775111Y-141019928D01*
X186775023Y-141018966D01*
X186760107Y-140968287D01*
X186754200Y-140947956D01*
X186754200Y-140305414D01*
X186789663Y-140263805D01*
X186839279Y-140153735D01*
X186856266Y-140034200D01*
X186856266Y-139671700D01*
X186964700Y-139671700D01*
X186964700Y-140354450D01*
X187071450Y-140461200D01*
X187119256Y-140461200D01*
X187201751Y-140444791D01*
X187279461Y-140412602D01*
X187349397Y-140365872D01*
X187408873Y-140306397D01*
X187455603Y-140236460D01*
X187487791Y-140158751D01*
X187504200Y-140076256D01*
X187504200Y-139778450D01*
X187397450Y-139671700D01*
X186964700Y-139671700D01*
X186856266Y-139671700D01*
X186856266Y-139207250D01*
X192887000Y-139207250D01*
X192887000Y-139392556D01*
X192903409Y-139475051D01*
X192935598Y-139552761D01*
X192982328Y-139622697D01*
X193041803Y-139682173D01*
X193111740Y-139728903D01*
X193156200Y-139747319D01*
X193105303Y-139781327D01*
X193045828Y-139840803D01*
X192999098Y-139910739D01*
X192966909Y-139988449D01*
X192950500Y-140070944D01*
X192950500Y-140256250D01*
X193057250Y-140363000D01*
X194004500Y-140363000D01*
X194004500Y-139792750D01*
X193911750Y-139700000D01*
X193941000Y-139670750D01*
X193941000Y-139100500D01*
X195187000Y-139100500D01*
X195187000Y-139670750D01*
X195279750Y-139763500D01*
X195250500Y-139792750D01*
X195250500Y-140363000D01*
X196197750Y-140363000D01*
X196304500Y-140256250D01*
X196304500Y-140070944D01*
X196288091Y-139988449D01*
X196255902Y-139910739D01*
X196209172Y-139840803D01*
X196149697Y-139781327D01*
X196079760Y-139734597D01*
X196035300Y-139716181D01*
X196086197Y-139682173D01*
X196145672Y-139622697D01*
X196192402Y-139552761D01*
X196224591Y-139475051D01*
X196241000Y-139392556D01*
X196241000Y-139207250D01*
X196134250Y-139100500D01*
X195187000Y-139100500D01*
X193941000Y-139100500D01*
X192993750Y-139100500D01*
X192887000Y-139207250D01*
X186856266Y-139207250D01*
X186856266Y-138584200D01*
X186850844Y-138516202D01*
X186815127Y-138400870D01*
X186748694Y-138300054D01*
X186739700Y-138292388D01*
X186739700Y-138263950D01*
X186964700Y-138263950D01*
X186964700Y-138946700D01*
X187397450Y-138946700D01*
X187504200Y-138839950D01*
X187504200Y-138581750D01*
X188334000Y-138581750D01*
X188334000Y-138742056D01*
X188350409Y-138824551D01*
X188382598Y-138902261D01*
X188429328Y-138972197D01*
X188488803Y-139031673D01*
X188558740Y-139078403D01*
X188636449Y-139110591D01*
X188718944Y-139127000D01*
X189079250Y-139127000D01*
X189186000Y-139020250D01*
X189186000Y-138475000D01*
X190036000Y-138475000D01*
X190036000Y-139020250D01*
X190142750Y-139127000D01*
X190503056Y-139127000D01*
X190585551Y-139110591D01*
X190663260Y-139078403D01*
X190733197Y-139031673D01*
X190792672Y-138972197D01*
X190839402Y-138902261D01*
X190871591Y-138824551D01*
X190888000Y-138742056D01*
X190888000Y-138581750D01*
X190781250Y-138475000D01*
X190036000Y-138475000D01*
X189186000Y-138475000D01*
X188440750Y-138475000D01*
X188334000Y-138581750D01*
X187504200Y-138581750D01*
X187504200Y-138542144D01*
X187487791Y-138459649D01*
X187455603Y-138381940D01*
X187408873Y-138312003D01*
X187349397Y-138252528D01*
X187279461Y-138205798D01*
X187201751Y-138173609D01*
X187119256Y-138157200D01*
X187071450Y-138157200D01*
X186964700Y-138263950D01*
X186739700Y-138263950D01*
X186632950Y-138157200D01*
X186585144Y-138157200D01*
X186525384Y-138169087D01*
X186427200Y-138155134D01*
X185977200Y-138155134D01*
X185909202Y-138160556D01*
X185879683Y-138169698D01*
X185777200Y-138155134D01*
X185327200Y-138155134D01*
X185259202Y-138160556D01*
X185229683Y-138169698D01*
X185127200Y-138155134D01*
X184677200Y-138155134D01*
X184609202Y-138160556D01*
X184493870Y-138196273D01*
X184393054Y-138262706D01*
X184314737Y-138354595D01*
X184265121Y-138464665D01*
X184248134Y-138584200D01*
X184248134Y-139885000D01*
X182034600Y-139885000D01*
X182034600Y-139641466D01*
X182307600Y-139641466D01*
X182375598Y-139636044D01*
X182490930Y-139600327D01*
X182591746Y-139533894D01*
X182670063Y-139442005D01*
X182719679Y-139331935D01*
X182736666Y-139212400D01*
X182736666Y-138312400D01*
X182731244Y-138244402D01*
X182695527Y-138129070D01*
X182629094Y-138028254D01*
X182537205Y-137949937D01*
X182427135Y-137900321D01*
X182307600Y-137883334D01*
X180607600Y-137883334D01*
X180539602Y-137888756D01*
X180424270Y-137924473D01*
X180323454Y-137990906D01*
X180245137Y-138082795D01*
X180195521Y-138192865D01*
X180178534Y-138312400D01*
X180178534Y-139212400D01*
X180183956Y-139280398D01*
X180219673Y-139395730D01*
X180286106Y-139496546D01*
X180377995Y-139574863D01*
X180488065Y-139624479D01*
X180607600Y-139641466D01*
X180880600Y-139641466D01*
X180880600Y-139885000D01*
X180365141Y-139885000D01*
X180357327Y-139873239D01*
X180173955Y-139688581D01*
X179958207Y-139543058D01*
X179718303Y-139442212D01*
X179463380Y-139389884D01*
X179203149Y-139388067D01*
X178947520Y-139436831D01*
X178706231Y-139534318D01*
X178488473Y-139676814D01*
X178302540Y-139858894D01*
X178155514Y-140073620D01*
X178052996Y-140312814D01*
X177998889Y-140567365D01*
X177995255Y-140827578D01*
X175145650Y-140827578D01*
X175124596Y-137757944D01*
X188334000Y-137757944D01*
X188334000Y-137918250D01*
X188440750Y-138025000D01*
X189186000Y-138025000D01*
X189186000Y-137479750D01*
X189079250Y-137373000D01*
X188718944Y-137373000D01*
X188636449Y-137389409D01*
X188558740Y-137421597D01*
X188488803Y-137468327D01*
X188429328Y-137527803D01*
X188382598Y-137597739D01*
X188350409Y-137675449D01*
X188334000Y-137757944D01*
X175124596Y-137757944D01*
X175123731Y-137631940D01*
X179757651Y-137651718D01*
X179821149Y-137658392D01*
X179928437Y-137648628D01*
X180031786Y-137618210D01*
X180127258Y-137568299D01*
X180139688Y-137558305D01*
X180142255Y-137556954D01*
X180143940Y-137555592D01*
X180145858Y-137554564D01*
X180187816Y-137520118D01*
X180229825Y-137486154D01*
X180231213Y-137484491D01*
X180232895Y-137483110D01*
X180267334Y-137441206D01*
X180301976Y-137399693D01*
X180303016Y-137397789D01*
X180304395Y-137396111D01*
X180330042Y-137348311D01*
X180355958Y-137300864D01*
X180356607Y-137298799D01*
X180357636Y-137296881D01*
X180373520Y-137244975D01*
X180389717Y-137193433D01*
X180389953Y-137191279D01*
X180390589Y-137189200D01*
X180396084Y-137135244D01*
X180401966Y-137081491D01*
X180401779Y-137079331D01*
X180401999Y-137077168D01*
X180401973Y-137069112D01*
X180398042Y-136683899D01*
X180488065Y-136724479D01*
X180607600Y-136741466D01*
X182307600Y-136741466D01*
X182375598Y-136736044D01*
X182490930Y-136700327D01*
X182591746Y-136633894D01*
X182670063Y-136542005D01*
X182719679Y-136431935D01*
X182736666Y-136312400D01*
X182736666Y-135412400D01*
X182731244Y-135344402D01*
X182695527Y-135229070D01*
X182629094Y-135128254D01*
X182557950Y-135067618D01*
X182570820Y-135060743D01*
X182588902Y-135053896D01*
X182620388Y-135034266D01*
X182653102Y-135016792D01*
X182668057Y-135004548D01*
X182684462Y-134994320D01*
X182711530Y-134968954D01*
X182740233Y-134945453D01*
X182752527Y-134930535D01*
X182766631Y-134917317D01*
X182788257Y-134887176D01*
X182811848Y-134858548D01*
X182821009Y-134841527D01*
X182832279Y-134825820D01*
X182847638Y-134792054D01*
X182865220Y-134759388D01*
X182870902Y-134740909D01*
X182878904Y-134723316D01*
X182887410Y-134687218D01*
X182898315Y-134651751D01*
X182900300Y-134632517D01*
X182904732Y-134613707D01*
X182906064Y-134576646D01*
X182909873Y-134539735D01*
X182909857Y-134531679D01*
X182907020Y-134212489D01*
X184157262Y-134181000D01*
X184248589Y-134181000D01*
X184248134Y-134184200D01*
X184248134Y-135634200D01*
X184253556Y-135702198D01*
X184289273Y-135817530D01*
X184355706Y-135918346D01*
X184447595Y-135996663D01*
X184557665Y-136046279D01*
X184677200Y-136063266D01*
X185127200Y-136063266D01*
X185195198Y-136057844D01*
X185224717Y-136048702D01*
X185327200Y-136063266D01*
X185777200Y-136063266D01*
X185845198Y-136057844D01*
X185874717Y-136048702D01*
X185977200Y-136063266D01*
X186427200Y-136063266D01*
X186495198Y-136057844D01*
X186524717Y-136048702D01*
X186627200Y-136063266D01*
X187077200Y-136063266D01*
X187145198Y-136057844D01*
X187260530Y-136022127D01*
X187361346Y-135955694D01*
X187439663Y-135863805D01*
X187489279Y-135753735D01*
X187506266Y-135634200D01*
X187506266Y-134184200D01*
X187505658Y-134176576D01*
X187554920Y-134171746D01*
X187609952Y-134166544D01*
X187610923Y-134166255D01*
X187611928Y-134166156D01*
X187664940Y-134150151D01*
X187717869Y-134134372D01*
X187718762Y-134133901D01*
X187719733Y-134133608D01*
X187768724Y-134107559D01*
X187817482Y-134081852D01*
X187818265Y-134081218D01*
X187819162Y-134080741D01*
X187862110Y-134045713D01*
X187904997Y-134010984D01*
X187905645Y-134010207D01*
X187906429Y-134009567D01*
X187941690Y-133966944D01*
X187977081Y-133924467D01*
X187977566Y-133923578D01*
X187978210Y-133922799D01*
X187999864Y-133882750D01*
X188334000Y-133882750D01*
X188334000Y-134043056D01*
X188350409Y-134125551D01*
X188382598Y-134203261D01*
X188429328Y-134273197D01*
X188488803Y-134332673D01*
X188558740Y-134379403D01*
X188636449Y-134411591D01*
X188718944Y-134428000D01*
X189079250Y-134428000D01*
X189186000Y-134321250D01*
X189186000Y-133776000D01*
X190036000Y-133776000D01*
X190036000Y-134321250D01*
X190142750Y-134428000D01*
X190503056Y-134428000D01*
X190585551Y-134411591D01*
X190663260Y-134379403D01*
X190733197Y-134332673D01*
X190792672Y-134273197D01*
X190839402Y-134203261D01*
X190871591Y-134125551D01*
X190888000Y-134043056D01*
X190888000Y-133882750D01*
X190781250Y-133776000D01*
X190036000Y-133776000D01*
X189186000Y-133776000D01*
X188440750Y-133776000D01*
X188334000Y-133882750D01*
X187999864Y-133882750D01*
X188004492Y-133874191D01*
X188030986Y-133825597D01*
X188031289Y-133824631D01*
X188031770Y-133823741D01*
X188048152Y-133770819D01*
X188064661Y-133718139D01*
X188064770Y-133717136D01*
X188065070Y-133716167D01*
X188070851Y-133661167D01*
X188076824Y-133606187D01*
X188076736Y-133605176D01*
X188076841Y-133604173D01*
X188071824Y-133549042D01*
X188068785Y-133514309D01*
X188272936Y-133384750D01*
X188388987Y-133274237D01*
X188440750Y-133326000D01*
X189186000Y-133326000D01*
X189186000Y-132780750D01*
X190036000Y-132780750D01*
X190036000Y-133326000D01*
X190781250Y-133326000D01*
X190888000Y-133219250D01*
X190888000Y-133058944D01*
X190871591Y-132976449D01*
X190839402Y-132898739D01*
X190792672Y-132828803D01*
X190733197Y-132769327D01*
X190663260Y-132722597D01*
X190585551Y-132690409D01*
X190503056Y-132674000D01*
X190142750Y-132674000D01*
X190036000Y-132780750D01*
X189186000Y-132780750D01*
X189079250Y-132674000D01*
X188735630Y-132674000D01*
X188774907Y-132501122D01*
X188779057Y-132203881D01*
X188728510Y-131948599D01*
X188629341Y-131707997D01*
X188485327Y-131491239D01*
X188301955Y-131306581D01*
X188086207Y-131161058D01*
X187846303Y-131060212D01*
X187591380Y-131007884D01*
X187331149Y-131006067D01*
X187075520Y-131054831D01*
X186834231Y-131152318D01*
X186616473Y-131294814D01*
X186430540Y-131476894D01*
X186283514Y-131691620D01*
X186180996Y-131930814D01*
X186126889Y-132185365D01*
X186123255Y-132445578D01*
X186170233Y-132701541D01*
X186266034Y-132943504D01*
X186317359Y-133023145D01*
X186207481Y-133023145D01*
X186159117Y-133027887D01*
X186110586Y-133031338D01*
X186103109Y-133033379D01*
X186095408Y-133034134D01*
X186048875Y-133048183D01*
X186001950Y-133060992D01*
X185995018Y-133064443D01*
X185987603Y-133066682D01*
X185944667Y-133089511D01*
X185901142Y-133111181D01*
X185895012Y-133115913D01*
X185888174Y-133119549D01*
X185850491Y-133150283D01*
X185812003Y-133179995D01*
X185811709Y-133180332D01*
X185810967Y-133179649D01*
X185777811Y-133154614D01*
X185745986Y-133127910D01*
X185732961Y-133120750D01*
X185721098Y-133111792D01*
X185683707Y-133093672D01*
X185647304Y-133073659D01*
X185633138Y-133069165D01*
X185619760Y-133062682D01*
X185579558Y-133052169D01*
X185539965Y-133039609D01*
X185525196Y-133037952D01*
X185510813Y-133034191D01*
X185469340Y-133031687D01*
X185428056Y-133027056D01*
X185420000Y-133027000D01*
X184150000Y-133027000D01*
X184146767Y-133027317D01*
X184143527Y-133027036D01*
X184135472Y-133027183D01*
X184065491Y-133028946D01*
X184613890Y-132875815D01*
X184734706Y-132825771D01*
X185063951Y-132529806D01*
X183548800Y-131014655D01*
X182033649Y-132529806D01*
X182362894Y-132825771D01*
X182910897Y-133005400D01*
X183270911Y-133048958D01*
X182310471Y-133073148D01*
X182261232Y-133079231D01*
X182211848Y-133084168D01*
X182205398Y-133086129D01*
X182198710Y-133086955D01*
X182151570Y-133102493D01*
X182104106Y-133116922D01*
X182098164Y-133120096D01*
X182091759Y-133122207D01*
X182048521Y-133146613D01*
X182004777Y-133169979D01*
X181999564Y-133174247D01*
X181993693Y-133177561D01*
X181956036Y-133209886D01*
X181917646Y-133241318D01*
X181913359Y-133246520D01*
X181908245Y-133250910D01*
X181877576Y-133289943D01*
X181846031Y-133328223D01*
X181842839Y-133334154D01*
X181838672Y-133339457D01*
X181816171Y-133383700D01*
X181792659Y-133427383D01*
X181790678Y-133433826D01*
X181787623Y-133439833D01*
X181774149Y-133487583D01*
X181759564Y-133535020D01*
X181758872Y-133541725D01*
X181757042Y-133548211D01*
X181753101Y-133597656D01*
X181748006Y-133647036D01*
X181748022Y-133655092D01*
X181751074Y-133998520D01*
X181699173Y-134002095D01*
X181439488Y-134006827D01*
X181052000Y-134013888D01*
X181052000Y-132850000D01*
X181046795Y-132796913D01*
X181042153Y-132743860D01*
X181041307Y-132740949D01*
X181041011Y-132737927D01*
X181025598Y-132686877D01*
X181010736Y-132635720D01*
X181009340Y-132633027D01*
X181008463Y-132630122D01*
X180983435Y-132583051D01*
X180958913Y-132535743D01*
X180957021Y-132533373D01*
X180955596Y-132530693D01*
X180921914Y-132489395D01*
X180888657Y-132447735D01*
X180884492Y-132443512D01*
X180884422Y-132443426D01*
X180884342Y-132443360D01*
X180883000Y-132441999D01*
X180783001Y-132341999D01*
X180741785Y-132308144D01*
X180700986Y-132273910D01*
X180698330Y-132272450D01*
X180695983Y-132270522D01*
X180648956Y-132245306D01*
X180602304Y-132219659D01*
X180599416Y-132218743D01*
X180596738Y-132217307D01*
X180545693Y-132201701D01*
X180494965Y-132185609D01*
X180491955Y-132185271D01*
X180489049Y-132184383D01*
X180436018Y-132178997D01*
X180383056Y-132173056D01*
X180377120Y-132173015D01*
X180377014Y-132173004D01*
X180376915Y-132173013D01*
X180375000Y-132173000D01*
X179420856Y-132173000D01*
X179387927Y-132066670D01*
X179321494Y-131965854D01*
X179248413Y-131903567D01*
X179259146Y-131896494D01*
X179337463Y-131804605D01*
X179387079Y-131694535D01*
X179404066Y-131575000D01*
X179404066Y-130575000D01*
X179398644Y-130507002D01*
X179362927Y-130391670D01*
X179296494Y-130290854D01*
X179204605Y-130212537D01*
X179094535Y-130162921D01*
X178975000Y-130145934D01*
X177375000Y-130145934D01*
X177307002Y-130151356D01*
X177191670Y-130187073D01*
X177090854Y-130253506D01*
X177012537Y-130345395D01*
X176962921Y-130455465D01*
X176945934Y-130575000D01*
X176945934Y-131575000D01*
X176951356Y-131642998D01*
X176987073Y-131758330D01*
X177053506Y-131859146D01*
X177126587Y-131921433D01*
X177115854Y-131928506D01*
X177037537Y-132020395D01*
X176987921Y-132130465D01*
X176970934Y-132250000D01*
X176970934Y-133250000D01*
X176976356Y-133317998D01*
X177012073Y-133433330D01*
X177078506Y-133534146D01*
X177170395Y-133612463D01*
X177280465Y-133662079D01*
X177400000Y-133679066D01*
X179000000Y-133679066D01*
X179067998Y-133673644D01*
X179183330Y-133637927D01*
X179284146Y-133571494D01*
X179362463Y-133479605D01*
X179412079Y-133369535D01*
X179418124Y-133327000D01*
X179898000Y-133327000D01*
X179898000Y-134044238D01*
X179779921Y-134048349D01*
X179733097Y-134054592D01*
X179686103Y-134059353D01*
X179677358Y-134062024D01*
X179668299Y-134063232D01*
X179623576Y-134078451D01*
X179578404Y-134092249D01*
X179570350Y-134096565D01*
X179561692Y-134099511D01*
X179520772Y-134123131D01*
X179479145Y-134145436D01*
X179472080Y-134151236D01*
X179464163Y-134155806D01*
X179428627Y-134186909D01*
X179392108Y-134216890D01*
X179386301Y-134223955D01*
X179379425Y-134229974D01*
X179350604Y-134267391D01*
X179320608Y-134303889D01*
X179316287Y-134311943D01*
X179310707Y-134319187D01*
X179289694Y-134361507D01*
X179267367Y-134403120D01*
X179264693Y-134411859D01*
X179260626Y-134420049D01*
X179248234Y-134465640D01*
X179234414Y-134510801D01*
X179233488Y-134519895D01*
X179231090Y-134528717D01*
X179227790Y-134575843D01*
X179223004Y-134622832D01*
X179223030Y-134630888D01*
X179225646Y-134887223D01*
X179202260Y-134871597D01*
X179124551Y-134839409D01*
X179042056Y-134823000D01*
X178706750Y-134823000D01*
X178600000Y-134929750D01*
X178600000Y-135500000D01*
X178843000Y-135500000D01*
X178843000Y-136000000D01*
X178600000Y-136000000D01*
X178600000Y-136250000D01*
X177800000Y-136250000D01*
X177800000Y-136000000D01*
X177079750Y-136000000D01*
X176973000Y-136106750D01*
X176973000Y-136292056D01*
X176989409Y-136374551D01*
X177021598Y-136452261D01*
X177044226Y-136486126D01*
X174727343Y-136476237D01*
X174572997Y-136475578D01*
X174566021Y-136476232D01*
X173361717Y-136476232D01*
X173409403Y-136408632D01*
X173515251Y-136170893D01*
X173572907Y-135917122D01*
X173577057Y-135619881D01*
X173526510Y-135364599D01*
X173461942Y-135207944D01*
X176973000Y-135207944D01*
X176973000Y-135393250D01*
X177079750Y-135500000D01*
X177800000Y-135500000D01*
X177800000Y-134929750D01*
X177693250Y-134823000D01*
X177357944Y-134823000D01*
X177275449Y-134839409D01*
X177197740Y-134871597D01*
X177127803Y-134918327D01*
X177068328Y-134977803D01*
X177021598Y-135047739D01*
X176989409Y-135125449D01*
X176973000Y-135207944D01*
X173461942Y-135207944D01*
X173450039Y-135179066D01*
X173835000Y-135179066D01*
X173902998Y-135173644D01*
X174018330Y-135137927D01*
X174119146Y-135071494D01*
X174167982Y-135014195D01*
X174173328Y-135022197D01*
X174232803Y-135081673D01*
X174302740Y-135128403D01*
X174380449Y-135160591D01*
X174462944Y-135177000D01*
X174548250Y-135177000D01*
X174655000Y-135070250D01*
X174655000Y-134362500D01*
X174955000Y-134362500D01*
X174955000Y-135070250D01*
X175061750Y-135177000D01*
X175147056Y-135177000D01*
X175229551Y-135160591D01*
X175307260Y-135128403D01*
X175377197Y-135081673D01*
X175436672Y-135022197D01*
X175483402Y-134952261D01*
X175515591Y-134874551D01*
X175532000Y-134792056D01*
X175532000Y-134469250D01*
X175425250Y-134362500D01*
X174955000Y-134362500D01*
X174655000Y-134362500D01*
X174505000Y-134362500D01*
X174505000Y-133587500D01*
X174655000Y-133587500D01*
X174655000Y-132879750D01*
X174955000Y-132879750D01*
X174955000Y-133587500D01*
X175425250Y-133587500D01*
X175532000Y-133480750D01*
X175532000Y-133157944D01*
X175515591Y-133075449D01*
X175483402Y-132997739D01*
X175436672Y-132927803D01*
X175377197Y-132868327D01*
X175307260Y-132821597D01*
X175229551Y-132789409D01*
X175147056Y-132773000D01*
X175061750Y-132773000D01*
X174955000Y-132879750D01*
X174655000Y-132879750D01*
X174548250Y-132773000D01*
X174462944Y-132773000D01*
X174380449Y-132789409D01*
X174302740Y-132821597D01*
X174232803Y-132868327D01*
X174173328Y-132927803D01*
X174168817Y-132934555D01*
X174156494Y-132915854D01*
X174064605Y-132837537D01*
X173954535Y-132787921D01*
X173835000Y-132770934D01*
X173235000Y-132770934D01*
X173167002Y-132776356D01*
X173051670Y-132812073D01*
X172950854Y-132878506D01*
X172900677Y-132937378D01*
X172886494Y-132915854D01*
X172794605Y-132837537D01*
X172684535Y-132787921D01*
X172565000Y-132770934D01*
X171965000Y-132770934D01*
X171897002Y-132776356D01*
X171781670Y-132812073D01*
X171680854Y-132878506D01*
X171630677Y-132937378D01*
X171616494Y-132915854D01*
X171524605Y-132837537D01*
X171414535Y-132787921D01*
X171295000Y-132770934D01*
X170695000Y-132770934D01*
X170627002Y-132776356D01*
X170511670Y-132812073D01*
X170410854Y-132878506D01*
X170332537Y-132970395D01*
X170282921Y-133080465D01*
X170265934Y-133200000D01*
X170265934Y-133398000D01*
X170077000Y-133398000D01*
X170077000Y-130068215D01*
X180607731Y-130068215D01*
X180651487Y-130643245D01*
X180806585Y-131198690D01*
X180856629Y-131319506D01*
X181152594Y-131648751D01*
X182667745Y-130133600D01*
X184429855Y-130133600D01*
X185945006Y-131648751D01*
X186240971Y-131319506D01*
X186420600Y-130771503D01*
X186466848Y-130389250D01*
X188617500Y-130389250D01*
X188617500Y-130749556D01*
X188633909Y-130832051D01*
X188666097Y-130909760D01*
X188712827Y-130979697D01*
X188772303Y-131039172D01*
X188842239Y-131085902D01*
X188919949Y-131118091D01*
X189002444Y-131134500D01*
X189162750Y-131134500D01*
X189269500Y-131027750D01*
X189269500Y-130282500D01*
X189719500Y-130282500D01*
X189719500Y-131027750D01*
X189826250Y-131134500D01*
X189986556Y-131134500D01*
X190069051Y-131118091D01*
X190146761Y-131085902D01*
X190216697Y-131039172D01*
X190276173Y-130979697D01*
X190322903Y-130909760D01*
X190355091Y-130832051D01*
X190371500Y-130749556D01*
X190371500Y-130389250D01*
X190264750Y-130282500D01*
X189719500Y-130282500D01*
X189269500Y-130282500D01*
X188724250Y-130282500D01*
X188617500Y-130389250D01*
X186466848Y-130389250D01*
X186489869Y-130198985D01*
X186446113Y-129623955D01*
X186291015Y-129068510D01*
X186248324Y-128965444D01*
X188617500Y-128965444D01*
X188617500Y-129325750D01*
X188724250Y-129432500D01*
X189269500Y-129432500D01*
X189269500Y-128687250D01*
X189719500Y-128687250D01*
X189719500Y-129432500D01*
X190264750Y-129432500D01*
X190371500Y-129325750D01*
X190371500Y-128965444D01*
X190355091Y-128882949D01*
X190322903Y-128805240D01*
X190276173Y-128735303D01*
X190216697Y-128675828D01*
X190146761Y-128629098D01*
X190069051Y-128596909D01*
X189986556Y-128580500D01*
X189826250Y-128580500D01*
X189719500Y-128687250D01*
X189269500Y-128687250D01*
X189162750Y-128580500D01*
X189002444Y-128580500D01*
X188919949Y-128596909D01*
X188842239Y-128629098D01*
X188772303Y-128675828D01*
X188712827Y-128735303D01*
X188666097Y-128805240D01*
X188633909Y-128882949D01*
X188617500Y-128965444D01*
X186248324Y-128965444D01*
X186240971Y-128947694D01*
X185945006Y-128618449D01*
X184429855Y-130133600D01*
X182667745Y-130133600D01*
X181152594Y-128618449D01*
X180856629Y-128947694D01*
X180677000Y-129495697D01*
X180607731Y-130068215D01*
X170077000Y-130068215D01*
X170077000Y-129152000D01*
X170265934Y-129152000D01*
X170265934Y-129350000D01*
X170271356Y-129417998D01*
X170307073Y-129533330D01*
X170373506Y-129634146D01*
X170465395Y-129712463D01*
X170575465Y-129762079D01*
X170695000Y-129779066D01*
X171295000Y-129779066D01*
X171362998Y-129773644D01*
X171478330Y-129737927D01*
X171579146Y-129671494D01*
X171629323Y-129612622D01*
X171643506Y-129634146D01*
X171735395Y-129712463D01*
X171845465Y-129762079D01*
X171965000Y-129779066D01*
X172565000Y-129779066D01*
X172632998Y-129773644D01*
X172748330Y-129737927D01*
X172849146Y-129671494D01*
X172899323Y-129612622D01*
X172913506Y-129634146D01*
X173005395Y-129712463D01*
X173115465Y-129762079D01*
X173235000Y-129779066D01*
X173835000Y-129779066D01*
X173902998Y-129773644D01*
X174018330Y-129737927D01*
X174119146Y-129671494D01*
X174167982Y-129614195D01*
X174173328Y-129622197D01*
X174232803Y-129681673D01*
X174302740Y-129728403D01*
X174380449Y-129760591D01*
X174462944Y-129777000D01*
X174548250Y-129777000D01*
X174655000Y-129670250D01*
X174655000Y-128962500D01*
X174955000Y-128962500D01*
X174955000Y-129670250D01*
X175061750Y-129777000D01*
X175147056Y-129777000D01*
X175229551Y-129760591D01*
X175307260Y-129728403D01*
X175377197Y-129681673D01*
X175436672Y-129622197D01*
X175483402Y-129552261D01*
X175515591Y-129474551D01*
X175532000Y-129392056D01*
X175532000Y-129069250D01*
X175425250Y-128962500D01*
X174955000Y-128962500D01*
X174655000Y-128962500D01*
X174505000Y-128962500D01*
X174505000Y-128431750D01*
X176948000Y-128431750D01*
X176948000Y-128617056D01*
X176964409Y-128699551D01*
X176996598Y-128777261D01*
X177043328Y-128847197D01*
X177102803Y-128906673D01*
X177172740Y-128953403D01*
X177250449Y-128985591D01*
X177332944Y-129002000D01*
X177668250Y-129002000D01*
X177775000Y-128895250D01*
X177775000Y-128325000D01*
X178575000Y-128325000D01*
X178575000Y-128895250D01*
X178681750Y-129002000D01*
X179017056Y-129002000D01*
X179099551Y-128985591D01*
X179177260Y-128953403D01*
X179247197Y-128906673D01*
X179306672Y-128847197D01*
X179353402Y-128777261D01*
X179385591Y-128699551D01*
X179402000Y-128617056D01*
X179402000Y-128431750D01*
X179295250Y-128325000D01*
X178575000Y-128325000D01*
X177775000Y-128325000D01*
X177054750Y-128325000D01*
X176948000Y-128431750D01*
X174505000Y-128431750D01*
X174505000Y-128187500D01*
X174655000Y-128187500D01*
X174655000Y-127479750D01*
X174955000Y-127479750D01*
X174955000Y-128187500D01*
X175425250Y-128187500D01*
X175532000Y-128080750D01*
X175532000Y-127757944D01*
X175515591Y-127675449D01*
X175483402Y-127597739D01*
X175440108Y-127532944D01*
X176948000Y-127532944D01*
X176948000Y-127718250D01*
X177054750Y-127825000D01*
X177775000Y-127825000D01*
X177775000Y-127254750D01*
X177668250Y-127148000D01*
X177332944Y-127148000D01*
X177250449Y-127164409D01*
X177172740Y-127196597D01*
X177102803Y-127243327D01*
X177043328Y-127302803D01*
X176996598Y-127372739D01*
X176964409Y-127450449D01*
X176948000Y-127532944D01*
X175440108Y-127532944D01*
X175436672Y-127527803D01*
X175377197Y-127468327D01*
X175307260Y-127421597D01*
X175229551Y-127389409D01*
X175147056Y-127373000D01*
X175061750Y-127373000D01*
X174955000Y-127479750D01*
X174655000Y-127479750D01*
X174548250Y-127373000D01*
X174462944Y-127373000D01*
X174380449Y-127389409D01*
X174302740Y-127421597D01*
X174232803Y-127468327D01*
X174173328Y-127527803D01*
X174168817Y-127534555D01*
X174156494Y-127515854D01*
X174112000Y-127477932D01*
X174112000Y-126829066D01*
X174400000Y-126829066D01*
X174467998Y-126823644D01*
X174583330Y-126787927D01*
X174684146Y-126721494D01*
X174762463Y-126629605D01*
X174812079Y-126519535D01*
X174829066Y-126400000D01*
X174829066Y-124700000D01*
X175970934Y-124700000D01*
X175970934Y-126400000D01*
X175976356Y-126467998D01*
X176012073Y-126583330D01*
X176078506Y-126684146D01*
X176170395Y-126762463D01*
X176280465Y-126812079D01*
X176400000Y-126829066D01*
X177300000Y-126829066D01*
X177367998Y-126823644D01*
X177483330Y-126787927D01*
X177584146Y-126721494D01*
X177662463Y-126629605D01*
X177712079Y-126519535D01*
X177729066Y-126400000D01*
X177729066Y-126127000D01*
X178358934Y-126127000D01*
X178358934Y-126741200D01*
X178364356Y-126809198D01*
X178400073Y-126924530D01*
X178466506Y-127025346D01*
X178558395Y-127103663D01*
X178668465Y-127153279D01*
X178675475Y-127154275D01*
X178575000Y-127254750D01*
X178575000Y-127825000D01*
X179295250Y-127825000D01*
X179382856Y-127737394D01*
X182033649Y-127737394D01*
X183548800Y-129252545D01*
X185063951Y-127737394D01*
X184734706Y-127441429D01*
X184186703Y-127261800D01*
X183614185Y-127192531D01*
X183039155Y-127236287D01*
X182483710Y-127391385D01*
X182362894Y-127441429D01*
X182033649Y-127737394D01*
X179382856Y-127737394D01*
X179402000Y-127718250D01*
X179402000Y-127532944D01*
X179385591Y-127450449D01*
X179353402Y-127372739D01*
X179306672Y-127302803D01*
X179247197Y-127243327D01*
X179177260Y-127196597D01*
X179113691Y-127170266D01*
X179588000Y-127170266D01*
X179655998Y-127164844D01*
X179771330Y-127129127D01*
X179785767Y-127119614D01*
X179863449Y-127151791D01*
X179945944Y-127168200D01*
X180081250Y-127168200D01*
X180188000Y-127061450D01*
X180188000Y-125964200D01*
X180588000Y-125964200D01*
X180588000Y-127061450D01*
X180694750Y-127168200D01*
X180830056Y-127168200D01*
X180912551Y-127151791D01*
X180988000Y-127120539D01*
X181063449Y-127151791D01*
X181145944Y-127168200D01*
X181281250Y-127168200D01*
X181388000Y-127061450D01*
X181388000Y-125964200D01*
X181788000Y-125964200D01*
X181788000Y-127061450D01*
X181894750Y-127168200D01*
X182030056Y-127168200D01*
X182112551Y-127151791D01*
X182188000Y-127120539D01*
X182263449Y-127151791D01*
X182345944Y-127168200D01*
X182481250Y-127168200D01*
X182588000Y-127061450D01*
X182588000Y-125964200D01*
X182988000Y-125964200D01*
X182988000Y-127061450D01*
X183094750Y-127168200D01*
X183230056Y-127168200D01*
X183312551Y-127151791D01*
X183388000Y-127120539D01*
X183463449Y-127151791D01*
X183545944Y-127168200D01*
X183681250Y-127168200D01*
X183788000Y-127061450D01*
X183788000Y-125964200D01*
X184188000Y-125964200D01*
X184188000Y-127061450D01*
X184294750Y-127168200D01*
X184430056Y-127168200D01*
X184512551Y-127151791D01*
X184588000Y-127120539D01*
X184663449Y-127151791D01*
X184745944Y-127168200D01*
X184881250Y-127168200D01*
X184988000Y-127061450D01*
X184988000Y-125964200D01*
X185388000Y-125964200D01*
X185388000Y-127061450D01*
X185494750Y-127168200D01*
X185630056Y-127168200D01*
X185712551Y-127151791D01*
X185788000Y-127120539D01*
X185863449Y-127151791D01*
X185945944Y-127168200D01*
X186081250Y-127168200D01*
X186188000Y-127061450D01*
X186188000Y-125964200D01*
X186588000Y-125964200D01*
X186588000Y-127061450D01*
X186694750Y-127168200D01*
X186830056Y-127168200D01*
X186912551Y-127151791D01*
X186988000Y-127120539D01*
X187063449Y-127151791D01*
X187145944Y-127168200D01*
X187281250Y-127168200D01*
X187388000Y-127061450D01*
X187388000Y-125964200D01*
X187788000Y-125964200D01*
X187788000Y-127061450D01*
X187894750Y-127168200D01*
X188030056Y-127168200D01*
X188112551Y-127151791D01*
X188190261Y-127119602D01*
X188260197Y-127072872D01*
X188319673Y-127013397D01*
X188366403Y-126943460D01*
X188398591Y-126865751D01*
X188415000Y-126783256D01*
X188415000Y-126070950D01*
X188308250Y-125964200D01*
X187788000Y-125964200D01*
X187388000Y-125964200D01*
X186588000Y-125964200D01*
X186188000Y-125964200D01*
X185388000Y-125964200D01*
X184988000Y-125964200D01*
X184188000Y-125964200D01*
X183788000Y-125964200D01*
X182988000Y-125964200D01*
X182588000Y-125964200D01*
X181788000Y-125964200D01*
X181388000Y-125964200D01*
X180588000Y-125964200D01*
X180188000Y-125964200D01*
X180017066Y-125964200D01*
X180017066Y-125168200D01*
X183258250Y-125168200D01*
X183365000Y-125061450D01*
X183365000Y-124718200D01*
X183788000Y-124718200D01*
X183788000Y-123620950D01*
X184188000Y-123620950D01*
X184188000Y-124718200D01*
X184611000Y-124718200D01*
X184611000Y-125061450D01*
X184717750Y-125168200D01*
X188030056Y-125168200D01*
X188112551Y-125151791D01*
X188190261Y-125119602D01*
X188260197Y-125072872D01*
X188319673Y-125013397D01*
X188366403Y-124943460D01*
X188398591Y-124865751D01*
X188415000Y-124783256D01*
X188415000Y-124647950D01*
X188396750Y-124629700D01*
X188415000Y-124611450D01*
X188415000Y-123899144D01*
X188398591Y-123816649D01*
X188366403Y-123738940D01*
X188319673Y-123669003D01*
X188260197Y-123609528D01*
X188190261Y-123562798D01*
X188112551Y-123530609D01*
X188030056Y-123514200D01*
X184717750Y-123514200D01*
X184710749Y-123521201D01*
X184663449Y-123530609D01*
X184588000Y-123561861D01*
X184512551Y-123530609D01*
X184430056Y-123514200D01*
X184294750Y-123514200D01*
X184188000Y-123620950D01*
X183788000Y-123620950D01*
X183681250Y-123514200D01*
X183545944Y-123514200D01*
X183463449Y-123530609D01*
X183388000Y-123561861D01*
X183312551Y-123530609D01*
X183265251Y-123521201D01*
X183258250Y-123514200D01*
X179945944Y-123514200D01*
X179863449Y-123530609D01*
X179785739Y-123562798D01*
X179784332Y-123563738D01*
X179707535Y-123529121D01*
X179588000Y-123512134D01*
X178788000Y-123512134D01*
X178720002Y-123517556D01*
X178604670Y-123553273D01*
X178503854Y-123619706D01*
X178425537Y-123711595D01*
X178375921Y-123821665D01*
X178358934Y-123941200D01*
X178358934Y-124973000D01*
X177729066Y-124973000D01*
X177729066Y-124700000D01*
X177723644Y-124632002D01*
X177687927Y-124516670D01*
X177621494Y-124415854D01*
X177529605Y-124337537D01*
X177419535Y-124287921D01*
X177300000Y-124270934D01*
X176400000Y-124270934D01*
X176332002Y-124276356D01*
X176216670Y-124312073D01*
X176115854Y-124378506D01*
X176037537Y-124470395D01*
X175987921Y-124580465D01*
X175970934Y-124700000D01*
X174829066Y-124700000D01*
X174823644Y-124632002D01*
X174787927Y-124516670D01*
X174721494Y-124415854D01*
X174629605Y-124337537D01*
X174519535Y-124287921D01*
X174400000Y-124270934D01*
X173500000Y-124270934D01*
X173432002Y-124276356D01*
X173316670Y-124312073D01*
X173215854Y-124378506D01*
X173137537Y-124470395D01*
X173087921Y-124580465D01*
X173070934Y-124700000D01*
X173070934Y-125624684D01*
X173058910Y-125639014D01*
X173057450Y-125641670D01*
X173055522Y-125644017D01*
X173030306Y-125691044D01*
X173004659Y-125737696D01*
X173003743Y-125740584D01*
X173002307Y-125743262D01*
X172986701Y-125794307D01*
X172970609Y-125845035D01*
X172970271Y-125848045D01*
X172969383Y-125850951D01*
X172963997Y-125903982D01*
X172958056Y-125956944D01*
X172958015Y-125962880D01*
X172958004Y-125962986D01*
X172958013Y-125963085D01*
X172958000Y-125965000D01*
X172958000Y-127473797D01*
X172950854Y-127478506D01*
X172900677Y-127537378D01*
X172886494Y-127515854D01*
X172794605Y-127437537D01*
X172684535Y-127387921D01*
X172565000Y-127370934D01*
X171965000Y-127370934D01*
X171897002Y-127376356D01*
X171781670Y-127412073D01*
X171680854Y-127478506D01*
X171630677Y-127537378D01*
X171616494Y-127515854D01*
X171524605Y-127437537D01*
X171414535Y-127387921D01*
X171295000Y-127370934D01*
X170695000Y-127370934D01*
X170627002Y-127376356D01*
X170511670Y-127412073D01*
X170410854Y-127478506D01*
X170332537Y-127570395D01*
X170282921Y-127680465D01*
X170265934Y-127800000D01*
X170265934Y-127998000D01*
X169525000Y-127998000D01*
X169471913Y-128003205D01*
X169418860Y-128007847D01*
X169415949Y-128008693D01*
X169412927Y-128008989D01*
X169361877Y-128024402D01*
X169310720Y-128039264D01*
X169308027Y-128040660D01*
X169305122Y-128041537D01*
X169258051Y-128066565D01*
X169210743Y-128091087D01*
X169208373Y-128092979D01*
X169205693Y-128094404D01*
X169164395Y-128128086D01*
X169122735Y-128161343D01*
X169118512Y-128165508D01*
X169118426Y-128165578D01*
X169118360Y-128165658D01*
X169116999Y-128167000D01*
X169091999Y-128191999D01*
X169058144Y-128233215D01*
X169023910Y-128274014D01*
X169022450Y-128276670D01*
X169020522Y-128279017D01*
X168995306Y-128326044D01*
X168969659Y-128372696D01*
X168968743Y-128375584D01*
X168967307Y-128378262D01*
X168951701Y-128429307D01*
X168935609Y-128480035D01*
X168935271Y-128483045D01*
X168934383Y-128485951D01*
X168928997Y-128538982D01*
X168923056Y-128591944D01*
X168923015Y-128597880D01*
X168923004Y-128597986D01*
X168923013Y-128598085D01*
X168923000Y-128600000D01*
X167427000Y-128600000D01*
X167427000Y-108800000D01*
X171173000Y-108800000D01*
X171173000Y-111500000D01*
X171204384Y-111660677D01*
X171298065Y-111801935D01*
X173098065Y-113601935D01*
X173233873Y-113693358D01*
X173400000Y-113727000D01*
X176000000Y-113727000D01*
X176160677Y-113695616D01*
X176301935Y-113601935D01*
X177876870Y-112027000D01*
X182473000Y-112027000D01*
X182473000Y-112190686D01*
X182470642Y-112213901D01*
X182461090Y-112299057D01*
X182461024Y-112308590D01*
X182461006Y-112308764D01*
X182461021Y-112308927D01*
X182461000Y-112312000D01*
X182461000Y-113012134D01*
X178338000Y-113012134D01*
X178270002Y-113017556D01*
X178154670Y-113053273D01*
X178053854Y-113119706D01*
X177975537Y-113211595D01*
X177925921Y-113321665D01*
X177908934Y-113441200D01*
X177908934Y-114841200D01*
X177914356Y-114909198D01*
X177950073Y-115024530D01*
X178016506Y-115125346D01*
X178108395Y-115203663D01*
X178218465Y-115253279D01*
X178338000Y-115270266D01*
X178608934Y-115270266D01*
X178608934Y-117312134D01*
X178538000Y-117312134D01*
X178470002Y-117317556D01*
X178354670Y-117353273D01*
X178253854Y-117419706D01*
X178175537Y-117511595D01*
X178125921Y-117621665D01*
X178108934Y-117741200D01*
X178108934Y-121441200D01*
X178114356Y-121509198D01*
X178150073Y-121624530D01*
X178216506Y-121725346D01*
X178308395Y-121803663D01*
X178418465Y-121853279D01*
X178538000Y-121870266D01*
X188238000Y-121870266D01*
X188305998Y-121864844D01*
X188421330Y-121829127D01*
X188522146Y-121762694D01*
X188600463Y-121670805D01*
X188650079Y-121560735D01*
X188667066Y-121441200D01*
X188667066Y-117741200D01*
X188661644Y-117673202D01*
X188625927Y-117557870D01*
X188559494Y-117457054D01*
X188467605Y-117378737D01*
X188357535Y-117329121D01*
X188238000Y-117312134D01*
X188167066Y-117312134D01*
X188167066Y-115270266D01*
X188438000Y-115270266D01*
X188505998Y-115264844D01*
X188621330Y-115229127D01*
X188722146Y-115162694D01*
X188800463Y-115070805D01*
X188850079Y-114960735D01*
X188867066Y-114841200D01*
X188867066Y-113441200D01*
X188861644Y-113373202D01*
X188825927Y-113257870D01*
X188759494Y-113157054D01*
X188667605Y-113078737D01*
X188557535Y-113029121D01*
X188438000Y-113012134D01*
X184327000Y-113012134D01*
X184327000Y-112027000D01*
X187700000Y-112027000D01*
X187855196Y-111997798D01*
X187997735Y-111906077D01*
X188093358Y-111766127D01*
X188127000Y-111600000D01*
X188127000Y-110400000D01*
X188097798Y-110244804D01*
X188006077Y-110102265D01*
X187866127Y-110006642D01*
X187700000Y-109973000D01*
X187206266Y-109973000D01*
X187206266Y-108472400D01*
X187200844Y-108404402D01*
X187165127Y-108289070D01*
X187098694Y-108188254D01*
X187006805Y-108109937D01*
X186896735Y-108060321D01*
X186777200Y-108043334D01*
X185328302Y-108043334D01*
X185644636Y-107727000D01*
X186200000Y-107727000D01*
X186355196Y-107697798D01*
X186465220Y-107627000D01*
X188173000Y-107627000D01*
X188173000Y-111500000D01*
X188202202Y-111655196D01*
X188293923Y-111797735D01*
X188433873Y-111893358D01*
X188600000Y-111927000D01*
X188623130Y-111927000D01*
X189998065Y-113301935D01*
X190133873Y-113393358D01*
X190300000Y-113427000D01*
X190961852Y-113427000D01*
X190723217Y-127990547D01*
X190723405Y-127992858D01*
X190723160Y-127995162D01*
X190727981Y-128048967D01*
X190732369Y-128102785D01*
X190733002Y-128105013D01*
X190733209Y-128107323D01*
X190748383Y-128159149D01*
X190763146Y-128211108D01*
X190764201Y-128213174D01*
X190764852Y-128215396D01*
X190789781Y-128263245D01*
X190814377Y-128311390D01*
X190815814Y-128313212D01*
X190816884Y-128315266D01*
X190850697Y-128357442D01*
X190884112Y-128399812D01*
X190885869Y-128401315D01*
X190887322Y-128403127D01*
X190928654Y-128437907D01*
X190969692Y-128473005D01*
X190971716Y-128474143D01*
X190973486Y-128475632D01*
X191020733Y-128501693D01*
X191067859Y-128528180D01*
X191070061Y-128528902D01*
X191072091Y-128530021D01*
X191123553Y-128546426D01*
X191174873Y-128563238D01*
X191177173Y-128563518D01*
X191179382Y-128564222D01*
X191233021Y-128570315D01*
X191286659Y-128576843D01*
X191288973Y-128576671D01*
X191291274Y-128576932D01*
X191299330Y-128576999D01*
X192321037Y-128578434D01*
X191944500Y-128578434D01*
X191876502Y-128583856D01*
X191761170Y-128619573D01*
X191660354Y-128686006D01*
X191582037Y-128777895D01*
X191532421Y-128887965D01*
X191515434Y-129007500D01*
X191515434Y-130707500D01*
X191520856Y-130775498D01*
X191556573Y-130890830D01*
X191623006Y-130991646D01*
X191714895Y-131069963D01*
X191824965Y-131119579D01*
X191944500Y-131136566D01*
X192844500Y-131136566D01*
X192912498Y-131131144D01*
X193027830Y-131095427D01*
X193128646Y-131028994D01*
X193206963Y-130937105D01*
X193256579Y-130827035D01*
X193273566Y-130707500D01*
X193273566Y-130434500D01*
X194738500Y-130434500D01*
X194738500Y-132475628D01*
X194682170Y-132493073D01*
X194581354Y-132559506D01*
X194503037Y-132651395D01*
X194453421Y-132761465D01*
X194436434Y-132881000D01*
X194436434Y-134581000D01*
X194441856Y-134648998D01*
X194477573Y-134764330D01*
X194544006Y-134865146D01*
X194610048Y-134921434D01*
X193314000Y-134921434D01*
X193246002Y-134926856D01*
X193130670Y-134962573D01*
X193029854Y-135029006D01*
X192992500Y-135072833D01*
X192992500Y-134986372D01*
X193048830Y-134968927D01*
X193149646Y-134902494D01*
X193227963Y-134810605D01*
X193277579Y-134700535D01*
X193294566Y-134581000D01*
X193294566Y-132881000D01*
X193289144Y-132813002D01*
X193253427Y-132697670D01*
X193186994Y-132596854D01*
X193095105Y-132518537D01*
X192985035Y-132468921D01*
X192865500Y-132451934D01*
X191965500Y-132451934D01*
X191897502Y-132457356D01*
X191782170Y-132493073D01*
X191681354Y-132559506D01*
X191603037Y-132651395D01*
X191553421Y-132761465D01*
X191536434Y-132881000D01*
X191536434Y-134581000D01*
X191541856Y-134648998D01*
X191577573Y-134764330D01*
X191644006Y-134865146D01*
X191735895Y-134943463D01*
X191838500Y-134989714D01*
X191838500Y-135837000D01*
X191839212Y-135844264D01*
X191647520Y-135880831D01*
X191545116Y-135922205D01*
X191542304Y-135920659D01*
X191539416Y-135919743D01*
X191536738Y-135918307D01*
X191485693Y-135902701D01*
X191434965Y-135886609D01*
X191431955Y-135886271D01*
X191429049Y-135885383D01*
X191376018Y-135879997D01*
X191323056Y-135874056D01*
X191317120Y-135874015D01*
X191317014Y-135874004D01*
X191316915Y-135874013D01*
X191315000Y-135874000D01*
X190866372Y-135874000D01*
X190848927Y-135817670D01*
X190782494Y-135716854D01*
X190690605Y-135638537D01*
X190580535Y-135588921D01*
X190461000Y-135571934D01*
X188761000Y-135571934D01*
X188693002Y-135577356D01*
X188577670Y-135613073D01*
X188476854Y-135679506D01*
X188398537Y-135771395D01*
X188348921Y-135881465D01*
X188331934Y-136001000D01*
X188331934Y-136901000D01*
X188337356Y-136968998D01*
X188373073Y-137084330D01*
X188439506Y-137185146D01*
X188531395Y-137263463D01*
X188641465Y-137313079D01*
X188761000Y-137330066D01*
X190461000Y-137330066D01*
X190528998Y-137324644D01*
X190644330Y-137288927D01*
X190695483Y-137255219D01*
X190695255Y-137271578D01*
X190731109Y-137466932D01*
X190663260Y-137421597D01*
X190585551Y-137389409D01*
X190503056Y-137373000D01*
X190142750Y-137373000D01*
X190036000Y-137479750D01*
X190036000Y-138025000D01*
X190781250Y-138025000D01*
X190888000Y-137918250D01*
X190888000Y-137847036D01*
X190979007Y-137988251D01*
X191159783Y-138175451D01*
X191373478Y-138323973D01*
X191611950Y-138428159D01*
X191866118Y-138484041D01*
X192126299Y-138489491D01*
X192382583Y-138444301D01*
X192625210Y-138350193D01*
X192844936Y-138210750D01*
X192979369Y-138082731D01*
X192935598Y-138148239D01*
X192903409Y-138225949D01*
X192887000Y-138308444D01*
X192887000Y-138493750D01*
X192993750Y-138600500D01*
X193941000Y-138600500D01*
X193941000Y-138030250D01*
X195187000Y-138030250D01*
X195187000Y-138600500D01*
X196134250Y-138600500D01*
X196241000Y-138493750D01*
X196241000Y-138308444D01*
X196224591Y-138225949D01*
X196192402Y-138148239D01*
X196145672Y-138078303D01*
X196086197Y-138018827D01*
X196016260Y-137972097D01*
X195938551Y-137939909D01*
X195856056Y-137923500D01*
X195293750Y-137923500D01*
X195187000Y-138030250D01*
X193941000Y-138030250D01*
X193834250Y-137923500D01*
X193271944Y-137923500D01*
X193189449Y-137939909D01*
X193111740Y-137972097D01*
X193042518Y-138018349D01*
X193183403Y-137818632D01*
X193289251Y-137580893D01*
X193346907Y-137327122D01*
X193351057Y-137029881D01*
X193301131Y-136777737D01*
X193314000Y-136779566D01*
X195814000Y-136779566D01*
X195881998Y-136774144D01*
X195997330Y-136738427D01*
X196098146Y-136671994D01*
X196176463Y-136580105D01*
X196226079Y-136470035D01*
X196232124Y-136427500D01*
X196527000Y-136427500D01*
X196527000Y-140787846D01*
X196486231Y-140804318D01*
X196276386Y-140941636D01*
X196197750Y-140863000D01*
X195250500Y-140863000D01*
X195250500Y-141433250D01*
X195357250Y-141540000D01*
X195851346Y-141540000D01*
X195832996Y-141582814D01*
X195778889Y-141837365D01*
X195775255Y-142097578D01*
X195822233Y-142353541D01*
X195918034Y-142595504D01*
X195984855Y-142699190D01*
X195877500Y-142683934D01*
X194555718Y-142683934D01*
X194519781Y-142680030D01*
X194475156Y-142683934D01*
X194322043Y-142683934D01*
X194278556Y-142679056D01*
X194272620Y-142679015D01*
X194272514Y-142679004D01*
X194272415Y-142679013D01*
X194270500Y-142679000D01*
X192956066Y-142679000D01*
X192956066Y-142406000D01*
X192950644Y-142338002D01*
X192914927Y-142222670D01*
X192848494Y-142121854D01*
X192756605Y-142043537D01*
X192646535Y-141993921D01*
X192527000Y-141976934D01*
X191627000Y-141976934D01*
X191559002Y-141982356D01*
X191443670Y-142018073D01*
X191342854Y-142084506D01*
X191264537Y-142176395D01*
X191214921Y-142286465D01*
X191197934Y-142406000D01*
X191197934Y-144106000D01*
X191203356Y-144173998D01*
X191239073Y-144289330D01*
X191305506Y-144390146D01*
X191397395Y-144468463D01*
X191507465Y-144518079D01*
X191627000Y-144535066D01*
X192527000Y-144535066D01*
X192594998Y-144529644D01*
X192710330Y-144493927D01*
X192811146Y-144427494D01*
X192889463Y-144335605D01*
X192939079Y-144225535D01*
X192950820Y-144142918D01*
X192953856Y-144180998D01*
X192989573Y-144296330D01*
X193056006Y-144397146D01*
X193147895Y-144475463D01*
X193257965Y-144525079D01*
X193377500Y-144542066D01*
X195877500Y-144542066D01*
X195945498Y-144536644D01*
X196060830Y-144500927D01*
X196161646Y-144434494D01*
X196239963Y-144342605D01*
X196289579Y-144232535D01*
X196295624Y-144190000D01*
X198731000Y-144190000D01*
X198784043Y-144184799D01*
X198837140Y-144180153D01*
X198840051Y-144179307D01*
X198843073Y-144179011D01*
X198894123Y-144163598D01*
X198945280Y-144148736D01*
X198947973Y-144147340D01*
X198950878Y-144146463D01*
X198997949Y-144121435D01*
X199045257Y-144096913D01*
X199047627Y-144095021D01*
X199050307Y-144093596D01*
X199091605Y-144059914D01*
X199133265Y-144026657D01*
X199137492Y-144022489D01*
X199137574Y-144022422D01*
X199137636Y-144022347D01*
X199139001Y-144021001D01*
X199242001Y-143918001D01*
X199275856Y-143876785D01*
X199310090Y-143835986D01*
X199311550Y-143833330D01*
X199313478Y-143830983D01*
X199338694Y-143783956D01*
X199364341Y-143737304D01*
X199365257Y-143734416D01*
X199366693Y-143731738D01*
X199382299Y-143680693D01*
X199398391Y-143629965D01*
X199398729Y-143626955D01*
X199399617Y-143624049D01*
X199404192Y-143579000D01*
X203200000Y-143579000D01*
X203253986Y-143573707D01*
X203308115Y-143568781D01*
X203310061Y-143568208D01*
X203312073Y-143568011D01*
X203363992Y-143552336D01*
X203416144Y-143536987D01*
X203417940Y-143536048D01*
X203419878Y-143535463D01*
X203467872Y-143509944D01*
X203515940Y-143484815D01*
X203517515Y-143483549D01*
X203519307Y-143482596D01*
X203561402Y-143448264D01*
X203603703Y-143414254D01*
X203605007Y-143412700D01*
X203606574Y-143411422D01*
X203641149Y-143369628D01*
X203676088Y-143327990D01*
X203677064Y-143326214D01*
X203678355Y-143324654D01*
X203704190Y-143276873D01*
X203730339Y-143229308D01*
X203730951Y-143227379D01*
X203731915Y-143225596D01*
X203747987Y-143173676D01*
X203764390Y-143121969D01*
X203764616Y-143119959D01*
X203765215Y-143118022D01*
X203770906Y-143063880D01*
X203776944Y-143010060D01*
X203776971Y-143006170D01*
X203776986Y-143006028D01*
X203776973Y-143005885D01*
X203777000Y-143002004D01*
X203777113Y-128005478D01*
X203776725Y-128001519D01*
X203777059Y-127997551D01*
X203771232Y-127945497D01*
X203766125Y-127893405D01*
X203764975Y-127889595D01*
X203764532Y-127885639D01*
X203748719Y-127835751D01*
X203733578Y-127785600D01*
X203731707Y-127782081D01*
X203730506Y-127778292D01*
X203705303Y-127732423D01*
X203680711Y-127686171D01*
X203678196Y-127683088D01*
X203676279Y-127679598D01*
X203642610Y-127639454D01*
X203609538Y-127598903D01*
X203606474Y-127596368D01*
X203603914Y-127593316D01*
X203563110Y-127560493D01*
X203522771Y-127527121D01*
X203519268Y-127525227D01*
X203516169Y-127522734D01*
X203469778Y-127498468D01*
X203423713Y-127473561D01*
X203419912Y-127472384D01*
X203416384Y-127470539D01*
X203366141Y-127455739D01*
X203316139Y-127440260D01*
X203312183Y-127439844D01*
X203308363Y-127438719D01*
X203256204Y-127433960D01*
X203204145Y-127428488D01*
X203200182Y-127428849D01*
X203196218Y-127428487D01*
X203188162Y-127428598D01*
X202686421Y-127438992D01*
X191886659Y-127423824D01*
X192116008Y-113427000D01*
X194600000Y-113427000D01*
X194755196Y-113397798D01*
X194897735Y-113306077D01*
X194993358Y-113166127D01*
X195027000Y-113000000D01*
X195027000Y-107000000D01*
X194995616Y-106839323D01*
X194901935Y-106698065D01*
X188301935Y-100098065D01*
X188166127Y-100006642D01*
X188000000Y-99973000D01*
X183700000Y-99973000D01*
X183539323Y-100004384D01*
X183398065Y-100098065D01*
X181498065Y-101998065D01*
X181406642Y-102133873D01*
X181373000Y-102300000D01*
X181373000Y-107000000D01*
X181404384Y-107160677D01*
X181498065Y-107301935D01*
X181677994Y-107481864D01*
X181677634Y-107485412D01*
X181660363Y-107639385D01*
X181660243Y-107656622D01*
X181660210Y-107656947D01*
X181660239Y-107657250D01*
X181660200Y-107662800D01*
X181660200Y-108367147D01*
X181553332Y-108277474D01*
X181326382Y-108152707D01*
X181079520Y-108074398D01*
X180822149Y-108045529D01*
X180803621Y-108045400D01*
X180790779Y-108045400D01*
X180533030Y-108070673D01*
X180285099Y-108145527D01*
X180056428Y-108267114D01*
X179855729Y-108430800D01*
X179690646Y-108630351D01*
X179567467Y-108858167D01*
X179542545Y-108938675D01*
X177201935Y-106598065D01*
X177066127Y-106506642D01*
X176900000Y-106473000D01*
X173300000Y-106473000D01*
X173150314Y-106500096D01*
X173006522Y-106589839D01*
X172908974Y-106728455D01*
X172873041Y-106894101D01*
X172877632Y-106918498D01*
X171298065Y-108498065D01*
X171206642Y-108633873D01*
X171173000Y-108800000D01*
X167427000Y-108800000D01*
X167427000Y-102460560D01*
X167807545Y-103051050D01*
X168342518Y-103605031D01*
X168974905Y-104044551D01*
X169680619Y-104352870D01*
X170432778Y-104518243D01*
X171202733Y-104534371D01*
X171961158Y-104400640D01*
X172679163Y-104122145D01*
X173329401Y-103709491D01*
X173887103Y-103178398D01*
X174331028Y-102549095D01*
X174644266Y-101845551D01*
X174814886Y-101094565D01*
X174827168Y-100214938D01*
X174677584Y-99459480D01*
X174384112Y-98747465D01*
X173957932Y-98106012D01*
X173415276Y-97559554D01*
X172848116Y-97177000D01*
X200358810Y-97177000D01*
X199827421Y-97524732D01*
G36*
X194473000Y-107052606D02*
X194473000Y-109132710D01*
X194385850Y-108628000D01*
X194327913Y-108488126D01*
X194027499Y-108153556D01*
X192481055Y-109700000D01*
X194027499Y-111246444D01*
X194327913Y-110911874D01*
X194473000Y-110268238D01*
X194473000Y-112873000D01*
X190352606Y-112873000D01*
X189607105Y-112127499D01*
X190053556Y-112127499D01*
X190388126Y-112427913D01*
X191524301Y-112684027D01*
X192672000Y-112485850D01*
X192811874Y-112427913D01*
X193146444Y-112127499D01*
X191600000Y-110581055D01*
X190053556Y-112127499D01*
X189607105Y-112127499D01*
X189119495Y-111639889D01*
X189127000Y-111600000D01*
X189127000Y-111500000D01*
X189116994Y-111450590D01*
X189088553Y-111408965D01*
X189046159Y-111381685D01*
X189000000Y-111373000D01*
X188727000Y-111373000D01*
X188727000Y-110267290D01*
X188814150Y-110772000D01*
X188872087Y-110911874D01*
X189172501Y-111246444D01*
X190718945Y-109700000D01*
X189172501Y-108153556D01*
X188872087Y-108488126D01*
X188727000Y-109131762D01*
X188727000Y-107272501D01*
X190053556Y-107272501D01*
X191600000Y-108818945D01*
X193146444Y-107272501D01*
X192811874Y-106972087D01*
X191675699Y-106715973D01*
X190528000Y-106914150D01*
X190388126Y-106972087D01*
X190053556Y-107272501D01*
X188727000Y-107272501D01*
X188727000Y-107200000D01*
X188716994Y-107150590D01*
X188688553Y-107108965D01*
X188646159Y-107081685D01*
X188600000Y-107073000D01*
X187873030Y-107073000D01*
X188146444Y-106827499D01*
X186600000Y-105281055D01*
X185053556Y-106827499D01*
X185388126Y-107127913D01*
X185588141Y-107173000D01*
X182152606Y-107173000D01*
X181927000Y-106947394D01*
X181927000Y-104324301D01*
X183615973Y-104324301D01*
X183814150Y-105472000D01*
X183872087Y-105611874D01*
X184172501Y-105946444D01*
X185718945Y-104400000D01*
X187481055Y-104400000D01*
X189027499Y-105946444D01*
X189327913Y-105611874D01*
X189584027Y-104475699D01*
X189385850Y-103328000D01*
X189327913Y-103188126D01*
X189027499Y-102853556D01*
X187481055Y-104400000D01*
X185718945Y-104400000D01*
X184172501Y-102853556D01*
X183872087Y-103188126D01*
X183615973Y-104324301D01*
X181927000Y-104324301D01*
X181927000Y-102352606D01*
X182307105Y-101972501D01*
X185053556Y-101972501D01*
X186600000Y-103518945D01*
X188146444Y-101972501D01*
X187811874Y-101672087D01*
X186675699Y-101415973D01*
X185528000Y-101614150D01*
X185388126Y-101672087D01*
X185053556Y-101972501D01*
X182307105Y-101972501D01*
X183752606Y-100527000D01*
X187947394Y-100527000D01*
X194473000Y-107052606D01*
X194473000Y-107052606D01*
G37*
X194473000Y-107052606D02*
X194473000Y-109132710D01*
X194385850Y-108628000D01*
X194327913Y-108488126D01*
X194027499Y-108153556D01*
X192481055Y-109700000D01*
X194027499Y-111246444D01*
X194327913Y-110911874D01*
X194473000Y-110268238D01*
X194473000Y-112873000D01*
X190352606Y-112873000D01*
X189607105Y-112127499D01*
X190053556Y-112127499D01*
X190388126Y-112427913D01*
X191524301Y-112684027D01*
X192672000Y-112485850D01*
X192811874Y-112427913D01*
X193146444Y-112127499D01*
X191600000Y-110581055D01*
X190053556Y-112127499D01*
X189607105Y-112127499D01*
X189119495Y-111639889D01*
X189127000Y-111600000D01*
X189127000Y-111500000D01*
X189116994Y-111450590D01*
X189088553Y-111408965D01*
X189046159Y-111381685D01*
X189000000Y-111373000D01*
X188727000Y-111373000D01*
X188727000Y-110267290D01*
X188814150Y-110772000D01*
X188872087Y-110911874D01*
X189172501Y-111246444D01*
X190718945Y-109700000D01*
X189172501Y-108153556D01*
X188872087Y-108488126D01*
X188727000Y-109131762D01*
X188727000Y-107272501D01*
X190053556Y-107272501D01*
X191600000Y-108818945D01*
X193146444Y-107272501D01*
X192811874Y-106972087D01*
X191675699Y-106715973D01*
X190528000Y-106914150D01*
X190388126Y-106972087D01*
X190053556Y-107272501D01*
X188727000Y-107272501D01*
X188727000Y-107200000D01*
X188716994Y-107150590D01*
X188688553Y-107108965D01*
X188646159Y-107081685D01*
X188600000Y-107073000D01*
X187873030Y-107073000D01*
X188146444Y-106827499D01*
X186600000Y-105281055D01*
X185053556Y-106827499D01*
X185388126Y-107127913D01*
X185588141Y-107173000D01*
X182152606Y-107173000D01*
X181927000Y-106947394D01*
X181927000Y-104324301D01*
X183615973Y-104324301D01*
X183814150Y-105472000D01*
X183872087Y-105611874D01*
X184172501Y-105946444D01*
X185718945Y-104400000D01*
X187481055Y-104400000D01*
X189027499Y-105946444D01*
X189327913Y-105611874D01*
X189584027Y-104475699D01*
X189385850Y-103328000D01*
X189327913Y-103188126D01*
X189027499Y-102853556D01*
X187481055Y-104400000D01*
X185718945Y-104400000D01*
X184172501Y-102853556D01*
X183872087Y-103188126D01*
X183615973Y-104324301D01*
X181927000Y-104324301D01*
X181927000Y-102352606D01*
X182307105Y-101972501D01*
X185053556Y-101972501D01*
X186600000Y-103518945D01*
X188146444Y-101972501D01*
X187811874Y-101672087D01*
X186675699Y-101415973D01*
X185528000Y-101614150D01*
X185388126Y-101672087D01*
X185053556Y-101972501D01*
X182307105Y-101972501D01*
X183752606Y-100527000D01*
X187947394Y-100527000D01*
X194473000Y-107052606D01*
G36*
X173553556Y-107272501D02*
X175100000Y-108818945D01*
X176646444Y-107272501D01*
X176373030Y-107027000D01*
X176847394Y-107027000D01*
X179470200Y-109649806D01*
X179470200Y-109995402D01*
X179637097Y-109995402D01*
X179634594Y-110012148D01*
X179761219Y-110201721D01*
X180157446Y-110535045D01*
X180346836Y-110514101D01*
X180352211Y-110517666D01*
X180400000Y-110527000D01*
X181364205Y-110527000D01*
X181436954Y-110535045D01*
X181446517Y-110527000D01*
X182130523Y-110527000D01*
X182151382Y-110558218D01*
X182695440Y-110921746D01*
X183337200Y-111049400D01*
X183978960Y-110921746D01*
X184523018Y-110558218D01*
X184543877Y-110527000D01*
X184627931Y-110527000D01*
X184735324Y-110634393D01*
X184892265Y-110699400D01*
X185320450Y-110699400D01*
X185427200Y-110592650D01*
X185427200Y-110527000D01*
X186327200Y-110527000D01*
X186327200Y-110592650D01*
X186433950Y-110699400D01*
X186862135Y-110699400D01*
X187019076Y-110634393D01*
X187126469Y-110527000D01*
X187573000Y-110527000D01*
X187573000Y-111473000D01*
X177700000Y-111473000D01*
X177650590Y-111483006D01*
X177610197Y-111510197D01*
X175947394Y-113173000D01*
X173452606Y-113173000D01*
X172407105Y-112127499D01*
X173553556Y-112127499D01*
X173888126Y-112427913D01*
X175024301Y-112684027D01*
X176172000Y-112485850D01*
X176311874Y-112427913D01*
X176646444Y-112127499D01*
X175100000Y-110581055D01*
X173553556Y-112127499D01*
X172407105Y-112127499D01*
X171727000Y-111447394D01*
X171727000Y-109624301D01*
X172115973Y-109624301D01*
X172314150Y-110772000D01*
X172372087Y-110911874D01*
X172672501Y-111246444D01*
X174218945Y-109700000D01*
X175981055Y-109700000D01*
X177527499Y-111246444D01*
X177827913Y-110911874D01*
X178084027Y-109775699D01*
X177885850Y-108628000D01*
X177827913Y-108488126D01*
X177527499Y-108153556D01*
X175981055Y-109700000D01*
X174218945Y-109700000D01*
X172672501Y-108153556D01*
X172372087Y-108488126D01*
X172115973Y-109624301D01*
X171727000Y-109624301D01*
X171727000Y-108852606D01*
X173489803Y-107089803D01*
X173517666Y-107047789D01*
X173521578Y-107027000D01*
X173826970Y-107027000D01*
X173553556Y-107272501D01*
X173553556Y-107272501D01*
G37*
X173553556Y-107272501D02*
X175100000Y-108818945D01*
X176646444Y-107272501D01*
X176373030Y-107027000D01*
X176847394Y-107027000D01*
X179470200Y-109649806D01*
X179470200Y-109995402D01*
X179637097Y-109995402D01*
X179634594Y-110012148D01*
X179761219Y-110201721D01*
X180157446Y-110535045D01*
X180346836Y-110514101D01*
X180352211Y-110517666D01*
X180400000Y-110527000D01*
X181364205Y-110527000D01*
X181436954Y-110535045D01*
X181446517Y-110527000D01*
X182130523Y-110527000D01*
X182151382Y-110558218D01*
X182695440Y-110921746D01*
X183337200Y-111049400D01*
X183978960Y-110921746D01*
X184523018Y-110558218D01*
X184543877Y-110527000D01*
X184627931Y-110527000D01*
X184735324Y-110634393D01*
X184892265Y-110699400D01*
X185320450Y-110699400D01*
X185427200Y-110592650D01*
X185427200Y-110527000D01*
X186327200Y-110527000D01*
X186327200Y-110592650D01*
X186433950Y-110699400D01*
X186862135Y-110699400D01*
X187019076Y-110634393D01*
X187126469Y-110527000D01*
X187573000Y-110527000D01*
X187573000Y-111473000D01*
X177700000Y-111473000D01*
X177650590Y-111483006D01*
X177610197Y-111510197D01*
X175947394Y-113173000D01*
X173452606Y-113173000D01*
X172407105Y-112127499D01*
X173553556Y-112127499D01*
X173888126Y-112427913D01*
X175024301Y-112684027D01*
X176172000Y-112485850D01*
X176311874Y-112427913D01*
X176646444Y-112127499D01*
X175100000Y-110581055D01*
X173553556Y-112127499D01*
X172407105Y-112127499D01*
X171727000Y-111447394D01*
X171727000Y-109624301D01*
X172115973Y-109624301D01*
X172314150Y-110772000D01*
X172372087Y-110911874D01*
X172672501Y-111246444D01*
X174218945Y-109700000D01*
X175981055Y-109700000D01*
X177527499Y-111246444D01*
X177827913Y-110911874D01*
X178084027Y-109775699D01*
X177885850Y-108628000D01*
X177827913Y-108488126D01*
X177527499Y-108153556D01*
X175981055Y-109700000D01*
X174218945Y-109700000D01*
X172672501Y-108153556D01*
X172372087Y-108488126D01*
X172115973Y-109624301D01*
X171727000Y-109624301D01*
X171727000Y-108852606D01*
X173489803Y-107089803D01*
X173517666Y-107047789D01*
X173521578Y-107027000D01*
X173826970Y-107027000D01*
X173553556Y-107272501D01*
G36*
X198373000Y-142400000D02*
X198373000Y-142497721D01*
X198285422Y-142628792D01*
X198241499Y-142849600D01*
X198241500Y-142849605D01*
X198241500Y-142923000D01*
X198043663Y-142923000D01*
X198228319Y-142738666D01*
X198376359Y-142382149D01*
X198373000Y-142400000D01*
X198373000Y-142400000D01*
G37*
X198373000Y-142400000D02*
X198373000Y-142497721D01*
X198285422Y-142628792D01*
X198241499Y-142849600D01*
X198241500Y-142849605D01*
X198241500Y-142923000D01*
X198043663Y-142923000D01*
X198228319Y-142738666D01*
X198376359Y-142382149D01*
X198373000Y-142400000D01*
G36*
X198959669Y-136600328D02*
X199390179Y-136887985D01*
X199480746Y-136906000D01*
X199390179Y-136924015D01*
X198959669Y-137211672D01*
X198672012Y-137642182D01*
X198571000Y-138150003D01*
X198571000Y-138201997D01*
X198672012Y-138709818D01*
X198959669Y-139140328D01*
X199390179Y-139427985D01*
X199575000Y-139464748D01*
X199575000Y-142273000D01*
X198820516Y-142273000D01*
X198818500Y-142272599D01*
X198816484Y-142273000D01*
X198500000Y-142273000D01*
X198450590Y-142283006D01*
X198408965Y-142311447D01*
X198399808Y-142325678D01*
X198430769Y-142251115D01*
X198431229Y-141723202D01*
X198229631Y-141235297D01*
X197856666Y-140861681D01*
X197681000Y-140788738D01*
X197681000Y-136427500D01*
X198844189Y-136427500D01*
X198959669Y-136600328D01*
X198959669Y-136600328D01*
G37*
X198959669Y-136600328D02*
X199390179Y-136887985D01*
X199480746Y-136906000D01*
X199390179Y-136924015D01*
X198959669Y-137211672D01*
X198672012Y-137642182D01*
X198571000Y-138150003D01*
X198571000Y-138201997D01*
X198672012Y-138709818D01*
X198959669Y-139140328D01*
X199390179Y-139427985D01*
X199575000Y-139464748D01*
X199575000Y-142273000D01*
X198820516Y-142273000D01*
X198818500Y-142272599D01*
X198816484Y-142273000D01*
X198500000Y-142273000D01*
X198450590Y-142283006D01*
X198408965Y-142311447D01*
X198399808Y-142325678D01*
X198430769Y-142251115D01*
X198431229Y-141723202D01*
X198229631Y-141235297D01*
X197856666Y-140861681D01*
X197681000Y-140788738D01*
X197681000Y-136427500D01*
X198844189Y-136427500D01*
X198959669Y-136600328D01*
G36*
X196254352Y-128583958D02*
X196560197Y-128889803D01*
X196602211Y-128917666D01*
X196650000Y-128927000D01*
X202423000Y-128927000D01*
X202423000Y-142273000D01*
X200729000Y-142273000D01*
X200729000Y-139212044D01*
X200836331Y-139140328D01*
X201123988Y-138709818D01*
X201225000Y-138201997D01*
X201225000Y-138150003D01*
X201123988Y-137642182D01*
X200836331Y-137211672D01*
X200405821Y-136924015D01*
X200315254Y-136906000D01*
X200405821Y-136887985D01*
X200836331Y-136600328D01*
X201123988Y-136169818D01*
X201225000Y-135661997D01*
X201225000Y-135610003D01*
X201123988Y-135102182D01*
X200836331Y-134671672D01*
X200476685Y-134431365D01*
X200798000Y-134431365D01*
X200956237Y-134401591D01*
X201101567Y-134308073D01*
X201199064Y-134165381D01*
X201233365Y-133996000D01*
X201233365Y-132196000D01*
X201203591Y-132037763D01*
X201110073Y-131892433D01*
X200967381Y-131794936D01*
X200798000Y-131760635D01*
X198998000Y-131760635D01*
X198839763Y-131790409D01*
X198694433Y-131883927D01*
X198596936Y-132026619D01*
X198562635Y-132196000D01*
X198562635Y-132519000D01*
X197104000Y-132519000D01*
X196883192Y-132562922D01*
X196695999Y-132687999D01*
X196627000Y-132791264D01*
X196627000Y-132500000D01*
X196616994Y-132450590D01*
X196588553Y-132408965D01*
X196546159Y-132381685D01*
X196500000Y-132373000D01*
X195927000Y-132373000D01*
X195927000Y-129250000D01*
X195916994Y-129200590D01*
X195888553Y-129158965D01*
X195846159Y-129131685D01*
X195800000Y-129123000D01*
X193652606Y-129123000D01*
X193109147Y-128579541D01*
X196254352Y-128583958D01*
X196254352Y-128583958D01*
G37*
X196254352Y-128583958D02*
X196560197Y-128889803D01*
X196602211Y-128917666D01*
X196650000Y-128927000D01*
X202423000Y-128927000D01*
X202423000Y-142273000D01*
X200729000Y-142273000D01*
X200729000Y-139212044D01*
X200836331Y-139140328D01*
X201123988Y-138709818D01*
X201225000Y-138201997D01*
X201225000Y-138150003D01*
X201123988Y-137642182D01*
X200836331Y-137211672D01*
X200405821Y-136924015D01*
X200315254Y-136906000D01*
X200405821Y-136887985D01*
X200836331Y-136600328D01*
X201123988Y-136169818D01*
X201225000Y-135661997D01*
X201225000Y-135610003D01*
X201123988Y-135102182D01*
X200836331Y-134671672D01*
X200476685Y-134431365D01*
X200798000Y-134431365D01*
X200956237Y-134401591D01*
X201101567Y-134308073D01*
X201199064Y-134165381D01*
X201233365Y-133996000D01*
X201233365Y-132196000D01*
X201203591Y-132037763D01*
X201110073Y-131892433D01*
X200967381Y-131794936D01*
X200798000Y-131760635D01*
X198998000Y-131760635D01*
X198839763Y-131790409D01*
X198694433Y-131883927D01*
X198596936Y-132026619D01*
X198562635Y-132196000D01*
X198562635Y-132519000D01*
X197104000Y-132519000D01*
X196883192Y-132562922D01*
X196695999Y-132687999D01*
X196627000Y-132791264D01*
X196627000Y-132500000D01*
X196616994Y-132450590D01*
X196588553Y-132408965D01*
X196546159Y-132381685D01*
X196500000Y-132373000D01*
X195927000Y-132373000D01*
X195927000Y-129250000D01*
X195916994Y-129200590D01*
X195888553Y-129158965D01*
X195846159Y-129131685D01*
X195800000Y-129123000D01*
X193652606Y-129123000D01*
X193109147Y-128579541D01*
X196254352Y-128583958D01*
G36*
X198562635Y-133996000D02*
X198592409Y-134154237D01*
X198685927Y-134299567D01*
X198828619Y-134397064D01*
X198998000Y-134431365D01*
X199319315Y-134431365D01*
X198959669Y-134671672D01*
X198672012Y-135102182D01*
X198637935Y-135273500D01*
X196627000Y-135273500D01*
X196627000Y-134308000D01*
X196976995Y-134308000D01*
X196977000Y-134308001D01*
X197197808Y-134264078D01*
X197385001Y-134139001D01*
X197512001Y-134012001D01*
X197637078Y-133824808D01*
X197667275Y-133673000D01*
X198562635Y-133673000D01*
X198562635Y-133996000D01*
X198562635Y-133996000D01*
G37*
X198562635Y-133996000D02*
X198592409Y-134154237D01*
X198685927Y-134299567D01*
X198828619Y-134397064D01*
X198998000Y-134431365D01*
X199319315Y-134431365D01*
X198959669Y-134671672D01*
X198672012Y-135102182D01*
X198637935Y-135273500D01*
X196627000Y-135273500D01*
X196627000Y-134308000D01*
X196976995Y-134308000D01*
X196977000Y-134308001D01*
X197197808Y-134264078D01*
X197385001Y-134139001D01*
X197512001Y-134012001D01*
X197637078Y-133824808D01*
X197667275Y-133673000D01*
X198562635Y-133673000D01*
X198562635Y-133996000D01*
M02*
