M48
;DRILL file {KiCad 4.0.7} date 05/14/18 12:15:54
;FORMAT={3:3/ absolute / metric / suppress leading zeros}
FMAT,2
METRIC,TZ
T1C0.800
T2C1.000
T3C1.200
T4C3.500
%
G90
G05
M71
T1
X16074Y-8498
X16074Y-10998
X16074Y-15610
X16074Y-18110
T2
X27251Y-13028
X32331Y-13028
X45031Y-13028
X57731Y-13028
X87250Y-13030
X92330Y-13030
X105030Y-13030
X117730Y-13030
X147250Y-13030
X152330Y-13030
X165030Y-13030
X177730Y-13030
T3
X5406Y-2362
X5406Y-4902
X5406Y-7442
X5406Y-12014
X5406Y-14554
X5406Y-17094
T4
X74730Y-8830
X134730Y-8830
T0
M30
