G04 #@! TF.FileFunction,Other,Fab,Bot*
%FSLAX46Y46*%
G04 Gerber Fmt 4.6, Leading zero omitted, Abs format (unit mm)*
G04 Created by KiCad (PCBNEW 4.0.7) date 05/14/18 12:15:56*
%MOMM*%
%LPD*%
G01*
G04 APERTURE LIST*
%ADD10C,0.100000*%
%ADD11C,0.150000*%
G04 APERTURE END LIST*
D10*
X95906000Y-16370000D02*
X95906000Y-14770000D01*
X92706000Y-16370000D02*
X95906000Y-16370000D01*
X92706000Y-14770000D02*
X92706000Y-16370000D01*
X95906000Y-14770000D02*
X92706000Y-14770000D01*
X35962000Y-16878000D02*
X35962000Y-15278000D01*
X32762000Y-16878000D02*
X35962000Y-16878000D01*
X32762000Y-15278000D02*
X32762000Y-16878000D01*
X35962000Y-15278000D02*
X32762000Y-15278000D01*
X55482000Y-11938000D02*
X53882000Y-11938000D01*
X55482000Y-15138000D02*
X55482000Y-11938000D01*
X53882000Y-15138000D02*
X55482000Y-15138000D01*
X53882000Y-11938000D02*
X53882000Y-15138000D01*
X115934000Y-12446000D02*
X114334000Y-12446000D01*
X115934000Y-15646000D02*
X115934000Y-12446000D01*
X114334000Y-15646000D02*
X115934000Y-15646000D01*
X114334000Y-12446000D02*
X114334000Y-15646000D01*
X158490000Y-16830000D02*
X158490000Y-15230000D01*
X155290000Y-16830000D02*
X158490000Y-16830000D01*
X155290000Y-15230000D02*
X155290000Y-16830000D01*
X158490000Y-15230000D02*
X155290000Y-15230000D01*
X175930000Y-12430000D02*
X174330000Y-12430000D01*
X175930000Y-15630000D02*
X175930000Y-12430000D01*
X174330000Y-15630000D02*
X175930000Y-15630000D01*
X174330000Y-12430000D02*
X174330000Y-15630000D01*
D11*
X95520286Y-17022381D02*
X95425047Y-17022381D01*
X95329809Y-17070000D01*
X95282190Y-17117619D01*
X95234571Y-17212857D01*
X95186952Y-17403333D01*
X95186952Y-17641429D01*
X95234571Y-17831905D01*
X95282190Y-17927143D01*
X95329809Y-17974762D01*
X95425047Y-18022381D01*
X95520286Y-18022381D01*
X95615524Y-17974762D01*
X95663143Y-17927143D01*
X95710762Y-17831905D01*
X95758381Y-17641429D01*
X95758381Y-17403333D01*
X95710762Y-17212857D01*
X95663143Y-17117619D01*
X95615524Y-17070000D01*
X95520286Y-17022381D01*
X94758381Y-17927143D02*
X94710762Y-17974762D01*
X94758381Y-18022381D01*
X94806000Y-17974762D01*
X94758381Y-17927143D01*
X94758381Y-18022381D01*
X93758381Y-18022381D02*
X94329810Y-18022381D01*
X94044096Y-18022381D02*
X94044096Y-17022381D01*
X94139334Y-17165238D01*
X94234572Y-17260476D01*
X94329810Y-17308095D01*
X92901238Y-17355714D02*
X92901238Y-18022381D01*
X93329810Y-17355714D02*
X93329810Y-17879524D01*
X93282191Y-17974762D01*
X93186953Y-18022381D01*
X93044095Y-18022381D01*
X92948857Y-17974762D01*
X92901238Y-17927143D01*
X94496666Y-15987143D02*
X94544285Y-16034762D01*
X94687142Y-16082381D01*
X94782380Y-16082381D01*
X94925238Y-16034762D01*
X95020476Y-15939524D01*
X95068095Y-15844286D01*
X95115714Y-15653810D01*
X95115714Y-15510952D01*
X95068095Y-15320476D01*
X95020476Y-15225238D01*
X94925238Y-15130000D01*
X94782380Y-15082381D01*
X94687142Y-15082381D01*
X94544285Y-15130000D01*
X94496666Y-15177619D01*
X93591904Y-15082381D02*
X94068095Y-15082381D01*
X94115714Y-15558571D01*
X94068095Y-15510952D01*
X93972857Y-15463333D01*
X93734761Y-15463333D01*
X93639523Y-15510952D01*
X93591904Y-15558571D01*
X93544285Y-15653810D01*
X93544285Y-15891905D01*
X93591904Y-15987143D01*
X93639523Y-16034762D01*
X93734761Y-16082381D01*
X93972857Y-16082381D01*
X94068095Y-16034762D01*
X94115714Y-15987143D01*
X35576286Y-17530381D02*
X35481047Y-17530381D01*
X35385809Y-17578000D01*
X35338190Y-17625619D01*
X35290571Y-17720857D01*
X35242952Y-17911333D01*
X35242952Y-18149429D01*
X35290571Y-18339905D01*
X35338190Y-18435143D01*
X35385809Y-18482762D01*
X35481047Y-18530381D01*
X35576286Y-18530381D01*
X35671524Y-18482762D01*
X35719143Y-18435143D01*
X35766762Y-18339905D01*
X35814381Y-18149429D01*
X35814381Y-17911333D01*
X35766762Y-17720857D01*
X35719143Y-17625619D01*
X35671524Y-17578000D01*
X35576286Y-17530381D01*
X34814381Y-18435143D02*
X34766762Y-18482762D01*
X34814381Y-18530381D01*
X34862000Y-18482762D01*
X34814381Y-18435143D01*
X34814381Y-18530381D01*
X33814381Y-18530381D02*
X34385810Y-18530381D01*
X34100096Y-18530381D02*
X34100096Y-17530381D01*
X34195334Y-17673238D01*
X34290572Y-17768476D01*
X34385810Y-17816095D01*
X32957238Y-17863714D02*
X32957238Y-18530381D01*
X33385810Y-17863714D02*
X33385810Y-18387524D01*
X33338191Y-18482762D01*
X33242953Y-18530381D01*
X33100095Y-18530381D01*
X33004857Y-18482762D01*
X32957238Y-18435143D01*
X34496666Y-16387143D02*
X34544285Y-16434762D01*
X34687142Y-16482381D01*
X34782380Y-16482381D01*
X34925238Y-16434762D01*
X35020476Y-16339524D01*
X35068095Y-16244286D01*
X35115714Y-16053810D01*
X35115714Y-15910952D01*
X35068095Y-15720476D01*
X35020476Y-15625238D01*
X34925238Y-15530000D01*
X34782380Y-15482381D01*
X34687142Y-15482381D01*
X34544285Y-15530000D01*
X34496666Y-15577619D01*
X33544285Y-16482381D02*
X34115714Y-16482381D01*
X33830000Y-16482381D02*
X33830000Y-15482381D01*
X33925238Y-15625238D01*
X34020476Y-15720476D01*
X34115714Y-15768095D01*
X52382381Y-12215714D02*
X52382381Y-12310953D01*
X52430000Y-12406191D01*
X52477619Y-12453810D01*
X52572857Y-12501429D01*
X52763333Y-12549048D01*
X53001429Y-12549048D01*
X53191905Y-12501429D01*
X53287143Y-12453810D01*
X53334762Y-12406191D01*
X53382381Y-12310953D01*
X53382381Y-12215714D01*
X53334762Y-12120476D01*
X53287143Y-12072857D01*
X53191905Y-12025238D01*
X53001429Y-11977619D01*
X52763333Y-11977619D01*
X52572857Y-12025238D01*
X52477619Y-12072857D01*
X52430000Y-12120476D01*
X52382381Y-12215714D01*
X53287143Y-12977619D02*
X53334762Y-13025238D01*
X53382381Y-12977619D01*
X53334762Y-12930000D01*
X53287143Y-12977619D01*
X53382381Y-12977619D01*
X53382381Y-13977619D02*
X53382381Y-13406190D01*
X53382381Y-13691904D02*
X52382381Y-13691904D01*
X52525238Y-13596666D01*
X52620476Y-13501428D01*
X52668095Y-13406190D01*
X52715714Y-14834762D02*
X53382381Y-14834762D01*
X52715714Y-14406190D02*
X53239524Y-14406190D01*
X53334762Y-14453809D01*
X53382381Y-14549047D01*
X53382381Y-14691905D01*
X53334762Y-14787143D01*
X53287143Y-14834762D01*
X55087143Y-13263334D02*
X55134762Y-13215715D01*
X55182381Y-13072858D01*
X55182381Y-12977620D01*
X55134762Y-12834762D01*
X55039524Y-12739524D01*
X54944286Y-12691905D01*
X54753810Y-12644286D01*
X54610952Y-12644286D01*
X54420476Y-12691905D01*
X54325238Y-12739524D01*
X54230000Y-12834762D01*
X54182381Y-12977620D01*
X54182381Y-13072858D01*
X54230000Y-13215715D01*
X54277619Y-13263334D01*
X54277619Y-13644286D02*
X54230000Y-13691905D01*
X54182381Y-13787143D01*
X54182381Y-14025239D01*
X54230000Y-14120477D01*
X54277619Y-14168096D01*
X54372857Y-14215715D01*
X54468095Y-14215715D01*
X54610952Y-14168096D01*
X55182381Y-13596667D01*
X55182381Y-14215715D01*
X112582381Y-13015714D02*
X112582381Y-13110953D01*
X112630000Y-13206191D01*
X112677619Y-13253810D01*
X112772857Y-13301429D01*
X112963333Y-13349048D01*
X113201429Y-13349048D01*
X113391905Y-13301429D01*
X113487143Y-13253810D01*
X113534762Y-13206191D01*
X113582381Y-13110953D01*
X113582381Y-13015714D01*
X113534762Y-12920476D01*
X113487143Y-12872857D01*
X113391905Y-12825238D01*
X113201429Y-12777619D01*
X112963333Y-12777619D01*
X112772857Y-12825238D01*
X112677619Y-12872857D01*
X112630000Y-12920476D01*
X112582381Y-13015714D01*
X113487143Y-13777619D02*
X113534762Y-13825238D01*
X113582381Y-13777619D01*
X113534762Y-13730000D01*
X113487143Y-13777619D01*
X113582381Y-13777619D01*
X113582381Y-14777619D02*
X113582381Y-14206190D01*
X113582381Y-14491904D02*
X112582381Y-14491904D01*
X112725238Y-14396666D01*
X112820476Y-14301428D01*
X112868095Y-14206190D01*
X112915714Y-15634762D02*
X113582381Y-15634762D01*
X112915714Y-15206190D02*
X113439524Y-15206190D01*
X113534762Y-15253809D01*
X113582381Y-15349047D01*
X113582381Y-15491905D01*
X113534762Y-15587143D01*
X113487143Y-15634762D01*
X115487143Y-13863334D02*
X115534762Y-13815715D01*
X115582381Y-13672858D01*
X115582381Y-13577620D01*
X115534762Y-13434762D01*
X115439524Y-13339524D01*
X115344286Y-13291905D01*
X115153810Y-13244286D01*
X115010952Y-13244286D01*
X114820476Y-13291905D01*
X114725238Y-13339524D01*
X114630000Y-13434762D01*
X114582381Y-13577620D01*
X114582381Y-13672858D01*
X114630000Y-13815715D01*
X114677619Y-13863334D01*
X114582381Y-14720477D02*
X114582381Y-14530000D01*
X114630000Y-14434762D01*
X114677619Y-14387143D01*
X114820476Y-14291905D01*
X115010952Y-14244286D01*
X115391905Y-14244286D01*
X115487143Y-14291905D01*
X115534762Y-14339524D01*
X115582381Y-14434762D01*
X115582381Y-14625239D01*
X115534762Y-14720477D01*
X115487143Y-14768096D01*
X115391905Y-14815715D01*
X115153810Y-14815715D01*
X115058571Y-14768096D01*
X115010952Y-14720477D01*
X114963333Y-14625239D01*
X114963333Y-14434762D01*
X115010952Y-14339524D01*
X115058571Y-14291905D01*
X115153810Y-14244286D01*
X158014286Y-17312381D02*
X157919047Y-17312381D01*
X157823809Y-17360000D01*
X157776190Y-17407619D01*
X157728571Y-17502857D01*
X157680952Y-17693333D01*
X157680952Y-17931429D01*
X157728571Y-18121905D01*
X157776190Y-18217143D01*
X157823809Y-18264762D01*
X157919047Y-18312381D01*
X158014286Y-18312381D01*
X158109524Y-18264762D01*
X158157143Y-18217143D01*
X158204762Y-18121905D01*
X158252381Y-17931429D01*
X158252381Y-17693333D01*
X158204762Y-17502857D01*
X158157143Y-17407619D01*
X158109524Y-17360000D01*
X158014286Y-17312381D01*
X157252381Y-18217143D02*
X157204762Y-18264762D01*
X157252381Y-18312381D01*
X157300000Y-18264762D01*
X157252381Y-18217143D01*
X157252381Y-18312381D01*
X156252381Y-18312381D02*
X156823810Y-18312381D01*
X156538096Y-18312381D02*
X156538096Y-17312381D01*
X156633334Y-17455238D01*
X156728572Y-17550476D01*
X156823810Y-17598095D01*
X155395238Y-17645714D02*
X155395238Y-18312381D01*
X155823810Y-17645714D02*
X155823810Y-18169524D01*
X155776191Y-18264762D01*
X155680953Y-18312381D01*
X155538095Y-18312381D01*
X155442857Y-18264762D01*
X155395238Y-18217143D01*
X156996666Y-16387143D02*
X157044285Y-16434762D01*
X157187142Y-16482381D01*
X157282380Y-16482381D01*
X157425238Y-16434762D01*
X157520476Y-16339524D01*
X157568095Y-16244286D01*
X157615714Y-16053810D01*
X157615714Y-15910952D01*
X157568095Y-15720476D01*
X157520476Y-15625238D01*
X157425238Y-15530000D01*
X157282380Y-15482381D01*
X157187142Y-15482381D01*
X157044285Y-15530000D01*
X156996666Y-15577619D01*
X156663333Y-15482381D02*
X155996666Y-15482381D01*
X156425238Y-16482381D01*
X172582381Y-12615714D02*
X172582381Y-12710953D01*
X172630000Y-12806191D01*
X172677619Y-12853810D01*
X172772857Y-12901429D01*
X172963333Y-12949048D01*
X173201429Y-12949048D01*
X173391905Y-12901429D01*
X173487143Y-12853810D01*
X173534762Y-12806191D01*
X173582381Y-12710953D01*
X173582381Y-12615714D01*
X173534762Y-12520476D01*
X173487143Y-12472857D01*
X173391905Y-12425238D01*
X173201429Y-12377619D01*
X172963333Y-12377619D01*
X172772857Y-12425238D01*
X172677619Y-12472857D01*
X172630000Y-12520476D01*
X172582381Y-12615714D01*
X173487143Y-13377619D02*
X173534762Y-13425238D01*
X173582381Y-13377619D01*
X173534762Y-13330000D01*
X173487143Y-13377619D01*
X173582381Y-13377619D01*
X173582381Y-14377619D02*
X173582381Y-13806190D01*
X173582381Y-14091904D02*
X172582381Y-14091904D01*
X172725238Y-13996666D01*
X172820476Y-13901428D01*
X172868095Y-13806190D01*
X172915714Y-15234762D02*
X173582381Y-15234762D01*
X172915714Y-14806190D02*
X173439524Y-14806190D01*
X173534762Y-14853809D01*
X173582381Y-14949047D01*
X173582381Y-15091905D01*
X173534762Y-15187143D01*
X173487143Y-15234762D01*
X175487143Y-13863334D02*
X175534762Y-13815715D01*
X175582381Y-13672858D01*
X175582381Y-13577620D01*
X175534762Y-13434762D01*
X175439524Y-13339524D01*
X175344286Y-13291905D01*
X175153810Y-13244286D01*
X175010952Y-13244286D01*
X174820476Y-13291905D01*
X174725238Y-13339524D01*
X174630000Y-13434762D01*
X174582381Y-13577620D01*
X174582381Y-13672858D01*
X174630000Y-13815715D01*
X174677619Y-13863334D01*
X175010952Y-14434762D02*
X174963333Y-14339524D01*
X174915714Y-14291905D01*
X174820476Y-14244286D01*
X174772857Y-14244286D01*
X174677619Y-14291905D01*
X174630000Y-14339524D01*
X174582381Y-14434762D01*
X174582381Y-14625239D01*
X174630000Y-14720477D01*
X174677619Y-14768096D01*
X174772857Y-14815715D01*
X174820476Y-14815715D01*
X174915714Y-14768096D01*
X174963333Y-14720477D01*
X175010952Y-14625239D01*
X175010952Y-14434762D01*
X175058571Y-14339524D01*
X175106190Y-14291905D01*
X175201429Y-14244286D01*
X175391905Y-14244286D01*
X175487143Y-14291905D01*
X175534762Y-14339524D01*
X175582381Y-14434762D01*
X175582381Y-14625239D01*
X175534762Y-14720477D01*
X175487143Y-14768096D01*
X175391905Y-14815715D01*
X175201429Y-14815715D01*
X175106190Y-14768096D01*
X175058571Y-14720477D01*
X175010952Y-14625239D01*
M02*
