  0
SECTION
  2
HEADER
  9
$ANGBASE
  50
0.0
  9
$ANGDIR
  70
  1
  9
$MEASUREMENT
  70
0
  0
ENDSEC
  0
SECTION
  2
TABLES
  0
TABLE
  2
LTYPE
  70
1
  0
LTYPE
  2
CONTINUOUS
  70
0
  3
Solid line
  72
65
  73
0
  40
0.0
  0
ENDTAB
  0
TABLE
  2
STYLE
  70
4
  0
STYLE
  2
KICAD
  70
0
  40
0
  41
1
  42
1
  50
0
  71
0
  3
isocp.shx
  0
STYLE
  2
KICADB
  70
0
  40
0
  41
1
  42
1
  50
0
  71
0
  3
isocp.shx
  0
STYLE
  2
KICADI
  70
0
  40
0
  41
1
  42
1
  50
15
  71
0
  3
isocp.shx
  0
STYLE
  2
KICADBI
  70
0
  40
0
  41
1
  42
1
  50
15
  71
0
  3
isocp.shx
  0
ENDTAB
  0
TABLE
  2
LAYER
  70
30
  0
LAYER
  2
BLACK
  70
0
  62
7
  6
CONTINUOUS
  0
LAYER
  2
GRAY1
  70
0
  62
251
  6
CONTINUOUS
  0
LAYER
  2
GRAY2
  70
0
  62
8
  6
CONTINUOUS
  0
LAYER
  2
GRAY3
  70
0
  62
9
  6
CONTINUOUS
  0
LAYER
  2
WHITE
  70
0
  62
7
  6
CONTINUOUS
  0
LAYER
  2
LYELLOW
  70
0
  62
51
  6
CONTINUOUS
  0
LAYER
  2
BLUE1
  70
0
  62
178
  6
CONTINUOUS
  0
LAYER
  2
GREEN1
  70
0
  62
98
  6
CONTINUOUS
  0
LAYER
  2
CYAN1
  70
0
  62
138
  6
CONTINUOUS
  0
LAYER
  2
RED1
  70
0
  62
18
  6
CONTINUOUS
  0
LAYER
  2
MAGENTA1
  70
0
  62
228
  6
CONTINUOUS
  0
LAYER
  2
BROWN1
  70
0
  62
58
  6
CONTINUOUS
  0
LAYER
  2
BLUE2
  70
0
  62
5
  6
CONTINUOUS
  0
LAYER
  2
GREEN2
  70
0
  62
3
  6
CONTINUOUS
  0
LAYER
  2
CYAN2
  70
0
  62
4
  6
CONTINUOUS
  0
LAYER
  2
RED2
  70
0
  62
1
  6
CONTINUOUS
  0
LAYER
  2
MAGENTA2
  70
0
  62
6
  6
CONTINUOUS
  0
LAYER
  2
BROWN2
  70
0
  62
54
  6
CONTINUOUS
  0
LAYER
  2
BLUE3
  70
0
  62
171
  6
CONTINUOUS
  0
LAYER
  2
GREEN3
  70
0
  62
91
  6
CONTINUOUS
  0
LAYER
  2
CYAN3
  70
0
  62
131
  6
CONTINUOUS
  0
LAYER
  2
RED3
  70
0
  62
11
  6
CONTINUOUS
  0
LAYER
  2
MAGENTA3
  70
0
  62
221
  6
CONTINUOUS
  0
LAYER
  2
YELLOW3
  70
0
  62
2
  6
CONTINUOUS
  0
LAYER
  2
BLUE4
  70
0
  62
5
  6
CONTINUOUS
  0
LAYER
  2
GREEN4
  70
0
  62
3
  6
CONTINUOUS
  0
LAYER
  2
CYAN4
  70
0
  62
4
  6
CONTINUOUS
  0
LAYER
  2
RED4
  70
0
  62
1
  6
CONTINUOUS
  0
LAYER
  2
MAGENTA4
  70
0
  62
6
  6
CONTINUOUS
  0
LAYER
  2
YELLOW4
  70
0
  62
2
  6
CONTINUOUS
  0
ENDTAB
  0
ENDSEC
  0
SECTION
  2
ENTITIES
0
LINE
8
Black
10
60
20
-160
11
60
21
-60
0
LINE
8
Black
10
118
20
-160
11
60
21
-160
0
LINE
8
Black
10
118
20
-60
11
118
21
-160
0
LINE
8
Black
10
60
20
-60
11
118
21
-60
0
LINE
8
Black
10
63.5
20
-73.5
11
68.5
21
-78.5
0
LINE
8
Black
10
68.5
20
-73.5
11
63.5
21
-78.5
0
LINE
8
Black
10
63.5
20
-141.5
11
68.5
21
-146.5
0
LINE
8
Black
10
68.5
20
-141.5
11
63.5
21
-146.5
0
LINE
8
Black
10
86.5
20
-64.5
11
91.5
21
-69.5
0
LINE
8
Black
10
91.5
20
-64.5
11
86.5
21
-69.5
0
LINE
8
Black
10
86.5
20
-98.5
11
91.5
21
-103.5
0
LINE
8
Black
10
91.5
20
-98.5
11
86.5
21
-103.5
0
LINE
8
Black
10
109.5
20
-73.5
11
114.5
21
-78.5
0
LINE
8
Black
10
114.5
20
-73.5
11
109.5
21
-78.5
0
LINE
8
Black
10
109.5
20
-141.5
11
114.5
21
-146.5
0
LINE
8
Black
10
114.5
20
-141.5
11
109.5
21
-146.5
0
LINE
8
Black
10
62.6393
20
-164.732
11
62.6393
21
-161.732
0
LINE
8
Black
10
62.6393
20
-161.732
11
63.3536
21
-161.732
0
LINE
8
Black
10
63.3536
20
-161.732
11
63.7821
21
-161.875
0
LINE
8
Black
10
63.7821
20
-161.875
11
64.0679
21
-162.161
0
LINE
8
Black
10
64.0679
20
-162.161
11
64.2107
21
-162.446
0
LINE
8
Black
10
64.2107
20
-162.446
11
64.3536
21
-163.018
0
LINE
8
Black
10
64.3536
20
-163.018
11
64.3536
21
-163.446
0
LINE
8
Black
10
64.3536
20
-163.446
11
64.2107
21
-164.018
0
LINE
8
Black
10
64.2107
20
-164.018
11
64.0679
21
-164.304
0
LINE
8
Black
10
64.0679
20
-164.304
11
63.7821
21
-164.589
0
LINE
8
Black
10
63.7821
20
-164.589
11
63.3536
21
-164.732
0
LINE
8
Black
10
63.3536
20
-164.732
11
62.6393
21
-164.732
0
LINE
8
Black
10
65.6393
20
-164.732
11
65.6393
21
-162.732
0
LINE
8
Black
10
65.6393
20
-163.304
11
65.7821
21
-163.018
0
LINE
8
Black
10
65.7821
20
-163.018
11
65.925
21
-162.875
0
LINE
8
Black
10
65.925
20
-162.875
11
66.2107
21
-162.732
0
LINE
8
Black
10
66.2107
20
-162.732
11
66.4964
21
-162.732
0
LINE
8
Black
10
67.4964
20
-164.732
11
67.4964
21
-162.732
0
LINE
8
Black
10
67.4964
20
-161.732
11
67.3536
21
-161.875
0
LINE
8
Black
10
67.3536
20
-161.875
11
67.4964
21
-162.018
0
LINE
8
Black
10
67.4964
20
-162.018
11
67.6393
21
-161.875
0
LINE
8
Black
10
67.6393
20
-161.875
11
67.4964
21
-161.732
0
LINE
8
Black
10
67.4964
20
-161.732
11
67.4964
21
-162.018
0
LINE
8
Black
10
69.3536
20
-164.732
11
69.0679
21
-164.589
0
LINE
8
Black
10
69.0679
20
-164.589
11
68.925
21
-164.304
0
LINE
8
Black
10
68.925
20
-164.304
11
68.925
21
-161.732
0
LINE
8
Black
10
70.925
20
-164.732
11
70.6393
21
-164.589
0
LINE
8
Black
10
70.6393
20
-164.589
11
70.4964
21
-164.304
0
LINE
8
Black
10
70.4964
20
-164.304
11
70.4964
21
-161.732
0
LINE
8
Black
10
74.3536
20
-164.732
11
74.3536
21
-161.732
0
LINE
8
Black
10
74.3536
20
-161.732
11
75.3536
21
-163.875
0
LINE
8
Black
10
75.3536
20
-163.875
11
76.3536
21
-161.732
0
LINE
8
Black
10
76.3536
20
-161.732
11
76.3536
21
-164.732
0
LINE
8
Black
10
79.0679
20
-164.732
11
79.0679
21
-163.161
0
LINE
8
Black
10
79.0679
20
-163.161
11
78.925
21
-162.875
0
LINE
8
Black
10
78.925
20
-162.875
11
78.6393
21
-162.732
0
LINE
8
Black
10
78.6393
20
-162.732
11
78.0679
21
-162.732
0
LINE
8
Black
10
78.0679
20
-162.732
11
77.7821
21
-162.875
0
LINE
8
Black
10
79.0679
20
-164.589
11
78.7821
21
-164.732
0
LINE
8
Black
10
78.7821
20
-164.732
11
78.0679
21
-164.732
0
LINE
8
Black
10
78.0679
20
-164.732
11
77.7821
21
-164.589
0
LINE
8
Black
10
77.7821
20
-164.589
11
77.6393
21
-164.304
0
LINE
8
Black
10
77.6393
20
-164.304
11
77.6393
21
-164.018
0
LINE
8
Black
10
77.6393
20
-164.018
11
77.7821
21
-163.732
0
LINE
8
Black
10
77.7821
20
-163.732
11
78.0679
21
-163.589
0
LINE
8
Black
10
78.0679
20
-163.589
11
78.7821
21
-163.589
0
LINE
8
Black
10
78.7821
20
-163.589
11
79.0679
21
-163.446
0
LINE
8
Black
10
80.4964
20
-162.732
11
80.4964
21
-165.732
0
LINE
8
Black
10
80.4964
20
-162.875
11
80.7821
21
-162.732
0
LINE
8
Black
10
80.7821
20
-162.732
11
81.3536
21
-162.732
0
LINE
8
Black
10
81.3536
20
-162.732
11
81.6393
21
-162.875
0
LINE
8
Black
10
81.6393
20
-162.875
11
81.7821
21
-163.018
0
LINE
8
Black
10
81.7821
20
-163.018
11
81.925
21
-163.304
0
LINE
8
Black
10
81.925
20
-163.304
11
81.925
21
-164.161
0
LINE
8
Black
10
81.925
20
-164.161
11
81.7821
21
-164.446
0
LINE
8
Black
10
81.7821
20
-164.446
11
81.6393
21
-164.589
0
LINE
8
Black
10
81.6393
20
-164.589
11
81.3536
21
-164.732
0
LINE
8
Black
10
81.3536
20
-164.732
11
80.7821
21
-164.732
0
LINE
8
Black
10
80.7821
20
-164.732
11
80.4964
21
-164.589
0
LINE
8
Black
10
83.2107
20
-164.446
11
83.3536
21
-164.589
0
LINE
8
Black
10
83.3536
20
-164.589
11
83.2107
21
-164.732
0
LINE
8
Black
10
83.2107
20
-164.732
11
83.0679
21
-164.589
0
LINE
8
Black
10
83.0679
20
-164.589
11
83.2107
21
-164.446
0
LINE
8
Black
10
83.2107
20
-164.446
11
83.2107
21
-164.732
0
LINE
8
Black
10
83.2107
20
-162.875
11
83.3536
21
-163.018
0
LINE
8
Black
10
83.3536
20
-163.018
11
83.2107
21
-163.161
0
LINE
8
Black
10
83.2107
20
-163.161
11
83.0679
21
-163.018
0
LINE
8
Black
10
83.0679
20
-163.018
11
83.2107
21
-162.875
0
LINE
8
Black
10
83.2107
20
-162.875
11
83.2107
21
-163.161
0
LINE
8
Black
10
54.925
20
-167.175
11
59.925
21
-172.175
0
LINE
8
Black
10
59.925
20
-167.175
11
54.925
21
-172.175
0
LINE
8
Black
10
64.0679
20
-168.032
11
62.6393
21
-168.032
0
LINE
8
Black
10
62.6393
20
-168.032
11
62.4964
21
-169.461
0
LINE
8
Black
10
62.4964
20
-169.461
11
62.6393
21
-169.318
0
LINE
8
Black
10
62.6393
20
-169.318
11
62.925
21
-169.175
0
LINE
8
Black
10
62.925
20
-169.175
11
63.6393
21
-169.175
0
LINE
8
Black
10
63.6393
20
-169.175
11
63.925
21
-169.318
0
LINE
8
Black
10
63.925
20
-169.318
11
64.0679
21
-169.461
0
LINE
8
Black
10
64.0679
20
-169.461
11
64.2107
21
-169.746
0
LINE
8
Black
10
64.2107
20
-169.746
11
64.2107
21
-170.461
0
LINE
8
Black
10
64.2107
20
-170.461
11
64.0679
21
-170.746
0
LINE
8
Black
10
64.0679
20
-170.746
11
63.925
21
-170.889
0
LINE
8
Black
10
63.925
20
-170.889
11
63.6393
21
-171.032
0
LINE
8
Black
10
63.6393
20
-171.032
11
62.925
21
-171.032
0
LINE
8
Black
10
62.925
20
-171.032
11
62.6393
21
-170.889
0
LINE
8
Black
10
62.6393
20
-170.889
11
62.4964
21
-170.746
0
LINE
8
Black
10
65.4964
20
-170.746
11
65.6393
21
-170.889
0
LINE
8
Black
10
65.6393
20
-170.889
11
65.4964
21
-171.032
0
LINE
8
Black
10
65.4964
20
-171.032
11
65.3536
21
-170.889
0
LINE
8
Black
10
65.3536
20
-170.889
11
65.4964
21
-170.746
0
LINE
8
Black
10
65.4964
20
-170.746
11
65.4964
21
-171.032
0
LINE
8
Black
10
67.4964
20
-168.032
11
67.7821
21
-168.032
0
LINE
8
Black
10
67.7821
20
-168.032
11
68.0679
21
-168.175
0
LINE
8
Black
10
68.0679
20
-168.175
11
68.2107
21
-168.318
0
LINE
8
Black
10
68.2107
20
-168.318
11
68.3536
21
-168.604
0
LINE
8
Black
10
68.3536
20
-168.604
11
68.4964
21
-169.175
0
LINE
8
Black
10
68.4964
20
-169.175
11
68.4964
21
-169.889
0
LINE
8
Black
10
68.4964
20
-169.889
11
68.3536
21
-170.461
0
LINE
8
Black
10
68.3536
20
-170.461
11
68.2107
21
-170.746
0
LINE
8
Black
10
68.2107
20
-170.746
11
68.0679
21
-170.889
0
LINE
8
Black
10
68.0679
20
-170.889
11
67.7821
21
-171.032
0
LINE
8
Black
10
67.7821
20
-171.032
11
67.4964
21
-171.032
0
LINE
8
Black
10
67.4964
20
-171.032
11
67.2107
21
-170.889
0
LINE
8
Black
10
67.2107
20
-170.889
11
67.0679
21
-170.746
0
LINE
8
Black
10
67.0679
20
-170.746
11
66.925
21
-170.461
0
LINE
8
Black
10
66.925
20
-170.461
11
66.7821
21
-169.889
0
LINE
8
Black
10
66.7821
20
-169.889
11
66.7821
21
-169.175
0
LINE
8
Black
10
66.7821
20
-169.175
11
66.925
21
-168.604
0
LINE
8
Black
10
66.925
20
-168.604
11
67.0679
21
-168.318
0
LINE
8
Black
10
67.0679
20
-168.318
11
67.2107
21
-168.175
0
LINE
8
Black
10
67.2107
20
-168.175
11
67.4964
21
-168.032
0
LINE
8
Black
10
70.3536
20
-168.032
11
70.6393
21
-168.032
0
LINE
8
Black
10
70.6393
20
-168.032
11
70.925
21
-168.175
0
LINE
8
Black
10
70.925
20
-168.175
11
71.0679
21
-168.318
0
LINE
8
Black
10
71.0679
20
-168.318
11
71.2107
21
-168.604
0
LINE
8
Black
10
71.2107
20
-168.604
11
71.3536
21
-169.175
0
LINE
8
Black
10
71.3536
20
-169.175
11
71.3536
21
-169.889
0
LINE
8
Black
10
71.3536
20
-169.889
11
71.2107
21
-170.461
0
LINE
8
Black
10
71.2107
20
-170.461
11
71.0679
21
-170.746
0
LINE
8
Black
10
71.0679
20
-170.746
11
70.925
21
-170.889
0
LINE
8
Black
10
70.925
20
-170.889
11
70.6393
21
-171.032
0
LINE
8
Black
10
70.6393
20
-171.032
11
70.3536
21
-171.032
0
LINE
8
Black
10
70.3536
20
-171.032
11
70.0679
21
-170.889
0
LINE
8
Black
10
70.0679
20
-170.889
11
69.925
21
-170.746
0
LINE
8
Black
10
69.925
20
-170.746
11
69.7821
21
-170.461
0
LINE
8
Black
10
69.7821
20
-170.461
11
69.6393
21
-169.889
0
LINE
8
Black
10
69.6393
20
-169.889
11
69.6393
21
-169.175
0
LINE
8
Black
10
69.6393
20
-169.175
11
69.7821
21
-168.604
0
LINE
8
Black
10
69.7821
20
-168.604
11
69.925
21
-168.318
0
LINE
8
Black
10
69.925
20
-168.318
11
70.0679
21
-168.175
0
LINE
8
Black
10
70.0679
20
-168.175
11
70.3536
21
-168.032
0
LINE
8
Black
10
72.6393
20
-171.032
11
72.6393
21
-169.032
0
LINE
8
Black
10
72.6393
20
-169.318
11
72.7821
21
-169.175
0
LINE
8
Black
10
72.7821
20
-169.175
11
73.0679
21
-169.032
0
LINE
8
Black
10
73.0679
20
-169.032
11
73.4964
21
-169.032
0
LINE
8
Black
10
73.4964
20
-169.032
11
73.7821
21
-169.175
0
LINE
8
Black
10
73.7821
20
-169.175
11
73.925
21
-169.461
0
LINE
8
Black
10
73.925
20
-169.461
11
73.925
21
-171.032
0
LINE
8
Black
10
73.925
20
-169.461
11
74.0679
21
-169.175
0
LINE
8
Black
10
74.0679
20
-169.175
11
74.3536
21
-169.032
0
LINE
8
Black
10
74.3536
20
-169.032
11
74.7821
21
-169.032
0
LINE
8
Black
10
74.7821
20
-169.032
11
75.0679
21
-169.175
0
LINE
8
Black
10
75.0679
20
-169.175
11
75.2107
21
-169.461
0
LINE
8
Black
10
75.2107
20
-169.461
11
75.2107
21
-171.032
0
LINE
8
Black
10
76.6393
20
-171.032
11
76.6393
21
-169.032
0
LINE
8
Black
10
76.6393
20
-169.318
11
76.7821
21
-169.175
0
LINE
8
Black
10
76.7821
20
-169.175
11
77.0679
21
-169.032
0
LINE
8
Black
10
77.0679
20
-169.032
11
77.4964
21
-169.032
0
LINE
8
Black
10
77.4964
20
-169.032
11
77.7821
21
-169.175
0
LINE
8
Black
10
77.7821
20
-169.175
11
77.925
21
-169.461
0
LINE
8
Black
10
77.925
20
-169.461
11
77.925
21
-171.032
0
LINE
8
Black
10
77.925
20
-169.461
11
78.0679
21
-169.175
0
LINE
8
Black
10
78.0679
20
-169.175
11
78.3536
21
-169.032
0
LINE
8
Black
10
78.3536
20
-169.032
11
78.7821
21
-169.032
0
LINE
8
Black
10
78.7821
20
-169.032
11
79.0679
21
-169.175
0
LINE
8
Black
10
79.0679
20
-169.175
11
79.2107
21
-169.461
0
LINE
8
Black
10
79.2107
20
-169.461
11
79.2107
21
-171.032
0
LINE
8
Black
10
85.0679
20
-167.889
11
82.4964
21
-171.746
0
LINE
8
Black
10
88.925
20
-168.032
11
89.2107
21
-168.032
0
LINE
8
Black
10
89.2107
20
-168.032
11
89.4964
21
-168.175
0
LINE
8
Black
10
89.4964
20
-168.175
11
89.6393
21
-168.318
0
LINE
8
Black
10
89.6393
20
-168.318
11
89.7821
21
-168.604
0
LINE
8
Black
10
89.7821
20
-168.604
11
89.925
21
-169.175
0
LINE
8
Black
10
89.925
20
-169.175
11
89.925
21
-169.889
0
LINE
8
Black
10
89.925
20
-169.889
11
89.7821
21
-170.461
0
LINE
8
Black
10
89.7821
20
-170.461
11
89.6393
21
-170.746
0
LINE
8
Black
10
89.6393
20
-170.746
11
89.4964
21
-170.889
0
LINE
8
Black
10
89.4964
20
-170.889
11
89.2107
21
-171.032
0
LINE
8
Black
10
89.2107
20
-171.032
11
88.925
21
-171.032
0
LINE
8
Black
10
88.925
20
-171.032
11
88.6393
21
-170.889
0
LINE
8
Black
10
88.6393
20
-170.889
11
88.4964
21
-170.746
0
LINE
8
Black
10
88.4964
20
-170.746
11
88.3536
21
-170.461
0
LINE
8
Black
10
88.3536
20
-170.461
11
88.2107
21
-169.889
0
LINE
8
Black
10
88.2107
20
-169.889
11
88.2107
21
-169.175
0
LINE
8
Black
10
88.2107
20
-169.175
11
88.3536
21
-168.604
0
LINE
8
Black
10
88.3536
20
-168.604
11
88.4964
21
-168.318
0
LINE
8
Black
10
88.4964
20
-168.318
11
88.6393
21
-168.175
0
LINE
8
Black
10
88.6393
20
-168.175
11
88.925
21
-168.032
0
LINE
8
Black
10
91.2107
20
-170.746
11
91.3536
21
-170.889
0
LINE
8
Black
10
91.3536
20
-170.889
11
91.2107
21
-171.032
0
LINE
8
Black
10
91.2107
20
-171.032
11
91.0679
21
-170.889
0
LINE
8
Black
10
91.0679
20
-170.889
11
91.2107
21
-170.746
0
LINE
8
Black
10
91.2107
20
-170.746
11
91.2107
21
-171.032
0
LINE
8
Black
10
94.2107
20
-171.032
11
92.4964
21
-171.032
0
LINE
8
Black
10
93.3536
20
-171.032
11
93.3536
21
-168.032
0
LINE
8
Black
10
93.3536
20
-168.032
11
93.0679
21
-168.461
0
LINE
8
Black
10
93.0679
20
-168.461
11
92.7821
21
-168.746
0
LINE
8
Black
10
92.7821
20
-168.746
11
92.4964
21
-168.889
0
LINE
8
Black
10
95.6393
20
-171.032
11
96.2107
21
-171.032
0
LINE
8
Black
10
96.2107
20
-171.032
11
96.4964
21
-170.889
0
LINE
8
Black
10
96.4964
20
-170.889
11
96.6393
21
-170.746
0
LINE
8
Black
10
96.6393
20
-170.746
11
96.925
21
-170.318
0
LINE
8
Black
10
96.925
20
-170.318
11
97.0679
21
-169.746
0
LINE
8
Black
10
97.0679
20
-169.746
11
97.0679
21
-168.604
0
LINE
8
Black
10
97.0679
20
-168.604
11
96.925
21
-168.318
0
LINE
8
Black
10
96.925
20
-168.318
11
96.7821
21
-168.175
0
LINE
8
Black
10
96.7821
20
-168.175
11
96.4964
21
-168.032
0
LINE
8
Black
10
96.4964
20
-168.032
11
95.925
21
-168.032
0
LINE
8
Black
10
95.925
20
-168.032
11
95.6393
21
-168.175
0
LINE
8
Black
10
95.6393
20
-168.175
11
95.4964
21
-168.318
0
LINE
8
Black
10
95.4964
20
-168.318
11
95.3536
21
-168.604
0
LINE
8
Black
10
95.3536
20
-168.604
11
95.3536
21
-169.318
0
LINE
8
Black
10
95.3536
20
-169.318
11
95.4964
21
-169.604
0
LINE
8
Black
10
95.4964
20
-169.604
11
95.6393
21
-169.746
0
LINE
8
Black
10
95.6393
20
-169.746
11
95.925
21
-169.889
0
LINE
8
Black
10
95.925
20
-169.889
11
96.4964
21
-169.889
0
LINE
8
Black
10
96.4964
20
-169.889
11
96.7821
21
-169.746
0
LINE
8
Black
10
96.7821
20
-169.746
11
96.925
21
-169.604
0
LINE
8
Black
10
96.925
20
-169.604
11
97.0679
21
-169.318
0
LINE
8
Black
10
98.0679
20
-168.032
11
100.068
21
-168.032
0
LINE
8
Black
10
100.068
20
-168.032
11
98.7821
21
-171.032
0
LINE
8
Black
10
101.068
20
-168.032
11
101.068
21
-168.604
0
LINE
8
Black
10
102.211
20
-168.032
11
102.211
21
-168.604
0
LINE
8
Black
10
106.639
20
-172.175
11
106.496
21
-172.032
0
LINE
8
Black
10
106.496
20
-172.032
11
106.211
21
-171.604
0
LINE
8
Black
10
106.211
20
-171.604
11
106.068
21
-171.318
0
LINE
8
Black
10
106.068
20
-171.318
11
105.925
21
-170.889
0
LINE
8
Black
10
105.925
20
-170.889
11
105.782
21
-170.175
0
LINE
8
Black
10
105.782
20
-170.175
11
105.782
21
-169.604
0
LINE
8
Black
10
105.782
20
-169.604
11
105.925
21
-168.889
0
LINE
8
Black
10
105.925
20
-168.889
11
106.068
21
-168.461
0
LINE
8
Black
10
106.068
20
-168.461
11
106.211
21
-168.175
0
LINE
8
Black
10
106.211
20
-168.175
11
106.496
21
-167.746
0
LINE
8
Black
10
106.496
20
-167.746
11
106.639
21
-167.604
0
LINE
8
Black
10
109.068
20
-168.032
11
108.496
21
-168.032
0
LINE
8
Black
10
108.496
20
-168.032
11
108.211
21
-168.175
0
LINE
8
Black
10
108.211
20
-168.175
11
108.068
21
-168.318
0
LINE
8
Black
10
108.068
20
-168.318
11
107.782
21
-168.746
0
LINE
8
Black
10
107.782
20
-168.746
11
107.639
21
-169.318
0
LINE
8
Black
10
107.639
20
-169.318
11
107.639
21
-170.461
0
LINE
8
Black
10
107.639
20
-170.461
11
107.782
21
-170.746
0
LINE
8
Black
10
107.782
20
-170.746
11
107.925
21
-170.889
0
LINE
8
Black
10
107.925
20
-170.889
11
108.211
21
-171.032
0
LINE
8
Black
10
108.211
20
-171.032
11
108.782
21
-171.032
0
LINE
8
Black
10
108.782
20
-171.032
11
109.068
21
-170.889
0
LINE
8
Black
10
109.068
20
-170.889
11
109.211
21
-170.746
0
LINE
8
Black
10
109.211
20
-170.746
11
109.354
21
-170.461
0
LINE
8
Black
10
109.354
20
-170.461
11
109.354
21
-169.746
0
LINE
8
Black
10
109.354
20
-169.746
11
109.211
21
-169.461
0
LINE
8
Black
10
109.211
20
-169.461
11
109.068
21
-169.318
0
LINE
8
Black
10
109.068
20
-169.318
11
108.782
21
-169.175
0
LINE
8
Black
10
108.782
20
-169.175
11
108.211
21
-169.175
0
LINE
8
Black
10
108.211
20
-169.175
11
107.925
21
-169.318
0
LINE
8
Black
10
107.925
20
-169.318
11
107.782
21
-169.461
0
LINE
8
Black
10
107.782
20
-169.461
11
107.639
21
-169.746
0
LINE
8
Black
10
112.925
20
-171.032
11
112.925
21
-168.032
0
LINE
8
Black
10
114.211
20
-171.032
11
114.211
21
-169.461
0
LINE
8
Black
10
114.211
20
-169.461
11
114.068
21
-169.175
0
LINE
8
Black
10
114.068
20
-169.175
11
113.782
21
-169.032
0
LINE
8
Black
10
113.782
20
-169.032
11
113.354
21
-169.032
0
LINE
8
Black
10
113.354
20
-169.032
11
113.068
21
-169.175
0
LINE
8
Black
10
113.068
20
-169.175
11
112.925
21
-169.318
0
LINE
8
Black
10
116.068
20
-171.032
11
115.782
21
-170.889
0
LINE
8
Black
10
115.782
20
-170.889
11
115.639
21
-170.746
0
LINE
8
Black
10
115.639
20
-170.746
11
115.496
21
-170.461
0
LINE
8
Black
10
115.496
20
-170.461
11
115.496
21
-169.604
0
LINE
8
Black
10
115.496
20
-169.604
11
115.639
21
-169.318
0
LINE
8
Black
10
115.639
20
-169.318
11
115.782
21
-169.175
0
LINE
8
Black
10
115.782
20
-169.175
11
116.068
21
-169.032
0
LINE
8
Black
10
116.068
20
-169.032
11
116.496
21
-169.032
0
LINE
8
Black
10
116.496
20
-169.032
11
116.782
21
-169.175
0
LINE
8
Black
10
116.782
20
-169.175
11
116.925
21
-169.318
0
LINE
8
Black
10
116.925
20
-169.318
11
117.068
21
-169.604
0
LINE
8
Black
10
117.068
20
-169.604
11
117.068
21
-170.461
0
LINE
8
Black
10
117.068
20
-170.461
11
116.925
21
-170.746
0
LINE
8
Black
10
116.925
20
-170.746
11
116.782
21
-170.889
0
LINE
8
Black
10
116.782
20
-170.889
11
116.496
21
-171.032
0
LINE
8
Black
10
116.496
20
-171.032
11
116.068
21
-171.032
0
LINE
8
Black
10
118.782
20
-171.032
11
118.496
21
-170.889
0
LINE
8
Black
10
118.496
20
-170.889
11
118.354
21
-170.604
0
LINE
8
Black
10
118.354
20
-170.604
11
118.354
21
-168.032
0
LINE
8
Black
10
121.068
20
-170.889
11
120.782
21
-171.032
0
LINE
8
Black
10
120.782
20
-171.032
11
120.211
21
-171.032
0
LINE
8
Black
10
120.211
20
-171.032
11
119.925
21
-170.889
0
LINE
8
Black
10
119.925
20
-170.889
11
119.782
21
-170.604
0
LINE
8
Black
10
119.782
20
-170.604
11
119.782
21
-169.461
0
LINE
8
Black
10
119.782
20
-169.461
11
119.925
21
-169.175
0
LINE
8
Black
10
119.925
20
-169.175
11
120.211
21
-169.032
0
LINE
8
Black
10
120.211
20
-169.032
11
120.782
21
-169.032
0
LINE
8
Black
10
120.782
20
-169.032
11
121.068
21
-169.175
0
LINE
8
Black
10
121.068
20
-169.175
11
121.211
21
-169.461
0
LINE
8
Black
10
121.211
20
-169.461
11
121.211
21
-169.746
0
LINE
8
Black
10
121.211
20
-169.746
11
119.782
21
-170.032
0
LINE
8
Black
10
122.354
20
-170.889
11
122.639
21
-171.032
0
LINE
8
Black
10
122.639
20
-171.032
11
123.211
21
-171.032
0
LINE
8
Black
10
123.211
20
-171.032
11
123.496
21
-170.889
0
LINE
8
Black
10
123.496
20
-170.889
11
123.639
21
-170.604
0
LINE
8
Black
10
123.639
20
-170.604
11
123.639
21
-170.461
0
LINE
8
Black
10
123.639
20
-170.461
11
123.496
21
-170.175
0
LINE
8
Black
10
123.496
20
-170.175
11
123.211
21
-170.032
0
LINE
8
Black
10
123.211
20
-170.032
11
122.782
21
-170.032
0
LINE
8
Black
10
122.782
20
-170.032
11
122.496
21
-169.889
0
LINE
8
Black
10
122.496
20
-169.889
11
122.354
21
-169.604
0
LINE
8
Black
10
122.354
20
-169.604
11
122.354
21
-169.461
0
LINE
8
Black
10
122.354
20
-169.461
11
122.496
21
-169.175
0
LINE
8
Black
10
122.496
20
-169.175
11
122.782
21
-169.032
0
LINE
8
Black
10
122.782
20
-169.032
11
123.211
21
-169.032
0
LINE
8
Black
10
123.211
20
-169.032
11
123.496
21
-169.175
0
LINE
8
Black
10
124.639
20
-172.175
11
124.782
21
-172.032
0
LINE
8
Black
10
124.782
20
-172.032
11
125.068
21
-171.604
0
LINE
8
Black
10
125.068
20
-171.604
11
125.211
21
-171.318
0
LINE
8
Black
10
125.211
20
-171.318
11
125.354
21
-170.889
0
LINE
8
Black
10
125.354
20
-170.889
11
125.496
21
-170.175
0
LINE
8
Black
10
125.496
20
-170.175
11
125.496
21
-169.604
0
LINE
8
Black
10
125.496
20
-169.604
11
125.354
21
-168.889
0
LINE
8
Black
10
125.354
20
-168.889
11
125.211
21
-168.461
0
LINE
8
Black
10
125.211
20
-168.461
11
125.068
21
-168.175
0
LINE
8
Black
10
125.068
20
-168.175
11
124.782
21
-167.746
0
LINE
8
Black
10
124.782
20
-167.746
11
124.639
21
-167.604
0
LINE
8
Black
10
130.068
20
-172.175
11
129.925
21
-172.032
0
LINE
8
Black
10
129.925
20
-172.032
11
129.639
21
-171.604
0
LINE
8
Black
10
129.639
20
-171.604
11
129.496
21
-171.318
0
LINE
8
Black
10
129.496
20
-171.318
11
129.354
21
-170.889
0
LINE
8
Black
10
129.354
20
-170.889
11
129.211
21
-170.175
0
LINE
8
Black
10
129.211
20
-170.175
11
129.211
21
-169.604
0
LINE
8
Black
10
129.211
20
-169.604
11
129.354
21
-168.889
0
LINE
8
Black
10
129.354
20
-168.889
11
129.496
21
-168.461
0
LINE
8
Black
10
129.496
20
-168.461
11
129.639
21
-168.175
0
LINE
8
Black
10
129.639
20
-168.175
11
129.925
21
-167.746
0
LINE
8
Black
10
129.925
20
-167.746
11
130.068
21
-167.604
0
LINE
8
Black
10
131.211
20
-169.032
11
131.211
21
-171.032
0
LINE
8
Black
10
131.211
20
-169.318
11
131.354
21
-169.175
0
LINE
8
Black
10
131.354
20
-169.175
11
131.639
21
-169.032
0
LINE
8
Black
10
131.639
20
-169.032
11
132.068
21
-169.032
0
LINE
8
Black
10
132.068
20
-169.032
11
132.354
21
-169.175
0
LINE
8
Black
10
132.354
20
-169.175
11
132.496
21
-169.461
0
LINE
8
Black
10
132.496
20
-169.461
11
132.496
21
-171.032
0
LINE
8
Black
10
134.354
20
-171.032
11
134.068
21
-170.889
0
LINE
8
Black
10
134.068
20
-170.889
11
133.925
21
-170.746
0
LINE
8
Black
10
133.925
20
-170.746
11
133.782
21
-170.461
0
LINE
8
Black
10
133.782
20
-170.461
11
133.782
21
-169.604
0
LINE
8
Black
10
133.782
20
-169.604
11
133.925
21
-169.318
0
LINE
8
Black
10
133.925
20
-169.318
11
134.068
21
-169.175
0
LINE
8
Black
10
134.068
20
-169.175
11
134.354
21
-169.032
0
LINE
8
Black
10
134.354
20
-169.032
11
134.782
21
-169.032
0
LINE
8
Black
10
134.782
20
-169.032
11
135.068
21
-169.175
0
LINE
8
Black
10
135.068
20
-169.175
11
135.211
21
-169.318
0
LINE
8
Black
10
135.211
20
-169.318
11
135.354
21
-169.604
0
LINE
8
Black
10
135.354
20
-169.604
11
135.354
21
-170.461
0
LINE
8
Black
10
135.354
20
-170.461
11
135.211
21
-170.746
0
LINE
8
Black
10
135.211
20
-170.746
11
135.068
21
-170.889
0
LINE
8
Black
10
135.068
20
-170.889
11
134.782
21
-171.032
0
LINE
8
Black
10
134.782
20
-171.032
11
134.354
21
-171.032
0
LINE
8
Black
10
136.211
20
-169.032
11
137.354
21
-169.032
0
LINE
8
Black
10
136.639
20
-168.032
11
136.639
21
-170.604
0
LINE
8
Black
10
136.639
20
-170.604
11
136.782
21
-170.889
0
LINE
8
Black
10
136.782
20
-170.889
11
137.068
21
-171.032
0
LINE
8
Black
10
137.068
20
-171.032
11
137.354
21
-171.032
0
LINE
8
Black
10
140.639
20
-169.032
11
140.639
21
-172.032
0
LINE
8
Black
10
140.639
20
-169.175
11
140.925
21
-169.032
0
LINE
8
Black
10
140.925
20
-169.032
11
141.496
21
-169.032
0
LINE
8
Black
10
141.496
20
-169.032
11
141.782
21
-169.175
0
LINE
8
Black
10
141.782
20
-169.175
11
141.925
21
-169.318
0
LINE
8
Black
10
141.925
20
-169.318
11
142.068
21
-169.604
0
LINE
8
Black
10
142.068
20
-169.604
11
142.068
21
-170.461
0
LINE
8
Black
10
142.068
20
-170.461
11
141.925
21
-170.746
0
LINE
8
Black
10
141.925
20
-170.746
11
141.782
21
-170.889
0
LINE
8
Black
10
141.782
20
-170.889
11
141.496
21
-171.032
0
LINE
8
Black
10
141.496
20
-171.032
11
140.925
21
-171.032
0
LINE
8
Black
10
140.925
20
-171.032
11
140.639
21
-170.889
0
LINE
8
Black
10
143.782
20
-171.032
11
143.496
21
-170.889
0
LINE
8
Black
10
143.496
20
-170.889
11
143.354
21
-170.604
0
LINE
8
Black
10
143.354
20
-170.604
11
143.354
21
-168.032
0
LINE
8
Black
10
146.211
20
-171.032
11
146.211
21
-169.461
0
LINE
8
Black
10
146.211
20
-169.461
11
146.068
21
-169.175
0
LINE
8
Black
10
146.068
20
-169.175
11
145.782
21
-169.032
0
LINE
8
Black
10
145.782
20
-169.032
11
145.211
21
-169.032
0
LINE
8
Black
10
145.211
20
-169.032
11
144.925
21
-169.175
0
LINE
8
Black
10
146.211
20
-170.889
11
145.925
21
-171.032
0
LINE
8
Black
10
145.925
20
-171.032
11
145.211
21
-171.032
0
LINE
8
Black
10
145.211
20
-171.032
11
144.925
21
-170.889
0
LINE
8
Black
10
144.925
20
-170.889
11
144.782
21
-170.604
0
LINE
8
Black
10
144.782
20
-170.604
11
144.782
21
-170.318
0
LINE
8
Black
10
144.782
20
-170.318
11
144.925
21
-170.032
0
LINE
8
Black
10
144.925
20
-170.032
11
145.211
21
-169.889
0
LINE
8
Black
10
145.211
20
-169.889
11
145.925
21
-169.889
0
LINE
8
Black
10
145.925
20
-169.889
11
146.211
21
-169.746
0
LINE
8
Black
10
147.211
20
-169.032
11
148.354
21
-169.032
0
LINE
8
Black
10
147.639
20
-168.032
11
147.639
21
-170.604
0
LINE
8
Black
10
147.639
20
-170.604
11
147.782
21
-170.889
0
LINE
8
Black
10
147.782
20
-170.889
11
148.068
21
-171.032
0
LINE
8
Black
10
148.068
20
-171.032
11
148.354
21
-171.032
0
LINE
8
Black
10
150.496
20
-170.889
11
150.211
21
-171.032
0
LINE
8
Black
10
150.211
20
-171.032
11
149.639
21
-171.032
0
LINE
8
Black
10
149.639
20
-171.032
11
149.354
21
-170.889
0
LINE
8
Black
10
149.354
20
-170.889
11
149.211
21
-170.604
0
LINE
8
Black
10
149.211
20
-170.604
11
149.211
21
-169.461
0
LINE
8
Black
10
149.211
20
-169.461
11
149.354
21
-169.175
0
LINE
8
Black
10
149.354
20
-169.175
11
149.639
21
-169.032
0
LINE
8
Black
10
149.639
20
-169.032
11
150.211
21
-169.032
0
LINE
8
Black
10
150.211
20
-169.032
11
150.496
21
-169.175
0
LINE
8
Black
10
150.496
20
-169.175
11
150.639
21
-169.461
0
LINE
8
Black
10
150.639
20
-169.461
11
150.639
21
-169.746
0
LINE
8
Black
10
150.639
20
-169.746
11
149.211
21
-170.032
0
LINE
8
Black
10
153.211
20
-171.032
11
153.211
21
-168.032
0
LINE
8
Black
10
153.211
20
-170.889
11
152.925
21
-171.032
0
LINE
8
Black
10
152.925
20
-171.032
11
152.354
21
-171.032
0
LINE
8
Black
10
152.354
20
-171.032
11
152.068
21
-170.889
0
LINE
8
Black
10
152.068
20
-170.889
11
151.925
21
-170.746
0
LINE
8
Black
10
151.925
20
-170.746
11
151.782
21
-170.461
0
LINE
8
Black
10
151.782
20
-170.461
11
151.782
21
-169.604
0
LINE
8
Black
10
151.782
20
-169.604
11
151.925
21
-169.318
0
LINE
8
Black
10
151.925
20
-169.318
11
152.068
21
-169.175
0
LINE
8
Black
10
152.068
20
-169.175
11
152.354
21
-169.032
0
LINE
8
Black
10
152.354
20
-169.032
11
152.925
21
-169.032
0
LINE
8
Black
10
152.925
20
-169.032
11
153.211
21
-169.175
0
LINE
8
Black
10
154.354
20
-172.175
11
154.496
21
-172.032
0
LINE
8
Black
10
154.496
20
-172.032
11
154.782
21
-171.604
0
LINE
8
Black
10
154.782
20
-171.604
11
154.925
21
-171.318
0
LINE
8
Black
10
154.925
20
-171.318
11
155.068
21
-170.889
0
LINE
8
Black
10
155.068
20
-170.889
11
155.211
21
-170.175
0
LINE
8
Black
10
155.211
20
-170.175
11
155.211
21
-169.604
0
LINE
8
Black
10
155.211
20
-169.604
11
155.068
21
-168.889
0
LINE
8
Black
10
155.068
20
-168.889
11
154.925
21
-168.461
0
LINE
8
Black
10
154.925
20
-168.461
11
154.782
21
-168.175
0
LINE
8
Black
10
154.782
20
-168.175
11
154.496
21
-167.746
0
LINE
8
Black
10
154.496
20
-167.746
11
154.354
21
-167.604
  0
ENDSEC
  0
EOF
