G04 #@! TF.FileFunction,Copper,L1,Top,Signal*
%FSLAX46Y46*%
G04 Gerber Fmt 4.6, Leading zero omitted, Abs format (unit mm)*
G04 Created by KiCad (PCBNEW 4.0.7) date 04/16/18 09:07:38*
%MOMM*%
%LPD*%
G01*
G04 APERTURE LIST*
%ADD10C,0.100000*%
%ADD11R,11.000000X46.000000*%
%ADD12R,2.500000X4.000000*%
%ADD13R,1.500000X2.700000*%
%ADD14R,1.700000X1.300000*%
%ADD15R,10.100000X1.400000*%
%ADD16R,8.700000X2.900000*%
%ADD17R,9.700000X3.700000*%
%ADD18R,0.800000X2.800000*%
%ADD19C,1.000000*%
%ADD20R,8.000000X0.800000*%
%ADD21R,1.700000X0.900000*%
%ADD22R,0.900000X1.700000*%
%ADD23R,1.000000X1.600000*%
%ADD24R,3.000000X1.500000*%
%ADD25R,11.000000X98.000000*%
%ADD26C,0.300000*%
%ADD27C,0.800000*%
%ADD28C,0.256000*%
G04 APERTURE END LIST*
D10*
D11*
X29000000Y-24000000D03*
D12*
X29000000Y-84500000D03*
X29000000Y-76500000D03*
X40000000Y-84500000D03*
X40000000Y-76500000D03*
X18000000Y-97500000D03*
X18000000Y-89500000D03*
X18000000Y-84500000D03*
X18000000Y-76500000D03*
X18000000Y-71500000D03*
X18000000Y-63500000D03*
X18000000Y-58500000D03*
X18000000Y-50500000D03*
X29000000Y-97500000D03*
X29000000Y-89500000D03*
X29000000Y-71500000D03*
X29000000Y-63500000D03*
X29000000Y-58500000D03*
X29000000Y-50500000D03*
X40000000Y-97500000D03*
X40000000Y-89500000D03*
X40000000Y-71500000D03*
X40000000Y-63500000D03*
X40000000Y-58500000D03*
X40000000Y-50500000D03*
D13*
X19900000Y-43500000D03*
X15100000Y-43500000D03*
X19900000Y-19500000D03*
X15100000Y-19500000D03*
D14*
X22000000Y-43750000D03*
X22000000Y-40250000D03*
X22000000Y-19750000D03*
X22000000Y-16250000D03*
D13*
X42900000Y-43500000D03*
X38100000Y-43500000D03*
X42900000Y-19500000D03*
X38100000Y-19500000D03*
D14*
X45000000Y-43750000D03*
X45000000Y-40250000D03*
X45000000Y-19750000D03*
X45000000Y-16250000D03*
D15*
X17500000Y-26050000D03*
D16*
X17500000Y-28200000D03*
D17*
X17500000Y-31500000D03*
D18*
X16900000Y-37250000D03*
X18100000Y-37250000D03*
X19300000Y-37250000D03*
X20500000Y-37250000D03*
X21700000Y-37250000D03*
X15700000Y-37250000D03*
X14500000Y-37250000D03*
X13300000Y-37250000D03*
D19*
X13300000Y-32080000D03*
X14500000Y-32080000D03*
X15700000Y-32080000D03*
X16900000Y-32080000D03*
X18100000Y-32080000D03*
X19300000Y-32080000D03*
X20500000Y-32080000D03*
X21700000Y-32080000D03*
X21700000Y-30880000D03*
X20500000Y-30880000D03*
X18100000Y-30880000D03*
X19300000Y-30880000D03*
X16900000Y-30880000D03*
X15700000Y-30880000D03*
X14500000Y-30880000D03*
X13300000Y-30880000D03*
X14500000Y-29680000D03*
X15700000Y-29680000D03*
X16900000Y-29680000D03*
X18100000Y-29680000D03*
X19300000Y-29680000D03*
X20500000Y-29680000D03*
X20500000Y-28480000D03*
X18100000Y-28480000D03*
X19300000Y-28480000D03*
X16900000Y-28480000D03*
X15700000Y-28480000D03*
X14500000Y-28480000D03*
X14500000Y-27280000D03*
X15700000Y-27280000D03*
X16900000Y-27280000D03*
X18100000Y-27280000D03*
X19300000Y-27280000D03*
X20500000Y-27280000D03*
X13300000Y-25980000D03*
X14500000Y-25980000D03*
X15700000Y-25980000D03*
X16900000Y-25980000D03*
X18100000Y-25980000D03*
X19300000Y-25980000D03*
X20500000Y-25980000D03*
X21700000Y-25980000D03*
D20*
X18100000Y-36250000D03*
D15*
X17500000Y-2050000D03*
D16*
X17500000Y-4200000D03*
D17*
X17500000Y-7500000D03*
D18*
X16900000Y-13250000D03*
X18100000Y-13250000D03*
X19300000Y-13250000D03*
X20500000Y-13250000D03*
X21700000Y-13250000D03*
X15700000Y-13250000D03*
X14500000Y-13250000D03*
X13300000Y-13250000D03*
D19*
X13300000Y-8080000D03*
X14500000Y-8080000D03*
X15700000Y-8080000D03*
X16900000Y-8080000D03*
X18100000Y-8080000D03*
X19300000Y-8080000D03*
X20500000Y-8080000D03*
X21700000Y-8080000D03*
X21700000Y-6880000D03*
X20500000Y-6880000D03*
X18100000Y-6880000D03*
X19300000Y-6880000D03*
X16900000Y-6880000D03*
X15700000Y-6880000D03*
X14500000Y-6880000D03*
X13300000Y-6880000D03*
X14500000Y-5680000D03*
X15700000Y-5680000D03*
X16900000Y-5680000D03*
X18100000Y-5680000D03*
X19300000Y-5680000D03*
X20500000Y-5680000D03*
X20500000Y-4480000D03*
X18100000Y-4480000D03*
X19300000Y-4480000D03*
X16900000Y-4480000D03*
X15700000Y-4480000D03*
X14500000Y-4480000D03*
X14500000Y-3280000D03*
X15700000Y-3280000D03*
X16900000Y-3280000D03*
X18100000Y-3280000D03*
X19300000Y-3280000D03*
X20500000Y-3280000D03*
X13300000Y-1980000D03*
X14500000Y-1980000D03*
X15700000Y-1980000D03*
X16900000Y-1980000D03*
X18100000Y-1980000D03*
X19300000Y-1980000D03*
X20500000Y-1980000D03*
X21700000Y-1980000D03*
D20*
X18100000Y-12250000D03*
D15*
X40500000Y-26050000D03*
D16*
X40500000Y-28200000D03*
D17*
X40500000Y-31500000D03*
D18*
X39900000Y-37250000D03*
X41100000Y-37250000D03*
X42300000Y-37250000D03*
X43500000Y-37250000D03*
X44700000Y-37250000D03*
X38700000Y-37250000D03*
X37500000Y-37250000D03*
X36300000Y-37250000D03*
D19*
X36300000Y-32080000D03*
X37500000Y-32080000D03*
X38700000Y-32080000D03*
X39900000Y-32080000D03*
X41100000Y-32080000D03*
X42300000Y-32080000D03*
X43500000Y-32080000D03*
X44700000Y-32080000D03*
X44700000Y-30880000D03*
X43500000Y-30880000D03*
X41100000Y-30880000D03*
X42300000Y-30880000D03*
X39900000Y-30880000D03*
X38700000Y-30880000D03*
X37500000Y-30880000D03*
X36300000Y-30880000D03*
X37500000Y-29680000D03*
X38700000Y-29680000D03*
X39900000Y-29680000D03*
X41100000Y-29680000D03*
X42300000Y-29680000D03*
X43500000Y-29680000D03*
X43500000Y-28480000D03*
X41100000Y-28480000D03*
X42300000Y-28480000D03*
X39900000Y-28480000D03*
X38700000Y-28480000D03*
X37500000Y-28480000D03*
X37500000Y-27280000D03*
X38700000Y-27280000D03*
X39900000Y-27280000D03*
X41100000Y-27280000D03*
X42300000Y-27280000D03*
X43500000Y-27280000D03*
X36300000Y-25980000D03*
X37500000Y-25980000D03*
X38700000Y-25980000D03*
X39900000Y-25980000D03*
X41100000Y-25980000D03*
X42300000Y-25980000D03*
X43500000Y-25980000D03*
X44700000Y-25980000D03*
D20*
X41100000Y-36250000D03*
D15*
X40500000Y-2050000D03*
D16*
X40500000Y-4200000D03*
D17*
X40500000Y-7500000D03*
D18*
X39900000Y-13250000D03*
X41100000Y-13250000D03*
X42300000Y-13250000D03*
X43500000Y-13250000D03*
X44700000Y-13250000D03*
X38700000Y-13250000D03*
X37500000Y-13250000D03*
X36300000Y-13250000D03*
D19*
X36300000Y-8080000D03*
X37500000Y-8080000D03*
X38700000Y-8080000D03*
X39900000Y-8080000D03*
X41100000Y-8080000D03*
X42300000Y-8080000D03*
X43500000Y-8080000D03*
X44700000Y-8080000D03*
X44700000Y-6880000D03*
X43500000Y-6880000D03*
X41100000Y-6880000D03*
X42300000Y-6880000D03*
X39900000Y-6880000D03*
X38700000Y-6880000D03*
X37500000Y-6880000D03*
X36300000Y-6880000D03*
X37500000Y-5680000D03*
X38700000Y-5680000D03*
X39900000Y-5680000D03*
X41100000Y-5680000D03*
X42300000Y-5680000D03*
X43500000Y-5680000D03*
X43500000Y-4480000D03*
X41100000Y-4480000D03*
X42300000Y-4480000D03*
X39900000Y-4480000D03*
X38700000Y-4480000D03*
X37500000Y-4480000D03*
X37500000Y-3280000D03*
X38700000Y-3280000D03*
X39900000Y-3280000D03*
X41100000Y-3280000D03*
X42300000Y-3280000D03*
X43500000Y-3280000D03*
X36300000Y-1980000D03*
X37500000Y-1980000D03*
X38700000Y-1980000D03*
X39900000Y-1980000D03*
X41100000Y-1980000D03*
X42300000Y-1980000D03*
X43500000Y-1980000D03*
X44700000Y-1980000D03*
D20*
X41100000Y-12250000D03*
D21*
X13000000Y-40050000D03*
X13000000Y-42950000D03*
X13000000Y-16050000D03*
X13000000Y-18950000D03*
D22*
X18950000Y-40500000D03*
X16050000Y-40500000D03*
X18950000Y-16500000D03*
X16050000Y-16500000D03*
D21*
X36000000Y-40050000D03*
X36000000Y-42950000D03*
X36000000Y-16050000D03*
X36000000Y-18950000D03*
D22*
X41950000Y-40500000D03*
X39050000Y-40500000D03*
X41950000Y-16500000D03*
X39050000Y-16500000D03*
D23*
X22000000Y-87000000D03*
X25000000Y-87000000D03*
X33000000Y-87000000D03*
X36000000Y-87000000D03*
X22000000Y-74000000D03*
X25000000Y-74000000D03*
X33000000Y-74000000D03*
X36000000Y-74000000D03*
X22000000Y-61000000D03*
X25000000Y-61000000D03*
X33000000Y-61000000D03*
X36000000Y-61000000D03*
D24*
X37000000Y-22500000D03*
X37000000Y-46500000D03*
X44000000Y-22500000D03*
X21000000Y-22500000D03*
X14000000Y-46500000D03*
X14000000Y-22500000D03*
D25*
X52000000Y-50000000D03*
X6000000Y-50000000D03*
D26*
X22000000Y-61000000D02*
X22000000Y-59000000D01*
X33000000Y-61000000D02*
X33000000Y-59000000D01*
X33000000Y-74000000D02*
X33000000Y-72000000D01*
X22000000Y-74000000D02*
X22000000Y-72000000D01*
X22000000Y-87000000D02*
X22000000Y-85000000D01*
X33000000Y-87000000D02*
X33000000Y-85000000D01*
X25000000Y-61000000D02*
X25000000Y-63000000D01*
X36000000Y-61000000D02*
X36000000Y-63000000D01*
X36000000Y-74000000D02*
X36000000Y-76000000D01*
X25000000Y-74000000D02*
X25000000Y-76000000D01*
X36000000Y-87000000D02*
X36000000Y-89000000D01*
X25000000Y-87000000D02*
X25000000Y-89000000D01*
D27*
X45000000Y-40250000D02*
X45000000Y-39000000D01*
X45000000Y-39000000D02*
X44700000Y-38700000D01*
X41950000Y-40500000D02*
X41950000Y-38700000D01*
X41950000Y-38700000D02*
X42000000Y-38700000D01*
X45000000Y-16250000D02*
X45000000Y-15000000D01*
X45000000Y-15000000D02*
X44700000Y-14700000D01*
X41950000Y-16500000D02*
X41950000Y-14700000D01*
X42000000Y-14900000D02*
X42000000Y-14700000D01*
X42000000Y-14750000D02*
X42000000Y-14900000D01*
X41950000Y-14700000D02*
X42000000Y-14750000D01*
X37500000Y-37250000D02*
X37500000Y-38700000D01*
X44700000Y-38700000D02*
X44700000Y-37250000D01*
X37500000Y-38700000D02*
X42000000Y-38700000D01*
X42000000Y-38700000D02*
X44700000Y-38700000D01*
X44700000Y-13250000D02*
X44700000Y-14700000D01*
X37500000Y-14700000D02*
X37500000Y-13250000D01*
X44700000Y-14700000D02*
X42000000Y-14700000D01*
X42000000Y-14700000D02*
X37500000Y-14700000D01*
X44750000Y-16500000D02*
X45000000Y-16250000D01*
X22000000Y-43750000D02*
X20150000Y-43750000D01*
X20150000Y-43750000D02*
X19900000Y-43500000D01*
X13300000Y-37250000D02*
X13300000Y-39750000D01*
X13300000Y-39750000D02*
X13000000Y-40050000D01*
X14250000Y-40500000D02*
X14750000Y-41000000D01*
X15100000Y-43500000D02*
X15100000Y-41450000D01*
X15100000Y-41450000D02*
X16050000Y-40500000D01*
X16050000Y-40500000D02*
X14250000Y-40500000D01*
X14250000Y-40500000D02*
X13450000Y-40500000D01*
X13450000Y-40500000D02*
X13000000Y-40050000D01*
X15100000Y-43500000D02*
X15100000Y-42150000D01*
X15100000Y-42150000D02*
X13000000Y-40050000D01*
X22000000Y-19750000D02*
X20150000Y-19750000D01*
X20150000Y-19750000D02*
X19900000Y-19500000D01*
X13300000Y-13250000D02*
X13300000Y-15750000D01*
X13300000Y-15750000D02*
X13000000Y-16050000D01*
X14000000Y-16500000D02*
X14250000Y-16500000D01*
X14250000Y-16500000D02*
X14750000Y-17000000D01*
X15100000Y-19500000D02*
X15100000Y-17450000D01*
X15100000Y-17450000D02*
X16050000Y-16500000D01*
X16050000Y-16500000D02*
X14000000Y-16500000D01*
X14000000Y-16500000D02*
X13450000Y-16500000D01*
X13450000Y-16500000D02*
X13000000Y-16050000D01*
X15100000Y-19500000D02*
X15100000Y-18150000D01*
X15100000Y-18150000D02*
X13000000Y-16050000D01*
X18950000Y-40500000D02*
X18950000Y-38700000D01*
X18950000Y-38700000D02*
X19000000Y-38700000D01*
X22000000Y-40250000D02*
X22000000Y-39000000D01*
X22000000Y-39000000D02*
X21700000Y-38700000D01*
X22000000Y-16250000D02*
X22000000Y-15000000D01*
X22000000Y-15000000D02*
X21700000Y-14700000D01*
X18950000Y-16500000D02*
X18950000Y-14700000D01*
X19000000Y-14900000D02*
X19000000Y-14700000D01*
X19000000Y-14750000D02*
X19000000Y-14900000D01*
X18950000Y-14700000D02*
X19000000Y-14750000D01*
X14500000Y-13250000D02*
X14500000Y-14700000D01*
X21700000Y-14700000D02*
X21700000Y-13250000D01*
X14500000Y-14700000D02*
X19000000Y-14700000D01*
X19000000Y-14700000D02*
X21700000Y-14700000D01*
X14500000Y-37250000D02*
X14500000Y-38700000D01*
X21700000Y-38700000D02*
X21700000Y-37250000D01*
X14500000Y-38700000D02*
X19000000Y-38700000D01*
X19000000Y-38700000D02*
X21700000Y-38700000D01*
X45000000Y-43750000D02*
X43150000Y-43750000D01*
X43150000Y-43750000D02*
X42900000Y-43500000D01*
X36300000Y-37250000D02*
X36300000Y-39750000D01*
X36300000Y-39750000D02*
X36000000Y-40050000D01*
X37250000Y-40500000D02*
X37750000Y-41000000D01*
X38100000Y-43500000D02*
X38100000Y-41450000D01*
X38100000Y-41450000D02*
X39050000Y-40500000D01*
X39050000Y-40500000D02*
X37250000Y-40500000D01*
X37250000Y-40500000D02*
X36450000Y-40500000D01*
X36450000Y-40500000D02*
X36000000Y-40050000D01*
X38100000Y-43500000D02*
X38100000Y-42150000D01*
X38100000Y-42150000D02*
X36000000Y-40050000D01*
X45000000Y-19750000D02*
X43150000Y-19750000D01*
X43150000Y-19750000D02*
X42900000Y-19500000D01*
X36300000Y-13250000D02*
X36300000Y-15750000D01*
X36300000Y-15750000D02*
X36000000Y-16050000D01*
X37000000Y-16500000D02*
X37250000Y-16500000D01*
X37250000Y-16500000D02*
X37750000Y-17000000D01*
X38100000Y-19500000D02*
X38100000Y-17450000D01*
X38100000Y-17450000D02*
X39050000Y-16500000D01*
X39050000Y-16500000D02*
X37000000Y-16500000D01*
X37000000Y-16500000D02*
X36450000Y-16500000D01*
X36450000Y-16500000D02*
X36000000Y-16050000D01*
X38100000Y-19500000D02*
X38100000Y-18150000D01*
X38100000Y-18150000D02*
X36000000Y-16050000D01*
X14000000Y-46500000D02*
X13500000Y-46500000D01*
X13500000Y-46500000D02*
X13000000Y-46000000D01*
X13000000Y-46000000D02*
X13000000Y-42950000D01*
X14000000Y-22500000D02*
X13500000Y-22500000D01*
X13500000Y-22500000D02*
X13000000Y-22000000D01*
X13000000Y-22000000D02*
X13000000Y-18950000D01*
X37000000Y-46500000D02*
X36500000Y-46500000D01*
X36500000Y-46500000D02*
X36000000Y-46000000D01*
X36000000Y-46000000D02*
X36000000Y-42950000D01*
X37000000Y-22500000D02*
X36500000Y-22500000D01*
X36500000Y-22500000D02*
X36000000Y-22000000D01*
X36000000Y-22000000D02*
X36000000Y-18950000D01*
D28*
G36*
X14372000Y-2472000D02*
X12450000Y-2472000D01*
X12400201Y-2482085D01*
X12358249Y-2510749D01*
X12330754Y-2553477D01*
X12322000Y-2600000D01*
X12322000Y-5650000D01*
X12332085Y-5699799D01*
X12360749Y-5741751D01*
X12403477Y-5769246D01*
X12450000Y-5778000D01*
X14372000Y-5778000D01*
X14372000Y-9222000D01*
X11000000Y-9222000D01*
X10950201Y-9232085D01*
X10908249Y-9260749D01*
X10880754Y-9303477D01*
X10872000Y-9350000D01*
X10872000Y-25350000D01*
X10882085Y-25399799D01*
X10910749Y-25441751D01*
X10953477Y-25469246D01*
X11000000Y-25478000D01*
X14372000Y-25478000D01*
X14372000Y-26472000D01*
X12450000Y-26472000D01*
X12400201Y-26482085D01*
X12358249Y-26510749D01*
X12330754Y-26553477D01*
X12322000Y-26600000D01*
X12322000Y-29650000D01*
X12332085Y-29699799D01*
X12360749Y-29741751D01*
X12403477Y-29769246D01*
X12450000Y-29778000D01*
X14372000Y-29778000D01*
X14372000Y-33222000D01*
X11000000Y-33222000D01*
X10950201Y-33232085D01*
X10908249Y-33260749D01*
X10880754Y-33303477D01*
X10872000Y-33350000D01*
X10872000Y-55000000D01*
X10882085Y-55049799D01*
X10910749Y-55091751D01*
X10953477Y-55119246D01*
X11000000Y-55128000D01*
X42872000Y-55128000D01*
X42872000Y-60372000D01*
X42128000Y-60372000D01*
X42128000Y-60000000D01*
X42119246Y-59953477D01*
X42091751Y-59910749D01*
X42049799Y-59882085D01*
X42000000Y-59872000D01*
X41000000Y-59872000D01*
X40953477Y-59880754D01*
X40910749Y-59908249D01*
X40882085Y-59950201D01*
X40872000Y-60000000D01*
X40872000Y-60372000D01*
X39128000Y-60372000D01*
X39128000Y-60000000D01*
X39119246Y-59953477D01*
X39091751Y-59910749D01*
X39049799Y-59882085D01*
X39000000Y-59872000D01*
X38000000Y-59872000D01*
X37953477Y-59880754D01*
X37910749Y-59908249D01*
X37882085Y-59950201D01*
X37872000Y-60000000D01*
X37872000Y-60372000D01*
X36936385Y-60372000D01*
X36936385Y-60200000D01*
X36906541Y-60041393D01*
X36812804Y-59895721D01*
X36669778Y-59797996D01*
X36500000Y-59763615D01*
X35500000Y-59763615D01*
X35341393Y-59793459D01*
X35195721Y-59887196D01*
X35097996Y-60030222D01*
X35063615Y-60200000D01*
X35063615Y-60372000D01*
X31128000Y-60372000D01*
X31128000Y-60000000D01*
X31119246Y-59953477D01*
X31091751Y-59910749D01*
X31049799Y-59882085D01*
X31000000Y-59872000D01*
X30000000Y-59872000D01*
X29953477Y-59880754D01*
X29910749Y-59908249D01*
X29882085Y-59950201D01*
X29872000Y-60000000D01*
X29872000Y-60372000D01*
X28128000Y-60372000D01*
X28128000Y-60000000D01*
X28119246Y-59953477D01*
X28091751Y-59910749D01*
X28049799Y-59882085D01*
X28000000Y-59872000D01*
X27000000Y-59872000D01*
X26953477Y-59880754D01*
X26910749Y-59908249D01*
X26882085Y-59950201D01*
X26872000Y-60000000D01*
X26872000Y-60372000D01*
X25936385Y-60372000D01*
X25936385Y-60200000D01*
X25906541Y-60041393D01*
X25812804Y-59895721D01*
X25669778Y-59797996D01*
X25500000Y-59763615D01*
X24500000Y-59763615D01*
X24341393Y-59793459D01*
X24195721Y-59887196D01*
X24097996Y-60030222D01*
X24063615Y-60200000D01*
X24063615Y-60372000D01*
X20128000Y-60372000D01*
X20128000Y-60000000D01*
X20119246Y-59953477D01*
X20091751Y-59910749D01*
X20049799Y-59882085D01*
X20000000Y-59872000D01*
X19000000Y-59872000D01*
X18953477Y-59880754D01*
X18910749Y-59908249D01*
X18882085Y-59950201D01*
X18872000Y-60000000D01*
X18872000Y-60372000D01*
X17128000Y-60372000D01*
X17128000Y-60000000D01*
X17119246Y-59953477D01*
X17091751Y-59910749D01*
X17049799Y-59882085D01*
X17000000Y-59872000D01*
X16000000Y-59872000D01*
X15953477Y-59880754D01*
X15910749Y-59908249D01*
X15882085Y-59950201D01*
X15872000Y-60000000D01*
X15872000Y-60372000D01*
X11000000Y-60372000D01*
X10950201Y-60382085D01*
X10908249Y-60410749D01*
X10880754Y-60453477D01*
X10872000Y-60500000D01*
X10872000Y-68000000D01*
X10882085Y-68049799D01*
X10910749Y-68091751D01*
X10953477Y-68119246D01*
X11000000Y-68128000D01*
X42872000Y-68128000D01*
X42872000Y-73372000D01*
X42128000Y-73372000D01*
X42128000Y-73000000D01*
X42119246Y-72953477D01*
X42091751Y-72910749D01*
X42049799Y-72882085D01*
X42000000Y-72872000D01*
X41000000Y-72872000D01*
X40953477Y-72880754D01*
X40910749Y-72908249D01*
X40882085Y-72950201D01*
X40872000Y-73000000D01*
X40872000Y-73372000D01*
X39128000Y-73372000D01*
X39128000Y-73000000D01*
X39119246Y-72953477D01*
X39091751Y-72910749D01*
X39049799Y-72882085D01*
X39000000Y-72872000D01*
X38000000Y-72872000D01*
X37953477Y-72880754D01*
X37910749Y-72908249D01*
X37882085Y-72950201D01*
X37872000Y-73000000D01*
X37872000Y-73372000D01*
X36936385Y-73372000D01*
X36936385Y-73200000D01*
X36906541Y-73041393D01*
X36812804Y-72895721D01*
X36669778Y-72797996D01*
X36500000Y-72763615D01*
X35500000Y-72763615D01*
X35341393Y-72793459D01*
X35195721Y-72887196D01*
X35097996Y-73030222D01*
X35063615Y-73200000D01*
X35063615Y-73372000D01*
X31128000Y-73372000D01*
X31128000Y-73000000D01*
X31119246Y-72953477D01*
X31091751Y-72910749D01*
X31049799Y-72882085D01*
X31000000Y-72872000D01*
X30000000Y-72872000D01*
X29953477Y-72880754D01*
X29910749Y-72908249D01*
X29882085Y-72950201D01*
X29872000Y-73000000D01*
X29872000Y-73372000D01*
X28128000Y-73372000D01*
X28128000Y-73000000D01*
X28119246Y-72953477D01*
X28091751Y-72910749D01*
X28049799Y-72882085D01*
X28000000Y-72872000D01*
X27000000Y-72872000D01*
X26953477Y-72880754D01*
X26910749Y-72908249D01*
X26882085Y-72950201D01*
X26872000Y-73000000D01*
X26872000Y-73372000D01*
X25936385Y-73372000D01*
X25936385Y-73200000D01*
X25906541Y-73041393D01*
X25812804Y-72895721D01*
X25669778Y-72797996D01*
X25500000Y-72763615D01*
X24500000Y-72763615D01*
X24341393Y-72793459D01*
X24195721Y-72887196D01*
X24097996Y-73030222D01*
X24063615Y-73200000D01*
X24063615Y-73372000D01*
X20128000Y-73372000D01*
X20128000Y-73000000D01*
X20119246Y-72953477D01*
X20091751Y-72910749D01*
X20049799Y-72882085D01*
X20000000Y-72872000D01*
X19000000Y-72872000D01*
X18953477Y-72880754D01*
X18910749Y-72908249D01*
X18882085Y-72950201D01*
X18872000Y-73000000D01*
X18872000Y-73372000D01*
X17128000Y-73372000D01*
X17128000Y-73000000D01*
X17119246Y-72953477D01*
X17091751Y-72910749D01*
X17049799Y-72882085D01*
X17000000Y-72872000D01*
X16000000Y-72872000D01*
X15953477Y-72880754D01*
X15910749Y-72908249D01*
X15882085Y-72950201D01*
X15872000Y-73000000D01*
X15872000Y-73372000D01*
X11000000Y-73372000D01*
X10950201Y-73382085D01*
X10908249Y-73410749D01*
X10880754Y-73453477D01*
X10872000Y-73500000D01*
X10872000Y-81000000D01*
X10882085Y-81049799D01*
X10910749Y-81091751D01*
X10953477Y-81119246D01*
X11000000Y-81128000D01*
X42872000Y-81128000D01*
X42872000Y-86372000D01*
X42128000Y-86372000D01*
X42128000Y-86000000D01*
X42119246Y-85953477D01*
X42091751Y-85910749D01*
X42049799Y-85882085D01*
X42000000Y-85872000D01*
X41000000Y-85872000D01*
X40953477Y-85880754D01*
X40910749Y-85908249D01*
X40882085Y-85950201D01*
X40872000Y-86000000D01*
X40872000Y-86372000D01*
X39128000Y-86372000D01*
X39128000Y-86000000D01*
X39119246Y-85953477D01*
X39091751Y-85910749D01*
X39049799Y-85882085D01*
X39000000Y-85872000D01*
X38000000Y-85872000D01*
X37953477Y-85880754D01*
X37910749Y-85908249D01*
X37882085Y-85950201D01*
X37872000Y-86000000D01*
X37872000Y-86372000D01*
X36936385Y-86372000D01*
X36936385Y-86200000D01*
X36906541Y-86041393D01*
X36812804Y-85895721D01*
X36669778Y-85797996D01*
X36500000Y-85763615D01*
X35500000Y-85763615D01*
X35341393Y-85793459D01*
X35195721Y-85887196D01*
X35097996Y-86030222D01*
X35063615Y-86200000D01*
X35063615Y-86372000D01*
X31128000Y-86372000D01*
X31128000Y-86000000D01*
X31119246Y-85953477D01*
X31091751Y-85910749D01*
X31049799Y-85882085D01*
X31000000Y-85872000D01*
X30000000Y-85872000D01*
X29953477Y-85880754D01*
X29910749Y-85908249D01*
X29882085Y-85950201D01*
X29872000Y-86000000D01*
X29872000Y-86372000D01*
X28128000Y-86372000D01*
X28128000Y-86000000D01*
X28119246Y-85953477D01*
X28091751Y-85910749D01*
X28049799Y-85882085D01*
X28000000Y-85872000D01*
X27000000Y-85872000D01*
X26953477Y-85880754D01*
X26910749Y-85908249D01*
X26882085Y-85950201D01*
X26872000Y-86000000D01*
X26872000Y-86372000D01*
X25936385Y-86372000D01*
X25936385Y-86200000D01*
X25906541Y-86041393D01*
X25812804Y-85895721D01*
X25669778Y-85797996D01*
X25500000Y-85763615D01*
X24500000Y-85763615D01*
X24341393Y-85793459D01*
X24195721Y-85887196D01*
X24097996Y-86030222D01*
X24063615Y-86200000D01*
X24063615Y-86372000D01*
X20128000Y-86372000D01*
X20128000Y-86000000D01*
X20119246Y-85953477D01*
X20091751Y-85910749D01*
X20049799Y-85882085D01*
X20000000Y-85872000D01*
X19000000Y-85872000D01*
X18953477Y-85880754D01*
X18910749Y-85908249D01*
X18882085Y-85950201D01*
X18872000Y-86000000D01*
X18872000Y-86372000D01*
X17128000Y-86372000D01*
X17128000Y-86000000D01*
X17119246Y-85953477D01*
X17091751Y-85910749D01*
X17049799Y-85882085D01*
X17000000Y-85872000D01*
X16000000Y-85872000D01*
X15953477Y-85880754D01*
X15910749Y-85908249D01*
X15882085Y-85950201D01*
X15872000Y-86000000D01*
X15872000Y-86372000D01*
X11000000Y-86372000D01*
X10950201Y-86382085D01*
X10908249Y-86410749D01*
X10880754Y-86453477D01*
X10872000Y-86500000D01*
X10872000Y-94000000D01*
X10882085Y-94049799D01*
X10910749Y-94091751D01*
X10953477Y-94119246D01*
X11000000Y-94128000D01*
X42872000Y-94128000D01*
X42872000Y-98872000D01*
X10128000Y-98872000D01*
X10128000Y-98000000D01*
X10117915Y-97950201D01*
X10089251Y-97908249D01*
X10046523Y-97880754D01*
X10000000Y-97872000D01*
X2128000Y-97872000D01*
X2128000Y-95000000D01*
X15872000Y-95000000D01*
X15872000Y-96000000D01*
X15880754Y-96046523D01*
X15908249Y-96089251D01*
X15950201Y-96117915D01*
X16000000Y-96128000D01*
X17000000Y-96128000D01*
X17046523Y-96119246D01*
X17089251Y-96091751D01*
X17117915Y-96049799D01*
X17128000Y-96000000D01*
X17128000Y-95000000D01*
X18872000Y-95000000D01*
X18872000Y-96000000D01*
X18880754Y-96046523D01*
X18908249Y-96089251D01*
X18950201Y-96117915D01*
X19000000Y-96128000D01*
X20000000Y-96128000D01*
X20046523Y-96119246D01*
X20089251Y-96091751D01*
X20117915Y-96049799D01*
X20128000Y-96000000D01*
X20128000Y-95000000D01*
X26872000Y-95000000D01*
X26872000Y-96000000D01*
X26880754Y-96046523D01*
X26908249Y-96089251D01*
X26950201Y-96117915D01*
X27000000Y-96128000D01*
X28000000Y-96128000D01*
X28046523Y-96119246D01*
X28089251Y-96091751D01*
X28117915Y-96049799D01*
X28128000Y-96000000D01*
X28128000Y-95000000D01*
X29872000Y-95000000D01*
X29872000Y-96000000D01*
X29880754Y-96046523D01*
X29908249Y-96089251D01*
X29950201Y-96117915D01*
X30000000Y-96128000D01*
X31000000Y-96128000D01*
X31046523Y-96119246D01*
X31089251Y-96091751D01*
X31117915Y-96049799D01*
X31128000Y-96000000D01*
X31128000Y-95000000D01*
X37872000Y-95000000D01*
X37872000Y-96000000D01*
X37880754Y-96046523D01*
X37908249Y-96089251D01*
X37950201Y-96117915D01*
X38000000Y-96128000D01*
X39000000Y-96128000D01*
X39046523Y-96119246D01*
X39089251Y-96091751D01*
X39117915Y-96049799D01*
X39128000Y-96000000D01*
X39128000Y-95000000D01*
X40872000Y-95000000D01*
X40872000Y-96000000D01*
X40880754Y-96046523D01*
X40908249Y-96089251D01*
X40950201Y-96117915D01*
X41000000Y-96128000D01*
X42000000Y-96128000D01*
X42046523Y-96119246D01*
X42089251Y-96091751D01*
X42117915Y-96049799D01*
X42128000Y-96000000D01*
X42128000Y-95000000D01*
X42119246Y-94953477D01*
X42091751Y-94910749D01*
X42049799Y-94882085D01*
X42000000Y-94872000D01*
X41000000Y-94872000D01*
X40953477Y-94880754D01*
X40910749Y-94908249D01*
X40882085Y-94950201D01*
X40872000Y-95000000D01*
X39128000Y-95000000D01*
X39119246Y-94953477D01*
X39091751Y-94910749D01*
X39049799Y-94882085D01*
X39000000Y-94872000D01*
X38000000Y-94872000D01*
X37953477Y-94880754D01*
X37910749Y-94908249D01*
X37882085Y-94950201D01*
X37872000Y-95000000D01*
X31128000Y-95000000D01*
X31119246Y-94953477D01*
X31091751Y-94910749D01*
X31049799Y-94882085D01*
X31000000Y-94872000D01*
X30000000Y-94872000D01*
X29953477Y-94880754D01*
X29910749Y-94908249D01*
X29882085Y-94950201D01*
X29872000Y-95000000D01*
X28128000Y-95000000D01*
X28119246Y-94953477D01*
X28091751Y-94910749D01*
X28049799Y-94882085D01*
X28000000Y-94872000D01*
X27000000Y-94872000D01*
X26953477Y-94880754D01*
X26910749Y-94908249D01*
X26882085Y-94950201D01*
X26872000Y-95000000D01*
X20128000Y-95000000D01*
X20119246Y-94953477D01*
X20091751Y-94910749D01*
X20049799Y-94882085D01*
X20000000Y-94872000D01*
X19000000Y-94872000D01*
X18953477Y-94880754D01*
X18910749Y-94908249D01*
X18882085Y-94950201D01*
X18872000Y-95000000D01*
X17128000Y-95000000D01*
X17119246Y-94953477D01*
X17091751Y-94910749D01*
X17049799Y-94882085D01*
X17000000Y-94872000D01*
X16000000Y-94872000D01*
X15953477Y-94880754D01*
X15910749Y-94908249D01*
X15882085Y-94950201D01*
X15872000Y-95000000D01*
X2128000Y-95000000D01*
X2128000Y-81000000D01*
X2872000Y-81000000D01*
X2872000Y-88000000D01*
X2880754Y-88046523D01*
X2908249Y-88089251D01*
X2950201Y-88117915D01*
X3000000Y-88128000D01*
X9000000Y-88128000D01*
X9046523Y-88119246D01*
X9089251Y-88091751D01*
X9117915Y-88049799D01*
X9128000Y-88000000D01*
X9128000Y-82000000D01*
X15872000Y-82000000D01*
X15872000Y-83000000D01*
X15880754Y-83046523D01*
X15908249Y-83089251D01*
X15950201Y-83117915D01*
X16000000Y-83128000D01*
X17000000Y-83128000D01*
X17046523Y-83119246D01*
X17089251Y-83091751D01*
X17117915Y-83049799D01*
X17128000Y-83000000D01*
X17128000Y-82000000D01*
X18872000Y-82000000D01*
X18872000Y-83000000D01*
X18880754Y-83046523D01*
X18908249Y-83089251D01*
X18950201Y-83117915D01*
X19000000Y-83128000D01*
X20000000Y-83128000D01*
X20046523Y-83119246D01*
X20089251Y-83091751D01*
X20117915Y-83049799D01*
X20128000Y-83000000D01*
X20128000Y-82000000D01*
X26872000Y-82000000D01*
X26872000Y-83000000D01*
X26880754Y-83046523D01*
X26908249Y-83089251D01*
X26950201Y-83117915D01*
X27000000Y-83128000D01*
X28000000Y-83128000D01*
X28046523Y-83119246D01*
X28089251Y-83091751D01*
X28117915Y-83049799D01*
X28128000Y-83000000D01*
X28128000Y-82000000D01*
X29872000Y-82000000D01*
X29872000Y-83000000D01*
X29880754Y-83046523D01*
X29908249Y-83089251D01*
X29950201Y-83117915D01*
X30000000Y-83128000D01*
X31000000Y-83128000D01*
X31046523Y-83119246D01*
X31089251Y-83091751D01*
X31117915Y-83049799D01*
X31128000Y-83000000D01*
X31128000Y-82000000D01*
X37872000Y-82000000D01*
X37872000Y-83000000D01*
X37880754Y-83046523D01*
X37908249Y-83089251D01*
X37950201Y-83117915D01*
X38000000Y-83128000D01*
X39000000Y-83128000D01*
X39046523Y-83119246D01*
X39089251Y-83091751D01*
X39117915Y-83049799D01*
X39128000Y-83000000D01*
X39128000Y-82000000D01*
X40872000Y-82000000D01*
X40872000Y-83000000D01*
X40880754Y-83046523D01*
X40908249Y-83089251D01*
X40950201Y-83117915D01*
X41000000Y-83128000D01*
X42000000Y-83128000D01*
X42046523Y-83119246D01*
X42089251Y-83091751D01*
X42117915Y-83049799D01*
X42128000Y-83000000D01*
X42128000Y-82000000D01*
X42119246Y-81953477D01*
X42091751Y-81910749D01*
X42049799Y-81882085D01*
X42000000Y-81872000D01*
X41000000Y-81872000D01*
X40953477Y-81880754D01*
X40910749Y-81908249D01*
X40882085Y-81950201D01*
X40872000Y-82000000D01*
X39128000Y-82000000D01*
X39119246Y-81953477D01*
X39091751Y-81910749D01*
X39049799Y-81882085D01*
X39000000Y-81872000D01*
X38000000Y-81872000D01*
X37953477Y-81880754D01*
X37910749Y-81908249D01*
X37882085Y-81950201D01*
X37872000Y-82000000D01*
X31128000Y-82000000D01*
X31119246Y-81953477D01*
X31091751Y-81910749D01*
X31049799Y-81882085D01*
X31000000Y-81872000D01*
X30000000Y-81872000D01*
X29953477Y-81880754D01*
X29910749Y-81908249D01*
X29882085Y-81950201D01*
X29872000Y-82000000D01*
X28128000Y-82000000D01*
X28119246Y-81953477D01*
X28091751Y-81910749D01*
X28049799Y-81882085D01*
X28000000Y-81872000D01*
X27000000Y-81872000D01*
X26953477Y-81880754D01*
X26910749Y-81908249D01*
X26882085Y-81950201D01*
X26872000Y-82000000D01*
X20128000Y-82000000D01*
X20119246Y-81953477D01*
X20091751Y-81910749D01*
X20049799Y-81882085D01*
X20000000Y-81872000D01*
X19000000Y-81872000D01*
X18953477Y-81880754D01*
X18910749Y-81908249D01*
X18882085Y-81950201D01*
X18872000Y-82000000D01*
X17128000Y-82000000D01*
X17119246Y-81953477D01*
X17091751Y-81910749D01*
X17049799Y-81882085D01*
X17000000Y-81872000D01*
X16000000Y-81872000D01*
X15953477Y-81880754D01*
X15910749Y-81908249D01*
X15882085Y-81950201D01*
X15872000Y-82000000D01*
X9128000Y-82000000D01*
X9128000Y-81000000D01*
X9119246Y-80953477D01*
X9091751Y-80910749D01*
X9049799Y-80882085D01*
X9000000Y-80872000D01*
X3000000Y-80872000D01*
X2953477Y-80880754D01*
X2910749Y-80908249D01*
X2882085Y-80950201D01*
X2872000Y-81000000D01*
X2128000Y-81000000D01*
X2128000Y-69000000D01*
X15872000Y-69000000D01*
X15872000Y-70000000D01*
X15880754Y-70046523D01*
X15908249Y-70089251D01*
X15950201Y-70117915D01*
X16000000Y-70128000D01*
X17000000Y-70128000D01*
X17046523Y-70119246D01*
X17089251Y-70091751D01*
X17117915Y-70049799D01*
X17128000Y-70000000D01*
X17128000Y-69000000D01*
X18872000Y-69000000D01*
X18872000Y-70000000D01*
X18880754Y-70046523D01*
X18908249Y-70089251D01*
X18950201Y-70117915D01*
X19000000Y-70128000D01*
X20000000Y-70128000D01*
X20046523Y-70119246D01*
X20089251Y-70091751D01*
X20117915Y-70049799D01*
X20128000Y-70000000D01*
X20128000Y-69000000D01*
X26872000Y-69000000D01*
X26872000Y-70000000D01*
X26880754Y-70046523D01*
X26908249Y-70089251D01*
X26950201Y-70117915D01*
X27000000Y-70128000D01*
X28000000Y-70128000D01*
X28046523Y-70119246D01*
X28089251Y-70091751D01*
X28117915Y-70049799D01*
X28128000Y-70000000D01*
X28128000Y-69000000D01*
X29872000Y-69000000D01*
X29872000Y-70000000D01*
X29880754Y-70046523D01*
X29908249Y-70089251D01*
X29950201Y-70117915D01*
X30000000Y-70128000D01*
X31000000Y-70128000D01*
X31046523Y-70119246D01*
X31089251Y-70091751D01*
X31117915Y-70049799D01*
X31128000Y-70000000D01*
X31128000Y-69000000D01*
X37872000Y-69000000D01*
X37872000Y-70000000D01*
X37880754Y-70046523D01*
X37908249Y-70089251D01*
X37950201Y-70117915D01*
X38000000Y-70128000D01*
X39000000Y-70128000D01*
X39046523Y-70119246D01*
X39089251Y-70091751D01*
X39117915Y-70049799D01*
X39128000Y-70000000D01*
X39128000Y-69000000D01*
X40872000Y-69000000D01*
X40872000Y-70000000D01*
X40880754Y-70046523D01*
X40908249Y-70089251D01*
X40950201Y-70117915D01*
X41000000Y-70128000D01*
X42000000Y-70128000D01*
X42046523Y-70119246D01*
X42089251Y-70091751D01*
X42117915Y-70049799D01*
X42128000Y-70000000D01*
X42128000Y-69000000D01*
X42119246Y-68953477D01*
X42091751Y-68910749D01*
X42049799Y-68882085D01*
X42000000Y-68872000D01*
X41000000Y-68872000D01*
X40953477Y-68880754D01*
X40910749Y-68908249D01*
X40882085Y-68950201D01*
X40872000Y-69000000D01*
X39128000Y-69000000D01*
X39119246Y-68953477D01*
X39091751Y-68910749D01*
X39049799Y-68882085D01*
X39000000Y-68872000D01*
X38000000Y-68872000D01*
X37953477Y-68880754D01*
X37910749Y-68908249D01*
X37882085Y-68950201D01*
X37872000Y-69000000D01*
X31128000Y-69000000D01*
X31119246Y-68953477D01*
X31091751Y-68910749D01*
X31049799Y-68882085D01*
X31000000Y-68872000D01*
X30000000Y-68872000D01*
X29953477Y-68880754D01*
X29910749Y-68908249D01*
X29882085Y-68950201D01*
X29872000Y-69000000D01*
X28128000Y-69000000D01*
X28119246Y-68953477D01*
X28091751Y-68910749D01*
X28049799Y-68882085D01*
X28000000Y-68872000D01*
X27000000Y-68872000D01*
X26953477Y-68880754D01*
X26910749Y-68908249D01*
X26882085Y-68950201D01*
X26872000Y-69000000D01*
X20128000Y-69000000D01*
X20119246Y-68953477D01*
X20091751Y-68910749D01*
X20049799Y-68882085D01*
X20000000Y-68872000D01*
X19000000Y-68872000D01*
X18953477Y-68880754D01*
X18910749Y-68908249D01*
X18882085Y-68950201D01*
X18872000Y-69000000D01*
X17128000Y-69000000D01*
X17119246Y-68953477D01*
X17091751Y-68910749D01*
X17049799Y-68882085D01*
X17000000Y-68872000D01*
X16000000Y-68872000D01*
X15953477Y-68880754D01*
X15910749Y-68908249D01*
X15882085Y-68950201D01*
X15872000Y-69000000D01*
X2128000Y-69000000D01*
X2128000Y-56000000D01*
X15872000Y-56000000D01*
X15872000Y-57000000D01*
X15880754Y-57046523D01*
X15908249Y-57089251D01*
X15950201Y-57117915D01*
X16000000Y-57128000D01*
X17000000Y-57128000D01*
X17046523Y-57119246D01*
X17089251Y-57091751D01*
X17117915Y-57049799D01*
X17128000Y-57000000D01*
X17128000Y-56000000D01*
X18872000Y-56000000D01*
X18872000Y-57000000D01*
X18880754Y-57046523D01*
X18908249Y-57089251D01*
X18950201Y-57117915D01*
X19000000Y-57128000D01*
X20000000Y-57128000D01*
X20046523Y-57119246D01*
X20089251Y-57091751D01*
X20117915Y-57049799D01*
X20128000Y-57000000D01*
X20128000Y-56000000D01*
X26872000Y-56000000D01*
X26872000Y-57000000D01*
X26880754Y-57046523D01*
X26908249Y-57089251D01*
X26950201Y-57117915D01*
X27000000Y-57128000D01*
X28000000Y-57128000D01*
X28046523Y-57119246D01*
X28089251Y-57091751D01*
X28117915Y-57049799D01*
X28128000Y-57000000D01*
X28128000Y-56000000D01*
X29872000Y-56000000D01*
X29872000Y-57000000D01*
X29880754Y-57046523D01*
X29908249Y-57089251D01*
X29950201Y-57117915D01*
X30000000Y-57128000D01*
X31000000Y-57128000D01*
X31046523Y-57119246D01*
X31089251Y-57091751D01*
X31117915Y-57049799D01*
X31128000Y-57000000D01*
X31128000Y-56000000D01*
X37872000Y-56000000D01*
X37872000Y-57000000D01*
X37880754Y-57046523D01*
X37908249Y-57089251D01*
X37950201Y-57117915D01*
X38000000Y-57128000D01*
X39000000Y-57128000D01*
X39046523Y-57119246D01*
X39089251Y-57091751D01*
X39117915Y-57049799D01*
X39128000Y-57000000D01*
X39128000Y-56000000D01*
X40872000Y-56000000D01*
X40872000Y-57000000D01*
X40880754Y-57046523D01*
X40908249Y-57089251D01*
X40950201Y-57117915D01*
X41000000Y-57128000D01*
X42000000Y-57128000D01*
X42046523Y-57119246D01*
X42089251Y-57091751D01*
X42117915Y-57049799D01*
X42128000Y-57000000D01*
X42128000Y-56000000D01*
X42119246Y-55953477D01*
X42091751Y-55910749D01*
X42049799Y-55882085D01*
X42000000Y-55872000D01*
X41000000Y-55872000D01*
X40953477Y-55880754D01*
X40910749Y-55908249D01*
X40882085Y-55950201D01*
X40872000Y-56000000D01*
X39128000Y-56000000D01*
X39119246Y-55953477D01*
X39091751Y-55910749D01*
X39049799Y-55882085D01*
X39000000Y-55872000D01*
X38000000Y-55872000D01*
X37953477Y-55880754D01*
X37910749Y-55908249D01*
X37882085Y-55950201D01*
X37872000Y-56000000D01*
X31128000Y-56000000D01*
X31119246Y-55953477D01*
X31091751Y-55910749D01*
X31049799Y-55882085D01*
X31000000Y-55872000D01*
X30000000Y-55872000D01*
X29953477Y-55880754D01*
X29910749Y-55908249D01*
X29882085Y-55950201D01*
X29872000Y-56000000D01*
X28128000Y-56000000D01*
X28119246Y-55953477D01*
X28091751Y-55910749D01*
X28049799Y-55882085D01*
X28000000Y-55872000D01*
X27000000Y-55872000D01*
X26953477Y-55880754D01*
X26910749Y-55908249D01*
X26882085Y-55950201D01*
X26872000Y-56000000D01*
X20128000Y-56000000D01*
X20119246Y-55953477D01*
X20091751Y-55910749D01*
X20049799Y-55882085D01*
X20000000Y-55872000D01*
X19000000Y-55872000D01*
X18953477Y-55880754D01*
X18910749Y-55908249D01*
X18882085Y-55950201D01*
X18872000Y-56000000D01*
X17128000Y-56000000D01*
X17119246Y-55953477D01*
X17091751Y-55910749D01*
X17049799Y-55882085D01*
X17000000Y-55872000D01*
X16000000Y-55872000D01*
X15953477Y-55880754D01*
X15910749Y-55908249D01*
X15882085Y-55950201D01*
X15872000Y-56000000D01*
X2128000Y-56000000D01*
X2128000Y-16579860D01*
X3071493Y-16579860D01*
X3516315Y-17656412D01*
X4339256Y-18480790D01*
X5415030Y-18927491D01*
X6579860Y-18928507D01*
X7656412Y-18483685D01*
X8480790Y-17660744D01*
X8927491Y-16584970D01*
X8928507Y-15420140D01*
X8483685Y-14343588D01*
X7660744Y-13519210D01*
X6584970Y-13072509D01*
X5420140Y-13071493D01*
X4343588Y-13516315D01*
X3519210Y-14339256D01*
X3072509Y-15415030D01*
X3071493Y-16579860D01*
X2128000Y-16579860D01*
X2128000Y-2128000D01*
X10000000Y-2128000D01*
X10049799Y-2117915D01*
X10091751Y-2089251D01*
X10119246Y-2046523D01*
X10128000Y-2000000D01*
X10128000Y-1478000D01*
X14372000Y-1478000D01*
X14372000Y-2472000D01*
X14372000Y-2472000D01*
G37*
X14372000Y-2472000D02*
X12450000Y-2472000D01*
X12400201Y-2482085D01*
X12358249Y-2510749D01*
X12330754Y-2553477D01*
X12322000Y-2600000D01*
X12322000Y-5650000D01*
X12332085Y-5699799D01*
X12360749Y-5741751D01*
X12403477Y-5769246D01*
X12450000Y-5778000D01*
X14372000Y-5778000D01*
X14372000Y-9222000D01*
X11000000Y-9222000D01*
X10950201Y-9232085D01*
X10908249Y-9260749D01*
X10880754Y-9303477D01*
X10872000Y-9350000D01*
X10872000Y-25350000D01*
X10882085Y-25399799D01*
X10910749Y-25441751D01*
X10953477Y-25469246D01*
X11000000Y-25478000D01*
X14372000Y-25478000D01*
X14372000Y-26472000D01*
X12450000Y-26472000D01*
X12400201Y-26482085D01*
X12358249Y-26510749D01*
X12330754Y-26553477D01*
X12322000Y-26600000D01*
X12322000Y-29650000D01*
X12332085Y-29699799D01*
X12360749Y-29741751D01*
X12403477Y-29769246D01*
X12450000Y-29778000D01*
X14372000Y-29778000D01*
X14372000Y-33222000D01*
X11000000Y-33222000D01*
X10950201Y-33232085D01*
X10908249Y-33260749D01*
X10880754Y-33303477D01*
X10872000Y-33350000D01*
X10872000Y-55000000D01*
X10882085Y-55049799D01*
X10910749Y-55091751D01*
X10953477Y-55119246D01*
X11000000Y-55128000D01*
X42872000Y-55128000D01*
X42872000Y-60372000D01*
X42128000Y-60372000D01*
X42128000Y-60000000D01*
X42119246Y-59953477D01*
X42091751Y-59910749D01*
X42049799Y-59882085D01*
X42000000Y-59872000D01*
X41000000Y-59872000D01*
X40953477Y-59880754D01*
X40910749Y-59908249D01*
X40882085Y-59950201D01*
X40872000Y-60000000D01*
X40872000Y-60372000D01*
X39128000Y-60372000D01*
X39128000Y-60000000D01*
X39119246Y-59953477D01*
X39091751Y-59910749D01*
X39049799Y-59882085D01*
X39000000Y-59872000D01*
X38000000Y-59872000D01*
X37953477Y-59880754D01*
X37910749Y-59908249D01*
X37882085Y-59950201D01*
X37872000Y-60000000D01*
X37872000Y-60372000D01*
X36936385Y-60372000D01*
X36936385Y-60200000D01*
X36906541Y-60041393D01*
X36812804Y-59895721D01*
X36669778Y-59797996D01*
X36500000Y-59763615D01*
X35500000Y-59763615D01*
X35341393Y-59793459D01*
X35195721Y-59887196D01*
X35097996Y-60030222D01*
X35063615Y-60200000D01*
X35063615Y-60372000D01*
X31128000Y-60372000D01*
X31128000Y-60000000D01*
X31119246Y-59953477D01*
X31091751Y-59910749D01*
X31049799Y-59882085D01*
X31000000Y-59872000D01*
X30000000Y-59872000D01*
X29953477Y-59880754D01*
X29910749Y-59908249D01*
X29882085Y-59950201D01*
X29872000Y-60000000D01*
X29872000Y-60372000D01*
X28128000Y-60372000D01*
X28128000Y-60000000D01*
X28119246Y-59953477D01*
X28091751Y-59910749D01*
X28049799Y-59882085D01*
X28000000Y-59872000D01*
X27000000Y-59872000D01*
X26953477Y-59880754D01*
X26910749Y-59908249D01*
X26882085Y-59950201D01*
X26872000Y-60000000D01*
X26872000Y-60372000D01*
X25936385Y-60372000D01*
X25936385Y-60200000D01*
X25906541Y-60041393D01*
X25812804Y-59895721D01*
X25669778Y-59797996D01*
X25500000Y-59763615D01*
X24500000Y-59763615D01*
X24341393Y-59793459D01*
X24195721Y-59887196D01*
X24097996Y-60030222D01*
X24063615Y-60200000D01*
X24063615Y-60372000D01*
X20128000Y-60372000D01*
X20128000Y-60000000D01*
X20119246Y-59953477D01*
X20091751Y-59910749D01*
X20049799Y-59882085D01*
X20000000Y-59872000D01*
X19000000Y-59872000D01*
X18953477Y-59880754D01*
X18910749Y-59908249D01*
X18882085Y-59950201D01*
X18872000Y-60000000D01*
X18872000Y-60372000D01*
X17128000Y-60372000D01*
X17128000Y-60000000D01*
X17119246Y-59953477D01*
X17091751Y-59910749D01*
X17049799Y-59882085D01*
X17000000Y-59872000D01*
X16000000Y-59872000D01*
X15953477Y-59880754D01*
X15910749Y-59908249D01*
X15882085Y-59950201D01*
X15872000Y-60000000D01*
X15872000Y-60372000D01*
X11000000Y-60372000D01*
X10950201Y-60382085D01*
X10908249Y-60410749D01*
X10880754Y-60453477D01*
X10872000Y-60500000D01*
X10872000Y-68000000D01*
X10882085Y-68049799D01*
X10910749Y-68091751D01*
X10953477Y-68119246D01*
X11000000Y-68128000D01*
X42872000Y-68128000D01*
X42872000Y-73372000D01*
X42128000Y-73372000D01*
X42128000Y-73000000D01*
X42119246Y-72953477D01*
X42091751Y-72910749D01*
X42049799Y-72882085D01*
X42000000Y-72872000D01*
X41000000Y-72872000D01*
X40953477Y-72880754D01*
X40910749Y-72908249D01*
X40882085Y-72950201D01*
X40872000Y-73000000D01*
X40872000Y-73372000D01*
X39128000Y-73372000D01*
X39128000Y-73000000D01*
X39119246Y-72953477D01*
X39091751Y-72910749D01*
X39049799Y-72882085D01*
X39000000Y-72872000D01*
X38000000Y-72872000D01*
X37953477Y-72880754D01*
X37910749Y-72908249D01*
X37882085Y-72950201D01*
X37872000Y-73000000D01*
X37872000Y-73372000D01*
X36936385Y-73372000D01*
X36936385Y-73200000D01*
X36906541Y-73041393D01*
X36812804Y-72895721D01*
X36669778Y-72797996D01*
X36500000Y-72763615D01*
X35500000Y-72763615D01*
X35341393Y-72793459D01*
X35195721Y-72887196D01*
X35097996Y-73030222D01*
X35063615Y-73200000D01*
X35063615Y-73372000D01*
X31128000Y-73372000D01*
X31128000Y-73000000D01*
X31119246Y-72953477D01*
X31091751Y-72910749D01*
X31049799Y-72882085D01*
X31000000Y-72872000D01*
X30000000Y-72872000D01*
X29953477Y-72880754D01*
X29910749Y-72908249D01*
X29882085Y-72950201D01*
X29872000Y-73000000D01*
X29872000Y-73372000D01*
X28128000Y-73372000D01*
X28128000Y-73000000D01*
X28119246Y-72953477D01*
X28091751Y-72910749D01*
X28049799Y-72882085D01*
X28000000Y-72872000D01*
X27000000Y-72872000D01*
X26953477Y-72880754D01*
X26910749Y-72908249D01*
X26882085Y-72950201D01*
X26872000Y-73000000D01*
X26872000Y-73372000D01*
X25936385Y-73372000D01*
X25936385Y-73200000D01*
X25906541Y-73041393D01*
X25812804Y-72895721D01*
X25669778Y-72797996D01*
X25500000Y-72763615D01*
X24500000Y-72763615D01*
X24341393Y-72793459D01*
X24195721Y-72887196D01*
X24097996Y-73030222D01*
X24063615Y-73200000D01*
X24063615Y-73372000D01*
X20128000Y-73372000D01*
X20128000Y-73000000D01*
X20119246Y-72953477D01*
X20091751Y-72910749D01*
X20049799Y-72882085D01*
X20000000Y-72872000D01*
X19000000Y-72872000D01*
X18953477Y-72880754D01*
X18910749Y-72908249D01*
X18882085Y-72950201D01*
X18872000Y-73000000D01*
X18872000Y-73372000D01*
X17128000Y-73372000D01*
X17128000Y-73000000D01*
X17119246Y-72953477D01*
X17091751Y-72910749D01*
X17049799Y-72882085D01*
X17000000Y-72872000D01*
X16000000Y-72872000D01*
X15953477Y-72880754D01*
X15910749Y-72908249D01*
X15882085Y-72950201D01*
X15872000Y-73000000D01*
X15872000Y-73372000D01*
X11000000Y-73372000D01*
X10950201Y-73382085D01*
X10908249Y-73410749D01*
X10880754Y-73453477D01*
X10872000Y-73500000D01*
X10872000Y-81000000D01*
X10882085Y-81049799D01*
X10910749Y-81091751D01*
X10953477Y-81119246D01*
X11000000Y-81128000D01*
X42872000Y-81128000D01*
X42872000Y-86372000D01*
X42128000Y-86372000D01*
X42128000Y-86000000D01*
X42119246Y-85953477D01*
X42091751Y-85910749D01*
X42049799Y-85882085D01*
X42000000Y-85872000D01*
X41000000Y-85872000D01*
X40953477Y-85880754D01*
X40910749Y-85908249D01*
X40882085Y-85950201D01*
X40872000Y-86000000D01*
X40872000Y-86372000D01*
X39128000Y-86372000D01*
X39128000Y-86000000D01*
X39119246Y-85953477D01*
X39091751Y-85910749D01*
X39049799Y-85882085D01*
X39000000Y-85872000D01*
X38000000Y-85872000D01*
X37953477Y-85880754D01*
X37910749Y-85908249D01*
X37882085Y-85950201D01*
X37872000Y-86000000D01*
X37872000Y-86372000D01*
X36936385Y-86372000D01*
X36936385Y-86200000D01*
X36906541Y-86041393D01*
X36812804Y-85895721D01*
X36669778Y-85797996D01*
X36500000Y-85763615D01*
X35500000Y-85763615D01*
X35341393Y-85793459D01*
X35195721Y-85887196D01*
X35097996Y-86030222D01*
X35063615Y-86200000D01*
X35063615Y-86372000D01*
X31128000Y-86372000D01*
X31128000Y-86000000D01*
X31119246Y-85953477D01*
X31091751Y-85910749D01*
X31049799Y-85882085D01*
X31000000Y-85872000D01*
X30000000Y-85872000D01*
X29953477Y-85880754D01*
X29910749Y-85908249D01*
X29882085Y-85950201D01*
X29872000Y-86000000D01*
X29872000Y-86372000D01*
X28128000Y-86372000D01*
X28128000Y-86000000D01*
X28119246Y-85953477D01*
X28091751Y-85910749D01*
X28049799Y-85882085D01*
X28000000Y-85872000D01*
X27000000Y-85872000D01*
X26953477Y-85880754D01*
X26910749Y-85908249D01*
X26882085Y-85950201D01*
X26872000Y-86000000D01*
X26872000Y-86372000D01*
X25936385Y-86372000D01*
X25936385Y-86200000D01*
X25906541Y-86041393D01*
X25812804Y-85895721D01*
X25669778Y-85797996D01*
X25500000Y-85763615D01*
X24500000Y-85763615D01*
X24341393Y-85793459D01*
X24195721Y-85887196D01*
X24097996Y-86030222D01*
X24063615Y-86200000D01*
X24063615Y-86372000D01*
X20128000Y-86372000D01*
X20128000Y-86000000D01*
X20119246Y-85953477D01*
X20091751Y-85910749D01*
X20049799Y-85882085D01*
X20000000Y-85872000D01*
X19000000Y-85872000D01*
X18953477Y-85880754D01*
X18910749Y-85908249D01*
X18882085Y-85950201D01*
X18872000Y-86000000D01*
X18872000Y-86372000D01*
X17128000Y-86372000D01*
X17128000Y-86000000D01*
X17119246Y-85953477D01*
X17091751Y-85910749D01*
X17049799Y-85882085D01*
X17000000Y-85872000D01*
X16000000Y-85872000D01*
X15953477Y-85880754D01*
X15910749Y-85908249D01*
X15882085Y-85950201D01*
X15872000Y-86000000D01*
X15872000Y-86372000D01*
X11000000Y-86372000D01*
X10950201Y-86382085D01*
X10908249Y-86410749D01*
X10880754Y-86453477D01*
X10872000Y-86500000D01*
X10872000Y-94000000D01*
X10882085Y-94049799D01*
X10910749Y-94091751D01*
X10953477Y-94119246D01*
X11000000Y-94128000D01*
X42872000Y-94128000D01*
X42872000Y-98872000D01*
X10128000Y-98872000D01*
X10128000Y-98000000D01*
X10117915Y-97950201D01*
X10089251Y-97908249D01*
X10046523Y-97880754D01*
X10000000Y-97872000D01*
X2128000Y-97872000D01*
X2128000Y-95000000D01*
X15872000Y-95000000D01*
X15872000Y-96000000D01*
X15880754Y-96046523D01*
X15908249Y-96089251D01*
X15950201Y-96117915D01*
X16000000Y-96128000D01*
X17000000Y-96128000D01*
X17046523Y-96119246D01*
X17089251Y-96091751D01*
X17117915Y-96049799D01*
X17128000Y-96000000D01*
X17128000Y-95000000D01*
X18872000Y-95000000D01*
X18872000Y-96000000D01*
X18880754Y-96046523D01*
X18908249Y-96089251D01*
X18950201Y-96117915D01*
X19000000Y-96128000D01*
X20000000Y-96128000D01*
X20046523Y-96119246D01*
X20089251Y-96091751D01*
X20117915Y-96049799D01*
X20128000Y-96000000D01*
X20128000Y-95000000D01*
X26872000Y-95000000D01*
X26872000Y-96000000D01*
X26880754Y-96046523D01*
X26908249Y-96089251D01*
X26950201Y-96117915D01*
X27000000Y-96128000D01*
X28000000Y-96128000D01*
X28046523Y-96119246D01*
X28089251Y-96091751D01*
X28117915Y-96049799D01*
X28128000Y-96000000D01*
X28128000Y-95000000D01*
X29872000Y-95000000D01*
X29872000Y-96000000D01*
X29880754Y-96046523D01*
X29908249Y-96089251D01*
X29950201Y-96117915D01*
X30000000Y-96128000D01*
X31000000Y-96128000D01*
X31046523Y-96119246D01*
X31089251Y-96091751D01*
X31117915Y-96049799D01*
X31128000Y-96000000D01*
X31128000Y-95000000D01*
X37872000Y-95000000D01*
X37872000Y-96000000D01*
X37880754Y-96046523D01*
X37908249Y-96089251D01*
X37950201Y-96117915D01*
X38000000Y-96128000D01*
X39000000Y-96128000D01*
X39046523Y-96119246D01*
X39089251Y-96091751D01*
X39117915Y-96049799D01*
X39128000Y-96000000D01*
X39128000Y-95000000D01*
X40872000Y-95000000D01*
X40872000Y-96000000D01*
X40880754Y-96046523D01*
X40908249Y-96089251D01*
X40950201Y-96117915D01*
X41000000Y-96128000D01*
X42000000Y-96128000D01*
X42046523Y-96119246D01*
X42089251Y-96091751D01*
X42117915Y-96049799D01*
X42128000Y-96000000D01*
X42128000Y-95000000D01*
X42119246Y-94953477D01*
X42091751Y-94910749D01*
X42049799Y-94882085D01*
X42000000Y-94872000D01*
X41000000Y-94872000D01*
X40953477Y-94880754D01*
X40910749Y-94908249D01*
X40882085Y-94950201D01*
X40872000Y-95000000D01*
X39128000Y-95000000D01*
X39119246Y-94953477D01*
X39091751Y-94910749D01*
X39049799Y-94882085D01*
X39000000Y-94872000D01*
X38000000Y-94872000D01*
X37953477Y-94880754D01*
X37910749Y-94908249D01*
X37882085Y-94950201D01*
X37872000Y-95000000D01*
X31128000Y-95000000D01*
X31119246Y-94953477D01*
X31091751Y-94910749D01*
X31049799Y-94882085D01*
X31000000Y-94872000D01*
X30000000Y-94872000D01*
X29953477Y-94880754D01*
X29910749Y-94908249D01*
X29882085Y-94950201D01*
X29872000Y-95000000D01*
X28128000Y-95000000D01*
X28119246Y-94953477D01*
X28091751Y-94910749D01*
X28049799Y-94882085D01*
X28000000Y-94872000D01*
X27000000Y-94872000D01*
X26953477Y-94880754D01*
X26910749Y-94908249D01*
X26882085Y-94950201D01*
X26872000Y-95000000D01*
X20128000Y-95000000D01*
X20119246Y-94953477D01*
X20091751Y-94910749D01*
X20049799Y-94882085D01*
X20000000Y-94872000D01*
X19000000Y-94872000D01*
X18953477Y-94880754D01*
X18910749Y-94908249D01*
X18882085Y-94950201D01*
X18872000Y-95000000D01*
X17128000Y-95000000D01*
X17119246Y-94953477D01*
X17091751Y-94910749D01*
X17049799Y-94882085D01*
X17000000Y-94872000D01*
X16000000Y-94872000D01*
X15953477Y-94880754D01*
X15910749Y-94908249D01*
X15882085Y-94950201D01*
X15872000Y-95000000D01*
X2128000Y-95000000D01*
X2128000Y-81000000D01*
X2872000Y-81000000D01*
X2872000Y-88000000D01*
X2880754Y-88046523D01*
X2908249Y-88089251D01*
X2950201Y-88117915D01*
X3000000Y-88128000D01*
X9000000Y-88128000D01*
X9046523Y-88119246D01*
X9089251Y-88091751D01*
X9117915Y-88049799D01*
X9128000Y-88000000D01*
X9128000Y-82000000D01*
X15872000Y-82000000D01*
X15872000Y-83000000D01*
X15880754Y-83046523D01*
X15908249Y-83089251D01*
X15950201Y-83117915D01*
X16000000Y-83128000D01*
X17000000Y-83128000D01*
X17046523Y-83119246D01*
X17089251Y-83091751D01*
X17117915Y-83049799D01*
X17128000Y-83000000D01*
X17128000Y-82000000D01*
X18872000Y-82000000D01*
X18872000Y-83000000D01*
X18880754Y-83046523D01*
X18908249Y-83089251D01*
X18950201Y-83117915D01*
X19000000Y-83128000D01*
X20000000Y-83128000D01*
X20046523Y-83119246D01*
X20089251Y-83091751D01*
X20117915Y-83049799D01*
X20128000Y-83000000D01*
X20128000Y-82000000D01*
X26872000Y-82000000D01*
X26872000Y-83000000D01*
X26880754Y-83046523D01*
X26908249Y-83089251D01*
X26950201Y-83117915D01*
X27000000Y-83128000D01*
X28000000Y-83128000D01*
X28046523Y-83119246D01*
X28089251Y-83091751D01*
X28117915Y-83049799D01*
X28128000Y-83000000D01*
X28128000Y-82000000D01*
X29872000Y-82000000D01*
X29872000Y-83000000D01*
X29880754Y-83046523D01*
X29908249Y-83089251D01*
X29950201Y-83117915D01*
X30000000Y-83128000D01*
X31000000Y-83128000D01*
X31046523Y-83119246D01*
X31089251Y-83091751D01*
X31117915Y-83049799D01*
X31128000Y-83000000D01*
X31128000Y-82000000D01*
X37872000Y-82000000D01*
X37872000Y-83000000D01*
X37880754Y-83046523D01*
X37908249Y-83089251D01*
X37950201Y-83117915D01*
X38000000Y-83128000D01*
X39000000Y-83128000D01*
X39046523Y-83119246D01*
X39089251Y-83091751D01*
X39117915Y-83049799D01*
X39128000Y-83000000D01*
X39128000Y-82000000D01*
X40872000Y-82000000D01*
X40872000Y-83000000D01*
X40880754Y-83046523D01*
X40908249Y-83089251D01*
X40950201Y-83117915D01*
X41000000Y-83128000D01*
X42000000Y-83128000D01*
X42046523Y-83119246D01*
X42089251Y-83091751D01*
X42117915Y-83049799D01*
X42128000Y-83000000D01*
X42128000Y-82000000D01*
X42119246Y-81953477D01*
X42091751Y-81910749D01*
X42049799Y-81882085D01*
X42000000Y-81872000D01*
X41000000Y-81872000D01*
X40953477Y-81880754D01*
X40910749Y-81908249D01*
X40882085Y-81950201D01*
X40872000Y-82000000D01*
X39128000Y-82000000D01*
X39119246Y-81953477D01*
X39091751Y-81910749D01*
X39049799Y-81882085D01*
X39000000Y-81872000D01*
X38000000Y-81872000D01*
X37953477Y-81880754D01*
X37910749Y-81908249D01*
X37882085Y-81950201D01*
X37872000Y-82000000D01*
X31128000Y-82000000D01*
X31119246Y-81953477D01*
X31091751Y-81910749D01*
X31049799Y-81882085D01*
X31000000Y-81872000D01*
X30000000Y-81872000D01*
X29953477Y-81880754D01*
X29910749Y-81908249D01*
X29882085Y-81950201D01*
X29872000Y-82000000D01*
X28128000Y-82000000D01*
X28119246Y-81953477D01*
X28091751Y-81910749D01*
X28049799Y-81882085D01*
X28000000Y-81872000D01*
X27000000Y-81872000D01*
X26953477Y-81880754D01*
X26910749Y-81908249D01*
X26882085Y-81950201D01*
X26872000Y-82000000D01*
X20128000Y-82000000D01*
X20119246Y-81953477D01*
X20091751Y-81910749D01*
X20049799Y-81882085D01*
X20000000Y-81872000D01*
X19000000Y-81872000D01*
X18953477Y-81880754D01*
X18910749Y-81908249D01*
X18882085Y-81950201D01*
X18872000Y-82000000D01*
X17128000Y-82000000D01*
X17119246Y-81953477D01*
X17091751Y-81910749D01*
X17049799Y-81882085D01*
X17000000Y-81872000D01*
X16000000Y-81872000D01*
X15953477Y-81880754D01*
X15910749Y-81908249D01*
X15882085Y-81950201D01*
X15872000Y-82000000D01*
X9128000Y-82000000D01*
X9128000Y-81000000D01*
X9119246Y-80953477D01*
X9091751Y-80910749D01*
X9049799Y-80882085D01*
X9000000Y-80872000D01*
X3000000Y-80872000D01*
X2953477Y-80880754D01*
X2910749Y-80908249D01*
X2882085Y-80950201D01*
X2872000Y-81000000D01*
X2128000Y-81000000D01*
X2128000Y-69000000D01*
X15872000Y-69000000D01*
X15872000Y-70000000D01*
X15880754Y-70046523D01*
X15908249Y-70089251D01*
X15950201Y-70117915D01*
X16000000Y-70128000D01*
X17000000Y-70128000D01*
X17046523Y-70119246D01*
X17089251Y-70091751D01*
X17117915Y-70049799D01*
X17128000Y-70000000D01*
X17128000Y-69000000D01*
X18872000Y-69000000D01*
X18872000Y-70000000D01*
X18880754Y-70046523D01*
X18908249Y-70089251D01*
X18950201Y-70117915D01*
X19000000Y-70128000D01*
X20000000Y-70128000D01*
X20046523Y-70119246D01*
X20089251Y-70091751D01*
X20117915Y-70049799D01*
X20128000Y-70000000D01*
X20128000Y-69000000D01*
X26872000Y-69000000D01*
X26872000Y-70000000D01*
X26880754Y-70046523D01*
X26908249Y-70089251D01*
X26950201Y-70117915D01*
X27000000Y-70128000D01*
X28000000Y-70128000D01*
X28046523Y-70119246D01*
X28089251Y-70091751D01*
X28117915Y-70049799D01*
X28128000Y-70000000D01*
X28128000Y-69000000D01*
X29872000Y-69000000D01*
X29872000Y-70000000D01*
X29880754Y-70046523D01*
X29908249Y-70089251D01*
X29950201Y-70117915D01*
X30000000Y-70128000D01*
X31000000Y-70128000D01*
X31046523Y-70119246D01*
X31089251Y-70091751D01*
X31117915Y-70049799D01*
X31128000Y-70000000D01*
X31128000Y-69000000D01*
X37872000Y-69000000D01*
X37872000Y-70000000D01*
X37880754Y-70046523D01*
X37908249Y-70089251D01*
X37950201Y-70117915D01*
X38000000Y-70128000D01*
X39000000Y-70128000D01*
X39046523Y-70119246D01*
X39089251Y-70091751D01*
X39117915Y-70049799D01*
X39128000Y-70000000D01*
X39128000Y-69000000D01*
X40872000Y-69000000D01*
X40872000Y-70000000D01*
X40880754Y-70046523D01*
X40908249Y-70089251D01*
X40950201Y-70117915D01*
X41000000Y-70128000D01*
X42000000Y-70128000D01*
X42046523Y-70119246D01*
X42089251Y-70091751D01*
X42117915Y-70049799D01*
X42128000Y-70000000D01*
X42128000Y-69000000D01*
X42119246Y-68953477D01*
X42091751Y-68910749D01*
X42049799Y-68882085D01*
X42000000Y-68872000D01*
X41000000Y-68872000D01*
X40953477Y-68880754D01*
X40910749Y-68908249D01*
X40882085Y-68950201D01*
X40872000Y-69000000D01*
X39128000Y-69000000D01*
X39119246Y-68953477D01*
X39091751Y-68910749D01*
X39049799Y-68882085D01*
X39000000Y-68872000D01*
X38000000Y-68872000D01*
X37953477Y-68880754D01*
X37910749Y-68908249D01*
X37882085Y-68950201D01*
X37872000Y-69000000D01*
X31128000Y-69000000D01*
X31119246Y-68953477D01*
X31091751Y-68910749D01*
X31049799Y-68882085D01*
X31000000Y-68872000D01*
X30000000Y-68872000D01*
X29953477Y-68880754D01*
X29910749Y-68908249D01*
X29882085Y-68950201D01*
X29872000Y-69000000D01*
X28128000Y-69000000D01*
X28119246Y-68953477D01*
X28091751Y-68910749D01*
X28049799Y-68882085D01*
X28000000Y-68872000D01*
X27000000Y-68872000D01*
X26953477Y-68880754D01*
X26910749Y-68908249D01*
X26882085Y-68950201D01*
X26872000Y-69000000D01*
X20128000Y-69000000D01*
X20119246Y-68953477D01*
X20091751Y-68910749D01*
X20049799Y-68882085D01*
X20000000Y-68872000D01*
X19000000Y-68872000D01*
X18953477Y-68880754D01*
X18910749Y-68908249D01*
X18882085Y-68950201D01*
X18872000Y-69000000D01*
X17128000Y-69000000D01*
X17119246Y-68953477D01*
X17091751Y-68910749D01*
X17049799Y-68882085D01*
X17000000Y-68872000D01*
X16000000Y-68872000D01*
X15953477Y-68880754D01*
X15910749Y-68908249D01*
X15882085Y-68950201D01*
X15872000Y-69000000D01*
X2128000Y-69000000D01*
X2128000Y-56000000D01*
X15872000Y-56000000D01*
X15872000Y-57000000D01*
X15880754Y-57046523D01*
X15908249Y-57089251D01*
X15950201Y-57117915D01*
X16000000Y-57128000D01*
X17000000Y-57128000D01*
X17046523Y-57119246D01*
X17089251Y-57091751D01*
X17117915Y-57049799D01*
X17128000Y-57000000D01*
X17128000Y-56000000D01*
X18872000Y-56000000D01*
X18872000Y-57000000D01*
X18880754Y-57046523D01*
X18908249Y-57089251D01*
X18950201Y-57117915D01*
X19000000Y-57128000D01*
X20000000Y-57128000D01*
X20046523Y-57119246D01*
X20089251Y-57091751D01*
X20117915Y-57049799D01*
X20128000Y-57000000D01*
X20128000Y-56000000D01*
X26872000Y-56000000D01*
X26872000Y-57000000D01*
X26880754Y-57046523D01*
X26908249Y-57089251D01*
X26950201Y-57117915D01*
X27000000Y-57128000D01*
X28000000Y-57128000D01*
X28046523Y-57119246D01*
X28089251Y-57091751D01*
X28117915Y-57049799D01*
X28128000Y-57000000D01*
X28128000Y-56000000D01*
X29872000Y-56000000D01*
X29872000Y-57000000D01*
X29880754Y-57046523D01*
X29908249Y-57089251D01*
X29950201Y-57117915D01*
X30000000Y-57128000D01*
X31000000Y-57128000D01*
X31046523Y-57119246D01*
X31089251Y-57091751D01*
X31117915Y-57049799D01*
X31128000Y-57000000D01*
X31128000Y-56000000D01*
X37872000Y-56000000D01*
X37872000Y-57000000D01*
X37880754Y-57046523D01*
X37908249Y-57089251D01*
X37950201Y-57117915D01*
X38000000Y-57128000D01*
X39000000Y-57128000D01*
X39046523Y-57119246D01*
X39089251Y-57091751D01*
X39117915Y-57049799D01*
X39128000Y-57000000D01*
X39128000Y-56000000D01*
X40872000Y-56000000D01*
X40872000Y-57000000D01*
X40880754Y-57046523D01*
X40908249Y-57089251D01*
X40950201Y-57117915D01*
X41000000Y-57128000D01*
X42000000Y-57128000D01*
X42046523Y-57119246D01*
X42089251Y-57091751D01*
X42117915Y-57049799D01*
X42128000Y-57000000D01*
X42128000Y-56000000D01*
X42119246Y-55953477D01*
X42091751Y-55910749D01*
X42049799Y-55882085D01*
X42000000Y-55872000D01*
X41000000Y-55872000D01*
X40953477Y-55880754D01*
X40910749Y-55908249D01*
X40882085Y-55950201D01*
X40872000Y-56000000D01*
X39128000Y-56000000D01*
X39119246Y-55953477D01*
X39091751Y-55910749D01*
X39049799Y-55882085D01*
X39000000Y-55872000D01*
X38000000Y-55872000D01*
X37953477Y-55880754D01*
X37910749Y-55908249D01*
X37882085Y-55950201D01*
X37872000Y-56000000D01*
X31128000Y-56000000D01*
X31119246Y-55953477D01*
X31091751Y-55910749D01*
X31049799Y-55882085D01*
X31000000Y-55872000D01*
X30000000Y-55872000D01*
X29953477Y-55880754D01*
X29910749Y-55908249D01*
X29882085Y-55950201D01*
X29872000Y-56000000D01*
X28128000Y-56000000D01*
X28119246Y-55953477D01*
X28091751Y-55910749D01*
X28049799Y-55882085D01*
X28000000Y-55872000D01*
X27000000Y-55872000D01*
X26953477Y-55880754D01*
X26910749Y-55908249D01*
X26882085Y-55950201D01*
X26872000Y-56000000D01*
X20128000Y-56000000D01*
X20119246Y-55953477D01*
X20091751Y-55910749D01*
X20049799Y-55882085D01*
X20000000Y-55872000D01*
X19000000Y-55872000D01*
X18953477Y-55880754D01*
X18910749Y-55908249D01*
X18882085Y-55950201D01*
X18872000Y-56000000D01*
X17128000Y-56000000D01*
X17119246Y-55953477D01*
X17091751Y-55910749D01*
X17049799Y-55882085D01*
X17000000Y-55872000D01*
X16000000Y-55872000D01*
X15953477Y-55880754D01*
X15910749Y-55908249D01*
X15882085Y-55950201D01*
X15872000Y-56000000D01*
X2128000Y-56000000D01*
X2128000Y-16579860D01*
X3071493Y-16579860D01*
X3516315Y-17656412D01*
X4339256Y-18480790D01*
X5415030Y-18927491D01*
X6579860Y-18928507D01*
X7656412Y-18483685D01*
X8480790Y-17660744D01*
X8927491Y-16584970D01*
X8928507Y-15420140D01*
X8483685Y-14343588D01*
X7660744Y-13519210D01*
X6584970Y-13072509D01*
X5420140Y-13071493D01*
X4343588Y-13516315D01*
X3519210Y-14339256D01*
X3072509Y-15415030D01*
X3071493Y-16579860D01*
X2128000Y-16579860D01*
X2128000Y-2128000D01*
X10000000Y-2128000D01*
X10049799Y-2117915D01*
X10091751Y-2089251D01*
X10119246Y-2046523D01*
X10128000Y-2000000D01*
X10128000Y-1478000D01*
X14372000Y-1478000D01*
X14372000Y-2472000D01*
G36*
X55872000Y-94872000D02*
X47128000Y-94872000D01*
X47128000Y-93000000D01*
X47117915Y-92950201D01*
X47089251Y-92908249D01*
X47046523Y-92880754D01*
X47000000Y-92872000D01*
X15128000Y-92872000D01*
X15128000Y-91000000D01*
X15872000Y-91000000D01*
X15872000Y-92000000D01*
X15880754Y-92046523D01*
X15908249Y-92089251D01*
X15950201Y-92117915D01*
X16000000Y-92128000D01*
X17000000Y-92128000D01*
X17046523Y-92119246D01*
X17089251Y-92091751D01*
X17117915Y-92049799D01*
X17128000Y-92000000D01*
X17128000Y-91000000D01*
X18872000Y-91000000D01*
X18872000Y-92000000D01*
X18880754Y-92046523D01*
X18908249Y-92089251D01*
X18950201Y-92117915D01*
X19000000Y-92128000D01*
X20000000Y-92128000D01*
X20046523Y-92119246D01*
X20089251Y-92091751D01*
X20117915Y-92049799D01*
X20128000Y-92000000D01*
X20128000Y-91000000D01*
X26872000Y-91000000D01*
X26872000Y-92000000D01*
X26880754Y-92046523D01*
X26908249Y-92089251D01*
X26950201Y-92117915D01*
X27000000Y-92128000D01*
X28000000Y-92128000D01*
X28046523Y-92119246D01*
X28089251Y-92091751D01*
X28117915Y-92049799D01*
X28128000Y-92000000D01*
X28128000Y-91000000D01*
X29872000Y-91000000D01*
X29872000Y-92000000D01*
X29880754Y-92046523D01*
X29908249Y-92089251D01*
X29950201Y-92117915D01*
X30000000Y-92128000D01*
X31000000Y-92128000D01*
X31046523Y-92119246D01*
X31089251Y-92091751D01*
X31117915Y-92049799D01*
X31128000Y-92000000D01*
X31128000Y-91000000D01*
X37872000Y-91000000D01*
X37872000Y-92000000D01*
X37880754Y-92046523D01*
X37908249Y-92089251D01*
X37950201Y-92117915D01*
X38000000Y-92128000D01*
X39000000Y-92128000D01*
X39046523Y-92119246D01*
X39089251Y-92091751D01*
X39117915Y-92049799D01*
X39128000Y-92000000D01*
X39128000Y-91000000D01*
X40872000Y-91000000D01*
X40872000Y-92000000D01*
X40880754Y-92046523D01*
X40908249Y-92089251D01*
X40950201Y-92117915D01*
X41000000Y-92128000D01*
X42000000Y-92128000D01*
X42046523Y-92119246D01*
X42089251Y-92091751D01*
X42117915Y-92049799D01*
X42128000Y-92000000D01*
X42128000Y-91000000D01*
X42119246Y-90953477D01*
X42091751Y-90910749D01*
X42049799Y-90882085D01*
X42000000Y-90872000D01*
X41000000Y-90872000D01*
X40953477Y-90880754D01*
X40910749Y-90908249D01*
X40882085Y-90950201D01*
X40872000Y-91000000D01*
X39128000Y-91000000D01*
X39119246Y-90953477D01*
X39091751Y-90910749D01*
X39049799Y-90882085D01*
X39000000Y-90872000D01*
X38000000Y-90872000D01*
X37953477Y-90880754D01*
X37910749Y-90908249D01*
X37882085Y-90950201D01*
X37872000Y-91000000D01*
X31128000Y-91000000D01*
X31119246Y-90953477D01*
X31091751Y-90910749D01*
X31049799Y-90882085D01*
X31000000Y-90872000D01*
X30000000Y-90872000D01*
X29953477Y-90880754D01*
X29910749Y-90908249D01*
X29882085Y-90950201D01*
X29872000Y-91000000D01*
X28128000Y-91000000D01*
X28119246Y-90953477D01*
X28091751Y-90910749D01*
X28049799Y-90882085D01*
X28000000Y-90872000D01*
X27000000Y-90872000D01*
X26953477Y-90880754D01*
X26910749Y-90908249D01*
X26882085Y-90950201D01*
X26872000Y-91000000D01*
X20128000Y-91000000D01*
X20119246Y-90953477D01*
X20091751Y-90910749D01*
X20049799Y-90882085D01*
X20000000Y-90872000D01*
X19000000Y-90872000D01*
X18953477Y-90880754D01*
X18910749Y-90908249D01*
X18882085Y-90950201D01*
X18872000Y-91000000D01*
X17128000Y-91000000D01*
X17119246Y-90953477D01*
X17091751Y-90910749D01*
X17049799Y-90882085D01*
X17000000Y-90872000D01*
X16000000Y-90872000D01*
X15953477Y-90880754D01*
X15910749Y-90908249D01*
X15882085Y-90950201D01*
X15872000Y-91000000D01*
X15128000Y-91000000D01*
X15128000Y-87628000D01*
X15872000Y-87628000D01*
X15872000Y-88000000D01*
X15880754Y-88046523D01*
X15908249Y-88089251D01*
X15950201Y-88117915D01*
X16000000Y-88128000D01*
X17000000Y-88128000D01*
X17046523Y-88119246D01*
X17089251Y-88091751D01*
X17117915Y-88049799D01*
X17128000Y-88000000D01*
X17128000Y-87628000D01*
X18872000Y-87628000D01*
X18872000Y-88000000D01*
X18880754Y-88046523D01*
X18908249Y-88089251D01*
X18950201Y-88117915D01*
X19000000Y-88128000D01*
X20000000Y-88128000D01*
X20046523Y-88119246D01*
X20089251Y-88091751D01*
X20117915Y-88049799D01*
X20128000Y-88000000D01*
X20128000Y-87628000D01*
X21063615Y-87628000D01*
X21063615Y-87800000D01*
X21093459Y-87958607D01*
X21187196Y-88104279D01*
X21330222Y-88202004D01*
X21500000Y-88236385D01*
X22500000Y-88236385D01*
X22658607Y-88206541D01*
X22804279Y-88112804D01*
X22902004Y-87969778D01*
X22936385Y-87800000D01*
X22936385Y-87628000D01*
X26872000Y-87628000D01*
X26872000Y-88000000D01*
X26880754Y-88046523D01*
X26908249Y-88089251D01*
X26950201Y-88117915D01*
X27000000Y-88128000D01*
X28000000Y-88128000D01*
X28046523Y-88119246D01*
X28089251Y-88091751D01*
X28117915Y-88049799D01*
X28128000Y-88000000D01*
X28128000Y-87628000D01*
X29872000Y-87628000D01*
X29872000Y-88000000D01*
X29880754Y-88046523D01*
X29908249Y-88089251D01*
X29950201Y-88117915D01*
X30000000Y-88128000D01*
X31000000Y-88128000D01*
X31046523Y-88119246D01*
X31089251Y-88091751D01*
X31117915Y-88049799D01*
X31128000Y-88000000D01*
X31128000Y-87628000D01*
X32063615Y-87628000D01*
X32063615Y-87800000D01*
X32093459Y-87958607D01*
X32187196Y-88104279D01*
X32330222Y-88202004D01*
X32500000Y-88236385D01*
X33500000Y-88236385D01*
X33658607Y-88206541D01*
X33804279Y-88112804D01*
X33902004Y-87969778D01*
X33936385Y-87800000D01*
X33936385Y-87628000D01*
X37872000Y-87628000D01*
X37872000Y-88000000D01*
X37880754Y-88046523D01*
X37908249Y-88089251D01*
X37950201Y-88117915D01*
X38000000Y-88128000D01*
X39000000Y-88128000D01*
X39046523Y-88119246D01*
X39089251Y-88091751D01*
X39117915Y-88049799D01*
X39128000Y-88000000D01*
X39128000Y-87628000D01*
X40872000Y-87628000D01*
X40872000Y-88000000D01*
X40880754Y-88046523D01*
X40908249Y-88089251D01*
X40950201Y-88117915D01*
X41000000Y-88128000D01*
X42000000Y-88128000D01*
X42046523Y-88119246D01*
X42089251Y-88091751D01*
X42117915Y-88049799D01*
X42128000Y-88000000D01*
X42128000Y-87628000D01*
X47000000Y-87628000D01*
X47049799Y-87617915D01*
X47091751Y-87589251D01*
X47119246Y-87546523D01*
X47128000Y-87500000D01*
X47128000Y-84579860D01*
X49071493Y-84579860D01*
X49516315Y-85656412D01*
X50339256Y-86480790D01*
X51415030Y-86927491D01*
X52579860Y-86928507D01*
X53656412Y-86483685D01*
X54480790Y-85660744D01*
X54927491Y-84584970D01*
X54928507Y-83420140D01*
X54483685Y-82343588D01*
X53660744Y-81519210D01*
X52584970Y-81072509D01*
X51420140Y-81071493D01*
X50343588Y-81516315D01*
X49519210Y-82339256D01*
X49072509Y-83415030D01*
X49071493Y-84579860D01*
X47128000Y-84579860D01*
X47128000Y-80000000D01*
X47117915Y-79950201D01*
X47089251Y-79908249D01*
X47046523Y-79880754D01*
X47000000Y-79872000D01*
X15128000Y-79872000D01*
X15128000Y-78000000D01*
X15872000Y-78000000D01*
X15872000Y-79000000D01*
X15880754Y-79046523D01*
X15908249Y-79089251D01*
X15950201Y-79117915D01*
X16000000Y-79128000D01*
X17000000Y-79128000D01*
X17046523Y-79119246D01*
X17089251Y-79091751D01*
X17117915Y-79049799D01*
X17128000Y-79000000D01*
X17128000Y-78000000D01*
X18872000Y-78000000D01*
X18872000Y-79000000D01*
X18880754Y-79046523D01*
X18908249Y-79089251D01*
X18950201Y-79117915D01*
X19000000Y-79128000D01*
X20000000Y-79128000D01*
X20046523Y-79119246D01*
X20089251Y-79091751D01*
X20117915Y-79049799D01*
X20128000Y-79000000D01*
X20128000Y-78000000D01*
X26872000Y-78000000D01*
X26872000Y-79000000D01*
X26880754Y-79046523D01*
X26908249Y-79089251D01*
X26950201Y-79117915D01*
X27000000Y-79128000D01*
X28000000Y-79128000D01*
X28046523Y-79119246D01*
X28089251Y-79091751D01*
X28117915Y-79049799D01*
X28128000Y-79000000D01*
X28128000Y-78000000D01*
X29872000Y-78000000D01*
X29872000Y-79000000D01*
X29880754Y-79046523D01*
X29908249Y-79089251D01*
X29950201Y-79117915D01*
X30000000Y-79128000D01*
X31000000Y-79128000D01*
X31046523Y-79119246D01*
X31089251Y-79091751D01*
X31117915Y-79049799D01*
X31128000Y-79000000D01*
X31128000Y-78000000D01*
X37872000Y-78000000D01*
X37872000Y-79000000D01*
X37880754Y-79046523D01*
X37908249Y-79089251D01*
X37950201Y-79117915D01*
X38000000Y-79128000D01*
X39000000Y-79128000D01*
X39046523Y-79119246D01*
X39089251Y-79091751D01*
X39117915Y-79049799D01*
X39128000Y-79000000D01*
X39128000Y-78000000D01*
X40872000Y-78000000D01*
X40872000Y-79000000D01*
X40880754Y-79046523D01*
X40908249Y-79089251D01*
X40950201Y-79117915D01*
X41000000Y-79128000D01*
X42000000Y-79128000D01*
X42046523Y-79119246D01*
X42089251Y-79091751D01*
X42117915Y-79049799D01*
X42128000Y-79000000D01*
X42128000Y-78000000D01*
X42119246Y-77953477D01*
X42091751Y-77910749D01*
X42049799Y-77882085D01*
X42000000Y-77872000D01*
X41000000Y-77872000D01*
X40953477Y-77880754D01*
X40910749Y-77908249D01*
X40882085Y-77950201D01*
X40872000Y-78000000D01*
X39128000Y-78000000D01*
X39119246Y-77953477D01*
X39091751Y-77910749D01*
X39049799Y-77882085D01*
X39000000Y-77872000D01*
X38000000Y-77872000D01*
X37953477Y-77880754D01*
X37910749Y-77908249D01*
X37882085Y-77950201D01*
X37872000Y-78000000D01*
X31128000Y-78000000D01*
X31119246Y-77953477D01*
X31091751Y-77910749D01*
X31049799Y-77882085D01*
X31000000Y-77872000D01*
X30000000Y-77872000D01*
X29953477Y-77880754D01*
X29910749Y-77908249D01*
X29882085Y-77950201D01*
X29872000Y-78000000D01*
X28128000Y-78000000D01*
X28119246Y-77953477D01*
X28091751Y-77910749D01*
X28049799Y-77882085D01*
X28000000Y-77872000D01*
X27000000Y-77872000D01*
X26953477Y-77880754D01*
X26910749Y-77908249D01*
X26882085Y-77950201D01*
X26872000Y-78000000D01*
X20128000Y-78000000D01*
X20119246Y-77953477D01*
X20091751Y-77910749D01*
X20049799Y-77882085D01*
X20000000Y-77872000D01*
X19000000Y-77872000D01*
X18953477Y-77880754D01*
X18910749Y-77908249D01*
X18882085Y-77950201D01*
X18872000Y-78000000D01*
X17128000Y-78000000D01*
X17119246Y-77953477D01*
X17091751Y-77910749D01*
X17049799Y-77882085D01*
X17000000Y-77872000D01*
X16000000Y-77872000D01*
X15953477Y-77880754D01*
X15910749Y-77908249D01*
X15882085Y-77950201D01*
X15872000Y-78000000D01*
X15128000Y-78000000D01*
X15128000Y-74628000D01*
X15872000Y-74628000D01*
X15872000Y-75000000D01*
X15880754Y-75046523D01*
X15908249Y-75089251D01*
X15950201Y-75117915D01*
X16000000Y-75128000D01*
X17000000Y-75128000D01*
X17046523Y-75119246D01*
X17089251Y-75091751D01*
X17117915Y-75049799D01*
X17128000Y-75000000D01*
X17128000Y-74628000D01*
X18872000Y-74628000D01*
X18872000Y-75000000D01*
X18880754Y-75046523D01*
X18908249Y-75089251D01*
X18950201Y-75117915D01*
X19000000Y-75128000D01*
X20000000Y-75128000D01*
X20046523Y-75119246D01*
X20089251Y-75091751D01*
X20117915Y-75049799D01*
X20128000Y-75000000D01*
X20128000Y-74628000D01*
X21063615Y-74628000D01*
X21063615Y-74800000D01*
X21093459Y-74958607D01*
X21187196Y-75104279D01*
X21330222Y-75202004D01*
X21500000Y-75236385D01*
X22500000Y-75236385D01*
X22658607Y-75206541D01*
X22804279Y-75112804D01*
X22902004Y-74969778D01*
X22936385Y-74800000D01*
X22936385Y-74628000D01*
X26872000Y-74628000D01*
X26872000Y-75000000D01*
X26880754Y-75046523D01*
X26908249Y-75089251D01*
X26950201Y-75117915D01*
X27000000Y-75128000D01*
X28000000Y-75128000D01*
X28046523Y-75119246D01*
X28089251Y-75091751D01*
X28117915Y-75049799D01*
X28128000Y-75000000D01*
X28128000Y-74628000D01*
X29872000Y-74628000D01*
X29872000Y-75000000D01*
X29880754Y-75046523D01*
X29908249Y-75089251D01*
X29950201Y-75117915D01*
X30000000Y-75128000D01*
X31000000Y-75128000D01*
X31046523Y-75119246D01*
X31089251Y-75091751D01*
X31117915Y-75049799D01*
X31128000Y-75000000D01*
X31128000Y-74628000D01*
X32063615Y-74628000D01*
X32063615Y-74800000D01*
X32093459Y-74958607D01*
X32187196Y-75104279D01*
X32330222Y-75202004D01*
X32500000Y-75236385D01*
X33500000Y-75236385D01*
X33658607Y-75206541D01*
X33804279Y-75112804D01*
X33902004Y-74969778D01*
X33936385Y-74800000D01*
X33936385Y-74628000D01*
X37872000Y-74628000D01*
X37872000Y-75000000D01*
X37880754Y-75046523D01*
X37908249Y-75089251D01*
X37950201Y-75117915D01*
X38000000Y-75128000D01*
X39000000Y-75128000D01*
X39046523Y-75119246D01*
X39089251Y-75091751D01*
X39117915Y-75049799D01*
X39128000Y-75000000D01*
X39128000Y-74628000D01*
X40872000Y-74628000D01*
X40872000Y-75000000D01*
X40880754Y-75046523D01*
X40908249Y-75089251D01*
X40950201Y-75117915D01*
X41000000Y-75128000D01*
X42000000Y-75128000D01*
X42046523Y-75119246D01*
X42089251Y-75091751D01*
X42117915Y-75049799D01*
X42128000Y-75000000D01*
X42128000Y-74628000D01*
X47000000Y-74628000D01*
X47049799Y-74617915D01*
X47091751Y-74589251D01*
X47119246Y-74546523D01*
X47128000Y-74500000D01*
X47128000Y-67000000D01*
X47117915Y-66950201D01*
X47089251Y-66908249D01*
X47046523Y-66880754D01*
X47000000Y-66872000D01*
X15128000Y-66872000D01*
X15128000Y-65000000D01*
X15872000Y-65000000D01*
X15872000Y-66000000D01*
X15880754Y-66046523D01*
X15908249Y-66089251D01*
X15950201Y-66117915D01*
X16000000Y-66128000D01*
X17000000Y-66128000D01*
X17046523Y-66119246D01*
X17089251Y-66091751D01*
X17117915Y-66049799D01*
X17128000Y-66000000D01*
X17128000Y-65000000D01*
X18872000Y-65000000D01*
X18872000Y-66000000D01*
X18880754Y-66046523D01*
X18908249Y-66089251D01*
X18950201Y-66117915D01*
X19000000Y-66128000D01*
X20000000Y-66128000D01*
X20046523Y-66119246D01*
X20089251Y-66091751D01*
X20117915Y-66049799D01*
X20128000Y-66000000D01*
X20128000Y-65000000D01*
X26872000Y-65000000D01*
X26872000Y-66000000D01*
X26880754Y-66046523D01*
X26908249Y-66089251D01*
X26950201Y-66117915D01*
X27000000Y-66128000D01*
X28000000Y-66128000D01*
X28046523Y-66119246D01*
X28089251Y-66091751D01*
X28117915Y-66049799D01*
X28128000Y-66000000D01*
X28128000Y-65000000D01*
X29872000Y-65000000D01*
X29872000Y-66000000D01*
X29880754Y-66046523D01*
X29908249Y-66089251D01*
X29950201Y-66117915D01*
X30000000Y-66128000D01*
X31000000Y-66128000D01*
X31046523Y-66119246D01*
X31089251Y-66091751D01*
X31117915Y-66049799D01*
X31128000Y-66000000D01*
X31128000Y-65000000D01*
X37872000Y-65000000D01*
X37872000Y-66000000D01*
X37880754Y-66046523D01*
X37908249Y-66089251D01*
X37950201Y-66117915D01*
X38000000Y-66128000D01*
X39000000Y-66128000D01*
X39046523Y-66119246D01*
X39089251Y-66091751D01*
X39117915Y-66049799D01*
X39128000Y-66000000D01*
X39128000Y-65000000D01*
X40872000Y-65000000D01*
X40872000Y-66000000D01*
X40880754Y-66046523D01*
X40908249Y-66089251D01*
X40950201Y-66117915D01*
X41000000Y-66128000D01*
X42000000Y-66128000D01*
X42046523Y-66119246D01*
X42089251Y-66091751D01*
X42117915Y-66049799D01*
X42128000Y-66000000D01*
X42128000Y-65000000D01*
X42119246Y-64953477D01*
X42091751Y-64910749D01*
X42049799Y-64882085D01*
X42000000Y-64872000D01*
X41000000Y-64872000D01*
X40953477Y-64880754D01*
X40910749Y-64908249D01*
X40882085Y-64950201D01*
X40872000Y-65000000D01*
X39128000Y-65000000D01*
X39119246Y-64953477D01*
X39091751Y-64910749D01*
X39049799Y-64882085D01*
X39000000Y-64872000D01*
X38000000Y-64872000D01*
X37953477Y-64880754D01*
X37910749Y-64908249D01*
X37882085Y-64950201D01*
X37872000Y-65000000D01*
X31128000Y-65000000D01*
X31119246Y-64953477D01*
X31091751Y-64910749D01*
X31049799Y-64882085D01*
X31000000Y-64872000D01*
X30000000Y-64872000D01*
X29953477Y-64880754D01*
X29910749Y-64908249D01*
X29882085Y-64950201D01*
X29872000Y-65000000D01*
X28128000Y-65000000D01*
X28119246Y-64953477D01*
X28091751Y-64910749D01*
X28049799Y-64882085D01*
X28000000Y-64872000D01*
X27000000Y-64872000D01*
X26953477Y-64880754D01*
X26910749Y-64908249D01*
X26882085Y-64950201D01*
X26872000Y-65000000D01*
X20128000Y-65000000D01*
X20119246Y-64953477D01*
X20091751Y-64910749D01*
X20049799Y-64882085D01*
X20000000Y-64872000D01*
X19000000Y-64872000D01*
X18953477Y-64880754D01*
X18910749Y-64908249D01*
X18882085Y-64950201D01*
X18872000Y-65000000D01*
X17128000Y-65000000D01*
X17119246Y-64953477D01*
X17091751Y-64910749D01*
X17049799Y-64882085D01*
X17000000Y-64872000D01*
X16000000Y-64872000D01*
X15953477Y-64880754D01*
X15910749Y-64908249D01*
X15882085Y-64950201D01*
X15872000Y-65000000D01*
X15128000Y-65000000D01*
X15128000Y-61628000D01*
X15872000Y-61628000D01*
X15872000Y-62000000D01*
X15880754Y-62046523D01*
X15908249Y-62089251D01*
X15950201Y-62117915D01*
X16000000Y-62128000D01*
X17000000Y-62128000D01*
X17046523Y-62119246D01*
X17089251Y-62091751D01*
X17117915Y-62049799D01*
X17128000Y-62000000D01*
X17128000Y-61628000D01*
X18872000Y-61628000D01*
X18872000Y-62000000D01*
X18880754Y-62046523D01*
X18908249Y-62089251D01*
X18950201Y-62117915D01*
X19000000Y-62128000D01*
X20000000Y-62128000D01*
X20046523Y-62119246D01*
X20089251Y-62091751D01*
X20117915Y-62049799D01*
X20128000Y-62000000D01*
X20128000Y-61628000D01*
X21063615Y-61628000D01*
X21063615Y-61800000D01*
X21093459Y-61958607D01*
X21187196Y-62104279D01*
X21330222Y-62202004D01*
X21500000Y-62236385D01*
X22500000Y-62236385D01*
X22658607Y-62206541D01*
X22804279Y-62112804D01*
X22902004Y-61969778D01*
X22936385Y-61800000D01*
X22936385Y-61628000D01*
X26872000Y-61628000D01*
X26872000Y-62000000D01*
X26880754Y-62046523D01*
X26908249Y-62089251D01*
X26950201Y-62117915D01*
X27000000Y-62128000D01*
X28000000Y-62128000D01*
X28046523Y-62119246D01*
X28089251Y-62091751D01*
X28117915Y-62049799D01*
X28128000Y-62000000D01*
X28128000Y-61628000D01*
X29872000Y-61628000D01*
X29872000Y-62000000D01*
X29880754Y-62046523D01*
X29908249Y-62089251D01*
X29950201Y-62117915D01*
X30000000Y-62128000D01*
X31000000Y-62128000D01*
X31046523Y-62119246D01*
X31089251Y-62091751D01*
X31117915Y-62049799D01*
X31128000Y-62000000D01*
X31128000Y-61628000D01*
X32063615Y-61628000D01*
X32063615Y-61800000D01*
X32093459Y-61958607D01*
X32187196Y-62104279D01*
X32330222Y-62202004D01*
X32500000Y-62236385D01*
X33500000Y-62236385D01*
X33658607Y-62206541D01*
X33804279Y-62112804D01*
X33902004Y-61969778D01*
X33936385Y-61800000D01*
X33936385Y-61628000D01*
X37872000Y-61628000D01*
X37872000Y-62000000D01*
X37880754Y-62046523D01*
X37908249Y-62089251D01*
X37950201Y-62117915D01*
X38000000Y-62128000D01*
X39000000Y-62128000D01*
X39046523Y-62119246D01*
X39089251Y-62091751D01*
X39117915Y-62049799D01*
X39128000Y-62000000D01*
X39128000Y-61628000D01*
X40872000Y-61628000D01*
X40872000Y-62000000D01*
X40880754Y-62046523D01*
X40908249Y-62089251D01*
X40950201Y-62117915D01*
X41000000Y-62128000D01*
X42000000Y-62128000D01*
X42046523Y-62119246D01*
X42089251Y-62091751D01*
X42117915Y-62049799D01*
X42128000Y-62000000D01*
X42128000Y-61628000D01*
X47000000Y-61628000D01*
X47049799Y-61617915D01*
X47091751Y-61589251D01*
X47119246Y-61546523D01*
X47128000Y-61500000D01*
X47128000Y-54000000D01*
X47117915Y-53950201D01*
X47089251Y-53908249D01*
X47046523Y-53880754D01*
X47000000Y-53872000D01*
X15128000Y-53872000D01*
X15128000Y-52000000D01*
X15872000Y-52000000D01*
X15872000Y-53000000D01*
X15880754Y-53046523D01*
X15908249Y-53089251D01*
X15950201Y-53117915D01*
X16000000Y-53128000D01*
X17000000Y-53128000D01*
X17046523Y-53119246D01*
X17089251Y-53091751D01*
X17117915Y-53049799D01*
X17128000Y-53000000D01*
X17128000Y-52000000D01*
X18872000Y-52000000D01*
X18872000Y-53000000D01*
X18880754Y-53046523D01*
X18908249Y-53089251D01*
X18950201Y-53117915D01*
X19000000Y-53128000D01*
X20000000Y-53128000D01*
X20046523Y-53119246D01*
X20089251Y-53091751D01*
X20117915Y-53049799D01*
X20128000Y-53000000D01*
X20128000Y-52000000D01*
X26872000Y-52000000D01*
X26872000Y-53000000D01*
X26880754Y-53046523D01*
X26908249Y-53089251D01*
X26950201Y-53117915D01*
X27000000Y-53128000D01*
X28000000Y-53128000D01*
X28046523Y-53119246D01*
X28089251Y-53091751D01*
X28117915Y-53049799D01*
X28128000Y-53000000D01*
X28128000Y-52000000D01*
X29872000Y-52000000D01*
X29872000Y-53000000D01*
X29880754Y-53046523D01*
X29908249Y-53089251D01*
X29950201Y-53117915D01*
X30000000Y-53128000D01*
X31000000Y-53128000D01*
X31046523Y-53119246D01*
X31089251Y-53091751D01*
X31117915Y-53049799D01*
X31128000Y-53000000D01*
X31128000Y-52000000D01*
X37872000Y-52000000D01*
X37872000Y-53000000D01*
X37880754Y-53046523D01*
X37908249Y-53089251D01*
X37950201Y-53117915D01*
X38000000Y-53128000D01*
X39000000Y-53128000D01*
X39046523Y-53119246D01*
X39089251Y-53091751D01*
X39117915Y-53049799D01*
X39128000Y-53000000D01*
X39128000Y-52000000D01*
X40872000Y-52000000D01*
X40872000Y-53000000D01*
X40880754Y-53046523D01*
X40908249Y-53089251D01*
X40950201Y-53117915D01*
X41000000Y-53128000D01*
X42000000Y-53128000D01*
X42046523Y-53119246D01*
X42089251Y-53091751D01*
X42117915Y-53049799D01*
X42128000Y-53000000D01*
X42128000Y-52000000D01*
X42119246Y-51953477D01*
X42091751Y-51910749D01*
X42049799Y-51882085D01*
X42000000Y-51872000D01*
X41000000Y-51872000D01*
X40953477Y-51880754D01*
X40910749Y-51908249D01*
X40882085Y-51950201D01*
X40872000Y-52000000D01*
X39128000Y-52000000D01*
X39119246Y-51953477D01*
X39091751Y-51910749D01*
X39049799Y-51882085D01*
X39000000Y-51872000D01*
X38000000Y-51872000D01*
X37953477Y-51880754D01*
X37910749Y-51908249D01*
X37882085Y-51950201D01*
X37872000Y-52000000D01*
X31128000Y-52000000D01*
X31119246Y-51953477D01*
X31091751Y-51910749D01*
X31049799Y-51882085D01*
X31000000Y-51872000D01*
X30000000Y-51872000D01*
X29953477Y-51880754D01*
X29910749Y-51908249D01*
X29882085Y-51950201D01*
X29872000Y-52000000D01*
X28128000Y-52000000D01*
X28119246Y-51953477D01*
X28091751Y-51910749D01*
X28049799Y-51882085D01*
X28000000Y-51872000D01*
X27000000Y-51872000D01*
X26953477Y-51880754D01*
X26910749Y-51908249D01*
X26882085Y-51950201D01*
X26872000Y-52000000D01*
X20128000Y-52000000D01*
X20119246Y-51953477D01*
X20091751Y-51910749D01*
X20049799Y-51882085D01*
X20000000Y-51872000D01*
X19000000Y-51872000D01*
X18953477Y-51880754D01*
X18910749Y-51908249D01*
X18882085Y-51950201D01*
X18872000Y-52000000D01*
X17128000Y-52000000D01*
X17119246Y-51953477D01*
X17091751Y-51910749D01*
X17049799Y-51882085D01*
X17000000Y-51872000D01*
X16000000Y-51872000D01*
X15953477Y-51880754D01*
X15910749Y-51908249D01*
X15882085Y-51950201D01*
X15872000Y-52000000D01*
X15128000Y-52000000D01*
X15128000Y-49128000D01*
X47000000Y-49128000D01*
X47049799Y-49117915D01*
X47091751Y-49089251D01*
X47119246Y-49046523D01*
X47128000Y-49000000D01*
X47128000Y-37500000D01*
X47117915Y-37450201D01*
X47089251Y-37408249D01*
X47046523Y-37380754D01*
X47000000Y-37372000D01*
X37136385Y-37372000D01*
X37136385Y-35850000D01*
X37128000Y-35805438D01*
X37128000Y-34128000D01*
X47000000Y-34128000D01*
X47049799Y-34117915D01*
X47091751Y-34089251D01*
X47119246Y-34046523D01*
X47128000Y-34000000D01*
X47128000Y-23000000D01*
X47117915Y-22950201D01*
X47089251Y-22908249D01*
X47046523Y-22880754D01*
X47000000Y-22872000D01*
X43128000Y-22872000D01*
X43128000Y-22128000D01*
X47000000Y-22128000D01*
X47049799Y-22117915D01*
X47091751Y-22089251D01*
X47119246Y-22046523D01*
X47128000Y-22000000D01*
X47128000Y-16579860D01*
X49071493Y-16579860D01*
X49516315Y-17656412D01*
X50339256Y-18480790D01*
X51415030Y-18927491D01*
X52579860Y-18928507D01*
X53656412Y-18483685D01*
X54480790Y-17660744D01*
X54927491Y-16584970D01*
X54928507Y-15420140D01*
X54483685Y-14343588D01*
X53660744Y-13519210D01*
X52584970Y-13072509D01*
X51420140Y-13071493D01*
X50343588Y-13516315D01*
X49519210Y-14339256D01*
X49072509Y-15415030D01*
X49071493Y-16579860D01*
X47128000Y-16579860D01*
X47128000Y-13500000D01*
X47117915Y-13450201D01*
X47089251Y-13408249D01*
X47046523Y-13380754D01*
X47000000Y-13372000D01*
X37136385Y-13372000D01*
X37136385Y-11850000D01*
X37128000Y-11805438D01*
X37128000Y-10128000D01*
X47000000Y-10128000D01*
X47049799Y-10117915D01*
X47091751Y-10089251D01*
X47119246Y-10046523D01*
X47128000Y-10000000D01*
X47128000Y-8128000D01*
X55872000Y-8128000D01*
X55872000Y-94872000D01*
X55872000Y-94872000D01*
G37*
X55872000Y-94872000D02*
X47128000Y-94872000D01*
X47128000Y-93000000D01*
X47117915Y-92950201D01*
X47089251Y-92908249D01*
X47046523Y-92880754D01*
X47000000Y-92872000D01*
X15128000Y-92872000D01*
X15128000Y-91000000D01*
X15872000Y-91000000D01*
X15872000Y-92000000D01*
X15880754Y-92046523D01*
X15908249Y-92089251D01*
X15950201Y-92117915D01*
X16000000Y-92128000D01*
X17000000Y-92128000D01*
X17046523Y-92119246D01*
X17089251Y-92091751D01*
X17117915Y-92049799D01*
X17128000Y-92000000D01*
X17128000Y-91000000D01*
X18872000Y-91000000D01*
X18872000Y-92000000D01*
X18880754Y-92046523D01*
X18908249Y-92089251D01*
X18950201Y-92117915D01*
X19000000Y-92128000D01*
X20000000Y-92128000D01*
X20046523Y-92119246D01*
X20089251Y-92091751D01*
X20117915Y-92049799D01*
X20128000Y-92000000D01*
X20128000Y-91000000D01*
X26872000Y-91000000D01*
X26872000Y-92000000D01*
X26880754Y-92046523D01*
X26908249Y-92089251D01*
X26950201Y-92117915D01*
X27000000Y-92128000D01*
X28000000Y-92128000D01*
X28046523Y-92119246D01*
X28089251Y-92091751D01*
X28117915Y-92049799D01*
X28128000Y-92000000D01*
X28128000Y-91000000D01*
X29872000Y-91000000D01*
X29872000Y-92000000D01*
X29880754Y-92046523D01*
X29908249Y-92089251D01*
X29950201Y-92117915D01*
X30000000Y-92128000D01*
X31000000Y-92128000D01*
X31046523Y-92119246D01*
X31089251Y-92091751D01*
X31117915Y-92049799D01*
X31128000Y-92000000D01*
X31128000Y-91000000D01*
X37872000Y-91000000D01*
X37872000Y-92000000D01*
X37880754Y-92046523D01*
X37908249Y-92089251D01*
X37950201Y-92117915D01*
X38000000Y-92128000D01*
X39000000Y-92128000D01*
X39046523Y-92119246D01*
X39089251Y-92091751D01*
X39117915Y-92049799D01*
X39128000Y-92000000D01*
X39128000Y-91000000D01*
X40872000Y-91000000D01*
X40872000Y-92000000D01*
X40880754Y-92046523D01*
X40908249Y-92089251D01*
X40950201Y-92117915D01*
X41000000Y-92128000D01*
X42000000Y-92128000D01*
X42046523Y-92119246D01*
X42089251Y-92091751D01*
X42117915Y-92049799D01*
X42128000Y-92000000D01*
X42128000Y-91000000D01*
X42119246Y-90953477D01*
X42091751Y-90910749D01*
X42049799Y-90882085D01*
X42000000Y-90872000D01*
X41000000Y-90872000D01*
X40953477Y-90880754D01*
X40910749Y-90908249D01*
X40882085Y-90950201D01*
X40872000Y-91000000D01*
X39128000Y-91000000D01*
X39119246Y-90953477D01*
X39091751Y-90910749D01*
X39049799Y-90882085D01*
X39000000Y-90872000D01*
X38000000Y-90872000D01*
X37953477Y-90880754D01*
X37910749Y-90908249D01*
X37882085Y-90950201D01*
X37872000Y-91000000D01*
X31128000Y-91000000D01*
X31119246Y-90953477D01*
X31091751Y-90910749D01*
X31049799Y-90882085D01*
X31000000Y-90872000D01*
X30000000Y-90872000D01*
X29953477Y-90880754D01*
X29910749Y-90908249D01*
X29882085Y-90950201D01*
X29872000Y-91000000D01*
X28128000Y-91000000D01*
X28119246Y-90953477D01*
X28091751Y-90910749D01*
X28049799Y-90882085D01*
X28000000Y-90872000D01*
X27000000Y-90872000D01*
X26953477Y-90880754D01*
X26910749Y-90908249D01*
X26882085Y-90950201D01*
X26872000Y-91000000D01*
X20128000Y-91000000D01*
X20119246Y-90953477D01*
X20091751Y-90910749D01*
X20049799Y-90882085D01*
X20000000Y-90872000D01*
X19000000Y-90872000D01*
X18953477Y-90880754D01*
X18910749Y-90908249D01*
X18882085Y-90950201D01*
X18872000Y-91000000D01*
X17128000Y-91000000D01*
X17119246Y-90953477D01*
X17091751Y-90910749D01*
X17049799Y-90882085D01*
X17000000Y-90872000D01*
X16000000Y-90872000D01*
X15953477Y-90880754D01*
X15910749Y-90908249D01*
X15882085Y-90950201D01*
X15872000Y-91000000D01*
X15128000Y-91000000D01*
X15128000Y-87628000D01*
X15872000Y-87628000D01*
X15872000Y-88000000D01*
X15880754Y-88046523D01*
X15908249Y-88089251D01*
X15950201Y-88117915D01*
X16000000Y-88128000D01*
X17000000Y-88128000D01*
X17046523Y-88119246D01*
X17089251Y-88091751D01*
X17117915Y-88049799D01*
X17128000Y-88000000D01*
X17128000Y-87628000D01*
X18872000Y-87628000D01*
X18872000Y-88000000D01*
X18880754Y-88046523D01*
X18908249Y-88089251D01*
X18950201Y-88117915D01*
X19000000Y-88128000D01*
X20000000Y-88128000D01*
X20046523Y-88119246D01*
X20089251Y-88091751D01*
X20117915Y-88049799D01*
X20128000Y-88000000D01*
X20128000Y-87628000D01*
X21063615Y-87628000D01*
X21063615Y-87800000D01*
X21093459Y-87958607D01*
X21187196Y-88104279D01*
X21330222Y-88202004D01*
X21500000Y-88236385D01*
X22500000Y-88236385D01*
X22658607Y-88206541D01*
X22804279Y-88112804D01*
X22902004Y-87969778D01*
X22936385Y-87800000D01*
X22936385Y-87628000D01*
X26872000Y-87628000D01*
X26872000Y-88000000D01*
X26880754Y-88046523D01*
X26908249Y-88089251D01*
X26950201Y-88117915D01*
X27000000Y-88128000D01*
X28000000Y-88128000D01*
X28046523Y-88119246D01*
X28089251Y-88091751D01*
X28117915Y-88049799D01*
X28128000Y-88000000D01*
X28128000Y-87628000D01*
X29872000Y-87628000D01*
X29872000Y-88000000D01*
X29880754Y-88046523D01*
X29908249Y-88089251D01*
X29950201Y-88117915D01*
X30000000Y-88128000D01*
X31000000Y-88128000D01*
X31046523Y-88119246D01*
X31089251Y-88091751D01*
X31117915Y-88049799D01*
X31128000Y-88000000D01*
X31128000Y-87628000D01*
X32063615Y-87628000D01*
X32063615Y-87800000D01*
X32093459Y-87958607D01*
X32187196Y-88104279D01*
X32330222Y-88202004D01*
X32500000Y-88236385D01*
X33500000Y-88236385D01*
X33658607Y-88206541D01*
X33804279Y-88112804D01*
X33902004Y-87969778D01*
X33936385Y-87800000D01*
X33936385Y-87628000D01*
X37872000Y-87628000D01*
X37872000Y-88000000D01*
X37880754Y-88046523D01*
X37908249Y-88089251D01*
X37950201Y-88117915D01*
X38000000Y-88128000D01*
X39000000Y-88128000D01*
X39046523Y-88119246D01*
X39089251Y-88091751D01*
X39117915Y-88049799D01*
X39128000Y-88000000D01*
X39128000Y-87628000D01*
X40872000Y-87628000D01*
X40872000Y-88000000D01*
X40880754Y-88046523D01*
X40908249Y-88089251D01*
X40950201Y-88117915D01*
X41000000Y-88128000D01*
X42000000Y-88128000D01*
X42046523Y-88119246D01*
X42089251Y-88091751D01*
X42117915Y-88049799D01*
X42128000Y-88000000D01*
X42128000Y-87628000D01*
X47000000Y-87628000D01*
X47049799Y-87617915D01*
X47091751Y-87589251D01*
X47119246Y-87546523D01*
X47128000Y-87500000D01*
X47128000Y-84579860D01*
X49071493Y-84579860D01*
X49516315Y-85656412D01*
X50339256Y-86480790D01*
X51415030Y-86927491D01*
X52579860Y-86928507D01*
X53656412Y-86483685D01*
X54480790Y-85660744D01*
X54927491Y-84584970D01*
X54928507Y-83420140D01*
X54483685Y-82343588D01*
X53660744Y-81519210D01*
X52584970Y-81072509D01*
X51420140Y-81071493D01*
X50343588Y-81516315D01*
X49519210Y-82339256D01*
X49072509Y-83415030D01*
X49071493Y-84579860D01*
X47128000Y-84579860D01*
X47128000Y-80000000D01*
X47117915Y-79950201D01*
X47089251Y-79908249D01*
X47046523Y-79880754D01*
X47000000Y-79872000D01*
X15128000Y-79872000D01*
X15128000Y-78000000D01*
X15872000Y-78000000D01*
X15872000Y-79000000D01*
X15880754Y-79046523D01*
X15908249Y-79089251D01*
X15950201Y-79117915D01*
X16000000Y-79128000D01*
X17000000Y-79128000D01*
X17046523Y-79119246D01*
X17089251Y-79091751D01*
X17117915Y-79049799D01*
X17128000Y-79000000D01*
X17128000Y-78000000D01*
X18872000Y-78000000D01*
X18872000Y-79000000D01*
X18880754Y-79046523D01*
X18908249Y-79089251D01*
X18950201Y-79117915D01*
X19000000Y-79128000D01*
X20000000Y-79128000D01*
X20046523Y-79119246D01*
X20089251Y-79091751D01*
X20117915Y-79049799D01*
X20128000Y-79000000D01*
X20128000Y-78000000D01*
X26872000Y-78000000D01*
X26872000Y-79000000D01*
X26880754Y-79046523D01*
X26908249Y-79089251D01*
X26950201Y-79117915D01*
X27000000Y-79128000D01*
X28000000Y-79128000D01*
X28046523Y-79119246D01*
X28089251Y-79091751D01*
X28117915Y-79049799D01*
X28128000Y-79000000D01*
X28128000Y-78000000D01*
X29872000Y-78000000D01*
X29872000Y-79000000D01*
X29880754Y-79046523D01*
X29908249Y-79089251D01*
X29950201Y-79117915D01*
X30000000Y-79128000D01*
X31000000Y-79128000D01*
X31046523Y-79119246D01*
X31089251Y-79091751D01*
X31117915Y-79049799D01*
X31128000Y-79000000D01*
X31128000Y-78000000D01*
X37872000Y-78000000D01*
X37872000Y-79000000D01*
X37880754Y-79046523D01*
X37908249Y-79089251D01*
X37950201Y-79117915D01*
X38000000Y-79128000D01*
X39000000Y-79128000D01*
X39046523Y-79119246D01*
X39089251Y-79091751D01*
X39117915Y-79049799D01*
X39128000Y-79000000D01*
X39128000Y-78000000D01*
X40872000Y-78000000D01*
X40872000Y-79000000D01*
X40880754Y-79046523D01*
X40908249Y-79089251D01*
X40950201Y-79117915D01*
X41000000Y-79128000D01*
X42000000Y-79128000D01*
X42046523Y-79119246D01*
X42089251Y-79091751D01*
X42117915Y-79049799D01*
X42128000Y-79000000D01*
X42128000Y-78000000D01*
X42119246Y-77953477D01*
X42091751Y-77910749D01*
X42049799Y-77882085D01*
X42000000Y-77872000D01*
X41000000Y-77872000D01*
X40953477Y-77880754D01*
X40910749Y-77908249D01*
X40882085Y-77950201D01*
X40872000Y-78000000D01*
X39128000Y-78000000D01*
X39119246Y-77953477D01*
X39091751Y-77910749D01*
X39049799Y-77882085D01*
X39000000Y-77872000D01*
X38000000Y-77872000D01*
X37953477Y-77880754D01*
X37910749Y-77908249D01*
X37882085Y-77950201D01*
X37872000Y-78000000D01*
X31128000Y-78000000D01*
X31119246Y-77953477D01*
X31091751Y-77910749D01*
X31049799Y-77882085D01*
X31000000Y-77872000D01*
X30000000Y-77872000D01*
X29953477Y-77880754D01*
X29910749Y-77908249D01*
X29882085Y-77950201D01*
X29872000Y-78000000D01*
X28128000Y-78000000D01*
X28119246Y-77953477D01*
X28091751Y-77910749D01*
X28049799Y-77882085D01*
X28000000Y-77872000D01*
X27000000Y-77872000D01*
X26953477Y-77880754D01*
X26910749Y-77908249D01*
X26882085Y-77950201D01*
X26872000Y-78000000D01*
X20128000Y-78000000D01*
X20119246Y-77953477D01*
X20091751Y-77910749D01*
X20049799Y-77882085D01*
X20000000Y-77872000D01*
X19000000Y-77872000D01*
X18953477Y-77880754D01*
X18910749Y-77908249D01*
X18882085Y-77950201D01*
X18872000Y-78000000D01*
X17128000Y-78000000D01*
X17119246Y-77953477D01*
X17091751Y-77910749D01*
X17049799Y-77882085D01*
X17000000Y-77872000D01*
X16000000Y-77872000D01*
X15953477Y-77880754D01*
X15910749Y-77908249D01*
X15882085Y-77950201D01*
X15872000Y-78000000D01*
X15128000Y-78000000D01*
X15128000Y-74628000D01*
X15872000Y-74628000D01*
X15872000Y-75000000D01*
X15880754Y-75046523D01*
X15908249Y-75089251D01*
X15950201Y-75117915D01*
X16000000Y-75128000D01*
X17000000Y-75128000D01*
X17046523Y-75119246D01*
X17089251Y-75091751D01*
X17117915Y-75049799D01*
X17128000Y-75000000D01*
X17128000Y-74628000D01*
X18872000Y-74628000D01*
X18872000Y-75000000D01*
X18880754Y-75046523D01*
X18908249Y-75089251D01*
X18950201Y-75117915D01*
X19000000Y-75128000D01*
X20000000Y-75128000D01*
X20046523Y-75119246D01*
X20089251Y-75091751D01*
X20117915Y-75049799D01*
X20128000Y-75000000D01*
X20128000Y-74628000D01*
X21063615Y-74628000D01*
X21063615Y-74800000D01*
X21093459Y-74958607D01*
X21187196Y-75104279D01*
X21330222Y-75202004D01*
X21500000Y-75236385D01*
X22500000Y-75236385D01*
X22658607Y-75206541D01*
X22804279Y-75112804D01*
X22902004Y-74969778D01*
X22936385Y-74800000D01*
X22936385Y-74628000D01*
X26872000Y-74628000D01*
X26872000Y-75000000D01*
X26880754Y-75046523D01*
X26908249Y-75089251D01*
X26950201Y-75117915D01*
X27000000Y-75128000D01*
X28000000Y-75128000D01*
X28046523Y-75119246D01*
X28089251Y-75091751D01*
X28117915Y-75049799D01*
X28128000Y-75000000D01*
X28128000Y-74628000D01*
X29872000Y-74628000D01*
X29872000Y-75000000D01*
X29880754Y-75046523D01*
X29908249Y-75089251D01*
X29950201Y-75117915D01*
X30000000Y-75128000D01*
X31000000Y-75128000D01*
X31046523Y-75119246D01*
X31089251Y-75091751D01*
X31117915Y-75049799D01*
X31128000Y-75000000D01*
X31128000Y-74628000D01*
X32063615Y-74628000D01*
X32063615Y-74800000D01*
X32093459Y-74958607D01*
X32187196Y-75104279D01*
X32330222Y-75202004D01*
X32500000Y-75236385D01*
X33500000Y-75236385D01*
X33658607Y-75206541D01*
X33804279Y-75112804D01*
X33902004Y-74969778D01*
X33936385Y-74800000D01*
X33936385Y-74628000D01*
X37872000Y-74628000D01*
X37872000Y-75000000D01*
X37880754Y-75046523D01*
X37908249Y-75089251D01*
X37950201Y-75117915D01*
X38000000Y-75128000D01*
X39000000Y-75128000D01*
X39046523Y-75119246D01*
X39089251Y-75091751D01*
X39117915Y-75049799D01*
X39128000Y-75000000D01*
X39128000Y-74628000D01*
X40872000Y-74628000D01*
X40872000Y-75000000D01*
X40880754Y-75046523D01*
X40908249Y-75089251D01*
X40950201Y-75117915D01*
X41000000Y-75128000D01*
X42000000Y-75128000D01*
X42046523Y-75119246D01*
X42089251Y-75091751D01*
X42117915Y-75049799D01*
X42128000Y-75000000D01*
X42128000Y-74628000D01*
X47000000Y-74628000D01*
X47049799Y-74617915D01*
X47091751Y-74589251D01*
X47119246Y-74546523D01*
X47128000Y-74500000D01*
X47128000Y-67000000D01*
X47117915Y-66950201D01*
X47089251Y-66908249D01*
X47046523Y-66880754D01*
X47000000Y-66872000D01*
X15128000Y-66872000D01*
X15128000Y-65000000D01*
X15872000Y-65000000D01*
X15872000Y-66000000D01*
X15880754Y-66046523D01*
X15908249Y-66089251D01*
X15950201Y-66117915D01*
X16000000Y-66128000D01*
X17000000Y-66128000D01*
X17046523Y-66119246D01*
X17089251Y-66091751D01*
X17117915Y-66049799D01*
X17128000Y-66000000D01*
X17128000Y-65000000D01*
X18872000Y-65000000D01*
X18872000Y-66000000D01*
X18880754Y-66046523D01*
X18908249Y-66089251D01*
X18950201Y-66117915D01*
X19000000Y-66128000D01*
X20000000Y-66128000D01*
X20046523Y-66119246D01*
X20089251Y-66091751D01*
X20117915Y-66049799D01*
X20128000Y-66000000D01*
X20128000Y-65000000D01*
X26872000Y-65000000D01*
X26872000Y-66000000D01*
X26880754Y-66046523D01*
X26908249Y-66089251D01*
X26950201Y-66117915D01*
X27000000Y-66128000D01*
X28000000Y-66128000D01*
X28046523Y-66119246D01*
X28089251Y-66091751D01*
X28117915Y-66049799D01*
X28128000Y-66000000D01*
X28128000Y-65000000D01*
X29872000Y-65000000D01*
X29872000Y-66000000D01*
X29880754Y-66046523D01*
X29908249Y-66089251D01*
X29950201Y-66117915D01*
X30000000Y-66128000D01*
X31000000Y-66128000D01*
X31046523Y-66119246D01*
X31089251Y-66091751D01*
X31117915Y-66049799D01*
X31128000Y-66000000D01*
X31128000Y-65000000D01*
X37872000Y-65000000D01*
X37872000Y-66000000D01*
X37880754Y-66046523D01*
X37908249Y-66089251D01*
X37950201Y-66117915D01*
X38000000Y-66128000D01*
X39000000Y-66128000D01*
X39046523Y-66119246D01*
X39089251Y-66091751D01*
X39117915Y-66049799D01*
X39128000Y-66000000D01*
X39128000Y-65000000D01*
X40872000Y-65000000D01*
X40872000Y-66000000D01*
X40880754Y-66046523D01*
X40908249Y-66089251D01*
X40950201Y-66117915D01*
X41000000Y-66128000D01*
X42000000Y-66128000D01*
X42046523Y-66119246D01*
X42089251Y-66091751D01*
X42117915Y-66049799D01*
X42128000Y-66000000D01*
X42128000Y-65000000D01*
X42119246Y-64953477D01*
X42091751Y-64910749D01*
X42049799Y-64882085D01*
X42000000Y-64872000D01*
X41000000Y-64872000D01*
X40953477Y-64880754D01*
X40910749Y-64908249D01*
X40882085Y-64950201D01*
X40872000Y-65000000D01*
X39128000Y-65000000D01*
X39119246Y-64953477D01*
X39091751Y-64910749D01*
X39049799Y-64882085D01*
X39000000Y-64872000D01*
X38000000Y-64872000D01*
X37953477Y-64880754D01*
X37910749Y-64908249D01*
X37882085Y-64950201D01*
X37872000Y-65000000D01*
X31128000Y-65000000D01*
X31119246Y-64953477D01*
X31091751Y-64910749D01*
X31049799Y-64882085D01*
X31000000Y-64872000D01*
X30000000Y-64872000D01*
X29953477Y-64880754D01*
X29910749Y-64908249D01*
X29882085Y-64950201D01*
X29872000Y-65000000D01*
X28128000Y-65000000D01*
X28119246Y-64953477D01*
X28091751Y-64910749D01*
X28049799Y-64882085D01*
X28000000Y-64872000D01*
X27000000Y-64872000D01*
X26953477Y-64880754D01*
X26910749Y-64908249D01*
X26882085Y-64950201D01*
X26872000Y-65000000D01*
X20128000Y-65000000D01*
X20119246Y-64953477D01*
X20091751Y-64910749D01*
X20049799Y-64882085D01*
X20000000Y-64872000D01*
X19000000Y-64872000D01*
X18953477Y-64880754D01*
X18910749Y-64908249D01*
X18882085Y-64950201D01*
X18872000Y-65000000D01*
X17128000Y-65000000D01*
X17119246Y-64953477D01*
X17091751Y-64910749D01*
X17049799Y-64882085D01*
X17000000Y-64872000D01*
X16000000Y-64872000D01*
X15953477Y-64880754D01*
X15910749Y-64908249D01*
X15882085Y-64950201D01*
X15872000Y-65000000D01*
X15128000Y-65000000D01*
X15128000Y-61628000D01*
X15872000Y-61628000D01*
X15872000Y-62000000D01*
X15880754Y-62046523D01*
X15908249Y-62089251D01*
X15950201Y-62117915D01*
X16000000Y-62128000D01*
X17000000Y-62128000D01*
X17046523Y-62119246D01*
X17089251Y-62091751D01*
X17117915Y-62049799D01*
X17128000Y-62000000D01*
X17128000Y-61628000D01*
X18872000Y-61628000D01*
X18872000Y-62000000D01*
X18880754Y-62046523D01*
X18908249Y-62089251D01*
X18950201Y-62117915D01*
X19000000Y-62128000D01*
X20000000Y-62128000D01*
X20046523Y-62119246D01*
X20089251Y-62091751D01*
X20117915Y-62049799D01*
X20128000Y-62000000D01*
X20128000Y-61628000D01*
X21063615Y-61628000D01*
X21063615Y-61800000D01*
X21093459Y-61958607D01*
X21187196Y-62104279D01*
X21330222Y-62202004D01*
X21500000Y-62236385D01*
X22500000Y-62236385D01*
X22658607Y-62206541D01*
X22804279Y-62112804D01*
X22902004Y-61969778D01*
X22936385Y-61800000D01*
X22936385Y-61628000D01*
X26872000Y-61628000D01*
X26872000Y-62000000D01*
X26880754Y-62046523D01*
X26908249Y-62089251D01*
X26950201Y-62117915D01*
X27000000Y-62128000D01*
X28000000Y-62128000D01*
X28046523Y-62119246D01*
X28089251Y-62091751D01*
X28117915Y-62049799D01*
X28128000Y-62000000D01*
X28128000Y-61628000D01*
X29872000Y-61628000D01*
X29872000Y-62000000D01*
X29880754Y-62046523D01*
X29908249Y-62089251D01*
X29950201Y-62117915D01*
X30000000Y-62128000D01*
X31000000Y-62128000D01*
X31046523Y-62119246D01*
X31089251Y-62091751D01*
X31117915Y-62049799D01*
X31128000Y-62000000D01*
X31128000Y-61628000D01*
X32063615Y-61628000D01*
X32063615Y-61800000D01*
X32093459Y-61958607D01*
X32187196Y-62104279D01*
X32330222Y-62202004D01*
X32500000Y-62236385D01*
X33500000Y-62236385D01*
X33658607Y-62206541D01*
X33804279Y-62112804D01*
X33902004Y-61969778D01*
X33936385Y-61800000D01*
X33936385Y-61628000D01*
X37872000Y-61628000D01*
X37872000Y-62000000D01*
X37880754Y-62046523D01*
X37908249Y-62089251D01*
X37950201Y-62117915D01*
X38000000Y-62128000D01*
X39000000Y-62128000D01*
X39046523Y-62119246D01*
X39089251Y-62091751D01*
X39117915Y-62049799D01*
X39128000Y-62000000D01*
X39128000Y-61628000D01*
X40872000Y-61628000D01*
X40872000Y-62000000D01*
X40880754Y-62046523D01*
X40908249Y-62089251D01*
X40950201Y-62117915D01*
X41000000Y-62128000D01*
X42000000Y-62128000D01*
X42046523Y-62119246D01*
X42089251Y-62091751D01*
X42117915Y-62049799D01*
X42128000Y-62000000D01*
X42128000Y-61628000D01*
X47000000Y-61628000D01*
X47049799Y-61617915D01*
X47091751Y-61589251D01*
X47119246Y-61546523D01*
X47128000Y-61500000D01*
X47128000Y-54000000D01*
X47117915Y-53950201D01*
X47089251Y-53908249D01*
X47046523Y-53880754D01*
X47000000Y-53872000D01*
X15128000Y-53872000D01*
X15128000Y-52000000D01*
X15872000Y-52000000D01*
X15872000Y-53000000D01*
X15880754Y-53046523D01*
X15908249Y-53089251D01*
X15950201Y-53117915D01*
X16000000Y-53128000D01*
X17000000Y-53128000D01*
X17046523Y-53119246D01*
X17089251Y-53091751D01*
X17117915Y-53049799D01*
X17128000Y-53000000D01*
X17128000Y-52000000D01*
X18872000Y-52000000D01*
X18872000Y-53000000D01*
X18880754Y-53046523D01*
X18908249Y-53089251D01*
X18950201Y-53117915D01*
X19000000Y-53128000D01*
X20000000Y-53128000D01*
X20046523Y-53119246D01*
X20089251Y-53091751D01*
X20117915Y-53049799D01*
X20128000Y-53000000D01*
X20128000Y-52000000D01*
X26872000Y-52000000D01*
X26872000Y-53000000D01*
X26880754Y-53046523D01*
X26908249Y-53089251D01*
X26950201Y-53117915D01*
X27000000Y-53128000D01*
X28000000Y-53128000D01*
X28046523Y-53119246D01*
X28089251Y-53091751D01*
X28117915Y-53049799D01*
X28128000Y-53000000D01*
X28128000Y-52000000D01*
X29872000Y-52000000D01*
X29872000Y-53000000D01*
X29880754Y-53046523D01*
X29908249Y-53089251D01*
X29950201Y-53117915D01*
X30000000Y-53128000D01*
X31000000Y-53128000D01*
X31046523Y-53119246D01*
X31089251Y-53091751D01*
X31117915Y-53049799D01*
X31128000Y-53000000D01*
X31128000Y-52000000D01*
X37872000Y-52000000D01*
X37872000Y-53000000D01*
X37880754Y-53046523D01*
X37908249Y-53089251D01*
X37950201Y-53117915D01*
X38000000Y-53128000D01*
X39000000Y-53128000D01*
X39046523Y-53119246D01*
X39089251Y-53091751D01*
X39117915Y-53049799D01*
X39128000Y-53000000D01*
X39128000Y-52000000D01*
X40872000Y-52000000D01*
X40872000Y-53000000D01*
X40880754Y-53046523D01*
X40908249Y-53089251D01*
X40950201Y-53117915D01*
X41000000Y-53128000D01*
X42000000Y-53128000D01*
X42046523Y-53119246D01*
X42089251Y-53091751D01*
X42117915Y-53049799D01*
X42128000Y-53000000D01*
X42128000Y-52000000D01*
X42119246Y-51953477D01*
X42091751Y-51910749D01*
X42049799Y-51882085D01*
X42000000Y-51872000D01*
X41000000Y-51872000D01*
X40953477Y-51880754D01*
X40910749Y-51908249D01*
X40882085Y-51950201D01*
X40872000Y-52000000D01*
X39128000Y-52000000D01*
X39119246Y-51953477D01*
X39091751Y-51910749D01*
X39049799Y-51882085D01*
X39000000Y-51872000D01*
X38000000Y-51872000D01*
X37953477Y-51880754D01*
X37910749Y-51908249D01*
X37882085Y-51950201D01*
X37872000Y-52000000D01*
X31128000Y-52000000D01*
X31119246Y-51953477D01*
X31091751Y-51910749D01*
X31049799Y-51882085D01*
X31000000Y-51872000D01*
X30000000Y-51872000D01*
X29953477Y-51880754D01*
X29910749Y-51908249D01*
X29882085Y-51950201D01*
X29872000Y-52000000D01*
X28128000Y-52000000D01*
X28119246Y-51953477D01*
X28091751Y-51910749D01*
X28049799Y-51882085D01*
X28000000Y-51872000D01*
X27000000Y-51872000D01*
X26953477Y-51880754D01*
X26910749Y-51908249D01*
X26882085Y-51950201D01*
X26872000Y-52000000D01*
X20128000Y-52000000D01*
X20119246Y-51953477D01*
X20091751Y-51910749D01*
X20049799Y-51882085D01*
X20000000Y-51872000D01*
X19000000Y-51872000D01*
X18953477Y-51880754D01*
X18910749Y-51908249D01*
X18882085Y-51950201D01*
X18872000Y-52000000D01*
X17128000Y-52000000D01*
X17119246Y-51953477D01*
X17091751Y-51910749D01*
X17049799Y-51882085D01*
X17000000Y-51872000D01*
X16000000Y-51872000D01*
X15953477Y-51880754D01*
X15910749Y-51908249D01*
X15882085Y-51950201D01*
X15872000Y-52000000D01*
X15128000Y-52000000D01*
X15128000Y-49128000D01*
X47000000Y-49128000D01*
X47049799Y-49117915D01*
X47091751Y-49089251D01*
X47119246Y-49046523D01*
X47128000Y-49000000D01*
X47128000Y-37500000D01*
X47117915Y-37450201D01*
X47089251Y-37408249D01*
X47046523Y-37380754D01*
X47000000Y-37372000D01*
X37136385Y-37372000D01*
X37136385Y-35850000D01*
X37128000Y-35805438D01*
X37128000Y-34128000D01*
X47000000Y-34128000D01*
X47049799Y-34117915D01*
X47091751Y-34089251D01*
X47119246Y-34046523D01*
X47128000Y-34000000D01*
X47128000Y-23000000D01*
X47117915Y-22950201D01*
X47089251Y-22908249D01*
X47046523Y-22880754D01*
X47000000Y-22872000D01*
X43128000Y-22872000D01*
X43128000Y-22128000D01*
X47000000Y-22128000D01*
X47049799Y-22117915D01*
X47091751Y-22089251D01*
X47119246Y-22046523D01*
X47128000Y-22000000D01*
X47128000Y-16579860D01*
X49071493Y-16579860D01*
X49516315Y-17656412D01*
X50339256Y-18480790D01*
X51415030Y-18927491D01*
X52579860Y-18928507D01*
X53656412Y-18483685D01*
X54480790Y-17660744D01*
X54927491Y-16584970D01*
X54928507Y-15420140D01*
X54483685Y-14343588D01*
X53660744Y-13519210D01*
X52584970Y-13072509D01*
X51420140Y-13071493D01*
X50343588Y-13516315D01*
X49519210Y-14339256D01*
X49072509Y-15415030D01*
X49071493Y-16579860D01*
X47128000Y-16579860D01*
X47128000Y-13500000D01*
X47117915Y-13450201D01*
X47089251Y-13408249D01*
X47046523Y-13380754D01*
X47000000Y-13372000D01*
X37136385Y-13372000D01*
X37136385Y-11850000D01*
X37128000Y-11805438D01*
X37128000Y-10128000D01*
X47000000Y-10128000D01*
X47049799Y-10117915D01*
X47091751Y-10089251D01*
X47119246Y-10046523D01*
X47128000Y-10000000D01*
X47128000Y-8128000D01*
X55872000Y-8128000D01*
X55872000Y-94872000D01*
G36*
X37672000Y-2497000D02*
X35450000Y-2497000D01*
X35400201Y-2507085D01*
X35358249Y-2535749D01*
X35330754Y-2578477D01*
X35322000Y-2625000D01*
X35322000Y-5650000D01*
X35332085Y-5699799D01*
X35360749Y-5741751D01*
X35403477Y-5769246D01*
X35450000Y-5778000D01*
X37672000Y-5778000D01*
X37672000Y-9222665D01*
X33999333Y-9241794D01*
X33949587Y-9252138D01*
X33907785Y-9281020D01*
X33880513Y-9323891D01*
X33872000Y-9369792D01*
X33872000Y-25350000D01*
X33882085Y-25399799D01*
X33910749Y-25441751D01*
X33953477Y-25469246D01*
X34000000Y-25478000D01*
X37872000Y-25478000D01*
X37872000Y-26472000D01*
X35450000Y-26472000D01*
X35400201Y-26482085D01*
X35358249Y-26510749D01*
X35330754Y-26553477D01*
X35322000Y-26600000D01*
X35322000Y-29650000D01*
X35332085Y-29699799D01*
X35360749Y-29741751D01*
X35403477Y-29769246D01*
X35450000Y-29778000D01*
X37872000Y-29778000D01*
X37872000Y-33222000D01*
X34000000Y-33222000D01*
X33950201Y-33232085D01*
X33908249Y-33260749D01*
X33880754Y-33303477D01*
X33872000Y-33350000D01*
X33872000Y-37872000D01*
X24128000Y-37872000D01*
X24128000Y-37500000D01*
X24117915Y-37450201D01*
X24089251Y-37408249D01*
X24046523Y-37380754D01*
X24000000Y-37372000D01*
X14136385Y-37372000D01*
X14136385Y-35850000D01*
X14128000Y-35805438D01*
X14128000Y-34128000D01*
X24000000Y-34128000D01*
X24049799Y-34117915D01*
X24091751Y-34089251D01*
X24119246Y-34046523D01*
X24128000Y-34000000D01*
X24128000Y-23000000D01*
X24117915Y-22950201D01*
X24089251Y-22908249D01*
X24046523Y-22880754D01*
X24000000Y-22872000D01*
X19628000Y-22872000D01*
X19628000Y-22128000D01*
X24000000Y-22128000D01*
X24049799Y-22117915D01*
X24091751Y-22089251D01*
X24119246Y-22046523D01*
X24128000Y-22000000D01*
X24128000Y-13500000D01*
X24117915Y-13450201D01*
X24089251Y-13408249D01*
X24046523Y-13380754D01*
X24000000Y-13372000D01*
X14136385Y-13372000D01*
X14136385Y-11850000D01*
X14128000Y-11805438D01*
X14128000Y-10128000D01*
X24000000Y-10128000D01*
X24049799Y-10117915D01*
X24091751Y-10089251D01*
X24119246Y-10046523D01*
X24128000Y-10000000D01*
X24128000Y-7579860D01*
X26071493Y-7579860D01*
X26516315Y-8656412D01*
X27339256Y-9480790D01*
X28415030Y-9927491D01*
X29579860Y-9928507D01*
X30656412Y-9483685D01*
X31480790Y-8660744D01*
X31927491Y-7584970D01*
X31928507Y-6420140D01*
X31483685Y-5343588D01*
X30660744Y-4519210D01*
X29584970Y-4072509D01*
X28420140Y-4071493D01*
X27343588Y-4516315D01*
X26519210Y-5339256D01*
X26072509Y-6415030D01*
X26071493Y-7579860D01*
X24128000Y-7579860D01*
X24128000Y-2128000D01*
X33000000Y-2128000D01*
X33049799Y-2117915D01*
X33091751Y-2089251D01*
X33119246Y-2046523D01*
X33128000Y-2000000D01*
X33128000Y-1502335D01*
X37672000Y-1478668D01*
X37672000Y-2497000D01*
X37672000Y-2497000D01*
G37*
X37672000Y-2497000D02*
X35450000Y-2497000D01*
X35400201Y-2507085D01*
X35358249Y-2535749D01*
X35330754Y-2578477D01*
X35322000Y-2625000D01*
X35322000Y-5650000D01*
X35332085Y-5699799D01*
X35360749Y-5741751D01*
X35403477Y-5769246D01*
X35450000Y-5778000D01*
X37672000Y-5778000D01*
X37672000Y-9222665D01*
X33999333Y-9241794D01*
X33949587Y-9252138D01*
X33907785Y-9281020D01*
X33880513Y-9323891D01*
X33872000Y-9369792D01*
X33872000Y-25350000D01*
X33882085Y-25399799D01*
X33910749Y-25441751D01*
X33953477Y-25469246D01*
X34000000Y-25478000D01*
X37872000Y-25478000D01*
X37872000Y-26472000D01*
X35450000Y-26472000D01*
X35400201Y-26482085D01*
X35358249Y-26510749D01*
X35330754Y-26553477D01*
X35322000Y-26600000D01*
X35322000Y-29650000D01*
X35332085Y-29699799D01*
X35360749Y-29741751D01*
X35403477Y-29769246D01*
X35450000Y-29778000D01*
X37872000Y-29778000D01*
X37872000Y-33222000D01*
X34000000Y-33222000D01*
X33950201Y-33232085D01*
X33908249Y-33260749D01*
X33880754Y-33303477D01*
X33872000Y-33350000D01*
X33872000Y-37872000D01*
X24128000Y-37872000D01*
X24128000Y-37500000D01*
X24117915Y-37450201D01*
X24089251Y-37408249D01*
X24046523Y-37380754D01*
X24000000Y-37372000D01*
X14136385Y-37372000D01*
X14136385Y-35850000D01*
X14128000Y-35805438D01*
X14128000Y-34128000D01*
X24000000Y-34128000D01*
X24049799Y-34117915D01*
X24091751Y-34089251D01*
X24119246Y-34046523D01*
X24128000Y-34000000D01*
X24128000Y-23000000D01*
X24117915Y-22950201D01*
X24089251Y-22908249D01*
X24046523Y-22880754D01*
X24000000Y-22872000D01*
X19628000Y-22872000D01*
X19628000Y-22128000D01*
X24000000Y-22128000D01*
X24049799Y-22117915D01*
X24091751Y-22089251D01*
X24119246Y-22046523D01*
X24128000Y-22000000D01*
X24128000Y-13500000D01*
X24117915Y-13450201D01*
X24089251Y-13408249D01*
X24046523Y-13380754D01*
X24000000Y-13372000D01*
X14136385Y-13372000D01*
X14136385Y-11850000D01*
X14128000Y-11805438D01*
X14128000Y-10128000D01*
X24000000Y-10128000D01*
X24049799Y-10117915D01*
X24091751Y-10089251D01*
X24119246Y-10046523D01*
X24128000Y-10000000D01*
X24128000Y-7579860D01*
X26071493Y-7579860D01*
X26516315Y-8656412D01*
X27339256Y-9480790D01*
X28415030Y-9927491D01*
X29579860Y-9928507D01*
X30656412Y-9483685D01*
X31480790Y-8660744D01*
X31927491Y-7584970D01*
X31928507Y-6420140D01*
X31483685Y-5343588D01*
X30660744Y-4519210D01*
X29584970Y-4072509D01*
X28420140Y-4071493D01*
X27343588Y-4516315D01*
X26519210Y-5339256D01*
X26072509Y-6415030D01*
X26071493Y-7579860D01*
X24128000Y-7579860D01*
X24128000Y-2128000D01*
X33000000Y-2128000D01*
X33049799Y-2117915D01*
X33091751Y-2089251D01*
X33119246Y-2046523D01*
X33128000Y-2000000D01*
X33128000Y-1502335D01*
X37672000Y-1478668D01*
X37672000Y-2497000D01*
M02*
