G04 #@! TF.FileFunction,Legend,Top*
%FSLAX46Y46*%
G04 Gerber Fmt 4.6, Leading zero omitted, Abs format (unit mm)*
G04 Created by KiCad (PCBNEW 4.0.7) date 04/16/18 09:07:38*
%MOMM*%
%LPD*%
G01*
G04 APERTURE LIST*
%ADD10C,0.100000*%
%ADD11C,0.120000*%
%ADD12C,0.150000*%
G04 APERTURE END LIST*
D10*
D11*
X24550000Y-85710000D02*
X27440000Y-85710000D01*
X33450000Y-85710000D02*
X30560000Y-85710000D01*
X34210000Y-75290000D02*
X30560000Y-75290000D01*
X23790000Y-75290000D02*
X27440000Y-75290000D01*
X34210000Y-75290000D02*
X34210000Y-84950000D01*
X34210000Y-84950000D02*
X33450000Y-85710000D01*
X24550000Y-85710000D02*
X23790000Y-84950000D01*
X23790000Y-84950000D02*
X23790000Y-75290000D01*
X35550000Y-85710000D02*
X38440000Y-85710000D01*
X44450000Y-85710000D02*
X41560000Y-85710000D01*
X45210000Y-75290000D02*
X41560000Y-75290000D01*
X34790000Y-75290000D02*
X38440000Y-75290000D01*
X45210000Y-75290000D02*
X45210000Y-84950000D01*
X45210000Y-84950000D02*
X44450000Y-85710000D01*
X35550000Y-85710000D02*
X34790000Y-84950000D01*
X34790000Y-84950000D02*
X34790000Y-75290000D01*
X13550000Y-98710000D02*
X16440000Y-98710000D01*
X22450000Y-98710000D02*
X19560000Y-98710000D01*
X23210000Y-88290000D02*
X19560000Y-88290000D01*
X12790000Y-88290000D02*
X16440000Y-88290000D01*
X23210000Y-88290000D02*
X23210000Y-97950000D01*
X23210000Y-97950000D02*
X22450000Y-98710000D01*
X13550000Y-98710000D02*
X12790000Y-97950000D01*
X12790000Y-97950000D02*
X12790000Y-88290000D01*
X13550000Y-85710000D02*
X16440000Y-85710000D01*
X22450000Y-85710000D02*
X19560000Y-85710000D01*
X23210000Y-75290000D02*
X19560000Y-75290000D01*
X12790000Y-75290000D02*
X16440000Y-75290000D01*
X23210000Y-75290000D02*
X23210000Y-84950000D01*
X23210000Y-84950000D02*
X22450000Y-85710000D01*
X13550000Y-85710000D02*
X12790000Y-84950000D01*
X12790000Y-84950000D02*
X12790000Y-75290000D01*
X13550000Y-72710000D02*
X16440000Y-72710000D01*
X22450000Y-72710000D02*
X19560000Y-72710000D01*
X23210000Y-62290000D02*
X19560000Y-62290000D01*
X12790000Y-62290000D02*
X16440000Y-62290000D01*
X23210000Y-62290000D02*
X23210000Y-71950000D01*
X23210000Y-71950000D02*
X22450000Y-72710000D01*
X13550000Y-72710000D02*
X12790000Y-71950000D01*
X12790000Y-71950000D02*
X12790000Y-62290000D01*
X13550000Y-59710000D02*
X16440000Y-59710000D01*
X22450000Y-59710000D02*
X19560000Y-59710000D01*
X23210000Y-49290000D02*
X19560000Y-49290000D01*
X12790000Y-49290000D02*
X16440000Y-49290000D01*
X23210000Y-49290000D02*
X23210000Y-58950000D01*
X23210000Y-58950000D02*
X22450000Y-59710000D01*
X13550000Y-59710000D02*
X12790000Y-58950000D01*
X12790000Y-58950000D02*
X12790000Y-49290000D01*
X24550000Y-98710000D02*
X27440000Y-98710000D01*
X33450000Y-98710000D02*
X30560000Y-98710000D01*
X34210000Y-88290000D02*
X30560000Y-88290000D01*
X23790000Y-88290000D02*
X27440000Y-88290000D01*
X34210000Y-88290000D02*
X34210000Y-97950000D01*
X34210000Y-97950000D02*
X33450000Y-98710000D01*
X24550000Y-98710000D02*
X23790000Y-97950000D01*
X23790000Y-97950000D02*
X23790000Y-88290000D01*
X24550000Y-72710000D02*
X27440000Y-72710000D01*
X33450000Y-72710000D02*
X30560000Y-72710000D01*
X34210000Y-62290000D02*
X30560000Y-62290000D01*
X23790000Y-62290000D02*
X27440000Y-62290000D01*
X34210000Y-62290000D02*
X34210000Y-71950000D01*
X34210000Y-71950000D02*
X33450000Y-72710000D01*
X24550000Y-72710000D02*
X23790000Y-71950000D01*
X23790000Y-71950000D02*
X23790000Y-62290000D01*
X24550000Y-59710000D02*
X27440000Y-59710000D01*
X33450000Y-59710000D02*
X30560000Y-59710000D01*
X34210000Y-49290000D02*
X30560000Y-49290000D01*
X23790000Y-49290000D02*
X27440000Y-49290000D01*
X34210000Y-49290000D02*
X34210000Y-58950000D01*
X34210000Y-58950000D02*
X33450000Y-59710000D01*
X24550000Y-59710000D02*
X23790000Y-58950000D01*
X23790000Y-58950000D02*
X23790000Y-49290000D01*
X35550000Y-98710000D02*
X38440000Y-98710000D01*
X44450000Y-98710000D02*
X41560000Y-98710000D01*
X45210000Y-88290000D02*
X41560000Y-88290000D01*
X34790000Y-88290000D02*
X38440000Y-88290000D01*
X45210000Y-88290000D02*
X45210000Y-97950000D01*
X45210000Y-97950000D02*
X44450000Y-98710000D01*
X35550000Y-98710000D02*
X34790000Y-97950000D01*
X34790000Y-97950000D02*
X34790000Y-88290000D01*
X35550000Y-72710000D02*
X38440000Y-72710000D01*
X44450000Y-72710000D02*
X41560000Y-72710000D01*
X45210000Y-62290000D02*
X41560000Y-62290000D01*
X34790000Y-62290000D02*
X38440000Y-62290000D01*
X45210000Y-62290000D02*
X45210000Y-71950000D01*
X45210000Y-71950000D02*
X44450000Y-72710000D01*
X35550000Y-72710000D02*
X34790000Y-71950000D01*
X34790000Y-71950000D02*
X34790000Y-62290000D01*
X35550000Y-59710000D02*
X38440000Y-59710000D01*
X44450000Y-59710000D02*
X41560000Y-59710000D01*
X45210000Y-49290000D02*
X41560000Y-49290000D01*
X34790000Y-49290000D02*
X38440000Y-49290000D01*
X45210000Y-49290000D02*
X45210000Y-58950000D01*
X45210000Y-58950000D02*
X44450000Y-59710000D01*
X35550000Y-59710000D02*
X34790000Y-58950000D01*
X34790000Y-58950000D02*
X34790000Y-49290000D01*
X15100000Y-45000000D02*
X20800000Y-45000000D01*
X20800000Y-45000000D02*
X20800000Y-42000000D01*
X20800000Y-42000000D02*
X15100000Y-42000000D01*
X15100000Y-21000000D02*
X20800000Y-21000000D01*
X20800000Y-21000000D02*
X20800000Y-18000000D01*
X20800000Y-18000000D02*
X15100000Y-18000000D01*
X21000000Y-40250000D02*
X21000000Y-44550000D01*
X21000000Y-44550000D02*
X23000000Y-44550000D01*
X23000000Y-44550000D02*
X23000000Y-40250000D01*
X21000000Y-16250000D02*
X21000000Y-20550000D01*
X21000000Y-20550000D02*
X23000000Y-20550000D01*
X23000000Y-20550000D02*
X23000000Y-16250000D01*
X38100000Y-45000000D02*
X43800000Y-45000000D01*
X43800000Y-45000000D02*
X43800000Y-42000000D01*
X43800000Y-42000000D02*
X38100000Y-42000000D01*
X38100000Y-21000000D02*
X43800000Y-21000000D01*
X43800000Y-21000000D02*
X43800000Y-18000000D01*
X43800000Y-18000000D02*
X38100000Y-18000000D01*
X44000000Y-40250000D02*
X44000000Y-44550000D01*
X44000000Y-44550000D02*
X46000000Y-44550000D01*
X46000000Y-44550000D02*
X46000000Y-40250000D01*
X44000000Y-16250000D02*
X44000000Y-20550000D01*
X44000000Y-20550000D02*
X46000000Y-20550000D01*
X46000000Y-20550000D02*
X46000000Y-16250000D01*
D12*
X12100000Y-39050000D02*
X13800000Y-39050000D01*
X12100000Y-24950000D02*
X12100000Y-39050000D01*
X22900000Y-35950000D02*
X22900000Y-27950000D01*
X12100000Y-15050000D02*
X13800000Y-15050000D01*
X12100000Y-950000D02*
X12100000Y-15050000D01*
X22900000Y-11950000D02*
X22900000Y-3950000D01*
X35100000Y-39050000D02*
X36800000Y-39050000D01*
X35100000Y-24950000D02*
X35100000Y-39050000D01*
X45900000Y-35950000D02*
X45900000Y-27950000D01*
X35100000Y-15050000D02*
X36800000Y-15050000D01*
X35100000Y-950000D02*
X35100000Y-15050000D01*
X45900000Y-11950000D02*
X45900000Y-3950000D01*
D11*
X11930000Y-42500000D02*
X11930000Y-40500000D01*
X14070000Y-40500000D02*
X14070000Y-42500000D01*
X11930000Y-18500000D02*
X11930000Y-16500000D01*
X14070000Y-16500000D02*
X14070000Y-18500000D01*
X16500000Y-39430000D02*
X18500000Y-39430000D01*
X18500000Y-41570000D02*
X16500000Y-41570000D01*
X16500000Y-15430000D02*
X18500000Y-15430000D01*
X18500000Y-17570000D02*
X16500000Y-17570000D01*
X34930000Y-42500000D02*
X34930000Y-40500000D01*
X37070000Y-40500000D02*
X37070000Y-42500000D01*
X34930000Y-18500000D02*
X34930000Y-16500000D01*
X37070000Y-16500000D02*
X37070000Y-18500000D01*
X39500000Y-39430000D02*
X41500000Y-39430000D01*
X41500000Y-41570000D02*
X39500000Y-41570000D01*
X39500000Y-15430000D02*
X41500000Y-15430000D01*
X41500000Y-17570000D02*
X39500000Y-17570000D01*
X24500000Y-85980000D02*
X22500000Y-85980000D01*
X22500000Y-88020000D02*
X24500000Y-88020000D01*
X35500000Y-85980000D02*
X33500000Y-85980000D01*
X33500000Y-88020000D02*
X35500000Y-88020000D01*
X24500000Y-72980000D02*
X22500000Y-72980000D01*
X22500000Y-75020000D02*
X24500000Y-75020000D01*
X35500000Y-72980000D02*
X33500000Y-72980000D01*
X33500000Y-75020000D02*
X35500000Y-75020000D01*
X24500000Y-59980000D02*
X22500000Y-59980000D01*
X22500000Y-62020000D02*
X24500000Y-62020000D01*
X35500000Y-59980000D02*
X33500000Y-59980000D01*
X33500000Y-62020000D02*
X35500000Y-62020000D01*
D12*
X12250000Y-45500000D02*
X12250000Y-47500000D01*
X12250000Y-47500000D02*
X15750000Y-47500000D01*
X15750000Y-47500000D02*
X15750000Y-45500000D01*
X15750000Y-45500000D02*
X12250000Y-45500000D01*
X38750000Y-45500000D02*
X35250000Y-45500000D01*
X35250000Y-45500000D02*
X35250000Y-47500000D01*
X35250000Y-47500000D02*
X38750000Y-47500000D01*
X38750000Y-47500000D02*
X38750000Y-45500000D01*
X42250000Y-21500000D02*
X45750000Y-21500000D01*
X45750000Y-21500000D02*
X45750000Y-23500000D01*
X45750000Y-23500000D02*
X42250000Y-23500000D01*
X42250000Y-23500000D02*
X42250000Y-21500000D01*
X35250000Y-21500000D02*
X35250000Y-23500000D01*
X35250000Y-23500000D02*
X38750000Y-23500000D01*
X38750000Y-23500000D02*
X38750000Y-21500000D01*
X38750000Y-21500000D02*
X35250000Y-21500000D01*
X19250000Y-21500000D02*
X22750000Y-21500000D01*
X22750000Y-21500000D02*
X22750000Y-23500000D01*
X22750000Y-23500000D02*
X19250000Y-23500000D01*
X19250000Y-23500000D02*
X19250000Y-21500000D01*
X12250000Y-21500000D02*
X15750000Y-21500000D01*
X15750000Y-21500000D02*
X15750000Y-23500000D01*
X15750000Y-23500000D02*
X12250000Y-23500000D01*
X12250000Y-23500000D02*
X12250000Y-21500000D01*
X28452381Y-3761905D02*
X29261905Y-3761905D01*
X29357143Y-3714286D01*
X29404762Y-3666667D01*
X29452381Y-3571429D01*
X29452381Y-3380952D01*
X29404762Y-3285714D01*
X29357143Y-3238095D01*
X29261905Y-3190476D01*
X28452381Y-3190476D01*
X28547619Y-2761905D02*
X28500000Y-2714286D01*
X28452381Y-2619048D01*
X28452381Y-2380952D01*
X28500000Y-2285714D01*
X28547619Y-2238095D01*
X28642857Y-2190476D01*
X28738095Y-2190476D01*
X28880952Y-2238095D01*
X29452381Y-2809524D01*
X29452381Y-2190476D01*
X35817143Y-80666666D02*
X35864762Y-80714285D01*
X35912381Y-80857142D01*
X35912381Y-80952380D01*
X35864762Y-81095238D01*
X35769524Y-81190476D01*
X35674286Y-81238095D01*
X35483810Y-81285714D01*
X35340952Y-81285714D01*
X35150476Y-81238095D01*
X35055238Y-81190476D01*
X34960000Y-81095238D01*
X34912381Y-80952380D01*
X34912381Y-80857142D01*
X34960000Y-80714285D01*
X35007619Y-80666666D01*
X34912381Y-79809523D02*
X34912381Y-80000000D01*
X34960000Y-80095238D01*
X35007619Y-80142857D01*
X35150476Y-80238095D01*
X35340952Y-80285714D01*
X35721905Y-80285714D01*
X35817143Y-80238095D01*
X35864762Y-80190476D01*
X35912381Y-80095238D01*
X35912381Y-79904761D01*
X35864762Y-79809523D01*
X35817143Y-79761904D01*
X35721905Y-79714285D01*
X35483810Y-79714285D01*
X35388571Y-79761904D01*
X35340952Y-79809523D01*
X35293333Y-79904761D01*
X35293333Y-80095238D01*
X35340952Y-80190476D01*
X35388571Y-80238095D01*
X35483810Y-80285714D01*
X34041429Y-86660952D02*
X34041429Y-85899047D01*
X34422381Y-86279999D02*
X33660476Y-86279999D01*
X46817143Y-81142857D02*
X46864762Y-81190476D01*
X46912381Y-81333333D01*
X46912381Y-81428571D01*
X46864762Y-81571429D01*
X46769524Y-81666667D01*
X46674286Y-81714286D01*
X46483810Y-81761905D01*
X46340952Y-81761905D01*
X46150476Y-81714286D01*
X46055238Y-81666667D01*
X45960000Y-81571429D01*
X45912381Y-81428571D01*
X45912381Y-81333333D01*
X45960000Y-81190476D01*
X46007619Y-81142857D01*
X46912381Y-80190476D02*
X46912381Y-80761905D01*
X46912381Y-80476191D02*
X45912381Y-80476191D01*
X46055238Y-80571429D01*
X46150476Y-80666667D01*
X46198095Y-80761905D01*
X45912381Y-79571429D02*
X45912381Y-79476190D01*
X45960000Y-79380952D01*
X46007619Y-79333333D01*
X46102857Y-79285714D01*
X46293333Y-79238095D01*
X46531429Y-79238095D01*
X46721905Y-79285714D01*
X46817143Y-79333333D01*
X46864762Y-79380952D01*
X46912381Y-79476190D01*
X46912381Y-79571429D01*
X46864762Y-79666667D01*
X46817143Y-79714286D01*
X46721905Y-79761905D01*
X46531429Y-79809524D01*
X46293333Y-79809524D01*
X46102857Y-79761905D01*
X46007619Y-79714286D01*
X45960000Y-79666667D01*
X45912381Y-79571429D01*
X45041429Y-86660952D02*
X45041429Y-85899047D01*
X45422381Y-86279999D02*
X44660476Y-86279999D01*
X24817143Y-93666666D02*
X24864762Y-93714285D01*
X24912381Y-93857142D01*
X24912381Y-93952380D01*
X24864762Y-94095238D01*
X24769524Y-94190476D01*
X24674286Y-94238095D01*
X24483810Y-94285714D01*
X24340952Y-94285714D01*
X24150476Y-94238095D01*
X24055238Y-94190476D01*
X23960000Y-94095238D01*
X23912381Y-93952380D01*
X23912381Y-93857142D01*
X23960000Y-93714285D01*
X24007619Y-93666666D01*
X24912381Y-92714285D02*
X24912381Y-93285714D01*
X24912381Y-93000000D02*
X23912381Y-93000000D01*
X24055238Y-93095238D01*
X24150476Y-93190476D01*
X24198095Y-93285714D01*
X23041429Y-99660952D02*
X23041429Y-98899047D01*
X23422381Y-99279999D02*
X22660476Y-99279999D01*
X24817143Y-80666666D02*
X24864762Y-80714285D01*
X24912381Y-80857142D01*
X24912381Y-80952380D01*
X24864762Y-81095238D01*
X24769524Y-81190476D01*
X24674286Y-81238095D01*
X24483810Y-81285714D01*
X24340952Y-81285714D01*
X24150476Y-81238095D01*
X24055238Y-81190476D01*
X23960000Y-81095238D01*
X23912381Y-80952380D01*
X23912381Y-80857142D01*
X23960000Y-80714285D01*
X24007619Y-80666666D01*
X24007619Y-80285714D02*
X23960000Y-80238095D01*
X23912381Y-80142857D01*
X23912381Y-79904761D01*
X23960000Y-79809523D01*
X24007619Y-79761904D01*
X24102857Y-79714285D01*
X24198095Y-79714285D01*
X24340952Y-79761904D01*
X24912381Y-80333333D01*
X24912381Y-79714285D01*
X23041429Y-86660952D02*
X23041429Y-85899047D01*
X23422381Y-86279999D02*
X22660476Y-86279999D01*
X24817143Y-67666666D02*
X24864762Y-67714285D01*
X24912381Y-67857142D01*
X24912381Y-67952380D01*
X24864762Y-68095238D01*
X24769524Y-68190476D01*
X24674286Y-68238095D01*
X24483810Y-68285714D01*
X24340952Y-68285714D01*
X24150476Y-68238095D01*
X24055238Y-68190476D01*
X23960000Y-68095238D01*
X23912381Y-67952380D01*
X23912381Y-67857142D01*
X23960000Y-67714285D01*
X24007619Y-67666666D01*
X23912381Y-67333333D02*
X23912381Y-66714285D01*
X24293333Y-67047619D01*
X24293333Y-66904761D01*
X24340952Y-66809523D01*
X24388571Y-66761904D01*
X24483810Y-66714285D01*
X24721905Y-66714285D01*
X24817143Y-66761904D01*
X24864762Y-66809523D01*
X24912381Y-66904761D01*
X24912381Y-67190476D01*
X24864762Y-67285714D01*
X24817143Y-67333333D01*
X23041429Y-73660952D02*
X23041429Y-72899047D01*
X23422381Y-73279999D02*
X22660476Y-73279999D01*
X24817143Y-54666666D02*
X24864762Y-54714285D01*
X24912381Y-54857142D01*
X24912381Y-54952380D01*
X24864762Y-55095238D01*
X24769524Y-55190476D01*
X24674286Y-55238095D01*
X24483810Y-55285714D01*
X24340952Y-55285714D01*
X24150476Y-55238095D01*
X24055238Y-55190476D01*
X23960000Y-55095238D01*
X23912381Y-54952380D01*
X23912381Y-54857142D01*
X23960000Y-54714285D01*
X24007619Y-54666666D01*
X24245714Y-53809523D02*
X24912381Y-53809523D01*
X23864762Y-54047619D02*
X24579048Y-54285714D01*
X24579048Y-53666666D01*
X23041429Y-60660952D02*
X23041429Y-59899047D01*
X23422381Y-60279999D02*
X22660476Y-60279999D01*
X35817143Y-93666666D02*
X35864762Y-93714285D01*
X35912381Y-93857142D01*
X35912381Y-93952380D01*
X35864762Y-94095238D01*
X35769524Y-94190476D01*
X35674286Y-94238095D01*
X35483810Y-94285714D01*
X35340952Y-94285714D01*
X35150476Y-94238095D01*
X35055238Y-94190476D01*
X34960000Y-94095238D01*
X34912381Y-93952380D01*
X34912381Y-93857142D01*
X34960000Y-93714285D01*
X35007619Y-93666666D01*
X34912381Y-92761904D02*
X34912381Y-93238095D01*
X35388571Y-93285714D01*
X35340952Y-93238095D01*
X35293333Y-93142857D01*
X35293333Y-92904761D01*
X35340952Y-92809523D01*
X35388571Y-92761904D01*
X35483810Y-92714285D01*
X35721905Y-92714285D01*
X35817143Y-92761904D01*
X35864762Y-92809523D01*
X35912381Y-92904761D01*
X35912381Y-93142857D01*
X35864762Y-93238095D01*
X35817143Y-93285714D01*
X34041429Y-99660952D02*
X34041429Y-98899047D01*
X34422381Y-99279999D02*
X33660476Y-99279999D01*
X35817143Y-67666666D02*
X35864762Y-67714285D01*
X35912381Y-67857142D01*
X35912381Y-67952380D01*
X35864762Y-68095238D01*
X35769524Y-68190476D01*
X35674286Y-68238095D01*
X35483810Y-68285714D01*
X35340952Y-68285714D01*
X35150476Y-68238095D01*
X35055238Y-68190476D01*
X34960000Y-68095238D01*
X34912381Y-67952380D01*
X34912381Y-67857142D01*
X34960000Y-67714285D01*
X35007619Y-67666666D01*
X34912381Y-67333333D02*
X34912381Y-66666666D01*
X35912381Y-67095238D01*
X34041429Y-73660952D02*
X34041429Y-72899047D01*
X34422381Y-73279999D02*
X33660476Y-73279999D01*
X35817143Y-54666666D02*
X35864762Y-54714285D01*
X35912381Y-54857142D01*
X35912381Y-54952380D01*
X35864762Y-55095238D01*
X35769524Y-55190476D01*
X35674286Y-55238095D01*
X35483810Y-55285714D01*
X35340952Y-55285714D01*
X35150476Y-55238095D01*
X35055238Y-55190476D01*
X34960000Y-55095238D01*
X34912381Y-54952380D01*
X34912381Y-54857142D01*
X34960000Y-54714285D01*
X35007619Y-54666666D01*
X35340952Y-54095238D02*
X35293333Y-54190476D01*
X35245714Y-54238095D01*
X35150476Y-54285714D01*
X35102857Y-54285714D01*
X35007619Y-54238095D01*
X34960000Y-54190476D01*
X34912381Y-54095238D01*
X34912381Y-53904761D01*
X34960000Y-53809523D01*
X35007619Y-53761904D01*
X35102857Y-53714285D01*
X35150476Y-53714285D01*
X35245714Y-53761904D01*
X35293333Y-53809523D01*
X35340952Y-53904761D01*
X35340952Y-54095238D01*
X35388571Y-54190476D01*
X35436190Y-54238095D01*
X35531429Y-54285714D01*
X35721905Y-54285714D01*
X35817143Y-54238095D01*
X35864762Y-54190476D01*
X35912381Y-54095238D01*
X35912381Y-53904761D01*
X35864762Y-53809523D01*
X35817143Y-53761904D01*
X35721905Y-53714285D01*
X35531429Y-53714285D01*
X35436190Y-53761904D01*
X35388571Y-53809523D01*
X35340952Y-53904761D01*
X34041429Y-60660952D02*
X34041429Y-59899047D01*
X34422381Y-60279999D02*
X33660476Y-60279999D01*
X46817143Y-93666666D02*
X46864762Y-93714285D01*
X46912381Y-93857142D01*
X46912381Y-93952380D01*
X46864762Y-94095238D01*
X46769524Y-94190476D01*
X46674286Y-94238095D01*
X46483810Y-94285714D01*
X46340952Y-94285714D01*
X46150476Y-94238095D01*
X46055238Y-94190476D01*
X45960000Y-94095238D01*
X45912381Y-93952380D01*
X45912381Y-93857142D01*
X45960000Y-93714285D01*
X46007619Y-93666666D01*
X46912381Y-93190476D02*
X46912381Y-93000000D01*
X46864762Y-92904761D01*
X46817143Y-92857142D01*
X46674286Y-92761904D01*
X46483810Y-92714285D01*
X46102857Y-92714285D01*
X46007619Y-92761904D01*
X45960000Y-92809523D01*
X45912381Y-92904761D01*
X45912381Y-93095238D01*
X45960000Y-93190476D01*
X46007619Y-93238095D01*
X46102857Y-93285714D01*
X46340952Y-93285714D01*
X46436190Y-93238095D01*
X46483810Y-93190476D01*
X46531429Y-93095238D01*
X46531429Y-92904761D01*
X46483810Y-92809523D01*
X46436190Y-92761904D01*
X46340952Y-92714285D01*
X45041429Y-99660952D02*
X45041429Y-98899047D01*
X45422381Y-99279999D02*
X44660476Y-99279999D01*
X46817143Y-68142857D02*
X46864762Y-68190476D01*
X46912381Y-68333333D01*
X46912381Y-68428571D01*
X46864762Y-68571429D01*
X46769524Y-68666667D01*
X46674286Y-68714286D01*
X46483810Y-68761905D01*
X46340952Y-68761905D01*
X46150476Y-68714286D01*
X46055238Y-68666667D01*
X45960000Y-68571429D01*
X45912381Y-68428571D01*
X45912381Y-68333333D01*
X45960000Y-68190476D01*
X46007619Y-68142857D01*
X46912381Y-67190476D02*
X46912381Y-67761905D01*
X46912381Y-67476191D02*
X45912381Y-67476191D01*
X46055238Y-67571429D01*
X46150476Y-67666667D01*
X46198095Y-67761905D01*
X46912381Y-66238095D02*
X46912381Y-66809524D01*
X46912381Y-66523810D02*
X45912381Y-66523810D01*
X46055238Y-66619048D01*
X46150476Y-66714286D01*
X46198095Y-66809524D01*
X45041429Y-73660952D02*
X45041429Y-72899047D01*
X45422381Y-73279999D02*
X44660476Y-73279999D01*
X46817143Y-55142857D02*
X46864762Y-55190476D01*
X46912381Y-55333333D01*
X46912381Y-55428571D01*
X46864762Y-55571429D01*
X46769524Y-55666667D01*
X46674286Y-55714286D01*
X46483810Y-55761905D01*
X46340952Y-55761905D01*
X46150476Y-55714286D01*
X46055238Y-55666667D01*
X45960000Y-55571429D01*
X45912381Y-55428571D01*
X45912381Y-55333333D01*
X45960000Y-55190476D01*
X46007619Y-55142857D01*
X46912381Y-54190476D02*
X46912381Y-54761905D01*
X46912381Y-54476191D02*
X45912381Y-54476191D01*
X46055238Y-54571429D01*
X46150476Y-54666667D01*
X46198095Y-54761905D01*
X46007619Y-53809524D02*
X45960000Y-53761905D01*
X45912381Y-53666667D01*
X45912381Y-53428571D01*
X45960000Y-53333333D01*
X46007619Y-53285714D01*
X46102857Y-53238095D01*
X46198095Y-53238095D01*
X46340952Y-53285714D01*
X46912381Y-53857143D01*
X46912381Y-53238095D01*
X45041429Y-60660952D02*
X45041429Y-59899047D01*
X45422381Y-60279999D02*
X44660476Y-60279999D01*
X16761905Y-46452381D02*
X16761905Y-45452381D01*
X17000000Y-45452381D01*
X17142858Y-45500000D01*
X17238096Y-45595238D01*
X17285715Y-45690476D01*
X17333334Y-45880952D01*
X17333334Y-46023810D01*
X17285715Y-46214286D01*
X17238096Y-46309524D01*
X17142858Y-46404762D01*
X17000000Y-46452381D01*
X16761905Y-46452381D01*
X18285715Y-46452381D02*
X17714286Y-46452381D01*
X18000000Y-46452381D02*
X18000000Y-45452381D01*
X17904762Y-45595238D01*
X17809524Y-45690476D01*
X17714286Y-45738095D01*
X16761905Y-22452381D02*
X16761905Y-21452381D01*
X17000000Y-21452381D01*
X17142858Y-21500000D01*
X17238096Y-21595238D01*
X17285715Y-21690476D01*
X17333334Y-21880952D01*
X17333334Y-22023810D01*
X17285715Y-22214286D01*
X17238096Y-22309524D01*
X17142858Y-22404762D01*
X17000000Y-22452381D01*
X16761905Y-22452381D01*
X17714286Y-21547619D02*
X17761905Y-21500000D01*
X17857143Y-21452381D01*
X18095239Y-21452381D01*
X18190477Y-21500000D01*
X18238096Y-21547619D01*
X18285715Y-21642857D01*
X18285715Y-21738095D01*
X18238096Y-21880952D01*
X17666667Y-22452381D01*
X18285715Y-22452381D01*
X23952381Y-42738095D02*
X22952381Y-42738095D01*
X22952381Y-42500000D01*
X23000000Y-42357142D01*
X23095238Y-42261904D01*
X23190476Y-42214285D01*
X23380952Y-42166666D01*
X23523810Y-42166666D01*
X23714286Y-42214285D01*
X23809524Y-42261904D01*
X23904762Y-42357142D01*
X23952381Y-42500000D01*
X23952381Y-42738095D01*
X22952381Y-41833333D02*
X22952381Y-41214285D01*
X23333333Y-41547619D01*
X23333333Y-41404761D01*
X23380952Y-41309523D01*
X23428571Y-41261904D01*
X23523810Y-41214285D01*
X23761905Y-41214285D01*
X23857143Y-41261904D01*
X23904762Y-41309523D01*
X23952381Y-41404761D01*
X23952381Y-41690476D01*
X23904762Y-41785714D01*
X23857143Y-41833333D01*
X23952381Y-18738095D02*
X22952381Y-18738095D01*
X22952381Y-18500000D01*
X23000000Y-18357142D01*
X23095238Y-18261904D01*
X23190476Y-18214285D01*
X23380952Y-18166666D01*
X23523810Y-18166666D01*
X23714286Y-18214285D01*
X23809524Y-18261904D01*
X23904762Y-18357142D01*
X23952381Y-18500000D01*
X23952381Y-18738095D01*
X23285714Y-17309523D02*
X23952381Y-17309523D01*
X22904762Y-17547619D02*
X23619048Y-17785714D01*
X23619048Y-17166666D01*
X39761905Y-46452381D02*
X39761905Y-45452381D01*
X40000000Y-45452381D01*
X40142858Y-45500000D01*
X40238096Y-45595238D01*
X40285715Y-45690476D01*
X40333334Y-45880952D01*
X40333334Y-46023810D01*
X40285715Y-46214286D01*
X40238096Y-46309524D01*
X40142858Y-46404762D01*
X40000000Y-46452381D01*
X39761905Y-46452381D01*
X41238096Y-45452381D02*
X40761905Y-45452381D01*
X40714286Y-45928571D01*
X40761905Y-45880952D01*
X40857143Y-45833333D01*
X41095239Y-45833333D01*
X41190477Y-45880952D01*
X41238096Y-45928571D01*
X41285715Y-46023810D01*
X41285715Y-46261905D01*
X41238096Y-46357143D01*
X41190477Y-46404762D01*
X41095239Y-46452381D01*
X40857143Y-46452381D01*
X40761905Y-46404762D01*
X40714286Y-46357143D01*
X39761905Y-22452381D02*
X39761905Y-21452381D01*
X40000000Y-21452381D01*
X40142858Y-21500000D01*
X40238096Y-21595238D01*
X40285715Y-21690476D01*
X40333334Y-21880952D01*
X40333334Y-22023810D01*
X40285715Y-22214286D01*
X40238096Y-22309524D01*
X40142858Y-22404762D01*
X40000000Y-22452381D01*
X39761905Y-22452381D01*
X41190477Y-21452381D02*
X41000000Y-21452381D01*
X40904762Y-21500000D01*
X40857143Y-21547619D01*
X40761905Y-21690476D01*
X40714286Y-21880952D01*
X40714286Y-22261905D01*
X40761905Y-22357143D01*
X40809524Y-22404762D01*
X40904762Y-22452381D01*
X41095239Y-22452381D01*
X41190477Y-22404762D01*
X41238096Y-22357143D01*
X41285715Y-22261905D01*
X41285715Y-22023810D01*
X41238096Y-21928571D01*
X41190477Y-21880952D01*
X41095239Y-21833333D01*
X40904762Y-21833333D01*
X40809524Y-21880952D01*
X40761905Y-21928571D01*
X40714286Y-22023810D01*
X46952381Y-42738095D02*
X45952381Y-42738095D01*
X45952381Y-42500000D01*
X46000000Y-42357142D01*
X46095238Y-42261904D01*
X46190476Y-42214285D01*
X46380952Y-42166666D01*
X46523810Y-42166666D01*
X46714286Y-42214285D01*
X46809524Y-42261904D01*
X46904762Y-42357142D01*
X46952381Y-42500000D01*
X46952381Y-42738095D01*
X45952381Y-41833333D02*
X45952381Y-41166666D01*
X46952381Y-41595238D01*
X46952381Y-18738095D02*
X45952381Y-18738095D01*
X45952381Y-18500000D01*
X46000000Y-18357142D01*
X46095238Y-18261904D01*
X46190476Y-18214285D01*
X46380952Y-18166666D01*
X46523810Y-18166666D01*
X46714286Y-18214285D01*
X46809524Y-18261904D01*
X46904762Y-18357142D01*
X46952381Y-18500000D01*
X46952381Y-18738095D01*
X46380952Y-17595238D02*
X46333333Y-17690476D01*
X46285714Y-17738095D01*
X46190476Y-17785714D01*
X46142857Y-17785714D01*
X46047619Y-17738095D01*
X46000000Y-17690476D01*
X45952381Y-17595238D01*
X45952381Y-17404761D01*
X46000000Y-17309523D01*
X46047619Y-17261904D01*
X46142857Y-17214285D01*
X46190476Y-17214285D01*
X46285714Y-17261904D01*
X46333333Y-17309523D01*
X46380952Y-17404761D01*
X46380952Y-17595238D01*
X46428571Y-17690476D01*
X46476190Y-17738095D01*
X46571429Y-17785714D01*
X46761905Y-17785714D01*
X46857143Y-17738095D01*
X46904762Y-17690476D01*
X46952381Y-17595238D01*
X46952381Y-17404761D01*
X46904762Y-17309523D01*
X46857143Y-17261904D01*
X46761905Y-17214285D01*
X46571429Y-17214285D01*
X46476190Y-17261904D01*
X46428571Y-17309523D01*
X46380952Y-17404761D01*
X12297619Y-32095238D02*
X12250000Y-32190476D01*
X12154762Y-32285714D01*
X12011905Y-32428571D01*
X11964286Y-32523810D01*
X11964286Y-32619048D01*
X12202381Y-32571429D02*
X12154762Y-32666667D01*
X12059524Y-32761905D01*
X11869048Y-32809524D01*
X11535714Y-32809524D01*
X11345238Y-32761905D01*
X11250000Y-32666667D01*
X11202381Y-32571429D01*
X11202381Y-32380952D01*
X11250000Y-32285714D01*
X11345238Y-32190476D01*
X11535714Y-32142857D01*
X11869048Y-32142857D01*
X12059524Y-32190476D01*
X12154762Y-32285714D01*
X12202381Y-32380952D01*
X12202381Y-32571429D01*
X12202381Y-31190476D02*
X12202381Y-31761905D01*
X12202381Y-31476191D02*
X11202381Y-31476191D01*
X11345238Y-31571429D01*
X11440476Y-31666667D01*
X11488095Y-31761905D01*
X12297619Y-8095238D02*
X12250000Y-8190476D01*
X12154762Y-8285714D01*
X12011905Y-8428571D01*
X11964286Y-8523810D01*
X11964286Y-8619048D01*
X12202381Y-8571429D02*
X12154762Y-8666667D01*
X12059524Y-8761905D01*
X11869048Y-8809524D01*
X11535714Y-8809524D01*
X11345238Y-8761905D01*
X11250000Y-8666667D01*
X11202381Y-8571429D01*
X11202381Y-8380952D01*
X11250000Y-8285714D01*
X11345238Y-8190476D01*
X11535714Y-8142857D01*
X11869048Y-8142857D01*
X12059524Y-8190476D01*
X12154762Y-8285714D01*
X12202381Y-8380952D01*
X12202381Y-8571429D01*
X11297619Y-7761905D02*
X11250000Y-7714286D01*
X11202381Y-7619048D01*
X11202381Y-7380952D01*
X11250000Y-7285714D01*
X11297619Y-7238095D01*
X11392857Y-7190476D01*
X11488095Y-7190476D01*
X11630952Y-7238095D01*
X12202381Y-7809524D01*
X12202381Y-7190476D01*
X35297619Y-32095238D02*
X35250000Y-32190476D01*
X35154762Y-32285714D01*
X35011905Y-32428571D01*
X34964286Y-32523810D01*
X34964286Y-32619048D01*
X35202381Y-32571429D02*
X35154762Y-32666667D01*
X35059524Y-32761905D01*
X34869048Y-32809524D01*
X34535714Y-32809524D01*
X34345238Y-32761905D01*
X34250000Y-32666667D01*
X34202381Y-32571429D01*
X34202381Y-32380952D01*
X34250000Y-32285714D01*
X34345238Y-32190476D01*
X34535714Y-32142857D01*
X34869048Y-32142857D01*
X35059524Y-32190476D01*
X35154762Y-32285714D01*
X35202381Y-32380952D01*
X35202381Y-32571429D01*
X34202381Y-31809524D02*
X34202381Y-31190476D01*
X34583333Y-31523810D01*
X34583333Y-31380952D01*
X34630952Y-31285714D01*
X34678571Y-31238095D01*
X34773810Y-31190476D01*
X35011905Y-31190476D01*
X35107143Y-31238095D01*
X35154762Y-31285714D01*
X35202381Y-31380952D01*
X35202381Y-31666667D01*
X35154762Y-31761905D01*
X35107143Y-31809524D01*
X35297619Y-8095238D02*
X35250000Y-8190476D01*
X35154762Y-8285714D01*
X35011905Y-8428571D01*
X34964286Y-8523810D01*
X34964286Y-8619048D01*
X35202381Y-8571429D02*
X35154762Y-8666667D01*
X35059524Y-8761905D01*
X34869048Y-8809524D01*
X34535714Y-8809524D01*
X34345238Y-8761905D01*
X34250000Y-8666667D01*
X34202381Y-8571429D01*
X34202381Y-8380952D01*
X34250000Y-8285714D01*
X34345238Y-8190476D01*
X34535714Y-8142857D01*
X34869048Y-8142857D01*
X35059524Y-8190476D01*
X35154762Y-8285714D01*
X35202381Y-8380952D01*
X35202381Y-8571429D01*
X34535714Y-7285714D02*
X35202381Y-7285714D01*
X34154762Y-7523810D02*
X34869048Y-7761905D01*
X34869048Y-7142857D01*
X13452381Y-41666666D02*
X12976190Y-42000000D01*
X13452381Y-42238095D02*
X12452381Y-42238095D01*
X12452381Y-41857142D01*
X12500000Y-41761904D01*
X12547619Y-41714285D01*
X12642857Y-41666666D01*
X12785714Y-41666666D01*
X12880952Y-41714285D01*
X12928571Y-41761904D01*
X12976190Y-41857142D01*
X12976190Y-42238095D01*
X13452381Y-40714285D02*
X13452381Y-41285714D01*
X13452381Y-41000000D02*
X12452381Y-41000000D01*
X12595238Y-41095238D01*
X12690476Y-41190476D01*
X12738095Y-41285714D01*
X13452381Y-17666666D02*
X12976190Y-18000000D01*
X13452381Y-18238095D02*
X12452381Y-18238095D01*
X12452381Y-17857142D01*
X12500000Y-17761904D01*
X12547619Y-17714285D01*
X12642857Y-17666666D01*
X12785714Y-17666666D01*
X12880952Y-17714285D01*
X12928571Y-17761904D01*
X12976190Y-17857142D01*
X12976190Y-18238095D01*
X12547619Y-17285714D02*
X12500000Y-17238095D01*
X12452381Y-17142857D01*
X12452381Y-16904761D01*
X12500000Y-16809523D01*
X12547619Y-16761904D01*
X12642857Y-16714285D01*
X12738095Y-16714285D01*
X12880952Y-16761904D01*
X13452381Y-17333333D01*
X13452381Y-16714285D01*
X17333334Y-40952381D02*
X17000000Y-40476190D01*
X16761905Y-40952381D02*
X16761905Y-39952381D01*
X17142858Y-39952381D01*
X17238096Y-40000000D01*
X17285715Y-40047619D01*
X17333334Y-40142857D01*
X17333334Y-40285714D01*
X17285715Y-40380952D01*
X17238096Y-40428571D01*
X17142858Y-40476190D01*
X16761905Y-40476190D01*
X17666667Y-39952381D02*
X18285715Y-39952381D01*
X17952381Y-40333333D01*
X18095239Y-40333333D01*
X18190477Y-40380952D01*
X18238096Y-40428571D01*
X18285715Y-40523810D01*
X18285715Y-40761905D01*
X18238096Y-40857143D01*
X18190477Y-40904762D01*
X18095239Y-40952381D01*
X17809524Y-40952381D01*
X17714286Y-40904762D01*
X17666667Y-40857143D01*
X17333334Y-16952381D02*
X17000000Y-16476190D01*
X16761905Y-16952381D02*
X16761905Y-15952381D01*
X17142858Y-15952381D01*
X17238096Y-16000000D01*
X17285715Y-16047619D01*
X17333334Y-16142857D01*
X17333334Y-16285714D01*
X17285715Y-16380952D01*
X17238096Y-16428571D01*
X17142858Y-16476190D01*
X16761905Y-16476190D01*
X18190477Y-16285714D02*
X18190477Y-16952381D01*
X17952381Y-15904762D02*
X17714286Y-16619048D01*
X18333334Y-16619048D01*
X36452381Y-41666666D02*
X35976190Y-42000000D01*
X36452381Y-42238095D02*
X35452381Y-42238095D01*
X35452381Y-41857142D01*
X35500000Y-41761904D01*
X35547619Y-41714285D01*
X35642857Y-41666666D01*
X35785714Y-41666666D01*
X35880952Y-41714285D01*
X35928571Y-41761904D01*
X35976190Y-41857142D01*
X35976190Y-42238095D01*
X35452381Y-40761904D02*
X35452381Y-41238095D01*
X35928571Y-41285714D01*
X35880952Y-41238095D01*
X35833333Y-41142857D01*
X35833333Y-40904761D01*
X35880952Y-40809523D01*
X35928571Y-40761904D01*
X36023810Y-40714285D01*
X36261905Y-40714285D01*
X36357143Y-40761904D01*
X36404762Y-40809523D01*
X36452381Y-40904761D01*
X36452381Y-41142857D01*
X36404762Y-41238095D01*
X36357143Y-41285714D01*
X36452381Y-17666666D02*
X35976190Y-18000000D01*
X36452381Y-18238095D02*
X35452381Y-18238095D01*
X35452381Y-17857142D01*
X35500000Y-17761904D01*
X35547619Y-17714285D01*
X35642857Y-17666666D01*
X35785714Y-17666666D01*
X35880952Y-17714285D01*
X35928571Y-17761904D01*
X35976190Y-17857142D01*
X35976190Y-18238095D01*
X35452381Y-16809523D02*
X35452381Y-17000000D01*
X35500000Y-17095238D01*
X35547619Y-17142857D01*
X35690476Y-17238095D01*
X35880952Y-17285714D01*
X36261905Y-17285714D01*
X36357143Y-17238095D01*
X36404762Y-17190476D01*
X36452381Y-17095238D01*
X36452381Y-16904761D01*
X36404762Y-16809523D01*
X36357143Y-16761904D01*
X36261905Y-16714285D01*
X36023810Y-16714285D01*
X35928571Y-16761904D01*
X35880952Y-16809523D01*
X35833333Y-16904761D01*
X35833333Y-17095238D01*
X35880952Y-17190476D01*
X35928571Y-17238095D01*
X36023810Y-17285714D01*
X40333334Y-40952381D02*
X40000000Y-40476190D01*
X39761905Y-40952381D02*
X39761905Y-39952381D01*
X40142858Y-39952381D01*
X40238096Y-40000000D01*
X40285715Y-40047619D01*
X40333334Y-40142857D01*
X40333334Y-40285714D01*
X40285715Y-40380952D01*
X40238096Y-40428571D01*
X40142858Y-40476190D01*
X39761905Y-40476190D01*
X40666667Y-39952381D02*
X41333334Y-39952381D01*
X40904762Y-40952381D01*
X40333334Y-16952381D02*
X40000000Y-16476190D01*
X39761905Y-16952381D02*
X39761905Y-15952381D01*
X40142858Y-15952381D01*
X40238096Y-16000000D01*
X40285715Y-16047619D01*
X40333334Y-16142857D01*
X40333334Y-16285714D01*
X40285715Y-16380952D01*
X40238096Y-16428571D01*
X40142858Y-16476190D01*
X39761905Y-16476190D01*
X40904762Y-16380952D02*
X40809524Y-16333333D01*
X40761905Y-16285714D01*
X40714286Y-16190476D01*
X40714286Y-16142857D01*
X40761905Y-16047619D01*
X40809524Y-16000000D01*
X40904762Y-15952381D01*
X41095239Y-15952381D01*
X41190477Y-16000000D01*
X41238096Y-16047619D01*
X41285715Y-16142857D01*
X41285715Y-16190476D01*
X41238096Y-16285714D01*
X41190477Y-16333333D01*
X41095239Y-16380952D01*
X40904762Y-16380952D01*
X40809524Y-16428571D01*
X40761905Y-16476190D01*
X40714286Y-16571429D01*
X40714286Y-16761905D01*
X40761905Y-16857143D01*
X40809524Y-16904762D01*
X40904762Y-16952381D01*
X41095239Y-16952381D01*
X41190477Y-16904762D01*
X41238096Y-16857143D01*
X41285715Y-16761905D01*
X41285715Y-16571429D01*
X41238096Y-16476190D01*
X41190477Y-16428571D01*
X41095239Y-16380952D01*
X22857143Y-85607143D02*
X22809524Y-85654762D01*
X22666667Y-85702381D01*
X22571429Y-85702381D01*
X22428571Y-85654762D01*
X22333333Y-85559524D01*
X22285714Y-85464286D01*
X22238095Y-85273810D01*
X22238095Y-85130952D01*
X22285714Y-84940476D01*
X22333333Y-84845238D01*
X22428571Y-84750000D01*
X22571429Y-84702381D01*
X22666667Y-84702381D01*
X22809524Y-84750000D01*
X22857143Y-84797619D01*
X23809524Y-85702381D02*
X23238095Y-85702381D01*
X23523809Y-85702381D02*
X23523809Y-84702381D01*
X23428571Y-84845238D01*
X23333333Y-84940476D01*
X23238095Y-84988095D01*
X24142857Y-84702381D02*
X24761905Y-84702381D01*
X24428571Y-85083333D01*
X24571429Y-85083333D01*
X24666667Y-85130952D01*
X24714286Y-85178571D01*
X24761905Y-85273810D01*
X24761905Y-85511905D01*
X24714286Y-85607143D01*
X24666667Y-85654762D01*
X24571429Y-85702381D01*
X24285714Y-85702381D01*
X24190476Y-85654762D01*
X24142857Y-85607143D01*
X33857143Y-85607143D02*
X33809524Y-85654762D01*
X33666667Y-85702381D01*
X33571429Y-85702381D01*
X33428571Y-85654762D01*
X33333333Y-85559524D01*
X33285714Y-85464286D01*
X33238095Y-85273810D01*
X33238095Y-85130952D01*
X33285714Y-84940476D01*
X33333333Y-84845238D01*
X33428571Y-84750000D01*
X33571429Y-84702381D01*
X33666667Y-84702381D01*
X33809524Y-84750000D01*
X33857143Y-84797619D01*
X34809524Y-85702381D02*
X34238095Y-85702381D01*
X34523809Y-85702381D02*
X34523809Y-84702381D01*
X34428571Y-84845238D01*
X34333333Y-84940476D01*
X34238095Y-84988095D01*
X35666667Y-85035714D02*
X35666667Y-85702381D01*
X35428571Y-84654762D02*
X35190476Y-85369048D01*
X35809524Y-85369048D01*
X22857143Y-72607143D02*
X22809524Y-72654762D01*
X22666667Y-72702381D01*
X22571429Y-72702381D01*
X22428571Y-72654762D01*
X22333333Y-72559524D01*
X22285714Y-72464286D01*
X22238095Y-72273810D01*
X22238095Y-72130952D01*
X22285714Y-71940476D01*
X22333333Y-71845238D01*
X22428571Y-71750000D01*
X22571429Y-71702381D01*
X22666667Y-71702381D01*
X22809524Y-71750000D01*
X22857143Y-71797619D01*
X23809524Y-72702381D02*
X23238095Y-72702381D01*
X23523809Y-72702381D02*
X23523809Y-71702381D01*
X23428571Y-71845238D01*
X23333333Y-71940476D01*
X23238095Y-71988095D01*
X24714286Y-71702381D02*
X24238095Y-71702381D01*
X24190476Y-72178571D01*
X24238095Y-72130952D01*
X24333333Y-72083333D01*
X24571429Y-72083333D01*
X24666667Y-72130952D01*
X24714286Y-72178571D01*
X24761905Y-72273810D01*
X24761905Y-72511905D01*
X24714286Y-72607143D01*
X24666667Y-72654762D01*
X24571429Y-72702381D01*
X24333333Y-72702381D01*
X24238095Y-72654762D01*
X24190476Y-72607143D01*
X33857143Y-72607143D02*
X33809524Y-72654762D01*
X33666667Y-72702381D01*
X33571429Y-72702381D01*
X33428571Y-72654762D01*
X33333333Y-72559524D01*
X33285714Y-72464286D01*
X33238095Y-72273810D01*
X33238095Y-72130952D01*
X33285714Y-71940476D01*
X33333333Y-71845238D01*
X33428571Y-71750000D01*
X33571429Y-71702381D01*
X33666667Y-71702381D01*
X33809524Y-71750000D01*
X33857143Y-71797619D01*
X34809524Y-72702381D02*
X34238095Y-72702381D01*
X34523809Y-72702381D02*
X34523809Y-71702381D01*
X34428571Y-71845238D01*
X34333333Y-71940476D01*
X34238095Y-71988095D01*
X35666667Y-71702381D02*
X35476190Y-71702381D01*
X35380952Y-71750000D01*
X35333333Y-71797619D01*
X35238095Y-71940476D01*
X35190476Y-72130952D01*
X35190476Y-72511905D01*
X35238095Y-72607143D01*
X35285714Y-72654762D01*
X35380952Y-72702381D01*
X35571429Y-72702381D01*
X35666667Y-72654762D01*
X35714286Y-72607143D01*
X35761905Y-72511905D01*
X35761905Y-72273810D01*
X35714286Y-72178571D01*
X35666667Y-72130952D01*
X35571429Y-72083333D01*
X35380952Y-72083333D01*
X35285714Y-72130952D01*
X35238095Y-72178571D01*
X35190476Y-72273810D01*
X22857143Y-59607143D02*
X22809524Y-59654762D01*
X22666667Y-59702381D01*
X22571429Y-59702381D01*
X22428571Y-59654762D01*
X22333333Y-59559524D01*
X22285714Y-59464286D01*
X22238095Y-59273810D01*
X22238095Y-59130952D01*
X22285714Y-58940476D01*
X22333333Y-58845238D01*
X22428571Y-58750000D01*
X22571429Y-58702381D01*
X22666667Y-58702381D01*
X22809524Y-58750000D01*
X22857143Y-58797619D01*
X23809524Y-59702381D02*
X23238095Y-59702381D01*
X23523809Y-59702381D02*
X23523809Y-58702381D01*
X23428571Y-58845238D01*
X23333333Y-58940476D01*
X23238095Y-58988095D01*
X24142857Y-58702381D02*
X24809524Y-58702381D01*
X24380952Y-59702381D01*
X33857143Y-59607143D02*
X33809524Y-59654762D01*
X33666667Y-59702381D01*
X33571429Y-59702381D01*
X33428571Y-59654762D01*
X33333333Y-59559524D01*
X33285714Y-59464286D01*
X33238095Y-59273810D01*
X33238095Y-59130952D01*
X33285714Y-58940476D01*
X33333333Y-58845238D01*
X33428571Y-58750000D01*
X33571429Y-58702381D01*
X33666667Y-58702381D01*
X33809524Y-58750000D01*
X33857143Y-58797619D01*
X34809524Y-59702381D02*
X34238095Y-59702381D01*
X34523809Y-59702381D02*
X34523809Y-58702381D01*
X34428571Y-58845238D01*
X34333333Y-58940476D01*
X34238095Y-58988095D01*
X35380952Y-59130952D02*
X35285714Y-59083333D01*
X35238095Y-59035714D01*
X35190476Y-58940476D01*
X35190476Y-58892857D01*
X35238095Y-58797619D01*
X35285714Y-58750000D01*
X35380952Y-58702381D01*
X35571429Y-58702381D01*
X35666667Y-58750000D01*
X35714286Y-58797619D01*
X35761905Y-58892857D01*
X35761905Y-58940476D01*
X35714286Y-59035714D01*
X35666667Y-59083333D01*
X35571429Y-59130952D01*
X35380952Y-59130952D01*
X35285714Y-59178571D01*
X35238095Y-59226190D01*
X35190476Y-59321429D01*
X35190476Y-59511905D01*
X35238095Y-59607143D01*
X35285714Y-59654762D01*
X35380952Y-59702381D01*
X35571429Y-59702381D01*
X35666667Y-59654762D01*
X35714286Y-59607143D01*
X35761905Y-59511905D01*
X35761905Y-59321429D01*
X35714286Y-59226190D01*
X35666667Y-59178571D01*
X35571429Y-59130952D01*
X9452381Y-23261905D02*
X10261905Y-23261905D01*
X10357143Y-23214286D01*
X10404762Y-23166667D01*
X10452381Y-23071429D01*
X10452381Y-22880952D01*
X10404762Y-22785714D01*
X10357143Y-22738095D01*
X10261905Y-22690476D01*
X9452381Y-22690476D01*
X9785714Y-21785714D02*
X10452381Y-21785714D01*
X9404762Y-22023810D02*
X10119048Y-22261905D01*
X10119048Y-21642857D01*
X35767858Y-23875000D02*
X35696429Y-23839286D01*
X35589286Y-23839286D01*
X35482143Y-23875000D01*
X35410715Y-23946429D01*
X35375000Y-24017857D01*
X35339286Y-24160714D01*
X35339286Y-24267857D01*
X35375000Y-24410714D01*
X35410715Y-24482143D01*
X35482143Y-24553571D01*
X35589286Y-24589286D01*
X35660715Y-24589286D01*
X35767858Y-24553571D01*
X35803572Y-24517857D01*
X35803572Y-24267857D01*
X35660715Y-24267857D01*
X36446429Y-24589286D02*
X36446429Y-24196429D01*
X36410715Y-24125000D01*
X36339286Y-24089286D01*
X36196429Y-24089286D01*
X36125000Y-24125000D01*
X36446429Y-24553571D02*
X36375000Y-24589286D01*
X36196429Y-24589286D01*
X36125000Y-24553571D01*
X36089286Y-24482143D01*
X36089286Y-24410714D01*
X36125000Y-24339286D01*
X36196429Y-24303571D01*
X36375000Y-24303571D01*
X36446429Y-24267857D01*
X36696429Y-24089286D02*
X36982143Y-24089286D01*
X36803571Y-23839286D02*
X36803571Y-24482143D01*
X36839286Y-24553571D01*
X36910714Y-24589286D01*
X36982143Y-24589286D01*
X37517857Y-24553571D02*
X37446428Y-24589286D01*
X37303571Y-24589286D01*
X37232142Y-24553571D01*
X37196428Y-24482143D01*
X37196428Y-24196429D01*
X37232142Y-24125000D01*
X37303571Y-24089286D01*
X37446428Y-24089286D01*
X37517857Y-24125000D01*
X37553571Y-24196429D01*
X37553571Y-24267857D01*
X37196428Y-24339286D01*
X37874999Y-24517857D02*
X37910714Y-24553571D01*
X37874999Y-24589286D01*
X37839285Y-24553571D01*
X37874999Y-24517857D01*
X37874999Y-24589286D01*
X37874999Y-24125000D02*
X37910714Y-24160714D01*
X37874999Y-24196429D01*
X37839285Y-24160714D01*
X37874999Y-24125000D01*
X37874999Y-24196429D01*
X38482142Y-24196429D02*
X38589285Y-24232143D01*
X38625000Y-24267857D01*
X38660714Y-24339286D01*
X38660714Y-24446429D01*
X38625000Y-24517857D01*
X38589285Y-24553571D01*
X38517857Y-24589286D01*
X38232142Y-24589286D01*
X38232142Y-23839286D01*
X38482142Y-23839286D01*
X38553571Y-23875000D01*
X38589285Y-23910714D01*
X38625000Y-23982143D01*
X38625000Y-24053571D01*
X38589285Y-24125000D01*
X38553571Y-24160714D01*
X38482142Y-24196429D01*
X38232142Y-24196429D01*
X42482143Y-23839286D02*
X42732143Y-24589286D01*
X42982143Y-23839286D01*
X43196428Y-24553571D02*
X43303571Y-24589286D01*
X43482142Y-24589286D01*
X43553571Y-24553571D01*
X43589285Y-24517857D01*
X43625000Y-24446429D01*
X43625000Y-24375000D01*
X43589285Y-24303571D01*
X43553571Y-24267857D01*
X43482142Y-24232143D01*
X43339285Y-24196429D01*
X43267857Y-24160714D01*
X43232142Y-24125000D01*
X43196428Y-24053571D01*
X43196428Y-23982143D01*
X43232142Y-23910714D01*
X43267857Y-23875000D01*
X43339285Y-23839286D01*
X43517857Y-23839286D01*
X43625000Y-23875000D01*
X43910714Y-24553571D02*
X44017857Y-24589286D01*
X44196428Y-24589286D01*
X44267857Y-24553571D01*
X44303571Y-24517857D01*
X44339286Y-24446429D01*
X44339286Y-24375000D01*
X44303571Y-24303571D01*
X44267857Y-24267857D01*
X44196428Y-24232143D01*
X44053571Y-24196429D01*
X43982143Y-24160714D01*
X43946428Y-24125000D01*
X43910714Y-24053571D01*
X43910714Y-23982143D01*
X43946428Y-23910714D01*
X43982143Y-23875000D01*
X44053571Y-23839286D01*
X44232143Y-23839286D01*
X44339286Y-23875000D01*
X44660714Y-24517857D02*
X44696429Y-24553571D01*
X44660714Y-24589286D01*
X44625000Y-24553571D01*
X44660714Y-24517857D01*
X44660714Y-24589286D01*
X44660714Y-24125000D02*
X44696429Y-24160714D01*
X44660714Y-24196429D01*
X44625000Y-24160714D01*
X44660714Y-24125000D01*
X44660714Y-24196429D01*
X45267857Y-24196429D02*
X45375000Y-24232143D01*
X45410715Y-24267857D01*
X45446429Y-24339286D01*
X45446429Y-24446429D01*
X45410715Y-24517857D01*
X45375000Y-24553571D01*
X45303572Y-24589286D01*
X45017857Y-24589286D01*
X45017857Y-23839286D01*
X45267857Y-23839286D01*
X45339286Y-23875000D01*
X45375000Y-23910714D01*
X45410715Y-23982143D01*
X45410715Y-24053571D01*
X45375000Y-24125000D01*
X45339286Y-24160714D01*
X45267857Y-24196429D01*
X45017857Y-24196429D01*
X19535715Y-23839286D02*
X19785715Y-24589286D01*
X20035715Y-23839286D01*
X20250000Y-24553571D02*
X20357143Y-24589286D01*
X20535714Y-24589286D01*
X20607143Y-24553571D01*
X20642857Y-24517857D01*
X20678572Y-24446429D01*
X20678572Y-24375000D01*
X20642857Y-24303571D01*
X20607143Y-24267857D01*
X20535714Y-24232143D01*
X20392857Y-24196429D01*
X20321429Y-24160714D01*
X20285714Y-24125000D01*
X20250000Y-24053571D01*
X20250000Y-23982143D01*
X20285714Y-23910714D01*
X20321429Y-23875000D01*
X20392857Y-23839286D01*
X20571429Y-23839286D01*
X20678572Y-23875000D01*
X20964286Y-24553571D02*
X21071429Y-24589286D01*
X21250000Y-24589286D01*
X21321429Y-24553571D01*
X21357143Y-24517857D01*
X21392858Y-24446429D01*
X21392858Y-24375000D01*
X21357143Y-24303571D01*
X21321429Y-24267857D01*
X21250000Y-24232143D01*
X21107143Y-24196429D01*
X21035715Y-24160714D01*
X21000000Y-24125000D01*
X20964286Y-24053571D01*
X20964286Y-23982143D01*
X21000000Y-23910714D01*
X21035715Y-23875000D01*
X21107143Y-23839286D01*
X21285715Y-23839286D01*
X21392858Y-23875000D01*
X21714286Y-24517857D02*
X21750001Y-24553571D01*
X21714286Y-24589286D01*
X21678572Y-24553571D01*
X21714286Y-24517857D01*
X21714286Y-24589286D01*
X21714286Y-24125000D02*
X21750001Y-24160714D01*
X21714286Y-24196429D01*
X21678572Y-24160714D01*
X21714286Y-24125000D01*
X21714286Y-24196429D01*
X22035715Y-24375000D02*
X22392858Y-24375000D01*
X21964287Y-24589286D02*
X22214287Y-23839286D01*
X22464287Y-24589286D01*
X35767858Y-47875000D02*
X35696429Y-47839286D01*
X35589286Y-47839286D01*
X35482143Y-47875000D01*
X35410715Y-47946429D01*
X35375000Y-48017857D01*
X35339286Y-48160714D01*
X35339286Y-48267857D01*
X35375000Y-48410714D01*
X35410715Y-48482143D01*
X35482143Y-48553571D01*
X35589286Y-48589286D01*
X35660715Y-48589286D01*
X35767858Y-48553571D01*
X35803572Y-48517857D01*
X35803572Y-48267857D01*
X35660715Y-48267857D01*
X36446429Y-48589286D02*
X36446429Y-48196429D01*
X36410715Y-48125000D01*
X36339286Y-48089286D01*
X36196429Y-48089286D01*
X36125000Y-48125000D01*
X36446429Y-48553571D02*
X36375000Y-48589286D01*
X36196429Y-48589286D01*
X36125000Y-48553571D01*
X36089286Y-48482143D01*
X36089286Y-48410714D01*
X36125000Y-48339286D01*
X36196429Y-48303571D01*
X36375000Y-48303571D01*
X36446429Y-48267857D01*
X36696429Y-48089286D02*
X36982143Y-48089286D01*
X36803571Y-47839286D02*
X36803571Y-48482143D01*
X36839286Y-48553571D01*
X36910714Y-48589286D01*
X36982143Y-48589286D01*
X37517857Y-48553571D02*
X37446428Y-48589286D01*
X37303571Y-48589286D01*
X37232142Y-48553571D01*
X37196428Y-48482143D01*
X37196428Y-48196429D01*
X37232142Y-48125000D01*
X37303571Y-48089286D01*
X37446428Y-48089286D01*
X37517857Y-48125000D01*
X37553571Y-48196429D01*
X37553571Y-48267857D01*
X37196428Y-48339286D01*
X37874999Y-48517857D02*
X37910714Y-48553571D01*
X37874999Y-48589286D01*
X37839285Y-48553571D01*
X37874999Y-48517857D01*
X37874999Y-48589286D01*
X37874999Y-48125000D02*
X37910714Y-48160714D01*
X37874999Y-48196429D01*
X37839285Y-48160714D01*
X37874999Y-48125000D01*
X37874999Y-48196429D01*
X38482142Y-48196429D02*
X38589285Y-48232143D01*
X38625000Y-48267857D01*
X38660714Y-48339286D01*
X38660714Y-48446429D01*
X38625000Y-48517857D01*
X38589285Y-48553571D01*
X38517857Y-48589286D01*
X38232142Y-48589286D01*
X38232142Y-47839286D01*
X38482142Y-47839286D01*
X38553571Y-47875000D01*
X38589285Y-47910714D01*
X38625000Y-47982143D01*
X38625000Y-48053571D01*
X38589285Y-48125000D01*
X38553571Y-48160714D01*
X38482142Y-48196429D01*
X38232142Y-48196429D01*
X12821430Y-23875000D02*
X12750001Y-23839286D01*
X12642858Y-23839286D01*
X12535715Y-23875000D01*
X12464287Y-23946429D01*
X12428572Y-24017857D01*
X12392858Y-24160714D01*
X12392858Y-24267857D01*
X12428572Y-24410714D01*
X12464287Y-24482143D01*
X12535715Y-24553571D01*
X12642858Y-24589286D01*
X12714287Y-24589286D01*
X12821430Y-24553571D01*
X12857144Y-24517857D01*
X12857144Y-24267857D01*
X12714287Y-24267857D01*
X13500001Y-24589286D02*
X13500001Y-24196429D01*
X13464287Y-24125000D01*
X13392858Y-24089286D01*
X13250001Y-24089286D01*
X13178572Y-24125000D01*
X13500001Y-24553571D02*
X13428572Y-24589286D01*
X13250001Y-24589286D01*
X13178572Y-24553571D01*
X13142858Y-24482143D01*
X13142858Y-24410714D01*
X13178572Y-24339286D01*
X13250001Y-24303571D01*
X13428572Y-24303571D01*
X13500001Y-24267857D01*
X13750001Y-24089286D02*
X14035715Y-24089286D01*
X13857143Y-23839286D02*
X13857143Y-24482143D01*
X13892858Y-24553571D01*
X13964286Y-24589286D01*
X14035715Y-24589286D01*
X14571429Y-24553571D02*
X14500000Y-24589286D01*
X14357143Y-24589286D01*
X14285714Y-24553571D01*
X14250000Y-24482143D01*
X14250000Y-24196429D01*
X14285714Y-24125000D01*
X14357143Y-24089286D01*
X14500000Y-24089286D01*
X14571429Y-24125000D01*
X14607143Y-24196429D01*
X14607143Y-24267857D01*
X14250000Y-24339286D01*
X14928571Y-24517857D02*
X14964286Y-24553571D01*
X14928571Y-24589286D01*
X14892857Y-24553571D01*
X14928571Y-24517857D01*
X14928571Y-24589286D01*
X14928571Y-24125000D02*
X14964286Y-24160714D01*
X14928571Y-24196429D01*
X14892857Y-24160714D01*
X14928571Y-24125000D01*
X14928571Y-24196429D01*
X15250000Y-24375000D02*
X15607143Y-24375000D01*
X15178572Y-24589286D02*
X15428572Y-23839286D01*
X15678572Y-24589286D01*
X12821430Y-47875000D02*
X12750001Y-47839286D01*
X12642858Y-47839286D01*
X12535715Y-47875000D01*
X12464287Y-47946429D01*
X12428572Y-48017857D01*
X12392858Y-48160714D01*
X12392858Y-48267857D01*
X12428572Y-48410714D01*
X12464287Y-48482143D01*
X12535715Y-48553571D01*
X12642858Y-48589286D01*
X12714287Y-48589286D01*
X12821430Y-48553571D01*
X12857144Y-48517857D01*
X12857144Y-48267857D01*
X12714287Y-48267857D01*
X13500001Y-48589286D02*
X13500001Y-48196429D01*
X13464287Y-48125000D01*
X13392858Y-48089286D01*
X13250001Y-48089286D01*
X13178572Y-48125000D01*
X13500001Y-48553571D02*
X13428572Y-48589286D01*
X13250001Y-48589286D01*
X13178572Y-48553571D01*
X13142858Y-48482143D01*
X13142858Y-48410714D01*
X13178572Y-48339286D01*
X13250001Y-48303571D01*
X13428572Y-48303571D01*
X13500001Y-48267857D01*
X13750001Y-48089286D02*
X14035715Y-48089286D01*
X13857143Y-47839286D02*
X13857143Y-48482143D01*
X13892858Y-48553571D01*
X13964286Y-48589286D01*
X14035715Y-48589286D01*
X14571429Y-48553571D02*
X14500000Y-48589286D01*
X14357143Y-48589286D01*
X14285714Y-48553571D01*
X14250000Y-48482143D01*
X14250000Y-48196429D01*
X14285714Y-48125000D01*
X14357143Y-48089286D01*
X14500000Y-48089286D01*
X14571429Y-48125000D01*
X14607143Y-48196429D01*
X14607143Y-48267857D01*
X14250000Y-48339286D01*
X14928571Y-48517857D02*
X14964286Y-48553571D01*
X14928571Y-48589286D01*
X14892857Y-48553571D01*
X14928571Y-48517857D01*
X14928571Y-48589286D01*
X14928571Y-48125000D02*
X14964286Y-48160714D01*
X14928571Y-48196429D01*
X14892857Y-48160714D01*
X14928571Y-48125000D01*
X14928571Y-48196429D01*
X15250000Y-48375000D02*
X15607143Y-48375000D01*
X15178572Y-48589286D02*
X15428572Y-47839286D01*
X15678572Y-48589286D01*
X51452381Y-3761905D02*
X52261905Y-3761905D01*
X52357143Y-3714286D01*
X52404762Y-3666667D01*
X52452381Y-3571429D01*
X52452381Y-3380952D01*
X52404762Y-3285714D01*
X52357143Y-3238095D01*
X52261905Y-3190476D01*
X51452381Y-3190476D01*
X51452381Y-2809524D02*
X51452381Y-2190476D01*
X51833333Y-2523810D01*
X51833333Y-2380952D01*
X51880952Y-2285714D01*
X51928571Y-2238095D01*
X52023810Y-2190476D01*
X52261905Y-2190476D01*
X52357143Y-2238095D01*
X52404762Y-2285714D01*
X52452381Y-2380952D01*
X52452381Y-2666667D01*
X52404762Y-2761905D01*
X52357143Y-2809524D01*
X5452381Y-3761905D02*
X6261905Y-3761905D01*
X6357143Y-3714286D01*
X6404762Y-3666667D01*
X6452381Y-3571429D01*
X6452381Y-3380952D01*
X6404762Y-3285714D01*
X6357143Y-3238095D01*
X6261905Y-3190476D01*
X5452381Y-3190476D01*
X6452381Y-2190476D02*
X6452381Y-2761905D01*
X6452381Y-2476191D02*
X5452381Y-2476191D01*
X5595238Y-2571429D01*
X5690476Y-2666667D01*
X5738095Y-2761905D01*
M02*
