  0
SECTION
  2
HEADER
  9
$ANGBASE
  50
0.0
  9
$ANGDIR
  70
  1
  9
$MEASUREMENT
  70
0
  0
ENDSEC
  0
SECTION
  2
TABLES
  0
TABLE
  2
LTYPE
  70
1
  0
LTYPE
  2
CONTINUOUS
  70
0
  3
Solid line
  72
65
  73
0
  40
0.0
  0
ENDTAB
  0
TABLE
  2
STYLE
  70
4
  0
STYLE
  2
KICAD
  70
0
  40
0
  41
1
  42
1
  50
0
  71
0
  3
isocp.shx
  0
STYLE
  2
KICADB
  70
0
  40
0
  41
1
  42
1
  50
0
  71
0
  3
isocp.shx
  0
STYLE
  2
KICADI
  70
0
  40
0
  41
1
  42
1
  50
15
  71
0
  3
isocp.shx
  0
STYLE
  2
KICADBI
  70
0
  40
0
  41
1
  42
1
  50
15
  71
0
  3
isocp.shx
  0
ENDTAB
  0
TABLE
  2
LAYER
  70
30
  0
LAYER
  2
BLACK
  70
0
  62
7
  6
CONTINUOUS
  0
LAYER
  2
GRAY1
  70
0
  62
251
  6
CONTINUOUS
  0
LAYER
  2
GRAY2
  70
0
  62
8
  6
CONTINUOUS
  0
LAYER
  2
GRAY3
  70
0
  62
9
  6
CONTINUOUS
  0
LAYER
  2
WHITE
  70
0
  62
7
  6
CONTINUOUS
  0
LAYER
  2
LYELLOW
  70
0
  62
51
  6
CONTINUOUS
  0
LAYER
  2
BLUE1
  70
0
  62
178
  6
CONTINUOUS
  0
LAYER
  2
GREEN1
  70
0
  62
98
  6
CONTINUOUS
  0
LAYER
  2
CYAN1
  70
0
  62
138
  6
CONTINUOUS
  0
LAYER
  2
RED1
  70
0
  62
18
  6
CONTINUOUS
  0
LAYER
  2
MAGENTA1
  70
0
  62
228
  6
CONTINUOUS
  0
LAYER
  2
BROWN1
  70
0
  62
58
  6
CONTINUOUS
  0
LAYER
  2
BLUE2
  70
0
  62
5
  6
CONTINUOUS
  0
LAYER
  2
GREEN2
  70
0
  62
3
  6
CONTINUOUS
  0
LAYER
  2
CYAN2
  70
0
  62
4
  6
CONTINUOUS
  0
LAYER
  2
RED2
  70
0
  62
1
  6
CONTINUOUS
  0
LAYER
  2
MAGENTA2
  70
0
  62
6
  6
CONTINUOUS
  0
LAYER
  2
BROWN2
  70
0
  62
54
  6
CONTINUOUS
  0
LAYER
  2
BLUE3
  70
0
  62
171
  6
CONTINUOUS
  0
LAYER
  2
GREEN3
  70
0
  62
91
  6
CONTINUOUS
  0
LAYER
  2
CYAN3
  70
0
  62
131
  6
CONTINUOUS
  0
LAYER
  2
RED3
  70
0
  62
11
  6
CONTINUOUS
  0
LAYER
  2
MAGENTA3
  70
0
  62
221
  6
CONTINUOUS
  0
LAYER
  2
YELLOW3
  70
0
  62
2
  6
CONTINUOUS
  0
LAYER
  2
BLUE4
  70
0
  62
5
  6
CONTINUOUS
  0
LAYER
  2
GREEN4
  70
0
  62
3
  6
CONTINUOUS
  0
LAYER
  2
CYAN4
  70
0
  62
4
  6
CONTINUOUS
  0
LAYER
  2
RED4
  70
0
  62
1
  6
CONTINUOUS
  0
LAYER
  2
MAGENTA4
  70
0
  62
6
  6
CONTINUOUS
  0
LAYER
  2
YELLOW4
  70
0
  62
2
  6
CONTINUOUS
  0
ENDTAB
  0
ENDSEC
  0
SECTION
  2
ENTITIES
0
LINE
8
Black
10
58.0065
20
0.073861
11
58.013
21
0.073861
0
LINE
8
Black
10
58.013
20
0.073861
11
58.0192
21
0.071616
0
LINE
8
Black
10
58.0192
20
0.071616
11
58.0257
21
0.070477
0
LINE
8
Black
10
58.0257
20
0.070477
11
58.0313
21
0.067196
0
LINE
8
Black
10
58.0313
20
0.067196
11
58.0375
21
0.064952
0
LINE
8
Black
10
58.0375
20
0.064952
11
58.0425
21
0.060734
0
LINE
8
Black
10
58.0425
20
0.060734
11
58.0482
21
0.057453
0
LINE
8
Black
10
58.0482
20
0.057453
11
58.0524
21
0.052427
0
LINE
8
Black
10
58.0524
20
0.052427
11
58.0575
21
0.048209
0
LINE
8
Black
10
58.0575
20
0.048209
11
58.0607
21
0.042527
0
LINE
8
Black
10
58.0607
20
0.042527
11
58.065
21
0.0375
0
LINE
8
Black
10
58.065
20
0.0375
11
58.0672
21
0.031334
0
LINE
8
Black
10
58.0672
20
0.031334
11
58.0705
21
0.025652
0
LINE
8
Black
10
58.0705
20
0.025652
11
58.0716
21
0.019191
0
LINE
8
Black
10
58.0716
20
0.019191
11
58.0739
21
0.013024
0
LINE
8
Black
10
58.0739
20
0.013024
11
58.0739
21
0.00646
0
LINE
8
Black
10
58.0739
20
0.00646
11
58.075
21
0
0
LINE
8
Black
10
58.075
20
0
11
58.075
21
-100
0
LINE
8
Black
10
58.075
20
-100
11
58.0739
21
-100.006
0
LINE
8
Black
10
58.0739
20
-100.006
11
58.0739
21
-100.013
0
LINE
8
Black
10
58.0739
20
-100.013
11
58.0716
21
-100.019
0
LINE
8
Black
10
58.0716
20
-100.019
11
58.0705
21
-100.026
0
LINE
8
Black
10
58.0705
20
-100.026
11
58.0672
21
-100.031
0
LINE
8
Black
10
58.0672
20
-100.031
11
58.065
21
-100.037
0
LINE
8
Black
10
58.065
20
-100.037
11
58.0607
21
-100.043
0
LINE
8
Black
10
58.0607
20
-100.043
11
58.0575
21
-100.048
0
LINE
8
Black
10
58.0575
20
-100.048
11
58.0524
21
-100.052
0
LINE
8
Black
10
58.0524
20
-100.052
11
58.0482
21
-100.057
0
LINE
8
Black
10
58.0482
20
-100.057
11
58.0425
21
-100.061
0
LINE
8
Black
10
58.0425
20
-100.061
11
58.0375
21
-100.065
0
LINE
8
Black
10
58.0375
20
-100.065
11
58.0313
21
-100.067
0
LINE
8
Black
10
58.0313
20
-100.067
11
58.0257
21
-100.07
0
LINE
8
Black
10
58.0257
20
-100.07
11
58.0192
21
-100.072
0
LINE
8
Black
10
58.0192
20
-100.072
11
58.013
21
-100.074
0
LINE
8
Black
10
58.013
20
-100.074
11
58.0065
21
-100.074
0
LINE
8
Black
10
58.0065
20
-100.074
11
58
21
-100.075
0
LINE
8
Black
10
58
20
-100.075
11
0
21
-100.075
0
LINE
8
Black
10
0
20
-100.075
11
-0.00646
21
-100.074
0
LINE
8
Black
10
-0.00646
20
-100.074
11
-0.013024
21
-100.074
0
LINE
8
Black
10
-0.013024
20
-100.074
11
-0.019191
21
-100.072
0
LINE
8
Black
10
-0.019191
20
-100.072
11
-0.025652
21
-100.07
0
LINE
8
Black
10
-0.025652
20
-100.07
11
-0.031334
21
-100.067
0
LINE
8
Black
10
-0.031334
20
-100.067
11
-0.0375
21
-100.065
0
LINE
8
Black
10
-0.0375
20
-100.065
11
-0.042527
21
-100.061
0
LINE
8
Black
10
-0.042527
20
-100.061
11
-0.048209
21
-100.057
0
LINE
8
Black
10
-0.048209
20
-100.057
11
-0.052427
21
-100.052
0
LINE
8
Black
10
-0.052427
20
-100.052
11
-0.057453
21
-100.048
0
LINE
8
Black
10
-0.057453
20
-100.048
11
-0.060734
21
-100.043
0
LINE
8
Black
10
-0.060734
20
-100.043
11
-0.064952
21
-100.037
0
LINE
8
Black
10
-0.064952
20
-100.037
11
-0.067196
21
-100.031
0
LINE
8
Black
10
-0.067196
20
-100.031
11
-0.070477
21
-100.026
0
LINE
8
Black
10
-0.070477
20
-100.026
11
-0.071616
21
-100.019
0
LINE
8
Black
10
-0.071616
20
-100.019
11
-0.073861
21
-100.013
0
LINE
8
Black
10
-0.073861
20
-100.013
11
-0.073861
21
-100.006
0
LINE
8
Black
10
-0.073861
20
-100.006
11
-0.075
21
-100
0
LINE
8
Black
10
-0.075
20
-100
11
-0.075
21
0
0
LINE
8
Black
10
-0.075
20
0
11
-0.073861
21
0.00646
0
LINE
8
Black
10
-0.073861
20
0.00646
11
-0.073861
21
0.013024
0
LINE
8
Black
10
-0.073861
20
0.013024
11
-0.071616
21
0.019191
0
LINE
8
Black
10
-0.071616
20
0.019191
11
-0.070477
21
0.025652
0
LINE
8
Black
10
-0.070477
20
0.025652
11
-0.067196
21
0.031334
0
LINE
8
Black
10
-0.067196
20
0.031334
11
-0.064952
21
0.0375
0
LINE
8
Black
10
-0.064952
20
0.0375
11
-0.060734
21
0.042527
0
LINE
8
Black
10
-0.060734
20
0.042527
11
-0.057453
21
0.048209
0
LINE
8
Black
10
-0.057453
20
0.048209
11
-0.052427
21
0.052427
0
LINE
8
Black
10
-0.052427
20
0.052427
11
-0.048209
21
0.057453
0
LINE
8
Black
10
-0.048209
20
0.057453
11
-0.042527
21
0.060734
0
LINE
8
Black
10
-0.042527
20
0.060734
11
-0.0375
21
0.064952
0
LINE
8
Black
10
-0.0375
20
0.064952
11
-0.031334
21
0.067196
0
LINE
8
Black
10
-0.031334
20
0.067196
11
-0.025652
21
0.070477
0
LINE
8
Black
10
-0.025652
20
0.070477
11
-0.019191
21
0.071616
0
LINE
8
Black
10
-0.019191
20
0.071616
11
-0.013024
21
0.073861
0
LINE
8
Black
10
-0.013024
20
0.073861
11
-0.00646
21
0.073861
0
LINE
8
Black
10
-0.00646
20
0.073861
11
0
21
0.075
0
LINE
8
Black
10
0
20
0.075
11
58
21
0.075
0
LINE
8
Black
10
58
20
0.075
11
58.0065
21
0.073861
0
LINE
8
Black
10
0.075
20
-0.075
11
0.075
21
-99.925
0
LINE
8
Black
10
0.075
20
-99.925
11
57.925
21
-99.925
0
LINE
8
Black
10
57.925
20
-99.925
11
57.925
21
-0.075
0
LINE
8
Black
10
57.925
20
-0.075
11
0.075
21
-0.075
  0
ENDSEC
  0
EOF
