  0
SECTION
  2
HEADER
  9
$ANGBASE
  50
0.0
  9
$ANGDIR
  70
  1
  9
$MEASUREMENT
  70
0
  0
ENDSEC
  0
SECTION
  2
TABLES
  0
TABLE
  2
LTYPE
  70
1
  0
LTYPE
  2
CONTINUOUS
  70
0
  3
Solid line
  72
65
  73
0
  40
0.0
  0
ENDTAB
  0
TABLE
  2
STYLE
  70
4
  0
STYLE
  2
KICAD
  70
0
  40
0
  41
1
  42
1
  50
0
  71
0
  3
isocp.shx
  0
STYLE
  2
KICADB
  70
0
  40
0
  41
1
  42
1
  50
0
  71
0
  3
isocp.shx
  0
STYLE
  2
KICADI
  70
0
  40
0
  41
1
  42
1
  50
15
  71
0
  3
isocp.shx
  0
STYLE
  2
KICADBI
  70
0
  40
0
  41
1
  42
1
  50
15
  71
0
  3
isocp.shx
  0
ENDTAB
  0
TABLE
  2
LAYER
  70
30
  0
LAYER
  2
BLACK
  70
0
  62
7
  6
CONTINUOUS
  0
LAYER
  2
GRAY1
  70
0
  62
251
  6
CONTINUOUS
  0
LAYER
  2
GRAY2
  70
0
  62
8
  6
CONTINUOUS
  0
LAYER
  2
GRAY3
  70
0
  62
9
  6
CONTINUOUS
  0
LAYER
  2
WHITE
  70
0
  62
7
  6
CONTINUOUS
  0
LAYER
  2
LYELLOW
  70
0
  62
51
  6
CONTINUOUS
  0
LAYER
  2
BLUE1
  70
0
  62
178
  6
CONTINUOUS
  0
LAYER
  2
GREEN1
  70
0
  62
98
  6
CONTINUOUS
  0
LAYER
  2
CYAN1
  70
0
  62
138
  6
CONTINUOUS
  0
LAYER
  2
RED1
  70
0
  62
18
  6
CONTINUOUS
  0
LAYER
  2
MAGENTA1
  70
0
  62
228
  6
CONTINUOUS
  0
LAYER
  2
BROWN1
  70
0
  62
58
  6
CONTINUOUS
  0
LAYER
  2
BLUE2
  70
0
  62
5
  6
CONTINUOUS
  0
LAYER
  2
GREEN2
  70
0
  62
3
  6
CONTINUOUS
  0
LAYER
  2
CYAN2
  70
0
  62
4
  6
CONTINUOUS
  0
LAYER
  2
RED2
  70
0
  62
1
  6
CONTINUOUS
  0
LAYER
  2
MAGENTA2
  70
0
  62
6
  6
CONTINUOUS
  0
LAYER
  2
BROWN2
  70
0
  62
54
  6
CONTINUOUS
  0
LAYER
  2
BLUE3
  70
0
  62
171
  6
CONTINUOUS
  0
LAYER
  2
GREEN3
  70
0
  62
91
  6
CONTINUOUS
  0
LAYER
  2
CYAN3
  70
0
  62
131
  6
CONTINUOUS
  0
LAYER
  2
RED3
  70
0
  62
11
  6
CONTINUOUS
  0
LAYER
  2
MAGENTA3
  70
0
  62
221
  6
CONTINUOUS
  0
LAYER
  2
YELLOW3
  70
0
  62
2
  6
CONTINUOUS
  0
LAYER
  2
BLUE4
  70
0
  62
5
  6
CONTINUOUS
  0
LAYER
  2
GREEN4
  70
0
  62
3
  6
CONTINUOUS
  0
LAYER
  2
CYAN4
  70
0
  62
4
  6
CONTINUOUS
  0
LAYER
  2
RED4
  70
0
  62
1
  6
CONTINUOUS
  0
LAYER
  2
MAGENTA4
  70
0
  62
6
  6
CONTINUOUS
  0
LAYER
  2
YELLOW4
  70
0
  62
2
  6
CONTINUOUS
  0
ENDTAB
  0
ENDSEC
  0
SECTION
  2
ENTITIES
0
LINE
8
Black
10
19.25
20
-99.5
11
16.75
21
-99.5
0
LINE
8
Black
10
16.75
20
-99.5
11
16.75
21
-95.5
0
LINE
8
Black
10
16.75
20
-95.5
11
19.25
21
-95.5
0
LINE
8
Black
10
19.25
20
-95.5
11
19.25
21
-99.5
0
LINE
8
Black
10
41.25
20
-99.5
11
38.75
21
-99.5
0
LINE
8
Black
10
38.75
20
-99.5
11
38.75
21
-95.5
0
LINE
8
Black
10
38.75
20
-95.5
11
41.25
21
-95.5
0
LINE
8
Black
10
41.25
20
-95.5
11
41.25
21
-99.5
0
LINE
8
Black
10
30.25
20
-99.5
11
27.75
21
-99.5
0
LINE
8
Black
10
27.75
20
-99.5
11
27.75
21
-95.5
0
LINE
8
Black
10
27.75
20
-95.5
11
30.25
21
-95.5
0
LINE
8
Black
10
30.25
20
-95.5
11
30.25
21
-99.5
0
LINE
8
Black
10
19.25
20
-91.5
11
16.75
21
-91.5
0
LINE
8
Black
10
16.75
20
-91.5
11
16.75
21
-87.5
0
LINE
8
Black
10
16.75
20
-87.5
11
19.25
21
-87.5
0
LINE
8
Black
10
19.25
20
-87.5
11
19.25
21
-91.5
0
LINE
8
Black
10
41.25
20
-91.5
11
38.75
21
-91.5
0
LINE
8
Black
10
38.75
20
-91.5
11
38.75
21
-87.5
0
LINE
8
Black
10
38.75
20
-87.5
11
41.25
21
-87.5
0
LINE
8
Black
10
41.25
20
-87.5
11
41.25
21
-91.5
0
LINE
8
Black
10
30.25
20
-91.5
11
27.75
21
-91.5
0
LINE
8
Black
10
27.75
20
-91.5
11
27.75
21
-87.5
0
LINE
8
Black
10
27.75
20
-87.5
11
30.25
21
-87.5
0
LINE
8
Black
10
30.25
20
-87.5
11
30.25
21
-91.5
0
LINE
8
Black
10
36.5
20
-87.8
11
35.5
21
-87.8
0
LINE
8
Black
10
35.5
20
-87.8
11
35.5
21
-86.2
0
LINE
8
Black
10
35.5
20
-86.2
11
36.5
21
-86.2
0
LINE
8
Black
10
36.5
20
-86.2
11
36.5
21
-87.8
0
LINE
8
Black
10
33.5
20
-87.8
11
32.5
21
-87.8
0
LINE
8
Black
10
32.5
20
-87.8
11
32.5
21
-86.2
0
LINE
8
Black
10
32.5
20
-86.2
11
33.5
21
-86.2
0
LINE
8
Black
10
33.5
20
-86.2
11
33.5
21
-87.8
0
LINE
8
Black
10
25.5
20
-87.8
11
24.5
21
-87.8
0
LINE
8
Black
10
24.5
20
-87.8
11
24.5
21
-86.2
0
LINE
8
Black
10
24.5
20
-86.2
11
25.5
21
-86.2
0
LINE
8
Black
10
25.5
20
-86.2
11
25.5
21
-87.8
0
LINE
8
Black
10
22.5
20
-87.8
11
21.5
21
-87.8
0
LINE
8
Black
10
21.5
20
-87.8
11
21.5
21
-86.2
0
LINE
8
Black
10
21.5
20
-86.2
11
22.5
21
-86.2
0
LINE
8
Black
10
22.5
20
-86.2
11
22.5
21
-87.8
0
LINE
8
Black
10
41.25
20
-86.5
11
38.75
21
-86.5
0
LINE
8
Black
10
38.75
20
-86.5
11
38.75
21
-82.5
0
LINE
8
Black
10
38.75
20
-82.5
11
41.25
21
-82.5
0
LINE
8
Black
10
41.25
20
-82.5
11
41.25
21
-86.5
0
LINE
8
Black
10
30.25
20
-86.5
11
27.75
21
-86.5
0
LINE
8
Black
10
27.75
20
-86.5
11
27.75
21
-82.5
0
LINE
8
Black
10
27.75
20
-82.5
11
30.25
21
-82.5
0
LINE
8
Black
10
30.25
20
-82.5
11
30.25
21
-86.5
0
LINE
8
Black
10
19.25
20
-86.5
11
16.75
21
-86.5
0
LINE
8
Black
10
16.75
20
-86.5
11
16.75
21
-82.5
0
LINE
8
Black
10
16.75
20
-82.5
11
19.25
21
-82.5
0
LINE
8
Black
10
19.25
20
-82.5
11
19.25
21
-86.5
0
LINE
8
Black
10
30.25
20
-78.5
11
27.75
21
-78.5
0
LINE
8
Black
10
27.75
20
-78.5
11
27.75
21
-74.5
0
LINE
8
Black
10
27.75
20
-74.5
11
30.25
21
-74.5
0
LINE
8
Black
10
30.25
20
-74.5
11
30.25
21
-78.5
0
LINE
8
Black
10
41.25
20
-78.5
11
38.75
21
-78.5
0
LINE
8
Black
10
38.75
20
-78.5
11
38.75
21
-74.5
0
LINE
8
Black
10
38.75
20
-74.5
11
41.25
21
-74.5
0
LINE
8
Black
10
41.25
20
-74.5
11
41.25
21
-78.5
0
LINE
8
Black
10
19.25
20
-78.5
11
16.75
21
-78.5
0
LINE
8
Black
10
16.75
20
-78.5
11
16.75
21
-74.5
0
LINE
8
Black
10
16.75
20
-74.5
11
19.25
21
-74.5
0
LINE
8
Black
10
19.25
20
-74.5
11
19.25
21
-78.5
0
LINE
8
Black
10
33.5
20
-74.8
11
32.5
21
-74.8
0
LINE
8
Black
10
32.5
20
-74.8
11
32.5
21
-73.2
0
LINE
8
Black
10
32.5
20
-73.2
11
33.5
21
-73.2
0
LINE
8
Black
10
33.5
20
-73.2
11
33.5
21
-74.8
0
LINE
8
Black
10
36.5
20
-74.8
11
35.5
21
-74.8
0
LINE
8
Black
10
35.5
20
-74.8
11
35.5
21
-73.2
0
LINE
8
Black
10
35.5
20
-73.2
11
36.5
21
-73.2
0
LINE
8
Black
10
36.5
20
-73.2
11
36.5
21
-74.8
0
LINE
8
Black
10
25.5
20
-74.8
11
24.5
21
-74.8
0
LINE
8
Black
10
24.5
20
-74.8
11
24.5
21
-73.2
0
LINE
8
Black
10
24.5
20
-73.2
11
25.5
21
-73.2
0
LINE
8
Black
10
25.5
20
-73.2
11
25.5
21
-74.8
0
LINE
8
Black
10
22.5
20
-74.8
11
21.5
21
-74.8
0
LINE
8
Black
10
21.5
20
-74.8
11
21.5
21
-73.2
0
LINE
8
Black
10
21.5
20
-73.2
11
22.5
21
-73.2
0
LINE
8
Black
10
22.5
20
-73.2
11
22.5
21
-74.8
0
LINE
8
Black
10
30.25
20
-73.5
11
27.75
21
-73.5
0
LINE
8
Black
10
27.75
20
-73.5
11
27.75
21
-69.5
0
LINE
8
Black
10
27.75
20
-69.5
11
30.25
21
-69.5
0
LINE
8
Black
10
30.25
20
-69.5
11
30.25
21
-73.5
0
LINE
8
Black
10
41.25
20
-73.5
11
38.75
21
-73.5
0
LINE
8
Black
10
38.75
20
-73.5
11
38.75
21
-69.5
0
LINE
8
Black
10
38.75
20
-69.5
11
41.25
21
-69.5
0
LINE
8
Black
10
41.25
20
-69.5
11
41.25
21
-73.5
0
LINE
8
Black
10
19.25
20
-73.5
11
16.75
21
-73.5
0
LINE
8
Black
10
16.75
20
-73.5
11
16.75
21
-69.5
0
LINE
8
Black
10
16.75
20
-69.5
11
19.25
21
-69.5
0
LINE
8
Black
10
19.25
20
-69.5
11
19.25
21
-73.5
0
LINE
8
Black
10
30.25
20
-65.5
11
27.75
21
-65.5
0
LINE
8
Black
10
27.75
20
-65.5
11
27.75
21
-61.5
0
LINE
8
Black
10
27.75
20
-61.5
11
30.25
21
-61.5
0
LINE
8
Black
10
30.25
20
-61.5
11
30.25
21
-65.5
0
LINE
8
Black
10
19.25
20
-65.5
11
16.75
21
-65.5
0
LINE
8
Black
10
16.75
20
-65.5
11
16.75
21
-61.5
0
LINE
8
Black
10
16.75
20
-61.5
11
19.25
21
-61.5
0
LINE
8
Black
10
19.25
20
-61.5
11
19.25
21
-65.5
0
LINE
8
Black
10
41.25
20
-65.5
11
38.75
21
-65.5
0
LINE
8
Black
10
38.75
20
-65.5
11
38.75
21
-61.5
0
LINE
8
Black
10
38.75
20
-61.5
11
41.25
21
-61.5
0
LINE
8
Black
10
41.25
20
-61.5
11
41.25
21
-65.5
0
LINE
8
Black
10
36.5
20
-61.8
11
35.5
21
-61.8
0
LINE
8
Black
10
35.5
20
-61.8
11
35.5
21
-60.2
0
LINE
8
Black
10
35.5
20
-60.2
11
36.5
21
-60.2
0
LINE
8
Black
10
36.5
20
-60.2
11
36.5
21
-61.8
0
LINE
8
Black
10
33.5
20
-61.8
11
32.5
21
-61.8
0
LINE
8
Black
10
32.5
20
-61.8
11
32.5
21
-60.2
0
LINE
8
Black
10
32.5
20
-60.2
11
33.5
21
-60.2
0
LINE
8
Black
10
33.5
20
-60.2
11
33.5
21
-61.8
0
LINE
8
Black
10
25.5
20
-61.8
11
24.5
21
-61.8
0
LINE
8
Black
10
24.5
20
-61.8
11
24.5
21
-60.2
0
LINE
8
Black
10
24.5
20
-60.2
11
25.5
21
-60.2
0
LINE
8
Black
10
25.5
20
-60.2
11
25.5
21
-61.8
0
LINE
8
Black
10
22.5
20
-61.8
11
21.5
21
-61.8
0
LINE
8
Black
10
21.5
20
-61.8
11
21.5
21
-60.2
0
LINE
8
Black
10
21.5
20
-60.2
11
22.5
21
-60.2
0
LINE
8
Black
10
22.5
20
-60.2
11
22.5
21
-61.8
0
LINE
8
Black
10
41.25
20
-60.5
11
38.75
21
-60.5
0
LINE
8
Black
10
38.75
20
-60.5
11
38.75
21
-56.5
0
LINE
8
Black
10
38.75
20
-56.5
11
41.25
21
-56.5
0
LINE
8
Black
10
41.25
20
-56.5
11
41.25
21
-60.5
0
LINE
8
Black
10
19.25
20
-60.5
11
16.75
21
-60.5
0
LINE
8
Black
10
16.75
20
-60.5
11
16.75
21
-56.5
0
LINE
8
Black
10
16.75
20
-56.5
11
19.25
21
-56.5
0
LINE
8
Black
10
19.25
20
-56.5
11
19.25
21
-60.5
0
LINE
8
Black
10
30.25
20
-60.5
11
27.75
21
-60.5
0
LINE
8
Black
10
27.75
20
-60.5
11
27.75
21
-56.5
0
LINE
8
Black
10
27.75
20
-56.5
11
30.25
21
-56.5
0
LINE
8
Black
10
30.25
20
-56.5
11
30.25
21
-60.5
0
LINE
8
Black
10
41.25
20
-52.5
11
38.75
21
-52.5
0
LINE
8
Black
10
38.75
20
-52.5
11
38.75
21
-48.5
0
LINE
8
Black
10
38.75
20
-48.5
11
41.25
21
-48.5
0
LINE
8
Black
10
41.25
20
-48.5
11
41.25
21
-52.5
0
LINE
8
Black
10
19.25
20
-52.5
11
16.75
21
-52.5
0
LINE
8
Black
10
16.75
20
-52.5
11
16.75
21
-48.5
0
LINE
8
Black
10
16.75
20
-48.5
11
19.25
21
-48.5
0
LINE
8
Black
10
19.25
20
-48.5
11
19.25
21
-52.5
0
LINE
8
Black
10
30.25
20
-52.5
11
27.75
21
-52.5
0
LINE
8
Black
10
27.75
20
-52.5
11
27.75
21
-48.5
0
LINE
8
Black
10
27.75
20
-48.5
11
30.25
21
-48.5
0
LINE
8
Black
10
30.25
20
-48.5
11
30.25
21
-52.5
0
LINE
8
Black
10
15.5
20
-47.25
11
12.5
21
-47.25
0
LINE
8
Black
10
12.5
20
-47.25
11
12.5
21
-45.75
0
LINE
8
Black
10
12.5
20
-45.75
11
15.5
21
-45.75
0
LINE
8
Black
10
15.5
20
-45.75
11
15.5
21
-47.25
0
LINE
8
Black
10
38.5
20
-47.25
11
35.5
21
-47.25
0
LINE
8
Black
10
35.5
20
-47.25
11
35.5
21
-45.75
0
LINE
8
Black
10
35.5
20
-45.75
11
38.5
21
-45.75
0
LINE
8
Black
10
38.5
20
-45.75
11
38.5
21
-47.25
0
LINE
8
Black
10
20.65
20
-44.85
11
19.15
21
-44.85
0
LINE
8
Black
10
19.15
20
-44.85
11
19.15
21
-42.15
0
LINE
8
Black
10
19.15
20
-42.15
11
20.65
21
-42.15
0
LINE
8
Black
10
20.65
20
-42.15
11
20.65
21
-44.85
0
LINE
8
Black
10
38.85
20
-44.85
11
37.35
21
-44.85
0
LINE
8
Black
10
37.35
20
-44.85
11
37.35
21
-42.15
0
LINE
8
Black
10
37.35
20
-42.15
11
38.85
21
-42.15
0
LINE
8
Black
10
38.85
20
-42.15
11
38.85
21
-44.85
0
LINE
8
Black
10
43.65
20
-44.85
11
42.15
21
-44.85
0
LINE
8
Black
10
42.15
20
-44.85
11
42.15
21
-42.15
0
LINE
8
Black
10
42.15
20
-42.15
11
43.65
21
-42.15
0
LINE
8
Black
10
43.65
20
-42.15
11
43.65
21
-44.85
0
LINE
8
Black
10
15.85
20
-44.85
11
14.35
21
-44.85
0
LINE
8
Black
10
14.35
20
-44.85
11
14.35
21
-42.15
0
LINE
8
Black
10
14.35
20
-42.15
11
15.85
21
-42.15
0
LINE
8
Black
10
15.85
20
-42.15
11
15.85
21
-44.85
0
LINE
8
Black
10
45.85
20
-44.4
11
44.15
21
-44.4
0
LINE
8
Black
10
44.15
20
-44.4
11
44.15
21
-43.1
0
LINE
8
Black
10
44.15
20
-43.1
11
45.85
21
-43.1
0
LINE
8
Black
10
45.85
20
-43.1
11
45.85
21
-44.4
0
LINE
8
Black
10
22.85
20
-44.4
11
21.15
21
-44.4
0
LINE
8
Black
10
21.15
20
-44.4
11
21.15
21
-43.1
0
LINE
8
Black
10
21.15
20
-43.1
11
22.85
21
-43.1
0
LINE
8
Black
10
22.85
20
-43.1
11
22.85
21
-44.4
0
LINE
8
Black
10
13.85
20
-43.4
11
12.15
21
-43.4
0
LINE
8
Black
10
12.15
20
-43.4
11
12.15
21
-42.5
0
LINE
8
Black
10
12.15
20
-42.5
11
13.85
21
-42.5
0
LINE
8
Black
10
13.85
20
-42.5
11
13.85
21
-43.4
0
LINE
8
Black
10
36.85
20
-43.4
11
35.15
21
-43.4
0
LINE
8
Black
10
35.15
20
-43.4
11
35.15
21
-42.5
0
LINE
8
Black
10
35.15
20
-42.5
11
36.85
21
-42.5
0
LINE
8
Black
10
36.85
20
-42.5
11
36.85
21
-43.4
0
LINE
8
Black
10
42.4
20
-41.35
11
41.5
21
-41.35
0
LINE
8
Black
10
41.5
20
-41.35
11
41.5
21
-39.65
0
LINE
8
Black
10
41.5
20
-39.65
11
42.4
21
-39.65
0
LINE
8
Black
10
42.4
20
-39.65
11
42.4
21
-41.35
0
LINE
8
Black
10
39.5
20
-41.35
11
38.6
21
-41.35
0
LINE
8
Black
10
38.6
20
-41.35
11
38.6
21
-39.65
0
LINE
8
Black
10
38.6
20
-39.65
11
39.5
21
-39.65
0
LINE
8
Black
10
39.5
20
-39.65
11
39.5
21
-41.35
0
LINE
8
Black
10
19.4
20
-41.35
11
18.5
21
-41.35
0
LINE
8
Black
10
18.5
20
-41.35
11
18.5
21
-39.65
0
LINE
8
Black
10
18.5
20
-39.65
11
19.4
21
-39.65
0
LINE
8
Black
10
19.4
20
-39.65
11
19.4
21
-41.35
0
LINE
8
Black
10
16.5
20
-41.35
11
15.6
21
-41.35
0
LINE
8
Black
10
15.6
20
-41.35
11
15.6
21
-39.65
0
LINE
8
Black
10
15.6
20
-39.65
11
16.5
21
-39.65
0
LINE
8
Black
10
16.5
20
-39.65
11
16.5
21
-41.35
0
LINE
8
Black
10
45.85
20
-40.9
11
44.15
21
-40.9
0
LINE
8
Black
10
44.15
20
-40.9
11
44.15
21
-39.6
0
LINE
8
Black
10
44.15
20
-39.6
11
45.85
21
-39.6
0
LINE
8
Black
10
45.85
20
-39.6
11
45.85
21
-40.9
0
LINE
8
Black
10
22.85
20
-40.9
11
21.15
21
-40.9
0
LINE
8
Black
10
21.15
20
-40.9
11
21.15
21
-39.6
0
LINE
8
Black
10
21.15
20
-39.6
11
22.85
21
-39.6
0
LINE
8
Black
10
22.85
20
-39.6
11
22.85
21
-40.9
0
LINE
8
Black
10
36.85
20
-40.5
11
35.15
21
-40.5
0
LINE
8
Black
10
35.15
20
-40.5
11
35.15
21
-39.6
0
LINE
8
Black
10
35.15
20
-39.6
11
36.85
21
-39.6
0
LINE
8
Black
10
36.85
20
-39.6
11
36.85
21
-40.5
0
LINE
8
Black
10
13.85
20
-40.5
11
12.15
21
-40.5
0
LINE
8
Black
10
12.15
20
-40.5
11
12.15
21
-39.6
0
LINE
8
Black
10
12.15
20
-39.6
11
13.85
21
-39.6
0
LINE
8
Black
10
13.85
20
-39.6
11
13.85
21
-40.5
0
LINE
8
Black
10
39
20
-38.55
11
38.4
21
-38.55
0
LINE
8
Black
10
38.4
20
-38.55
11
38.4
21
-35.95
0
LINE
8
Black
10
38.4
20
-35.95
11
39
21
-35.95
0
LINE
8
Black
10
39
20
-35.95
11
39
21
-38.55
0
LINE
8
Black
10
14.8
20
-38.55
11
14.2
21
-38.55
0
LINE
8
Black
10
14.2
20
-38.55
11
14.2
21
-35.95
0
LINE
8
Black
10
14.2
20
-35.95
11
14.8
21
-35.95
0
LINE
8
Black
10
14.8
20
-35.95
11
14.8
21
-38.55
0
LINE
8
Black
10
13.6
20
-38.55
11
13
21
-38.55
0
LINE
8
Black
10
13
20
-38.55
11
13
21
-35.95
0
LINE
8
Black
10
13
20
-35.95
11
13.6
21
-35.95
0
LINE
8
Black
10
13.6
20
-35.95
11
13.6
21
-38.55
0
LINE
8
Black
10
16
20
-38.55
11
15.4
21
-38.55
0
LINE
8
Black
10
15.4
20
-38.55
11
15.4
21
-35.95
0
LINE
8
Black
10
15.4
20
-35.95
11
16
21
-35.95
0
LINE
8
Black
10
16
20
-35.95
11
16
21
-38.55
0
LINE
8
Black
10
22
20
-38.55
11
21.4
21
-38.55
0
LINE
8
Black
10
21.4
20
-38.55
11
21.4
21
-35.95
0
LINE
8
Black
10
21.4
20
-35.95
11
22
21
-35.95
0
LINE
8
Black
10
22
20
-35.95
11
22
21
-38.55
0
LINE
8
Black
10
20.8
20
-38.55
11
20.2
21
-38.55
0
LINE
8
Black
10
20.2
20
-38.55
11
20.2
21
-35.95
0
LINE
8
Black
10
20.2
20
-35.95
11
20.8
21
-35.95
0
LINE
8
Black
10
20.8
20
-35.95
11
20.8
21
-38.55
0
LINE
8
Black
10
19.6
20
-38.55
11
19
21
-38.55
0
LINE
8
Black
10
19
20
-38.55
11
19
21
-35.95
0
LINE
8
Black
10
19
20
-35.95
11
19.6
21
-35.95
0
LINE
8
Black
10
19.6
20
-35.95
11
19.6
21
-38.55
0
LINE
8
Black
10
18.4
20
-38.55
11
17.8
21
-38.55
0
LINE
8
Black
10
17.8
20
-38.55
11
17.8
21
-35.95
0
LINE
8
Black
10
17.8
20
-35.95
11
18.4
21
-35.95
0
LINE
8
Black
10
18.4
20
-35.95
11
18.4
21
-38.55
0
LINE
8
Black
10
17.2
20
-38.55
11
16.6
21
-38.55
0
LINE
8
Black
10
16.6
20
-38.55
11
16.6
21
-35.95
0
LINE
8
Black
10
16.6
20
-35.95
11
17.2
21
-35.95
0
LINE
8
Black
10
17.2
20
-35.95
11
17.2
21
-38.55
0
LINE
8
Black
10
40.2
20
-38.55
11
39.6
21
-38.55
0
LINE
8
Black
10
39.6
20
-38.55
11
39.6
21
-35.95
0
LINE
8
Black
10
39.6
20
-35.95
11
40.2
21
-35.95
0
LINE
8
Black
10
40.2
20
-35.95
11
40.2
21
-38.55
0
LINE
8
Black
10
41.4
20
-38.55
11
40.8
21
-38.55
0
LINE
8
Black
10
40.8
20
-38.55
11
40.8
21
-35.95
0
LINE
8
Black
10
40.8
20
-35.95
11
41.4
21
-35.95
0
LINE
8
Black
10
41.4
20
-35.95
11
41.4
21
-38.55
0
LINE
8
Black
10
36.6
20
-38.55
11
36
21
-38.55
0
LINE
8
Black
10
36
20
-38.55
11
36
21
-35.95
0
LINE
8
Black
10
36
20
-35.95
11
36.6
21
-35.95
0
LINE
8
Black
10
36.6
20
-35.95
11
36.6
21
-38.55
0
LINE
8
Black
10
37.8
20
-38.55
11
37.2
21
-38.55
0
LINE
8
Black
10
37.2
20
-38.55
11
37.2
21
-35.95
0
LINE
8
Black
10
37.2
20
-35.95
11
37.8
21
-35.95
0
LINE
8
Black
10
37.8
20
-35.95
11
37.8
21
-38.55
0
LINE
8
Black
10
42.6
20
-38.55
11
42
21
-38.55
0
LINE
8
Black
10
42
20
-38.55
11
42
21
-35.95
0
LINE
8
Black
10
42
20
-35.95
11
42.6
21
-35.95
0
LINE
8
Black
10
42.6
20
-35.95
11
42.6
21
-38.55
0
LINE
8
Black
10
43.8
20
-38.55
11
43.2
21
-38.55
0
LINE
8
Black
10
43.2
20
-38.55
11
43.2
21
-35.95
0
LINE
8
Black
10
43.2
20
-35.95
11
43.8
21
-35.95
0
LINE
8
Black
10
43.8
20
-35.95
11
43.8
21
-38.55
0
LINE
8
Black
10
45
20
-38.55
11
44.4
21
-38.55
0
LINE
8
Black
10
44.4
20
-38.55
11
44.4
21
-35.95
0
LINE
8
Black
10
44.4
20
-35.95
11
45
21
-35.95
0
LINE
8
Black
10
45
20
-35.95
11
45
21
-38.55
0
LINE
8
Black
10
45.35
20
-33.35
11
35.65
21
-33.35
0
LINE
8
Black
10
35.65
20
-33.35
11
35.65
21
-29.65
0
LINE
8
Black
10
35.65
20
-29.65
11
36.15
21
-29.65
0
LINE
8
Black
10
36.15
20
-29.65
11
36.15
21
-26.75
0
LINE
8
Black
10
36.15
20
-26.75
11
35.45
21
-26.75
0
LINE
8
Black
10
35.45
20
-26.75
11
35.45
21
-25.35
0
LINE
8
Black
10
35.45
20
-25.35
11
45.55
21
-25.35
0
LINE
8
Black
10
45.55
20
-25.35
11
45.55
21
-26.75
0
LINE
8
Black
10
45.55
20
-26.75
11
44.85
21
-26.75
0
LINE
8
Black
10
44.85
20
-26.75
11
44.85
21
-29.65
0
LINE
8
Black
10
44.85
20
-29.65
11
45.35
21
-29.65
0
LINE
8
Black
10
45.35
20
-29.65
11
45.35
21
-33.35
0
LINE
8
Black
10
22.35
20
-33.35
11
12.65
21
-33.35
0
LINE
8
Black
10
12.65
20
-33.35
11
12.65
21
-29.65
0
LINE
8
Black
10
12.65
20
-29.65
11
13.15
21
-29.65
0
LINE
8
Black
10
13.15
20
-29.65
11
13.15
21
-26.75
0
LINE
8
Black
10
13.15
20
-26.75
11
12.45
21
-26.75
0
LINE
8
Black
10
12.45
20
-26.75
11
12.45
21
-25.35
0
LINE
8
Black
10
12.45
20
-25.35
11
22.55
21
-25.35
0
LINE
8
Black
10
22.55
20
-25.35
11
22.55
21
-26.75
0
LINE
8
Black
10
22.55
20
-26.75
11
21.85
21
-26.75
0
LINE
8
Black
10
21.85
20
-26.75
11
21.85
21
-29.65
0
LINE
8
Black
10
21.85
20
-29.65
11
22.35
21
-29.65
0
LINE
8
Black
10
22.35
20
-29.65
11
22.35
21
-33.35
0
LINE
8
Black
10
15.5
20
-23.25
11
12.5
21
-23.25
0
LINE
8
Black
10
12.5
20
-23.25
11
12.5
21
-21.75
0
LINE
8
Black
10
12.5
20
-21.75
11
15.5
21
-21.75
0
LINE
8
Black
10
15.5
20
-21.75
11
15.5
21
-23.25
0
LINE
8
Black
10
22.5
20
-23.25
11
19.5
21
-23.25
0
LINE
8
Black
10
19.5
20
-23.25
11
19.5
21
-21.75
0
LINE
8
Black
10
19.5
20
-21.75
11
22.5
21
-21.75
0
LINE
8
Black
10
22.5
20
-21.75
11
22.5
21
-23.25
0
LINE
8
Black
10
45.5
20
-23.25
11
42.5
21
-23.25
0
LINE
8
Black
10
42.5
20
-23.25
11
42.5
21
-21.75
0
LINE
8
Black
10
42.5
20
-21.75
11
45.5
21
-21.75
0
LINE
8
Black
10
45.5
20
-21.75
11
45.5
21
-23.25
0
LINE
8
Black
10
38.5
20
-23.25
11
35.5
21
-23.25
0
LINE
8
Black
10
35.5
20
-23.25
11
35.5
21
-21.75
0
LINE
8
Black
10
35.5
20
-21.75
11
38.5
21
-21.75
0
LINE
8
Black
10
38.5
20
-21.75
11
38.5
21
-23.25
0
LINE
8
Black
10
20.65
20
-20.85
11
19.15
21
-20.85
0
LINE
8
Black
10
19.15
20
-20.85
11
19.15
21
-18.15
0
LINE
8
Black
10
19.15
20
-18.15
11
20.65
21
-18.15
0
LINE
8
Black
10
20.65
20
-18.15
11
20.65
21
-20.85
0
LINE
8
Black
10
15.85
20
-20.85
11
14.35
21
-20.85
0
LINE
8
Black
10
14.35
20
-20.85
11
14.35
21
-18.15
0
LINE
8
Black
10
14.35
20
-18.15
11
15.85
21
-18.15
0
LINE
8
Black
10
15.85
20
-18.15
11
15.85
21
-20.85
0
LINE
8
Black
10
38.85
20
-20.85
11
37.35
21
-20.85
0
LINE
8
Black
10
37.35
20
-20.85
11
37.35
21
-18.15
0
LINE
8
Black
10
37.35
20
-18.15
11
38.85
21
-18.15
0
LINE
8
Black
10
38.85
20
-18.15
11
38.85
21
-20.85
0
LINE
8
Black
10
43.65
20
-20.85
11
42.15
21
-20.85
0
LINE
8
Black
10
42.15
20
-20.85
11
42.15
21
-18.15
0
LINE
8
Black
10
42.15
20
-18.15
11
43.65
21
-18.15
0
LINE
8
Black
10
43.65
20
-18.15
11
43.65
21
-20.85
0
LINE
8
Black
10
22.85
20
-20.4
11
21.15
21
-20.4
0
LINE
8
Black
10
21.15
20
-20.4
11
21.15
21
-19.1
0
LINE
8
Black
10
21.15
20
-19.1
11
22.85
21
-19.1
0
LINE
8
Black
10
22.85
20
-19.1
11
22.85
21
-20.4
0
LINE
8
Black
10
45.85
20
-20.4
11
44.15
21
-20.4
0
LINE
8
Black
10
44.15
20
-20.4
11
44.15
21
-19.1
0
LINE
8
Black
10
44.15
20
-19.1
11
45.85
21
-19.1
0
LINE
8
Black
10
45.85
20
-19.1
11
45.85
21
-20.4
0
LINE
8
Black
10
13.85
20
-19.4
11
12.15
21
-19.4
0
LINE
8
Black
10
12.15
20
-19.4
11
12.15
21
-18.5
0
LINE
8
Black
10
12.15
20
-18.5
11
13.85
21
-18.5
0
LINE
8
Black
10
13.85
20
-18.5
11
13.85
21
-19.4
0
LINE
8
Black
10
36.85
20
-19.4
11
35.15
21
-19.4
0
LINE
8
Black
10
35.15
20
-19.4
11
35.15
21
-18.5
0
LINE
8
Black
10
35.15
20
-18.5
11
36.85
21
-18.5
0
LINE
8
Black
10
36.85
20
-18.5
11
36.85
21
-19.4
0
LINE
8
Black
10
19.4
20
-17.35
11
18.5
21
-17.35
0
LINE
8
Black
10
18.5
20
-17.35
11
18.5
21
-15.65
0
LINE
8
Black
10
18.5
20
-15.65
11
19.4
21
-15.65
0
LINE
8
Black
10
19.4
20
-15.65
11
19.4
21
-17.35
0
LINE
8
Black
10
16.5
20
-17.35
11
15.6
21
-17.35
0
LINE
8
Black
10
15.6
20
-17.35
11
15.6
21
-15.65
0
LINE
8
Black
10
15.6
20
-15.65
11
16.5
21
-15.65
0
LINE
8
Black
10
16.5
20
-15.65
11
16.5
21
-17.35
0
LINE
8
Black
10
42.4
20
-17.35
11
41.5
21
-17.35
0
LINE
8
Black
10
41.5
20
-17.35
11
41.5
21
-15.65
0
LINE
8
Black
10
41.5
20
-15.65
11
42.4
21
-15.65
0
LINE
8
Black
10
42.4
20
-15.65
11
42.4
21
-17.35
0
LINE
8
Black
10
39.5
20
-17.35
11
38.6
21
-17.35
0
LINE
8
Black
10
38.6
20
-17.35
11
38.6
21
-15.65
0
LINE
8
Black
10
38.6
20
-15.65
11
39.5
21
-15.65
0
LINE
8
Black
10
39.5
20
-15.65
11
39.5
21
-17.35
0
LINE
8
Black
10
45.85
20
-16.9
11
44.15
21
-16.9
0
LINE
8
Black
10
44.15
20
-16.9
11
44.15
21
-15.6
0
LINE
8
Black
10
44.15
20
-15.6
11
45.85
21
-15.6
0
LINE
8
Black
10
45.85
20
-15.6
11
45.85
21
-16.9
0
LINE
8
Black
10
22.85
20
-16.9
11
21.15
21
-16.9
0
LINE
8
Black
10
21.15
20
-16.9
11
21.15
21
-15.6
0
LINE
8
Black
10
21.15
20
-15.6
11
22.85
21
-15.6
0
LINE
8
Black
10
22.85
20
-15.6
11
22.85
21
-16.9
0
LINE
8
Black
10
13.85
20
-16.5
11
12.15
21
-16.5
0
LINE
8
Black
10
12.15
20
-16.5
11
12.15
21
-15.6
0
LINE
8
Black
10
12.15
20
-15.6
11
13.85
21
-15.6
0
LINE
8
Black
10
13.85
20
-15.6
11
13.85
21
-16.5
0
LINE
8
Black
10
36.85
20
-16.5
11
35.15
21
-16.5
0
LINE
8
Black
10
35.15
20
-16.5
11
35.15
21
-15.6
0
LINE
8
Black
10
35.15
20
-15.6
11
36.85
21
-15.6
0
LINE
8
Black
10
36.85
20
-15.6
11
36.85
21
-16.5
0
LINE
8
Black
10
17.2
20
-14.55
11
16.6
21
-14.55
0
LINE
8
Black
10
16.6
20
-14.55
11
16.6
21
-11.95
0
LINE
8
Black
10
16.6
20
-11.95
11
17.2
21
-11.95
0
LINE
8
Black
10
17.2
20
-11.95
11
17.2
21
-14.55
0
LINE
8
Black
10
42.6
20
-14.55
11
42
21
-14.55
0
LINE
8
Black
10
42
20
-14.55
11
42
21
-11.95
0
LINE
8
Black
10
42
20
-11.95
11
42.6
21
-11.95
0
LINE
8
Black
10
42.6
20
-11.95
11
42.6
21
-14.55
0
LINE
8
Black
10
43.8
20
-14.55
11
43.2
21
-14.55
0
LINE
8
Black
10
43.2
20
-14.55
11
43.2
21
-11.95
0
LINE
8
Black
10
43.2
20
-11.95
11
43.8
21
-11.95
0
LINE
8
Black
10
43.8
20
-11.95
11
43.8
21
-14.55
0
LINE
8
Black
10
45
20
-14.55
11
44.4
21
-14.55
0
LINE
8
Black
10
44.4
20
-14.55
11
44.4
21
-11.95
0
LINE
8
Black
10
44.4
20
-11.95
11
45
21
-11.95
0
LINE
8
Black
10
45
20
-11.95
11
45
21
-14.55
0
LINE
8
Black
10
39
20
-14.55
11
38.4
21
-14.55
0
LINE
8
Black
10
38.4
20
-14.55
11
38.4
21
-11.95
0
LINE
8
Black
10
38.4
20
-11.95
11
39
21
-11.95
0
LINE
8
Black
10
39
20
-11.95
11
39
21
-14.55
0
LINE
8
Black
10
37.8
20
-14.55
11
37.2
21
-14.55
0
LINE
8
Black
10
37.2
20
-14.55
11
37.2
21
-11.95
0
LINE
8
Black
10
37.2
20
-11.95
11
37.8
21
-11.95
0
LINE
8
Black
10
37.8
20
-11.95
11
37.8
21
-14.55
0
LINE
8
Black
10
36.6
20
-14.55
11
36
21
-14.55
0
LINE
8
Black
10
36
20
-14.55
11
36
21
-11.95
0
LINE
8
Black
10
36
20
-11.95
11
36.6
21
-11.95
0
LINE
8
Black
10
36.6
20
-11.95
11
36.6
21
-14.55
0
LINE
8
Black
10
40.2
20
-14.55
11
39.6
21
-14.55
0
LINE
8
Black
10
39.6
20
-14.55
11
39.6
21
-11.95
0
LINE
8
Black
10
39.6
20
-11.95
11
40.2
21
-11.95
0
LINE
8
Black
10
40.2
20
-11.95
11
40.2
21
-14.55
0
LINE
8
Black
10
41.4
20
-14.55
11
40.8
21
-14.55
0
LINE
8
Black
10
40.8
20
-14.55
11
40.8
21
-11.95
0
LINE
8
Black
10
40.8
20
-11.95
11
41.4
21
-11.95
0
LINE
8
Black
10
41.4
20
-11.95
11
41.4
21
-14.55
0
LINE
8
Black
10
13.6
20
-14.55
11
13
21
-14.55
0
LINE
8
Black
10
13
20
-14.55
11
13
21
-11.95
0
LINE
8
Black
10
13
20
-11.95
11
13.6
21
-11.95
0
LINE
8
Black
10
13.6
20
-11.95
11
13.6
21
-14.55
0
LINE
8
Black
10
14.8
20
-14.55
11
14.2
21
-14.55
0
LINE
8
Black
10
14.2
20
-14.55
11
14.2
21
-11.95
0
LINE
8
Black
10
14.2
20
-11.95
11
14.8
21
-11.95
0
LINE
8
Black
10
14.8
20
-11.95
11
14.8
21
-14.55
0
LINE
8
Black
10
16
20
-14.55
11
15.4
21
-14.55
0
LINE
8
Black
10
15.4
20
-14.55
11
15.4
21
-11.95
0
LINE
8
Black
10
15.4
20
-11.95
11
16
21
-11.95
0
LINE
8
Black
10
16
20
-11.95
11
16
21
-14.55
0
LINE
8
Black
10
22
20
-14.55
11
21.4
21
-14.55
0
LINE
8
Black
10
21.4
20
-14.55
11
21.4
21
-11.95
0
LINE
8
Black
10
21.4
20
-11.95
11
22
21
-11.95
0
LINE
8
Black
10
22
20
-11.95
11
22
21
-14.55
0
LINE
8
Black
10
20.8
20
-14.55
11
20.2
21
-14.55
0
LINE
8
Black
10
20.2
20
-14.55
11
20.2
21
-11.95
0
LINE
8
Black
10
20.2
20
-11.95
11
20.8
21
-11.95
0
LINE
8
Black
10
20.8
20
-11.95
11
20.8
21
-14.55
0
LINE
8
Black
10
19.6
20
-14.55
11
19
21
-14.55
0
LINE
8
Black
10
19
20
-14.55
11
19
21
-11.95
0
LINE
8
Black
10
19
20
-11.95
11
19.6
21
-11.95
0
LINE
8
Black
10
19.6
20
-11.95
11
19.6
21
-14.55
0
LINE
8
Black
10
18.4
20
-14.55
11
17.8
21
-14.55
0
LINE
8
Black
10
17.8
20
-14.55
11
17.8
21
-11.95
0
LINE
8
Black
10
17.8
20
-11.95
11
18.4
21
-11.95
0
LINE
8
Black
10
18.4
20
-11.95
11
18.4
21
-14.55
0
LINE
8
Black
10
45.35
20
-9.35
11
35.65
21
-9.35
0
LINE
8
Black
10
35.65
20
-9.35
11
35.65
21
-5.65
0
LINE
8
Black
10
35.65
20
-5.65
11
36.15
21
-5.65
0
LINE
8
Black
10
36.15
20
-5.65
11
36.15
21
-2.75
0
LINE
8
Black
10
36.15
20
-2.75
11
35.45
21
-2.75
0
LINE
8
Black
10
35.45
20
-2.75
11
35.45
21
-1.35
0
LINE
8
Black
10
35.45
20
-1.35
11
45.55
21
-1.35
0
LINE
8
Black
10
45.55
20
-1.35
11
45.55
21
-2.75
0
LINE
8
Black
10
45.55
20
-2.75
11
44.85
21
-2.75
0
LINE
8
Black
10
44.85
20
-2.75
11
44.85
21
-5.65
0
LINE
8
Black
10
44.85
20
-5.65
11
45.35
21
-5.65
0
LINE
8
Black
10
45.35
20
-5.65
11
45.35
21
-9.35
0
LINE
8
Black
10
22.35
20
-9.35
11
12.65
21
-9.35
0
LINE
8
Black
10
12.65
20
-9.35
11
12.65
21
-5.65
0
LINE
8
Black
10
12.65
20
-5.65
11
13.15
21
-5.65
0
LINE
8
Black
10
13.15
20
-5.65
11
13.15
21
-2.75
0
LINE
8
Black
10
13.15
20
-2.75
11
12.45
21
-2.75
0
LINE
8
Black
10
12.45
20
-2.75
11
12.45
21
-1.35
0
LINE
8
Black
10
12.45
20
-1.35
11
22.55
21
-1.35
0
LINE
8
Black
10
22.55
20
-1.35
11
22.55
21
-2.75
0
LINE
8
Black
10
22.55
20
-2.75
11
21.85
21
-2.75
0
LINE
8
Black
10
21.85
20
-2.75
11
21.85
21
-5.65
0
LINE
8
Black
10
21.85
20
-5.65
11
22.35
21
-5.65
0
LINE
8
Black
10
22.35
20
-5.65
11
22.35
21
-9.35
  0
ENDSEC
  0
EOF
