G04 #@! TF.FileFunction,Other,Comment*
%FSLAX46Y46*%
G04 Gerber Fmt 4.6, Leading zero omitted, Abs format (unit mm)*
G04 Created by KiCad (PCBNEW 4.0.7) date 04/16/18 09:07:38*
%MOMM*%
%LPD*%
G01*
G04 APERTURE LIST*
%ADD10C,0.100000*%
%ADD11C,0.200000*%
G04 APERTURE END LIST*
D10*
D11*
X153000000Y19000000D02*
X154000000Y18000000D01*
X154000000Y17000000D02*
X152000000Y19000000D01*
X151000000Y19000000D02*
X154000000Y16000000D01*
X154000000Y15000000D02*
X150000000Y19000000D01*
X149000000Y19000000D02*
X154000000Y14000000D01*
X154000000Y13000000D02*
X148000000Y19000000D01*
X147000000Y19000000D02*
X154000000Y12000000D01*
X154000000Y11000000D02*
X146000000Y19000000D01*
X145000000Y19000000D02*
X154000000Y10000000D01*
X144000000Y1000000D02*
X144000000Y19000000D01*
X154000000Y19000000D02*
X154000000Y1000000D01*
X144000000Y19000000D02*
X154000000Y19000000D01*
X144000000Y13000000D02*
X146500000Y10500000D01*
X144000000Y14000000D02*
X146500000Y11500000D01*
X144000000Y15000000D02*
X146500000Y12500000D01*
X144000000Y16000000D02*
X147000000Y13000000D01*
X144000000Y17000000D02*
X147500000Y13500000D01*
X144000000Y18000000D02*
X148500000Y13500000D01*
X144000000Y19000000D02*
X149500000Y13500000D01*
X154000000Y9000000D02*
X151500000Y11500000D01*
X154000000Y8000000D02*
X151500000Y10500000D01*
X154000000Y7000000D02*
X151500000Y9500000D01*
X154000000Y6000000D02*
X151000000Y9000000D01*
X154000000Y5000000D02*
X150500000Y8500000D01*
X149500000Y8500000D02*
X154000000Y4000000D01*
X154000000Y3000000D02*
X148500000Y8500000D01*
X151500000Y11000000D02*
G75*
G03X151500000Y11000000I-2500000J0D01*
G01*
X145000000Y1000000D02*
X144000000Y2000000D01*
X144000000Y3000000D02*
X146000000Y1000000D01*
X147000000Y1000000D02*
X144000000Y4000000D01*
X144000000Y5000000D02*
X148000000Y1000000D01*
X149000000Y1000000D02*
X144000000Y6000000D01*
X144000000Y7000000D02*
X150000000Y1000000D01*
X151000000Y1000000D02*
X144000000Y8000000D01*
X144000000Y9000000D02*
X152000000Y1000000D01*
X153000000Y1000000D02*
X144000000Y10000000D01*
X144000000Y11000000D02*
X154000000Y1000000D01*
X154000000Y2000000D02*
X144000000Y12000000D01*
X94000000Y2000000D02*
X84000000Y12000000D01*
X84000000Y11000000D02*
X94000000Y1000000D01*
X93000000Y1000000D02*
X84000000Y10000000D01*
X84000000Y9000000D02*
X92000000Y1000000D01*
X91000000Y1000000D02*
X84000000Y8000000D01*
X84000000Y7000000D02*
X90000000Y1000000D01*
X89000000Y1000000D02*
X84000000Y6000000D01*
X84000000Y5000000D02*
X88000000Y1000000D01*
X87000000Y1000000D02*
X84000000Y4000000D01*
X84000000Y3000000D02*
X86000000Y1000000D01*
X85000000Y1000000D02*
X84000000Y2000000D01*
X91500000Y11000000D02*
G75*
G03X91500000Y11000000I-2500000J0D01*
G01*
X94000000Y3000000D02*
X88500000Y8500000D01*
X89500000Y8500000D02*
X94000000Y4000000D01*
X94000000Y5000000D02*
X90500000Y8500000D01*
X94000000Y6000000D02*
X91000000Y9000000D01*
X94000000Y7000000D02*
X91500000Y9500000D01*
X94000000Y8000000D02*
X91500000Y10500000D01*
X94000000Y9000000D02*
X91500000Y11500000D01*
X84000000Y19000000D02*
X89500000Y13500000D01*
X84000000Y18000000D02*
X88500000Y13500000D01*
X84000000Y17000000D02*
X87500000Y13500000D01*
X84000000Y16000000D02*
X87000000Y13000000D01*
X84000000Y15000000D02*
X86500000Y12500000D01*
X84000000Y14000000D02*
X86500000Y11500000D01*
X84000000Y13000000D02*
X86500000Y10500000D01*
X84000000Y19000000D02*
X94000000Y19000000D01*
X94000000Y19000000D02*
X94000000Y1000000D01*
X84000000Y1000000D02*
X84000000Y19000000D01*
X85000000Y19000000D02*
X94000000Y10000000D01*
X94000000Y11000000D02*
X86000000Y19000000D01*
X87000000Y19000000D02*
X94000000Y12000000D01*
X94000000Y13000000D02*
X88000000Y19000000D01*
X89000000Y19000000D02*
X94000000Y14000000D01*
X94000000Y15000000D02*
X90000000Y19000000D01*
X91000000Y19000000D02*
X94000000Y16000000D01*
X94000000Y17000000D02*
X92000000Y19000000D01*
X93000000Y19000000D02*
X94000000Y18000000D01*
X33000000Y19000000D02*
X34000000Y18000000D01*
X34000000Y17000000D02*
X32000000Y19000000D01*
X31000000Y19000000D02*
X34000000Y16000000D01*
X34000000Y15000000D02*
X30000000Y19000000D01*
X29000000Y19000000D02*
X34000000Y14000000D01*
X34000000Y13000000D02*
X28000000Y19000000D01*
X27000000Y19000000D02*
X34000000Y12000000D01*
X34000000Y11000000D02*
X26000000Y19000000D01*
X25000000Y19000000D02*
X34000000Y10000000D01*
X24000000Y1000000D02*
X24000000Y19000000D01*
X34000000Y19000000D02*
X34000000Y1000000D01*
X24000000Y19000000D02*
X34000000Y19000000D01*
X24000000Y13000000D02*
X26500000Y10500000D01*
X24000000Y14000000D02*
X26500000Y11500000D01*
X24000000Y15000000D02*
X26500000Y12500000D01*
X24000000Y16000000D02*
X27000000Y13000000D01*
X24000000Y17000000D02*
X27500000Y13500000D01*
X24000000Y18000000D02*
X28500000Y13500000D01*
X24000000Y19000000D02*
X29500000Y13500000D01*
X34000000Y9000000D02*
X31500000Y11500000D01*
X34000000Y8000000D02*
X31500000Y10500000D01*
X34000000Y7000000D02*
X31500000Y9500000D01*
X34000000Y6000000D02*
X31000000Y9000000D01*
X34000000Y5000000D02*
X30500000Y8500000D01*
X29500000Y8500000D02*
X34000000Y4000000D01*
X34000000Y3000000D02*
X28500000Y8500000D01*
X31500000Y11000000D02*
G75*
G03X31500000Y11000000I-2500000J0D01*
G01*
X-11000000Y-100800000D02*
X-11000000Y1000000D01*
X189000000Y-100800000D02*
X-11000000Y-100800000D01*
X189000000Y1000000D02*
X189000000Y-100800000D01*
X-11000000Y1000000D02*
X189000000Y1000000D01*
X177000000Y-99000000D02*
X177000000Y-1000000D01*
X167000000Y-99000000D02*
X177000000Y-99000000D01*
X167000000Y-1000000D02*
X167000000Y-99000000D01*
X177000000Y-1000000D02*
X167000000Y-1000000D01*
X154000000Y-47000000D02*
X154000000Y1000000D01*
X144000000Y-47000000D02*
X154000000Y-47000000D01*
X144000000Y1000000D02*
X144000000Y-47000000D01*
X131000000Y-99000000D02*
X121000000Y-99000000D01*
X131000000Y-1000000D02*
X131000000Y-99000000D01*
X121000000Y-1000000D02*
X131000000Y-1000000D01*
X121000000Y-99000000D02*
X121000000Y-1000000D01*
X117000000Y-1000000D02*
X117000000Y-99000000D01*
X107000000Y-99000000D02*
X117000000Y-99000000D01*
X107000000Y-1000000D02*
X107000000Y-99000000D01*
X117000000Y-1000000D02*
X107000000Y-1000000D01*
X94000000Y-47000000D02*
X94000000Y1000000D01*
X84000000Y-47000000D02*
X94000000Y-47000000D01*
X84000000Y1000000D02*
X84000000Y-47000000D01*
X61000000Y-99000000D02*
X61000000Y-1000000D01*
X71000000Y-99000000D02*
X61000000Y-99000000D01*
X71000000Y-1000000D02*
X71000000Y-99000000D01*
X61000000Y-1000000D02*
X71000000Y-1000000D01*
X11000000Y-99000000D02*
X11000000Y-1000000D01*
X1000000Y-99000000D02*
X11000000Y-99000000D01*
X1000000Y-1000000D02*
X1000000Y-99000000D01*
X11000000Y-1000000D02*
X1000000Y-1000000D01*
X24000000Y-47000000D02*
X24000000Y1000000D01*
X34000000Y-47000000D02*
X24000000Y-47000000D01*
X34000000Y1000000D02*
X34000000Y-47000000D01*
X57000000Y-99000000D02*
X57000000Y-1000000D01*
X47000000Y-99000000D02*
X57000000Y-99000000D01*
X47000000Y-1000000D02*
X47000000Y-99000000D01*
X57000000Y-1000000D02*
X47000000Y-1000000D01*
X120000000Y-100000000D02*
X120000000Y0D01*
X178000000Y0D02*
X178000000Y-100000000D01*
X120000000Y0D02*
X178000000Y0D01*
X174500000Y-16000000D02*
G75*
G03X174500000Y-16000000I-2500000J0D01*
G01*
X151500000Y-7000000D02*
G75*
G03X151500000Y-7000000I-2500000J0D01*
G01*
X151500000Y-41000000D02*
G75*
G03X151500000Y-41000000I-2500000J0D01*
G01*
X174500000Y-84000000D02*
G75*
G03X174500000Y-84000000I-2500000J0D01*
G01*
X128500000Y-84000000D02*
G75*
G03X128500000Y-84000000I-2500000J0D01*
G01*
X128500000Y-16000000D02*
G75*
G03X128500000Y-16000000I-2500000J0D01*
G01*
X120000000Y-100000000D02*
X120000000Y0D01*
X120000000Y0D02*
X178000000Y0D01*
X174500000Y-16000000D02*
G75*
G03X174500000Y-16000000I-2500000J0D01*
G01*
X151500000Y-7000000D02*
G75*
G03X151500000Y-7000000I-2500000J0D01*
G01*
X151500000Y-41000000D02*
G75*
G03X151500000Y-41000000I-2500000J0D01*
G01*
X174500000Y-84000000D02*
G75*
G03X174500000Y-84000000I-2500000J0D01*
G01*
X128500000Y-84000000D02*
G75*
G03X128500000Y-84000000I-2500000J0D01*
G01*
X128500000Y-16000000D02*
G75*
G03X128500000Y-16000000I-2500000J0D01*
G01*
X68500000Y-16000000D02*
G75*
G03X68500000Y-16000000I-2500000J0D01*
G01*
X68500000Y-84000000D02*
G75*
G03X68500000Y-84000000I-2500000J0D01*
G01*
X114500000Y-84000000D02*
G75*
G03X114500000Y-84000000I-2500000J0D01*
G01*
X91500000Y-41000000D02*
G75*
G03X91500000Y-41000000I-2500000J0D01*
G01*
X91500000Y-7000000D02*
G75*
G03X91500000Y-7000000I-2500000J0D01*
G01*
X114500000Y-16000000D02*
G75*
G03X114500000Y-16000000I-2500000J0D01*
G01*
X60000000Y0D02*
X118000000Y0D01*
X60000000Y-100000000D02*
X60000000Y0D01*
X120000000Y-100000000D02*
X120000000Y0D01*
X178000000Y-100000000D02*
X120000000Y-100000000D01*
X178000000Y0D02*
X178000000Y-100000000D01*
X120000000Y0D02*
X178000000Y0D01*
X174500000Y-16000000D02*
G75*
G03X174500000Y-16000000I-2500000J0D01*
G01*
X151500000Y-7000000D02*
G75*
G03X151500000Y-7000000I-2500000J0D01*
G01*
X151500000Y-41000000D02*
G75*
G03X151500000Y-41000000I-2500000J0D01*
G01*
X174500000Y-84000000D02*
G75*
G03X174500000Y-84000000I-2500000J0D01*
G01*
X128500000Y-84000000D02*
G75*
G03X128500000Y-84000000I-2500000J0D01*
G01*
X128500000Y-16000000D02*
G75*
G03X128500000Y-16000000I-2500000J0D01*
G01*
X68500000Y-16000000D02*
G75*
G03X68500000Y-16000000I-2500000J0D01*
G01*
X68500000Y-84000000D02*
G75*
G03X68500000Y-84000000I-2500000J0D01*
G01*
X114500000Y-84000000D02*
G75*
G03X114500000Y-84000000I-2500000J0D01*
G01*
X91500000Y-41000000D02*
G75*
G03X91500000Y-41000000I-2500000J0D01*
G01*
X91500000Y-7000000D02*
G75*
G03X91500000Y-7000000I-2500000J0D01*
G01*
X114500000Y-16000000D02*
G75*
G03X114500000Y-16000000I-2500000J0D01*
G01*
X60000000Y0D02*
X118000000Y0D01*
X118000000Y0D02*
X118000000Y-100000000D01*
X118000000Y-100000000D02*
X60000000Y-100000000D01*
X60000000Y-100000000D02*
X60000000Y0D01*
X0Y-100000000D02*
X0Y0D01*
X58000000Y-100000000D02*
X0Y-100000000D01*
X58000000Y0D02*
X58000000Y-100000000D01*
X0Y0D02*
X58000000Y0D01*
X54500000Y-16000000D02*
G75*
G03X54500000Y-16000000I-2500000J0D01*
G01*
X31500000Y-7000000D02*
G75*
G03X31500000Y-7000000I-2500000J0D01*
G01*
X31500000Y-41000000D02*
G75*
G03X31500000Y-41000000I-2500000J0D01*
G01*
X54500000Y-84000000D02*
G75*
G03X54500000Y-84000000I-2500000J0D01*
G01*
X8500000Y-84000000D02*
G75*
G03X8500000Y-84000000I-2500000J0D01*
G01*
X8500000Y-16000000D02*
G75*
G03X8500000Y-16000000I-2500000J0D01*
G01*
X25000000Y1000000D02*
X24000000Y2000000D01*
X24000000Y3000000D02*
X26000000Y1000000D01*
X27000000Y1000000D02*
X24000000Y4000000D01*
X24000000Y5000000D02*
X28000000Y1000000D01*
X29000000Y1000000D02*
X24000000Y6000000D01*
X24000000Y7000000D02*
X30000000Y1000000D01*
X31000000Y1000000D02*
X24000000Y8000000D01*
X24000000Y9000000D02*
X32000000Y1000000D01*
X33000000Y1000000D02*
X24000000Y10000000D01*
X24000000Y11000000D02*
X34000000Y1000000D01*
X34000000Y2000000D02*
X24000000Y12000000D01*
M02*
